<?xml version="1.0" standalone="no"?>
<!DOCTYPE svg PUBLIC "-//W3C//DTD SVG 20010904//EN"
 "http://www.w3.org/TR/2001/REC-SVG-20010904/DTD/svg10.dtd">
<svg version="1.0" xmlns="http://www.w3.org/2000/svg"
 width="4978.000000pt" height="4377.000000pt" viewBox="0 0 4978.000000 4377.000000"
 preserveAspectRatio="xMidYMid meet">

<g transform="translate(0.000000,4377.000000) scale(0.100000,-0.100000)"
fill="#337970" stroke="none">
<path d="M17568 43749 c-177 -26 -330 -102 -462 -228 -119 -115 -193 -236
-243 -398 -24 -79 -27 -104 -27 -238 0 -138 2 -157 28 -235 74 -224 191 -383
363 -494 135 -87 230 -117 568 -176 425 -75 698 -132 1050 -222 1483 -375
2941 -1022 4215 -1867 113 -75 225 -148 250 -162 272 -156 647 -144 910 30
469 309 531 974 127 1357 -106 102 -507 367 -967 641 -1583 942 -3337 1596
-5196 1938 -354 65 -471 75 -616 54z"/>
<path d="M11033 43270 c-235 -51 -952 -301 -1452 -507 -1080 -444 -2132 -1023
-3050 -1677 -694 -495 -1479 -1153 -1658 -1391 -55 -73 -116 -197 -140 -285
-26 -95 -23 -298 6 -404 51 -189 123 -318 251 -446 106 -106 183 -156 305
-198 76 -25 89 -27 260 -26 160 1 191 4 276 26 162 44 245 94 439 268 966 867
1935 1532 3038 2084 623 311 1155 531 1867 768 215 72 413 142 440 156 224
112 387 307 456 544 30 103 37 305 15 411 -65 316 -293 565 -611 667 -102 33
-314 38 -442 10z"/>
<path d="M15195 40939 c-1154 -64 -2139 -246 -3170 -586 -1351 -446 -2550
-1080 -3639 -1926 -1053 -818 -2003 -1855 -2778 -3032 -1018 -1546 -1658
-3263 -1912 -5125 -150 -1094 -162 -2125 -40 -3220 178 -1603 712 -3271 1499
-4690 768 -1384 1802 -2602 3090 -3639 1037 -836 2148 -1469 3360 -1916 1592
-586 3441 -833 5160 -689 2827 236 5467 1469 7506 3504 1390 1388 2412 3048
3027 4920 420 1275 632 2598 632 3938 0 505 -34 1205 -61 1265 -17 38 -51 45
-269 50 -614 16 -1278 257 -1775 644 -542 422 -967 1061 -1130 1698 -66 259
-95 492 -95 769 0 762 234 1439 693 2006 87 107 304 327 427 433 114 98 120
104 120 129 0 39 -385 575 -664 923 -299 375 -537 638 -920 1020 -380 379
-612 588 -976 879 -1250 999 -2694 1754 -4176 2181 -928 268 -1826 415 -2833
465 -235 12 -856 11 -1076 -1z m1100 -3039 c1863 -102 3500 -666 4946 -1705
1012 -728 1867 -1626 2511 -2639 341 -536 651 -1161 876 -1766 312 -840 507
-1674 587 -2510 52 -554 52 -1186 -1 -1770 -152 -1693 -707 -3260 -1622 -4584
-857 -1239 -1952 -2249 -3197 -2946 -971 -544 -2158 -940 -3245 -1084 -1183
-157 -2352 -93 -3482 190 -1178 294 -2320 841 -3303 1579 -563 423 -1126 962
-1596 1525 -974 1169 -1643 2534 -1983 4045 -160 709 -229 1341 -229 2095 -1
835 86 1584 274 2359 361 1495 1108 2910 2177 4121 278 315 705 725 1047 1005
1177 965 2662 1658 4140 1934 426 79 833 123 1430 154 149 8 497 6 670 -3z"/>
<path d="M15510 37063 c-1557 -87 -2975 -556 -4250 -1406 -1049 -700 -1941
-1634 -2598 -2720 -727 -1199 -1143 -2522 -1254 -3977 -17 -230 -17 -999 0
-1215 65 -803 204 -1497 447 -2220 207 -617 482 -1204 838 -1790 139 -229 167
-262 167 -191 0 39 -5 59 -180 716 -244 917 -361 1473 -444 2110 -75 575 -91
835 -91 1505 0 597 7 734 56 1150 182 1566 775 2988 1690 4055 1213 1415 2762
2280 4654 2599 780 132 1490 150 2300 60 1643 -182 3211 -845 4574 -1933 314
-250 540 -454 872 -786 489 -488 811 -866 1239 -1455 217 -298 400 -515 434
-515 33 0 17 74 -58 277 -160 428 -265 671 -442 1023 -435 867 -968 1600
-1650 2270 -1498 1472 -3357 2307 -5429 2440 -142 9 -732 11 -875 3z"/>
<path d="M38275 39983 c-813 -32 -1542 -116 -2275 -263 -1696 -341 -3332 -992
-4820 -1918 -325 -203 -850 -560 -945 -644 -35 -30 -45 -62 -22 -71 18 -7 62
8 2322 758 1133 376 2112 697 2175 714 305 80 496 105 820 105 265 0 382 -11
604 -55 742 -148 1375 -531 1855 -1124 346 -427 567 -941 662 -1539 7 -47 19
-86 29 -96 21 -21 64 -26 415 -45 333 -18 469 -30 669 -56 1316 -174 2490
-667 3406 -1429 1435 -1194 2270 -3055 2454 -5465 41 -537 47 -1481 12 -1990
-135 -1966 -614 -3893 -1454 -5850 -1522 -3547 -4217 -7071 -7827 -10236
-2209 -1936 -4837 -3769 -7470 -5211 -614 -336 -1427 -757 -1802 -932 -118
-55 -124 -57 -160 -45 -54 17 -847 408 -1163 573 -2484 1297 -4981 2962 -7173
4784 -799 664 -1533 1321 -2247 2012 -140 135 -267 254 -281 264 -24 15 -71
17 -515 16 -879 -1 -1566 44 -2317 151 -324 46 -472 82 -646 159 -345 151
-623 417 -791 755 -79 159 -119 275 -152 437 -30 150 -32 433 -4 578 66 347
229 647 487 896 137 132 260 215 484 324 33 17 51 32 53 46 3 19 -6 24 -80 43
-1362 360 -2573 887 -3731 1625 -92 59 -188 116 -212 128 -41 20 -47 21 -61 6
-14 -14 -8 -29 61 -168 80 -161 142 -330 170 -465 37 -180 35 -450 -5 -648
-64 -315 -201 -568 -446 -827 -63 -66 -114 -122 -114 -125 0 -29 364 -563 719
-1055 1514 -2101 3338 -4121 5466 -6056 3268 -2970 7131 -5553 10997 -7355
471 -219 1243 -559 1430 -629 31 -11 62 -27 68 -35 19 -23 103 -20 125 5 9 10
34 25 54 31 48 16 593 257 907 402 1125 518 2322 1130 3374 1725 3856 2180
7437 4931 10284 7902 1122 1171 2022 2226 2911 3415 2509 3354 4164 6895 4859
10395 129 653 280 1702 296 2060 5 113 16 268 25 345 14 124 15 302 12 1525
-3 939 -7 1406 -15 1451 -6 36 -15 168 -21 295 -18 378 -132 1121 -267 1739
-592 2697 -1950 4929 -3919 6442 -901 692 -1978 1260 -3096 1634 -1033 345
-2134 539 -3344 589 -215 9 -645 11 -830 3z"/>
<path d="M35356 37909 c-121 -10 -299 -39 -421 -70 -91 -23 -625 -200 -4915
-1624 -1685 -560 -3114 -1038 -3175 -1062 -457 -183 -836 -495 -1104 -908
-191 -293 -310 -611 -362 -960 -26 -179 -29 -545 -4 -695 129 -802 611 -1460
1320 -1805 531 -258 1079 -310 1680 -159 151 38 7993 2649 8122 2705 598 256
1080 782 1297 1416 87 255 126 492 126 764 0 287 -33 498 -121 765 -253 770
-883 1357 -1679 1564 -230 60 -537 88 -764 69z"/>
<path d="M1757 34705 c-167 -32 -314 -107 -439 -224 -138 -130 -183 -210 -323
-587 -508 -1359 -823 -2754 -939 -4164 -50 -596 -61 -1032 -42 -1630 21 -659
25 -721 47 -835 67 -334 295 -582 626 -681 75 -23 108 -27 218 -27 144 -1 214
12 343 64 158 63 331 207 415 345 50 83 92 193 113 294 18 90 17 156 -6 665
-20 443 -10 1081 26 1570 88 1227 371 2530 791 3645 126 333 170 469 189 582
71 428 -194 839 -623 963 -112 33 -282 41 -396 20z"/>
<path d="M28885 23945 c-183 -34 -341 -120 -471 -258 -94 -99 -138 -174 -234
-407 -244 -590 -557 -1221 -872 -1760 -331 -566 -710 -1116 -1134 -1645 -347
-433 -598 -711 -1071 -1183 -400 -399 -459 -466 -518 -582 -66 -132 -80 -197
-79 -375 1 -143 3 -169 27 -248 51 -166 132 -297 251 -403 168 -150 363 -224
593 -224 195 0 374 63 543 191 99 75 620 586 855 839 875 942 1609 1953 2239
3085 146 262 473 916 589 1177 300 678 345 835 306 1058 -22 128 -46 200 -100
299 -178 331 -549 506 -924 436z"/>
<path d="M2655 22076 c-230 -45 -412 -158 -545 -336 -130 -177 -190 -387 -169
-597 18 -177 69 -305 219 -558 1123 -1886 2556 -3442 4365 -4739 310 -223 446
-279 680 -280 104 0 147 4 213 22 318 85 556 322 638 637 27 102 24 330 -5
440 -45 170 -155 342 -288 447 -37 30 -131 99 -208 153 -1558 1097 -2876 2524
-3876 4197 -84 139 -168 273 -188 298 -116 143 -265 242 -448 295 -110 32
-283 41 -388 21z"/>
<path d="M19640 15370 c-89 -11 -122 -20 -385 -95 -1391 -399 -2819 -576
-4247 -526 -527 18 -755 39 -1369 121 -359 48 -472 51 -611 16 -259 -66 -460
-232 -578 -477 -61 -129 -82 -221 -83 -369 0 -140 14 -217 64 -335 80 -193
215 -341 400 -439 142 -75 254 -100 659 -150 882 -109 1607 -143 2525 -116
347 11 533 21 805 46 721 65 1448 181 2125 339 485 112 1080 282 1200 342 239
120 411 361 456 637 16 103 7 280 -21 376 -115 407 -527 683 -940 630z"/>
</g>
</svg>
