<?xml version="1.0" standalone="no"?>
<!DOCTYPE svg PUBLIC "-//W3C//DTD SVG 20010904//EN"
 "http://www.w3.org/TR/2001/REC-SVG-20010904/DTD/svg10.dtd">
<svg version="1.0" xmlns="http://www.w3.org/2000/svg"
 width="5056.000000pt" height="4468.000000pt" viewBox="0 0 5056.000000 4468.000000"
 preserveAspectRatio="xMidYMid meet">

<g transform="translate(0.000000,4468.000000) scale(0.100000,-0.100000)"
fill="#333d51" stroke="none">
<path d="M17559 44645 c-338 -53 -634 -197 -875 -427 -258 -247 -414 -529
-485 -874 -26 -130 -36 -387 -19 -520 81 -649 546 -1197 1172 -1378 46 -13
193 -43 325 -65 1770 -300 3390 -942 4878 -1934 307 -205 490 -287 747 -339
147 -29 432 -31 575 -5 354 66 649 221 893 467 226 229 387 538 446 855 26
138 26 461 1 587 -68 336 -207 610 -429 844 -100 105 -189 175 -428 334 -1478
986 -3143 1724 -4885 2165 -441 112 -1021 230 -1390 284 -163 24 -392 27 -526
6z"/>
<path d="M11433 44210 c-138 -14 -236 -38 -498 -120 -1576 -495 -3122 -1272
-4437 -2229 -599 -436 -1352 -1066 -1561 -1306 -186 -215 -320 -494 -373 -780
-29 -152 -26 -472 5 -615 114 -532 458 -961 942 -1176 448 -199 961 -189 1393
28 189 95 247 138 532 393 1136 1019 2456 1815 3900 2353 167 63 479 169 724
247 319 101 581 272 779 508 481 573 521 1377 100 1999 -119 175 -349 385
-541 494 -276 157 -655 237 -965 204z"/>
<path d="M37730 41709 c-2588 -97 -5154 -886 -7440 -2287 -278 -170 -1047
-689 -1037 -699 2 -1 1350 446 2997 993 1647 547 3056 1012 3130 1034 403 117
759 169 1210 177 298 5 454 -2 695 -33 1782 -228 3280 -1462 3850 -3169 154
-459 230 -896 242 -1380 19 -773 -150 -1526 -497 -2220 -87 -174 -88 -176 -67
-189 12 -7 69 -39 127 -70 136 -75 386 -242 523 -349 846 -662 1416 -1669
1701 -3002 238 -1114 266 -2483 80 -3855 -269 -1982 -979 -4011 -2106 -6013
-2288 -4067 -6221 -7969 -11128 -11042 -898 -562 -1825 -1090 -2840 -1618
l-166 -86 -244 125 c-2492 1275 -5071 3020 -7302 4941 -136 117 -256 213 -265
213 -10 0 -90 -16 -178 -35 -753 -162 -1577 -269 -2505 -327 -276 -17 -1414
-17 -1690 0 -839 52 -1649 150 -1948 237 -638 183 -1168 626 -1467 1225 -421
842 -291 1874 327 2595 90 105 218 229 306 297 l42 32 -288 97 c-565 189
-1048 385 -1561 630 -90 44 -165 79 -166 79 -1 0 2 -21 7 -47 16 -88 21 -471
9 -583 -32 -280 -109 -542 -231 -789 -240 -482 -599 -841 -1075 -1076 -288
-142 -568 -218 -903 -243 l-93 -7 132 -195 c1880 -2775 4446 -5561 7377 -8008
2173 -1815 4510 -3423 6932 -4772 566 -315 992 -540 1640 -863 990 -495 1654
-797 2725 -1238 l459 -190 401 172 c220 95 544 236 720 314 5856 2599 11302
6554 15301 11110 4226 4816 6649 10092 7043 15340 42 556 46 674 46 1475 0
803 -4 921 -46 1465 -302 3912 -1858 7102 -4504 9230 -1183 953 -2581 1670
-4107 2109 -1309 377 -2751 548 -4168 495z"/>
<path d="M15450 40919 c-2460 -69 -4813 -963 -6714 -2550 -496 -414 -1048
-967 -1466 -1469 -2035 -2440 -2948 -5636 -2530 -8860 230 -1771 904 -3525
1913 -4980 1323 -1907 3163 -3352 5277 -4143 1036 -388 2076 -606 3240 -678
416 -26 1103 -15 1580 26 1931 167 3812 860 5389 1986 2511 1793 4178 4501
4645 7544 82 534 136 1197 136 1681 l0 162 -107 63 c-216 127 -428 278 -648
460 -128 107 -436 415 -544 544 -400 481 -679 980 -871 1555 -222 665 -294
1349 -215 2038 57 491 210 1018 429 1477 l64 134 -100 148 c-398 583 -807
1074 -1352 1619 -579 578 -1056 971 -1711 1409 -1570 1050 -3370 1668 -5270
1810 -172 13 -833 38 -870 33 -5 -1 -129 -5 -275 -9z m1030 -4903 c348 -35
671 -92 995 -176 1446 -373 2731 -1264 3618 -2508 962 -1350 1382 -2995 1191
-4672 -196 -1720 -1086 -3330 -2437 -4408 -1382 -1102 -3112 -1576 -4847
-1326 -490 70 -1052 224 -1495 409 -1720 718 -3057 2151 -3669 3934 -471 1372
-483 2882 -35 4258 187 573 471 1157 802 1650 478 712 1088 1322 1792 1793
460 308 1009 578 1525 750 462 154 1010 266 1475 300 83 6 168 12 190 14 99
10 751 -4 895 -18z"/>
<path d="M36390 39319 c-145 -14 -331 -47 -475 -84 -141 -36 -7695 -2542
-7860 -2607 -604 -239 -1135 -684 -1478 -1239 -251 -406 -409 -872 -457 -1348
-13 -133 -13 -449 0 -582 104 -1033 690 -1924 1595 -2427 226 -125 556 -251
805 -306 468 -103 967 -99 1420 10 58 14 512 161 1010 326 4629 1536 6846
2276 6946 2318 369 158 689 375 975 662 750 753 1062 1828 832 2868 -34 157
-128 439 -197 591 -443 982 -1344 1654 -2417 1804 -137 19 -561 28 -699 14z"/>
<path d="M2370 35960 c-343 -62 -617 -202 -864 -440 -205 -197 -324 -405 -492
-855 -516 -1389 -824 -2755 -943 -4190 -41 -490 -46 -636 -46 -1305 1 -683 15
-1053 50 -1257 104 -604 525 -1094 1106 -1287 421 -140 886 -101 1279 106 429
227 736 636 842 1122 19 88 22 131 22 331 1 127 -5 333 -12 458 -23 429 -14
996 23 1482 91 1184 360 2370 788 3481 123 320 154 443 164 665 25 538 -227
1068 -662 1392 -170 126 -426 241 -643 288 -144 31 -466 36 -612 9z"/>
<path d="M28561 25649 c-493 -38 -948 -303 -1223 -714 -77 -115 -127 -216
-223 -450 -652 -1592 -1697 -3122 -2926 -4281 -293 -277 -387 -394 -494 -617
-259 -538 -211 -1149 128 -1652 83 -123 293 -332 417 -414 322 -214 699 -315
1063 -283 308 28 605 139 841 316 191 143 722 667 1112 1097 1225 1351 2229
2947 2916 4639 126 311 162 473 161 730 -3 619 -343 1173 -895 1456 -263 134
-576 196 -877 173z"/>
<path d="M3796 24600 c7 -38 11 -46 19 -38 3 3 -2 20 -10 39 l-16 34 7 -35z"/>
<path d="M3330 23849 c-712 -81 -1278 -596 -1430 -1304 -31 -143 -39 -421 -15
-569 46 -296 111 -442 423 -956 535 -879 1176 -1723 1899 -2500 704 -757 1511
-1469 2338 -2061 316 -227 417 -288 584 -354 499 -197 1067 -136 1513 164 457
308 727 810 728 1356 1 399 -134 766 -394 1074 -101 119 -188 193 -461 388
-1110 791 -2057 1726 -2852 2816 -173 236 -454 662 -597 902 -192 323 -217
362 -297 459 -346 420 -902 646 -1439 585z"/>
<path d="M19617 17409 c-124 -11 -227 -33 -417 -89 -1624 -482 -3296 -628
-4960 -434 -118 14 -289 37 -380 51 -286 45 -545 36 -780 -28 -538 -146 -973
-574 -1130 -1111 -102 -350 -90 -708 36 -1046 170 -458 537 -815 1003 -976
133 -46 238 -67 551 -110 664 -91 1225 -132 1920 -143 1520 -22 3030 180 4510
603 309 89 388 116 515 179 456 223 776 640 886 1155 20 90 23 135 23 315 0
180 -3 225 -23 315 -48 227 -129 421 -252 607 -91 136 -293 341 -424 430 -237
160 -506 256 -795 282 -126 12 -153 12 -283 0z"/>
</g>
</svg>
