<?xml version="1.0" standalone="no"?>
<!DOCTYPE svg PUBLIC "-//W3C//DTD SVG 20010904//EN"
 "http://www.w3.org/TR/2001/REC-SVG-20010904/DTD/svg10.dtd">
<svg version="1.0" xmlns="http://www.w3.org/2000/svg"
 width="2304.000000pt" height="2295.000000pt" viewBox="0 0 2304.000000 2295.000000"
 preserveAspectRatio="xMidYMid meet">

<g transform="translate(0.000000,2295.000000) scale(0.100000,-0.100000)"
fill="#333d51" stroke="none">
<path d="M11281 22939 c-255 -27 -519 -112 -745 -241 -223 -128 25 116 -5202
-5112 -4217 -4217 -4920 -4924 -4977 -5006 -174 -249 -279 -506 -329 -800 -30
-179 -29 -437 1 -615 53 -307 167 -574 351 -825 46 -63 1346 -1370 4899 -4924
2660 -2661 4881 -4878 4936 -4928 569 -512 1387 -629 2081 -298 589 280 983
834 1065 1494 18 153 7 431 -25 584 -63 296 -187 567 -369 802 -28 36 -1500
1515 -3271 3287 l-3221 3223 7366 0 c4961 0 7401 3 7470 10 236 24 441 81 649
181 573 276 966 812 1055 1440 19 133 19 394 0 528 -123 867 -808 1525 -1687
1620 -67 8 -2356 11 -7475 11 l-7378 0 3221 3223 c2596 2596 3236 3242 3296
3323 591 795 479 1905 -257 2556 -395 349 -932 521 -1454 467z"/>
</g>
</svg>
