<?xml version="1.0" standalone="no"?>
<!DOCTYPE svg PUBLIC "-//W3C//DTD SVG 20010904//EN"
 "http://www.w3.org/TR/2001/REC-SVG-20010904/DTD/svg10.dtd">
<svg version="1.0" xmlns="http://www.w3.org/2000/svg"
 width="5692.000000pt" height="5692.000000pt" viewBox="0 0 5692.000000 5692.000000"
 preserveAspectRatio="xMidYMid meet">

<g transform="translate(0.000000,5692.000000) scale(0.100000,-0.100000)"
fill="#333d51" stroke="none">
<path d="M27815 56910 c-1554 -38 -3037 -190 -4520 -461 -4801 -878 -9309
-2996 -13072 -6142 -2464 -2060 -4574 -4530 -6205 -7262 -2177 -3646 -3502
-7698 -3892 -11900 -90 -963 -121 -1650 -120 -2685 0 -970 21 -1522 95 -2405
511 -6173 3044 -12019 7210 -16640 596 -661 1348 -1417 1994 -2005 2529 -2301
5424 -4116 8585 -5382 3846 -1540 7978 -2213 12175 -1983 6343 349 12356 2808
17159 7019 3266 2864 5852 6462 7516 10461 1566 3763 2298 7798 2159 11910
-152 4524 -1365 8900 -3560 12847 -1584 2849 -3666 5424 -6129 7584 -2438
2136 -5203 3832 -8210 5033 -2858 1142 -5910 1812 -8995 1976 -680 36 -1581
50 -2190 35z m790 -17360 c894 -52 1676 -501 2171 -1246 217 -328 353 -679
427 -1104 l22 -125 2 -2907 3 -2908 2833 0 c3006 0 2926 1 3169 -45 1061 -200
1915 -1002 2178 -2046 144 -569 104 -1170 -115 -1715 -365 -909 -1177 -1553
-2155 -1708 -209 -34 -393 -36 -3152 -36 l-2758 0 0 -2869 c0 -1898 -3 -2904
-10 -2972 -54 -542 -256 -1038 -598 -1469 -93 -117 -308 -333 -422 -424 -815
-650 -1914 -797 -2855 -380 -453 200 -854 524 -1137 919 -310 433 -482 915
-517 1450 -7 106 -11 1093 -11 2952 l0 2793 -2808 0 c-1870 0 -2861 4 -2967
11 -498 33 -953 186 -1360 457 -187 125 -305 223 -466 389 -211 219 -354 423
-494 708 -130 264 -210 521 -256 825 -26 172 -32 538 -10 705 66 521 260 992
574 1393 396 506 974 869 1592 1001 278 59 16 54 3243 58 l2952 3 0 2768 c0
1643 4 2827 10 2914 16 255 59 481 130 697 361 1090 1339 1845 2475 1911 72 4
132 8 135 8 3 1 81 -3 175 -8z"/>
</g>
</svg>
