<?xml version="1.0" standalone="no"?>
<!DOCTYPE svg PUBLIC "-//W3C//DTD SVG 20010904//EN"
 "http://www.w3.org/TR/2001/REC-SVG-20010904/DTD/svg10.dtd">
<svg version="1.0" xmlns="http://www.w3.org/2000/svg"
 width="5692.000000pt" height="5692.000000pt" viewBox="0 0 5692.000000 5692.000000"
 preserveAspectRatio="xMidYMid meet ">

<g transform="translate(0.000000,5692.000000) scale(0.100000,-0.100000)"
fill="#333d51" stroke="none">
<path d="M27815 56910 c-1554 -38 -3037 -190 -4520 -461 -4801 -878 -9309
-2996 -13072 -6142 -2464 -2060 -4574 -4530 -6205 -7262 -2177 -3646 -3502
-7698 -3892 -11900 -90 -963 -121 -1650 -120 -2685 0 -970 21 -1522 95 -2405
511 -6173 3044 -12019 7210 -16640 596 -661 1348 -1417 1994 -2005 2529 -2301
5424 -4116 8585 -5382 3846 -1540 7978 -2213 12175 -1983 6343 349 12356 2808
17159 7019 3266 2864 5852 6462 7516 10461 1566 3763 2298 7798 2159 11910
-152 4524 -1365 8900 -3560 12847 -1584 2849 -3666 5424 -6129 7584 -2438
2136 -5203 3832 -8210 5033 -2858 1142 -5910 1812 -8995 1976 -680 36 -1581
50 -2190 35z m1063 -11479 c928 -143 1716 -717 2131 -1552 164 -330 260 -669
291 -1034 6 -80 10 -2319 10 -6655 l0 -6535 4398 -4400 c4607 -4609 4450
-4449 4615 -4700 448 -685 573 -1574 332 -2369 -102 -336 -267 -651 -495 -946
-157 -202 -429 -452 -656 -603 -744 -493 -1681 -610 -2521 -316 -304 107 -582
262 -845 471 -72 56 -1570 1548 -4904 4882 -4923 4923 -4876 4875 -5082 5154
-275 372 -452 817 -524 1317 -20 135 -19 14673 0 14820 77 575 308 1087 689
1527 447 516 1122 872 1793 947 52 6 109 13 125 15 17 2 138 3 270 1 178 -2
274 -9 373 -24z"/>
</g>
</svg>
