<?xml version="1.0" standalone="no"?>
<!DOCTYPE svg PUBLIC "-//W3C//DTD SVG 20010904//EN"
 "http://www.w3.org/TR/2001/REC-SVG-20010904/DTD/svg10.dtd">
<svg version="1.0" xmlns="http://www.w3.org/2000/svg"
 width="5389.000000pt" height="4632.000000pt" viewBox="0 0 5389.000000 4632.000000"
 preserveAspectRatio="xMidYMid meet">
<metadata>
Created by potrace 1.16, written by Peter Selinger 2001-2019
</metadata>
<g transform="translate(0.000000,4632.000000) scale(0.100000,-0.100000)"
fill="#e3e7f0" stroke="none">
<path d="M14075 46309 c-2367 -74 -4741 -695 -7055 -1845 -190 -94 -417 -211
-505 -259 -1609 -882 -2892 -2019 -3880 -3440 -1395 -2007 -2209 -4576 -2509
-7920 -177 -1966 -162 -3581 50 -5255 362 -2872 1316 -5698 2862 -8480 869
-1565 1986 -3210 3221 -4745 3086 -3836 6967 -7147 12006 -10242 1591 -977
3387 -1982 5310 -2970 1041 -535 1412 -718 1651 -813 1150 -459 2324 -445
3584 43 310 120 622 267 1490 703 2142 1075 4048 2137 5835 3249 4715 2934
8525 6183 11632 9918 3017 3627 4862 7131 5666 10762 235 1057 364 2012 438
3235 17 296 23 1358 9 1721 -7 178 -12 513 -11 744 2 461 -13 1336 -29 1705
-70 1582 -256 2766 -620 3946 -512 1658 -861 2338 -1303 2544 -403 188 -918
-16 -1762 -698 -321 -260 -616 -521 -1485 -1317 -1369 -1253 -3782 -3454
-7590 -6925 -6265 -5709 -9243 -8433 -12391 -11332 -267 -246 -541 -494 -607
-552 -1093 -936 -1947 -1086 -2911 -511 -250 149 -430 292 -856 676 -953 859
-1792 1583 -3780 3259 -1625 1370 -2155 1823 -2965 2530 -261 228 -524 458
-585 510 -684 587 -953 942 -1030 1355 -25 129 -16 326 19 457 77 289 255 569
545 858 271 270 489 396 768 445 351 61 737 -77 1213 -434 63 -47 235 -185
381 -307 146 -122 603 -497 1015 -835 2136 -1749 3120 -2590 4314 -3690 580
-534 1032 -815 1505 -937 678 -175 1345 18 2110 612 193 150 304 248 760 671
2682 2493 5499 5066 11610 10600 3840 3478 6902 6264 7435 6765 1066 1002
1547 1627 1655 2150 23 111 23 297 0 404 -87 409 -459 795 -1195 1243 -633
385 -1810 960 -2613 1277 -698 276 -1265 435 -2062 580 -1978 360 -3839 488
-5540 381 -3103 -196 -5801 -1170 -8160 -2945 -248 -186 -563 -442 -877 -712
-316 -272 -467 -392 -656 -525 -604 -424 -1130 -581 -1611 -483 -439 89 -883
382 -1337 882 -407 449 -700 690 -1285 1056 -1075 672 -2275 1285 -3339 1707
-2175 861 -4339 1253 -6535 1184z"/>
</g>
</svg>
