<?xml version="1.0" standalone="no"?>
<!DOCTYPE svg PUBLIC "-//W3C//DTD SVG 20010904//EN"
 "http://www.w3.org/TR/2001/REC-SVG-20010904/DTD/svg10.dtd">
<svg version="1.0" xmlns="http://www.w3.org/2000/svg"
 width="5313.000000pt" height="4770.000000pt" viewBox="0 0 5313.000000 4770.000000"
 preserveAspectRatio="xMidYMid meet">

<g transform="translate(0.000000,4770.000000) scale(0.100000,-0.100000)"
fill="#e3e7f0" stroke="none">
<path d="M26203 47674 c-470 -51 -948 -200 -1428 -444 -93 -48 -647 -372
-1230 -722 -1853 -1110 -3229 -1930 -6940 -4138 -6247 -3716 -9096 -5425
-12185 -7308 -986 -601 -1087 -664 -1335 -830 -1704 -1143 -1730 -1851 -105
-2822 325 -194 551 -314 1170 -622 1864 -926 3948 -1941 8365 -4073 3465
-1673 4365 -2109 6160 -2985 2002 -977 2597 -1255 3260 -1520 765 -306 1316
-437 1681 -401 776 78 1072 734 1164 2586 24 484 31 936 43 2745 14 2175 13
2983 -3 3290 -24 462 -24 695 0 975 30 360 37 713 16 871 -54 411 -240 685
-582 859 -386 197 -733 157 -1170 -136 -111 -74 -219 -158 -482 -376 -219
-181 -330 -265 -507 -383 -199 -133 -497 -345 -885 -628 -976 -714 -1243 -901
-1670 -1165 -508 -315 -804 -443 -1175 -508 -184 -32 -442 -33 -603 -1 -288
57 -531 188 -746 399 -329 326 -502 726 -466 1079 46 440 328 832 965 1340
494 395 2028 1589 3030 2360 1879 1446 4778 3644 4976 3774 163 107 386 217
545 269 385 126 764 111 1115 -43 142 -63 195 -96 624 -386 2299 -1555 4545
-3268 6710 -5119 647 -553 1246 -1082 1365 -1207 408 -427 573 -984 446 -1509
-81 -331 -273 -653 -542 -904 -455 -425 -975 -421 -1677 13 -235 145 -655 436
-1197 830 -331 241 -565 415 -1910 1427 -650 489 -757 565 -950 681 -495 297
-881 385 -1157 263 -323 -143 -509 -573 -552 -1275 -6 -91 -13 -779 -16 -1530
-3 -751 -8 -2101 -11 -3000 -10 -2601 22 -4127 102 -4790 144 -1201 543 -1417
1749 -945 337 132 553 229 1330 600 4292 2049 9016 4340 13400 6498 2104 1035
4590 2268 4850 2405 867 457 1353 833 1539 1192 72 140 91 214 91 360 -1 146
-15 210 -79 346 -201 425 -722 868 -1801 1529 -2295 1408 -4874 2967 -7845
4745 -1791 1071 -2285 1365 -7345 4377 -2231 1328 -3439 2048 -4775 2848 -476
285 -931 553 -1011 597 -522 282 -1065 458 -1583 513 -178 18 -560 18 -733 -1z"/>
<path d="M761 28325 c-190 -42 -343 -167 -445 -364 -164 -318 -236 -788 -266
-1731 -30 -953 -52 -10695 -31 -14040 14 -2247 26 -3296 41 -3550 64 -1116
237 -2067 540 -2971 863 -2577 2707 -4358 5340 -5155 844 -256 1699 -401 2740
-464 573 -35 5462 -50 12255 -37 3544 6 6970 6 11130 -2 6877 -14 11325 -3
12180 30 1051 39 2023 193 2915 459 3533 1057 5615 3838 5904 7890 51 710 61
2234 59 8660 -2 5355 -14 8878 -33 9260 -40 850 -110 1283 -255 1585 -105 216
-242 337 -451 397 -66 19 -103 22 -224 22 -209 -1 -417 -43 -735 -150 -503
-168 -949 -369 -2805 -1269 -1322 -641 -2365 -1145 -4885 -2360 -7187 -3466
-10482 -5076 -13701 -6695 -1282 -644 -1414 -704 -1869 -855 -547 -181 -1042
-265 -1569 -265 -699 0 -1367 149 -2141 477 -99 42 -1078 525 -2175 1073
-4690 2341 -7576 3745 -18700 9098 -1332 640 -1906 871 -2374 953 -129 23
-349 24 -445 4z"/>
</g>
</svg>
