<?xml version="1.0" standalone="no"?>
<!DOCTYPE svg PUBLIC "-//W3C//DTD SVG 20010904//EN"
 "http://www.w3.org/TR/2001/REC-SVG-20010904/DTD/svg10.dtd">
<svg version="1.0" xmlns="http://www.w3.org/2000/svg"
 width="5692.000000pt" height="2524.000000pt" viewBox="0 0 5692.000000 2524.000000"
 preserveAspectRatio="xMidYMid meet">

<g transform="translate(0.000000,2524.000000) scale(0.100000,-0.100000)"
fill="#000000" stroke="none">
<path d="M27915 25209 c-110 -25 -166 -30 -365 -39 -1283 -54 -2442 -249
-3645 -611 -575 -174 -1042 -347 -1780 -659 -2235 -946 -4897 -2103 -8740
-3800 -500 -221 -1018 -449 -1150 -507 -289 -127 -713 -335 -885 -433 -423
-244 -746 -494 -1012 -785 -69 -76 -141 -146 -160 -156 -64 -34 -110 -32 -368
10 -135 22 -560 90 -945 151 -845 134 -1435 232 -1833 306 -1213 224 -1565
279 -2082 329 -1187 113 -2186 1 -2928 -326 -549 -242 -1013 -621 -1334 -1089
-333 -486 -561 -1119 -647 -1797 -99 -780 2 -1592 280 -2255 303 -725 816
-1452 1460 -2072 950 -915 2439 -1880 4073 -2641 1115 -518 2238 -938 3741
-1399 171 -52 357 -111 414 -131 526 -183 847 -389 1118 -716 129 -155 252
-247 486 -363 3000 -1478 6323 -2954 9677 -4298 1013 -406 2402 -946 2835
-1103 1267 -459 2445 -710 3730 -797 250 -16 1091 -17 1335 0 893 61 1687 198
2502 432 411 119 709 222 1678 585 3186 1194 6366 2552 9620 4107 1065 509
2411 1178 2584 1283 301 182 525 384 699 628 162 229 249 279 666 387 1246
324 2500 757 3713 1284 2067 897 3434 1748 4516 2811 1040 1020 1575 1966
1718 3035 22 166 30 606 15 793 -165 2006 -993 3106 -2652 3522 -460 115 -853
164 -1395 172 -739 11 -999 -23 -3194 -417 -1608 -289 -2557 -440 -2764 -440
-143 0 -240 45 -322 149 -24 31 -80 103 -125 161 -45 58 -148 170 -228 250
-265 263 -563 471 -964 671 -89 45 -1109 488 -2267 984 -2960 1269 -4013 1723
-6295 2710 -1090 472 -1716 730 -2310 953 -1363 512 -2500 813 -3595 951 -223
29 -346 41 -1210 126 -201 20 -438 45 -527 55 -139 17 -222 20 -585 19 l-423
-1 -130 -29z m25221 -6980 c597 -35 1088 -163 1561 -409 402 -208 690 -475
891 -828 173 -301 363 -846 427 -1222 64 -372 70 -739 19 -1090 -75 -520 -295
-1062 -635 -1567 -317 -471 -807 -995 -1359 -1452 -712 -590 -1542 -1106
-2655 -1652 -1112 -545 -1958 -894 -3075 -1270 -399 -135 -1007 -328 -1149
-365 -172 -44 -274 -28 -307 51 -20 49 -17 179 7 315 19 107 20 138 14 465 -5
267 -3 402 9 570 52 752 66 1375 86 3775 12 1402 12 1385 76 2735 3 72 9 301
13 510 7 365 8 382 29 430 13 28 39 67 59 87 69 71 109 81 650 173 274 46 860
147 1303 224 1313 228 2030 346 2660 435 613 87 969 109 1376 85z m-48426 -33
c502 -47 850 -101 1845 -287 264 -49 683 -123 930 -164 248 -41 633 -106 857
-144 391 -67 743 -122 1118 -175 201 -28 253 -42 330 -88 59 -35 111 -102 131
-166 23 -77 21 -241 -5 -542 -72 -819 -97 -1450 -97 -2405 0 -1119 37 -1996
146 -3435 41 -545 66 -959 100 -1655 14 -286 30 -618 36 -738 7 -120 9 -220 6
-223 -14 -14 -755 208 -1247 375 -1381 466 -3069 1213 -4169 1844 -669 383
-1265 792 -1784 1225 -323 270 -694 622 -922 877 -236 264 -498 623 -644 882
-302 535 -459 1099 -478 1708 -18 612 93 1183 322 1650 128 262 256 445 449
644 492 503 1110 759 2016 835 126 10 896 -3 1060 -18z"/>
</g>
</svg>
