<?xml version="1.0" standalone="no"?>
<!DOCTYPE svg PUBLIC "-//W3C//DTD SVG 20010904//EN"
 "http://www.w3.org/TR/2001/REC-SVG-20010904/DTD/svg10.dtd">
<svg version="1.0" xmlns="http://www.w3.org/2000/svg"
 width="5536.000000pt" height="3812.000000pt" viewBox="0 0 5536.000000 3812.000000"
 preserveAspectRatio="xMidYMid meet">

<g transform="translate(0.000000,3812.000000) scale(0.100000,-0.100000)"
fill="#e3e7f0" stroke="none">
<path d="M8695 38109 c-776 -52 -1545 -322 -2182 -766 -215 -149 -384 -292
-593 -502 -359 -359 -596 -687 -814 -1121 -281 -562 -426 -1122 -456 -1765
-13 -284 -13 -24332 0 -24616 32 -692 214 -1342 539 -1924 341 -610 818 -1126
1396 -1509 193 -128 275 -176 461 -269 509 -255 1048 -403 1624 -447 105 -8
5294 -10 18925 -8 17750 3 18787 5 18905 21 304 42 484 80 734 152 547 158
1064 431 1527 806 158 127 503 476 633 639 198 248 396 562 527 835 209 437
337 877 406 1400 16 122 17 893 21 12515 2 8894 0 12427 -8 12535 -99 1361
-819 2583 -1961 3328 -185 120 -287 178 -490 276 -447 216 -885 341 -1430 408
-137 17 -1034 18 -18894 19 -10312 1 -18804 -2 -18870 -7z m14861 -6600 c379
-37 732 -180 1025 -417 107 -86 272 -261 351 -373 629 -883 407 -2099 -493
-2704 -233 -157 -527 -268 -815 -307 -147 -20 -10390 -20 -10539 0 -614 83
-1151 457 -1440 1004 -153 292 -218 559 -218 898 0 395 103 735 321 1061 191
286 446 505 763 659 203 97 418 158 641 179 132 13 10273 13 10404 0z m18840
0 c646 -63 1207 -437 1513 -1010 302 -566 293 -1277 -22 -1828 -201 -350 -481
-613 -839 -786 -221 -107 -424 -163 -671 -185 -158 -14 -10200 -13 -10362 1
-580 50 -1104 358 -1427 839 -474 708 -424 1640 124 2295 319 382 784 626
1280 674 132 13 10273 13 10404 0z m-18696 -7527 c431 -83 773 -267 1065 -574
453 -476 628 -1151 465 -1791 -159 -621 -637 -1133 -1245 -1336 -142 -47 -291
-77 -453 -91 -80 -7 -1749 -10 -5257 -8 -4880 3 -5145 4 -5235 21 -227 43
-386 95 -566 185 -560 282 -949 827 -1035 1452 -17 122 -17 388 0 510 106 775
673 1409 1427 1598 107 27 227 47 339 56 22 1 2367 2 5210 1 l5170 -1 115 -22z
m18840 0 c302 -58 566 -170 803 -339 100 -72 278 -241 359 -342 383 -475 517
-1087 368 -1682 -85 -343 -266 -649 -532 -904 -325 -312 -713 -486 -1164 -525
-92 -8 -1595 -10 -5264 -8 -4865 3 -5140 4 -5230 21 -220 41 -390 96 -566 185
-492 248 -856 702 -994 1240 -67 264 -74 575 -19 847 99 487 394 928 808 1206
282 190 561 285 941 323 19 1 2362 2 5205 2 l5170 -2 115 -22z m-18874 -7505
c420 -75 747 -238 1037 -516 596 -572 757 -1465 397 -2206 -104 -216 -224
-380 -402 -550 -280 -269 -595 -429 -993 -508 l-110 -21 -5150 -4 c-3766 -2
-5184 0 -5275 8 -388 35 -743 180 -1050 427 -296 239 -531 603 -630 975 -49
188 -63 294 -63 498 0 340 65 606 219 899 299 566 879 954 1510 1010 56 5
2364 8 5259 7 4744 -2 5167 -3 5251 -19z m14964 13 c775 -69 1419 -577 1660
-1311 245 -743 1 -1584 -602 -2072 -306 -247 -644 -386 -1037 -426 -141 -15
-6506 -15 -6652 -1 -430 43 -819 218 -1134 511 -536 500 -735 1277 -508 1984
230 718 891 1248 1639 1314 145 12 6491 13 6634 1z"/>
<path d="M1670 3825 c-735 -101 -1340 -602 -1569 -1301 -205 -624 -81 -1297
335 -1811 311 -383 762 -630 1264 -693 59 -7 7971 -10 25985 -10 22282 0
25915 2 26006 15 686 91 1272 546 1528 1186 163 407 183 828 60 1257 -166 578
-622 1060 -1192 1261 -92 32 -200 62 -327 89 -69 15 -2200 16 -26035 18
-21295 2 -25977 0 -26055 -11z"/>
</g>
</svg>
