<?xml version="1.0" standalone="no"?>
<!DOCTYPE svg PUBLIC "-//W3C//DTD SVG 20010904//EN"
 "http://www.w3.org/TR/2001/REC-SVG-20010904/DTD/svg10.dtd">
<svg version="1.0" xmlns="http://www.w3.org/2000/svg"
 width="2304.000000pt" height="1305.000000pt" viewBox="0 0 2304.000000 1305.000000"
 preserveAspectRatio="xMidYMid meet">

<g transform="translate(0.000000,1305.000000) scale(0.100000,-0.100000)"
fill="#333d51" stroke="none">
<path d="M1836 13029 c-375 -49 -761 -214 -1055 -452 -343 -278 -597 -673
-706 -1101 -184 -720 22 -1474 545 -1996 325 -326 695 -513 1180 -597 101 -17
488 -18 9620 -21 6797 -2 9558 0 9665 8 763 55 1420 501 1746 1185 142 298
202 568 201 905 0 270 -44 509 -137 747 -278 713 -907 1210 -1667 1318 -90 13
-1323 14 -9713 14 -5515 -1 -9639 -5 -9679 -10z"/>
<path d="M1940 4183 c-504 -38 -999 -272 -1350 -640 -360 -377 -559 -849 -577
-1369 -9 -275 20 -485 104 -738 173 -520 543 -951 1033 -1200 191 -97 376
-159 610 -203 91 -17 508 -18 9755 -18 9352 0 9663 1 9765 18 739 131 1332
606 1605 1287 99 247 147 496 147 770 1 349 -68 642 -222 950 -111 221 -229
379 -422 566 -344 332 -778 530 -1258 573 -80 8 -3051 10 -9630 9 -5233 -1
-9535 -3 -9560 -5z"/>
</g>
</svg>
