<?xml version="1.0" standalone="no"?>
<!DOCTYPE svg PUBLIC "-//W3C//DTD SVG 20010904//EN"
 "http://www.w3.org/TR/2001/REC-SVG-20010904/DTD/svg10.dtd">
<svg version="1.0" xmlns="http://www.w3.org/2000/svg"
 width="4576.000000pt" height="3037.000000pt" viewBox="0 0 4576.000000 3037.000000"
 preserveAspectRatio="xMidYMid meet">

<g transform="translate(0.000000,3037.000000) scale(0.100000,-0.100000)"
fill="#333d51" stroke="none">
<path d="M22435 30360 c-1223 -72 -2351 -448 -3355 -1120 -712 -476 -1348
-1113 -1827 -1830 -357 -534 -641 -1131 -826 -1736 -356 -1161 -389 -2405 -96
-3576 384 -1535 1300 -2879 2594 -3805 1331 -952 2967 -1375 4610 -1192 1822
202 3474 1150 4585 2631 648 863 1080 1891 1244 2958 61 397 81 707 73 1145
-6 329 -19 507 -57 790 -257 1879 -1312 3563 -2900 4625 -947 633 -2036 1009
-3190 1100 -188 15 -675 20 -855 10z"/>
<path d="M8185 24633 c-421 -33 -699 -80 -1032 -174 -288 -81 -520 -169 -798
-303 -491 -238 -887 -515 -1279 -896 -750 -730 -1241 -1665 -1410 -2690 -50
-303 -60 -432 -60 -790 -1 -341 6 -452 45 -720 206 -1419 1038 -2685 2264
-3441 1231 -760 2739 -931 4117 -468 1200 402 2208 1273 2783 2404 654 1285
706 2798 143 4120 -524 1230 -1533 2194 -2784 2660 -435 163 -886 260 -1369
295 -127 9 -521 11 -620 3z"/>
<path d="M36655 24629 c-1382 -112 -2636 -802 -3476 -1914 -414 -548 -717
-1212 -860 -1886 -112 -529 -135 -1082 -68 -1614 158 -1253 796 -2386 1789
-3177 1162 -926 2703 -1261 4158 -902 1074 264 2025 894 2696 1784 504 669
824 1458 930 2290 54 422 47 920 -20 1360 -113 751 -435 1515 -900 2135 -189
252 -450 534 -690 744 -774 679 -1726 1085 -2761 1176 -180 16 -624 18 -798 4z"/>
<path d="M22315 13240 c-2795 -63 -5579 -686 -8295 -1855 -2096 -903 -3125
-1714 -3706 -2920 -331 -688 -519 -1526 -599 -2665 -30 -429 -36 -662 -45
-1620 -13 -1452 3 -1968 75 -2456 120 -815 406 -1251 970 -1477 259 -104 526
-158 965 -197 334 -30 988 -32 10235 -36 9070 -3 11909 3 12320 26 774 45
1233 197 1550 515 245 244 395 588 480 1099 76 462 94 949 102 2801 4 909 2
1368 -6 1525 -67 1322 -365 2214 -1009 3022 -129 162 -498 533 -677 682 -656
545 -1508 1037 -2721 1572 -2493 1097 -5071 1752 -7614 1933 -417 30 -637 40
-1100 51 -445 10 -442 10 -925 0z"/>
<path d="M7100 11064 c-58 -2 -211 -11 -340 -19 -1743 -116 -3211 -594 -4275
-1393 -401 -301 -786 -686 -1087 -1087 -680 -906 -1113 -2079 -1292 -3505 -77
-610 -101 -1108 -93 -1925 6 -573 15 -792 43 -1115 121 -1387 534 -1828 1834
-1954 342 -33 532 -40 1125 -41 414 0 640 4 730 13 668 65 1030 190 1294 446
267 260 396 611 456 1241 30 323 35 701 35 2840 0 2131 4 2399 35 2769 101
1174 446 1994 1118 2658 165 163 254 234 462 370 438 285 579 400 639 515 36
71 4 129 -82 153 -97 26 -365 41 -602 34z"/>
<path d="M38299 11060 c-69 -4 -161 -15 -204 -25 -95 -21 -125 -46 -125 -103
0 -106 178 -265 602 -537 111 -71 236 -157 277 -189 107 -83 411 -391 515
-521 260 -326 461 -699 596 -1105 144 -431 212 -818 262 -1485 7 -101 13 -965
18 -2620 7 -2567 7 -2557 51 -2915 123 -995 530 -1386 1564 -1504 274 -32 500
-39 1025 -33 650 7 963 27 1305 82 489 79 777 200 1012 428 285 275 438 699
507 1407 66 663 72 1789 16 2545 -186 2478 -1071 4250 -2660 5324 -1110 751
-2610 1182 -4345 1251 -137 5 -259 9 -270 8 -11 0 -77 -4 -146 -8z"/>
</g>
</svg>
