<?xml version="1.0" standalone="no"?>
<!DOCTYPE svg PUBLIC "-//W3C//DTD SVG 20010904//EN"
 "http://www.w3.org/TR/2001/REC-SVG-20010904/DTD/svg10.dtd">
<svg version="1.0" xmlns="http://www.w3.org/2000/svg"
 width="3300.000000pt" height="3299.000000pt" viewBox="0 0 3300.000000 3299.000000"
 preserveAspectRatio="xMidYMid meet">

<g transform="translate(0.000000,3299.000000) scale(0.100000,-0.100000)"
fill="#333d51" stroke="none">
<path d="M16075 32984 c-717 -27 -1229 -69 -1815 -150 -4480 -616 -8534 -3081
-11197 -6809 -1058 -1481 -1877 -3161 -2388 -4900 -327 -1109 -533 -2239 -619
-3395 -34 -448 -41 -648 -40 -1235 0 -606 6 -773 45 -1280 265 -3451 1647
-6766 3925 -9419 304 -355 480 -544 878 -942 649 -648 1146 -1079 1848 -1602
3273 -2437 7313 -3564 11368 -3172 2994 290 5852 1401 8275 3219 2507 1880
4437 4426 5551 7323 583 1516 932 3090 1048 4723 31 427 39 742 33 1325 -5
559 -15 794 -52 1225 -376 4381 -2491 8421 -5898 11266 -1009 843 -2058 1527
-3245 2117 -847 422 -1650 740 -2547 1012 -1286 389 -2533 604 -3945 680 -195
11 -1055 20 -1225 14z m965 -7448 c896 -110 1686 -423 2390 -950 353 -264 721
-634 985 -991 573 -773 908 -1646 1020 -2655 35 -316 30 -854 -11 -1210 -150
-1294 -763 -2512 -1708 -3392 -83 -78 -277 -252 -431 -387 -387 -339 -566
-504 -735 -677 -602 -618 -864 -1172 -919 -1945 -8 -100 -19 -174 -36 -233
-104 -358 -412 -615 -815 -681 -241 -39 -517 -1 -762 105 -342 147 -579 416
-682 772 -75 260 -85 590 -30 1028 123 988 550 1842 1294 2591 246 248 296
291 826 710 935 740 1390 1430 1521 2304 25 170 25 677 0 885 -149 1219 -802
1966 -1917 2190 -259 52 -374 64 -640 64 -316 1 -492 -23 -740 -100 -759 -236
-1290 -847 -1515 -1744 -43 -172 -64 -285 -120 -655 -78 -507 -135 -755 -222
-965 -132 -319 -346 -504 -645 -556 -259 -45 -686 29 -983 171 -356 171 -559
433 -647 835 -20 95 -23 131 -23 375 0 291 8 374 66 690 37 198 127 600 179
800 249 959 828 1854 1615 2500 598 490 1279 833 2008 1010 270 66 432 91 812
129 108 11 737 -3 865 -18z m-390 -15653 c137 -19 344 -72 461 -118 618 -238
954 -701 1010 -1392 44 -548 -138 -1048 -491 -1347 -246 -209 -545 -333 -920
-382 -175 -23 -493 -15 -635 16 -290 62 -525 183 -719 370 -249 240 -401 554
-463 960 -25 167 -23 456 5 610 117 643 576 1069 1377 1277 143 37 165 37 375
6z"/>
</g>
</svg>
