<svg id="Layer_1" data-name="Layer 1" xmlns="http://www.w3.org/2000/svg" viewBox="0 0 1410 1410"><defs><style>.cls-1{fill:#fff;}.cls-2{fill:#ceaf74;}.cls-3{fill:#e4e1e0;}.cls-4{fill:#cdab70;}.cls-5{fill:#d6d0ce;}.cls-6{fill:#4f4f4f;}.cls-7{fill:#9a8055;}</style></defs><path class="cls-1" d="M1394.59,387.61a98.9,98.9,0,0,0-2.78-25.13,29.89,29.89,0,0,0-8.66-14.05,47.19,47.19,0,0,0-11.83-8.08q-50.4-25.14-100.72-50.43Q1135,222,999.29,154.14,862.73,85.8,726.21,17.4A36.67,36.67,0,0,0,716.77,14c-3.76-.72-7.47-2.41-11.2-2.39-3.89,0-7.76,1.68-11.67,2.44a34,34,0,0,0-9,3.24Q618.72,50.53,552.51,83.7L317.68,201.42Q181,269.94,44.23,338.42a89.75,89.75,0,0,0-13.49,8.18A26.92,26.92,0,0,0,26,351.3a28.1,28.1,0,0,0-6.53,14.14c-.21,1.41-.63,2.8-1,4.2a37.66,37.66,0,0,0-1.14,9.47q.07,82.56,0,165.1a99.89,99.89,0,0,0,2.73,24.18,29.18,29.18,0,0,0,8.59,14.09c4.07,3.93,8.79,7.37,14.93,8,3.31.36,6.54,2.08,9.8,2.06,3.43,0,6.83-1.5,10.28-2.13a43.76,43.76,0,0,0,11.67-4.18q59.78-30,119.61-59.83a21.44,21.44,0,0,1,5.05-2.29,2.71,2.71,0,0,1,0,2.47,73.33,73.33,0,0,0-2.38,17.06c-.21,4.79-.64,9.57-1,14.36a1.6,1.6,0,0,1-1.77,1.74c-3.19.07-6.39.09-9.58.27-5.79.32-11.27,2.26-16.93,3.23a59.19,59.19,0,0,0-28,12.83,33.74,33.74,0,0,0-4.74,4.67A29.08,29.08,0,0,0,129,595.36a14.36,14.36,0,0,1-.51,2.34A43.55,43.55,0,0,0,126.86,611q0,334.27,0,668.56a80.81,80.81,0,0,0,2.13,18,32.12,32.12,0,0,0,6.4,13.68,31.7,31.7,0,0,0,20.07,11.87,74.13,74.13,0,0,0,14.69,1.72q186.93-.07,373.86,0c1.43,0,2.88.09,4.31,0a6.46,6.46,0,0,1,4.79,1.71c4.73,3.82,9.5,7.59,14.35,11.25,15.45,11.65,31,23.18,47.51,33.31,12.7,7.79,25.86,14.66,40.11,19.22,9.75,3.12,19.76,5.23,29.76,7.35a96.1,96.1,0,0,0,32.45,1.11c8.43-1.1,16.58-3.43,24.84-5.27a141,141,0,0,0,28.5-9.81,255.22,255.22,0,0,0,35-19.88c17.68-11.84,34.79-24.47,51.48-37.67,1.87-1.48,3.63-3.41,5.78-4.14s4.74-.3,7.13-.3q183.57,0,367.14.05a84.11,84.11,0,0,0,20.84-2.43,29.29,29.29,0,0,0,11.14-5.16,35.68,35.68,0,0,0,6.83-6.62c3-3.91,5.15-8,5.77-12.93a19.5,19.5,0,0,1,.76-3.26A45.52,45.52,0,0,0,1284,1278q-.06-333.57,0-667.14c0-12.78,0-12.77-3-25.08a15.82,15.82,0,0,0-3.22-6.85,36.55,36.55,0,0,1-2.52-3.5,21.86,21.86,0,0,0-4.67-4.74,27.77,27.77,0,0,0-14.61-6.62,19.16,19.16,0,0,1-3.72-.88,27.31,27.31,0,0,0-8.53-1c-7.84.05-15.68,0-23.52,0-1.12,0-2.24,0-3.35,0s-1.68-.63-1.76-1.77a78.76,78.76,0,0,0-2.33-13.21c-1-4.35-2.24-8.67-3.1-13.06s-3.44-8.43-4.77-13.15a17.13,17.13,0,0,1,4.39,1.9q64.52,32.29,129,64.6a29.44,29.44,0,0,0,6.67,2.61c3.58.8,7.18,1.56,10.73,2.5a9.76,9.76,0,0,0,5.17,0c3.56-.93,7.15-1.7,10.74-2.51a12.25,12.25,0,0,0,5.18-2.34c1.61-1.31,3.34-2.48,5-3.66a15.16,15.16,0,0,0,3.68-3.73c5.16-7,5.17-7,7.1-15.4.18-.78.3-1.58.53-2.34a38.48,38.48,0,0,0,1.39-11.36Q1394.5,469.45,1394.59,387.61Zm-272.65,99.61c-9.56-.82-19.15-1.27-28.74-1.49-20.47-.46-41-.21-61.39,1.06q-25.38,1.57-50.66,4.26t-50.45,6.22c-16.15,2.25-32.26,4.73-48.38,7.15q-20.16,3-40.29,6.15c-14.53,2.23-29.11,4.22-43.59,6.76a281.11,281.11,0,0,0-31.68,7.57,70.27,70.27,0,0,0-22.61,11.29c-.89.67-1.79,1.35-2.73,2a66.28,66.28,0,0,0-20.27,20.12c-.34.54-.78,1-1.12,1.55a3,3,0,0,1-2.77,1.51q-13.2,0-26.4,0a3.13,3.13,0,0,1-2.75-1.53c-1.43-1.92-2.85-3.86-4.4-5.69a37.44,37.44,0,0,0-4.32-4.49c-12-10.06-24.77-18.56-40.2-22.55-24.75-6.4-49.59-12.44-74.64-17.56-19.73-4-39.59-7.36-59.53-10.17-11.56-1.63-23.16-2.88-34.75-4.28-15.72-1.89-31.5-3.15-47.28-4.38-10.84-.84-21.7-1.35-32.55-2.06-13.25-.87-26.48-1.87-39.73-2.68-16.45-1-32.91-1.78-49.39-1A229.07,229.07,0,0,0,275,487.33c.43-1.9,2.13-2,3.32-2.59q26.12-13.14,52.29-26.16L701.47,273.14c5.62-2.81,3.64-2.76,9.1,0q72,36,144.07,72.12l225.42,112.86q27.42,13.73,54.82,27.51a12.08,12.08,0,0,1,4.6,3C1133.09,488.09,1127.52,487.7,1121.94,487.22Z"/><path class="cls-2" d="M54.06,556.39a14.17,14.17,0,0,1-.48-5.31q0-85.91,0-171.81a8.65,8.65,0,0,0,0-1.44c-.45-2.85,1-4.26,3.44-5.49,16.46-8.18,32.82-16.55,49.26-24.78q166.21-83.24,332.45-166.43,25.74-12.87,51.45-25.78Q595,102.76,699.84,50.19c6.54-3.28,4.56-3.36,11.38.05L1036.44,213q82.14,41.1,164.26,82.22,76.32,38.24,152.61,76.54c5.71,2.87,5,1.7,5,8.32q0,85.43,0,170.85c0,1.75.27,3.52-.35,5.28-1.78.55-3-.71-4.38-1.39q-24.06-12-48.07-24Q1184.75,470.31,1064,409.87,887.95,321.68,711.9,233.48c-7.38-3.7-4.51-3.64-11.75,0Q379.63,393.67,59.15,554C57.59,554.73,56,555.45,54.06,556.39Z"/><path class="cls-3" d="M741,597c1.21-.8,1.15-2.24,1.59-3.39A69.75,69.75,0,0,1,749.43,580a52.71,52.71,0,0,1,12.65-12.81c7.68-5.78,16.53-8.91,25.62-11.42a149.13,149.13,0,0,1,20.55-4c5.5-.72,10.92-2.1,16.43-2.58s10.62-1.91,16-2.27c2.34-.16,4.69-.75,7-1.08,3.46-.47,6.89-1.11,10.32-1.67,5.32-.87,10.63-1.78,16-2.6,2.66-.41,5.34-.65,8-1.13,5.15-.92,10.38-1.32,15.56-2.11,5-.76,10-1.78,15-2.58a88.57,88.57,0,0,1,9.45-1.13,66.9,66.9,0,0,0,7.52-1.19c3.6-.59,7.26-.58,10.84-1.44,3.37-.82,6.93-.84,10.39-1.28,3.78-.47,7.54-1,11.31-1.55a6.43,6.43,0,0,1,1.4-.28c4.34.41,8.57-.76,12.8-1.24,4.07-.46,8.27-.25,12.28-1.48a14.13,14.13,0,0,1,3.81-.22c2.22-.06,4.44.09,6.62-.72a10.47,10.47,0,0,1,3.33-.24c2.55-.06,5.11.18,7.57-.8a5.69,5.69,0,0,1,1.9-.15,63.62,63.62,0,0,0,11.42-.82c2.92-.59,6-.14,9.09-.17a18.61,18.61,0,0,0,5.69-.56,12.22,12.22,0,0,1,3.78-.37q32.61,0,65.22,0a12.64,12.64,0,0,1,4.73.54,4.34,4.34,0,0,0,1.87.34c6.24-.45,12.38.91,18.59,1a13,13,0,0,1,4.71.63,5.15,5.15,0,0,0,1.88.3c5.25.14,10.4,1.11,15.59,1.81,2.83.37,5.67.64,8.5,1a6,6,0,0,1,4,2.3c5.39,6.63,9.55,13.84,10.95,22.47a101.43,101.43,0,0,1,1.78,17c-.06,8.15,0,16.31,0,24.46,0,1.39-.35,2.93,1,4,.73,1.51.54,3.13.53,4.72,0,6.88,0,13.76,0,20.63.2,84.6-.76,169.2-1.3,253.79-.34,53.25.51,106.52-.83,159.74-.81,32.15-.31,64.28-.76,96.41a29,29,0,0,1-.39,5.26c-.79,2.28-.9,5-4,5.74a54.13,54.13,0,0,1-13.87.11,120.29,120.29,0,0,0-25.36-.57c-16.62,1.33-33.23.21-49.83.84-20.25.77-40.5,1.43-60.75,2.6q-32.28,1.88-64.46,4.92-35.08,3.36-69.92,8.63-54.08,8.24-107.14,21.48c-10.54,2.64-21,5.52-31.49,8.46A43.34,43.34,0,0,1,746,1192c-4.66.71-6.36-.46-6.38-5.23-.09-20.93-.35-41.87.11-62.8a7.23,7.23,0,0,1,.44-1.64,5.69,5.69,0,0,1,1.43-1.94,16.16,16.16,0,0,1,3.77-2c32.44-15.86,52.38-41.12,55.47-77.52,2.33-27.47-6-51.95-25.4-72.29A96.5,96.5,0,0,0,745,947.39c-2.18-1-4.56-1.73-5.17-4.53a60.73,60.73,0,0,1-.24-12c.14-3.21,1.71-5,5.1-5,1.92,0,3.84,0,5.76,0q72.17,0,144.35,0c2.39,0,4.8.25,7.15-.37,13.84-2.18,27.33-5.5,39.16-13.44,27.87-18.7,43.9-44.43,44.19-78.43.34-40.07-18.63-69.24-54.56-85.66-34.71-15.85-68.18-10.81-98,13.28-20.61,16.64-31,39-33.63,65.1-1.17,11.75,3.82,21.51,12.73,25.83,16.2,7.87,31.51-5,32.43-19.33a77.64,77.64,0,0,1,.58-8.61c6.15-35.08,45.31-51.74,74.9-31.86,15.84,10.65,24.08,29.82,20.57,47.86a48.83,48.83,0,0,1-37.44,38.75,36.15,36.15,0,0,1-7.63.59q-73.65,0-147.3,0c-2.61,0-5.53.8-7.61-1.75-1.1-8.29-1.48-16.57.27-24.82,1.06-1.73,2.78-2.56,4.53-3.38,31.06-14.47,50-38.48,54.71-72.47,5.6-40.71-15.18-79.73-54.31-97.67-2.46-1.13-5.25-1.83-5.75-5.14-.57-24.45-.23-48.89-.19-73.33a7.28,7.28,0,0,1,.43-2.35A5.79,5.79,0,0,1,741,597Z"/><path class="cls-3" d="M741,597v.94c-2.17,1.84-4.8,1.48-7.32,1.48-18.67,0-37.33,0-56,0-7.76,0-8.15.36-8.1,8.07.17,22.81-.44,45.62.35,68.42.09,3-2.11,4.09-4.28,5.16-15.61,7.72-27.81,19.18-37.25,33.7s-13.43,30.7-13.75,47.78c-.22,12.17,8,21.63,19.63,23.8,10.43,1.94,20.69-4.52,25-15.74.4-1,.75-2.11,1.14-3.16,1-2.53.47-5.19.64-7.79a12.63,12.63,0,0,1,.36-2.74c.28-1,.62-2,.82-3.1a8,8,0,0,1,.31-1.16,13.13,13.13,0,0,0,.76-2.76,6,6,0,0,1,.3-1.1c.2-.53.45-1,.7-1.57s.3-.75.46-1.12a15.7,15.7,0,0,1,1-2.45,3.15,3.15,0,0,1,1.18-1,1.54,1.54,0,0,1,1.49.48c.16.25.3.5.46.75a16.17,16.17,0,0,1,.68,6.14q0,26.52,0,53c0,2.36.27,4.81-1.12,7-2.66,2.08-5.81,1.43-8.78,1.43q-100.22.06-200.44,0c-4.83,0-9.57.34-14.14,2.05-10,3.75-15.1,11.62-14.46,22.35.57,9.74,6.94,17,17.07,19.3a60.85,60.85,0,0,0,13.8,1.35q69.54-.06,139.06,0a48.51,48.51,0,0,1,9.09.43,21.11,21.11,0,0,0,6.62.67c15.29,0,30.58,0,45.87,0,6.49,0,7.45.92,7.41,7.53,0,4.25.83,8.61-.93,12.74-2.34,2.36-5.37,1.69-8.17,1.69q-95.7.06-191.41,0a74,74,0,0,0-13.37.87c-11,2-18.29,9.18-19.26,19.1-1.15,11.68,4.1,20.12,15.13,24.35,1,.4,2.12.72,3.18,1.1,2.46,1,5,.71,7.59.71q96.4,0,192.81,0h5.27c9.13,0,10.77,2.28,8.34,11.48-2.4,2.66-5.63,1.83-8.55,1.83q-88.47.07-176.95,0H467.34c-2.76,0-5.44-.07-6.86,3.11-.82,1.81-2.06,1.21-2.71-.24-1.19-2.66-3.27-2.51-5.63-2.22C434.33,942.07,425,959.55,434,974c3.71,6,9.56,8.72,15.95,10.69,2.46,1,5.05.68,7.59.68q101.19,0,202.37,0c9.29,0,9.65.36,9.66,9.75q0,25.89,0,51.79a20.69,20.69,0,0,1-.58,6.65,3.19,3.19,0,0,1-1,1.33c-.92.39-1.42-.2-1.92-.81a7.48,7.48,0,0,1-.71-1.19c-.29-.59-.55-1.2-.81-1.8-.19-.39-.34-.79-.49-1.19a20.79,20.79,0,0,0-1.22-2.34c-2.11-5.12-2.35-10.57-2.81-16-1.47-17.14-18.47-26.71-33.18-18.53-6.59,3.67-10.65,9.49-11.18,16.92-1.76,25.06,6.27,46.84,23.09,65.4a95,95,0,0,0,25.75,19.73,16.61,16.61,0,0,1,4,2.6,5.5,5.5,0,0,1,.93,1.35,5.27,5.27,0,0,1,.33,1.66c-.75,20.64-.15,41.27-.32,61.9-.08,10.26-.93,10.9-10.79,8.12a1166.67,1166.67,0,0,0-182.49-35.76q-40-4.67-80.21-7.21c-17-1.09-34.15-1.63-51.22-2.37-19.84-.87-39.69.24-59.45-1-14.59-.91-29.06-.12-43.58.22-2.54.05-5.13.26-7.58-.82a4.27,4.27,0,0,1-1.83-2.08,16.48,16.48,0,0,1-.68-6.16c.66-48.6-1.47-97.18-1-145.78.22-24.47.58-49-.07-73.4-1.55-57.39.23-114.79-1.07-172.16-1.08-47.17-.16-94.32-.77-141.47,0-1.59-.2-3.21.52-4.72a2.88,2.88,0,0,0,1.05-2.54c0-1.76,0-3.52,0-5.28a21.38,21.38,0,0,1,.56-5.21,25.89,25.89,0,0,0,.39-5.23c.14-3.34-.36-6.71.8-10a10,10,0,0,0,.16-2.86c.11-3.66-.1-7.29.78-10.95.59-2.43.16-5.09.19-7.65a26.19,26.19,0,0,1,.59-5.69,27.1,27.1,0,0,0,.35-6.19c0-2,.63-3.22,2.71-3.89a194.14,194.14,0,0,1,24.39-6.67c4.37-.81,8.69-1.9,13.08-2.57,3.92-.61,7.89-.88,11.85-1.2a22.35,22.35,0,0,0,5.2-.63,12.62,12.62,0,0,1,3.8-.33q22.07,0,44.14,0a8.25,8.25,0,0,1,2.39.08c4.23,1.31,8.56.75,12.85.87a13.51,13.51,0,0,1,4.73.57,4.35,4.35,0,0,0,1.88.33c7-.55,14,1.47,21,1a10.09,10.09,0,0,1,3.81.24,21,21,0,0,0,6.63.69c4.14.1,8.27-.22,12.39.82,2.11.53,4.46.11,6.69.14s4.45-.11,6.64.69a11,11,0,0,0,3.32.26c3.66.11,7.34-.31,10.94.85a11.93,11.93,0,0,0,3.34.12c2.55,0,5.1-.16,7.59.74a10.76,10.76,0,0,0,3.33.21c2.39.07,4.77-.13,7.11.74a10.46,10.46,0,0,0,3.33.22,17.39,17.39,0,0,1,6.15.72,8.63,8.63,0,0,0,2.85.24c1.91,0,3.83-.09,5.67.69a4.9,4.9,0,0,0,1.88.26c5.11.05,10.09,1.29,15.13,1.71,3.49.3,6.92,1,10.41,1.26,3.31.24,6.58,1,9.86,1.55,2.67.44,5.36.74,8,1.11,9.28,1.29,18.47,3.07,27.69,4.62,7.68,1.29,15.31,2.86,22.94,4.34,10.29,2,20.49,4.45,30.69,6.91,9.73,2.34,19.49,4.68,29.08,7.54A69.44,69.44,0,0,1,652,573.54a52.31,52.31,0,0,1,15.3,20.94c.69,1.64,1.69,2.62,3.61,2.48,1.27-.1,2.55,0,3.83,0Z"/><path class="cls-4" d="M229.23,598c1.27,1.69.94,3.66,1,5.55q.07,27.36.11,54.7c.05,24.47-.44,49,.29,73.41.8,27,.39,54,.62,81s-.4,54.07.35,81.08c.74,26.7.38,53.39.6,80.08s-.4,53.43.35,80.12c.8,28.77.25,57.54.68,86.31,0,.64.06,1.28.1,1.92,2.66,6.14.34,12.31-.14,18.41-1.46,18.26-.11,35.72,10.83,51.43,3.18,4.58,6.61,6.52,12.2,6.5,47.17-.17,94.35-.1,141.52-.1h225c2.87,0,5.76-.26,8.59.48,3.06,1.32,3,4.23,3.4,6.87A77.48,77.48,0,0,0,647.54,1260c11.78,17.06,28.66,24.7,48.63,26.85a83.63,83.63,0,0,0,34-3c17.89-5.5,29.46-17.77,37.41-34.09,3.88-8,5.93-16.51,7.62-25.14.46-2.37.79-4.81,3.59-5.73,3.17-.74,6.38-.47,9.57-.47H1165.5c9.69,0,9.69,0,9.69-9.67q0-25.43,0-50.86c0-6.21-.31-12.45,1.44-18.53q.09-24.94.19-49.9c0-11.67-.32-23.36.14-35,1.07-27.65.53-55.31.71-83s-.41-55.36.35-83c.72-26.22.36-52.43.6-78.64s-.35-52.15.29-78.21c1.07-43,.37-86,.79-129,0-1.6-.12-3.22,1-4.59q30.48,0,60.95,0c6.83,0,6.23-.72,6.23,6.12q0,337.43,0,674.84c0,7.12.75,6.37-6.45,6.37h-384c-1.12,0-2.24.09-3.35,0a8.55,8.55,0,0,0-6.56,2.29c-16.24,13.5-32.86,26.5-50.21,38.56-13.81,9.59-28.07,18.43-43.39,25.44-12,5.48-24.42,9.57-37.53,11.14a101.78,101.78,0,0,1-39.39-3,146.31,146.31,0,0,1-22-8.12c-15.62-7.15-30.07-16.3-44.06-26.19-14.88-10.54-29.27-21.73-43.31-33.38-.74-.61-1.55-1.13-2.26-1.78a5.25,5.25,0,0,0-3.94-1.41c-1.43.06-2.87,0-4.31,0H170.27c-1.6,0-3.2,0-4.8,0-1.88-.07-2.32-.48-2.4-2.21s0-3.2,0-4.8V662.72c0-18.08.15-36.16-.11-54.24-.06-4.06,1.46-6.1,4.84-7.73A45.09,45.09,0,0,1,186.17,596a137.18,137.18,0,0,1,18.67.61C212.93,597.47,221.05,598.44,229.23,598Z"/><path class="cls-5" d="M234.13,1143.15c3.68,0,7.36,0,11,0,3.18,0,6.4.39,9.48-.83l24.47,0c2.59,1.12,5.34.79,8,.79l45.12,0a18.15,18.15,0,0,1,6.16.63,11.94,11.94,0,0,0,3.8.3c5,0,9.92,0,14.87,0,2.55,0,5.08-.15,7.6.71a13.8,13.8,0,0,0,4.28.23c3,0,6.08,0,9.12,0a13.51,13.51,0,0,1,5.2.6c1.53.61,3.17.29,4.76.36,4.29.18,8.6-.43,12.86.83,1.47.44,3.18.1,4.77.13,2.71,0,5.42-.22,8.07.76a10.77,10.77,0,0,0,3.33.19c3.18.07,6.38-.26,9.5.83a9.34,9.34,0,0,0,2.86.13c2.86,0,5.74-.22,8.53.82a7.2,7.2,0,0,0,2.38.14c2.71.05,5.41-.16,8.06.79a10.86,10.86,0,0,0,3.34.17c1.91,0,3.84-.14,5.67.68a2.83,2.83,0,0,0,1.4.24c4.35-.51,8.64.51,12.81,1.22s8.23.44,12.3,1.44c2.87.7,6,.65,9,1.18,4.37.77,8.81,1,13.2,1.8,5.15.92,10.38,1.37,15.56,2.12,2.83.41,5.6,1.17,8.44,1.49,4.58.5,9.08,1.47,13.61,2.29s8.79,1.36,13.16,2.17c6.09,1.13,12.15,2.38,18.22,3.6,4.67.94,9.34,1.85,14,2.89,11.33,2.53,22.67,5,33.94,7.75,9,2.18,17.83,4.74,26.75,7.13,4.92,1.33,9.82,2.69,14.75,4,2.72.71,3.37.15,3.47-2.78,0-1.12,0-2.24,0-3.36q0-29,0-58.08a21.78,21.78,0,0,1,1.08-7.53c2-1.12,3.73-.15,5.46.55a96.19,96.19,0,0,0,31.61,6.68c9.74.48,19.3-1.49,28.69-4.13,1.93-.54,3.9-1.62,5.95-.28.06,1.92.18,3.83.18,5.75q0,28.79,0,57.59c0,1.28,0,2.56,0,3.83a2,2,0,0,0,2.57,2,51,51,0,0,0,5.58-1.23c7.22-1.95,14.42-4,21.64-5.93,7.53-2,15-4.11,22.62-5.93,9-2.14,18-4.09,27-6,8.07-1.71,16.18-3.28,24.28-4.87,7.94-1.56,15.86-3.25,23.85-4.5,3.12-.49,6.25-1.11,9.44-1.35a83.57,83.57,0,0,0,13.14-2.17c3-.73,6-.88,8.94-1.31,3.11-.45,6.31-.9,9.42-1.38,3.6-.56,7.25-.61,10.85-1.45s7.56-.84,11.35-1.26c3.94-.44,7.88-.94,11.81-1.44.47-.06.94-.38,1.38-.35,4.66.36,9.16-1.23,13.79-1.09a9.77,9.77,0,0,0,4.25-.54,3.15,3.15,0,0,1,1.39-.33c5.13.46,10.15-.82,15.22-1.16s10.2-.46,15.22-1.09c3.5-.43,7-.62,10.46-.71a19.52,19.52,0,0,0,6.16-.65,12.83,12.83,0,0,1,3.79-.3c4.61-.18,9.21.23,13.82-.82,2.74-.62,5.74-.1,8.62-.16,3.33-.06,6.69.34,10-.79a10.57,10.57,0,0,1,3.34-.15c4.48,0,9,0,13.44,0,3,0,6,.23,9-.76a14.22,14.22,0,0,1,4.29-.18l46.55,0a18.14,18.14,0,0,0,6.16-.62,12,12,0,0,1,3.8-.3c6.24,0,12.47,0,18.71,0a16.48,16.48,0,0,1,5.21.6,13.23,13.23,0,0,0,3.79.34c4,0,8,0,12,0,1.33,4-.54,7.83-.49,11.8.23,17.27.11,34.54.1,51.81,0,9.43-.5,9.91-10.12,9.92H788.65c-5.27,0-10.54-.32-15.25,2.94-1.58,1.09-3.73.72-5.64.72H642.05c-2.74,0-5.37-.21-7.8-1.79-3.11-2-6.69-1.87-10.23-1.87H478.65c-73.25,0-146.49-.1-219.74.16-7.77,0-12.52-2.61-16.13-9.26-5.15-9.47-8.39-19.24-8.33-30.14.06-9.24-.19-18.48.47-27.7C235.08,1147.44,234,1145.39,234.13,1143.15Z"/><path class="cls-6" d="M454,926.28c-1.23-.38-2.46-.72-3.67-1.14a23.82,23.82,0,0,1,4.31-46,67.34,67.34,0,0,1,10-.67q98.58,0,197.16,0c2.07,0,4.15-.13,6.22-.19,1.82-1.68,4.1-1.59,6.33-1.59q30.13-.06,60.27,0c2.22,0,4.51-.1,6.34,1.56,1.59.07,3.19.22,4.78.22q72.67,0,145.36,0c7.48,0,14.69-1,21.43-4.23,14.15-6.86,23-18,26.22-33.42a46.37,46.37,0,0,0-35.57-54.33c-19.47-4.35-38.61,2.67-49.7,19a46.89,46.89,0,0,0-8,25.26,32.63,32.63,0,0,1-.88,7.11c-2.67,10.12-11.8,18.21-23.27,18-12.55-.27-20.43-9.05-22.88-18a33.91,33.91,0,0,1-.65-11.91,93.17,93.17,0,0,1,11.51-38.75c14.09-24.88,35.06-40.86,63-47a94.5,94.5,0,0,1,105.32,50.94,93.63,93.63,0,0,1-8,95.17A93.45,93.45,0,0,1,939,914.79a88.05,88.05,0,0,1-30.13,10.59c-1.89.3-3.78.63-5.67,1-1.71.65-3.48.33-5.23.33-50.06,0-100.13-.64-150.18.3-23.79.44-47.6,1.31-71.35.65-72.89-2-145.79-.25-218.67-.94C456.47,926.65,455.16,926.92,454,926.28Z"/><path class="cls-6" d="M740.77,1121.87c-4.3,1.14-8.57,2.4-12.9,3.4a80.7,80.7,0,0,1-22.26,2.3A98.48,98.48,0,0,1,674,1120.8c-1.62-.64-3.28-1.17-4.93-1.75v0c-.34-.24-.69-.47-1.06-.68a145.44,145.44,0,0,1-15.57-9.38c-20.67-14.92-33.26-34.86-37.48-60.07a86.59,86.59,0,0,1-1-16.22c.29-12.06,8.32-21.45,20-23.51,9.08-1.6,20,2.14,24.89,12.85a30.45,30.45,0,0,1,2.73,11.08,57.33,57.33,0,0,0,1.8,12.77,23.27,23.27,0,0,0,.9,2.21c.52.6.4,1.46.82,2.1a.86.86,0,0,0,.24.78,3.17,3.17,0,0,1,.66,1.29.61.61,0,0,0,.23.63,2.49,2.49,0,0,1,.73,1.31.49.49,0,0,0,.24.56c3.41,2.24,5.07,6,7.89,8.83,19.58,19.52,46.56,19.68,66.27.23a13.07,13.07,0,0,1,1-1c.32-.35.65-.67,1-1l.48-.52c.29-.37.6-.72.91-1.08,12.87-17.69,12.12-40.66-1.9-56.84a15.87,15.87,0,0,1-1.15-1.17c-.21-.2-.4-.4-.6-.61-10.22-10.19-22.76-14.66-36.93-14.38-23.64.46-47.22-1.31-70.85-1.2-59.61.3-119.23.1-178.85.08-1.74,0-3.52.36-5.21-.36a42,42,0,0,1-7.2-2.56c-9-4.67-14.27-14.66-12.74-24.26,1.64-10.28,9.76-18.63,19.77-20.23,2.52-.4,5.08-.61,7.62-.76,1.78-.1,2,.25,2.31,2.24.11.75.16,1.51.35,3.38.14-1.76.18-2.4.25-3,.3-2.55.31-2.57,2.93-2.64,1.43,0,2.87,0,4.31,0h195c2.07,0,4.14-.12,6.21-.19,1.71-1.53,3.83-1.48,5.9-1.45,14.35.24,28.73-.74,43.06,1a108.42,108.42,0,0,1,19.63,4.21,10.35,10.35,0,0,1,4.39,2.8c1.45.67,2.88,1.36,4.34,2,26,11.46,44,30.49,52.5,57.67,7.85,25,6.25,49.62-6.1,73-10.29,19.45-25.83,33.51-45.9,42.54-1.31.59-2.61,1.2-3.91,1.8-.37.23-.74.45-1.12.65Z"/><path class="cls-6" d="M662.38,756.28c-.08.9-.15,1.8-.23,2.69-1,2.88.21,5.95-.74,8.83-1.27,4.85-3.22,9.32-6.87,12.94A23.48,23.48,0,0,1,628.48,786c-9.56-4.13-14.94-11.56-15-22-.37-38.29,21.3-69,51-83.7,1.57-.77,3.08-1.64,4.62-2.47,1.18-1.91,3.18-2.57,5.12-3.27a95.28,95.28,0,0,1,59.95-2.14c2.41.7,5,1.2,6.71,3.35,1,.52,1.92,1.12,2.94,1.54a94.38,94.38,0,0,1,56.87,72c7,43.23-16.39,85.12-55.76,101.67-1,.43-2,1-3,1.43-8.61,5.72-18.49,6.74-28.36,7-13.06.4-26.2.86-39.21-.07-20.86-1.49-41.71-.39-62.56-.87a4.75,4.75,0,0,1-2.32-.39c-8.79-.08-17.58-.23-26.37-.24q-61.86,0-123.72,0a62.35,62.35,0,0,1-10.49-.81,28.75,28.75,0,0,1-9-3.14,19.36,19.36,0,0,1-8.54-8.81c-3.56-7.53-3.62-15.12.3-22.59a19.31,19.31,0,0,1,6.35-7.06,29.82,29.82,0,0,1,17.11-5.31l206.69,0c2.07,0,4.14-.13,6.22-.19,1.88-1.61,4.18-1.31,6.38-1.32,11,0,22-.24,32.93,0,12.64.33,23.33-4,32.52-12.43.36-.36.74-.7,1.12-1.05s.71-.69,1.06-1c.16-.18.34-.35.5-.53.3-.39.62-.76.92-1.14,13-16.16,13.81-41.48-1.5-58.46-15.28-18.86-46.74-20.14-65-2.83-3.74,3.54-5.94,8.27-9.92,11.53h0a4.06,4.06,0,0,0-.66,1l-.3.88c-.53.57-.34,1.44-.87,2a.57.57,0,0,0-.2.63,3.75,3.75,0,0,1-.62,1.29,1.07,1.07,0,0,0-.22.91c-.84.81-.1,2.1-.88,2.93a.83.83,0,0,0-.13.79C662.44,754.15,663,755.35,662.38,756.28Z"/><path class="cls-5" d="M740.88,675.82c-1.83-.51-3.68-1-5.49-1.53a93.8,93.8,0,0,0-62.24,2.21c-1.33.51-2.7.92-4,1.38a25.38,25.38,0,0,1-1.12-8c0-21.58,0-43.16,0-64.75a24.34,24.34,0,0,1,.34-4.75c.33-1.7,1.29-2.34,3-2.45,1,0,1.92,0,2.88,0l66.66,0q0,36.8,0,73.6C741,673,740.91,674.39,740.88,675.82Z"/><path class="cls-5" d="M234.13,1143.15a9.2,9.2,0,0,0,1.1,1.55c1.41,1.32,2.19,2.7,1.16,4.65a3.74,3.74,0,0,0,.08,3.26,6.41,6.41,0,0,1-.46,6,5.74,5.74,0,0,0-.39,5.05,11.84,11.84,0,0,1,.41,3.78c.05,3.84,0,7.68,0,11.52a51.75,51.75,0,0,0,8,27.61c1.41,2.33,2.95,4.54,4.47,6.77a3.86,3.86,0,0,0,3.62,1.84c1.44,0,2.88,0,4.32,0H625.08c1.28,0,2.57.06,3.84,0a7.64,7.64,0,0,1,6.14,2.17,5.75,5.75,0,0,0,4.78,1.7c.95-.07,1.92,0,2.88,0H770.86a3.69,3.69,0,0,0,3.39-1.39c1.34-1.91,3.44-2.19,5.5-2.4a41.26,41.26,0,0,1,4.31,0h380.6c1.44,0,2.88,0,4.32,0,2.46-.1,2.84-.46,2.94-2.74.06-1.28,0-2.56,0-3.84,0-17.28,0-34.56,0-51.84,0-4.64-.12-9.24,1.95-13.56,1-.11,1.81-.51,1.88-1.71a2.7,2.7,0,0,1,.88-2.11c0,2.4.11,4.79.11,7.19q0,33.57,0,67.15c0,6.89.54,6.25-6.13,6.25H783.55c-2.07,0-4.15.1-6.23.14-1.89,1.58-4.19,1.41-6.41,1.41q-66,0-132,0c-2.22,0-4.53.2-6.4-1.44-2.07,0-4.15-.11-6.23-.11H254.25c-7.36,0-5.9.94-10.4-5.49a67.23,67.23,0,0,1-10-20,59.12,59.12,0,0,1-2.61-16.44c0-1-.05-1.92,0-2.88.18-5.57.13-11.12.73-16.71.58-5.36,1.43-10.75,1.35-16.18Z"/><path class="cls-5" d="M609.46,858.13c2.39-.06,4.78-.18,7.17-.18,29.7.06,59.41,0,89.11.27,12.11.1,23.86-1.48,35.22-5.69a3.69,3.69,0,0,1,.95-.11c-1,1.53-1,3.27-1,5q0,10.41,0,20.81c-1.11.07-2.21.2-3.32.2H670.86c-1,0-1.9-.12-2.85-.18V864.85c0-1.11,0-2.23,0-3.35-.1-1.82-.55-2.32-2.25-2.42-1.27-.07-2.55,0-3.83-.05-16,0-31.93,0-47.9,0C612.46,859,610.76,859.49,609.46,858.13Z"/><path class="cls-5" d="M741,944.26c-5-1.21-9.72-3-14.73-4a111.4,111.4,0,0,0-20.9-2.26c-10.86-.09-21.71,0-32.57,0-1.59,0-3.19-.12-4.78-.18,0-2.88,0-5.75-.07-8.63a1.74,1.74,0,0,0-1.81-1.83c-1.6-.06-3.2-.07-4.79-.07h-200l-5.28,0a2.69,2.69,0,0,1-2.12-.9q46.31,0,92.62.09,92.86.06,185.73.07,80.88,0,161.74-.05c3,0,6.08,0,9.11-.06a3.18,3.18,0,0,1-2.63.86l-7.66,0H747.32c-7,0-6.33-.55-6.36,6.51C741,937.24,741,940.75,741,944.26Z"/><path class="cls-5" d="M740.79,1121.91a.93.93,0,0,1,1.12-.65A1.1,1.1,0,0,1,740.79,1121.91Z"/><path class="cls-5" d="M743,1063.68c-6.87,8.1-15.74,12.73-26,15.08-17.78,4.1-40.37-6.31-49.48-22.63a7.46,7.46,0,0,1-.46-1.33,5.55,5.55,0,0,0,.8-1.67,37.41,37.41,0,0,0,.08-3.82V992.76c0-1.28,0-2.56-.06-3.83-.09-1.51-.59-2.08-2-2.16-1.59-.09-3.19-.07-4.79-.07q-103.26,0-206.52,0c-1.84,0-3.86.68-5.49-.86,4,0,8-.06,12-.06H661.92q22.27,0,44.56.09a51.53,51.53,0,0,1,25.2,6.64,35.38,35.38,0,0,1,11.35,9.36c-.77,3.12-.56,6.31-.57,9.47q0,22.65,0,45.28C742.48,1059,742.3,1061.36,743,1063.68Z"/><path class="cls-5" d="M667,742.8c2.43-5.92,6.62-10.5,11.42-14.5,19.24-16,47.13-13.19,63.15,3.46a12.24,12.24,0,0,1,1.1,1.54c-.47,18-.11,35.9-.19,53.86a62.7,62.7,0,0,1-.51,8.55c-5.81,7-13.5,10.89-22.09,13.23a35.61,35.61,0,0,1-9.43,1.26q-20.51,0-41,0A11.3,11.3,0,0,1,668,810q0-31.14,0-62.28C668,746.07,668.59,744.19,667,742.8Z"/><path class="cls-5" d="M661.41,767.8c.16-2.95-.51-6,.74-8.82q.06,3.33.11,6.68A2.67,2.67,0,0,1,661.41,767.8Z"/><path class="cls-5" d="M663.25,752.45a3.46,3.46,0,0,1,.88-2.93C664.22,750.61,664.33,751.71,663.25,752.45Z"/><path class="cls-5" d="M662.38,756.28a3.53,3.53,0,0,1,.74-3C663.25,754.35,663.42,755.46,662.38,756.28Z"/><path class="cls-5" d="M665.17,746.69a2.13,2.13,0,0,1,.87-2A1.88,1.88,0,0,1,665.17,746.69Z"/><path class="cls-5" d="M665,1050.23a2.21,2.21,0,0,1-.82-2.1A1.86,1.86,0,0,1,665,1050.23Z"/><path class="cls-5" d="M666.34,743.81a.92.92,0,0,1,.66-1Z"/><path class="cls-5" d="M664.35,748.61a1.31,1.31,0,0,1,.62-1.29A1.31,1.31,0,0,1,664.35,748.61Z"/><path class="cls-5" d="M665.93,1052.3a1.3,1.3,0,0,1-.66-1.29A1.3,1.3,0,0,1,665.93,1052.3Z"/><path class="cls-5" d="M666.89,1054.24a1.33,1.33,0,0,1-.73-1.31A1.33,1.33,0,0,1,666.89,1054.24Z"/><path class="cls-5" d="M668,1118.4a.92.92,0,0,1,1.06.68A1.1,1.1,0,0,1,668,1118.4Z"/><path class="cls-7" d="M632.55,1220.05c1.92-.06,3.83-.17,5.75-.17q66.65,0,133.29,0c1.91,0,3.82.13,5.74.2-1,5.62-2.17,11.21-3.66,16.74a80.36,80.36,0,0,1-15.09,29.51,56.29,56.29,0,0,1-19.7,15.5,68.3,68.3,0,0,1-17.2,5.51c-4.57.88-9.23.33-13.72,1.62a8.87,8.87,0,0,1-3.33,0c-5.52-.59-11.07-1-16.54-1.93a64.34,64.34,0,0,1-14.59-4.43,60,60,0,0,1-21.13-14.48,75.59,75.59,0,0,1-9.51-13.13,78.4,78.4,0,0,1-9.22-27A71.08,71.08,0,0,1,632.55,1220.05Z"/><path class="cls-3" d="M743,1063.68c-1.18-.3-2-.9-2-2.25,0-1,0-1.91,0-2.87V1007c0-1,0-1.91,0-2.86,0-1.36.86-2,2-2.26l0,0a1.62,1.62,0,0,0,1,1.08c5.24,5.61,8.24,12.35,9.83,19.76a45.67,45.67,0,0,1-4.58,32.73,21.28,21.28,0,0,1-4.41,6.15,2.63,2.63,0,0,0-.93,1.08l.05-.06a1.53,1.53,0,0,0-1,1.06Z"/><path class="cls-5" d="M744,1002.94a1.24,1.24,0,0,1-1-1.08A1.32,1.32,0,0,1,744,1002.94Z"/><path class="cls-5" d="M743.92,1062.66a1.3,1.3,0,0,1,.93-1.08A1.2,1.2,0,0,1,743.92,1062.66Z"/><path class="cls-5" d="M743,1063.66a1.2,1.2,0,0,1,1-1.06A1.2,1.2,0,0,1,743,1063.66Z"/><path class="cls-3" d="M742,795.71a5.26,5.26,0,0,1-.89-1.61,21.9,21.9,0,0,1-.11-3.34q0-26.32,0-52.64c0-1.11,0-2.23.08-3.34.08-.93.79-1.3,1.62-1.48a42,42,0,0,1,11.5,24.27c1.73,12.92-1.22,24.78-9.31,35.18a9.54,9.54,0,0,1-1,1,8.83,8.83,0,0,0-.92,1l0,0a2.82,2.82,0,0,0-1,1Z"/><path class="cls-5" d="M742.9,794.75l.92-1A1.1,1.1,0,0,1,742.9,794.75Z"/><path class="cls-5" d="M741.94,795.71a1.3,1.3,0,0,1,1-1A1.17,1.17,0,0,1,741.94,795.71Z"/></svg>