<svg id="Layer_1" data-name="Layer 1" xmlns="http://www.w3.org/2000/svg" viewBox="0 0 1414.56 1414.56"><defs><style>.cls-1{fill:#fff;}.cls-2{fill:#aec5e0;}.cls-3{fill:#90b2cf;}.cls-4{fill:#79909c;}.cls-5{fill:#3d4d54;}.cls-6{fill:#7d949f;}.cls-7{fill:#3d4c54;}.cls-8{fill:#384850;}.cls-9{fill:#4f4f4f;}</style></defs><path class="cls-1" d="M1269.51,542.53c-1.07-4.51-2.21-9-3.22-13.52a40.47,40.47,0,0,0-7-15.09c-9.17-12.61-7.7-11.3-20.84-20.83a61.05,61.05,0,0,0-19.25-9.46c-9.22-2.63-18.56-4.8-28-6.65a212.58,212.58,0,0,0-30-3.21,527.83,527.83,0,0,0-59.93.55,158.7,158.7,0,0,0-19,2.26c-8.81,1.62-17.47,3.85-26.15,6a58.44,58.44,0,0,0-20.67,9.74c-12.53,9.16-10.6,7.54-19.71,19.93a41.19,41.19,0,0,0-7,15.13c-1.22,5.13-2.54,10.23-3.62,15.39a70.2,70.2,0,0,0-.4,28.58c1.29,6.41,2.91,12.76,4.48,19.12a42.51,42.51,0,0,0,6.93,14.64c9.86,13.83,9.86,13.8,23.42,23.62a62.8,62.8,0,0,0,19.7,9.63l3.23.91c1.11.31,1.39,1,1.31,2.16-.68,9.47-4,18-8.72,26.14a8.2,8.2,0,0,1-3.18,3.47,8.93,8.93,0,0,1-3.73,3.7h0c-1.91,2.66-4.61,4.35-7.34,6-12.77,7.71-26.47,13.45-40.3,18.9a3.73,3.73,0,0,1-3.93-.69c-5.2-3.72-10.45-7.36-15.68-11-1.32-.94-1.46-1.28-.78-2.81,4.5-10.12,7.42-20.73,9.88-31.49,2-8.88,4.43-17.69,5.28-26.79,1.29-13.69,2.43-27.39,3.7-41.08q1.51-16.47,3.21-32.94c1.12-10.65,2.37-21.28,3.6-31.92q1.56-13.58,3.21-27.15c1.42-11.74,2.91-23.47,4.34-35.21s2.83-23.49,4.22-35.24c1.48-12.38,3-24.76,4.38-37.14,1.16-10.17,2.14-20.35,3.27-30.52,1.74-15.73,3.61-31.45,5.29-47.18,1.52-14.15,2.84-28.32,4.26-42.48,1.57-15.59,2.89-31.2,3.78-46.85.39-6.7.71-13.41,1.15-20.11q.91-13.67.58-27.33a142.36,142.36,0,0,0-1.55-16.23c-1.27-9.2-3.78-18.13-5.84-27.16a134.46,134.46,0,0,0-5.5-18.35c-7.22-19-18.87-35.11-32.31-50.06a101,101,0,0,0-16.67-14.41c-2.73-2-5.45-3.93-8.18-5.88a118.71,118.71,0,0,0-36-17.6c-9.51-2.79-19.18-4.94-28.88-7A119.18,119.18,0,0,0,884,12.42c-19.82-.54-39.64-1.29-59.47-1.59-34.22-.51-68.44-1.11-102.67-1.17-55.18-.11-110.35.7-165.52,2-8.95.21-17.91.47-26.85.91A123.6,123.6,0,0,0,516.6,14a301,301,0,0,0-32.24,7.27,114.56,114.56,0,0,0-36.26,17q-5.88,4.14-11.67,8.42a113.16,113.16,0,0,0-23.7,23.62c-2.67,3.59-5.27,7.24-7.88,10.87a131,131,0,0,0-17.29,33.54c-3.32,9.53-5.3,19.4-7.66,29.18a169.44,169.44,0,0,0-4,24.1c-.49,5.11-.69,10.21-.73,15.33-.16,19.7,1.55,39.29,3.53,58.87,2.07,20.52,4,41,6.07,61.57q2.31,23.39,4.63,46.77,2.88,28.88,5.79,57.74Q398,435.73,401,463.14c2.16,19.71,4.45,39.39,6.66,59.09.17,1.52.17,3.06.25,4.66-.88-.23-.81-.78-.92-1.21a41.07,41.07,0,0,0-6.67-13.7c-9.28-12.8-7.44-11-20.14-20.17-.26-.19-.53-.37-.78-.56a46.64,46.64,0,0,0-14.92-7.49c-4.43-1.32-8.94-2.4-13.43-3.51a198.81,198.81,0,0,0-31.59-5.57c-5.75-.47-11.49-.73-17.24-1a484.94,484.94,0,0,0-57.06.64A169.64,169.64,0,0,0,227,476.54c-9.28,1.69-18.42,4-27.55,6.31a63.1,63.1,0,0,0-22,10.3c-13.29,9.68-11.64,8.31-21.34,21.67a38.53,38.53,0,0,0-6.32,13.86c-1.22,5.12-2.51,10.24-3.62,15.39a65.83,65.83,0,0,0-.66,24.31c1.25,7.9,3.36,15.62,5.35,23.35a35.88,35.88,0,0,0,5.71,12.08c11.22,15.59,9.44,14.13,23.81,24.57a66.78,66.78,0,0,0,23.31,10.84c2,.51,4,1.06,6,1.51a2.11,2.11,0,0,1,1.8,1.94c.11.63.26,1.25.37,1.88a474.27,474.27,0,0,0,11.75,51.36A160.34,160.34,0,0,0,245.94,744c3,4.33,6.13,8.58,9.26,12.83a127.36,127.36,0,0,0,22,23.29c15.16,12.34,31.18,23.41,48.83,32,9.2,4.48,18.54,8.64,28.12,12.2,8.53,3.18,17.15,6.11,25.73,9.13,1.51.54,2.91,1,3.72,2.68,4,8.08,9.38,15.22,14.59,22.5,12,16.84,28.28,28.43,46.44,37.7,1.56.79,3.23,1.37,4.86,2A116.27,116.27,0,0,0,467,903.47c8.25,1.9,16.43,4.12,24.84,5.23,12.11,1.59,24.25,1.41,36.41.78,5.1-.26,10.21-.58,15.33-.68q27.35-.52,54.68.91c2.22.11,4.43.27,6.65.41,1.47,2.23.47,4.65.47,7,0,6.88-.31,13.78,1.17,20.55q2.34,10.77,5.06,21.45a31,31,0,0,0,4.16,9.65c6,9,11.79,18.35,21.28,24.37a3.72,3.72,0,0,1,1.83,3.59c-.1,7.51-.05,15-.15,22.55,0,3.19-.34,6.38-.44,9.58a2,2,0,0,1-1.94,2.22c-.79.11-1.56.36-2.35.45-10.79,1.33-21.57,2.69-32.37,4-8.09.94-16.16,2.07-24.2,3.45-13.86,2.39-27.49,5.84-41.15,9.16-42.48,10.36-79.66,30.8-112.51,59.41-3.14,2.73-6.13,5.62-9.08,8.55-9.82,9.69-18.24,20.53-26.41,31.63a263.22,263.22,0,0,0-36.07,67.91,13.76,13.76,0,0,1-3.54,5.57,157.77,157.77,0,0,0-19.57,23,91.14,91.14,0,0,0-14.51,31.58c-1.4,5.74-2.78,11.49-4.09,17.25a56.14,56.14,0,0,0-.3,24.74c1.29,5.93,2.8,11.82,4.23,17.72a51.51,51.51,0,0,0,8,17.32c2.1,3,4.31,6,6.41,9A74.52,74.52,0,0,0,345,1378.5c4.85,3.66,9.76,7.25,14.77,10.68a68.78,68.78,0,0,0,23,10.46c5.75,1.36,11.47,2.87,17.25,4.08,6.3,1.33,12.68,1.83,19.05.46,5.93-1.27,11.83-2.7,17.77-4a62.73,62.73,0,0,0,23.07-10.2q5.9-4.12,11.67-8.42a106.92,106.92,0,0,0,10.56-9c8.09-7.87,14.41-17.1,20.36-26.59a49,49,0,0,0,5.87-14.63c1.3-5.27,2.56-10.55,3.74-15.85a48.08,48.08,0,0,0,.5-20.47c-1.24-5.94-2.7-11.84-4-17.77a76.12,76.12,0,0,0-9-22.63c-2.6-4.4-5.4-8.68-8.12-13-.84-1.35-1.7-2.69-2.46-3.88a6.57,6.57,0,0,1,1.94-2.94,236.51,236.51,0,0,1,21.07-21.64,142,142,0,0,1,23.69-17.88,201.35,201.35,0,0,1,27.45-13.61c8.32-3.28,16.71-6.4,25.61-7.84,5.68-.91,11.34-1.94,17-2.69a187.73,187.73,0,0,1,24.84-2.08c4.73,0,4.83.11,5.6,4.57,0,.31.07.63.11,1,1.71,11.73,2.13,23.56,2.59,35.38.17,4.32.07,8.65.81,12.92a6.29,6.29,0,0,1-1.75,5.63c-5.83,6.61-10.8,13.88-15.87,21.06a74.88,74.88,0,0,0-11.61,25.6c-1.34,5.43-2.65,10.87-3.85,16.33a56.06,56.06,0,0,0,.22,26.14c1.14,4.49,2.23,9,3.21,13.52a57.23,57.23,0,0,0,9,20.49c2.09,3,4.32,6,6.42,9a84.21,84.21,0,0,0,18.27,18.89q7.26,5.52,14.78,10.67a63.61,63.61,0,0,0,21.29,9.59c5.6,1.34,11.17,2.76,16.79,4a46.39,46.39,0,0,0,19.52.45c5.78-1.23,11.51-2.69,17.3-3.89A65.16,65.16,0,0,0,758,1389.53c4.06-2.85,8.1-5.72,12-8.7a91,91,0,0,0,18.69-18.5q3.85-5.22,7.57-10.51a58.66,58.66,0,0,0,9.44-20.82c1.11-4.83,2.19-9.66,3.39-14.47a52.23,52.23,0,0,0,.07-25.16q-1.77-7.47-3.46-14.94a77.55,77.55,0,0,0-13.07-28.57c-5-6.87-9.8-13.84-15.34-20.26a5.38,5.38,0,0,1-1.66-4.28c.46-4.93.8-9.88,1.15-14.82a151.69,151.69,0,0,0-.15-28.27c-.22-1.9-.24-3.82-.28-5.74a1.43,1.43,0,0,1,1.49-1.52c.64-.06,1.28-.12,1.92-.14,13.91-.61,27.83-.74,41.67,1a106.32,106.32,0,0,1,16.93,3.18c35.34,10.51,63.61,31.39,87.27,59.12a2.08,2.08,0,0,1,.17,2.92c-2.67,4-5.38,7.94-7.89,12a82.25,82.25,0,0,0-9.95,23.79q-1.85,7.68-3.63,15.39a58.5,58.5,0,0,0,.13,28q1.72,6.72,3.22,13.52a56.22,56.22,0,0,0,8.92,20c2.74,3.93,5.52,7.84,8.44,11.65a75.78,75.78,0,0,0,6.27,7.25c8.94,9,19.32,16.22,30.14,22.79a52.46,52.46,0,0,0,15.07,6c5.9,1.41,11.78,3,17.71,4.23a46.38,46.38,0,0,0,19.52.38c5.94-1.26,11.84-2.69,17.76-4a62.09,62.09,0,0,0,21.88-9.42q7.9-5.43,15.55-11.23a91.71,91.71,0,0,0,7.94-6.94c8-7.69,14.2-16.85,20.06-26.21a47.79,47.79,0,0,0,5.83-14.63c1.09-4.66,2.19-9.33,3.37-14a56.54,56.54,0,0,0,.11-27.54c-1.12-4.66-2.32-9.3-3.37-14a74.37,74.37,0,0,0-12.24-26.84,202.39,202.39,0,0,0-21.62-26.26,23.34,23.34,0,0,1-5.5-8.82c-11.73-32.42-29.92-61-52.08-87.21-2.89-3.41-6-6.65-9.12-9.86-10.41-10.7-22.19-19.73-34.25-28.49a247.54,247.54,0,0,0-72.63-36.09c-11.61-3.61-23.45-6.26-35.26-9.06a354.36,354.36,0,0,0-52-8.24c-8.6-.73-17.19-1.63-25.77-2.53-4.6-.48-4.59-.55-4.82-5,0-.64-.05-1.28-.05-1.92-.08-9.6-.07-19.2-.27-28.79a4.92,4.92,0,0,1,2.55-4.68,48.73,48.73,0,0,0,13.43-13.53c1.44-2.11,3-4.18,4.47-6.24a44.49,44.49,0,0,0,7.5-16.45c1.17-5,2.42-9.94,3.56-14.92.53-2.33.91-4.71,1.29-7.07,1-6.35.86-12.75.66-19.15,0-1.28-.11-2.56-.11-3.83a1.28,1.28,0,0,1,1.11-1.32,7.64,7.64,0,0,1,1.43-.09c16.15-.66,32.29-1.33,48.45-1.17,7.51.07,15,.05,22.53.55,9.28.61,18.53.82,27.81.55a122,122,0,0,0,15.26-1.57c8.85-1.37,17.48-3.77,26.18-5.81A94.82,94.82,0,0,0,988.78,886c1.92-1.43,3.88-2.82,5.84-4.2a95.63,95.63,0,0,0,22.68-22.56c5.42-7.52,11-14.93,15.18-23.26a3.53,3.53,0,0,1,2.43-2.1c.92-.23,1.81-.6,2.72-.9,12.89-4.3,25.6-9,38.13-14.29,21.67-9.11,41.43-21.36,59.84-35.9,18.14-14.31,31.5-32.57,42.79-52.44,7.06-12.42,11.81-25.85,15.43-39.65,4.09-15.61,7.89-31.29,10.47-47.24.28-1.73,1-2.55,2.58-2.87.94-.19,1.88-.4,2.81-.61a72.24,72.24,0,0,0,27.24-12.46c11.9-8.87,12-8.76,21.79-22.59a44.92,44.92,0,0,0,7.12-15.6c1.23-5.12,2.49-10.25,3.68-15.38A68,68,0,0,0,1269.51,542.53ZM434.08,688.46c-4.82,3.41-9.7,6.75-14.45,10.26a4.4,4.4,0,0,1-4.82.68c-9.16-3.73-18.37-7.37-27.17-11.91-4.26-2.19-8.44-4.52-12.61-6.88-5.08-2.88-9-7.12-12.88-11.36a8.5,8.5,0,0,1-1.11-1.56c-4.57-8-8-16.34-8.73-25.61-.18-2.22-.13-2.4,2-3a66.65,66.65,0,0,0,24.32-12c2-1.58,4.16-3,6.19-4.52,7.09-5.37,17.89-20,20.83-28.27,1.87-5.27,2.74-10.82,4.16-16.22.68-2.57.8-5.32,2.42-8,1.14,12.28,2.12,24.06,3.37,35.81a300.4,300.4,0,0,0,7,39.58c2.47,10.08,4.65,20.22,8.25,30,1.28,3.44,2.67,6.84,4,10.26C435.54,687.34,435.52,687.44,434.08,688.46Z"/><path class="cls-2" d="M485.48,707.19a3.64,3.64,0,0,1,.78-.54c3.41-1.1,3.37-1.06,1-3.94a146.41,146.41,0,0,1-13.71-20.17,154.22,154.22,0,0,1-12.43-29,197.48,197.48,0,0,1-6.17-25c-1.32-7.19-2.25-14.45-3.19-21.72-.53-4.09-.26-8.31-1.54-12.31a3,3,0,0,1-.08-1c.32-5.77-.68-11.49-1.28-17.16s-.08-11.51-1.48-17.13a6.1,6.1,0,0,1-.14-1.91c.31-5-1.09-9.81-1.19-14.78-.07-3.62-1-7.23-1.51-10.85s-.77-7.29-1.19-10.93c-.56-4.73-1.21-9.46-1.74-14.2-.44-4-.73-7.94-1.18-11.89-.49-4.27-1-8.52-1.66-12.78-.42-3-.32-6-.9-9-.8-4.2-.83-8.55-1.27-12.83-.47-4.43-.91-8.87-1.59-13.27-.49-3.15-.35-6.33-1-9.51-.85-4.35-.83-8.87-1.28-13.31s-1-9.17-1.57-13.75a8.74,8.74,0,0,1-.21-1.41c.25-4.82-.75-9.56-1.28-14.28s-.46-9.22-1.47-13.77c-.73-3.25-.61-6.66-.91-10-.4-4.6-1.11-9.17-1.34-13.8s-1-9.48-1.58-14.22a7.83,7.83,0,0,1-.16-1.43c.29-5-.71-9.88-1.26-14.76-.51-4.58-.26-9.26-1.5-13.76a8.46,8.46,0,0,1-.15-1.43c-.36-4.77-.31-9.61-1.2-14.28-.84-4.41-.21-8.95-1.53-13.28a5.54,5.54,0,0,1-.15-1.91c.29-5-1.39-9.8-1.11-14.78-1.41-4.31-.94-8.85-1.51-13.27s-1.12-9.17-1.36-13.79c-.27-5.08-1-10.13-1.55-15.19a17.7,17.7,0,0,1-.21-1.91c-.1-8.61-1.51-17.17-1.14-25.82a35.85,35.85,0,0,0-.54-7.14,28.32,28.32,0,0,1,.13-9.54,19.46,19.46,0,0,0,.4-3.8c-.14-12.38,2.2-24.41,5.3-36.3A130.26,130.26,0,0,1,440,93.4,110.05,110.05,0,0,1,463.9,70.77a119.21,119.21,0,0,1,40.8-18.38c4.46-1.1,9-1.88,13.58-2.59C531.13,47.79,544.05,48,557,48c7.67,0,15.27-1.2,23-.94,6.39.22,12.79.05,19.19-.06,5.42-.09,10.86.41,16.25-.73a17,17,0,0,1,3.35-.06h179c8.11,1,16.26.76,24.4.83,4.31,0,8.64.21,12.95,0,8.8-.38,17.53,1.1,26.31.93,2.56-.05,5.13.14,7.68,0,8-.38,16,.4,23.9,1.16a128.51,128.51,0,0,1,34.74,8.32,120.71,120.71,0,0,1,29.51,16.68A114.2,114.2,0,0,1,984.82,105a131.65,131.65,0,0,1,15.54,38c1.19,4.78,1.67,9.73,2.66,14.54,1.17,5.69.48,11.45,1.49,17.14a27.83,27.83,0,0,1-.29,11,19.28,19.28,0,0,0-.32,3.81c-.06,3.35,0,6.71-.12,10.07-.22,7-.87,14-1.19,21a111.11,111.11,0,0,1-.86,12.38c-.85,5.37-.24,10.86-1.59,16.16a3,3,0,0,0-.08.95c.33,5.3-.77,10.51-1.26,15.73-.43,4.57-.44,9.21-1.43,13.77-.74,3.4-.65,7-1,10.45-.41,4.44-1.11,8.85-1.34,13.32-.2,4.11-1.08,8.19-1.52,12.3-.38,3.49-.58,7-1.12,10.46-.39,2.5-.68,5.07-.82,7.58-.23,4.15-1.07,8.21-1.31,12.36s-1,8.52-1.57,12.78c-.08.64-.18,1.27-.2,1.91-.2,5.74-1.33,11.39-1.75,17.09-.31,4.3-1.11,8.53-1.31,12.84-.19,4.12-1.06,8.2-1.56,12.3-.45,3.63-.81,7.28-1.19,10.92-.41,3.8-.7,7.62-1.22,11.4-.65,4.73-1.39,9.44-1.76,14.21-.3,3.8-1,7.57-1.58,11.34-.44,2.67-.31,5.37-.92,8.07-.8,3.55-.83,7.26-1.27,10.9-.45,3.79-.91,7.58-1.51,11.35s-.64,7.29-1.21,10.92c-.74,4.7-1.38,9.46-1.8,14.2-.33,3.81-1,7.58-1.28,11.39-.32,4.28-1.06,8.53-1.56,12.79-.41,3.48-.58,7-1.13,10.45-.42,2.66-.54,5.37-.93,8.06-.63,4.41-.45,8.94-1.26,13.31-.84,4.57-.31,9.26-1.58,13.75a1.33,1.33,0,0,0-.07.48c.27,4.81-1,9.5-1.17,14.29-.24,5.56-1,11.09-1.59,16.63a12.41,12.41,0,0,0-.16,1.91c.33,5.3-.63,10.51-1.16,15.73a144.86,144.86,0,0,1-4.14,22.52,158.75,158.75,0,0,1-13.64,34.16,192.2,192.2,0,0,1-13.1,20.6,19.26,19.26,0,0,0-2.54,4c-1.78,1.81-4.11,1.54-6.32,1.57-5.76.08-11.51,0-17.27,0H503.34a98.19,98.19,0,0,0-12.94.43C488.67,708.55,486.86,708.71,485.48,707.19Z"/><path class="cls-3" d="M853.15,872.34l-10.4.06a24.37,24.37,0,0,1-12.53-.74,12.88,12.88,0,0,0-12.59,1.68h-1.77a15.55,15.55,0,0,1-9.67-.73c-4.05-1.81-8.05-1.14-11.59,1.67l-2.71,0a20.11,20.11,0,0,1-11.63-.84c-2.21-.91-4.74-1.74-5.62,1.86l-.31-.07c-1.69,1.57-3.82,1.47-5.89,1.47q-60.36.06-120.72,0a17.24,17.24,0,0,1-3.8-.35c-3.37-4.24-7.43-3.79-11.74-1.67-3.79-.22-7.61.45-11.37-.38-5.28-.07-10.58.19-15.82-.28-9.72-.86-19.49-.32-29.19-1a270,270,0,0,0-28.72-.44c-7.65.24-15.34.31-23,1a117,117,0,0,1-15.3.51c-16.35-.66-32.39-3-47.52-9.68a86,86,0,0,1-23.58-15.35,105.68,105.68,0,0,1-26.29-38.44,23.63,23.63,0,0,1-1-2.2,6.42,6.42,0,0,0-3.8-4c3.17-6.44,1.44-13.53,2.66-20.26a160.38,160.38,0,0,1,13.1-40.94,5.41,5.41,0,0,1,1.72-2.26l1-.05c2.62.86,4.22-.89,5.83-2.41a132.93,132.93,0,0,1,24.09-18.12c13.06-7.66,26.95-11.88,42.33-11.76,39,.29,78,.1,117.05.1,99.14,0,198.28.54,297.41-.36,28-.25,50.11,10.1,70.2,27.7,2.64,2.31,5.16,4.8,8.83,5.43a5.21,5.21,0,0,1,3.28,3.23c8,17.18,13.22,35.08,13.85,54.14.07,2.2.29,4.49-1.28,6.39l.09,0c-2.77,1.33-4.17,3.78-5.42,6.42-4.73,9.95-10,19.56-17.32,27.93a86.68,86.68,0,0,1-47.69,28.2c-6.17,1.37-12.27,3.4-18.76,3.08-2-.1-3.63,1-5,2.47l-.4.07-.39-.09a84.5,84.5,0,0,1-18.54,0l-.41.08-.41-.07a7.35,7.35,0,0,0-9.13-1.49c-3,1.48-6.13,1.12-9.25.53l-8.49-.06C860.38,868.76,858.4,868.76,853.15,872.34Z"/><path class="cls-4" d="M382.21,1238.08c10.51-31.75,25.91-60.79,48-86a213.76,213.76,0,0,1,53-43.82c23.9-14,49.55-23.51,76.51-29.69,9.19-2.11,18.44-3.84,27.74-5.28,6.3-1,12.67-1.54,19-2.31,6.66-.81,13.3-1.71,19.95-2.45a177.06,177.06,0,0,0,19.83-3.28,52.48,52.48,0,0,0,13.06-4.61A24.12,24.12,0,0,0,671,1047.2a48,48,0,0,0,2.5-10.22,108.94,108.94,0,0,0,1.07-12.88c.17-12,.23-24,.08-36-.05-4.93-.75-9.86-1.15-14.79,1.49-1.91,3.68-1.75,5.71-1.76q29-.12,57.92,0c2,0,4.2-.13,5.8,1.6a288.74,288.74,0,0,0-1.72,40.2c.11,6.4.46,12.78.71,19.17a77.68,77.68,0,0,0,1.92,13.75,31.16,31.16,0,0,0,2.83,7.61,19.65,19.65,0,0,0,8.28,8.41,38.66,38.66,0,0,0,10.29,3.87,156.58,156.58,0,0,0,19.88,3c10.5.91,21,1.76,31.48,2.93,22.26,2.51,44.21,6.7,65.56,13.6,29.36,9.48,56.32,23.47,80,43.36a220.47,220.47,0,0,1,44.24,50.81,271,271,0,0,1,26.66,55.14,25.59,25.59,0,0,1,.67,2.78c-1.69,2-4.06,1.76-6.2,1.61-15.51-1.11-31.09-.26-46.58-1.75-3.29-.32-6.67.73-9.86-.76.06-1.59-1-2.63-1.88-3.76q-8.13-11-17.09-21.32a256.6,256.6,0,0,0-37.11-35.3,189.66,189.66,0,0,0-73.31-35.16,203.16,203.16,0,0,0-29.81-4.43,217.9,217.9,0,0,0-24.9-.49c-7.8.27-15.64.72-23.26,2.69q-2.55.66-5,1.55c-10.76,3.81-16.35,11.7-17.91,22.77a63.92,63.92,0,0,0-.22,15.27c.57,5.71.53,11.49.56,17.24a327.49,327.49,0,0,1-1.91,33c-.27,2.7-.31,5.42-.45,8.14-1.84,1.68-4.14,1.42-6.33,1.43q-24.3.07-48.59,0c-2.19,0-4.5.27-6.29-1.51a108.43,108.43,0,0,1-1.88-16.15c-.58-8.29-.64-16.61-1.18-24.9-.77-11.79-1.55-23.59-4.66-35.07A58.54,58.54,0,0,0,666,1150.6c-4.31-8.83-11.48-13.93-20.86-16.12a50.93,50.93,0,0,0-10.45-1.24,169.63,169.63,0,0,0-28.65,1.91c-10.9,1.59-21.78,3.25-32.49,5.85A194.88,194.88,0,0,0,498,1178.09c-20,15.79-36.67,34.63-51.25,55.43a5.87,5.87,0,0,0-1.45,3.46c-4.82,1.21-9.84,1.23-14.67,1.27-14.2.1-28.36,1-42.54,1.19C386.07,1239.46,383.92,1239.65,382.21,1238.08Z"/><path class="cls-5" d="M242.68,610.46c-11.23-.66-22.21-2.48-32.72-6.68a53.26,53.26,0,0,1-10.16-5.35,40.09,40.09,0,0,1-16.51-22.27,63.09,63.09,0,0,1-1.06-31.76,33.44,33.44,0,0,1,14.92-21.47,61.37,61.37,0,0,1,17-7.49A145.81,145.81,0,0,1,242,510.63c21.71-1.89,43.46-1.55,65.19-.77,12,.44,23.92,1.57,35.61,4.51a63.35,63.35,0,0,1,15.63,6A31.38,31.38,0,0,1,374,539.57a66.06,66.06,0,0,1,.41,35.53A40,40,0,0,1,357,598.88a64,64,0,0,1-19.81,8.27,106.42,106.42,0,0,1-22.25,3.32,14.67,14.67,0,0,1-7.41,1.45q-28.69,0-57.39,0C247.51,611.92,245,611.77,242.68,610.46Z"/><path class="cls-5" d="M1101.52,610.52a107.3,107.3,0,0,1-30.93-5.95,51.5,51.5,0,0,1-16.89-9.8,41.28,41.28,0,0,1-13.14-23.92,69.17,69.17,0,0,1,.51-27.6c2.44-11.24,8.91-19.22,19.24-24.18,7.28-3.49,15-5.35,22.92-6.63,15.19-2.47,30.51-3,45.85-3,9.75,0,19.5,0,29.24.26,13.26.42,26.46,1.61,39.41,4.71a78.52,78.52,0,0,1,15.8,5.51c12.36,5.93,19.61,15.61,21.21,29.24a66.76,66.76,0,0,1-1.31,24.74,41.21,41.21,0,0,1-19.6,26.08c-7.38,4.38-15.44,6.85-23.79,8.46a124.49,124.49,0,0,1-17.1,2.15c-2.11,1.47-4.54,1.35-6.94,1.35q-28.77,0-57.56,0C1106.05,611.9,1103.61,612,1101.52,610.52Z"/><path class="cls-6" d="M1101.52,610.52c4.31,0,8.62-.1,12.93-.1q26.61,0,53.22,0c1.76,0,3.52.09,5.27.14-1.27,5.14-1.4,10.43-2.1,15.65-2.93,22-6.84,43.86-14.39,64.87-5.7,15.92-13.38,30.75-24,44a145,145,0,0,1-30.5,28.27,234.21,234.21,0,0,1-39.84,21.92,496.36,496.36,0,0,1-54,19.69,13.52,13.52,0,0,1-1.41.28c0-1.76-.07-3.52,0-5.27.13-6.89-1-13.64-2.3-20.35-1-5-2.25-9.92-3.68-14.8a113.22,113.22,0,0,0-4.07-11.23c-1.64-4-3.55-7.85-5.34-11.76-.27-.21-.35-.4-.24-.58s.2-.26.3-.26c13.86-4.81,27.68-9.75,41.12-15.66,10.81-4.77,21.38-10,31.16-16.72,16.48-11.33,27.26-26.62,32.19-46a168,168,0,0,0,4.12-23c.87-7.93,1.71-15.85,1.85-23.83A16.13,16.13,0,0,0,1101.52,610.52Z"/><path class="cls-6" d="M242.68,610.46l52.13,0c6.7,0,13.39,0,20.08.05-1.22,1.33-1,3-.88,4.56.79,10.34,1.23,20.72,2.81,31,1.61,10.44,3.95,20.68,8.25,30.42a72,72,0,0,0,19.29,25.92c10.53,9,22.6,15.55,35.18,21.21,13.85,6.24,28.07,11.51,42.42,16.46.75.26,1.47.62,2.2.93a6.66,6.66,0,0,1-.9,3.66,150.14,150.14,0,0,0-11.08,31.92c-.66,2.76-1,5.6-1.55,8.4-.89,4.91-.78,9.81-.9,14.74-.05,2.16-.42,4.19-3.05,4.74-5.33-1.65-10.71-3.18-16-5A385.54,385.54,0,0,1,341,779.31a200,200,0,0,1-32.62-20.08,140.52,140.52,0,0,1-44.87-58.17,237.67,237.67,0,0,1-14-47.73c-2.14-11.13-3.89-22.32-5-33.61-.21-2.23-.57-4.44-.79-6.66A4.55,4.55,0,0,0,242.68,610.46Z"/><path class="cls-7" d="M971.09,1236.92c4-1.46,8.16-.85,12.23-.4,1.74.19,3.46.39,5.21.41,4.29,0,8.58.22,12.87.08,9.06-.29,18,1.27,27.1,1,1.74-.07,3.49-.1,5.23-.15,6.37,7,12.78,13.86,19.09,20.86a74.83,74.83,0,0,1,16.62,28.82c4.6,15.41,3,30.12-5.33,43.81a82.51,82.51,0,0,1-38,33.22,50.52,50.52,0,0,1-40.59.47,81.33,81.33,0,0,1-37.89-31.25c-9.23-14-11.11-29.34-6.67-45.47a80.44,80.44,0,0,1,9-20.59c2.41-4,4.93-7.85,7.58-11.64C961.92,1249.62,966.53,1243.29,971.09,1236.92Z"/><path class="cls-7" d="M677.56,1237l39.69.06,21.52,0c4.25,5.19,8.47,10.39,12.75,15.56a152.17,152.17,0,0,1,12.1,16,71.23,71.23,0,0,1,10.14,25.67,52.45,52.45,0,0,1-5.4,34.35,60.23,60.23,0,0,1-6,9.24,91.69,91.69,0,0,1-27,23.38,54.57,54.57,0,0,1-32.19,7.3,50.63,50.63,0,0,1-16.62-4.27A84.22,84.22,0,0,1,650.42,1334a51.77,51.77,0,0,1-9-33.14,68.65,68.65,0,0,1,10.61-31.46A135.91,135.91,0,0,1,663.49,1254Q670.54,1245.52,677.56,1237Z"/><path class="cls-7" d="M382.21,1238.08h.48c15.55,0,31.08-1.49,46.64-1.16,3.81.08,7.53-1.11,11.38-.82,1.59.12,3.18,0,4.61.88,6.94,10.16,14,20.25,20.41,30.77a82.34,82.34,0,0,1,9.61,21.34c4,14.81,2.19,28.81-5.7,42a71.71,71.71,0,0,1-9.56,12.58A98.1,98.1,0,0,1,439,1360.91a53.78,53.78,0,0,1-32.1,7.76,56.61,56.61,0,0,1-19.78-5.37,85.6,85.6,0,0,1-27.89-20.78c-6.95-7.8-11.73-16.78-13.44-27.14a60.76,60.76,0,0,1,2.14-28c4-13,10.2-24.78,20-34.5C372.73,1248,377.43,1243,382.21,1238.08Z"/><path class="cls-8" d="M742.89,973.19l-65.61,0c-1.27,0-2.55.12-3.82.18a76.75,76.75,0,0,1-11.39-6.07c-11.67-7.68-18.14-18.57-20-32.3a112.75,112.75,0,0,1-.48-22.94c.47-6.85.78-13.71,1.12-20.57a100.2,100.2,0,0,0-.81-15.29c-.25-.25-.3-.45-.15-.59a.51.51,0,0,1,.37-.17c1.75-.09,3.5-.25,5.25-.25H769.06c1.75,0,3.51.06,5.27.09,0,.3,0,.59,0,.88-.76,1.54.07,3.29-.61,4.83a185.67,185.67,0,0,0,.37,23,212.74,212.74,0,0,1,.5,25.38,59,59,0,0,1-1.46,10.42,43.32,43.32,0,0,1-18.83,27.29A74.18,74.18,0,0,1,742.89,973.19Z"/><path class="cls-3" d="M991.38,741q0,.42-.06.84c-1.47.8-2.81,1.26-4.39,0-2.09-1.69-4.67-2.78-6.14-5.21-4.53-3.21-8.21-7.54-13.26-10.08a19.48,19.48,0,0,1-2.79-1.84A88.13,88.13,0,0,0,949.31,716a69.92,69.92,0,0,0-16.42-4.88c-.47-.09-1.08.1-1.42-.13-2.42-1.68-5.05-1.16-7.68-.89-1.27.12-2.56,0-3.84,0H639c-5.89,0-11.77.12-17.66,0-6.07-.1-12.15,0-18.22,0H513.41c-5.91,0-11.83,0-17.74,0a21.71,21.71,0,0,1-5.24-.23,4.17,4.17,0,0,0-4,.59,5.15,5.15,0,0,1-2.26.59,75,75,0,0,0-26.41,9.28c-3.31,1.91-6.54,4-9.66,6.17-3.38,2.37-6.67,4.89-9.86,7.51-2.56,2.09-5.57,3.74-7.18,6.89-.31.6-1.27.92-2,1.27-1.73.84-2,.74-3.94-1.31a185.91,185.91,0,0,1,19.8-16.6c10.74-7.71,22.31-13.6,35.33-16.41a28.77,28.77,0,0,1,5.2-.71c1.27,0,2.66.29,3.8-.11,2.66-1,5.36-.75,8.06-.75H919.91c2.08,0,4.15,0,6.23,0,8,1.18,15.91,2.81,23.47,5.93A111.72,111.72,0,0,1,973,725.85a200,200,0,0,1,16.47,13.73A22.35,22.35,0,0,0,991.38,741Z"/><path class="cls-3" d="M912.65,873.38c1.27-3.37,2.05-4,5-3.89.94,0,1.86.36,2.8.46a3.1,3.1,0,0,0,1.83-.1c2.81-1.84,6.15-1.56,9.21-2.14a92.28,92.28,0,0,0,26.53-9c6.3-3.37,12.43-7.09,17.48-12.28a19.41,19.41,0,0,1,2.2-1.83c.5-.39,1.26-.59,1.55-1.08,2-3.45,5.3-5.87,7.63-9.12a150.91,150.91,0,0,0,13.6-23.53c.47-1,1.08-2,1.47-3,.88-2.33,2.51-3.13,4.88-2.62A124.57,124.57,0,0,1,989.37,837a89,89,0,0,1-38.09,28.74A107.52,107.52,0,0,1,925,872.53,84.23,84.23,0,0,1,912.65,873.38Z"/><path class="cls-3" d="M817.63,873.34c1.07-3,3.29-4,6.32-3.91s6.37-.18,9,2.21c.89.81,2.07.69,3.18.7l6.65.06a4,4,0,0,1-2.69.74Z"/><path class="cls-3" d="M794.6,874.29c.21-.42.46-.83.63-1.27a3.75,3.75,0,0,1,4-2.61c1.89.1,3.8,0,5.7,0a2.73,2.73,0,0,1,2.5,1.1c1,1.66,2.45,1.8,4.1,1.76,1.42,0,2.85,0,4.28,0a3.93,3.93,0,0,1-2.69.75Z"/><path class="cls-3" d="M874.12,872.4c1.26,0,2.53-.08,3.79,0a5.89,5.89,0,0,0,4.73-1.57c1.86-1.82,4.45-1.57,6.77-1.14a3.73,3.73,0,0,1,3.09,3.72l-15.7-.22A4,4,0,0,1,874.12,872.4Z"/><path class="cls-3" d="M853.15,872.34c1.25-3.08,2.62-3.89,6.47-3.83,3.55,0,4.8.85,6,3.83Z"/><path class="cls-3" d="M774.64,875.34c-.2-.24-.4-.48-.61-.71-.91-1.07-.87-1.51-.1-2.22,1.48-1.36,3.22-1,4.93-.93a2.37,2.37,0,0,1,1.33.43c3.43,3.13,7.68,2.18,11.7,2.41-1.22,1-2.68.72-4.07.76C783.43,875.19,779,875.26,774.64,875.34Z"/><path class="cls-3" d="M642.1,875.42a.85.85,0,0,1-.22.76c-1.35-1.23-3.07-.89-4.66-1.08-1.15-.86-2.72.18-3.83-.85,1.73-2.79,4.43-3.1,7.33-2.76,1.56.18,2,1.13,1.64,3C642.3,874.83,642.18,875.12,642.1,875.42Z"/><path class="cls-3" d="M893.32,873.35h18.54a3.3,3.3,0,0,1-2.19.74l-14.16,0A3.37,3.37,0,0,1,893.32,873.35Z"/><path class="cls-2" d="M633.39,874.25c1.3.15,2.76-.37,3.83.85l-14.23,0a3.22,3.22,0,0,1-2.18-.77Z"/><path class="cls-3" d="M773.68,881a6.19,6.19,0,0,1,.61-4.83A6.14,6.14,0,0,1,773.68,881Z"/><path class="cls-9" d="M696.24,436.94H520.65c-2.71,0-5.44,0-8.15-.14a19.44,19.44,0,0,1-18.34-17.13,19.7,19.7,0,0,1,15.17-21.45,45.13,45.13,0,0,1,9.05-.8H869.07c3.67,0,7.33.11,11-.81,15.55-3.92,25.79-13.54,29.19-29.13,5.14-23.59-10.55-42-29.63-45.9-10.81-2.23-21.06-.6-30.22,5.72-10.09,7-15.54,16.73-16.47,29a41.35,41.35,0,0,1-.86,7.6,19.72,19.72,0,0,1-18.39,15c-10.11.66-19.73-8.3-20.16-18.51A66.78,66.78,0,0,1,798,333.11c10.17-26.19,28.91-43.13,56.3-49.34,24.29-5.5,46.69-.18,66.26,15.46a74.27,74.27,0,0,1,27.2,45c4,20.34.21,39.39-11,56.91A76.34,76.34,0,0,1,910.31,427a70.65,70.65,0,0,1-33.21,9.82c-2.87.09-5.75.11-8.63.11Z"/><path class="cls-9" d="M613.53,485.79H513.25c-1.76,0-3.52.07-5.28,0-7.74-.48-13.23-4.4-16.48-11.33s-2.23-13.75,2.4-19.82a19.54,19.54,0,0,1,12.88-7.6c4.29-.71,8.57-.53,12.83-.53q99.07-.13,198.16,0a80.1,80.1,0,0,1,51.42,18.27c14.05,11.39,22.71,26.23,26.37,43.93a78,78,0,0,1,1.76,18.09c-.53,17.15-5.86,32.63-16.65,46-12.53,15.6-28.79,25.08-48.42,28.71-14.4,2.67-28.37.68-41.78-4.91-15.92-6.64-28.87-17-37.88-31.89a74.47,74.47,0,0,1-9.75-26.86A70.8,70.8,0,0,1,642,524a19.87,19.87,0,0,1,14.83-18.49,18.87,18.87,0,0,1,22.64,11.42,30,30,0,0,1,1.94,9.82,35.57,35.57,0,0,0,12.3,26.14c5.47,4.87,12,7.72,19.13,9.5,16.68,4.18,41.63-7.5,45-32.25,2.69-19.67-8.62-37.14-27.89-42.51a50.78,50.78,0,0,0-13.73-1.84Q664.88,485.82,613.53,485.79Z"/><path class="cls-9" d="M616.07,380.27H516.29c-2.56,0-5.11,0-7.67-.13a21.7,21.7,0,0,1-9.62-2.69c-6.31-3.45-9.38-9-9.51-16.07s2.66-13,9.12-16.76a22.07,22.07,0,0,1,11.86-3.24c1.6.05,3.2,0,4.8,0H718.19a40.5,40.5,0,0,0,15-2.49c13.23-5.23,21.2-14.85,24-28.8,3-14.5-4-31.37-17.7-39.5A38.31,38.31,0,0,0,681.26,303c-.19,9.09-5.8,16.63-14.25,18.92a19.78,19.78,0,0,1-25.36-18.14,75.48,75.48,0,0,1,40.73-68.89c12.06-6.13,24.76-9.6,38.27-9.16,19.92.65,37.41,7.62,52,21.42a74.7,74.7,0,0,1,22.3,39.47c5,23.51.4,45.15-14.18,64.33-12,15.84-28.2,25.22-47.71,28.76a68.27,68.27,0,0,1-12.4,1.16c-28.78-.11-57.56-.12-86.34-.23-6.07,0-12.14-.34-18.21-.52Z"/></svg>