<svg id="Layer_1" data-name="Layer 1" xmlns="http://www.w3.org/2000/svg" viewBox="0 0 1407.6 1407.6"><defs><style>.cls-1{fill:#fff;}.cls-2{fill:#eaf1f8;}.cls-3{fill:#d5e3f4;}.cls-4{fill:#3b8075;}.cls-5{fill:#4f4f4f;}.cls-6{fill:#fefcfb;}.cls-7{fill:#fdf9f6;}</style></defs><path class="cls-1" d="M704.76,1382.79H430.36c-35.66,0-71.32-.06-107,.1-45.57.2-91.14.45-136.7,1-21.74.25-43.48,1.12-65.21,1.89-8,.28-16,.94-24,.73a66.86,66.86,0,0,1-13.3-1.67c-5.91-1.35-11.82-2.71-17.72-4.13a37.15,37.15,0,0,1-13.42-6.14l-.78-.56c-13.67-9.91-10.57-6.84-21.29-21.67a36.07,36.07,0,0,1-5.71-12.58c-.07-.31-.13-.63-.22-.93-2.58-8.82-3.19-17.8-3.18-27q.18-156.39.1-312.78c0-37.9.35-75.79.48-113.69,0-4.3-.44-8.61-.48-12.91-.07-9.6,0-19.19,0-28.79,0-13.85,0-13.85,3.25-27a42.41,42.41,0,0,1,4.53-11.57c5.31-8.95,11.17-17.51,18.61-24.87A33.18,33.18,0,0,1,50.85,778c12.56-10.24,25.83-19.32,40.94-25.47,78.52-32,155.41-67.62,232.22-103.47q44.48-20.76,89-41.42c4.17-1.94,3.93-1.11,4-5.9q.36-46.77.74-93.54.51-58.29,1.06-116.56c.12-13.11.48-26.23.37-39.33a218.49,218.49,0,0,1,4.1-44.81c3.44-17.23,7.33-34.37,12.76-51.11a320.53,320.53,0,0,1,32.62-70.23c15-24.24,31.81-47.17,51.31-68A327.58,327.58,0,0,1,546.2,92.88a398,398,0,0,1,48.71-35.65A230.92,230.92,0,0,1,669,26.9c6.24-1.34,12.46-2.8,18.71-4.11A75,75,0,0,1,721,23c12.12,2.87,24.33,5.37,36.21,9.13A246.23,246.23,0,0,1,809.86,56a391.77,391.77,0,0,1,56.47,41.21,319.54,319.54,0,0,1,36.37,37.48c17.45,21.3,33.41,43.65,46.59,67.9A319.28,319.28,0,0,1,980.5,284.7c2.23,9.81,4.72,19.56,6.32,29.51A219.75,219.75,0,0,1,990,347.59q.3,40.77.68,81.55.47,49.64,1,99.29c.23,24.46.5,48.93.63,73.39,0,2.74.7,4.23,3.36,5.44,74.67,34,148.8,69.14,223.84,102.31,29.34,13,58.76,25.77,88.49,37.84a190.76,190.76,0,0,1,46.49,27.38A74.84,74.84,0,0,1,1369,789.91c2.42,3.38,4.9,6.71,7.24,10.14a61.45,61.45,0,0,1,8.48,19.17,87.51,87.51,0,0,1,2.86,25.1c-.23,9.27,0,18.55-.06,27.82a15.74,15.74,0,0,1-.19,4.3c-1,3.46-.83,7-.8,10.46,1.25,143.91,1,287.83,1,431.74a38.57,38.57,0,0,1-1.17,10.43c-1,3.54-1.75,7.14-2.63,10.7a37.36,37.36,0,0,1-6,13c-.18.26-.38.51-.56.77-9.8,13.65-7.32,11-21.23,21.07a33.88,33.88,0,0,1-11.59,5.57c-8.51,2.14-17,4.46-25.69,5.75a77.71,77.71,0,0,1-13.88.61c-10.39-.32-20.77-.79-31.15-1.21q-37.15-1.48-74.33-1.71c-69.23-.35-138.47-1-207.7-.89q-143.45.16-286.88,0Z"/><path class="cls-2" d="M1068.9,1347.13l-185.54,0H343l-3.35,0c2.77-4.46,2.28-9.45,2.28-14.35,0-93.33-.51-186.66.15-280,.68-96,.74-192,.82-288.08,0-2.55-.14-5.13.87-7.56,1.68-3,4.82-4.07,7.71-5.36q74.92-33.3,149.79-66.75,60-26.71,119.83-53.86c17-7.7,34-15.62,50.95-23.44,21.38-9.86,42.92-10.45,64.43-.46q65.67,30.48,131.78,60,63.43,28.46,127,56.55c21.35,9.42,42.62,19,63.93,28.51,2.47,1.1,5,2.16,6.46,4.76,1.34,3.4.9,6.95.9,10.45,0,127.25-.64,254.51.3,381.75.46,63,.17,125.94.62,188.91C1067.55,1341.31,1068.48,1344.15,1068.9,1347.13Z"/><path class="cls-3" d="M1068.9,1347.13a11.08,11.08,0,0,0-1.57-1,1.89,1.89,0,0,1-1.27-1.82c0-1.44,0-2.88,0-4.32q0-85.85,0-171.69a22.06,22.06,0,0,0-.66-7.12,15.92,15.92,0,0,1-.27-4.75q0-41.25,0-82.49,0-155.64,0-311.26c0-2.22.36-4.5-1-6.53,1.81-1.35,3.37-.11,4.9.55q62,26.8,123.93,53.76,51,22.06,102,44.14c17.45,7.52,34.85,15.16,52.32,22.62a9.61,9.61,0,0,1,3.56,2.36c.06,2.55.18,5.11.18,7.66q0,78.9.06,157.8a26.71,26.71,0,0,0,.66,7.59c.48,1.64.23,3.49.23,5.25q0,113.67,0,227.33,0,16.79,0,33.58c0,7.37-2.9,13.61-7.55,19.13a31.71,31.71,0,0,1-17.76,10.52,50.44,50.44,0,0,1-10.8,1.7c-3.32,0-6.58,1.14-10,.87a23,23,0,0,1-5.21-.57,13.64,13.64,0,0,0-3.79-.37c-3.68,0-7.36,0-11,0a20.49,20.49,0,0,1-6.64-.67,12.6,12.6,0,0,0-3.8-.26c-5.44,0-10.87,0-16.31,0-2.7,0-5.4.13-8.07-.71a14.88,14.88,0,0,0-4.29-.21l-42.21-.05a23.37,23.37,0,0,1-5.69-.55,24.61,24.61,0,0,0-5.71-.34q-59.7,0-119.42,0Z"/><path class="cls-3" d="M345.44,756.16a6.77,6.77,0,0,0-1,3.65c.07,1.27,0,2.56,0,3.84q0,110.55,0,221.11c0,2.86.14,5.7-.72,8.54-.5,1.62-.22,3.49-.22,5.25q0,164.75,0,329.51c0,4.15,0,8.31,0,12.47,0,4.39,0,4.39-3.84,6.6l-123.24,0a22,22,0,0,0-7.11.65,14.52,14.52,0,0,1-4.29.25l-42.19.05a18.94,18.94,0,0,0-6.16.63,12.93,12.93,0,0,1-3.8.28c-5.12,0-10.23,0-15.35,0-3.49,0-7-.21-10.46.77-1.63.46-3.49.11-5.25.18-5.4.24-10.8-.35-16.22.77a18.23,18.23,0,0,1-9-.37,11.38,11.38,0,0,0-3.3-.37,44.73,44.73,0,0,1-20.16-5.19c-8.11-4.08-12.56-11-15.21-19.37a9.31,9.31,0,0,1-.3-2.36c-.05-1,0-1.92,0-2.88q0-176,0-352a28.19,28.19,0,0,1,.69-8.07,17.2,17.2,0,0,0,.2-4.77l0-70c0-1.92,0-3.84.07-5.75,1.34-2.3,3.86-2.79,6-3.71,31-13.28,61.91-26.77,92.88-40.13q63.17-27.27,126.3-54.63c19.06-8.27,38.16-16.46,57.21-24.75C342.4,755.87,343.85,754.84,345.44,756.16Z"/><path class="cls-4" d="M455.65,333c4.38-46.2,20-88.6,43.68-128.19a350.4,350.4,0,0,1,80.42-93.16c20.1-16.28,41.83-29.91,65.71-40a196.49,196.49,0,0,1,47.27-13.69,77.11,77.11,0,0,1,28.11,1c29.06,6.38,55.82,18.13,80.81,34.09,36.16,23.1,66.22,52.61,91.3,87.29a337.66,337.66,0,0,1,47.77,93,276.52,276.52,0,0,1,11.8,52.75c.58,4.74,1.35,9.5,1.12,14.33-1.28,1.47-3,1.64-4.81,1.72-2.08.1-4.16.06-6.23.06H463.43C455,342.12,454.63,341.66,455.65,333Z"/><path class="cls-4" d="M345.44,756.16c-3.87,1.05-7.38,3-11,4.57q-48.84,21-97.64,42.17-41.11,17.79-82.21,35.61-44,19-88,38c-2.63,1.13-5.31,2.15-8,3.23a18.38,18.38,0,0,1-.79-5.67q.06-19.9,0-39.81A18,18,0,0,1,59,827.69a59.43,59.43,0,0,1,17.39-24.31,103.81,103.81,0,0,1,21.25-13.83c8.85-4.48,18.14-7.95,27.28-11.75,40-16.64,79.58-34.12,119-52C293.56,703.22,342.84,680,392.25,657q28-13,56.13-25.93c1.58-.74,3.09-1.63,4.63-2.44,3.05-3.32,7.4-4.36,11.25-6.1,21-9.51,41.72-19.42,61.44-31.38,19.85-8.23,40.16-15.36,59.73-24.3,3.76-1.72,7.46-3.58,11.17-5.42,16.66-6.3,33.54-12.05,49.82-19.36a194,194,0,0,0,22.49-11.57c19.58-9.17,39.42-9.21,59.48-1.67,4.08,1.54,7.43,4.33,11.22,6.35,22.79,10.12,45.68,20,68.5,30.08A724.54,724.54,0,0,0,883.83,598c23,10,45.71,20.58,69.5,28.61a5.85,5.85,0,0,1,3.15,2h0a10.06,10.06,0,0,1,1,.63l25.23,11.66q54.59,25.2,109.19,50.39c58.87,27.18,117.91,54,177.66,79.18,8.39,3.54,16.82,7,25.21,10.52a163.64,163.64,0,0,1,27.91,14.76,82.33,82.33,0,0,1,19.36,17.74,62.93,62.93,0,0,1,5.88,9.31,30.81,30.81,0,0,1,3.77,15.59c-.3,10.23-.11,20.46-.07,30.69a41.76,41.76,0,0,1-.92,10.46c-1.37.28-2.48-.48-3.63-1q-16.71-7.2-33.41-14.45-34.27-14.85-68.56-29.69-31-13.44-62-26.9-34.27-14.87-68.57-29.7-23.29-10.1-46.57-20.22c-1.31-.57-2.52-1.41-4-1.49-1.7-.86-3.38-1.79-5.12-2.56q-50.34-22.41-100.68-44.78-41.37-18.42-82.68-36.93-48.49-21.81-96.92-43.8c-13.38-6.07-26.69-12.29-40-18.44a89.59,89.59,0,0,0-21.73-7.31,66.41,66.41,0,0,0-28,.84,96.19,96.19,0,0,0-16.68,5.93c-27,12.33-54,24.75-81.07,37q-43.86,19.86-87.84,39.45-46.37,20.73-92.77,41.36-28.87,12.87-57.76,25.74C350.29,753.73,347.88,755,345.44,756.16Z"/><path class="cls-3" d="M807.75,566.34c-7.58-3.27-15.17-6.52-22.73-9.83q-21.81-9.54-43.61-19.17a16.44,16.44,0,0,1-1.61-.94c-1-8,.43-15.92.82-23.84.4-8.3.57-16.58.63-24.87q.12-17,0-34c-.19-24-19.35-39.91-43-35.57-8.47,1.56-14.06,7.2-18.44,14.17a51.31,51.31,0,0,0-7.42,24c-.79,11-1.43,22-2.37,32.93-1.21,14.19-.42,28.39-1.09,42.58-6.44,4.18-13.39,7.4-20.33,10.59-16.41,7.53-33.46,13.43-50.38,19.67a7.27,7.27,0,0,1-1.41.22c-1.71-1.65-1.43-3.82-1.45-5.86-.07-6.39-.17-12.79,0-19.18.63-23.81-1.24-47.58-1.11-71.38a172.3,172.3,0,0,0-1.09-18.15c-1.31-12.71-7.41-22.57-19.64-27.27-12.82-4.92-25.26-3.78-36,5.47-7.67,6.62-9.78,15.79-10.32,25.49-.35,6.42,1.37,12.72,1,19.12-1.48,23.14-.2,46.34-1.18,69.46-.68,16.14-.44,32.26-.69,48.38a20.94,20.94,0,0,1-.4,3.8c-18.07,11.44-37.34,20.57-56.78,29.39-3.33,1.51-6.63,3.1-10,4.59-2,.9-3.94,2.09-6.17,2.49,0-2.08-.12-4.15-.12-6.23q0-31.14,0-62.29a23.47,23.47,0,0,1,.57-6.17,20.19,20.19,0,0,0,.32-5.23q0-47.19.07-94.39c0-3.18-.26-6.37.74-9.5a13,13,0,0,0,.16-3.81q0-48.64.05-97.28c0-2.71,0-5.43,0-8.14a3.21,3.21,0,0,1,.85-2.64c0,1.91,0,3.83,0,5.74a1.61,1.61,0,0,0,1.75,1.79c1.27,0,2.55,0,3.83,0H948.37c1.76,0,3.52-.08,5.27-.12q.08,19.17.14,38.34c0,2.7-.12,5.38.69,8.06a16.79,16.79,0,0,1,.21,4.77q0,43.38.06,86.75a23.78,23.78,0,0,0,.66,7.11,16.78,16.78,0,0,1,.24,4.77q0,44.09.06,88.19c0,2.22-.17,4.45.63,6.63a8.35,8.35,0,0,1,.26,2.84q0,19.65,0,39.31c0,.47-.08.95-.12,1.43a8.22,8.22,0,0,1-3.23-.76c-15-5.08-29.57-11-44-17.38-8.16-3.61-16.33-7.19-24.49-10.8a8.91,8.91,0,0,1-1.18-.78,21.89,21.89,0,0,1-.37-5.24c0-41.57.13-83.13-.08-124.7,0-9.06-.41-18.22-2.74-27.11-6-23-35.42-32.16-53.39-16.43-7.81,6.83-10.44,16.25-11.71,26.11-1.52,11.89-1.29,23.9-2.09,35.85-1,15.13-1.75,30.28-2.57,45.42-.48,8.92-1.26,17.84-1.32,26.79C809.3,561.92,809.83,564.45,807.75,566.34Z"/><path class="cls-3" d="M957.56,629.26a.85.85,0,0,1-1-.63A.93.93,0,0,1,957.56,629.26Z"/><path class="cls-5" d="M678.55,1056.77H456c-2.87,0-5.75-.1-8.62-.2a24.19,24.19,0,0,1-22.82-24c-.26-13.35,9.25-23.18,21.39-24.92a59.63,59.63,0,0,1,6.69-.42c2.24-.07,4.48,0,6.72,0H896.3a61.76,61.76,0,0,0,15.69-1.62A48.53,48.53,0,0,0,948.11,961c1.12-23.66-15.71-47-42.59-50.12-20.09-2.31-36.41,4.81-47.68,22.09a45.31,45.31,0,0,0-6.64,18.35,64.84,64.84,0,0,0-.79,8.58c-.1,9.19-7.13,19.83-18.67,22.89-8.54,2.27-20.37-1-26.66-10.76a24.77,24.77,0,0,1-4-14.06A94.81,94.81,0,0,1,816,907.64c15.6-24.47,37.81-39.72,66.39-44.65,54-9.33,102.66,26.26,112.74,76.17,5.53,27.38.15,52.67-15.7,75.72a95.66,95.66,0,0,1-26.71,26.52,91.63,91.63,0,0,1-47.76,15.29c-2.56.08-5.12.08-7.67.08Z"/><path class="cls-5" d="M578.76,985.53H450.23a51,51,0,0,1-12.39-1.06,26.91,26.91,0,0,1-11.49-5.66c-10.89-9.51-10.48-30.27,3.86-38.28a32,32,0,0,1,16-4.22q110.07.09,220.14.1c14.39,0,28.78.09,43.17,0a45.71,45.71,0,0,0,28.82-10.22c11.94-9.61,18.12-22.16,18-37.52-.2-19.29-8.87-34-25.94-42.75a47.9,47.9,0,0,0-69.48,33.55,76.66,76.66,0,0,0-.85,9.53c-.64,9.71-5.17,17-13.86,21.48-16.33,8.32-35.85-3.68-36.05-21.88a95.06,95.06,0,0,1,55.14-87.93,97.24,97.24,0,0,1,41.7-9.57c26.4.1,49.44,9.13,68.55,27.44a94.15,94.15,0,0,1,29.2,58.44c6.08,52.27-28,97.14-76.47,107.22a93.75,93.75,0,0,1-19,2c-27.5,0-55,.11-82.49-.3-16-.24-32-.05-48-.05Z"/><path class="cls-5" d="M632.59,1142a18,18,0,0,0,5.29,0c9.35-1.13,15,4.58,19.31,11.43,3.24,5.1,3.74,11,4,17.33a43.57,43.57,0,0,0,7.58,21.85c7.34,11,17.94,17.12,30.42,20.2,3.07.75,5.77,2.88,9.1,2.49a64.3,64.3,0,0,0,14.21-3.62c16.81-6,27.55-17.58,32.07-35.23,3.58-13.92-1-25.65-8.14-36.79-7.48-11.68-19.21-16.59-32.37-19.33-10.61-2.21-21.24-1.94-31.9-2q-114.9,0-229.79,0a27.52,27.52,0,0,0-5.72.33c-12.66,2.61-26.12-6.22-28.18-19.19-2.81-17.65,8.11-31.27,26.66-31.9,3-.1,6.06.22,5.52,3.46.22,1.75.91,1.06.31,1.27-.2.08-.25-.06-.32-.36-.81-3.3.93-3.55,3.66-3.55q124,.12,248,.05c2.86,0,5.7.15,8.55-.68a5.82,5.82,0,0,1,5.84,1.24c3,1.18,6.26,1.11,9.38,1.77,19.34,4.14,36.54,12.48,50.7,26.4,16.56,16.26,25.89,36.1,28.45,59.22,1.75,15.87.2,31.31-5.78,46.09-11.87,29.37-33.28,48.62-63.31,58.31a89,89,0,0,1-38.82,3.57,101.56,101.56,0,0,1-46.74-18.42,93.63,93.63,0,0,1-33.44-42.21,88.07,88.07,0,0,1-6.18-26c-.11-1.42-.44-2.82-.67-4.23-3-5.2-1-10.28.67-15.19,2.56-7.72,8-12.86,15.53-15.9C628.6,1141.55,630.58,1142.12,632.59,1142Z"/><path class="cls-2" d="M716.75,1069l-259.52-.18c-2.05,0-4.14-.34-6.24.41-.14,1.47-.28,2.9-.42,4.37a1.92,1.92,0,0,1-.27-.62c-.19-4.31-.05-4.27-4.87-4.11-7.48.24-14.2,2.36-19.38,8-6.74,7.34-8.93,15.93-5.41,25.3,3.64,9.67,11,15.09,21.37,16,2.22.19,4.48,0,6.71,0H704c8.24,0,16.27,1.13,23.84,4.53,16.3,7.33,25.83,19.86,28.48,37.55,2,13.16-1,25.18-9.12,35.67a49.41,49.41,0,0,1-32.23,19,42.21,42.21,0,0,1-20.3-1.9c-7.83-2.58-15-6.38-20.87-12.29a45.33,45.33,0,0,1-13.56-30.86,39.48,39.48,0,0,0-1.66-10.37c-3-9.32-9-15.26-18.86-17a11.23,11.23,0,0,1-1.79-.63c.53-.58,1.08-1.15,1.57-1.76a2.59,2.59,0,0,1,3.4-.75c2.37.95,4.78,1.76,7.16,2.69a6.73,6.73,0,0,1,2.83,1.73c1,1.17-.1,3.11,1.14,3.93s2.81.49,3.95,1.47a4.1,4.1,0,0,1,.82,1.17c1.82,3.32,4,6.49,4.32,10.45.09,1.09.62,2.14.77,3.24.36,2.73.58,5.46-2.17,7-.09,1.48,1.19,1.58,1.72,2.31a7.59,7.59,0,0,1,1.35,1.93c.79,2.75,1.56,5.51,2.07,8.31a9.53,9.53,0,0,0,1.77,4.38c2.54,3.25,4.88,6.73,7.81,9.6a35,35,0,0,0,7.87,6.14c2.82,1.48,5.62,3.1,8.5,4.38s5.73,2.79,9,2.74c1.57,0,2.85.42,3.38,2.07.32,1,.87,1.74,2,1.7,1.55,0,3.52.74,4.48-.8,1.56-2.5,4-3,6.45-3.58a42.15,42.15,0,0,0,16.2-7.79c.38-.29.78-.83,1.15-.81,3.3.18,4.31-2.9,6.38-4.44a3.59,3.59,0,0,0,1.34-1.92c.44-2,1.88-3.25,3-4.81a38,38,0,0,0,4-7.51,32.65,32.65,0,0,0,1.92-7.85c.25-2.1.74-3.67,2.8-4.53a2,2,0,0,0,1.19-1.93c.06-2.19.59-4.56-2.53-5.36-1-.25-1.13-1.42-1.25-2.42a41.2,41.2,0,0,0-8.55-20.4c-1.42-1.85-1.26-4.55-2.86-5.86s-3.88-1.12-5.51-2.57c-4.66-4.1-10.21-6.36-16.16-7.85-3.08-.78-6.1-1.87-9.35-1.63a3.71,3.71,0,0,1-3.74-1.69c-1.15-2-2.9-2.26-4.91-2.15-1,0-1.91,0-2.87,0H453.75c-1,0-1.92.06-2.88,0a4.31,4.31,0,0,0-4.47,2c-1.07,1.72-2.64,2.07-4.58,1.21a4.3,4.3,0,0,0-2.8-.23c-1.89.57-3.41-.06-5-.91-1.4-.75-2.84-1.47-4.29-2.12a18,18,0,0,1-5-3.61c-1.62-1.54-2.64-3.61-4.59-4.84a2.75,2.75,0,0,1-.82-1.16c-1.05-2.3-2.13-4.6-3.07-7-1.11-2.8-1.66-5.57,1.32-7.74a.79.79,0,0,0,0-1.24c-4.16-3.16-1.16-6.69-.35-10,.35-1.42,1.67-2.68,2.11-4.23a3.28,3.28,0,0,1,1.09-1.51c2.23-2.06,4.49-4.08,6.59-6.27a16,16,0,0,1,10.19-4.69c.61-.07,1.4.31,1.86,0,2.65-1.54,5.33-2,8.23-.75a1.33,1.33,0,0,0,.94,0c2-1,3.68-.8,4.92,1.27a2.29,2.29,0,0,0,2.13.83c1.12,0,2.24,0,3.36,0H703.18c1,0,1.92,0,2.88,0a3.6,3.6,0,0,0,3.32-1.44c1.51-2,3.71-1.64,5.7-1.1C716.8,1065.85,716.75,1067.52,716.75,1069Z"/><path class="cls-2" d="M632.59,1142a12.35,12.35,0,0,1-1.76.64c-11,2.31-17.26,9.31-19.78,20a24.28,24.28,0,0,0-.63,6.13c0,1.58,0,3.16-.08,4.74-1.62-.2-3.18-.57-3.85-2.29-.75-1.91-1.59-3.83-.3-5.89,1.55-2.49,1.2-5.51,2.23-8.18,2-5.09,6.54-12.28,11.75-14.94a23.85,23.85,0,0,1,5.19-2.28C629.61,1138.89,629.6,1138.84,632.59,1142Z"/><path class="cls-4" d="M1245.51,1017.55c0,3.36,0,6.71,0,10.07a47.51,47.51,0,0,1-.53,7.63c-.84,6-.49,12.12-.06,18.18a94.41,94.41,0,0,1-.19,18.64c-1.51,11.88-8.09,19.21-19.51,22.15a65,65,0,0,1-31.3.65,32.64,32.64,0,0,1-4.13-1.22,23.8,23.8,0,0,1-14.6-14.89,48.93,48.93,0,0,1-2.39-13.15,74.82,74.82,0,0,1,.06-11.5c1.23-14.54.73-29,.08-43.59-.41-9.12,0-18.22,2.43-27.1a40,40,0,0,1,2.28-6.29,26.49,26.49,0,0,1,15.78-14.54,49.4,49.4,0,0,1,29.25-1.18c8.82,2.3,14.74,8,18.09,16.38a59.74,59.74,0,0,1,3.73,16.78C1245.21,1002.21,1245.5,1009.87,1245.51,1017.55Z"/><path class="cls-4" d="M163.13,1059.57c-.26-5.44.68-11,.89-16.57a242.81,242.81,0,0,0-.54-24.43c-.61-9.57-.85-19.18.65-28.71a53,53,0,0,1,2.78-10.65c3.85-10.05,11.08-16.25,21.54-18.55a53.21,53.21,0,0,1,22.37-.16c9.23,1.92,15.93,7,19.7,15.83a53.65,53.65,0,0,1,3.58,13.87,153.22,153.22,0,0,1,1.14,18.17,156.41,156.41,0,0,0,1.39,19.1,7.62,7.62,0,0,1,0,2.38c-1.21,6.5-.86,13.07-.87,19.61,0,6.87.23,13.74-.6,20.6a42.28,42.28,0,0,1-2.12,9.32A22.62,22.62,0,0,1,219.8,1093a35.32,35.32,0,0,1-9.23,2.51,75.72,75.72,0,0,1-25.74-.85,32.42,32.42,0,0,1-8.48-3.23,22.76,22.76,0,0,1-11.26-13.72,38.36,38.36,0,0,1-2-11.29C163.12,1064.22,163.13,1062,163.13,1059.57Z"/><path class="cls-6" d="M807.75,566.34q.07-5.28.16-10.54c.05-2.71-.1-5.39.73-8.07.45-1.47.16-3.17.23-4.76.18-4.77-.27-9.52.79-14.3.64-2.89.13-6,.17-9.08,0-2.38-.17-4.77.7-7.11a11,11,0,0,0,.25-3.32c.18-5.08-.26-10.16.82-15.25.61-2.91.11-6.05.15-9.08,0-2.71-.21-5.41.74-8.07a10.18,10.18,0,0,0,.2-3.33c0-3.67,0-7.35,0-11a14.83,14.83,0,0,1,.59-5.2,9.5,9.5,0,0,0,.35-2.84,48.8,48.8,0,0,1,6.59-23.17A27.85,27.85,0,0,1,840,417.53a46.1,46.1,0,0,1,9-1.18,42.11,42.11,0,0,1,16.24,3.42c5.73,2.48,9.83,6.93,12.92,12.34a49.69,49.69,0,0,1,5.63,24.38,7.27,7.27,0,0,0,.08,2.38c1.25,3.91.83,7.92.83,11.89q0,61.13,0,122.25c0,1.27,0,2.55,0,3.83a2.67,2.67,0,0,1-1,2.06c-4.63-1.2-9-3.18-13.45-4.87-20.43-7.74-40.28-16.8-60-26.16A22.21,22.21,0,0,1,807.75,566.34Z"/><path class="cls-6" d="M525.94,592.18a2.92,2.92,0,0,1-1.08-2.53c0-1.92,0-3.84,0-5.76q0-16.54,0-33.1a22.69,22.69,0,0,1,.66-6.64,16.68,16.68,0,0,0,.26-4.76q0-25.9.05-51.81a20.19,20.19,0,0,1,.63-6.64,12.28,12.28,0,0,0,.27-3.8c0-3.52,0-7,0-10.56a51.51,51.51,0,0,0-.56-5.68,48.13,48.13,0,0,1,.14-14.77c.51-2.65.67-5.34,1.57-7.94,3.6-10.41,10.67-17.21,21.14-20.36a38,38,0,0,1,26.65,1.7,30.51,30.51,0,0,1,14.73,13.83,36.67,36.67,0,0,1,4.49,17.87c0,3.65-.32,7.33.8,10.93a13.12,13.12,0,0,1,.13,3.82q0,13,0,25.91a20.74,20.74,0,0,0,.58,5.69,17.85,17.85,0,0,1,.33,4.75q0,28.31,0,56.61c0,1.12,0,2.24.05,3.36-3.39,2.44-7.27,3.94-11,5.69-13.76,6.39-28,11.73-42.06,17.25Z"/><path class="cls-7" d="M669,531.82a3.37,3.37,0,0,1-1.16-3q0-14.87,0-29.74c1.36-5.33.38-10.84,1.12-16.17.6-4.3.26-8.63.93-12.82s.44-8.59.9-12.85c.94-8.57,2.66-17,7.13-24.56,4.34-7.37,10-13.16,18.45-15.73,2.39-.72,4.76-.54,7.11-.66,11.34-.56,21.47,2.46,29.38,11A37.05,37.05,0,0,1,741.8,445a48.33,48.33,0,0,1,.86,10.44q0,24,0,48a26.32,26.32,0,0,1-.68,7.11c-.5,1.8-.19,3.81-.27,5.73-.17,4.44.45,8.91-.84,13.32-.43,1.48-.11,3.18-.13,4.78a2.67,2.67,0,0,1-.93,2.11,11.52,11.52,0,0,1-3.07-1.26c-5.32-4.44-11.77-6.44-18.25-8C702,523,685.86,524,670.33,531.37A12,12,0,0,1,669,531.82Z"/></svg>