<svg id="Layer_1" data-name="Layer 1" xmlns="http://www.w3.org/2000/svg" viewBox="0 0 1401.6 1401.84"><defs><style>.cls-1{fill:#fff;}.cls-2{fill:#d8c8ae;}.cls-3{fill:#ac9b7e;}.cls-4{fill:#e8e7e1;}.cls-5{fill:#4f4f4f;}</style></defs><path class="cls-1" d="M1394.61,709.65q0,199.56,0,399.12a37.76,37.76,0,0,1-1.39,11.35,19.53,19.53,0,0,0-.73,3.27c-.68,5.41-3.11,9.95-6.49,14.14a26.73,26.73,0,0,1-5.07,5c-10.88,7.9-22.36,14.87-33.75,22a1477,1477,0,0,1-175.1,93.94,1221.35,1221.35,0,0,1-170.32,62.27c-26.46,7.45-53.18,13.77-80,19.76-17.63,3.93-35.37,7.28-53.18,10.23q-21.76,3.6-43.67,6.24c-14,1.71-28,3.18-42,4.29-12.43,1-24.9,1.61-37.35,2.27-21.58,1.16-43.18,1.21-64.78.79-17.59-.34-35.16-1.23-52.71-2.5-15.32-1.11-30.61-2.52-45.85-4.34-24-2.86-47.82-6.5-71.53-11.07-42.06-8.11-83.68-18-124.75-30.2a1224,1224,0,0,1-169-64.46c-64.71-30.14-126.68-65.18-186.47-104.12-3.08-2-6-4.27-9-6.37a12.48,12.48,0,0,1-2.72-2.66c-5.42-7-5.31-7-7.55-15.71a63.7,63.7,0,0,1-1.94-16.1q.07-390.48,0-781a88.47,88.47,0,0,1,2.3-20.38c1.81-7.71,6-13.54,12.22-18.22A45.74,45.74,0,0,1,35.07,281c70.7-27.43,141.88-53.58,213.17-79.43Q361,160.69,473.88,120c69.94-25.36,139.68-51.26,209-78.19,5.84-2.26,12-3.2,18.08-4.62,1.78-.41,3.47.33,5.18.68,9.25,1.9,18.16,4.92,27.09,7.93,77.93,26.2,155.45,53.6,232.83,81.39q114.72,41.21,229.4,82.49Q1283,241,1371.05,270.53c3,1,5.33,2.81,7.93,4.34,5,3,8,7.75,11.13,12.32a8,8,0,0,1,1,2.66c.86,3.4,1.65,6.83,2.5,10.24a36.8,36.8,0,0,1,1,9Q1394.59,509.37,1394.61,709.65Z"/><path class="cls-2" d="M46.13,1114.89a1.81,1.81,0,0,1-.92-1.57c0-1.44-.05-2.87-.05-4.31q0-393.16,0-786.32c0-8.8-1-6.63,6.75-9.72,17.95-7.13,36-14,54.05-20.86,11.33-4.32,22.71-8.5,34.08-12.74q18.84-7,37.68-14c7.33-2.72,14.68-5.39,22-8.08q17.76-6.51,35.52-13,12.14-4.44,24.29-8.83,21.15-7.68,42.3-15.35c9.31-3.36,18.65-6.62,28-10,13.65-4.93,27.29-9.92,40.94-14.87,9-3.25,18-6.46,27-9.71q21.17-7.65,42.31-15.33c8.41-3,16.83-6,25.23-9.06q18.9-6.87,37.77-13.8l22-8.07q17.75-6.51,35.5-13c9.58-3.52,19.18-7,28.74-10.61q19.95-7.45,39.88-15,15-5.67,30-11.41,17.44-6.66,34.87-13.37l.45-.17c2.4-.87,4.74-2.14,7.22-2.47s4.89,1.23,7.29,2c10,3.3,20,6.69,30,10.08Q756,91,773,96.87q23.53,8.11,47,16.31,26.22,9.13,52.4,18.38,21.45,7.56,42.85,15.24Q941,156,966.66,165.18q22.53,8.1,45,16.27l47.74,17.21,59,21.23q18.46,6.66,36.94,13.29,28.41,10.13,56.83,20.2c11.58,4.11,23.16,8.23,34.76,12.27q23.73,8.28,47.5,16.43c13.13,4.52,26.29,9,39.42,13.46,7.24,2.49,14.44,5.1,21.72,7.48,2,.66,2.93,1.69,2.83,3.76-.06,1.11,0,2.23,0,3.35v800.23c0,1.28,0,2.56-.05,3.84a1.66,1.66,0,0,1-1.07,1.44q-100.65-43.34-201.36-86.57l-16.32-7c-2.07-.89-4.18-1.72-5-4.17-.68-3-.43-6.06-.43-9.09q0-263.1,0-526.21c0-9.74,0-9.77-9.29-13.26-69.78-26.2-139.87-51.59-209.59-78-13-4.92-26-10-39-14.93-5.92-2.22-6.09-2.09-6.09,4.33q0,89.94,0,179.88a58.18,58.18,0,0,1-.23,8.14c-.38,2.6-2.24,4.1-4.15,5.6-25.65,20.14-41.35,46.2-46.17,78.52-1.05,7-2.18,14.11-.55,21.38,4.73,21,27.38,30.33,45.31,18.47,1.48-1,3.14-4.12,5.33-.63,1.05,11.13.48,22.27.32,33.4a4.52,4.52,0,0,1-1.22,3.05c-2.15,1.44-4.6,1.2-7,1.2q-146.6,0-293.2,0c-2.38,0-4.83.23-7-1.1a4,4,0,0,1-1.36-2.92c-.23-7.53-.85-15.08.37-22.58,1.79-2.94,4.78-2.14,7.37-2.14,24.79-.07,49.59,0,74.38-.05,20.48,0,41,.05,61.43,0,31.41-.09,58.7-11.11,81.16-32.72,20.59-19.83,32.63-44.31,35.55-73.06,3.14-31-4.36-59.14-22.87-84-20.86-28-49.11-44.38-83.88-47.33-49.3-4.19-88.05,14.9-114.68,56.77-12.51,19.67-17.57,41.75-16,65.1,1.33,19.33,25.91,31.52,43.1,21.6,10.38-6,15.26-15.24,15.52-26.92.64-28.84,21.12-53.54,49.73-58.13,27.64-4.44,50.52,6.44,64.43,30.67,12.9,22.46,9.19,51.67-8.58,70.41-11.47,12.08-25.73,18.84-42.67,18.86q-67.92.07-135.82,0c-2.65,0-5.5.67-7.8-1.43-1.41-2.71-.91-5.64-.91-8.48q0-175.07,0-350.13c0-9.16,0-9.21-8.36-5.82-57.5,23.37-115.7,44.9-174.05,66C311,366.6,244.15,390.52,178.34,417.26c-8,3.23-8,3.18-8,11.81V906.3c0,8,0,8,7.41,5,53.85-22.12,107.61-44.44,161.49-66.49,1.78-.73,3.46-1.68,5.22-2.42,2.44-.81,3,1.07,3.67,2.65q7,16.66,24.85,19.69c2.52.71,5.1.43,7.64.43q135.3,0,270.59.05c2.74,0,7.28-1.25,7.78,1.49.59,3.25-4.14,3.54-6.74,4.59q-96,38.9-192.19,77.51-90.78,36.56-181.54,73.14T97,1095.1Q75,1104,53,1112.84A22.22,22.22,0,0,1,46.13,1114.89Z"/><path class="cls-3" d="M1135.6,1018.89c5.84,2.56,11.66,5.15,17.52,7.68,5.56,2.4,11.15,4.73,16.72,7.1,8.22,3.49,16.44,6.95,24.63,10.49,8.35,3.6,16.65,7.29,25,10.92q11.41,5,22.84,9.84c5.57,2.39,11.16,4.7,16.74,7.07q12.32,5.23,24.62,10.51c7.47,3.2,14.93,6.44,22.4,9.65l26.79,11.53c7.17,3.09,14.36,6.15,21.51,9.31,1.2.53,2.94.7,3,2.65q-39.65,25.71-80.68,49.14c-16.67,9.49-33.56,18.6-50.56,27.49-16.29,8.52-32.79,16.61-49.42,24.44Q1147.14,1230.6,1117,1243q-46.77,19.32-95,34.65-43.59,13.92-88.21,24.16c-13.68,3.16-27.44,6-41.24,8.63-13.16,2.51-26.4,4.66-39.64,6.76-8,1.27-16.14,2.15-24.21,3.19-7,.89-13.93,1.8-20.91,2.58-4.61.52-9.23.81-13.85,1.22-5.4.49-10.81,1-16.21,1.52-.48,0-1,.12-1.44.15-7.66.41-15.33.7-23,1.24-13.89,1-27.81.69-41.71,1.21-15,.55-30.05-.34-45.07-.49-9.73-.09-19.48-.62-29.2-1.52-6.2-.57-12.44-.74-18.65-1.23-5.57-.44-11.12-1.09-16.69-1.61-3.65-.35-7.31-.61-11-1.1-8.86-1.18-17.79-1.9-26.63-3.18-15-2.18-30-4.47-44.91-7.19q-32.5-5.94-64.62-13.75-32.81-8-65.07-18c-35.61-11-70.54-23.78-105-38-18-7.42-35.84-15.35-53.51-23.6-18.11-8.47-36-17.37-53.74-26.56-18.6-9.63-36.93-19.75-55.08-30.2q-36.18-20.82-71.22-43.48c-1.74-1.13-3.43-2.34-5.14-3.52,2.62-2.55,6.21-3.18,9.41-4.5,11.79-4.85,23.7-9.43,35.54-14.18q29.53-11.84,59-23.75c17.45-7,34.87-14.18,52.32-21.22,22.19-8.93,44.41-17.78,66.6-26.71,15.54-6.25,31-12.61,46.56-18.87q31.5-12.69,63-25.33c15.68-6.31,31.33-12.71,47-19,8.88-3.58,17.8-7,26.67-10.62,10.65-4.3,21.26-8.69,31.91-13,9.17-3.7,18.38-7.29,27.55-11,14-5.67,28.07-11.42,42.12-17.08q31.29-12.61,62.59-25.15,20.41-8.22,40.8-16.52c.52-.22,1.25-.39,1.34-1.56H441.36q-31.92,0-63.83,0c-1.71,0-3.54.5-5.08-.75,2.39-2.36,5.44-1.45,8.2-1.46q107.25-.07,214.5,0c34.55,0,69.1-.14,103.65.07,15.77.09,30.46,4.38,42.83,14.48,14,11.41,21.4,26.22,22,44.48.46,13.55-2.17,26.14-10.31,37.14-24.69,33.38-66.68,34.44-93.79,8.38-11.43-11-17.12-24.36-17.77-40.11-.24-6.09-1.28-12.11-4.42-17.51-6.67-11.44-19.08-16.84-31.44-13.73-13.06,3.3-22.8,15-22.72,28.64.24,40.07,16.1,72.38,48.8,96.08,18.72,13.56,39.65,21.6,62.63,23.22,30.11,2.12,57.35-6.52,81.09-25.08C801,1000.44,816.51,974.76,821,942.7c1.84-13.27,1-26.42-1.21-39.55-.36-2.18-1.27-4.34-.43-6.6,1.93-2.07,3.86-.48,5.66.17,14.76,5.36,29.4,11.07,44.1,16.61q68.28,26.88,136.65,53.55c41.37,16.24,82.82,32.29,124.15,48.65C1132,1016.35,1134.13,1017,1135.6,1018.89Z"/><path class="cls-4" d="M561.68,702.3l-.13,25.89c-2.43,2.25-5.46,1.47-8.24,1.47q-82.54.08-165.08,0c-7.62,0-15.05.95-21.56,5.33-10.55,7.09-14.6,17.26-12.44,29.51,2.07,11.77,9.5,19.21,21,22.61a72,72,0,0,0,8,1.51c2.33.79,4.74.63,7.13.63,25.28,0,50.55,0,75.82,0,2.44,0,6.18-1,6.78,1.72.51,2.28-3.29,2.88-5.4,3.84-6.7,3.05-13.64,5.52-20.38,8.47a26.06,26.06,0,0,1-10.73,2.08c-18.24-.07-36.47,0-54.71,0a22.54,22.54,0,0,0-6.19.37c-9.81,1.45-18.39,5-24,13.77a27.34,27.34,0,0,0-4.67,15.28c0,2.48.62,5.11-1,7.4-1,2.12-3.13,2.65-5,3.46-3.5,1.53-7.09,2.86-10.63,4.32-7.07,2.91-14.13,5.87-21.2,8.78-9.29,3.82-18.6,7.59-27.89,11.41-6.78,2.78-13.54,5.63-20.32,8.4-8.41,3.45-16.85,6.82-25.25,10.28-8,3.28-15.88,6.66-23.84,9.94-12.23,5-24.49,10-36.73,15-1,.43-2,1-3,1.44-2.53,1.13-2.9.87-3-2.1,0-.8,0-1.6,0-2.39V424.9c0-.32,0-.64,0-1,.07-4.24-.82-4.1,4.34-6.22q19-7.79,38.19-15.26c11.43-4.46,22.95-8.68,34.41-13.07q20.55-7.87,41.21-15.41,19.53-7.16,39.07-14.27c15.14-5.5,30.25-11,45.42-16.44,10.51-3.75,20.95-7.69,31.46-11.43,14.87-5.29,29.65-10.8,44.42-16.35,13-4.87,25.87-10,38.85-14.88,19.57-7.31,38.95-15.07,58.3-22.93,4.57-1.86,9.18-3.65,13.77-5.47a13.57,13.57,0,0,1,1.35-.48,1.48,1.48,0,0,1,1.73,1.22c.09,1.43.13,2.87.13,4.31V636.05c0,1.6,0,3.2-.07,4.8-2.4,2.29-5.43,1.55-8.22,1.55q-85.67.08-171.34,0a53.07,53.07,0,0,0-11.92,1c-14.76,3.34-24.75,15.71-23.75,29.5,1.09,15,11.91,25.56,27.62,26.85,2.24.18,4.48.11,6.72.11q78.47,0,156.94,0c6.9,0,13.69,1.35,20.58,1.13A4.47,4.47,0,0,1,561.68,702.3Z"/><path class="cls-4" d="M1135.6,1018.89c-5.5-2.1-11-4.16-16.51-6.3q-27.64-10.76-55.27-21.55c-12.77-5-25.5-10.09-38.28-15.08-18.26-7.15-36.55-14.23-54.82-21.37-12.77-5-25.51-10.09-38.28-15.08q-27.39-10.72-54.82-21.38c-3-1.16-5.87-2.49-8.8-3.74-1.65-1.84-1.56-4.12-1.56-6.35q0-55.53,0-111.08c0-6.75,1-7.65,7.88-7.66,20.45,0,40.89,0,61.33,0a31,31,0,0,0,6.67-.29c13.09-1.12,26.07-2.93,38.4-7.79,34.25-13.48,57.68-38.09,69.55-72.38,16.51-47.74,5.78-90.28-29.81-125.9-18.52-18.53-41.66-28.79-67.78-31.95q-43.07-5.24-79.81,17.85c-1.45.91-2.83,2.22-4.81,1.47,0-1.92-.1-3.84-.1-5.75V378.44c0-1.6,0-3.2.14-4.79a1,1,0,0,1,1.36-.93,32.07,32.07,0,0,1,3.2,1l44.2,16.91q20.77,7.92,41.57,15.78c9.55,3.59,19.15,7,28.71,10.58,6.58,2.43,13.13,4.93,19.7,7.39,3.88,1.45,7.75,2.92,11.65,4.34,9.88,3.61,19.78,7.15,29.64,10.8s19.68,7.43,29.54,11.1c7.17,2.68,14.38,5.23,21.55,7.9,9,3.33,17.9,6.73,26.85,10.09,2.24.84,4.49,1.64,6.72,2.49a3,3,0,0,1,2,2.95q0,1.68,0,3.36,0,268.58,0,537.16C1135.69,1016,1135.63,1017.45,1135.6,1018.89Z"/><path class="cls-5" d="M868.9,570.28c3.7-2.21,7.34-4.51,11.11-6.6a115.8,115.8,0,0,1,43-14c35.9-4.2,67.83,5.21,95.24,28.76,21.89,18.82,35.22,42.75,39.77,71.31,5.23,32.84-2.32,62.72-21.47,89.83a117.5,117.5,0,0,1-37.33,34.57,114.28,114.28,0,0,1-43.72,14.78c-3.66.45-7.32.66-11,1-14.85.58-29.72.11-44.58.24-6.55.06-13.11-.1-19.66,0-131.69,2.49-263.4.85-395.1.77-33.35,0-66.74-.36-100.11-.79a6.39,6.39,0,0,1-1.89-.26,65.08,65.08,0,0,1-7.58-1,30.43,30.43,0,0,1,2-59.67,70.75,70.75,0,0,1,11.45-.83q83.37,0,166.76,0c1.91,0,3.82-.1,5.74-.16,1.59.06,3.18.17,4.78.17H864.08c1.59,0,3.19-.12,4.78-.18,2.08-1.68,4.57-1.19,6.93-1.2,21.6,0,43.19,0,64.79,0,28.58,0,53.41-22.89,56.64-51.29,4.72-41.58-33.66-75.4-77.56-62.44-23.27,6.87-39.29,29.19-39.92,54.34a35.41,35.41,0,0,1-6.58,20.19c-1.07,1.5-2,3.39-4.35,3.3a34.55,34.55,0,0,1-14.25,7.53c-10.15,2.34-19-.34-26.74-7-8.2-7.11-11.31-16.45-10.6-27.09a131.76,131.76,0,0,1,4.48-27.36,120.14,120.14,0,0,1,26.95-48.61,115.36,115.36,0,0,1,18.1-16.38A27.15,27.15,0,0,0,868.9,570.28Z"/><path class="cls-5" d="M561.68,702.3c-7-.19-14.06-.52-21.09-.53q-78.47-.06-156.93,0c-5.12,0-10.25,0-15.25-1.33a47.39,47.39,0,0,1-6.37-2.08,27,27,0,0,1-16.18-19,29.85,29.85,0,0,1-.14-15.19c1.85-7,5.42-12.91,11.7-16.93a38.64,38.64,0,0,1,21.29-6.3q88.55.07,177.09.06c1.91,0,3.83-.1,5.74-.16,1.28.06,2.56.17,3.83.17q69.12,0,138.23,0a55.54,55.54,0,0,0,22-4.27c18.3-7.77,30-21.3,34.88-40.58a59.28,59.28,0,0,0-25.25-64A58.45,58.45,0,0,0,703,522.68c-17.12-.2-31.6,5.93-43.4,18.12a56.49,56.49,0,0,0-16.48,39.75,32,32,0,0,1-7.38,20.79,30.72,30.72,0,0,1-44.82,2.43,30.07,30.07,0,0,1-9.5-22.26A116.73,116.73,0,0,1,595.63,524a115.37,115.37,0,0,1,44.69-45.71,123.6,123.6,0,0,1,44.57-15.48,115.2,115.2,0,0,1,28.21-.59,122.4,122.4,0,0,1,33.42,8.07q39.18,15.86,60.36,52.47A119.94,119.94,0,0,1,822,595.18a116.35,116.35,0,0,1-11.75,40.75c-16.63,32.84-42.92,53.87-78.52,63.16a111.42,111.42,0,0,1-28.5,3.36q-52.79-.18-105.59-.2c-10.88,0-21.76-.09-32.64-.12C563.91,702.13,562.79,702.24,561.68,702.3Z"/><path class="cls-5" d="M345.83,842.24c-.49-4.29-.8-8.6.14-12.86a31.07,31.07,0,0,1,26.52-24.25l1.9-.24a5.53,5.53,0,0,1,2.35-.33c6.74-.13,6.74-.13,7.73,6.61.11.63.89-.16.31.11-.19.09-.31,0-.35-.32-.95-5.85-.5-6.48,5.3-6.38,36,.64,71.91-1.24,107.87-1.07,63.49.3,127,.16,190.48,0,11.18,0,22.32-.37,33.42,1.53A126.5,126.5,0,0,1,788,838.13c15.42,14.49,25.67,32.54,31.7,52.88.5,1.67,1,3.39.2,5.14.34,2,.61,4.09,1,6.11a98.35,98.35,0,0,1,2,16.6c.08,3.33.9,6.63.69,10-.92,15-3.3,29.73-9.28,43.73a121.82,121.82,0,0,1-24.85,37.22,124.91,124.91,0,0,1-39.58,27.33,129,129,0,0,1-25.59,7.79,107.51,107.51,0,0,1-29.56,1.75,112.67,112.67,0,0,1-24-4.3,129.4,129.4,0,0,1-47.42-25.31,113.27,113.27,0,0,1-35-50.58A114.57,114.57,0,0,1,583,944.72a98.07,98.07,0,0,1-1.17-20.05A32.85,32.85,0,0,1,585.91,911c4.57-8.41,11.7-13.41,21-15.28,10.83-2.2,23.61,2,29.91,11.69A36.05,36.05,0,0,1,642.41,922a76.82,76.82,0,0,1,.83,8.55,50.8,50.8,0,0,0,3.73,17.2c5.71,14.32,15.73,24.55,29.54,31.29a64.85,64.85,0,0,0,18.59,6.07,52.46,52.46,0,0,0,16.26,0A59.31,59.31,0,0,0,738.06,974c11.28-8.57,19.47-19.32,22.89-33.28a40.28,40.28,0,0,0,1.4-10.89c-.16-5.41.24-10.83-1-16.21a61.06,61.06,0,0,0-5.8-16.16c-7.47-13.65-18.7-22.86-33.37-27.92a70.21,70.21,0,0,0-23-3.9q-158.34-.11-316.69-.13c-3.35,0-6.71.11-10.06.17-10.35-1.33-18-6.72-23.38-15.51C347.56,847.65,347.07,844.8,345.83,842.24Z"/><path class="cls-4" d="M868.81,691.06c4.61-4.86,7.94-10.4,9-17.1a33.89,33.89,0,0,0,.48-5.22,58.32,58.32,0,0,1,2.49-16.53c7.17-23.32,22.65-37.78,46.77-42.08,17.82-3.19,34.38.54,48.72,11.93,13,10.31,20.39,23.83,22.32,40.38,3.36,28.77-15.47,57.21-45.54,64.38a49,49,0,0,1-11.37,1.53h-71c-.63,0-1.27-.11-1.9-.17Q868.83,709.63,868.81,691.06Z"/><path class="cls-2" d="M819.88,896.15c-.87-2.73-1.72-5.47-2.63-8.19-9.55-28.4-26.88-50.52-52.9-65.7a127.76,127.76,0,0,0-69.65-17.54c-1.92.07-3.84,0-5.76,0H450.49q-30.23,0-60.46.1c-5.63,0-5.24-.36-5.3,5.12a10.81,10.81,0,0,1-.39,3.43c-.38-2-.79-4-1.13-6.06-.4-2.42-.49-2.53-3.07-2.52-1.92,0-3.83,0-5.75.07.87-.92,2-.86,3.13-.87q6,0,12,0c16.15,0,32.31,0,48.46,0a20.33,20.33,0,0,0,8.33-1.81c4.53-2,9.11-3.83,13.67-5.73l12.87-5.39a8.79,8.79,0,0,0-4-.47q-40.29,0-80.6,0c-1.7,0-3.53.57-5.08-.69,1.6-.06,3.19-.19,4.78-.19q41,0,82.05,0l387.21.1q41,0,82-.1c1.75,0,3.5.13,5.25.2-1.22,1.11-2.73.69-4.12.69-9.1,0-18.21,0-27.31,0H874.27c-1.27,0-2.55,0-3.82.12a1.6,1.6,0,0,0-1.53,1.55c-.1,1.11-.12,2.23-.12,3.35q0,59.39,0,118.76-11.13-4.11-22.25-8.25c-6.38-2.38-12.74-4.81-19.12-7.21C824.94,898,822.41,897.08,819.88,896.15Z"/></svg>