<svg id="Layer_1" data-name="Layer 1" xmlns="http://www.w3.org/2000/svg" viewBox="0 0 1463.04 1463.04"><defs><style>.cls-1{fill:#fff;}.cls-2{fill:#d7c7ae;}.cls-3{fill:#358576;}.cls-4{fill:#4f4f4f;}.cls-5{fill:#2c5148;}</style></defs><path class="cls-1" d="M1351,1401.61a9.76,9.76,0,0,1-.13-1.44c-.75-7.63-1.47-15.27-2.25-22.9-1.12-11.13-2.3-22.25-3.42-33.39s-2.17-22.27-3.27-33.4q-1.79-17.89-3.61-35.77-1.11-11-2.2-22-1.74-17.17-3.48-34.34c-.77-7.64-1.49-15.27-2.26-22.91-1.14-11.29-2.32-22.57-3.46-33.86-1.1-11-2.14-22-3.24-32.93-1.16-11.6-2.37-23.21-3.53-34.82q-1.6-16-3.17-32-1.77-17.65-3.57-35.3c-1.08-10.66-2.12-21.31-3.2-32q-1.73-17.17-3.48-34.34c-1.08-10.81-2.13-21.63-3.22-32.45q-1.74-17.4-3.52-34.82-1.6-16-3.17-32-1.77-17.65-3.57-35.3c-.73-7.32-1.44-14.63-2.18-21.95q-1.77-17.65-3.57-35.3-1.61-16-3.19-32-1.73-17.18-3.48-34.35c-.77-7.63-1.49-15.27-2.26-22.9-1.15-11.45-2.34-22.89-3.49-34.34-1.08-10.82-2.13-21.63-3.21-32.45q-1.77-17.65-3.57-35.3c-.75-7.47-1.48-15-2.24-22.42-1.13-11.13-2.29-22.26-3.4-33.39-1.1-11-2.14-22-3.24-32.92-1.12-11.13-2.31-22.26-3.43-33.39s-2.16-22.27-3.27-33.4c-1.2-12.09-2.46-24.17-3.65-36.25-1-10.34-2-20.68-4.78-30.73a15.56,15.56,0,0,0-2.74-6,48.2,48.2,0,0,1-3.08-4.27,16.81,16.81,0,0,0-4.36-4.38c-6.85-4.95-6.83-5-15-6.91-1.09-.26-2.2-.45-3.27-.74a37.35,37.35,0,0,0-9.94-1.23q-74.36.06-148.7,0c-1.28,0-2.56,0-3.84,0-2.66-.06-2.65-.07-2.88-2.58-.82-9.07-1.93-18.1-3.44-27.1-1.85-11-4.58-21.88-7.1-32.77a306.48,306.48,0,0,0-33.9-85.64c-8.69-15-18.77-29-29.27-42.67A304.45,304.45,0,0,0,940,100.7c-12-10.91-24.91-20.53-38.11-29.84A307.42,307.42,0,0,0,819.66,29.5c-12.31-4-24.9-6.93-37.46-10a319,319,0,0,0-69.27-8.91c-8.64-.16-17.26.2-25.88.76a273,273,0,0,0-35.16,4.47c-9.55,1.89-19,4.09-28.53,6.29A307.93,307.93,0,0,0,539,55.25c-16,9.19-30.9,19.88-45.45,31.12A302.74,302.74,0,0,0,449.87,128,414.63,414.63,0,0,0,423,163.52a305,305,0,0,0-36.89,72.35c-4.81,13.57-8.28,27.51-11.59,41.5-3.86,16.35-7,32.81-8.26,49.59-.37,4.89-.33,4.2-4.87,4.25-1,0-1.92,0-2.87,0H213.12a24,24,0,0,0-6.2.4c-4.32,1.11-8.68,2.11-13,3.07a8.48,8.48,0,0,0-3.05,1.27c-4.88,3.37-9.76,6.71-12.67,12.13a8.64,8.64,0,0,1-.84,1.17,11.92,11.92,0,0,0-2,4.28,150.1,150.1,0,0,0-4.66,27.35c-.59,7.33-1.43,14.64-2.18,21.95q-1.75,17.18-3.54,34.34c-1.08,10.49-2.12,21-3.2,31.48q-1.74,16.93-3.5,33.86c-1.09,10.65-2.14,21.31-3.23,32-1.14,11.13-2.32,22.25-3.45,33.38-1.09,10.65-2.13,21.31-3.22,32q-1.77,17.41-3.59,34.82-1.12,11-2.23,21.94-1.72,16.7-3.45,33.38c-.78,7.63-1.52,15.27-2.3,22.9q-1.72,16.7-3.45,33.38c-.78,7.64-1.53,15.27-2.31,22.9-1.14,11.13-2.31,22.26-3.44,33.39-1.09,10.65-2.14,21.3-3.23,32q-1.75,17.16-3.54,34.33c-.75,7.32-1.46,14.63-2.21,21.95q-1.77,17.16-3.54,34.34c-1.08,10.49-2.12,21-3.19,31.48-1.13,11-2.31,21.93-3.43,32.9-1.1,10.81-2.15,21.63-3.25,32.44-1.19,11.77-2.42,23.53-3.62,35.29-.74,7.16-1.46,14.31-2.2,21.47q-1.71,16.69-3.45,33.38c-1.09,10.65-2.13,21.31-3.22,32q-1.77,17.42-3.58,34.82c-.73,7.15-1.43,14.31-2.17,21.47-1.18,11.6-2.4,23.2-3.58,34.81-1.06,10.33-2.09,20.67-3.15,31-1.14,11-2.32,21.94-3.44,32.91-1.1,10.81-2.13,21.63-3.24,32.44s-2.28,21.61-3.41,32.42c-1.24,11.92-2.39,23.85-3.7,35.77-1.23,11.27-1.3,11.27,1.4,22.66.11.46.21.93.28,1.41a15.64,15.64,0,0,0,3.54,7.72c1.73,2.08,2.87,4.67,5,6.38,4.76,3.79,9.62,7.43,16,8a9.05,9.05,0,0,1,1.87.42,43.51,43.51,0,0,0,13.25,1.61q300.27-.06,600.56,0h600.57c1.76,0,3.52.05,5.28,0a23,23,0,0,0,3.79-.43c3.74-.82,7.45-1.76,11.19-2.61a12.79,12.79,0,0,0,5.16-2.4c1.63-1.28,3.39-2.4,5-3.67a15,15,0,0,0,2.8-2.58c1.77-2.26,3.43-4.62,5-7a9.5,9.5,0,0,0,1.4-3C1350.6,1418.06,1353.11,1410.06,1351,1401.61ZM900.26,331.21H516.14c-5.87,0-5.23.66-4.69-5.08a142,142,0,0,1,8.7-36.71A286.13,286.13,0,0,1,532.75,261c10.77-21.24,25.76-39.12,43.16-55.21,19.56-18.09,42.47-30.4,67.14-39.78,3.73-1.41,7.55-2.56,11.32-3.87,7.13-2.48,14.54-3.66,22-4.7A238.35,238.35,0,0,1,718,155.46a207.9,207.9,0,0,1,35.18,4.14c8.13,1.7,15.94,4.61,23.68,7.62A268.43,268.43,0,0,1,802.48,179c24.45,12.59,44.26,30.68,61.68,51.64,9.87,11.89,17.27,25.3,24,39.14a242.71,242.71,0,0,1,11.72,29.84A130.24,130.24,0,0,1,904.67,323c.34,2.52.59,5,1,8.2Z"/><path class="cls-2" d="M1015.22,340.59c1,1.25.68,2.74.7,4.15,0,5.76,0,11.51,0,17.27,0,.64,0,1.28,0,1.92.08,3.21.24,3.36,3.67,3.44,1.12,0,2.24,0,3.36,0h181.79c1.6,0,3.2,0,4.8.07,1.41.08,1.86.62,2,2.13a2.49,2.49,0,0,1,0,.47c-.34,4.82.62,9.58,1.28,14.27.62,4.42.51,8.89,1.39,13.3s.82,9.19,1.27,13.79c.47,4.75,1.05,9.48,1.59,14.23a6.16,6.16,0,0,1,.16.94c-.25,4.65.94,9.19,1.19,13.81s1,9.48,1.59,14.22a10.06,10.06,0,0,1,.15,1.43c-.28,4.82.75,9.55,1.28,14.27.51,4.42.19,8.95,1.47,13.28a7.46,7.46,0,0,1,.15,1.43c.37,4.77.31,9.61,1.21,14.27s.46,9.22,1.53,13.78c.73,3.06.65,6.33.89,9.49.34,4.61,1.1,9.17,1.33,13.8s1,9.48,1.6,14.22a8.54,8.54,0,0,1,.14,1.42c-.27,4.82.77,9.55,1.28,14.28.48,4.42.22,8.94,1.47,13.28a8.6,8.6,0,0,1,.17,1.91c.24,5.89,1,11.72,1.77,17.57.57,4.58.74,9.21,1.19,13.8.47,4.75,1.06,9.49,1.59,14.23.08.63.21,1.27.23,1.9.2,5.9,1.34,11.71,1.74,17.57.33,4.78.87,9.54,1.39,14.27s.27,9.26,1.5,13.76a8,8,0,0,1,.17,1.9c.2,5.9,1.27,11.72,1.71,17.58.33,4.45,1,8.86,1.28,13.32.31,4.91,1,9.81,1.56,14.71,0,.47.17.94.2,1.42.38,4.76.38,9.59,1.22,14.27s.63,9.2,1.49,13.77c.83,4.36.82,8.88,1.25,13.31.48,4.91,1,9.81,1.59,14.71a8.82,8.82,0,0,1,.2,1.42c-.24,4.82.72,9.56,1.29,14.28s.42,9.22,1.45,13.76c.74,3.25.62,6.66.92,10,.4,4.6,1.11,9.17,1.34,13.8s1.05,9.48,1.6,14.21a8.79,8.79,0,0,1,.15,1.43c-.28,4.82.77,9.55,1.28,14.28.47,4.42.23,8.94,1.47,13.28a8,8,0,0,1,.16,1.91c.2,5.89,1,11.72,1.78,17.57.54,4.26.73,8.57,1.16,12.84.48,4.75,1,9.49,1.58,14.23a10.14,10.14,0,0,1,.21,1.42c-.25,4.81.71,9.56,1.28,14.27s.42,9.22,1.46,13.77c.73,3.24.62,6.66.91,10,.4,4.6,1.11,9.17,1.35,13.79s1,9.49,1.59,14.22a8.79,8.79,0,0,1,.15,1.43c-.28,4.82.76,9.55,1.28,14.28.49,4.41.22,8.94,1.47,13.28a8,8,0,0,1,.17,1.9c.2,5.9,1,11.73,1.77,17.58.56,4.58.74,9.21,1.19,13.8.46,4.75,1.05,9.49,1.59,14.23,0,.47.17.94.2,1.42.38,4.76.37,9.6,1.21,14.28s.63,9.2,1.5,13.77c.83,4.35.81,8.87,1.25,13.31.48,4.9,1.05,9.8,1.58,14.71a10,10,0,0,1,.21,1.41c-.25,4.82.71,9.56,1.29,14.28s.53,9.2,1.43,13.77c.81,4.2.8,8.55,1.24,12.83.5,4.9,1.1,9.8,1.66,14.7a7.62,7.62,0,0,1,.14,1.43c-.27,4.81.76,9.55,1.29,14.27.49,4.42.2,8.95,1.46,13.28a8,8,0,0,1,.17,1.91c.25,5.89,1,11.72,1.78,17.57.57,4.58.73,9.21,1.19,13.81s1,9.48,1.59,14.22c.06.48.16,1,.2,1.42.37,4.77.41,9.59,1.2,14.28s.68,9.2,1.51,13.77c.8,4.36.8,8.87,1.24,13.31.48,4.91,1.06,9.81,1.59,14.71a8.69,8.69,0,0,1,.21,1.42c-.25,4.81.69,9.56,1.28,14.27s.54,9.2,1.43,13.77c.84,4.36.82,8.88,1.25,13.31.48,4.91,1,9.81,1.58,14.71a8.86,8.86,0,0,1,.21,1.42c-.25,4.82.77,9.55,1.28,14.28.49,4.57.5,9.21,1.46,13.76a58.3,58.3,0,0,1,.61,8.59,1.36,1.36,0,0,1-1.08,1.4,7.88,7.88,0,0,1-1.88.24c-1.44,0-2.88,0-4.32,0H109.25c-1.92,0-3.84,0-5.76-.07a1.75,1.75,0,0,1-1.81-1.82,19.64,19.64,0,0,1,0-2.87c.35-4.13.55-8.28,1.22-12.36.37-2.22.5-4.42.71-6.64q.69-7.12,1.63-14.22c.42-3.16-.13-6.42,1.06-9.49-.23-4.66.94-9.19,1.19-13.81s1-9.48,1.59-14.22c.07-.64.17-1.27.19-1.91.17-5.74,1.34-11.39,1.72-17.09.31-4.62,1.05-9.18,1.3-13.8s1-9.48,1.59-14.22c.08-.64.17-1.27.19-1.91.17-5.74,1.34-11.39,1.72-17.09.31-4.62,1-9.18,1.3-13.8s1-9.49,1.61-14.22c.4-3.16-.11-6.42,1-9.49-.28-4.66,1-9.19,1.18-13.81s1-9.48,1.61-14.22c.06-.48.13-1,.15-1.43.22-5.9,1.32-11.72,1.74-17.57.33-4.62.86-9.22,1.36-13.79.52-4.74.56-9.53,1.48-14.25a72.45,72.45,0,0,0,1-10c.28-4.78.9-9.54,1.42-14.27.51-4.57.41-9.22,1.49-13.76a57.86,57.86,0,0,0,.84-8.54c.37-4.45,1.06-8.86,1.34-13.32.3-4.91,1-9.8,1.57-14.7.07-.64.21-1.27.23-1.91.18-5.9,1.34-11.71,1.75-17.57.33-4.77.86-9.54,1.39-14.26s.62-9.2,1.42-13.77c.66-3.74.64-7.6,1.18-11.4.77-5.51,1.27-11.06,1.82-16.6.43-4.44.71-8.9,1.16-13.33.46-4.59,1-9.17,1.57-13.75a10.14,10.14,0,0,0,.21-1.42c-.24-4.81.71-9.56,1.29-14.27s.59-9.2,1.41-13.78c.66-3.72.69-7.59,1.19-11.39.73-5.52,1.27-11.06,1.81-16.61.45-4.59.87-9.2,1.12-13.81.19-3.34.69-6.68,1.18-10,.65-4.42.24-8.95,1.48-13.29a10.39,10.39,0,0,0,.19-2.38c.24-5.73,1.27-11.39,1.7-17.09.32-4.3,1-8.55,1.27-12.84.33-4.76,1-9.49,1.56-14.23,0-.48.17-1,.21-1.42.37-4.77.36-9.6,1.22-14.28s.6-9.2,1.5-13.77c.83-4.19.81-8.55,1.24-12.83.47-4.75,1-9.49,1.57-14.23.07-.63.23-1.26.25-1.89.23-5.9,1.34-11.72,1.75-17.57.33-4.78.89-9.54,1.39-14.27s.43-9.23,1.48-13.76c.67-2.94.59-6,.88-9,.42-4.43,1.06-8.85,1.34-13.31.32-4.91,1-9.8,1.57-14.71.07-.63.21-1.26.23-1.89.19-5.91,1.35-11.72,1.75-17.58.33-4.77.87-9.53,1.4-14.26.51-4.58.56-9.21,1.43-13.77.81-4.2.82-8.56,1.26-12.83.5-4.91,1.1-9.8,1.66-14.7a8.79,8.79,0,0,0,.15-1.43c-.27-4.81.82-9.53,1.28-14.28.41-4.09.26-8.3,1.46-12.31a6.74,6.74,0,0,0,.15-1.43c.37-4.76.34-9.6,1.22-14.27.84-4.42.63-8.88,1.44-13.3.68-3.72.69-7.6,1.19-11.39.74-5.52,1.5-11.06,1.75-16.61.2-4.47,1.05-8.86,1.25-13.32.18-4,.55-8,1.11-11.89.81-5.68,1.25-11.39,1.78-17.09.42-4.59,1.08-9.16,1.62-13.74a17.62,17.62,0,0,0,.18-1.91c.16-5.74,1.35-11.39,1.72-17.09.3-4.62,1.06-9.18,1.3-13.8s1-9.49,1.62-14.22c.38-3.16.64-6.36.88-9.51.36-4.6,1.13-9.17,1.34-13.8s1-9.17,1.5-13.75c0-.31.17-.62.18-.94.23-6.69,1.27-13.31,2-20,.29-2.68,0-5.41.92-8.06.64-1.95.67-2.15,2.48-2.22,1.59-.07,3.19,0,4.79,0l185.63,0c1.84,1.77,1.57,4.1,1.57,6.29q.08,45.64,0,91.3a14.3,14.3,0,0,1-.9,6.08c-.81,1.66-2.37,2.5-3.81,3.51-18.47,12.78-29.37,30.05-32.18,52.58-4.49,36,20.36,72.76,59.85,79.41C464,613,501,587.76,508.33,549.78c5.76-29.84-4.3-53.94-27.67-72.89-2.78-2.25-6.67-3.39-7.89-7.36a28.88,28.88,0,0,1-.4-6.22q0-44.1,0-88.2c0-2.68-.41-5.47,1.28-7.9,2.88-2,6.17-1.32,9.31-1.32q144.56-.06,289.1,0h160.6c7.74,0,7.85-.15,7.88-7.66,0-3,0-6.08,0-9.11,0-1.91,0-3.87,1.28-5.49,1.64-.62,1.88.72,2.23,1.71a16.94,16.94,0,0,1,.51,5.68q0,56.2,0,112.4c0,2.84.31,5.79-1.61,8.26-8,5.86-15.84,11.73-21.92,19.82-18.85,25.06-19.64,61.83.07,87.14,13.05,16.77,30.12,26.8,51.71,28.47,26.13,2,47.42-7.52,63.38-27.82,25.93-33,18-81.56-17.45-104.75-2-1.3-4.3-2.3-4.89-5a25.72,25.72,0,0,1-.4-5.74q0-57.76,0-115.52C1013.52,345.63,1012.9,342.75,1015.22,340.59Z"/><path class="cls-3" d="M1015.22,340.59c-.06,1.59-.17,3.18-.16,4.77q0,62.06.1,124.12c0,.48,0,1-.07,1.44,1.35,2.14,1.34,4.54,1.34,6.95,0,17.09.08,34.18,0,51.28-.12,19.45-14.58,35-35.19,36.76-19,1.63-34.49-11.79-38.79-28.45a36.72,36.72,0,0,1-.75-9.05c-.17-18.85.36-37.7-.3-56.55a4.14,4.14,0,0,0,1.48-3.35c-.12-1.26,0-2.54,0-3.82q0-45.65,0-91.29c0-8.12.1-16.24.09-24.37,0-1.88.31-3.83-.64-5.62-2.83-4.46-1.68-9.61-2.19-14.38a231.34,231.34,0,0,0-62.7-135.48q-56.22-58.86-136.6-70.67a202.67,202.67,0,0,0-32.43-2.42c-26.8.34-53.13,4.45-78.51,13.6a230.82,230.82,0,0,0-91.06,59.55c-29.11,30.92-48.64,67.14-58,108.7a235.12,235.12,0,0,0-5.72,57.57c.07,2.5.62,5.15-1.07,7.44-.06,1.11-.19,2.22-.19,3.33q0,50.24,0,100.46c1.35,1.77,1.41,3.84,1.41,5.94,0,17.27.14,34.54,0,51.8-.2,20.31-15.42,36.15-36.56,37-18,.78-34.63-10.94-38.3-31.4a51,51,0,0,1-.81-9.06q0-24,0-48a28.69,28.69,0,0,1,.52-5.71,8.92,8.92,0,0,0,.95-2.13,21.87,21.87,0,0,0,.07-3.34q0-47.32,0-94.66c0-1.43-.11-2.86-.18-4.29.05-2.39.18-4.79.13-7.18a300.13,300.13,0,0,1,1.1-33.53c3.06-33.36,10.93-65.53,24.67-96.12Q474.2,125,578.76,75.29A297.47,297.47,0,0,1,659.6,50.56,307.91,307.91,0,0,1,726,47.21a306.18,306.18,0,0,1,202.06,92.07A304.73,304.73,0,0,1,1007,281.82a273.93,273.93,0,0,1,7.25,45.38Q1014.73,333.89,1015.22,340.59Z"/><path class="cls-4" d="M687.86,999H474.91c-2.88,0-5.76-.07-8.63-.09a23.75,23.75,0,0,1-3.55-47.14,67.23,67.23,0,0,1,11-.81q211,0,422.06,0c2.39,0,4.79,0,7.19,0,17.69.13,38.26-12.3,43.8-35.12,6.36-26.19-9.71-51.18-35-56.69-17.26-3.75-32.69.32-45.19,13.32a43.91,43.91,0,0,0-11.68,23.71,53.45,53.45,0,0,0-1,9c0,8.54-5.35,18.78-17.74,22.43-11.87,3.5-26.2-4.41-29.29-18-.87-3.8-.58-7.57-.29-11.42a88.76,88.76,0,0,1,3.06-17.91c7.39-25.91,23-45.25,46.52-58.33a91.06,91.06,0,0,1,36.92-11,94.25,94.25,0,0,1,102.1,86.3A88.48,88.48,0,0,1,988.89,939c-11.49,27.54-30.8,47.07-59.73,56.18a77.29,77.29,0,0,1-23.08,3.77c-2.72,0-5.44.06-8.16.06Z"/><path class="cls-4" d="M588.53,1058.29q-62.82,0-125.64,0a24.88,24.88,0,0,1-13.31-3.24c-7.57-4.57-11.85-11.42-11.76-20.15.1-9.86,4.92-17.33,13.94-21.79,4.42-2.19,9.24-2.33,14-2.7a1.37,1.37,0,0,1,1.49.94c.3.86.6,1,1.11.13a2.67,2.67,0,0,1,2.51-1.07h4.32q115.34,0,230.66,0c5.91,0,11.8,0,17.71.55a99.18,99.18,0,0,1,27.83,6.72c12.73,5.17,24.23,12.28,33.69,22.36a92.43,92.43,0,0,1,24.81,51.36,105.65,105.65,0,0,1,.69,23.43,86.05,86.05,0,0,1-12.93,39.21c-15.14,24.2-36.85,38.88-64.87,44.35-17.33,3.38-34,1-50.27-5.31a96,96,0,0,1-35.17-23.56,89,89,0,0,1-23.93-49.69,93,93,0,0,1-.87-14.33c.16-11.85,7.69-21.08,19.23-23.71,8.32-1.9,20.85,1.15,25.94,13.29a35.3,35.3,0,0,1,2.71,12.09c1,20,11.19,33.39,29.3,41.15a46.07,46.07,0,0,0,16.26,3.73,41.23,41.23,0,0,0,18.64-3.73c16.64-7.4,27-20,28.75-38.25,2.26-23.57-11.73-43.75-34.54-49.86a58.06,58.06,0,0,0-15.15-2Q651.11,1058.35,588.53,1058.29Z"/><path class="cls-4" d="M594.54,930.44q-63.56,0-127.11,0a49.34,49.34,0,0,1-13.73-1.82c-17.23-4.94-20.46-25.42-11.06-36.91a23,23,0,0,1,8.45-6.18,30.67,30.67,0,0,1,13-2.84q90.66.06,181.32,0c24,0,48,0,72,0A42.75,42.75,0,0,0,736,878.91c15.32-7.2,24.52-19.12,26.82-36,2.13-15.67-2.91-29-14.13-40-8.76-8.54-19.53-12.44-31.71-12.59a44.4,44.4,0,0,0-33.86,14.31,43.61,43.61,0,0,0-12.64,30.23c-.12,7.54-2.38,14.17-8.17,19.24-6.92,6.05-14.83,7.91-23.64,4.94-8.57-2.88-13.86-8.88-16-17.63a22.69,22.69,0,0,1-.46-8.55c.57-4.1.46-8.26,1.13-12.39a89.59,89.59,0,0,1,18.16-41.74c14.51-18.52,33.64-29.58,56.54-34.33a86.25,86.25,0,0,1,18.56-1.83A94.19,94.19,0,0,1,753,750.19a92.43,92.43,0,0,1,43.12,36.72,94.46,94.46,0,0,1,13.83,39.46,92.57,92.57,0,0,1-8.3,50.86,91.05,91.05,0,0,1-38.85,41.82,93.89,93.89,0,0,1-35.37,11.29,96.24,96.24,0,0,1-11,.36q-45.32,0-90.65-.13-15.6,0-31.18,0Z"/><path class="cls-5" d="M941.38,471.86c.77.3,1.51.7,1.56,1.61.09,1.43.09,2.87.09,4.31,0,17.27.06,34.54,0,51.8a32.29,32.29,0,0,0,10.07,23.95c2.27,2.25,4.47,4.56,7.3,6.16a32.32,32.32,0,0,0,13.49,4.44c1,.07,1.88.3,2.82.46a8.91,8.91,0,0,0,2.35.37c6-.71,11.94-1.64,17.34-4.72,10.06-5.73,16-14.36,18.36-25.56a24.47,24.47,0,0,0,.29-4.77q0-29.49.05-59c20.35,11.74,32.71,29.18,36.53,52.35,3.57,21.69-1.74,41.3-15.54,58.36a70.84,70.84,0,0,1-46.88,26.43c-32.41,4.4-61.58-12-75.79-39.31a74.28,74.28,0,0,1,8.72-80.55A64,64,0,0,1,941.38,471.86Z"/><path class="cls-5" d="M400.1,471.77c1.29,1.32.9,3,.9,4.55,0,7.68,0,15.35,0,23,0,8.15.14,16.31-.06,24.46a58.94,58.94,0,0,0,1.14,12.82,35,35,0,0,0,6,13,33.34,33.34,0,0,0,20.08,13.71c4.09,1,8.26,2.26,12.62,1,1.67-.49,3.47-.11,5.22-.55,10.81-2.78,19-9,24-18.93a34.21,34.21,0,0,0,3.92-15.63q-.06-29,0-58a73.3,73.3,0,0,1,37.16,69.16c-2.3,26.18-15,46.09-37.83,59.25a71.24,71.24,0,0,1-30,9A73.3,73.3,0,0,1,365,547.69c-4.15-24,2.46-45.24,19.06-63.2A59,59,0,0,1,400.1,471.77Z"/><path class="cls-1" d="M937,302.11A234.72,234.72,0,0,0,813.86,144.43a233.08,233.08,0,0,0-115.4-24.85,238.38,238.38,0,0,0-43.63,5.92A233.89,233.89,0,0,0,474.6,335.22c-.85,10.7-.75,21.39-.54,32.1,1.44,0,2.88.05,4.32.05H936.44c1.28,0,2.56,0,3.84-.06a1.73,1.73,0,0,0,1.75-1.86c.06-1.44.05-2.88.06-4.32l.21-17.73A201.48,201.48,0,0,0,937,302.11Zm-36.71,29.1H516.14c-5.87,0-5.23.66-4.69-5.08a142,142,0,0,1,8.7-36.71A286.13,286.13,0,0,1,532.75,261c10.77-21.24,25.76-39.12,43.16-55.21,19.56-18.09,42.47-30.4,67.14-39.78,3.73-1.41,7.55-2.56,11.32-3.87,7.13-2.48,14.54-3.66,22-4.7A238.35,238.35,0,0,1,718,155.46a207.9,207.9,0,0,1,35.18,4.14c8.13,1.7,15.94,4.61,23.68,7.62A268.43,268.43,0,0,1,802.48,179c24.45,12.59,44.26,30.68,61.68,51.64,9.87,11.89,17.27,25.3,24,39.14a242.71,242.71,0,0,1,11.72,29.84A130.24,130.24,0,0,1,904.67,323c.34,2.52.59,5,1,8.2Z"/></svg>