<svg id="Layer_1" data-name="Layer 1" xmlns="http://www.w3.org/2000/svg" viewBox="0 0 2653.5 2653.5"><defs><style>.cls-1{fill:#ecf0f3;}.cls-2{fill:#d0dcec;}.cls-3{fill:#ecb88f;}.cls-4{fill:#343c5c;}.cls-5{fill:#374379;}.cls-6{fill:#e4b758;}.cls-7{fill:#dfa330;}.cls-8{fill:#d59766;}.cls-9{fill:#fff;}.cls-10{fill:#202f56;}.cls-11{fill:#262d44;}.cls-12{fill:#966c4d;}.cls-13{fill:#404c81;}.cls-14{fill:#e19d5e;}.cls-15{fill:#d38544;}.cls-16{fill:#7c4f33;}</style></defs><path class="cls-1" d="M297.16,2136s-350.66-558.55-186-1060.1c126-383.76,342.47-412.86,534-316.88C742.8,808,881.38,792.81,1314.35,627.43,1645.09,501.1,2559.08,404.17,2382.94,1277c-85.24,422.37,259.41,437.73,83.8,859.93Z"/><path class="cls-2" d="M728,2131.28h82.4a13.21,13.21,0,0,0,13.21-13.19v-13.86h0l-39.38-95.66a83,83,0,0,0,31.58-130.3c-.43-.51-.87-1-1.31-1.52l-1.06-1.18c-.59-.63-1.19-1.26-1.79-1.87-.37-.38-.74-.75-1.12-1.11-.61-.6-1.23-1.2-1.86-1.78l-1.14-1c-.51-.45-1-.9-1.55-1.33s-1-.83-1.49-1.24-1.11-.88-1.68-1.31c-.35-.28-.71-.55-1.07-.82-.75-.56-1.52-1.1-2.29-1.63l-1.11-.75c-.79-.53-1.6-1-2.42-1.55l-1-.64c-.86-.51-1.72-1-2.6-1.49l-.89-.47c-.8-.43-1.61-.85-2.42-1.25l-.88-.42c-.92-.44-1.86-.86-2.8-1.27l-.86-.37c-1-.42-2-.81-3-1.19l-.87-.32c-1-.37-2.08-.73-3.14-1.06l-.75-.23c-1.11-.34-2.23-.66-3.37-1l-.41-.1c-1.12-.29-2.24-.55-3.38-.79l-.48-.1c-1.17-.24-2.36-.45-3.56-.63l-.66-.11c-1.18-.17-2.37-.33-3.57-.45l-.67-.07c-1.22-.12-2.45-.21-3.68-.28h-.51c-1.31-.06-2.62-.1-3.94-.1h0A82.58,82.58,0,0,0,721,1855l-11-26.68a71,71,0,0,0,28.6-112.15c-.37-.44-.74-.87-1.12-1.3s-.6-.67-.91-1c-.5-.55-1-1.08-1.53-1.61l-1-1-1.59-1.52-1-.88c-.43-.39-.87-.77-1.32-1.15a15,15,0,0,0-1.28-1l-1.43-1.13-.92-.7c-.64-.47-1.3-.94-2-1.39l-.94-.64c-.69-.46-1.38-.9-2.07-1.33l-.91-.54c-.73-.44-1.47-.87-2.22-1.28l-.76-.41c-.69-.36-1.38-.72-2.08-1.06-.25-.12-.49-.25-.74-.36-.79-.38-1.6-.74-2.41-1.09l-.73-.32c-.85-.35-1.71-.69-2.58-1l-.74-.28c-.89-.32-1.78-.62-2.69-.91l-.64-.19c-1-.29-1.91-.57-2.89-.82l-.34-.09c-1-.24-1.93-.46-2.9-.66l-.41-.09c-1-.21-2-.39-3-.55l-.56-.09c-1-.15-2-.28-3.06-.38l-.57-.06q-1.56-.15-3.15-.24h-.44c-1.11,0-2.24-.08-3.37-.08h0a70.68,70.68,0,0,0-28.48,6l-13.6-33a65,65,0,0,0,24.83-104.89l-.18-.19c-.7-.75-1.42-1.49-2.15-2.21l-.45-.42c-.66-.63-1.33-1.25-2-1.86l-.58-.5c-.66-.57-1.33-1.13-2-1.67l-.64-.5c-.69-.54-1.39-1-2.1-1.56l-.65-.46c-.75-.52-1.51-1-2.29-1.51l-.54-.34c-.92-.57-1.86-1.12-2.81-1.65l-.1-.06a65.67,65.67,0,0,0-6.21-3l-.77-.3c-.79-.32-1.58-.63-2.38-.91l-1.09-.37c-.71-.24-1.42-.47-2.14-.69l-1.24-.35q-1-.28-2.07-.54l-1.32-.3-2.07-.42c-.45-.08-.9-.17-1.36-.24-.71-.12-1.42-.21-2.14-.31-.44,0-.88-.12-1.33-.16-.78-.09-1.57-.15-2.37-.21l-1.14-.08c-1.18-.07-2.36-.1-3.56-.1h0a64.85,64.85,0,0,0-9.54.7h-.35a64.36,64.36,0,0,0-16.67,4.94l-12.75-31a54,54,0,0,0,17-85.69L597,1427c-.58-.62-1.18-1.24-1.79-1.84l-.37-.34c-.55-.53-1.11-1-1.68-1.55l-.48-.42c-.55-.47-1.11-.94-1.68-1.39l-.54-.42c-.57-.44-1.15-.87-1.75-1.29l-.53-.38c-.62-.43-1.26-.85-1.91-1.26l-.44-.28c-.77-.48-1.55-.94-2.34-1.37h-.09a52,52,0,0,0-5.16-2.48l-.63-.25c-.66-.27-1.32-.52-2-.76l-.9-.31c-.59-.19-1.18-.39-1.78-.57l-1-.29c-.57-.16-1.14-.31-1.72-.45l-1.1-.25c-.57-.12-1.15-.24-1.72-.34l-1.13-.21-1.78-.25-1.1-.14c-.66-.07-1.32-.12-2-.17l-1-.07c-1,0-2-.08-3-.08h0a53.16,53.16,0,0,0-7.24.49c-.42.06-.85.11-1.27.18a53.16,53.16,0,0,0-9.94,2.56l-11.28-27.4a47.15,47.15,0,0,0,17.22-75.8l-.13-.14c-.51-.55-1-1.08-1.57-1.61l-.32-.3q-.72-.69-1.47-1.35l-.42-.36c-.48-.42-1-.82-1.47-1.22l-.46-.36c-.5-.39-1-.77-1.53-1.13l-.46-.33c-.55-.38-1.11-.75-1.67-1.1l-.39-.25c-.67-.42-1.33-.82-2-1.2h-.07a48,48,0,0,0-4.52-2.17l-.54-.21c-.58-.23-1.15-.46-1.74-.67l-.78-.26-1.56-.5-.9-.25-1.5-.39-1-.23c-.5-.11-1-.21-1.51-.3l-1-.17c-.51-.09-1-.16-1.56-.23l-1-.12c-.57-.06-1.14-.1-1.72-.14l-.83-.07c-.85,0-1.71-.07-2.58-.07h0a46.81,46.81,0,0,0-13.76,2l-.26.07a44.32,44.32,0,0,0-4.47,1.65l-5.39-13.1h-103L378,1298.08l-1.7-.65-.78-.26-1.56-.5-.9-.25-1.5-.39-1-.23-1.5-.3-1-.17c-.51-.09-1-.16-1.56-.23l-1-.12c-.56-.06-1.14-.1-1.72-.14l-.83-.07c-.85,0-1.71-.07-2.58-.07h0a47.15,47.15,0,0,0-47.15,47.15h0c0,.87,0,1.74.07,2.59a3.38,3.38,0,0,0,.06.78,17.55,17.55,0,0,0,.15,1.78,7.24,7.24,0,0,0,.12.92c.07.53.14,1.07.23,1.6.05.32.11.63.17,1s.19,1,.3,1.54c.07.31.15.62.22.93.12.51.26,1,.4,1.53l.24.87c.16.54.34,1.07.52,1.59.08.25.16.51.25.76.21.6.44,1.19.68,1.78l.2.5c.65,1.54,1.37,3.06,2.17,4.53h0c.39.71.8,1.41,1.23,2.11.07.11.15.22.22.34.37.58.74,1.15,1.13,1.71.1.15.21.29.31.43.37.53.76,1,1.16,1.57l.34.43c.4.51.81,1,1.24,1.5l.33.39c.45.51.91,1,1.39,1.5l.27.29c.54.55,1.09,1.08,1.65,1.61l.1.09a47.23,47.23,0,0,0,13.62,8.82l-12.23,29.72c-.85-.4-1.71-.79-2.59-1.15l-.62-.25c-.66-.26-1.32-.52-2-.76l-.9-.3c-.59-.2-1.18-.39-1.78-.57l-1-.29c-.57-.16-1.14-.31-1.72-.45l-1.1-.26-1.72-.34-1.13-.2c-.59-.1-1.19-.18-1.78-.26l-1.1-.14c-.66-.07-1.31-.12-2-.16l-1-.08c-1,0-2-.08-2.95-.08h0a54,54,0,0,0-54,54q0,1.5.09,3a3.78,3.78,0,0,0,.07.89,18.37,18.37,0,0,0,.17,2,9.3,9.3,0,0,0,.13,1.06c.08.61.17,1.23.26,1.83.06.37.13.73.2,1.09.11.59.22,1.18.35,1.76.08.36.16.71.25,1.07.14.59.29,1.17.46,1.76.09.33.18.66.28,1,.18.61.38,1.22.58,1.83.1.28.19.57.29.85.25.69.51,1.38.79,2,.07.19.14.38.22.57a56.14,56.14,0,0,0,2.49,5.19h0c.45.82.93,1.63,1.42,2.42l.25.39c.42.67.85,1.32,1.3,2,.11.16.23.32.34.49.44.6.88,1.2,1.33,1.79l.39.49c.46.59.94,1.17,1.42,1.73l.39.44c.51.59,1,1.16,1.58,1.73l.32.32c.61.63,1.24,1.25,1.88,1.85l.11.1a54.2,54.2,0,0,0,19,11.37L277,1543.37l-.65-.27-.77-.3c-.78-.32-1.58-.63-2.38-.91l-1.08-.37c-.71-.24-1.43-.47-2.15-.69l-1.24-.35q-1-.29-2.07-.54l-1.32-.3-2.07-.42c-.45-.08-.9-.17-1.36-.24-.71-.12-1.42-.21-2.14-.31-.44,0-.88-.12-1.33-.16-.78-.09-1.57-.15-2.37-.21l-1.14-.08c-1.18-.07-2.36-.1-3.55-.1h0a64.62,64.62,0,0,0-9.53.7h-.36a65,65,0,0,0-55.08,64.23c0,1.2,0,2.39.1,3.57,0,.36.06.71.08,1.07.06.82.12,1.64.21,2.44,0,.43.11.86.16,1.28.1.74.2,1.47.32,2.2.07.44.15.87.23,1.31.13.71.27,1.42.42,2.12l.3,1.28c.17.71.36,1.41.55,2.11.11.41.22.81.34,1.2.22.74.46,1.47.7,2.2.12.34.23.69.35,1,.3.83.61,1.65.94,2.46l.27.69a68.74,68.74,0,0,0,3,6.24h0c.54,1,1.11,2,1.7,2.91l.3.47c.51.8,1,1.59,1.56,2.36l.42.6c.52.72,1,1.44,1.59,2.15l.48.6c.55.7,1.12,1.39,1.7,2.06l.47.54c.62.7,1.25,1.39,1.9,2.07l.38.4c.74.75,1.5,1.49,2.27,2.21l.13.13a65.34,65.34,0,0,0,20.25,12.73L214,1696.52l-.38-.16c-.85-.35-1.71-.69-2.57-1l-.74-.28c-.89-.32-1.79-.62-2.69-.91l-.64-.19c-1-.29-1.92-.57-2.89-.82l-.35-.09c-1-.24-1.92-.46-2.89-.66l-.41-.09c-1-.21-2-.39-3-.55l-.56-.09c-1-.15-2-.28-3.06-.38l-.57-.06c-1-.1-2.1-.18-3.16-.24h-.43c-1.12,0-2.24-.08-3.37-.08h0a71,71,0,0,0-63.61,39.25c9.48,32.93,19.71,64.56,30.3,94.61a73,73,0,0,0,6.89,3.21l-3.08,7.48c14.3,39.8,29.15,76.71,43.61,110.06a83.86,83.86,0,0,0,1.13-13.7c0-2.07-.11-4.11-.26-6.15l232.58-564.9h2.05L669.4,1928.05c0,1.27-.09,2.54-.09,3.82v.06c0,1.29,0,2.57.09,3.85v.56c.06,1.22.16,2.43.28,3.64a2.52,2.52,0,0,0,.07.72c.12,1.18.27,2.35.44,3.52l.12.72c.18,1.18.39,2.35.62,3.51l.12.54c.23,1.1.48,2.2.76,3.28a1.69,1.69,0,0,0,.12.48c.29,1.12.6,2.22.94,3.32l.24.81c.33,1,.67,2.07,1,3.09.11.31.22.61.34.92.37,1,.76,2,1.16,3l.4.93c.39.9.8,1.79,1.22,2.68.16.34.32.67.49,1,.38.78.78,1.55,1.19,2.32.17.32.33.64.51,1,.47.86,1,1.7,1.46,2.54.22.37.44.75.67,1.11.49.8,1,1.59,1.52,2.37.26.39.52.78.79,1.16.5.73,1,1.46,1.54,2.17.3.41.61.81.92,1.21s.81,1,1.23,1.57.88,1.09,1.34,1.62.82,1,1.24,1.44.8.89,1.21,1.33,1.06,1.13,1.6,1.69l1.17,1.16c.6.59,1.21,1.18,1.83,1.75l.12.12,14.72,35.75h-472c15.66,31.72,29.45,57.28,39.68,75.49H714.8v13.84A13.2,13.2,0,0,0,728,2131.28Z"/><path class="cls-2" d="M1698.6,1899.66c0-57.3-35.46-104.49-83.72-124.06V1362.17h0v-4.34h0V1306.1l41.48-79.19,13.51-53.27,6.51-8.57a3.44,3.44,0,0,0-.64-4.81h0a3.44,3.44,0,0,0-4.82.65l-154.3,202.82a3.43,3.43,0,0,0,.64,4.82h0a3.44,3.44,0,0,0,4.82-.65h0l4.65-6.12,43.52-20.6.63-.83,21.82-3.57v31.29c-54,25.1-61.3,29-131.54,30.07-5.27.7-5.36,13.59-1.41,12.82,54.87,1.3,83.2-4.24,133-26.25v384.11a131.72,131.72,0,0,0-30.87-2.87c-96.3,14.48-237.82,102.72-237.82,102.72l-39.79-72.35c-1.82-3.32-6.66-7.49-10.53-7.79l-66-119.88h59.06c8.84,0,22.31-7.16,22.31-16h0c0-12.31-10-11.71-22.31-11.71-101.56,0-104.81-16.33-154-16.33-22.29,0-31.7,6.53-31.7,18.84v3.18c0,8.83,8.92,22,21.26,22h82l66,119.88c-2.27.28-4.32,4.79-3.22,6.79l46.77,85A133.76,133.76,0,0,0,1220,1999.86h0c0,73.86,1.41,133.74,1.41,133.74h402.2c73.89,0,86.84-59.88,86.84-133.74Z"/><path class="cls-2" d="M2361.57,1899.66c0-57.3-35.45-104.49-83.72-124.06V1362.17h0v-4.34h0V1306.1l41.48-79.19,13.47-53.27,6.51-8.57a3.44,3.44,0,0,0-.64-4.81h0a3.44,3.44,0,0,0-4.82.65l-154.3,202.82a3.44,3.44,0,0,0,.65,4.82h0a3.43,3.43,0,0,0,4.81-.65h0l4.66-6.12,43.56-20.6.63-.83,21.82-3.57v31.29c-54,25.1-61.31,29-131.54,30.07-5.28.7-5.37,13.59-1.42,12.82,54.87,1.3,83.2-4.24,133-26.25v384.11a131.86,131.86,0,0,0-30.88-2.87c-96.3,14.48-237.81,102.72-237.81,102.72l-39.79-72.35c-1.83-3.32-6.67-7.49-10.54-7.79l-66-119.88h59.1c8.83,0,22.3-7.16,22.3-16h0c0-12.31-10-11.71-22.3-11.71-101.57,0-104.82-16.33-154-16.33-22.29,0-31.69,6.53-31.69,18.84v3.18c0,8.83,8.91,22,21.26,22h81.94l66,119.88c-2.26.28-4.32,4.79-3.22,6.79l46.77,85A133.76,133.76,0,0,0,1883,1999.86h0c0,73.86,1.41,133.74,1.41,133.74h402.2c73.89,0,86.84-59.88,86.84-133.74Z"/><path class="cls-3" d="M895,1224.25l-75.17,38.43-15.06-52.16s9.58-18.06,13.91-47.63a199,199,0,0,0,1.56-42.94l61.26,31.37a116.43,116.43,0,0,0-2.44,14c-1,9-1.51,21.21,1.06,32.78C882.28,1208.06,886.72,1217.55,895,1224.25Z"/><path class="cls-3" d="M760.74,1234.86S691.35,1145,657.57,1117.17c0,0-46.19-113.91-50-121.41s-29.53.13-29.53.13,18.76,116.8,36.71,149.62,73.38,143,112.54,147.07S760.74,1234.86,760.74,1234.86Z"/><path class="cls-4" d="M970.31,2080.28s7.84,15.3,25.21,19.09c10.94,2.38,20.31,8.07,26.14,16.06a10.2,10.2,0,0,1-8.2,16.23H925.3A12.66,12.66,0,0,1,912.62,2119c0-.43,0-.86.06-1.28.66-6.53,1.35-14.14,1.64-20,.66-12.74,13.41-23,13.41-23Z"/><path class="cls-5" d="M972.43,2084.17s-21.15,12.5-56.94,5c0,0-60.84-155.58-64.44-228.8-.17-2.94-.22-5.74-.17-8.4,1.23-68.86-62.35-248.18-45.2-284.92s155.72,16.42,155.72,16.42l2.75,125Z"/><path class="cls-4" d="M964.15,1708.43l-113.1,151.85c-.17-2.94-.22-5.74-.17-8.4,1.23-68.86-62.35-248.18-45.2-284.92s155.72,16.51,155.72,16.51Z"/><path class="cls-3" d="M908.45,1231s100.11-89.3,106.22-101.58,34.52-122,34.52-122l23.85,2.92s-4.55,131.54-14.6,157.17-128,134.63-128,134.63Z"/><path class="cls-4" d="M742.68,2080.28s7.84,15.3,25.21,19.09c10.94,2.38,20.31,8.07,26.14,16.06a10.2,10.2,0,0,1-8.19,16.23H697.67A12.67,12.67,0,0,1,685,2119c0-.43,0-.86.07-1.29.65-6.53,1.34-14.14,1.64-20,.65-12.74,13.4-23,13.4-23Z"/><path class="cls-5" d="M880.35,1586.44s-122.47,457-126.22,501.75c0,0-23.89,12.25-62.67-9.39,0,0-22.51-204.84,0-260.82S687,1592.8,744.27,1554.63,880.35,1586.44,880.35,1586.44Z"/><path class="cls-6" d="M957.46,1290.5c.41-6.26,38.06-31.69,38.06-31.69,7.92-47.54-27.31-86.85-27.31-86.85l-40.36,37.34c-8.75.52-12.51,3.71-12.51,3.71-7.5-2-28.46,0-28.46,0,.34,10.81-4,20.67-22.94,23.15-25.24,3.29-47.81-13.93-59.23-25.64,0,0-15.29-1.33-34.47,4.93,0,0-9.29-4.75-19.18-5l-37.12-33.36s-43.48,12.5-50.34,78.08c0,0,48.82,37.15,52.34,66.49h0l1.34,11.13,4.73,39.38,8.33,69.12L705.55,1579a19.58,19.58,0,0,0-.34,3.59,20.31,20.31,0,0,0,15.59,19.7s2.13.35,6,.9c26.28,3.69,133,16.41,216.61-6.29a40.62,40.62,0,0,0,29.64-42.51l-17.7-222.09h0S957,1296.75,957.46,1290.5Z"/><path class="cls-7" d="M760.66,1499.17c-1.66,48-6.36,88.73-33.85,103.94-3.92-.55-6-.9-6-.9a20.32,20.32,0,0,1-15.55-19.71,19.58,19.58,0,0,1,.34-3.59l24.79-137.67L722,1372.17l.61-1.85S762.8,1437.7,760.66,1499.17Z"/><path class="cls-8" d="M880.06,1198.17c-34.84-.93-61.44-35.24-61.44-35.24l60.38,2.46C878,1174.38,877.49,1186.56,880.06,1198.17Z"/><path class="cls-3" d="M897,1178.72s-69.49,18.35-93.46-36.91c-25.87-59.64,2.51-103.09,26.11-106,47-5.84,74.39,12.1,82.66,31.07S935.3,1168.94,897,1178.72Z"/><path class="cls-9" d="M869.41,1147.61s2.91,7.17,21.24,3.14c0,0,15.39-3.37,13.65-11.48C904.3,1139.27,888.32,1135.8,869.41,1147.61Z"/><path class="cls-10" d="M804.8,991.41c-18.17,5.75-31.68,14.59-41,25.37a45.55,45.55,0,0,1-1-7.88,22.1,22.1,0,0,0-1.85,11.37l-.31.42c-3.53.37-8.82,1.82-11.93,6.89a14.55,14.55,0,0,1,8.71-2.08c-24.48,40.44.38,100.83,58.48,135.67,0,0-8.15-23.92-7.17-36.69,0,0-18.14-23.12-7.57-28.84s16.27,8,18.69,5.27,6.2-48.12,19-46.69,60.31,16.15,81.12-1.8S890.32,964.33,804.8,991.41Z"/><path class="cls-3" d="M1047.55,1018.49a179.06,179.06,0,0,0-2.45-25c-2.4-12.49,0-25.41,4.24-24.14s7-4.78,11.77-5.73,7-.29,13.23,2.1,15.74-10.6,13.83,8.49-16.76,47.22-16.76,47.22Z"/><path class="cls-3" d="M609,1001.93s-4.4-17.78-2.37-28.06-1-23.22-5.52-21-4.27-.87-9.75-1-6.56-1.93-17-2.11c-7.48-.12-14-2.17-10.56,19.13,2.14,13.2,17.33,35.75,17.33,35.75Z"/><path class="cls-6" d="M915.34,1213c-7.5-2-30-.41-30-.41.33,10.81-2.43,21.08-21.4,23.56Z"/><rect class="cls-4" x="823.99" y="569.72" width="16.01" height="791.96" transform="translate(-148.08 1780.72) rotate(-89)"/><path class="cls-4" d="M1187.26,1084.22l-41.64-.72a14.35,14.35,0,0,1-14.1-14.6h0l3.42-196.17a14.35,14.35,0,0,1,14.6-14.11l41.64.73a14.34,14.34,0,0,1,14.1,14.59h0l-3.42,196.22A14.35,14.35,0,0,1,1187.26,1084.22Z"/><rect class="cls-4" x="383.16" y="924.52" width="224.91" height="70.36" rx="14.35" transform="translate(-472.6 1438.49) rotate(-89)"/><path class="cls-11" d="M458.8,1055.89v1.27a14.37,14.37,0,0,0,14,14.61l41.64.72a14.35,14.35,0,0,0,14.6-14.1h0l3.42-196.17a14.35,14.35,0,0,0-14.1-14.6h0C529.16,992,503.37,1049.85,458.8,1055.89Z"/><path class="cls-11" d="M1131.65,1061.17l-.13,7.73a14.35,14.35,0,0,0,14.1,14.6h0l41.64.72a14.35,14.35,0,0,0,14.6-14.1h0L1205.28,874a14.35,14.35,0,0,0-14.1-14.6h0C1202.24,1001.33,1194.46,1056.51,1131.65,1061.17Z"/><path class="cls-3" d="M582.54,966.91c10.55,0,24-9.28,22.82-13.32s-26.39-6.14-35.28-5.09-10.28,6.15-2.28,12.59C571.19,963.86,579.71,966.92,582.54,966.91Z"/><path class="cls-3" d="M1070,975.41c10.55,0,24-9.28,22.82-13.32s-26.39-6.14-35.28-5.09-10.24,6.15-2.3,12.59C1058.65,972.36,1067.17,975.42,1070,975.41Z"/><path class="cls-3" d="M605.43,980.61c4.18-9.56,7.16-20.29,6.66-22.7-.42-2-3.46-.22-6.86,5.42s-9.91,7.94-9.91,7.94C602.6,975.91,605.43,980.61,605.43,980.61Z"/><path class="cls-3" d="M1044.53,987.17c-.64-15-3.53-21.56,0-25.11,2.57-.6,3.63,7.13,7.76,12s6.1,12.14,6.1,12.14A43.66,43.66,0,0,0,1044.53,987.17Z"/><path class="cls-4" d="M1676.22,1001.78c7.85-38.93-13.61-69.82-46.42-76.43s-64.57,13.54-72.42,52.47c-.51,2.54-18.59,14.54-26,51.32-9,44.81,23.85,56.58,65.64,65s76.65,10.31,85.68-34.49C1690,1023.27,1675.92,1003.26,1676.22,1001.78Zm-49.82-59.61c18.52,3.73,28.72,16.54,26.09,29.58-1.72,8.53-9.32,8.76-18.34,7.1a131.3,131.3,0,0,0-13.31-3h-.12l-1.43-.3c-14.2-2.86-31.43-1.21-28.8-14.26C1593.45,946.67,1607.65,938.4,1626.4,942.17Z"/><path class="cls-11" d="M1597,1094.17c41.78,8.43,76.65,10.31,85.68-34.49,7.34-36.38-6.77-56.39-6.47-57.87,4.88-24.22-1.58-45.33-15.07-59.41,19.64,42.27-2,52.49-2.61,57.91s13.83,52.35-33.68,68c-34.12,11.21-72.87,6.62-92.57-10.23C1540.13,1079.87,1566.14,1087.92,1597,1094.17Z"/><path class="cls-12" d="M1783.1,1209.84s-100.11-89.3-106.22-101.58-34.51-122-34.51-122l-23.86,2.91s4.55,131.54,14.6,157.17,128,134.59,128,134.59Z"/><path class="cls-12" d="M1954.12,1322.81s71.52,113.5,74,127-.55,126.76-.55,126.76l23.74,3.8s32-127.68,29.41-155.09-85.78-164.72-85.78-164.72Z"/><path class="cls-12" d="M1877.6,1863.27l45.07,221.13h46.13s32.6-208,2.46-236.77S1877.6,1863.27,1877.6,1863.27Z"/><path class="cls-12" d="M1740.68,1853.33l1.42,231.43,40-3.4s76.85-189.15,53.44-223.63S1740.68,1853.33,1740.68,1853.33Z"/><path class="cls-13" d="M1742,2080.28s-7.84,15.3-25.21,19.09c-10.94,2.38-20.31,8.07-26.14,16.06a10.2,10.2,0,0,0,8.2,16.23H1787a12.66,12.66,0,0,0,12.68-12.66c0-.43,0-.86-.06-1.28-.66-6.53-1.35-14.14-1.65-20-.65-12.74-13.4-23-13.4-23Z"/><path class="cls-13" d="M1930.8,1848.57c-2.54,19.43-9.69,33.64-22.34,39.24-35.19,15.55-75.1,14.34-109.18,7.88-7.45-1.41-14.63-3.08-21.42-4.88a328.44,328.44,0,0,1-58.94-21.53l29.63-294.11c33.62-6.81,79.57,8.5,124,76C1912.8,1712.17,1937.4,1798.05,1930.8,1848.57Z"/><path class="cls-4" d="M1930.8,1848.57c-2.54,19.43-9.69,33.64-22.34,39.24-35.19,15.55-75.1,14.34-109.18,7.88-7.45-1.41-14.63-3.08-21.42-4.88-6.78-129.22,40.81-248.12,54.92-264.66C1877.91,1694.7,1928.65,1793.73,1930.8,1848.57Z"/><path class="cls-13" d="M1924.71,2080.28s-7.84,15.3-25.21,19.09c-10.94,2.38-20.31,8.07-26.14,16.06a10.2,10.2,0,0,0,8.19,16.23h88.17a12.67,12.67,0,0,0,12.67-12.67c0-.42,0-.85-.06-1.27-.66-6.53-1.34-14.14-1.64-20-.65-12.74-13.41-23-13.41-23Z"/><path class="cls-13" d="M1962.24,1054.39c5.45-23.63-1.27-41.07-12.11-57.86-10.4-16.11-25-16.81-39-30.45-13.22-12.84-37.85-21.29-57.46-21.29-62.74,0-117.08,38.42-104.69,103.56,3.93,20.69.61,37,17.39,61.19,20.93,30.2,46.39,54.43,87.3,54.43,21.7,0,40.72-5,57.46-20.82,9.11-8.62,22.18-9.68,30.2-19.06C1957.5,1105.17,1956.29,1080.17,1962.24,1054.39Z"/><path class="cls-13" d="M1805.51,1586.5l38.92,321.19s82.45,19.4,173.06-9c0,0-27-307.88-48.7-330.32S1805.51,1586.5,1805.51,1586.5Z"/><path class="cls-12" d="M1796,1207.37l78.19,40,15.67-54.25s-10-18.78-14.47-49.53a206.47,206.47,0,0,1-1.61-44.65l-63.72,32.62a121.77,121.77,0,0,1,2.54,14.58c1.09,9.4,1.57,22.06-1.1,34.09C1809.24,1190.53,1804.61,1200.4,1796,1207.37Z"/><path class="cls-14" d="M1967.24,1433.06l8.66-71.89.32-2.66c13.94-12,69.25-32.47,69.25-32.47s-33.22-74.64-53.41-99.42h0c-5.81-7.12-16.7-12.91-29.31-17.55a251.44,251.44,0,0,0-32.76-9.27c-21.57-4.73-40.08-6.71-40.08-6.71h0c-11.88,12.18-35.35,30.09-61.6,26.67-19.72-2.58-22.85-12.84-22.51-24.09-2.78.36-5.53.87-8.22,1.49h0l-63.39-31.76s-41,62-15.08,111.48c0,0,28.07,12.66,31.43,39.66l-4.34,207c-1.62,20.22-20.1,66-.54,71.32,87,23.62,197.93,10.38,225.26,6.54,4.08-.56,6.3-.93,6.3-.93a21.11,21.11,0,0,0,16.16-20.49,22.24,22.24,0,0,0-.35-3.74Z"/><path class="cls-15" d="M1908.49,1476.93c1.1,50,33.83,108.65,62.42,124.46,4.08-.56,6.29-.93,6.29-.93a21.12,21.12,0,0,0,16.17-20.49,22.24,22.24,0,0,0-.35-3.74l-25.78-143.17,8.66-71.89-.64-1.92S1906.54,1388.68,1908.49,1476.93Z"/><path class="cls-16" d="M1811.54,1180.17c36.23-1,63.89-36.64,63.89-36.64l-62.79,2.55C1813.73,1155.51,1814.21,1168.17,1811.54,1180.17Z"/><path class="cls-12" d="M1808.09,1158.32s80,9.76,81.75-46.64-31.65-92.92-53.92-92.5c-44.41.83-51.73,18.78-56.88,37.46S1771.24,1154.35,1808.09,1158.32Z"/><path class="cls-9" d="M1829.5,1125.82s-1.74,7-19.28,5.74c0,0-14.71-1.09-14.17-8.83C1796.05,1122.73,1810.4,1117.38,1829.5,1125.82Z"/><path class="cls-13" d="M1816.1,1019.7s68.41,0,52.69,46.92c-9.9,29.6,23,34.21,23,34.21l15.85-47.45-9.93-37Z"/><path class="cls-12" d="M1642.37,986.29s-.48-10.34,2.87-19-.17-35-4.44-33.72-1.13,12.17-5.9,11.21c-14.24-5.5-21.91-3.77-27.56-1.95-.35,1.13,0,4.12.44,8.36,2,19.09,10.73,38.06,10.73,38.06Z"/><path class="cls-12" d="M2027.57,1576.55s-2.4,10.07-8,17.51-10,29.69-5.52,29.65,4.87-8.37,9.19-6.13,4.41,29.58,11,29,13.4-7.82,16.85-26.7.21-39.53.21-39.53Z"/><path class="cls-12" d="M1610.45,925.28c8,5.47,14.68,2.21,16.43.3,2.61-2.84-5.16-2.83-8.44-2.84C1611,922.72,1608.67,924.06,1610.45,925.28Z"/><rect class="cls-4" x="48.18" y="2131.28" width="2599.91" height="9.03" rx="3.37"/></svg>