<svg id="Layer_1" data-name="Layer 1" xmlns="http://www.w3.org/2000/svg" viewBox="0 0 2653.5 2653.5"><defs><style>.cls-1{fill:#dde3f1;}.cls-2{fill:#c7d5eb;}.cls-3{fill:#bccce8;}.cls-4{fill:#afd1f9;}.cls-5{fill:#bdd8ff;}.cls-6{fill:#d39d71;}.cls-7{fill:#ead099;}.cls-8{fill:#a8d29f;}.cls-9{fill:#839cd0;}.cls-10{fill:#d8ad69;}.cls-11{fill:#2f427e;}.cls-12{fill:#cfa360;}.cls-13{fill:#2b3c78;}.cls-14{fill:#f1a34f;}.cls-15{fill:#2d3759;}.cls-16{fill:#3a467d;}.cls-17{fill:#eabf92;}.cls-18{fill:#cb9752;}.cls-19{fill:#d8ae69;}.cls-20{fill:#d09e6c;}.cls-21{fill:#2f3974;}.cls-22{fill:#2a335c;}.cls-23{fill:#8996cb;}.cls-24{fill:#4d65ae;}.cls-25{fill:#fff;}.cls-26{fill:#2e3552;}</style></defs><path class="cls-1" d="M2110.34,2205.15c312.37-66.89,373.54-472.25,74.73-747-236.74-217.65,322.62-768.53-308.45-983.69C1275.72,269.55,365.2,784,276.81,1554.05c-56.57,492.84,310.81,651.1,310.81,651.1Z"/><path class="cls-2" d="M1886.2,1034.5H687a20,20,0,0,1,0-40h1222.5Z"/><path class="cls-2" d="M1819.61,1291.11H687a20,20,0,0,1,0-40H1814.88A202.05,202.05,0,0,0,1819.61,1291.11Z"/><path class="cls-2" d="M2128.13,1547.74H687a20,20,0,0,1,0-40H2050.6C2075.72,1520.91,2101.77,1534.09,2128.13,1547.74Z"/><path class="cls-2" d="M2448.59,1804.33H687a20,20,0,1,1-.06-40H2421.3A444.88,444.88,0,0,1,2448.59,1804.33Z"/><path class="cls-2" d="M2515.75,2061H687a20,20,0,0,1,0-40H2514.32Q2515.65,2040.42,2515.75,2061Z"/><path class="cls-2" d="M1292,2209.8h0a19.48,19.48,0,0,1-19.43-19.43v-1327A19.5,19.5,0,0,1,1292,843.93h0a19.51,19.51,0,0,1,19.44,19.44v1327A19.5,19.5,0,0,1,1292,2209.8Z"/><path class="cls-2" d="M782.07,869.38a3,3,0,0,0-1.73-5.47H758.48a3,3,0,0,0-3,3,2.94,2.94,0,0,0,1,2.2,31.87,31.87,0,0,0-19.4,29.25v96.11h64.72v-95A32.91,32.91,0,0,0,782.07,869.38Z"/><path class="cls-2" d="M870.33,869.38a3,3,0,0,0-1.72-5.47H846.76a3,3,0,0,0-2,5.16,31.82,31.82,0,0,0-19.37,29.25v96.11H890V899.5A32.91,32.91,0,0,0,870.33,869.38Z"/><path class="cls-2" d="M960.2,869.38a3,3,0,0,0-1.72-5.47H936.61a3,3,0,0,0-3,3,2.93,2.93,0,0,0,1,2.2,31.82,31.82,0,0,0-19.39,29.25v96.11H979.9v-95A32.89,32.89,0,0,0,960.2,869.38Z"/><path class="cls-2" d="M1049.82,869.38a3,3,0,0,0-1.72-5.47h-21.85a3,3,0,0,0-2,5.16,31.86,31.86,0,0,0-19.39,29.25v96.11h64.71V899.5A32.88,32.88,0,0,0,1049.82,869.38Z"/><path class="cls-2" d="M1138.88,869.38a3,3,0,0,0-1.72-5.47h-21.78a3,3,0,0,0-3,3,2.93,2.93,0,0,0,1,2.2A31.82,31.82,0,0,0,1094,898.37v96.11h64.71v-95A32.89,32.89,0,0,0,1138.88,869.38Z"/><path class="cls-2" d="M782.07,1895.83a3,3,0,0,0-1.73-5.47H758.48a3,3,0,0,0-3,3,2.94,2.94,0,0,0,1,2.2,31.87,31.87,0,0,0-19.4,29.25v96.11h64.72v-95A32.91,32.91,0,0,0,782.07,1895.83Z"/><path class="cls-2" d="M870.33,1895.83a3,3,0,0,0-1.72-5.47H846.76a3,3,0,0,0-2,5.16,31.82,31.82,0,0,0-19.37,29.25v96.11H890V1926A32.91,32.91,0,0,0,870.33,1895.83Z"/><path class="cls-2" d="M960.2,1895.83a3,3,0,0,0-1.72-5.47H936.61a3,3,0,0,0-3,3,2.93,2.93,0,0,0,1,2.2,31.82,31.82,0,0,0-19.39,29.25v96.11H979.9v-95A32.89,32.89,0,0,0,960.2,1895.83Z"/><path class="cls-2" d="M1049.82,1895.83a3,3,0,0,0-1.72-5.47h-21.85a3,3,0,0,0-2,5.16,31.86,31.86,0,0,0-19.39,29.25v96.11h64.71V1926A32.88,32.88,0,0,0,1049.82,1895.83Z"/><path class="cls-2" d="M1138.88,1895.83a3,3,0,0,0-1.72-5.47h-21.78a3,3,0,0,0-3,3,2.93,2.93,0,0,0,1,2.2,31.82,31.82,0,0,0-19.39,29.25v96.11h64.71v-95A32.89,32.89,0,0,0,1138.88,1895.83Z"/><polygon class="cls-3" points="755.45 1108.97 778.38 1108.97 778.38 1119.22 803.07 1143.91 803.07 1251.14 781.08 1251.14 754.23 1121.51 755.45 1108.97"/><polygon class="cls-2" points="755.45 1120.44 755.45 1108.97 749.77 1108.97 748.69 1120.44 723.6 1145.13 723.6 1251.14 781.08 1251.14 781.08 1145.13 755.45 1120.44"/><polygon class="cls-3" points="872.6 1108.97 895.54 1108.97 895.54 1119.22 920.25 1143.91 920.25 1251.14 898.24 1251.14 871.38 1121.51 872.6 1108.97"/><polygon class="cls-2" points="872.6 1120.44 872.6 1108.97 866.94 1108.97 865.86 1120.44 840.75 1145.13 840.75 1251.14 898.24 1251.14 898.24 1145.13 872.6 1120.44"/><polygon class="cls-3" points="989.52 1108.97 1012.47 1108.97 1012.47 1119.22 1037.16 1143.91 1037.16 1251.14 1015.15 1251.14 988.31 1121.51 989.52 1108.97"/><polygon class="cls-2" points="989.52 1120.44 989.52 1108.97 983.86 1108.97 982.77 1120.44 957.67 1145.13 957.67 1251.14 1015.15 1251.14 1015.15 1145.13 989.52 1120.44"/><polygon class="cls-4" points="1980.3 1622.18 2003.23 1622.18 2003.23 1632.44 2027.92 1657.13 2027.92 1764.37 2005.94 1764.37 1979.08 1634.73 1980.3 1622.18"/><polygon class="cls-5" points="1980.3 1633.64 1980.3 1622.18 1974.64 1622.18 1973.55 1633.64 1948.45 1658.35 1948.45 1764.37 2005.94 1764.37 2005.94 1658.35 1980.3 1633.64"/><polygon class="cls-3" points="2097.21 1622.18 2120.15 1622.18 2120.15 1632.44 2144.86 1657.13 2144.86 1764.37 2122.85 1764.37 2096.01 1634.73 2097.21 1622.18"/><polygon class="cls-2" points="2097.21 1633.64 2097.21 1622.18 2091.55 1622.18 2090.47 1633.64 2065.36 1658.35 2065.36 1764.37 2122.85 1764.37 2122.85 1658.35 2097.21 1633.64"/><polygon class="cls-3" points="1125.72 1108.97 1148.65 1108.97 1148.65 1119.22 1173.34 1143.91 1173.34 1251.14 1151.36 1251.14 1124.5 1121.51 1125.72 1108.97"/><polygon class="cls-2" points="1125.72 1120.44 1125.72 1108.97 1120.04 1108.97 1118.97 1120.44 1093.87 1145.13 1093.87 1251.14 1151.36 1251.14 1151.36 1145.13 1125.72 1120.44"/><rect class="cls-2" x="713.07" y="1434.99" width="90" height="72.76"/><rect class="cls-2" x="826.39" y="1434.99" width="90" height="72.76"/><rect class="cls-2" x="935.7" y="1434.99" width="90" height="72.76"/><rect class="cls-2" x="1048.86" y="1434.99" width="90" height="72.76"/><path class="cls-2" d="M840.41,1764.37H767.63a36.12,36.12,0,0,1-35.94-36h0a36.13,36.13,0,0,1,35.94-35.94h72.78a36.13,36.13,0,0,1,35.94,35.94h0A36.12,36.12,0,0,1,840.41,1764.37Z"/><polygon class="cls-5" points="725.13 1715.94 725.13 1737.81 738.24 1728.57 725.13 1715.94"/><polygon class="cls-2" points="884.8 1715.94 884.8 1737.81 871.69 1728.57 884.8 1715.94"/><path class="cls-2" d="M1031.67,1764.37H958.91a36.12,36.12,0,0,1-36-36h0a36.13,36.13,0,0,1,36-35.94h72.76a36.13,36.13,0,0,1,35.94,35.94h0A36.12,36.12,0,0,1,1031.67,1764.37Z"/><polygon class="cls-2" points="916.39 1715.94 916.39 1737.81 929.5 1728.57 916.39 1715.94"/><polygon class="cls-2" points="1076.06 1715.94 1076.06 1737.81 1062.95 1728.57 1076.06 1715.94"/><path class="cls-2" d="M1209.73,1764.37H1137a36.12,36.12,0,0,1-35.94-36h0a36.13,36.13,0,0,1,35.94-35.94h72.76a36.13,36.13,0,0,1,36,35.94h0A36.11,36.11,0,0,1,1209.73,1764.37Z"/><polygon class="cls-2" points="1094.47 1715.94 1094.47 1737.81 1107.58 1728.57 1094.47 1715.94"/><polygon class="cls-2" points="1254.14 1715.94 1254.14 1737.81 1241.01 1728.57 1254.14 1715.94"/><path class="cls-5" d="M1437.33,869.38a3,3,0,0,0-1.72-5.47h-21.87a3,3,0,0,0-3,3,3,3,0,0,0,1,2.2,31.82,31.82,0,0,0-19.39,29.25v96.11H1457v-95A32.88,32.88,0,0,0,1437.33,869.38Z"/><path class="cls-2" d="M1525.58,869.38a3,3,0,0,0-1.72-5.47H1502a3,3,0,0,0-2.92,3,2.93,2.93,0,0,0,1,2.2,31.84,31.84,0,0,0-19.39,29.25v96.11h64.71v-95A32.89,32.89,0,0,0,1525.58,869.38Z"/><path class="cls-2" d="M1615.47,869.38a3,3,0,0,0-1.72-5.47h-21.86a3,3,0,0,0-2,5.16,31.83,31.83,0,0,0-19.39,29.25v96.11h64.71V899.5A32.91,32.91,0,0,0,1615.47,869.38Z"/><path class="cls-2" d="M1705.07,869.38a3,3,0,0,0-1.72-5.47h-21.9a3,3,0,0,0-3,3,3,3,0,0,0,1,2.2A31.84,31.84,0,0,0,1660,898.37v96.11h64.71v-95A32.89,32.89,0,0,0,1705.07,869.38Z"/><path class="cls-2" d="M1794.13,869.38a3,3,0,0,0-1.72-5.47h-21.87a3,3,0,0,0-3,3,3,3,0,0,0,.93,2.14,31.85,31.85,0,0,0-19.39,29.25v96.11h64.71V899.5A32.88,32.88,0,0,0,1794.13,869.38Z"/><path class="cls-2" d="M1437.33,1895.83a3,3,0,0,0-1.72-5.47h-21.87a3,3,0,0,0-3,3,3,3,0,0,0,1,2.2,31.82,31.82,0,0,0-19.39,29.25v96.11H1457v-95A32.88,32.88,0,0,0,1437.33,1895.83Z"/><path class="cls-2" d="M1525.58,1895.83a3,3,0,0,0-1.72-5.47H1502a3,3,0,0,0-3,3,3,3,0,0,0,1,2.2,31.87,31.87,0,0,0-19.39,29.25v96.11h64.71v-95A32.88,32.88,0,0,0,1525.58,1895.83Z"/><path class="cls-5" d="M1615.47,1895.83a3,3,0,0,0-1.72-5.47h-21.86a3,3,0,0,0-2,5.16,31.83,31.83,0,0,0-19.39,29.25v96.11h64.71V1926A32.91,32.91,0,0,0,1615.47,1895.83Z"/><path class="cls-2" d="M1705.07,1895.83a3,3,0,0,0-1.72-5.47h-21.9a3,3,0,0,0-3,3,3,3,0,0,0,1,2.2,31.84,31.84,0,0,0-19.39,29.25v96.11h64.71v-95A32.89,32.89,0,0,0,1705.07,1895.83Z"/><path class="cls-2" d="M1794.13,1895.83a3,3,0,0,0-1.72-5.47h-21.87a3,3,0,0,0-3,3,3,3,0,0,0,.93,2.14,31.85,31.85,0,0,0-19.39,29.25v96.11h64.71V1926A32.88,32.88,0,0,0,1794.13,1895.83Z"/><polygon class="cls-4" points="1410.7 1108.97 1433.65 1108.97 1433.65 1119.22 1458.34 1143.91 1458.34 1251.14 1436.34 1251.14 1409.48 1121.51 1410.7 1108.97"/><polygon class="cls-5" points="1410.7 1120.44 1410.7 1108.97 1405.04 1108.97 1403.95 1120.44 1378.85 1145.13 1378.85 1251.14 1436.34 1251.14 1436.34 1145.13 1410.7 1120.44"/><polygon class="cls-4" points="1527.87 1108.97 1550.81 1108.97 1550.81 1119.22 1575.5 1143.91 1575.5 1251.14 1553.51 1251.14 1526.65 1121.51 1527.87 1108.97"/><polygon class="cls-2" points="1527.87 1120.44 1527.87 1108.97 1522.19 1108.97 1521.13 1120.44 1496.02 1145.13 1496.02 1251.14 1553.51 1251.14 1553.51 1145.13 1527.87 1120.44"/><polygon class="cls-2" points="1903.85 1878.79 1926.79 1878.79 1926.79 1889.05 1951.48 1913.76 1951.48 2020.98 1929.49 2020.98 1902.63 1891.35 1903.85 1878.79"/><polygon class="cls-2" points="1903.85 1890.27 1903.85 1878.79 1898.17 1878.79 1897.11 1890.27 1872.01 1914.96 1872.01 2020.98 1929.49 2020.98 1929.49 1914.96 1903.85 1890.27"/><polygon class="cls-4" points="2021.01 1878.79 2043.96 1878.79 2043.96 1889.05 2068.65 1913.76 2068.65 2020.98 2046.64 2020.98 2019.8 1891.35 2021.01 1878.79"/><polygon class="cls-5" points="2021.01 1890.27 2021.01 1878.79 2015.35 1878.79 2014.26 1890.27 1989.16 1914.96 1989.16 2020.98 2046.64 2020.98 2046.64 1914.96 2021.01 1890.27"/><polygon class="cls-3" points="2159.98 1878.79 2182.93 1878.79 2182.93 1889.05 2207.62 1913.76 2207.62 2020.98 2185.63 2020.98 2158.78 1891.35 2159.98 1878.79"/><polygon class="cls-2" points="2159.98 1890.27 2159.98 1878.79 2154.32 1878.79 2153.24 1890.27 2128.15 1914.96 2128.15 2020.98 2185.63 2020.98 2185.63 1914.96 2159.98 1890.27"/><polygon class="cls-3" points="2277.15 1878.79 2300.09 1878.79 2300.09 1889.05 2324.8 1913.76 2324.8 2020.98 2302.79 2020.98 2275.93 1891.35 2277.15 1878.79"/><polygon class="cls-2" points="2277.15 1890.27 2277.15 1878.79 2271.47 1878.79 2270.41 1890.27 2245.3 1914.96 2245.3 2020.98 2302.79 2020.98 2302.79 1914.96 2277.15 1890.27"/><polygon class="cls-3" points="1644.78 1108.97 1667.72 1108.97 1667.72 1119.22 1692.43 1143.91 1692.43 1251.14 1670.42 1251.14 1643.56 1121.51 1644.78 1108.97"/><polygon class="cls-2" points="1644.78 1120.44 1644.78 1108.97 1639.12 1108.97 1638.04 1120.44 1612.94 1145.13 1612.94 1251.14 1670.42 1251.14 1670.42 1145.13 1644.78 1120.44"/><rect class="cls-5" x="1368.34" y="1434.99" width="90" height="72.76"/><rect class="cls-2" x="1481.64" y="1434.99" width="90" height="72.76"/><rect class="cls-2" x="1590.95" y="1434.99" width="90" height="72.76"/><rect class="cls-2" x="1704.13" y="1434.99" width="90" height="72.76"/><path class="cls-5" d="M1495.63,1764.37H1422.9a36.13,36.13,0,0,1-36-36h0a36.14,36.14,0,0,1,36-35.94h72.73a36.13,36.13,0,0,1,35.94,35.94h0A36.12,36.12,0,0,1,1495.63,1764.37Z"/><polygon class="cls-5" points="1380.4 1715.94 1380.4 1737.81 1393.51 1728.57 1380.4 1715.94"/><polygon class="cls-5" points="1540.07 1715.94 1540.07 1737.81 1526.94 1728.57 1540.07 1715.94"/><path class="cls-2" d="M1686.92,1764.37h-72.76a36.13,36.13,0,0,1-36-36h0a36.14,36.14,0,0,1,36-35.94h72.76a36.13,36.13,0,0,1,36,35.94h0A36.12,36.12,0,0,1,1686.92,1764.37Z"/><polygon class="cls-5" points="1571.66 1715.94 1571.66 1737.81 1584.77 1728.57 1571.66 1715.94"/><polygon class="cls-2" points="1731.33 1715.94 1731.33 1737.81 1718.2 1728.57 1731.33 1715.94"/><path class="cls-2" d="M1865,1764.37h-72.76a36.12,36.12,0,0,1-35.94-36h0a36.13,36.13,0,0,1,35.94-35.94H1865a36.14,36.14,0,0,1,36,35.94h0A36.13,36.13,0,0,1,1865,1764.37Z"/><polygon class="cls-2" points="1749.72 1715.94 1749.72 1737.81 1762.85 1728.57 1749.72 1715.94"/><polygon class="cls-5" points="1909.39 1715.94 1909.39 1737.81 1896.28 1728.57 1909.39 1715.94"/><path class="cls-6" d="M679.05,1681.13s-3.64-38.87,10.74-55.06,39.47-27.2,52.82-16.84,28.22,55.3,27.53,62.18S679.05,1681.13,679.05,1681.13Z"/><polygon class="cls-7" points="667.72 1671.33 682.05 1853 800.58 1840.72 782.65 1659.76 667.72 1671.33"/><path class="cls-8" d="M599.2,1605.77s80.34-202.67,152.24-200.28c0,0,31.33,10-1.34,41.47S599.2,1605.77,599.2,1605.77Z"/><path class="cls-8" d="M603.42,1609.23s131.23-104.17,160.18-81.78c0,0,16.37,10.91-2.92,20.2S665.2,1569.09,603.42,1609.23Z"/><path class="cls-8" d="M593,1595.65c.81-1.17,49.4-113.23,30.28-113.66S593,1595.65,593,1595.65Z"/><path class="cls-7" d="M499.8,1674c.43-1.72,82.59-105.37,82.59-105.37s26.26.23,31.61,15.61,21.35,10.75,29,18.2L543,1718.9Z"/><path class="cls-9" d="M841,1871.91,796.19,1866a15.18,15.18,0,0,1-13.11-17v0l15.49-118.3a15.21,15.21,0,0,1,17-13.12h0l44.83,5.85a15.23,15.23,0,0,1,13.12,17.07L858.1,1858.78A15.23,15.23,0,0,1,841,1871.91Z"/><path class="cls-9" d="M843,1750.66l-17.51-2.29a6,6,0,0,1-5.17-6.65v0l6-46.24a5.93,5.93,0,0,1,6.61-5.16H833l17.53,2.29a6,6,0,0,1,5.17,6.65v0l-6,46.21A6,6,0,0,1,843,1750.66Z"/><rect class="cls-10" x="792.77" y="1755.17" width="75.65" height="49.14" transform="translate(-1041.71 2372.89) rotate(-82.56)"/><path class="cls-9" d="M770.66,1861.4l-62.75-3.25a7.46,7.46,0,0,1-7-7.82l1-19.85a7.43,7.43,0,0,1,7.82-7h0l62.75,3.32a7.45,7.45,0,0,1,7,7.81l-1,19.86A7.44,7.44,0,0,1,770.66,1861.4Z"/><path class="cls-9" d="M752.56,1832.18,729,1830.94a2.79,2.79,0,0,1-2.64-2.93h0l.4-7.45a2.8,2.8,0,0,1,2.94-2.65l23.56,1.26a2.79,2.79,0,0,1,2.65,2.92v0l-.4,7.45a2.78,2.78,0,0,1-2.93,2.63Z"/><rect class="cls-10" x="732.86" y="1803.4" width="14.8" height="77.72" transform="translate(-1138.56 2484.1) rotate(-86.97)"/><rect class="cls-9" x="308.42" y="1489.6" width="227.69" height="320.56" transform="translate(-430.96 175.97) rotate(-15.71)"/><rect class="cls-9" x="521.01" y="1703.45" width="160.79" height="131.47" transform="translate(-1194.78 2284.4) rotate(-87.23)"/><rect class="cls-9" x="465.78" y="1780.99" width="31.04" height="88.15" transform="translate(-1364.89 2217.6) rotate(-87.23)"/><path class="cls-11" d="M954.5,2079.21a66.19,66.19,0,1,0,.11,0Z"/><path class="cls-12" d="M954.5,2115a30.43,30.43,0,1,0,.07,0Z"/><path class="cls-11" d="M426.66,2079.21a66.15,66.15,0,1,0,.09,0Z"/><path class="cls-12" d="M426.66,2115a30.4,30.4,0,1,0,.09,0Z"/><path class="cls-13" d="M1086.33,1374.66a9.94,9.94,0,0,0-14-.53l-84.72,78.63a9.9,9.9,0,0,0-2.7,4.27l-10.75,33.81-711,33.72a10,10,0,0,0-9.45,10.32l14.56,299.18a9.94,9.94,0,0,0,9.2,9.41l583.78,42.36H862a10,10,0,0,0,9.47-6.88l119.44-375.24.15-.47,12-37.68,82.79-76.84a9.91,9.91,0,0,0,.53-14ZM887.66,1762.52l-65.3-2.45L849.67,1650l74-.64Zm-82.87-3.17-73.48-2.82,24.84-105.9,75.71-.66Zm-96.56,95.56,19.09-81.31,73.19,2.8-20.65,83.71Zm-84.94-6.16,14.59-78.58,71.83,2.76-18.92,80.71ZM529.74,1842l11.41-75.49,79.35,3-14.42,78Zm-78-5.67,5.5-73,66.64,2.54-11.32,74.92Zm-94.64-6.88,4.55-69.84,78.44,3L434.58,1835ZM279.4,1654.65l71.83-.6-5.69,87.75-62-2.37Zm89.09-.75,79.82-.68-6.89,92.21-78.61-3Zm88.71-118.73-7.6,100.76-80,.69,6.33-97.59Zm102.32-4.85-15.84,104.82-76.81.65,7.66-101.51Zm106.42-5-20.28,109.07-84.6.71,16-105.55ZM769,1520.4l-26.54,113-79.25.68,20.39-109.69ZM558.49,1652.3l84-.71-18.74,100.83-79.93-3.07Zm-32,96.35-67.95-2.6,7-92.91,75.48-.64ZM660,1651.4l78.41-.67-24.64,105.13-72.66-2.79Zm100.18-18.05,26.67-113.78,78.28-3.7-29,116.88Zm-401.55-93.51-6.3,96.92-73.78.64L274,1543.93Zm-74.32,216.79,60.05,2.31-4.49,69.23-52.27-3.78Zm570.5,108.91-57.62-4.18,20.88-84.3,64.11,2.46Zm74.38-233.6-75.26.64L883.1,1515l84.6-4Z"/><path class="cls-14" d="M1050.29,1420a11.9,11.9,0,0,1-7.88-20.83l43.32-38.3a11.91,11.91,0,1,1,15.76,17.86L1058.17,1417A11.84,11.84,0,0,1,1050.29,1420Z"/><path class="cls-13" d="M278.16,1845.57a11.9,11.9,0,0,1-11.89-11.34l-14.63-299.18a11.91,11.91,0,0,1,23.8-1.15h0L290,1833.08a11.87,11.87,0,0,1-11.27,12.47h0Z"/><path class="cls-11" d="M956.5,2140.82l-13.32-80.16a9.92,9.92,0,0,0,9.45-9.91V1942.2a10,10,0,0,0-3.63-7.68l-80.75-66.19a9.94,9.94,0,0,0-12.6,15.37l77.12,63.19V2041L364,2051.33l-18.38-51.75a9.93,9.93,0,0,0-19.13,5.31,9,9,0,0,0,.43,1.23l17.46,49.17-76.39,30a9.93,9.93,0,1,0,7.22,18.5l83.16-32.52,11.92-.22,53.43,76.72c2.75,4,7.91,1.27,7.67-4L428.17,2070l455.1-8.22,67.34,82.4C952.89,2147.05,957.08,2144.66,956.5,2140.82Z"/><g id="man"><path class="cls-15" d="M1671.88,2089.51s26,24.09,21,41.3-28.6,28.59-31.76,49.55-15.89,32.4-27.33,32.4h-54.51s-8.41-14.75,11.91-19.2,28-29.08,26.72-51.95,1.91-53.34,1.91-53.34l43.21-10.16Z"/><path class="cls-15" d="M1352.35,2155.34s6.35,50.81-5.16,56.54-148,3.8-148,3.8,0-17.2,23.5-20.95,64.8-17.79,71.79-48.92S1352.35,2155.34,1352.35,2155.34Z"/><path class="cls-16" d="M1228.8,1379.29s7.72,96.35,16.79,212.06c12.34,157.25,27.17,350.4,28.63,387,2.53,63.54,12.72,165.17,12.72,165.17s24.09,24.09,72.42,14c0,0,43-145.09,55.31-298.6l.57-7.59C1426.68,1695,1444.49,1366,1444.49,1366Z"/><path class="cls-15" d="M1228.8,1379.29s7.72,96.35,16.79,212.06l169.17,267.54.57-7.59C1426.77,1695,1444.58,1366,1444.58,1366Z"/><path class="cls-16" d="M1264.05,1390.73s139.13,348.76,230.56,512.65S1614.67,2113,1614.67,2113s52.41-21,57.16-35.27c0,0-35-316.4-96.23-393.53-34.57-43.58-75.22-174.38-77.13-220.1s-12.39-136.25-12.39-136.25Z"/><path class="cls-17" d="M1129.45,1296.62l-12.35,17.63s-44.31,4.66-42.83,53c0,0,2.12,19.94,15.3,14.2s7.22-5.46,26-13.13,32.1-23.38,31.5-38.35l6.11-15.49Z"/><path class="cls-17" d="M1447.11,853.17s-94,46.3-148.42,29.16a130.12,130.12,0,0,1,36.72-29.94c-1.31-7.79-2.36-14.91-3.19-21.28a342.5,342.5,0,0,1-3.2-36.89l22.37-18,48.3-38.92a163.54,163.54,0,0,0,2.46,34.93h0C1412,826.81,1447.11,853.17,1447.11,853.17Z"/><path class="cls-18" d="M1132.79,1316.49a153.24,153.24,0,0,1-20.85-28.36s102-126.77,110.32-139.91,70.25-224,70.25-224l156.66-31.75s-130.76,269.84-152.46,302.83c-35.81,54.35-142.91,135.27-142.91,135.27A64.82,64.82,0,0,1,1132.79,1316.49Z"/><path class="cls-10" d="M1222.81,1387.32a8.71,8.71,0,0,0,5.71,2.17c20.41-.27,80,11.07,130.32,5.89,42.46-4.08,80.06-16.66,120.44-34.74,5.35-2.41,17.69-9,17.41-15-.17-6.55-.82-16.07-1.72-28-2.78-41.68-7.77-113.29-2.92-196,.88-15.4,1.32-30.66,1.39-45.7.41-112.05-21.82-210.6-66.45-244-3.82-2.73-27.23,8.71-48.74,19.31a89,89,0,0,1-58.5,7.09L1301,875c-22.87,21.23-47.92,50.11-58.79,93.93-9.28,37.28-14.71,104.54-17.71,174.23-1.36,31.58-2.46,63.43-2.73,93.66v1.09c-.26,3-.26,6.26-.26,9.25C1220.33,1324.76,1221.45,1386.22,1222.81,1387.32Z"/><path class="cls-18" d="M1495,1317.61c-2.83-41.68-7.82-113.29-3-196,.88-15.4,1.32-30.66,1.39-45.7-18.6-45.11-33.81-77.82-33.81-77.82h-46.87S1378.39,1232.82,1495,1317.61Z"/><path class="cls-17" d="M1586.23,1332.2l8.9,15.33s-17.43,36.92,23.93,50.72c0,0,17.79,4.49,19.31-7.85s-1.1-7.48,1.48-24.91-4.22-32.91-17.07-37.06l-10.15-9.7Z"/><path class="cls-19" d="M1609.82,1336.38a153,153,0,0,1-35.18,2s-50.11-154.85-56.56-168.94-148.86-181.54-148.86-181.54l59.3-148.46s154,257.28,169.67,293.43c25.81,59.74,34.83,193.69,34.83,193.69A64.51,64.51,0,0,1,1609.82,1336.38Z"/><path class="cls-20" d="M1402.1,772.28h0c-.95,1.72-28.93,51.78-69.86,58.8a337.69,337.69,0,0,1-3.2-36.89l22.37-18c13.28-7.64,25.24-12.62,29.71-11.66,14.64,3.13,20.65,7.41,21,7.67h0Z"/><path class="cls-17" d="M1312.4,792.93s89.8,14.92,98.23-41.12,25.71-91.9-31.28-103.79-71.35,7.83-78.72,25.81S1289.26,787.6,1312.4,792.93Z"/><path class="cls-16" d="M1410.7,746.39s-9.21-1.55-7.73-14.23,1.48-29.25-8.84-26.2-10.84,11.35-15.07,6.53-4.32-25.15-35-26.56-43.19,9.27-57.47,3-15-27.89-15-27.89,4.06,7.71,10.18,10.17c0,0-23.81-32.59,3.77-54.92s55.7-7.73,71.66-6.76c35.17,2.13,57.88,4.25,69.38,27.35S1433.27,724.14,1410.7,746.39Z"/></g><path class="cls-21" d="M2013.33,1483.16s61.43-28,107.9-3.44,18.05,226.34-48.4,245.92h0S1948.33,1765.37,2013.33,1483.16Z"/><path class="cls-17" d="M1905.75,1545.31c-3-23.62-24.32-93.53-24.32-93.53s-19.56,0-31.24,27.53c-24.21,57-13.77,180-12.24,197.64,0,0-7.84,33,3.07,90.45-1,2.1-6.68,13.61-9,17.21a5.57,5.57,0,0,0-.61.77h0a7.16,7.16,0,0,0-.1,7.75l8,12.68a7,7,0,0,0,3,2.65h0a7.35,7.35,0,0,0,1.22.43l9.91,2.35,5.39-32.14h0C1864.92,1753.19,1908.57,1567.37,1905.75,1545.31Z"/><path class="cls-22" d="M1804.4,2151.64s-9.65,11.5-25.19,11.34a38.12,38.12,0,0,0-25,8.24,9.14,9.14,0,0,0,3.93,15.87l73.31,16.81a12.23,12.23,0,0,0,14.67-9.17,11.27,11.27,0,0,0,.21-1.16c.69-5.38,1.54-11.42,2.34-16.08,1.93-11-6.88-22.18-6.88-22.18Z"/><path class="cls-19" d="M1791.57,2152.78s21.07,16.53,62.71,15.48c0,0,43.72-187,52-198.4,2-2.68,6.08-9.65,11.2-18.92.44-.82.89-1.63,1.34-2.43,16.76-30.09,43-80.57,44.84-88.25,2.57-10.32-27.53-142.91-52.29-138.64a132.06,132.06,0,0,0-41.29,15.48c-2.34,1.38-3.61,2.24-3.61,2.24s-1,3.77-2.55,10.32c-1.48,5.94-3.44,14.15-5.92,23.9-.29,1.21-.58,2.45-.91,3.7-13.76,55.73-38.06,155-41.74,171.87C1810.12,1973,1791.57,2152.78,1791.57,2152.78Z"/><path class="cls-18" d="M1857.93,1773.67l60.82,174.91c16.76-30.09,43-80.57,44.84-88.25,2.57-10.32-27.53-142.91-52.29-138.64a132.06,132.06,0,0,0-41.29,15.48c-2.34,1.38-3.61,2.24-3.61,2.24s-1,3.77-2.55,10.32C1862.37,1755.7,1860.39,1763.91,1857.93,1773.67Z"/><path class="cls-22" d="M2008.36,2168.49s-6.57,12.83-21.14,16a36.43,36.43,0,0,0-21.94,13.47,8.61,8.61,0,0,0,6.88,13.63h74a10.61,10.61,0,0,0,10.63-10.6c0-.36,0-.73-.05-1.1-.55-5.47-1.14-11.86-1.38-16.76-.55-10.68-11.25-19.29-11.25-19.29Z"/><path class="cls-16" d="M2044.58,1314.73c4.39-19.06-1-33.14-9.77-46.69-8.4-13-20.19-13.56-31.51-24.57-10.66-10.33-30.54-17.21-46.45-17.21-50.62,0-94.48,31-84.48,83.55,3.18,16.71.5,29.87,14,49.4,16.89,24.36,37.44,43.91,70.44,43.91,17.51,0,32.86-4,46.45-16.79,7.35-6.89,17.9-7.81,24.38-15.38C2040.76,1355.74,2039.78,1335.55,2044.58,1314.73Z"/><path class="cls-17" d="M1910.46,1438.19l63.09,32.24,12.65-43.77s-8-15.16-11.67-40a167,167,0,0,1-1.3-36L1921.82,1377a97.84,97.84,0,0,1,2,11.77,85.66,85.66,0,0,1-.89,27.53C1921.11,1424.56,1917.38,1432.56,1910.46,1438.19Z"/><path class="cls-19" d="M2056.64,1755.39s12.05,159,9.33,412.43a97.89,97.89,0,0,1-31.92,9.34c-32.69,3.25-40.54-9.67-40.54-9.67s-33.32-123.69-41.65-179.42c-7.69-51.38-58.12-236.77-58.12-236.77Z"/><path class="cls-23" d="M1869.8,1750.85c70.19,19.06,159.72,8.38,181.77,5.28,3.3-.46,5.16-.75,5.16-.75a17,17,0,0,0,13-16.54,17.83,17.83,0,0,0-.28-3l-20.82-115.54,7-58,4-33.07,9.06-75.51c-30-15.28-57.38-23.46-82.43-27-9.58,9.82-28.53,24.28-49.71,21.52-15.91-2.1-18.46-10.32-18.18-19.39-33.3,5.47-51.74,14.88-51.74,14.88l-21.73,271.51A34.07,34.07,0,0,0,1869.8,1750.85Z"/><path class="cls-23" d="M1986.2,1426.66l9.48,18.92,9.21,18.33,49.24,98.07c7.16-9.22,57.6-27.92,57.6-27.92s-26.8-60.22-43-80.23c-4.68-5.75-13.47-10.43-23.66-14.18a203.48,203.48,0,0,0-26.43-7.49A326.76,326.76,0,0,0,1986.2,1426.66Z"/><path class="cls-23" d="M1827.3,1568.57a35.51,35.51,0,0,1,10.19.21c5.87.65,13.15,1.72,19.36,2.89h0c7.46,1.31,13.37,2.48,13.37,2.48l-.9-131.82C1835.32,1455.08,1827.3,1568.57,1827.3,1568.57Z"/><path class="cls-24" d="M2023.16,1668.88c1.39,40.3,5.35,74.45,28.41,87.22,3.3-.47,5.16-.76,5.16-.76a17,17,0,0,0,13-16.53,17.83,17.83,0,0,0-.28-3l-20.82-115.54,7-58c-.33-1-.52-1.55-.52-1.55S2021.4,1617.26,2023.16,1668.88Z"/><path class="cls-24" d="M1837.49,1568.78c5.87.65,18.93,2.8,18.93,2.8l6.6-60.22S1840.93,1553.84,1837.49,1568.78Z"/><path class="cls-21" d="M2065.71,1715.2l-5.4-30c-91.52-132.37-98.4-156.11-57.28-215.56,11.78-17,33.21-27.65,42-30.08a206,206,0,0,0-26.43-7.48c-8.69,4.1-16.67,8.1-22.87,13.46C1870.1,1554.24,2065.71,1715.2,2065.71,1715.2Z"/><path class="cls-17" d="M2105.75,1536.4c-17.05,5.26-42.83,16.72-50.66,24.43,8.61,20,13.54,33.15,13.54,33.15-8.87-4-69-9.41-69-9.41s-5-36.7-40.78-39.17c0,0-14.93.08-11.87,10.32s3.44,5.76,7.38,20.23,14.4,25.48,25.48,26.14l.84.22c46.29,38.32,109.5,38.65,128.64,37.75a7.66,7.66,0,0,0,7.14-5.9C2123.76,1602.35,2118.75,1569.5,2105.75,1536.4Z"/><path class="cls-20" d="M1923,1416.27c29.25-.8,51.62-29.58,51.62-29.58l-50.67,2.06A85.9,85.9,0,0,1,1923,1416.27Z"/><path class="cls-17" d="M1920.18,1398.59s64.59,7.89,66-37.62-25.55-75-43.52-74.64c-35.84.65-41.76,15.14-45.9,30.21S1890.45,1395.39,1920.18,1398.59Z"/><path class="cls-25" d="M1937.46,1372.37s-1.4,5.68-15.49,4.63c0,0-11.87-.88-11.42-7.12C1910.48,1369.88,1922.06,1365.56,1937.46,1372.37Z"/><path class="cls-16" d="M1926.65,1286.74s55.2,0,42.52,37.85c-8,23.88,18.6,27.53,18.6,27.53l12.78-38.28-8-29.84Z"/><path class="cls-26" d="M120,2214h2403.8a4.1,4.1,0,0,1,4.1,4.1v14.26a4.1,4.1,0,0,1-4.1,4.1H120a4.09,4.09,0,0,1-4.09-4.09v-14.26a4.1,4.1,0,0,1,4.1-4.1Z"/></svg>