<svg id="Layer_1" data-name="Layer 1" xmlns="http://www.w3.org/2000/svg" viewBox="0 0 2653.5 2653.5"><defs><style>.cls-1{fill:#dbe4f0;}.cls-2{fill:#206799;}.cls-3{fill:#e5c5a3;}.cls-4{fill:#e1b98e;}.cls-5{fill:#161c43;}.cls-6{fill:#f48c7f;}.cls-7{fill:#999ee0;}.cls-8{fill:#1f274e;}.cls-9{fill:#585aa2;}.cls-10{fill:#fff;}.cls-11{fill:#acb0e8;}.cls-12{fill:#22334a;}.cls-13{fill:#4a7980;}.cls-14{fill:#64a4ac;}.cls-15{fill:#d8a772;}.cls-16{fill:#e6c7a4;}.cls-17{fill:#a27d55;}</style></defs><path class="cls-1" d="M763.24,2177.92c-234.26-65-280.13-458.9-56-725.91,177.53-211.53-242-746.79,231.31-955.87C1389.16,297.07,2072,796.94,2138.26,1545.21c42.43,478.91-233.08,632.69-233.08,632.69Z"/><path class="cls-2" d="M2126,2182.9H512.73a12.28,12.28,0,0,1-12.28-12.28h0a12.27,12.27,0,0,1,12.26-12.28H2126a12.27,12.27,0,0,1,12.28,12.26v0h0A12.27,12.27,0,0,1,2126,2182.9Z"/><path class="cls-3" d="M1500.51,1490c-6.69-15-15.1-61.62-17.92-77.46,1.33-10.3,2.62-12.56.8-19.45-2.44-9.19-7.09-13-11-15.45s-16.8-21.94-22.19-20.39,11,23.54,7.47,21.37-11-27.26-18.59-25.07,11.3,30,7.21,31.15-12.88-19.55-19-17.79,13.37,27.75,11.3,26.47-16.6-11.19-18.54-8.41c-2.19,3.13,32.1,32.27,33.12,40.8h0c-.24,21.91-1.13,61.64,8.5,85.52,11.77,29.21,40.86,93.81,40.86,93.81L1548,1589S1508.51,1507.83,1500.51,1490Z"/><path class="cls-4" d="M1452,1385.24c-5.72.35-15.65.82-18.27-.06h0c1.17-1.48,4.41-2.53,8.48-3.26,1.6,1.93,3,3.16,4.09,2.85.82-.23.71-1.53.09-3.47a145.84,145.84,0,0,1,22.41-.82c2.17.34,6.07,8.84,6.07,8.84a3.81,3.81,0,0,1-4.33,0C1465.51,1385.77,1457.7,1384.85,1452,1385.24Z"/><path class="cls-4" d="M1469.61,1389.24a18.2,18.2,0,0,0-5.39,5.06,17.81,17.81,0,0,0-2.92,15.27C1461.73,1404,1462.24,1397.83,1469.61,1389.24Z"/><path class="cls-5" d="M1634.51,1443.16s19.35-8.88,32.67,3.6,9.25,22,9.25,22,23.83,4.25,21.94,26.93-6,24.61-6,24.61,8.91,9.76,6.16,21.45-13.73,14.89-13.73,14.89-7.22,19.32-23.48,22-21.72-.4-21.72-.4-9,12.11-35,6.77c-9.51-2-15.52-6.55-16.46-8.86,0,0-20.23-3.25-27.24-12.22-12.29-15.74-6.68-26.46-6.68-26.46s-13.3-24.15-3.22-41.87c8-14.09,13.34-12.28,13.34-12.28s-6.53-34.73,24.74-28.59C1589.06,1454.67,1601.1,1426.62,1634.51,1443.16Z"/><path class="cls-3" d="M1802.23,1596.61s-2-7.38,3-19.64c3.21-7.86,2.78-23.14,7.32-20.33s-.33,16.74,3.46,15.51,15.85-29.65,20-27.1-9,28.62-5.57,27.52,12.82-26.19,18.64-22.59-13.7,28.47-10.58,30.4,15-14.08,19.71-11.18-17.26,21.07-15.25,20.43,16.23-6,17.21-3.16c1.12,3.21-28.42,16.13-31.16,23.3s-48,80.59-63,82.24-87.34-36.73-93.83-51-2.08-30.7,7.52-33.81,77.34,35.39,80.36,34.41S1802.23,1596.61,1802.23,1596.61Z"/><path class="cls-6" d="M1815.37,1577.3a18.61,18.61,0,0,1,3.64,6.44,17.89,17.89,0,0,1-1.76,15.45C1818.51,1593.73,1819.85,1587.67,1815.37,1577.3Z"/><path class="cls-7" d="M1525.81,1535.48s-10.26,3.08-41.87,46l53.89,85.76,27.77-80.08Z"/><path class="cls-3" d="M1515.29,1904.5s-2.06,42.31-2.06,68.11S1553,2099.54,1549.35,2114s37.44,12.48,37.44,12.48,2.8-78.53-7.78-115.68,0-113.51,0-113.51Z"/><path class="cls-3" d="M1615,1884.1s13.33,69.93,24.17,85.93,69.14,124.87,69.14,138.8,36.63,2.58,36.63,2.58-31-119.2-43.34-155.31a430,430,0,0,1-17-66Z"/><path class="cls-8" d="M1514.78,1814.72c-3.8,23-19.22,162.78-19.22,162.78s52.61,16.16,84.08,8.93c0,0,1.67-109.44,8.89-109.44h0c10.32,0,15.58,10.27,18.07,20.29,6,24.22,24,91.32,24,91.32s70.69-10.12,85.14-16.83c0,0-26.4-157.25-50.65-181.5l-29.1-26.12-106-13.67S1517.51,1798.44,1514.78,1814.72Z"/><path class="cls-9" d="M1486.91,2158.36h112.74s2.33-40.76-5.41-48.5-5.68,1-18.58,5.91-21.29-7-27.19-12.86-1.71,18.82-26.47,18.82S1481.24,2147,1486.91,2158.36Z"/><path class="cls-9" d="M1707.09,2104.34c-5.83,1.34-24.19,16.31-30.27,32.5s-4.35,22-4.35,22,18.65,8.29,54.46,5.67,30.33-6.54,30.33-6.54-2.55-36.84-8.64-48S1717.3,2102,1707.09,2104.34Z"/><path class="cls-10" d="M1599.65,2158.36s.49-8.46.28-18.41c-13.22,5.71-85.76,4.8-112.12,4.26-2.3,5.29-2.74,10.46-.9,14.15Z"/><path class="cls-10" d="M1726.93,2164.49c35.81-2.61,30.34-6.54,30.34-6.54s-.59-8.49-1.87-18.55h0c-24.93,22.25-63.85,10.89-80.88,4.27-3.28,11-2,15.15-2,15.15S1691.12,2167.11,1726.93,2164.49Z"/><path class="cls-11" d="M1610.51,1591.85s-37.75-5.54-46.4-6.6c-12.63,14.66-50.9,164.23-50.28,218.43,45.9,16.49,147.93,38.83,178,37.79,0,0-4.69-38.51-7.79-56.54-7.57-44-13.69-98.9-13.69-114,0-8.86,45.82,21.82,45.82,21.82l19.2-69.4s-58.51-23.5-79-27.73C1650.6,1594.49,1610.51,1591.85,1610.51,1591.85Z"/><path class="cls-3" d="M1597.12,1556.59s5.09,37.07-5.71,47.11c-11.39,10.59,41.26,7.67,45-9.82,2-9.46-5.19-51.19-5.19-51.19Z"/><path class="cls-6" d="M1631.2,1542.69l-34.08,13.9a158.68,158.68,0,0,1,1.2,19.48c8.32,1.22,17.81-.57,28-6.57a58.51,58.51,0,0,0,8-5.69C1632.91,1552.57,1631.2,1542.69,1631.2,1542.69Z"/><path class="cls-3" d="M1648.31,1530.32c-2.73,7.63-.77,15.32,4.39,17.17s11.56-2.84,14.3-10.47.77-15.32-4.39-17.17S1651.05,1522.69,1648.31,1530.32Z"/><path class="cls-3" d="M1557.51,1511.58c-.38,8.1,3.75,14.88,9.22,15.13s10.22-6.09,10.61-14.19-3.75-14.88-9.22-15.14S1557.9,1503.48,1557.51,1511.58Z"/><path class="cls-3" d="M1622.81,1461.67a48.08,48.08,0,0,1,26.18,20.41c9.7,16,15,62.44-19.56,82.73s-59.8-11.13-59.14-40.86S1584.15,1456.24,1622.81,1461.67Z"/><path class="cls-4" d="M1482.39,1396.43c.3-6.44-2.74-11.76-4.75-14.49s-12.9-7.65-14.92-8.62c-1.29-.34-2.21,6.09,2.41,9.27s5.63,5.2,3.48,10.72C1476.86,1402.09,1482.39,1396.43,1482.39,1396.43Z"/><path class="cls-3" d="M1313.8,1465.35s-5.22-8.43-6.73-11.36c-1.78-3.43-6.31-14.12-6.31-14.12s-14-37.93-11.09-38.69,9,4.47,10.68,6.52,3.88,4.3,5.57,6.35,4.63,2.53,7.34.66-2.25-11.47-4.64-14.47c-7.43-9.32-32.33-30.36-34.87-32.69-3-2.77-15.06-72.82-21.12-96.53h0c-8.76-39.08-15.78-79.65-16.68-83.8l13-170.28-61.54-29.7s-17.07,188.73-16.85,198.28c.12,4.54,27.51,93.64,27.55,93.64,16.28,43.07,30.74,81,33.31,88.34,0,0,1.7,24,1.87,39.29s6.59,29.45,7.27,33.72a98.25,98.25,0,0,0,10.46,32c7.5,14.14,7-2.68,7-2.68s-9.13-28.68-6.71-29c1.86-.24,5.9,15.71,14,31.45,2.09,4,4.17,8,6.11,11.68,5.09,9.58,12.49,9.22,8.78-1.64a107.74,107.74,0,0,0-6-14.42c-2.49-4.62-3.27-9.65-4.77-13.85-3-8.33-5.24-14.36-4.83-14.29s1.13-2,3.49,2.24c2.83,5.08,6.42,17.2,11.17,24.36,2.69,4,7.8,12.87,7.8,12.87s9.85,13.41,10.76,13c4.9-2,.62-13.53-3.77-18.56-1.12-4.63-6.76-13.76-6.76-13.76s-7.2-21-4.22-22c2.46-.87,29.54,46.1,34.3,43.81C1321.3,1479.83,1313.8,1465.35,1313.8,1465.35Z"/><path class="cls-12" d="M1133,644.51c-127,36-206.28,163-225.06,287.63-7.46,49.49,2.65,105.12,33,145.68,37.39,50,99.88,58.5,155.43,33,50.65-23.22,65.77-70.68,102.85-107.35,19.35-19.13,1.31-114.43,17.72-136,29.15-38.29,63.29-87.22,60.21-137.62C1272.06,646.4,1210.22,622.58,1133,644.51Z"/><path class="cls-3" d="M929.28,2009.42s-5.72,56.81-20.42,67.24-34.29,49-24.49,69.9c3.06,6.52,9.18,10.29,16.16,12.39,20.65,6.22,42.61-4.26,51.4-23.58A117.55,117.55,0,0,0,962,2092.05c2.2-46.16,16.9-69.63,16.9-69.63Z"/><path class="cls-3" d="M1155.12,2032.67s4.63,57.33.87,76c-2,10-13.23,30.51-8.08,39.9s11,11.74,11,11.74l133.31,2.1c7.26.11,2.46-4.45-3.39-8.66-9.58-6.88-17.32-11.43-47.93-25.9-2-.94-9.27-5.46-11.89-7-6.65-4-13.32-10.21-19.07-16.46-9.57-10.41-10.41-60.89-10.41-60.89Z"/><path class="cls-13" d="M1259.31,1270.62s9.52,91.87,5.77,154.11c-3.73,61.86-63.93,626.66-63.93,626.66l-58.79,3.24s-12.32-236.28-10.12-269.13,19.65-87.85,19.65-87.85L1146,1506.87l74.19-250.63Z"/><path class="cls-14" d="M1086.51,1251s-46.29,68.07-57.31,124.4,8.09,229.45-13.12,303.26c-11.48,40-55,101.66-61.59,153.3s-32.56,186.89-32.56,186.89l58.78,11.35,136.57-337.79,98.85-281.73a303.94,303.94,0,0,0,12.57-48.16l23.15-132.66Z"/><path class="cls-15" d="M1124,863.78s-47.1,3.56-64.79,30.32c-19.47,29.45,39.19,233.35,43.6,266.21s-29.12,111.18-29.12,111.18,144.47,25.75,185.62-.87c0,0,4.41-236.28,0-259.75s-41.15-118.92-50-128.31S1124,863.78,1124,863.78Z"/><path class="cls-3" d="M1144.4,783.78s-.32,1.76-.89,4.76c-2.73,14.4-13.25,62.15-20.36,75.28-8.59,15.86,29.41,66.46,66,60.28,10.89-1.83-9.2-46.49-8.24-51.22,1.85-9,4.36-21.4,6.92-34.07,1.45-7.14,2.91-14.39,4.29-21.19,3.91-19.35,7.1-35.18,7.1-35.18Z"/><path class="cls-4" d="M1143.51,788.54c.57-3,.89-4.76.89-4.76l54.81-1.34s-3.19,15.83-7.1,35.18c-1.37,6.77-2.82,14-4.26,21.07-8.47-1.21-17.31-5.23-26.18-12.81a67.43,67.43,0,0,1-19.82-28.8C1142.51,793.69,1143.09,790.77,1143.51,788.54Z"/><path class="cls-3" d="M1208.76,674.75a65.12,65.12,0,0,0-42.46,15.35c-20,16.82-49.66,75.35-17.09,117.07s79.3,11.49,93.3-27.79S1266.51,685,1208.76,674.75Z"/><path class="cls-12" d="M1216.93,676.62s-51,55.17-75.8,53-39.91,17.2-39.91,17.2,23.33-70.43,50.12-79.48S1216.93,676.62,1216.93,676.62Z"/><path class="cls-13" d="M955.94,2125.24c-32,5.7-53.34-12.6-64.43-26.31-8.14,15.53-13.13,34.9-7.14,47.65,5.27,11.23,19.63,14.3,31.77,14.74a34.61,34.61,0,0,0,31.19-17A103.9,103.9,0,0,0,955.94,2125.24Z"/><path class="cls-13" d="M1229,2120.78c-35.25,8.83-61.32,2.83-75.9-2.92-3.76,10.41-8.74,23.47-6.1,31,3.24,9.22,7.85,11.3,11.92,11.41,32.2.83,118,2,142.52,2.26a3.92,3.92,0,0,0,3.11-6.44C1298.51,2149,1231.64,2122.34,1229,2120.78Z"/><path class="cls-16" d="M1143.74,737.32c2,10.68-2,20.49-9,21.89s-14.28-6.13-16.29-16.81,2-20.48,9-21.89S1141.73,726.63,1143.74,737.32Z"/><path class="cls-3" d="M1180.66,1465.35s-5.22-8.43-6.74-11.36c-1.78-3.43-6.3-14.12-6.3-14.12s-14-37.93-11.09-38.69,9,4.47,10.68,6.52,3.87,4.3,5.57,6.35,4.62,2.53,7.33.66-2.25-11.47-4.6-14.47c-7.43-9.32-32.34-30.36-34.87-32.69-3-2.77-15.07-72.82-21.13-96.53,0,0-14.22-100-15.12-104.12l11.4-150-78.37-64.37s10.92,218,11.16,227.5c.12,4.54,47.12,180.07,49.69,187.43,0,0,1.7,24,1.88,39.29s6.56,29.41,7.29,33.72a98.25,98.25,0,0,0,10.46,32c7.49,14.14,6.94-2.68,6.94-2.68s-9.12-28.68-6.71-29c1.86-.24,5.91,15.71,14,31.45,2.09,4,4.17,8,6.11,11.68,5.09,9.58,12.49,9.22,8.78-1.64a107.74,107.74,0,0,0-6-14.42c-2.5-4.62-3.28-9.65-4.77-13.85-3-8.33-5.25-14.36-4.83-14.29s1.13-2,3.48,2.24c2.83,5.08,6.43,17.2,11.18,24.36,2.69,4,7.79,12.87,7.79,12.87s9.86,13.41,10.76,13c4.91-2,.62-13.53-3.76-18.56-1.13-4.63-6.76-13.76-6.76-13.76s-7.22-21-4.22-22c2.46-.87,29.53,46.1,34.31,43.81C1188.16,1479.83,1180.66,1465.35,1180.66,1465.35Z"/><path class="cls-17" d="M1032.51,1084.58s83.48-11.26,95.83-23.72c0,0-11.72-162.73-35.49-176.35s-45,12.06-54.82,47.54S1027.79,1073,1032.51,1084.58Z"/></svg>