<svg id="Layer_1" data-name="Layer 1" xmlns="http://www.w3.org/2000/svg" viewBox="0 0 2653.5 2653.5"><defs><style>.cls-1{fill:#dbe4ee;}.cls-2{fill:#498280;}.cls-3{fill:#20374a;}.cls-4{fill:#184655;}.cls-5{fill:#da9970;}.cls-6{fill:#182e41;}.cls-7{fill:#a37254;}.cls-8{fill:#10121f;}.cls-9{fill:#e0aa94;}.cls-10{fill:#966343;}.cls-11{fill:#251851;}.cls-12{fill:#e4bba0;}.cls-13{fill:#e1aa92;}.cls-14{fill:#de745a;}.cls-15{fill:#efe7bd;}.cls-16{fill:#434c7c;}.cls-17{fill:#e2d591;}.cls-18{fill:#3c8f7c;}.cls-19{fill:#50bfa5;}.cls-20{fill:#ebefd1;}.cls-21{fill:#fae0b2;}.cls-22{fill:#db9d77;}.cls-23{fill:#1e2c4e;}.cls-24{fill:#acb6dc;}.cls-25{fill:#5863a2;}.cls-26{fill:#aeb9dd;}.cls-27{fill:#df9a6f;}</style></defs><path class="cls-1" d="M559.7,2138.38c-333.83-60.72-399.19-429-79.85-678.71,253-197.74-344.79-698.18,329.63-893.64C1451.65,379.9,2424.7,847.26,2519.15,1546.86,2579.6,1994.61,2187,2138.38,2187,2138.38Z"/><polygon class="cls-2" points="841.01 2124.24 808.7 2124.24 799.98 2034.43 849.73 2034.43 841.01 2124.24"/><polygon class="cls-2" points="664.63 2124.24 632.33 2124.24 623.6 2034.43 673.36 2034.43 664.63 2124.24"/><polygon class="cls-3" points="984.43 2124.24 952.14 2124.24 943.41 2034.43 993.16 2034.43 984.43 2124.24"/><rect class="cls-4" x="811.35" y="792.5" width="5.94" height="309.17"/><rect class="cls-4" x="766.63" y="836.64" width="14.42" height="595.88"/><path class="cls-4" d="M880.91,1439.43c-51.19,0-92.64-11.69-92.64-26.1,0-2.66,1.42-5.23,4.05-7.65l-.45-.17H754.49c2.72,2.45,4.18,5.06,4.18,7.8,0,18.45-58.1,26.22-93.86,26.1h0v5.64H883.19v-5.66h-2.28Z"/><path class="cls-4" d="M719.71,819.05H838.06v4.11c0,10-7.72,18.15-17.25,18.15H737c-9.52,0-17.25-8.1-17.27-18.13v-4.13Z"/><path class="cls-5" d="M948.64,803.43c0,5-20.11,9.57-52.47,12.77-108.24,10.73-289.69,2.93-289.69-12.77,0-.62,111.78-217.27,111.78-217.27H836.84S948.64,802.81,948.64,803.43Z"/><path class="cls-4" d="M824.54,1104.92a10,10,0,1,1-10-9.69A9.86,9.86,0,0,1,824.54,1104.92Z"/><rect class="cls-2" x="461.12" y="1445.06" width="554.33" height="591.45"/><rect class="cls-3" x="854.7" y="1445.06" width="160.76" height="591.45"/><rect class="cls-4" x="476.76" y="1638.8" width="378.46" height="10.2"/><rect class="cls-4" x="476.76" y="1802.46" width="378.46" height="10.2"/><path class="cls-6" d="M1998.36,2124.25l-9.55-326c-.42-14.79-11.93-26.56-26-26.56H1962c-14.38.46-25.67,13.1-25.23,28.23v0c0,.59.07,1.3.13,1.95l31.26,322.43Z"/><path class="cls-6" d="M2193.6,2125.6l9.56-326c.42-14.79,11.94-26.55,26-26.55h.83c14.37.47,25.66,13.1,25.22,28.22v0c0,.58-.07,1.29-.12,2l-31.27,322.42Z"/><path class="cls-7" d="M2248.91,1829.53H1929.85c-22.89,0-41.45-19.53-41.45-43.61h0c0-29.75,22.92-53.86,51.19-53.87h299.58c28.27,0,51.19,24.12,51.19,53.87h0C2290.36,1810,2271.8,1829.53,2248.91,1829.53Z"/><path class="cls-8" d="M2572.63,2124.24H195.51a10,10,0,0,0-1,19.93l.64,0H2572.67a9.74,9.74,0,0,0,9.48-10h0a9.73,9.73,0,0,0-9.48-10Z"/><path class="cls-9" d="M2448,2124.26c-.8-5-4.58-8.77-9.12-8.77H2272c-4.55,0-8.33,3.77-9.12,8.77Z"/><path class="cls-9" d="M2322.3,2115.67l-51.05-.14s10-21.07,27.94-31.27,48.9-10,48.9-10Z"/><path class="cls-10" d="M2358.5,2115.76s3.46-40.26-9.77-41.51-26.44,41.39-26.44,41.39Z"/><path class="cls-9" d="M2565.19,2124.21c-.59-20.68-18.14-37.26-39.72-37.26s-39.11,16.58-39.7,37.26Z"/><path class="cls-9" d="M2570.14,2124.3c-.39-5-2.26-8.71-4.5-8.71h-82.17c-2.24,0-4.1,3.76-4.5,8.71Z"/><path class="cls-11" d="M1100.56,972.94c37.62-5.62,72.6,9.21,99,37.89,60.49,65.65,13.84,107.7,33.73,193.68-11.11,13-24.9,23.3-42.83,28.34-84.77,24.9-179.9,10.88-244-56.68l-1-1c18-49,48.23-116.52,60.56-132.7C1029.94,1011.2,1054.09,979.9,1100.56,972.94Z"/><path class="cls-12" d="M1096.31,1155.25s-.36,2-1,5.47c-3.17,16.57-13.09,65.71-21.3,80.78-10,18.21,22.55,100.16,65,93.06,12.64-2.1-7.19-44-2.91-64.33,2.41-11.48,9.74-47.23,15.66-76.13,4.53-22.21,8.24-40.37,8.24-40.37Z"/><path class="cls-13" d="M1095.28,1160.72c-.3,1.58-.66,3.46-1.08,5.57a76.76,76.76,0,0,0,18,22c12.84,10.85,25.64,15.34,37.59,15.18.65-3.18,1.29-6.33,1.92-9.38,4.54-22.21,8.24-40.37,8.24-40.37l-63.66,1.53S1096,1157.28,1095.28,1160.72Z"/><path class="cls-12" d="M1140.3,1009.09a76.2,76.2,0,0,0-44.78,27c-18.8,23.49-39.07,96.11,7.65,135.59s92.89-5.21,99.73-52.63S1208.37,1007.39,1140.3,1009.09Z"/><path class="cls-12" d="M1210.11,1118.51c-5.56,10.46-14.93,16.26-20.91,12.93s-6.29-14.48-.71-25,14.94-16.26,20.91-12.94S1215.69,1108,1210.11,1118.51Z"/><path class="cls-11" d="M1148.22,1008s-40.09,69.06-68.77,72.26-32.42,39.89-32.42,39.89,10.25-84.56,38.64-100.87S1148.22,1008,1148.22,1008Z"/><path class="cls-12" d="M1088.83,1096.7c2.33,12.26-2.36,23.51-10.48,25.11s-16.59-7-18.92-19.29,2.35-23.51,10.48-25.12S1086.49,1084.39,1088.83,1096.7Z"/><path class="cls-14" d="M846.45,1298.92l7.85-4.22c46.64-25.06,103.07-4.3,126.28,46.44l171.63,375.34c21,46,69.06,69.28,114.47,55.45l313.62-95.53c42.32-12.88,86.15,14.62,97.12,61h0l-517,185Z"/><path class="cls-13" d="M2055.28,1676.78s253.92-15.66,263.84.87-86.81,40.09-95.94,46.13c-77.81,51.44-70.8,19.77-88.17,15.42s-64.85-6.72-64.85-6.72Z"/><path class="cls-15" d="M1185.14,1787.18s9.17,18,17.86,22.42c32,16.32,94.07-8.45,94.07-8.45l390.22-94.87,413.56,28.88s14.1-53.19,7.27-75l-378.79-83.94L1294.5,1622.7Z"/><path class="cls-14" d="M1677.42,1745h0c-1.54-12.38-3.58-24.67-10.78-33.73-19.06-24-55.25-33.8-85.8-24.83l-373,121.08a10,10,0,0,1-9.46-1.86c-3.7-3.05-8.57-6.82-9.26-6.11-16.68,16.64-26.28,122-26.28,122l.5,1Z"/><path class="cls-12" d="M2006.47,1686.51s38.41,16.27,70.41,33.31c13.79,7.34,29.36,22.62,35.2,24.13,27.63,7.15,33.74-9.9,44.9-27.52,7.05-11.13,37.52-42.09,57.35-63.23,11.6-12.37,19.25-29.9,14.07-35.69-15.51-17.33-53.6,27.71-85.3,39.26-16.8,6.12-35,.72-52.9-3.69-21.21-5.23-48.94-22.42-48.94-22.42Z"/><path class="cls-16" d="M1138.44,1964.92c-13.29,0-25.45-7.89-31.49-20.36L814.33,1345.21c-9.05-18.46-2.29-41.15,15.14-50.88,17.28-9.5,38.6-2.48,47.64,15.69.07.14.14.28.2.42l292.63,599.35c9,18.46,2.3,41.14-15.14,50.88A33.76,33.76,0,0,1,1138.44,1964.92Z"/><path class="cls-16" d="M1706.47,1752.14c-5.78-20.74-26.44-32.62-46.15-26.54h0L1125,1890.87l29.64,72.43,526.61-162.59C1701,1794.62,1712.25,1772.87,1706.47,1752.14Z"/><path class="cls-16" d="M1093.27,2124.24,1165.7,1938c.38-1,.75-2.06,1-3.1,5.55-18.26-4-37.8-21.36-43.65s-35.92,4.22-41.48,22.48c-.11.35-.21.71-.31,1.07L1044,2122.12c-.19.68-.36,1.44-.5,2.12Z"/><path class="cls-17" d="M1306.72,1620.5s263.48-157.75,367.78-171.33C1714.16,1444,2089.69,1648,2089.69,1648l-39.25,71.37s-228.76-61.14-298.9-91.21c-20.14-8.63-75.23-46-75.23-46Z"/><path class="cls-13" d="M1131.36,1280s228.71,177.25,251.05,180.32c16.78,2.3,185.09-51.83,185.09-51.83l-31.63,66.14s-138,81.68-187.42,79.49c-57.93-2.57-193.82-123.21-193.82-123.21Z"/><path class="cls-18" d="M1317.43,1424.79s-53.56,81.11-54.86,102.87l-112.47-89.27L1131.36,1280Z"/><path class="cls-19" d="M1013.13,1235.13s-27.73,79.93-16.56,176.54S1185,1804.11,1185,1804.11s37.47-6.11,65.91-41.3c11.94-14.78,55.82-142.31,55.82-142.31s-55.82-57.43-60.79-95.29-10.42-78.35-25.31-137.09S1066.47,1209,1013.13,1235.13Z"/><path class="cls-16" d="M1013.44,1687.07l498.1-31.61,38.1,55.89c5.56,269.74,6.66,374.06,6.88,413h48.39c2.66-43.48,8.15-151.93,18.92-422.34-.08,0-76.74-80.11-96.14-95.32l-516.76,2.16c-20.57.1-37.16,17.72-37.07,39.36s16.84,39.09,37.4,39c.73,0,1.45,0,2.18-.07Z"/><path class="cls-12" d="M1193,1382.22l-81.15,127.59s-12.43-85.83-22.15-178.13c-37.68,5.38-71.23,16-104,35.2,15.79,89.87,67,240.19,113.71,258.31,36.33,14.1,103.93-173.5,103.93-173.5Z"/><path class="cls-18" d="M1090.35,1300.1c-5.56-28.36-12.11-56.82-41.26-65.82-18-5.57-38.31-.23-52.75,12.2-17.17,14.81-22,38.56-21.89,61,.19,51,15.16,100.83,30,150.45,32.75-19.19,62.73-13.23,100.41-18.61C1108.4,1393.94,1097.68,1337.07,1090.35,1300.1Z"/><path class="cls-7" d="M1242.68,1435.3h13.67l-1.71-15.32h-12c-5.65,0-10.24-6.83-10.24-15.33v-15.33c0-8.45,4.63-15.32,10.24-15.32h15.38v-15.31h-15.38c-11.3,0-20.49,13.74-20.49,30.63v15.33C1222.19,1421.54,1231.38,1435.3,1242.68,1435.3Z"/><path class="cls-7" d="M1336.81,1356.35v73.1c0,16.75-12.92,30.33-28.84,30.36h-24.75c-16,0-28.89-13.58-28.91-30.36V1347.1h82.5Z"/><path class="cls-12" d="M1231.4,1358.3c6.93-.19,22.6,9.44,24.53,17.54s-2.12,17.27-1.76,23c.32,5.11,1.56,13.28-.24,19.88-.5,1.84-9.58,12.46-10.7,16.43s-41,19.4-41,19.4l-9.79-71.88S1201.6,1359.07,1231.4,1358.3Z"/><path class="cls-14" d="M1437.43,1245.82,1381.84,1493c-1.32,5.9.77,11.88,4.64,13.16l85.64,28.56L1524.17,1315l-75.85-75.64C1444.49,1235.56,1439,1238.8,1437.43,1245.82Z"/><path class="cls-20" d="M1393.54,1482.55l48.38-215.11c1.58-7,7.06-10.26,10.89-6.44l60.44,60.26-46.72,197.22-68.37-22.81C1394.31,1494.43,1392.22,1488.44,1393.54,1482.55Z"/><path class="cls-14" d="M1499.18,1221.4l-115,303.74c-2.64,7-.13,14.16,5.27,14.92l125.82,17.84L1608,1318.21l-94.16-103C1509.55,1210.53,1502.09,1213.7,1499.18,1221.4Z"/><path class="cls-13" d="M1586.68,1405.42s.92-25.49-8.52-18.87-8,21.93-10.4,25-8,8.16-9.46,18.35-8,17.33-9,24a61.11,61.11,0,0,0-.48,12.24s30.74-4.08,31.7-17.84S1586.68,1405.42,1586.68,1405.42Z"/><path class="cls-21" d="M180.18,1718.49c-.68,6.14,3.5,11.69,9.32,12.41a10.77,10.77,0,0,0,11.79-9.81c.68-6.13-3.49-11.68-9.31-12.4a10.74,10.74,0,0,0-11.79,9.78Z"/><path class="cls-22" d="M196,1725.94c-4,6.36-13.43,2.74-12.58-4.81a7,7,0,0,1,7.62-6.34,7.16,7.16,0,0,1,6,8,7.49,7.49,0,0,1-1.07,3.12Z"/><path class="cls-21" d="M126.9,1735.37a11.59,11.59,0,0,1-1.27,15.76,10.26,10.26,0,0,1-15-1.33,11.59,11.59,0,0,1,1.26-15.75,10.25,10.25,0,0,1,15,1.32Z"/><path class="cls-22" d="M124.77,1749.65a6.64,6.64,0,0,1-9.69-.85,7.53,7.53,0,0,1-.5-8.64,7,7,0,0,1,1.31-1.56,6.64,6.64,0,0,1,9.71.5,7.51,7.51,0,0,1-.47,10.22l-.37.33Z"/><path class="cls-21" d="M174.83,1718.18A10.64,10.64,0,1,1,164.17,1707a10.91,10.91,0,0,1,10.66,11.15Z"/><path class="cls-22" d="M164.48,1727.72a7.07,7.07,0,0,1-6.88-7.24,7.5,7.5,0,0,1,1.11-4c3.77-6,12.61-3.12,12.63,3.9a7.08,7.08,0,0,1-6.84,7.29Z"/><path class="cls-21" d="M222.06,1737.47a10.27,10.27,0,0,1-15,1.42,11.6,11.6,0,0,1-1.35-15.75,10.27,10.27,0,0,1,15-1.42A11.6,11.6,0,0,1,222.06,1737.47Z"/><path class="cls-22" d="M218,1736.77a6.65,6.65,0,0,1-9.68.93,7.5,7.5,0,0,1-.88-10.19,6.65,6.65,0,0,1,9.68-.93h0A7.52,7.52,0,0,1,218,1736.77Z"/><path class="cls-21" d="M141.65,1866.5a11.47,11.47,0,0,0-4.72-15,10.39,10.39,0,0,0-14.28,5,11.47,11.47,0,0,0,4.72,15h0A10.4,10.4,0,0,0,141.65,1866.5Z"/><path class="cls-22" d="M139.09,1863.58a6.67,6.67,0,0,1-9.52,2.07,7.47,7.47,0,0,1-2-10,6.68,6.68,0,0,1,8.82-2.49,7.4,7.4,0,0,1,3.07,9.69A6.79,6.79,0,0,1,139.09,1863.58Z"/><path class="cls-21" d="M106.05,1828.61a11.41,11.41,0,0,0,5.55-14.7,10.42,10.42,0,0,0-14-5.83,11.41,11.41,0,0,0-5.56,14.68,10.44,10.44,0,0,0,14,5.85Z"/><path class="cls-22" d="M109.63,1821.68a6.67,6.67,0,0,1-9.52,2.07,7.47,7.47,0,0,1-2-10,6.93,6.93,0,0,1,3-2.67,6.76,6.76,0,0,1,9,3.78A7.56,7.56,0,0,1,109.63,1821.68Z"/><path class="cls-21" d="M101.9,1775.49a10.56,10.56,0,0,0,13.23-7.51,11.29,11.29,0,0,0-7.13-13.92,10.55,10.55,0,0,0-13.23,7.51,11.28,11.28,0,0,0,7.13,13.91Z"/><path class="cls-22" d="M100.89,1769.12a7.42,7.42,0,0,1,2.78-9.8,6.7,6.7,0,0,1,9.31,2.93,7.57,7.57,0,0,1,.54,5.51,6.79,6.79,0,0,1-8.42,5A6.86,6.86,0,0,1,100.89,1769.12Z"/><path class="cls-21" d="M108.46,1833.65a10.34,10.34,0,0,1,14.52,4.08,11.5,11.5,0,0,1-3.87,15.27,10.35,10.35,0,0,1-14.52-4.07A11.52,11.52,0,0,1,108.46,1833.65Z"/><path class="cls-22" d="M113.75,1849a7.27,7.27,0,0,1-4.89-8.84,6.85,6.85,0,0,1,8.4-5.14,6.93,6.93,0,0,1,4.19,3.36,7.43,7.43,0,0,1-2.49,9.88A6.59,6.59,0,0,1,113.75,1849Z"/><path class="cls-21" d="M131.17,1732a10.32,10.32,0,0,0,14.73,3.2,11.55,11.55,0,0,0,3-15.5,10.33,10.33,0,0,0-14.73-3.2h0A11.55,11.55,0,0,0,131.17,1732Z"/><path class="cls-22" d="M144.78,1733.91a6.64,6.64,0,0,1-9.48-2.09,7.45,7.45,0,0,1,2-10,6.64,6.64,0,0,1,9.48,2.09,7.54,7.54,0,0,1,0,7.91A7.17,7.17,0,0,1,144.78,1733.91Z"/><path class="cls-21" d="M100.68,1781a11.15,11.15,0,0,1,8.66,12.93A10.69,10.69,0,0,1,97.06,1803a11.14,11.14,0,0,1-8.66-12.92,10.69,10.69,0,0,1,12.28-9.12Z"/><path class="cls-22" d="M99.83,1799.25a7.21,7.21,0,0,1-5.6-8.36,6.92,6.92,0,0,1,8-5.89,7.21,7.21,0,0,1,5.6,8.36v0A6.93,6.93,0,0,1,99.83,1799.25Z"/><path class="cls-22" d="M176.08,1789.32l13-58.62-2-.48-13.52,61.08L166.71,1729l-2,.23,6.59,59.79-25.88-53.66-1.79,1,27,55.92-43.3-43.09-1.39,1.54L167.47,1792l-52.61-23.61-.79,2L168.9,1795l-59.49-3.67-.12,2.1,57.09,3.52-54.72,17.55.58,2,57-18.22-47.83,37.42,1.2,1.69,45.87-36-31.24,50.42L139,1853l70.24-112.77-1.68-1.16Z"/><polygon class="cls-22" points="171.36 1797.96 176.09 1790.37 401.69 1945.8 396.97 1953.38 171.36 1797.96"/><path class="cls-21" d="M288.33,1432.64a19.57,19.57,0,0,0,4.14,26.41,17.42,17.42,0,0,0,25.1-4.35,19.58,19.58,0,0,0-4.12-26.41A17.44,17.44,0,0,0,288.33,1432.64Z"/><path class="cls-22" d="M306,1457.3c-10.86,6-22-7.51-14.9-18a11.27,11.27,0,0,1,16.24-2.82,12.66,12.66,0,0,1,2.68,17.08A11.92,11.92,0,0,1,306,1457.3Z"/><path class="cls-21" d="M196.3,1411.66c1.94,10.26-4.4,20.23-14.15,22.27s-19.22-4.64-21.16-14.9,4.4-20.22,14.16-22.26h0C184.9,1394.75,194.37,1401.41,196.3,1411.66Z"/><path class="cls-22" d="M182,1431c-6.3,1.33-12.43-3-13.69-9.61a12.45,12.45,0,0,1,6-13.22,11.24,11.24,0,0,1,11.91.66C194.82,1414.83,192.07,1428.86,182,1431Z"/><path class="cls-21" d="M280.67,1427.56c-4.79,9.17-15.73,12.52-24.44,7.48s-11.9-16.54-7.11-25.71,15.72-12.52,24.44-7.49h0c8.71,5,11.9,16.54,7.12,25.7Z"/><path class="cls-22" d="M258,1432.69a12.61,12.61,0,0,1-4.56-16.67,12,12,0,0,1,4.72-4.88c10.29-5.72,21.1,6.25,15.63,16.71a11.32,11.32,0,0,1-15.78,4.84Z"/><path class="cls-21" d="M335.61,1496.81c-9.27,3.78-19.69-1-23.29-10.79s1-20.71,10.25-24.5,19.69,1,23.29,10.79v0C349.44,1482.08,344.85,1493,335.61,1496.81Z"/><path class="cls-22" d="M330.12,1492.35a11.46,11.46,0,0,1-15.06-7,12.45,12.45,0,0,1,6.63-15.85,11.46,11.46,0,0,1,15.06,7h0A12.48,12.48,0,0,1,330.12,1492.35Z"/><path class="cls-21" d="M116,1618.55a19.55,19.55,0,0,0,4.69-26.31,17.44,17.44,0,0,0-25-4.93,19.54,19.54,0,0,0-4.69,26.3,17.44,17.44,0,0,0,25,5Z"/><path class="cls-22" d="M114.41,1612a11.36,11.36,0,0,1-15.71-5.15,12.56,12.56,0,0,1,4.89-16.53,11.3,11.3,0,0,1,15,3.93,12.65,12.65,0,0,1-3,17A11.1,11.1,0,0,1,114.41,1612Z"/><path class="cls-21" d="M92.74,1531.74c9.89,1,18.7-6.58,19.67-17s-6.25-19.67-16.14-20.69-18.69,6.57-19.67,17,6.25,19.67,16.13,20.7Z"/><path class="cls-22" d="M103.43,1524.56a11.35,11.35,0,0,1-15.69-5.17,12.55,12.55,0,0,1,4.91-16.51,11.18,11.18,0,0,1,6.52-1.34c11.44,1.19,14.45,17.37,4.27,23Z"/><path class="cls-21" d="M128,1449.52a17.36,17.36,0,0,0,25.44.3,19.63,19.63,0,0,0,.28-26.77,17.36,17.36,0,0,0-25.43-.3A19.64,19.64,0,0,0,128,1449.52Z"/><path class="cls-22" d="M131.46,1439.2c.06-6.76,5.33-12.19,11.75-12.12s11.58,5.61,11.52,12.37a12.64,12.64,0,0,1-3.5,8.63,11.15,11.15,0,0,1-16.34.11A12.49,12.49,0,0,1,131.46,1439.2Z"/><path class="cls-21" d="M92.39,1541.27c9.93-.22,18.16,8.07,18.37,18.52s-7.67,19.11-17.6,19.33S75,1571.06,74.79,1560.6h0C74.58,1550.15,82.46,1541.5,92.39,1541.27Z"/><path class="cls-22" d="M88.3,1568.51a12.69,12.69,0,0,1-.37-17.31,11.22,11.22,0,0,1,16.45-.38,12.46,12.46,0,0,1,3.59,8.58C108.19,1570.34,95.71,1576,88.3,1568.51Z"/><path class="cls-21" d="M205.22,1410.38c.76,10.43,9.4,18.24,19.31,17.45s17.34-9.88,16.59-20.31-9.39-18.25-19.31-17.46h0C211.89,1390.86,204.47,1400,205.22,1410.38Z"/><path class="cls-22" d="M223.89,1424.93c-6.39.49-12-4.56-12.43-11.28s4.33-12.59,10.73-13.08,11.95,4.55,12.43,11.28a12.35,12.35,0,0,1-6.19,11.71A11.4,11.4,0,0,1,223.89,1424.93Z"/><path class="cls-21" d="M121.91,1456.58a19.62,19.62,0,0,1,2.78,26.62,17.4,17.4,0,0,1-25.3,2.93,19.61,19.61,0,0,1-2.79-26.62h0A17.41,17.41,0,0,1,121.91,1456.58Z"/><path class="cls-22" d="M106.44,1482.9a12.68,12.68,0,0,1-1.79-17.21A11.25,11.25,0,0,1,121,1463.8,12.68,12.68,0,0,1,122.8,1481h0A11.27,11.27,0,0,1,106.44,1482.9Z"/><path class="cls-22" d="M227.07,1534l64.85-75.59-2.52-2.4-67.63,78.78,38.45-98.17-3.14-1.37-36.83,94.23,3.51-101.81-3.39-.14-3.69,106.08-30.57-101.14-3.24,1.08,29.35,97.08-59.51-80.37-2.73,2.2,62.07,83.74-85.23-56.79-1.85,3,81.8,54.5-94.68-21.32-.7,3.5,98.65,22.2-100,14.15.45,3.55,96-13.58L121,1593.09l1.59,3.16L314.4,1489.89l-1.57-3.16Z"/><polygon class="cls-22" points="207.78 1536.36 220.64 1529.22 432.68 1952.37 419.81 1959.51 207.78 1536.36"/><path class="cls-16" d="M409.18,1964.38s147.3-115,167.43-164.56-21.43-44-21.43-44,59.45-88.63,43.68-117.94-48.62,8.11-48.62,8.11,27.58-119.89,3.6-126.58c-44.68-12.41-81.32,116.67-81.32,116.67s3.29-53.61-24.68-46.36C405.68,1600.62,428,1716,428,1716s-13.44-20.47-36.57-1C349.93,1749.87,409.18,1964.38,409.18,1964.38Z"/><path class="cls-23" d="M385.18,1718c23.16-19.5,42.8-2,42.8-2s-22.31-115.43,19.86-126.31c28-7.22,24.68,46.36,24.68,46.36s36.64-129.06,81.32-116.63L408.09,1964C401.56,1936.25,346.43,1750.55,385.18,1718Z"/><path class="cls-24" d="M409.37,1960.38s150.9-.16,182-27.68-7.06-29.66-7.06-29.66,72.12-40.28,71.06-67.14-25.49-21.44-25.49-21.44,49.84-47,39.6-69.76c-15.75-35-87,31.38-87,31.38s5.44-26.62-16.68-32.17c-33.35-8.38-67.16,91.37-67.16,91.37s15.94-44.94-7-40C450.64,1804.27,409.37,1960.38,409.37,1960.38Z"/><path class="cls-16" d="M403.11,1969.23S269.17,1849,252.81,1800.53s22.93-40.46,22.93-40.46-51.46-88.14-34.76-115,45.79,10.82,45.79,10.82-19.34-115.86,3.87-120.68c43.21-9,70.65,116.16,70.65,116.16s0-51.18,26.15-42.54c39.49,13.06,11.62,121.38,11.62,121.38s14.58-40.5,35.46-20.47C472,1745.58,403.11,1969.23,403.11,1969.23Z"/><path class="cls-25" d="M439.32,1704c-24.2-15.29-36.23,5.07-36.23,5.07s23.89-87.2-15.63-100.3c-26.19-8.64-26.15,42.54-26.15,42.54s-27.44-125.13-70.65-116.16l113,432.29C411.51,1941.5,468.15,1722.23,439.32,1704Z"/><path class="cls-24" d="M389.62,1952s-147.13.06-167.59-2.44,2.15-21.73,2.15-21.73-45.78,1.75-52.81-10,11.72-16.33,11.72-16.33-45.58-13.9-43.41-24.11c4-19,54.41-6.61,54.41-6.61s-18.7-9.55-11.12-18.43c11.47-13.39,60.42,23,60.42,23s-18.37-36.58-7.53-41.21C255.37,1825.84,389.62,1952,389.62,1952Z"/><path class="cls-17" d="M283.38,2126.21h244.9c31.19-30,50.19-71.26,49.49-116.53-.35-22.87-4.81-42.8-14.15-62.39L247.91,1951a154.35,154.35,0,0,0-13,64.59C235.52,2058.77,253.93,2097.66,283.38,2126.21Z"/><path class="cls-26" d="M1322.64,1174.47c5.86-20.42-7.12-42.81-26.5-41.91a3.31,3.31,0,0,0-3.35,3.29,3.35,3.35,0,0,0,3.13,3.53c.09,0,11.72.56,15.34,14.1a25.51,25.51,0,0,1,.48,11c-1.23,7-4.41,9.43-8.71,16.11l7.6,4c14.42,7.5,22.6,24.59,21.62,38.29-.82,11.77-2.4,17.9-10.19,28.08-11.11,13.08-25.62,12.41-27.25,12.78-8,2.21-13.79,6.95-15.15,15.37-.74,12.39.08,22.24,1.77,30.22a3.5,3.5,0,0,0,4.27,2.67,3.59,3.59,0,0,0,2.51-2.57c2.3-11.06,2.3-11.85,4.28-28.55a1.46,1.46,0,0,0,.11-.41,1.37,1.37,0,0,0,.15-.35c.35-.35.93-1.73,4.43-2.74a47.48,47.48,0,0,0,32.51-13.12C1355.22,1240.69,1353.37,1194.24,1322.64,1174.47Z"/><path class="cls-15" d="M436.92,1442H599.53c14.42,0,26.11-13.26,26.11-29.62h0c0-16.37-11.69-29.64-26.11-29.64H436.92a50.25,50.25,0,0,1,1.17,57.58Z"/><path class="cls-27" d="M623.5,1412.37h0c0-16.37-11.82-29.64-26.41-29.64H434a1.44,1.44,0,0,1-1.36-1.53v0h0a1.44,1.44,0,0,1,1.36-1.51h258.8c16.09,0,29.14,14.62,29.14,32.7h0c0,18.06-13,32.69-29.14,32.69H434a1.44,1.44,0,0,1-1.36-1.51h0A1.46,1.46,0,0,1,434,1442H597.09C611.68,1442,623.5,1428.73,623.5,1412.37Z"/></svg>