<?xml version="1.0" encoding="utf-8"?>
<!-- Generator: Adobe Illustrator 25.0.1, SVG Export Plug-In . SVG Version: 6.00 Build 0)  -->
<svg version="1.1" id="Layer_1" xmlns="http://www.w3.org/2000/svg" xmlns:xlink="http://www.w3.org/1999/xlink" x="0px" y="0px"
	 viewBox="0 0 174.8 174.8" style="enable-background:new 0 0 174.8 174.8;" xml:space="preserve">
<style type="text/css">
	.st0{fill:none;}
	.st1{fill:#F4D47A;}
	.st2{fill:#FFFFFF;}
	.st3{fill:#EA5959;}
	.st4{fill:#337970;}
	.st5{opacity:0.75;fill:url(#SVGID_4_);enable-background:new    ;}
	.st6{opacity:0.75;fill:url(#SVGID_5_);enable-background:new    ;}
	.st7{opacity:0.75;fill:url(#SVGID_6_);enable-background:new    ;}
	.st8{opacity:0.2;}
	.st9{fill:#020202;}
</style>
<pattern  y="174.8" width="28.8" height="28.8" patternUnits="userSpaceOnUse" id="SVGID_1_" viewBox="1.4 -30.3 28.8 28.8" style="overflow:visible;">
	<g>
		<rect x="1.4" y="-30.3" class="st0" width="28.8" height="28.8"/>
		<g>
			<rect x="1.4" y="-30.3" class="st0" width="28.8" height="28.8"/>
			<rect x="1.4" y="-30.3" class="st0" width="28.8" height="28.8"/>
			<path class="st1" d="M30.2,0c0.8,0,1.4-0.6,1.4-1.4S31-2.8,30.2-2.8s-1.4,0.6-1.4,1.4S29.4,0,30.2,0L30.2,0z"/>
			<path class="st1" d="M15.8,0c0.8,0,1.5-0.6,1.5-1.4s-0.6-1.5-1.4-1.5c-0.8,0-1.5,0.6-1.5,1.4l0,0C14.4-0.7,15.1,0,15.8,0z"/>
			<path class="st1" d="M30.2-14.4c0.8,0,1.4-0.6,1.4-1.4c0-0.8-0.6-1.4-1.4-1.4s-1.4,0.6-1.4,1.4S29.4-14.4,30.2-14.4L30.2-14.4z"
				/>
			<path class="st1" d="M15.8-14.4c0.8,0,1.5-0.6,1.5-1.4s-0.6-1.5-1.4-1.5c-0.8,0-1.5,0.6-1.5,1.4l0,0
				C14.4-15.1,15.1-14.4,15.8-14.4z"/>
			<path class="st1" d="M8.6-7.3c0.8,0,1.4-0.6,1.4-1.4s-0.6-1.4-1.4-1.4c-0.8,0-1.4,0.6-1.4,1.4l0,0C7.2-7.9,7.9-7.3,8.6-7.3z"/>
			<path class="st1" d="M23-7.3c0.8,0,1.4-0.6,1.4-1.4s-0.6-1.4-1.4-1.4s-1.4,0.6-1.4,1.4S22.2-7.3,23-7.3L23-7.3z"/>
			<path class="st1" d="M8.6-21.6c0.8,0,1.4-0.6,1.4-1.4s-0.6-1.5-1.4-1.5c-0.8,0-1.4,0.6-1.4,1.4C7.2-22.3,7.8-21.6,8.6-21.6
				L8.6-21.6z"/>
			<path class="st1" d="M23-21.6c0.8,0,1.4-0.6,1.4-1.4s-0.6-1.4-1.4-1.4s-1.4,0.6-1.4,1.4C21.6-22.3,22.2-21.6,23-21.6L23-21.6z"/>
			<path class="st1" d="M1.4,0c0.8,0,1.4-0.6,1.4-1.4l0,0c0-0.8-0.6-1.4-1.4-1.4S0-2.2,0-1.4C0-0.7,0.6,0,1.4,0L1.4,0z"/>
			<path class="st1" d="M1.4-14.4c0.8,0,1.4-0.6,1.4-1.4l0,0c0-0.8-0.7-1.4-1.4-1.4c-0.8,0-1.4,0.6-1.4,1.4
				C0-15.1,0.6-14.4,1.4-14.4L1.4-14.4z"/>
			<path class="st1" d="M30.2-28.8c0.8,0,1.4-0.6,1.4-1.4l0,0c0.1-0.9-0.6-1.5-1.4-1.5s-1.4,0.6-1.4,1.4
				C28.8-29.5,29.4-28.8,30.2-28.8L30.2-28.8z"/>
			<path class="st1" d="M15.8-28.8c0.8,0,1.4-0.6,1.4-1.4l0,0c0-0.8-0.6-1.4-1.4-1.4c-0.8,0-1.4,0.7-1.4,1.4
				C14.4-29.5,15.1-28.8,15.8-28.8z"/>
			<path class="st1" d="M1.4-28.8c0.8,0,1.4-0.6,1.4-1.4l0,0c0.1-0.9-0.6-1.5-1.4-1.5S0-31.1,0-30.3l0,0C0-29.5,0.6-28.8,1.4-28.8
				L1.4-28.8z"/>
		</g>
	</g>
</pattern>
<pattern  y="174.8" width="28.8" height="28.8" patternUnits="userSpaceOnUse" id="SVGID_2_" viewBox="1.4 -30.3 28.8 28.8" style="overflow:visible;">
	<g>
		<rect x="1.4" y="-30.3" class="st0" width="28.8" height="28.8"/>
		<g>
			<rect x="1.4" y="-30.3" class="st0" width="28.8" height="28.8"/>
			<rect x="1.4" y="-30.3" class="st0" width="28.8" height="28.8"/>
			<path class="st1" d="M30.2,0c0.8,0,1.4-0.6,1.4-1.4S31-2.8,30.2-2.8s-1.4,0.6-1.4,1.4S29.4,0,30.2,0L30.2,0z"/>
			<path class="st1" d="M15.8,0c0.8,0,1.5-0.6,1.5-1.4s-0.6-1.5-1.4-1.5c-0.8,0-1.5,0.6-1.5,1.4l0,0C14.4-0.7,15.1,0,15.8,0z"/>
			<path class="st1" d="M30.2-14.4c0.8,0,1.4-0.6,1.4-1.4c0-0.8-0.6-1.4-1.4-1.4s-1.4,0.6-1.4,1.4S29.4-14.4,30.2-14.4L30.2-14.4z"
				/>
			<path class="st1" d="M15.8-14.4c0.8,0,1.5-0.6,1.5-1.4s-0.6-1.5-1.4-1.5c-0.8,0-1.5,0.6-1.5,1.4l0,0
				C14.4-15.1,15.1-14.4,15.8-14.4z"/>
			<path class="st1" d="M8.6-7.3c0.8,0,1.4-0.6,1.4-1.4s-0.6-1.4-1.4-1.4c-0.8,0-1.4,0.6-1.4,1.4l0,0C7.2-7.9,7.9-7.3,8.6-7.3z"/>
			<path class="st1" d="M23-7.3c0.8,0,1.4-0.6,1.4-1.4s-0.6-1.4-1.4-1.4s-1.4,0.6-1.4,1.4S22.2-7.3,23-7.3L23-7.3z"/>
			<path class="st1" d="M8.6-21.6c0.8,0,1.4-0.6,1.4-1.4s-0.6-1.5-1.4-1.5c-0.8,0-1.4,0.6-1.4,1.4C7.2-22.3,7.8-21.6,8.6-21.6
				L8.6-21.6z"/>
			<path class="st1" d="M23-21.6c0.8,0,1.4-0.6,1.4-1.4s-0.6-1.4-1.4-1.4s-1.4,0.6-1.4,1.4C21.6-22.3,22.2-21.6,23-21.6L23-21.6z"/>
			<path class="st1" d="M1.4,0c0.8,0,1.4-0.6,1.4-1.4l0,0c0-0.8-0.6-1.4-1.4-1.4S0-2.2,0-1.4C0-0.7,0.6,0,1.4,0L1.4,0z"/>
			<path class="st1" d="M1.4-14.4c0.8,0,1.4-0.6,1.4-1.4l0,0c0-0.8-0.7-1.4-1.4-1.4c-0.8,0-1.4,0.6-1.4,1.4
				C0-15.1,0.6-14.4,1.4-14.4L1.4-14.4z"/>
			<path class="st1" d="M30.2-28.8c0.8,0,1.4-0.6,1.4-1.4l0,0c0.1-0.9-0.6-1.5-1.4-1.5s-1.4,0.6-1.4,1.4
				C28.8-29.5,29.4-28.8,30.2-28.8L30.2-28.8z"/>
			<path class="st1" d="M15.8-28.8c0.8,0,1.4-0.6,1.4-1.4l0,0c0-0.8-0.6-1.4-1.4-1.4c-0.8,0-1.4,0.7-1.4,1.4
				C14.4-29.5,15.1-28.8,15.8-28.8z"/>
			<path class="st1" d="M1.4-28.8c0.8,0,1.4-0.6,1.4-1.4l0,0c0.1-0.9-0.6-1.5-1.4-1.5S0-31.1,0-30.3l0,0C0-29.5,0.6-28.8,1.4-28.8
				L1.4-28.8z"/>
		</g>
	</g>
</pattern>
<pattern  y="174.8" width="28.8" height="28.8" patternUnits="userSpaceOnUse" id="SVGID_3_" viewBox="1.4 -30.3 28.8 28.8" style="overflow:visible;">
	<g>
		<rect x="1.4" y="-30.3" class="st0" width="28.8" height="28.8"/>
		<g>
			<rect x="1.4" y="-30.3" class="st0" width="28.8" height="28.8"/>
			<rect x="1.4" y="-30.3" class="st0" width="28.8" height="28.8"/>
			<path class="st1" d="M30.2,0c0.8,0,1.4-0.6,1.4-1.4S31-2.8,30.2-2.8s-1.4,0.6-1.4,1.4S29.4,0,30.2,0L30.2,0z"/>
			<path class="st1" d="M15.8,0c0.8,0,1.5-0.6,1.5-1.4s-0.6-1.5-1.4-1.5c-0.8,0-1.5,0.6-1.5,1.4l0,0C14.4-0.7,15.1,0,15.8,0z"/>
			<path class="st1" d="M30.2-14.4c0.8,0,1.4-0.6,1.4-1.4c0-0.8-0.6-1.4-1.4-1.4s-1.4,0.6-1.4,1.4S29.4-14.4,30.2-14.4L30.2-14.4z"
				/>
			<path class="st1" d="M15.8-14.4c0.8,0,1.5-0.6,1.5-1.4s-0.6-1.5-1.4-1.5c-0.8,0-1.5,0.6-1.5,1.4l0,0
				C14.4-15.1,15.1-14.4,15.8-14.4z"/>
			<path class="st1" d="M8.6-7.3c0.8,0,1.4-0.6,1.4-1.4s-0.6-1.4-1.4-1.4c-0.8,0-1.4,0.6-1.4,1.4l0,0C7.2-7.9,7.9-7.3,8.6-7.3z"/>
			<path class="st1" d="M23-7.3c0.8,0,1.4-0.6,1.4-1.4s-0.6-1.4-1.4-1.4s-1.4,0.6-1.4,1.4S22.2-7.3,23-7.3L23-7.3z"/>
			<path class="st1" d="M8.6-21.6c0.8,0,1.4-0.6,1.4-1.4s-0.6-1.5-1.4-1.5c-0.8,0-1.4,0.6-1.4,1.4C7.2-22.3,7.8-21.6,8.6-21.6
				L8.6-21.6z"/>
			<path class="st1" d="M23-21.6c0.8,0,1.4-0.6,1.4-1.4s-0.6-1.4-1.4-1.4s-1.4,0.6-1.4,1.4C21.6-22.3,22.2-21.6,23-21.6L23-21.6z"/>
			<path class="st1" d="M1.4,0c0.8,0,1.4-0.6,1.4-1.4l0,0c0-0.8-0.6-1.4-1.4-1.4S0-2.2,0-1.4C0-0.7,0.6,0,1.4,0L1.4,0z"/>
			<path class="st1" d="M1.4-14.4c0.8,0,1.4-0.6,1.4-1.4l0,0c0-0.8-0.7-1.4-1.4-1.4c-0.8,0-1.4,0.6-1.4,1.4
				C0-15.1,0.6-14.4,1.4-14.4L1.4-14.4z"/>
			<path class="st1" d="M30.2-28.8c0.8,0,1.4-0.6,1.4-1.4l0,0c0.1-0.9-0.6-1.5-1.4-1.5s-1.4,0.6-1.4,1.4
				C28.8-29.5,29.4-28.8,30.2-28.8L30.2-28.8z"/>
			<path class="st1" d="M15.8-28.8c0.8,0,1.4-0.6,1.4-1.4l0,0c0-0.8-0.6-1.4-1.4-1.4c-0.8,0-1.4,0.7-1.4,1.4
				C14.4-29.5,15.1-28.8,15.8-28.8z"/>
			<path class="st1" d="M1.4-28.8c0.8,0,1.4-0.6,1.4-1.4l0,0c0.1-0.9-0.6-1.5-1.4-1.5S0-31.1,0-30.3l0,0C0-29.5,0.6-28.8,1.4-28.8
				L1.4-28.8z"/>
		</g>
	</g>
</pattern>
<path class="st2" d="M168.5,60.3c-0.9-4.6-2.6-8.7-6.1-11.9c-3.1-2.8-6.8-4-10.9-3.5c-5.6,0.7-9.9,3.8-13.3,8.2
	c-2,2.6-3.7,5.4-5.6,8.1c-2.3,3.3-5,6.1-8.6,7.9c-0.7,0.3-1.1,0.4-1.8,0c-4-2.5-8-5-12-7.4c-4.2-2.5-8.2-5.3-12.6-7.1
	c-3.6-1.5-7.3-2.6-11.2-1.9c-3.5,0.7-6.8,1.9-9.8,3.7c-7,4.1-13.9,8.3-20.8,12.7c-0.8,0.5-1.4,0.5-2.2,0c-3.1-1.6-5.6-3.9-7.6-6.7
	c-2-2.8-3.9-5.7-5.9-8.5c-2.4-3.3-5.3-6-9.1-7.5c-5.7-2.4-11.1-2-15.8,2.3c-2.1,1.9-3.6,4.3-4.6,7c-2.4,6.9-2.8,13.9-1.4,21.1
	c2.6,14.4,10.5,25.6,21.5,34.7c6.4,5.3,13.5,9.5,20.5,13.9c4.9,3.1,10.1,5.7,14.8,9c6.2,4.4,12.9,7.6,20.5,8.8c1,0.2,2,0.5,3.1,0.4
	c7-1.1,13.7-3.2,19.6-7.2c2.2-1.5,4.2-3.1,6.5-4.4c7.8-4.6,15.5-9.4,23.1-14.4c7.5-4.9,14.3-10.6,19.7-17.9
	c6.8-9.3,10.9-19.4,10.9-31C169.4,65.8,169,63.1,168.5,60.3z M35.4,95.7c-3.5-3-6.3-6.3-8.5-10c-3.4-5.9-5-12.2-4.5-19
	c0.2-2.2,0.5-4.4,1.5-6.4c0.7-1.4,1.4-1.6,2.5-0.4c0.7,0.7,1.4,1.4,1.9,2.3C32.2,68,36.6,73.3,41.7,78c0.1,0.1,0.2,0.2,0.2,0.3
	C36.6,82.8,34.5,88.5,35.4,95.7z M145.3,92.7c-0.8,0.9-1.6,1.8-2.5,2.7c-0.1-0.1-0.2-0.2-0.3-0.3c0.1-2.1,0.1-4.3-0.2-6.4
	c-0.7-4-2.9-7.2-5.8-9.9c-0.6-0.6-0.6-0.8,0-1.4c4.7-4.3,8.7-9.2,12.1-14.4c0.8-1.3,1.8-2.4,2.9-3.4c1-0.9,1.5-0.8,2.1,0.4
	c1.3,2.6,1.6,5.4,1.7,8.2C155.5,77.8,151.8,85.8,145.3,92.7z"/>
<path class="st3" d="M59.4,75.5c-6.5-1-12.3-4.4-16.4-9.5c-3.1-3.8-5.2-8.2-8.5-11.8s-8.3-6.2-12.9-4.7c-4.9,1.5-7.4,6.9-8.3,12
	c-1.5,8.9-0.1,18.1,3.9,26.2S27,102.8,34,108.4c7.2,5.8,45.5,30.2,54.8,30.5c-1.8-2-31.3-25.1-33.3-27.1c-1.1-1-2.4-1.6-3.8-2
	c-10.4-3.5-20.1-9.6-26.5-18.4s-9.4-20.5-6.3-31c0.7-2.4,1.9-4.9,4.2-5.8c2.1-0.6,4.4-0.1,6,1.4s2.9,3.2,4,5
	c5.7,8.4,12.9,15.6,21.4,21.2L59.4,75.5z"/>
<path class="st3" d="M118.3,75.5c6.5-1,12.3-4.4,16.4-9.5c3.1-3.8,5.2-8.2,8.5-11.8s8.3-6.2,12.9-4.7c4.9,1.5,7.4,6.9,8.3,12
	c1.5,8.9,0.1,18.1-3.9,26.2s-9.8,15.1-16.9,20.7c-7.2,5.8-45.5,30.2-54.8,30.5c1.8-2,31.3-25.1,33.3-27.1c1.1-1,2.4-1.6,3.8-2
	c10.4-3.5,20.1-9.6,26.5-18.4s9.4-20.5,6.3-31c-0.7-2.4-1.9-4.9-4.2-5.8c-2.1-0.6-4.4-0.1-6,1.4s-2.9,3.2-4,5
	c-5.6,8.4-12.9,15.6-21.3,21.1L118.3,75.5z"/>
<path class="st4" d="M59.4,75.5c-6.5-1-12.3-4.4-16.4-9.5c-3.1-3.8-5.2-8.2-8.5-11.8s-8.3-6.2-12.9-4.7c-4.9,1.5-7.4,6.9-8.3,12
	c-1.5,8.9-0.1,18.1,3.9,26.2S27,102.8,34,108.4c7.2,5.8,45.5,30.2,54.8,30.5c-1.8-2-31.3-25.1-33.3-27.1c-1.1-1-2.4-1.6-3.8-2
	c-10.4-3.5-20.1-9.6-26.5-18.4s-9.4-20.5-6.3-31c0.7-2.4,1.9-4.9,4.2-5.8c2.1-0.6,4.4-0.1,6,1.4s2.9,3.2,4,5
	c5.7,8.4,12.9,15.6,21.4,21.2L59.4,75.5z"/>
<pattern  id="SVGID_4_" xlink:href="#SVGID_1_" patternTransform="matrix(0.93 0 0 0.93 -1104.947 15271.7998)">
</pattern>
<path class="st5" d="M59.4,75.5c-6.5-1-12.3-4.4-16.4-9.5c-3.1-3.8-5.2-8.2-8.5-11.8s-8.3-6.2-12.9-4.7c-4.9,1.5-7.4,6.9-8.3,12
	c-1.5,8.9-0.1,18.1,3.9,26.2S27,102.8,34,108.4c7.2,5.8,45.5,30.2,54.8,30.5c-1.8-2-31.3-25.1-33.3-27.1c-1.1-1-2.4-1.6-3.8-2
	c-10.4-3.5-20.1-9.6-26.5-18.4s-9.4-20.5-6.3-31c0.7-2.4,1.9-4.9,4.2-5.8c2.1-0.6,4.4-0.1,6,1.4s2.9,3.2,4,5
	c5.7,8.4,12.9,15.6,21.4,21.2L59.4,75.5z"/>
<path class="st4" d="M118.3,75.5c6.5-1,12.3-4.4,16.4-9.5c3.1-3.8,5.2-8.2,8.5-11.8s8.3-6.2,12.9-4.7c4.9,1.5,7.4,6.9,8.3,12
	c1.5,8.9,0.1,18.1-3.9,26.2s-9.8,15.1-16.9,20.7c-7.2,5.8-45.5,30.2-54.8,30.5c1.8-2,31.3-25.1,33.3-27.1c1.1-1,2.4-1.6,3.8-2
	c10.4-3.5,20.1-9.6,26.5-18.4s9.4-20.5,6.3-31c-0.7-2.4-1.9-4.9-4.2-5.8c-2.1-0.6-4.4-0.1-6,1.4s-2.9,3.2-4,5
	c-5.6,8.4-12.9,15.6-21.3,21.1L118.3,75.5z"/>
<pattern  id="SVGID_5_" xlink:href="#SVGID_2_" patternTransform="matrix(0.93 0 0 0.93 -1104.947 15271.7998)">
</pattern>
<path class="st6" d="M118.3,75.5c6.5-1,12.3-4.4,16.4-9.5c3.1-3.8,5.2-8.2,8.5-11.8s8.3-6.2,12.9-4.7c4.9,1.5,7.4,6.9,8.3,12
	c1.5,8.9,0.1,18.1-3.9,26.2s-9.8,15.1-16.9,20.7c-7.2,5.8-45.5,30.2-54.8,30.5c1.8-2,31.3-25.1,33.3-27.1c1.1-1,2.4-1.6,3.8-2
	c10.4-3.5,20.1-9.6,26.5-18.4s9.4-20.5,6.3-31c-0.7-2.4-1.9-4.9-4.2-5.8c-2.1-0.6-4.4-0.1-6,1.4s-2.9,3.2-4,5
	c-5.6,8.4-12.9,15.6-21.3,21.1L118.3,75.5z"/>
<path class="st4" d="M137.8,88.5c-1.5-5.8-9-10.2-14.2-13.5c-7.5-4.8-15.2-9.5-23-14.1c-3.6-2.1-7.4-4.1-11.7-4.3h-0.2
	c-4.3,0.2-8.1,2.2-11.7,4.3c-7.8,4.6-15.4,9.3-23,14.1c-5,3.3-12.6,7.7-14,13.5c-1.5,6,1.1,13.1,4.3,18.3
	c3.5,5.7,8.6,10.5,13.7,15.2c8.6,7.8,18.5,15.6,30.8,16.9l0,0H89l0,0c12.3-1.2,22.2-9,30.8-16.9c5.1-4.7,10.2-9.5,13.7-15.2
	C136.8,101.6,139.4,94.5,137.8,88.5z"/>
<pattern  id="SVGID_6_" xlink:href="#SVGID_3_" patternTransform="matrix(0.93 0 0 0.93 -1104.947 15271.7998)">
</pattern>
<path class="st7" d="M137.8,88.5c-1.5-5.8-9-10.2-14.2-13.5c-7.5-4.8-15.2-9.5-23-14.1c-3.6-2.1-7.4-4.1-11.7-4.3h-0.2
	c-4.3,0.2-8.1,2.2-11.7,4.3c-7.8,4.6-15.4,9.3-23,14.1c-5,3.3-12.6,7.7-14,13.5c-1.5,6,1.1,13.1,4.3,18.3
	c3.5,5.7,8.6,10.5,13.7,15.2c8.6,7.8,18.5,15.6,30.8,16.9l0,0H89l0,0c12.3-1.2,22.2-9,30.8-16.9c5.1-4.7,10.2-9.5,13.7-15.2
	C136.8,101.6,139.4,94.5,137.8,88.5z"/>
<g class="st8">
	<path class="st9" d="M59.9,86.8c4.8-0.2,9.6-0.3,14.4-0.3s9.6,0,14.4,0l14.3,0.1c4.8,0,9.6,0,14.4,0.2c-4.7,1-9.5,1.7-14.3,2
		c-4.8,0.4-9.6,0.5-14.4,0.5S79,89,74.2,88.6C69.4,88.3,64.7,87.7,59.9,86.8z"/>
</g>
<g class="st8">
	<path class="st9" d="M59.9,111.2c4.8-0.2,9.6-0.3,14.4-0.3s9.6,0,14.4,0L103,111c4.8,0,9.6,0,14.4,0.2c-4.7,1-9.5,1.7-14.3,2
		c-4.8,0.4-9.6,0.5-14.4,0.5s-9.6-0.2-14.4-0.7C69.4,112.7,64.7,112.1,59.9,111.2z"/>
</g>
<g class="st8">
	<path class="st9" d="M53.9,97.2c6,0.9,12,1.4,17.9,1.8s11.9,0.4,17.9,0.4c3-0.1,6-0.1,9-0.3c1.5-0.1,3-0.1,4.5-0.2s3-0.2,4.5-0.3
		l2.2-0.1l2.2-0.2l4.5-0.3c3-0.2,6-0.6,9-0.7c-2.9,0.8-5.9,1.5-8.8,2.1s-5.9,1.1-9,1.5c-6,0.8-12.1,1.3-18.1,1.3
		c-6.1,0.1-12.1-0.3-18.2-1C65.5,100.5,59.6,99.2,53.9,97.2z"/>
</g>
</svg>
