<svg id="Layer_1" data-name="Layer 1" xmlns="http://www.w3.org/2000/svg" xmlns:xlink="http://www.w3.org/1999/xlink" viewBox="0 0 1366 1366"><defs><style>.cls-1,.cls-3{fill:#fff;}.cls-2,.cls-3{isolation:isolate;}.cls-2{fill:url(#linear-gradient);}.cls-3{opacity:0.8;}.cls-4{fill:#222221;}.cls-5{fill:#b0b0b0;}.cls-6{fill:#6e6e6e;}.cls-7{fill:#989898;}.cls-8{fill:#7f7f7f;}.cls-9{fill:#333343;}.cls-10{fill:#333d51;}.cls-11{fill:#b8b8b8;}.cls-12{fill:#9e9e9e;}.cls-13{fill:none;stroke-width:30px;}.cls-13,.cls-18{stroke:#7f8e9d;stroke-miterlimit:10;}.cls-14{fill:#7ab0ce;}.cls-15{fill:#f0f0f0;}.cls-16{opacity:0.5;}.cls-17{opacity:0.2;}.cls-18{fill:#020202;stroke-width:16px;}</style><linearGradient id="linear-gradient" x1="683.93" y1="72" x2="683.93" y2="1128.11" gradientTransform="matrix(1, 0, 0, -1, 0, 1366)" gradientUnits="userSpaceOnUse"><stop offset="0" stop-color="#fff"/><stop offset="1" stop-color="#fbfbfb" stop-opacity="0.1"/></linearGradient></defs><path class="cls-1" d="M1156.6,167c-.23-10.38-3.28-20.58-11.72-27.78-2.33-2-2.68-3.84-2.75-6.47-.21-8.86-.12-17.78-1.08-26.57a36.51,36.51,0,0,0-12.32-24.12c-9.91-8.6-21.7-13.47-34.44-16.48-24.64-5.84-49.34-11.18-74.6-13.69-16.21-1.62-32.36-4-48.57-5.69-12-1.26-24-2.1-36-3q-22.86-1.62-45.75-2.94c-12.87-.75-25.74-1.43-38.62-1.94q-28.34-1.12-56.66-1.95c-15.05-.44-30.1-1-45.15-.94q-69.13.24-138.26.93c-19.11.17-38.22.57-57.33,1-6.28.14-12.55.67-18.83.93q-24.92,1-49.84,2c-8.54.33-17.1.61-25.64,1-5.47.25-10.94.55-16.39,1-14.7,1.23-29.39,2.58-44.09,3.84-8.16.7-16.34,1.16-24.47,2.06-9.84,1.08-19.64,2.46-29.45,3.81-10.1,1.4-20.24,2.64-30.28,4.46-11.72,2.13-23.4,4.52-35,7.31-13.08,3.15-26.31,5.89-37.42,14.49-6.61,5.13-12.68,10.83-15,18.72-2.16,7.24-2.46,15.07-3.14,22.68-.44,4.84,0,9.75-.12,14.62,0,1.16-.19,2.8-.93,3.39-11,8.68-13.37,21-13.56,33.79q-.51,35.08,0,70.2c.18,13.11,2.27,25.8,13.67,34.67a2.88,2.88,0,0,1,.77,2c.1,3.17.1,6.35.1,9.52V644.69q0,176.71,0,353.42a134.93,134.93,0,0,0,1,18.32c2,14.68,4.11,29.35,6.77,43.91a297,297,0,0,0,26.69,80.19c6.68,13.32,14.78,26,23.1,38.41,14.31,21.34,29.94,41.7,49.83,58.29,11.29,9.41,22.64,18.79,34.44,27.55,22.22,16.5,46.31,29.89,72.66,38.44,18.53,6,37.55,10.56,56.47,15.3,20.79,5.2,42,6.86,63.42,6.85q122.83-.06,245.69-.1a297,297,0,0,0,36.16-2c15.77-2,31.55-4.46,47-7.94,31.19-7,61-18.06,88.54-34.44a360,360,0,0,0,66.45-50c14.46-13.92,26.73-29.76,38.6-46,17.52-24,31.57-49.71,40.92-77.8,5.55-16.67,9.45-33.9,13.84-51a211.81,211.81,0,0,0,6.7-52.7q.18-350.25.06-700.51c0-7.6-.4-15.19-.38-22.79a5.74,5.74,0,0,1,1.83-3.91c9.22-7.61,12.73-18.15,13-29.22Q1157.55,207,1156.6,167Zm-47.87,841.68c0,16.92-3.52,34-6.8,50.7-4.61,23.46-13.08,45.8-23.8,67.14-9.23,18.38-19.85,36-33.22,51.75-9.18,10.79-18.61,21.41-28.59,31.46-15.39,15.48-33,28.28-51.64,39.55-20.65,12.45-42.3,22.92-65.62,29.2-16.22,4.37-32.79,7.52-49.29,10.74-18.47,3.6-37.24,3-55.95,3-82.22,0-164.44.3-246.66-.28-16.51-.12-33.15-2.89-49.46-5.87A265.71,265.71,0,0,1,444,1269.88a304.72,304.72,0,0,1-61.69-34.17c-14.92-10.72-29-22.54-41.16-36.38-10.73-12.24-21.08-24.91-30.61-38.11a252.65,252.65,0,0,1-38-78.09,423.81,423.81,0,0,1-10.61-47.83,225.69,225.69,0,0,1-3-36.91q-.26-355.38-.12-710.75v-7.78c2.67,2.44,4.2,4.24,6.1,5.42,1.11.68,3,0,4.26.53,22.45,8.81,46.15,12,69.79,15.2,50.4,6.86,101.08,10.69,151.87,12.82,40.88,1.7,81.78,3.24,122.68,3.91,44.82.73,89.67.95,134.49.35,74.52-1,149-3.77,223.24-10.59,36.86-3.39,73.73-7.05,109.8-16,6.57-1.63,13.11-3.51,19.49-5.77,2.69-1,4.91-3.22,8.49-5.66v6.64Q1109,647.69,1108.73,1008.68Z"/><path class="cls-2" d="M1109,237.89V996a297.95,297.95,0,0,1-298,298H556.87a297.46,297.46,0,0,1-39-2.54,286.82,286.82,0,0,1-34.85-6.7,295.22,295.22,0,0,1-49-17.17A298.3,298.3,0,0,1,258.86,996V237.89Z"/><path class="cls-3" d="M434,237.89v1029.7a299,299,0,0,1-109.71-85.25V237.89Z"/><path class="cls-3" d="M517.92,237.89V1291.46a286.82,286.82,0,0,1-34.85-6.7V237.89Z"/><path class="cls-3" d="M1028.25,237.89V1200a294.06,294.06,0,0,1-34.85,31.7V237.89Z"/><path class="cls-4" d="M1093.33,166.06h27.14a2.71,2.71,0,0,1,2.71,2.71v81.92a2.71,2.71,0,0,1-2.71,2.71h-27.14V166.06Z"/><path class="cls-4" d="M274.54,253.4H247.4a2.71,2.71,0,0,1-2.71-2.71V168.77a2.71,2.71,0,0,1,2.71-2.71h27.14V253.4Z"/><path class="cls-5" d="M1109,114.63c0,1.59-.92,3.19-2.72,4.75-24-20.92-203.93-37.18-422.36-37.18S285.53,98.46,261.57,119.38c-1.8-1.56-2.71-3.16-2.71-4.75,0-23.16,190.3-41.93,425.08-41.93S1109,91.47,1109,114.63Z"/><path class="cls-6" d="M1106.3,119.38c-4.39,3.87-14.13,7.56-28.47,11-63.24,15.34-215.77,26.14-393.89,26.14s-330.65-10.8-393.89-26.14c-14.34-3.48-24.08-7.17-28.48-11,24-20.92,203.91-37.18,422.37-37.18S1082.34,98.46,1106.3,119.38Z"/><path class="cls-7" d="M965.16,146.06h-.35q-14.7,1.27-30.6,2.42c-10.89.79-22.2,1.53-33.85,2.21-63.39,3.72-137.4,5.84-216.42,5.84-168.38,0-313.89-9.65-382.71-23.66q-6-1.25-11.18-2.48c63.24-15.35,215.77-26.15,393.89-26.15,93.36,0,179.71,3,249.85,8A33.83,33.83,0,0,1,965.16,146.06Z"/><path class="cls-8" d="M964.81,146.09q-14.7,1.28-30.6,2.42c-10.89.79-22.2,1.53-33.85,2.21-63.39,3.72-137.4,5.84-216.42,5.84-168.38,0-313.89-9.65-382.71-23.66,68.82-14,214.33-23.67,382.71-23.67,93.36,0,179.71,3,249.85,8A33.86,33.86,0,0,1,964.81,146.09Z"/><path class="cls-9" d="M1109,114.63V278.88c0,23.13-190.34,41.9-425.08,41.9S258.86,302,258.86,278.88V114.63c0,23.17,190.3,41.93,425.08,41.93S1109,137.8,1109,114.63Z"/><path class="cls-10" d="M1109,117.08v161.8c0,23.13-190.34,41.9-425.08,41.9S258.86,302,258.86,278.88V118.39c0,23.17,190.3,49.24,425.08,49.24,231.79,0,420.27-27.63,425-50.55Z"/><path class="cls-11" d="M683.94,259.36a2519.65,2519.65,0,0,1-261-13.52,14.78,14.78,0,0,1-13.13-16.25v-.06h0a14.74,14.74,0,0,1,16.21-13,2497.87,2497.87,0,0,0,515.81,0,14.73,14.73,0,0,1,16.21,13h0a14.75,14.75,0,0,1-13,16.3h-.09A2519.65,2519.65,0,0,1,683.94,259.36Z"/><circle class="cls-11" cx="1010.83" cy="224.12" r="15.08"/><circle class="cls-11" cx="357.04" cy="224.12" r="15.08"/><path class="cls-12" d="M934.21,148.51c-10.89.79-22.2,1.53-33.85,2.21a17.22,17.22,0,0,1,33.85-2.21Z"/><path class="cls-1" d="M1330.55,668.18c-13.93-40.89-41.11-70.4-81.39-86.42-42.12-16.75-84.41-14-125.54,3.71-34.3,14.77-59.19,40.47-77.65,72.42-6.3,10.91-11,22.74-16.67,34.62h-694c-5.78-19.8-16.29-36.85-27.81-53.6C270.49,585,195.85,560.69,139,575,89.63,587.46,55.44,616.29,37.45,663c-14.82,38.42-18.65,78.88-15.54,120.1a650.26,650.26,0,0,0,14,94.61c14.27,63.27,36.65,123.4,68.37,180,28.46,50.82,67.39,91.45,118.39,119.67,21.54,11.92,44.6,19.63,70.19,12.27,14.23-4.09,25.92-11.31,34.36-23.3,3.13-4.45,6.3-6.16,11.82-6.16q344,.24,688,0c5.28,0,8.43,1.49,11.52,5.83,14,19.66,34.36,27.44,57.33,26.21,16.65-.89,32.9-6.18,47.68-14.75,45.37-26.34,82.51-61.14,109.89-106.16,32.74-53.84,55.68-111.69,71.5-172.52,10.36-39.82,17.29-80.2,19.62-121.3C1346.68,740.22,1342.6,703.53,1330.55,668.18ZM242.27,1063.06v5.64l-1.36.84c-7.54-7.51-15.49-14.66-22.55-22.61-17.81-20-30.19-43.54-41.66-67.51-19-39.6-34.7-80.42-44.16-123.36-9.13-41.41-12.79-83.36-9.49-125.78a91.61,91.61,0,0,1,9.64-35.55c7.72-15,20.18-22.44,36.73-23.53,27.87-1.84,47.65,11.18,62.13,33.88,1,1.64,1.94,3.39,2.87,5.11a64.39,64.39,0,0,1,8.07,31.62C242.12,848.89,242.27,956,242.27,1063.06Zm993-216.45q-1.26,6.32-2.71,12.61-2.16,9.43-4.72,18.79-1.69,6.24-3.56,12.45t-3.89,12.39q-7.08,21.61-16.08,42.86-2.32,5.49-4.69,10.95c-9.5,21.83-19.82,43.24-32.41,63.47q-3.15,5.05-6.5,10a178.28,178.28,0,0,1-35,38,6.77,6.77,0,0,1-.84.56l-.63.37-.83.5h0v-6.73c0-106.59.25-213.18-.26-319.76,0-1.05,0-2.09,0-3.11a68,68,0,0,1,8.6-30.45,94.75,94.75,0,0,1,6.19-9.82,74.72,74.72,0,0,1,16.81-17.26c1.13-.82,2.29-1.6,3.47-2.34a60,60,0,0,1,5.43-3,58.43,58.43,0,0,1,11.73-4.26,61.71,61.71,0,0,1,6.31-1.22c.71-.1,1.44-.18,2.16-.26a66.85,66.85,0,0,1,6.7-.37q3.42,0,7,.27,2.83.24,5.51.74c.89.17,1.77.36,2.63.58a40.14,40.14,0,0,1,18,9.53,44.66,44.66,0,0,1,8.36,10.63c9,15.62,10.91,32.89,11.57,50.41A439.66,439.66,0,0,1,1235.29,846.61Z"/><g id="Layer_1-2" data-name="Layer 1"><path class="cls-13" d="M1072,749.49c-5.3-42.9,25.8-93.1,61-112.9,50-28.2,117.8-18.1,144.4,38.2,12.2,25.8,15.1,55.3,15.1,84-.1,79.2-21.2,157.4-53.5,229-16.2,35.8-35.4,70.6-61.7,99.1-14.2,15.4-95.1,86.3-104.4,38.5-.1-.3-.1-.7-.2-1-1-6.4-.2-12.9-.4-19.3V1095"/><path class="cls-13" d="M293.2,749.49c5.3-42.9-25.8-93.1-61-112.9-50-28.2-117.8-18.1-144.4,38.2-12.2,25.8-15.1,55.3-15.1,84,.1,79.2,21.2,157.4,53.5,229,16.2,35.8,35.4,70.6,61.7,99.1,14.3,15.5,95.2,86.3,104.5,38.5.1-.3.1-.7.2-1,1-6.4.2-12.9.5-19.3v-10.2"/><rect class="cls-14" x="284.5" y="728.29" width="797.1" height="396.3"/><rect class="cls-15" x="278.1" y="728.29" width="49.7" height="396.3"/><rect class="cls-15" x="1038.3" y="728.29" width="48.6" height="396.3"/><g class="cls-16"><g class="cls-17"><polygon class="cls-18" points="327.8 777.69 416.6 777.49 505.4 777.39 683 777.19 860.7 777.39 949.5 777.49 1038.3 777.69 949.5 777.89 860.7 777.99 683 778.19 505.4 777.99 416.6 777.89 327.8 777.69"/></g><g class="cls-17"><polygon class="cls-18" points="327.8 837.19 416.6 836.99 505.4 836.89 683 836.69 860.7 836.89 949.5 836.99 1038.3 837.19 949.5 837.39 860.7 837.49 683 837.59 505.4 837.49 416.6 837.39 327.8 837.19"/></g><g class="cls-17"><polygon class="cls-18" points="327.8 896.69 416.6 896.39 505.4 896.39 683 896.19 860.7 896.39 949.5 896.39 1038.3 896.69 949.5 896.89 860.7 896.99 683 897.09 505.4 896.99 416.6 896.89 327.8 896.69"/></g><g class="cls-17"><polygon class="cls-18" points="327.8 956.19 416.6 955.89 505.4 955.89 683 955.69 860.7 955.89 949.5 955.89 1038.3 956.19 949.5 956.39 860.7 956.49 683 956.59 505.4 956.49 416.6 956.39 327.8 956.19"/></g><g class="cls-17"><polygon class="cls-18" points="327.8 1015.59 416.6 1015.39 505.4 1015.29 683 1015.19 860.7 1015.29 949.5 1015.39 1038.3 1015.59 949.5 1015.89 860.7 1015.89 683 1016.09 505.4 1015.89 416.6 1015.89 327.8 1015.59"/></g><g class="cls-17"><polygon class="cls-18" points="327.8 1075.09 416.6 1074.89 505.4 1074.79 683 1074.69 860.7 1074.79 949.5 1074.89 1038.3 1075.09 949.5 1075.39 860.7 1075.39 683 1075.59 505.4 1075.39 416.6 1075.39 327.8 1075.09"/></g></g><rect class="cls-1" x="482.2" y="742.69" width="401.7" height="19.2"/><rect class="cls-1" x="683" y="742.69" width="200.9" height="19.2"/></g></svg>