<svg id="Layer_1" data-name="Layer 1" xmlns="http://www.w3.org/2000/svg" xmlns:xlink="http://www.w3.org/1999/xlink" viewBox="0 0 1366 1366"><defs><style>.cls-1,.cls-3{fill:#fff;}.cls-2,.cls-3{isolation:isolate;}.cls-2{fill:url(#linear-gradient);}.cls-3{opacity:0.8;}.cls-4{fill:#222221;}.cls-5{fill:#b0b0b0;}.cls-6{fill:#6e6e6e;}.cls-7{fill:#989898;}.cls-8{fill:#7f7f7f;}.cls-9{fill:#333343;}.cls-10{fill:#333d51;}.cls-11{fill:#b8b8b8;}.cls-12{fill:#9e9e9e;}</style><linearGradient id="linear-gradient" x1="683.93" y1="72" x2="683.93" y2="1128.11" gradientTransform="matrix(1, 0, 0, -1, 0, 1366)" gradientUnits="userSpaceOnUse"><stop offset="0" stop-color="#fff"/><stop offset="1" stop-color="#fbfbfb" stop-opacity="0.1"/></linearGradient></defs><path class="cls-1" d="M1156.6,167c-.23-10.38-3.28-20.58-11.72-27.78-2.33-2-2.68-3.84-2.75-6.47-.21-8.86-.12-17.78-1.08-26.57a36.51,36.51,0,0,0-12.32-24.12c-9.91-8.6-21.7-13.47-34.44-16.48-24.64-5.84-49.34-11.18-74.6-13.69-16.21-1.62-32.36-4-48.57-5.69-12-1.26-24-2.1-36-3q-22.86-1.62-45.75-2.94c-12.87-.75-25.74-1.43-38.62-1.94q-28.34-1.12-56.66-1.95c-15.05-.44-30.1-1-45.15-.94q-69.13.24-138.26.93c-19.11.17-38.22.57-57.33,1-6.28.14-12.55.67-18.83.93q-24.92,1-49.84,2c-8.54.33-17.1.61-25.64,1-5.47.25-10.94.55-16.39,1-14.7,1.23-29.39,2.58-44.09,3.84-8.16.7-16.34,1.16-24.47,2.06-9.84,1.08-19.64,2.46-29.45,3.81-10.1,1.4-20.24,2.64-30.28,4.46-11.72,2.13-23.4,4.52-35,7.31-13.08,3.15-26.31,5.89-37.42,14.49-6.61,5.13-12.68,10.83-15,18.72-2.16,7.24-2.46,15.07-3.14,22.68-.44,4.84,0,9.75-.12,14.62,0,1.16-.19,2.8-.93,3.39-11,8.68-13.37,21-13.56,33.79q-.51,35.08,0,70.2c.18,13.11,2.27,25.8,13.67,34.67a2.88,2.88,0,0,1,.77,2c.1,3.17.1,6.35.1,9.52V644.69q0,176.71,0,353.42a134.93,134.93,0,0,0,1,18.32c2,14.68,4.11,29.35,6.77,43.91a297,297,0,0,0,26.69,80.19c6.68,13.32,14.78,26,23.1,38.41,14.31,21.34,29.94,41.7,49.83,58.29,11.29,9.41,22.64,18.79,34.44,27.55,22.22,16.5,46.31,29.89,72.66,38.44,18.53,6,37.55,10.56,56.47,15.3,20.79,5.2,42,6.86,63.42,6.85q122.83-.06,245.69-.1a297,297,0,0,0,36.16-2c15.77-2,31.55-4.46,47-7.94,31.19-7,61-18.06,88.54-34.44a360,360,0,0,0,66.45-50c14.46-13.92,26.73-29.76,38.6-46,17.52-24,31.57-49.71,40.92-77.8,5.55-16.67,9.45-33.9,13.84-51a211.81,211.81,0,0,0,6.7-52.7q.18-350.25.06-700.51c0-7.6-.4-15.19-.38-22.79a5.74,5.74,0,0,1,1.83-3.91c9.22-7.61,12.73-18.15,13-29.22Q1157.55,207,1156.6,167Zm-47.87,841.68c0,16.92-3.52,34-6.8,50.7-4.61,23.46-13.08,45.8-23.8,67.14-9.23,18.38-19.85,36-33.22,51.75-9.18,10.79-18.61,21.41-28.59,31.46-15.39,15.48-33,28.28-51.64,39.55-20.65,12.45-42.3,22.92-65.62,29.2-16.22,4.37-32.79,7.52-49.29,10.74-18.47,3.6-37.24,3-55.95,3-82.22,0-164.44.3-246.66-.28-16.51-.12-33.15-2.89-49.46-5.87A265.71,265.71,0,0,1,444,1269.88a304.72,304.72,0,0,1-61.69-34.17c-14.92-10.72-29-22.54-41.16-36.38-10.73-12.24-21.08-24.91-30.61-38.11a252.65,252.65,0,0,1-38-78.09,423.81,423.81,0,0,1-10.61-47.83,225.69,225.69,0,0,1-3-36.91q-.26-355.38-.12-710.75v-7.78c2.67,2.44,4.2,4.24,6.1,5.42,1.11.68,3,0,4.26.53,22.45,8.81,46.15,12,69.79,15.2,50.4,6.86,101.08,10.69,151.87,12.82,40.88,1.7,81.78,3.24,122.68,3.91,44.82.73,89.67.95,134.49.35,74.52-1,149-3.77,223.24-10.59,36.86-3.39,73.73-7.05,109.8-16,6.57-1.63,13.11-3.51,19.49-5.77,2.69-1,4.91-3.22,8.49-5.66v6.64Q1109,647.69,1108.73,1008.68Z"/><path class="cls-2" d="M1109,237.89V996a297.95,297.95,0,0,1-298,298H556.87a297.46,297.46,0,0,1-39-2.54,286.82,286.82,0,0,1-34.85-6.7,295.22,295.22,0,0,1-49-17.17A298.3,298.3,0,0,1,258.86,996V237.89Z"/><path class="cls-3" d="M434,237.89v1029.7a299,299,0,0,1-109.71-85.25V237.89Z"/><path class="cls-3" d="M517.92,237.89V1291.46a286.82,286.82,0,0,1-34.85-6.7V237.89Z"/><path class="cls-3" d="M1028.25,237.89V1200a294.06,294.06,0,0,1-34.85,31.7V237.89Z"/><path class="cls-4" d="M1093.33,166.06h27.14a2.71,2.71,0,0,1,2.71,2.71v81.92a2.71,2.71,0,0,1-2.71,2.71h-27.14V166.06Z"/><path class="cls-4" d="M274.54,253.4H247.4a2.71,2.71,0,0,1-2.71-2.71V168.77a2.71,2.71,0,0,1,2.71-2.71h27.14V253.4Z"/><path class="cls-5" d="M1109,114.63c0,1.59-.92,3.19-2.72,4.75-24-20.92-203.93-37.18-422.36-37.18S285.53,98.46,261.57,119.38c-1.8-1.56-2.71-3.16-2.71-4.75,0-23.16,190.3-41.93,425.08-41.93S1109,91.47,1109,114.63Z"/><path class="cls-6" d="M1106.3,119.38c-4.39,3.87-14.13,7.56-28.47,11-63.24,15.34-215.77,26.14-393.89,26.14s-330.65-10.8-393.89-26.14c-14.34-3.48-24.08-7.17-28.48-11,24-20.92,203.91-37.18,422.37-37.18S1082.34,98.46,1106.3,119.38Z"/><path class="cls-7" d="M965.16,146.06h-.35q-14.7,1.27-30.6,2.42c-10.89.79-22.2,1.53-33.85,2.21-63.39,3.72-137.4,5.84-216.42,5.84-168.38,0-313.89-9.65-382.71-23.66q-6-1.25-11.18-2.48c63.24-15.35,215.77-26.15,393.89-26.15,93.36,0,179.71,3,249.85,8A33.83,33.83,0,0,1,965.16,146.06Z"/><path class="cls-8" d="M964.81,146.09q-14.7,1.28-30.6,2.42c-10.89.79-22.2,1.53-33.85,2.21-63.39,3.72-137.4,5.84-216.42,5.84-168.38,0-313.89-9.65-382.71-23.66,68.82-14,214.33-23.67,382.71-23.67,93.36,0,179.71,3,249.85,8A33.86,33.86,0,0,1,964.81,146.09Z"/><path class="cls-9" d="M1109,114.63V278.88c0,23.13-190.34,41.9-425.08,41.9S258.86,302,258.86,278.88V114.63c0,23.17,190.3,41.93,425.08,41.93S1109,137.8,1109,114.63Z"/><path class="cls-10" d="M1109,117.08v161.8c0,23.13-190.34,41.9-425.08,41.9S258.86,302,258.86,278.88V118.39c0,23.17,190.3,49.24,425.08,49.24,231.79,0,420.27-27.63,425-50.55Z"/><path class="cls-11" d="M683.94,259.36a2519.65,2519.65,0,0,1-261-13.52,14.78,14.78,0,0,1-13.13-16.25v-.06h0a14.74,14.74,0,0,1,16.21-13,2497.87,2497.87,0,0,0,515.81,0,14.73,14.73,0,0,1,16.21,13h0a14.75,14.75,0,0,1-13,16.3h-.09A2519.65,2519.65,0,0,1,683.94,259.36Z"/><circle class="cls-11" cx="1010.83" cy="224.12" r="15.08"/><circle class="cls-11" cx="357.04" cy="224.12" r="15.08"/><path class="cls-12" d="M934.21,148.51c-10.89.79-22.2,1.53-33.85,2.21a17.22,17.22,0,0,1,33.85-2.21Z"/></svg>