<?xml version="1.0" encoding="utf-8"?>
<!-- Generator: Adobe Illustrator 25.0.1, SVG Export Plug-In . SVG Version: 6.00 Build 0)  -->
<svg version="1.1" id="Layer_1" xmlns="http://www.w3.org/2000/svg" xmlns:xlink="http://www.w3.org/1999/xlink" x="0px" y="0px"
	 viewBox="0 0 1366 1366" style="enable-background:new 0 0 1366 1366;" xml:space="preserve">
<style type="text/css">
	.st0{fill:#FFFFFF;}
	.st1{fill:none;stroke:#7F8E9D;stroke-width:30;stroke-miterlimit:10;}
	.st2{fill:#E9F0F7;}
	.st3{opacity:0.2;fill:none;stroke:#020202;stroke-width:14;stroke-miterlimit:10;enable-background:new    ;}
	.st4{opacity:0.2;}
	.st5{fill:#020202;stroke:#020202;stroke-width:14;stroke-miterlimit:10;}
</style>
<path class="st0" d="M1290.4,519.7c-13.6-46.7-41.3-81.9-87.3-99.8c-35.8-13.9-73.2-18.4-111.8-12.6c-45.5,6.9-83.3,27-113.5,61.8
	c-28.2,32.5-53.6,67.1-76.9,103.3c-0.9,1.3-1.8,2.6-3.1,4.6c-22.5-10.7-44.9-21.1-67.2-31.9c-15.4-7.5-28.1-18.5-39-31.6
	c-7.3-8.7-14.3-17.6-21.6-26.4c-19.5-23.5-42.5-41.1-73.7-46c-20.6-3.2-39.5,1.9-56.8,11.9c-11.3,6.6-21.4,15.7-31,24.8
	c-7.5,7.1-13.8,15.5-20.1,23.7c-15.8,20.9-34.8,37.9-58.8,48.9c-20.9,9.5-41.8,19.1-63.3,29c-1.3-1.9-2.4-3.5-3.4-5.1
	c-22.3-35.1-47.2-68.2-73.7-100.3c-36.3-44-83.3-65.5-139.5-68.8c-22.4-1.3-44.2,2.1-66,7.2c-53.1,12.4-88.8,44.6-107.4,95.3
	c-11.7,32-17.3,65.4-17.7,99.6c-0.3,29.8,4.8,58.7,12.4,87.3c17.4,65.2,52.8,117.2,111.7,151.6c26.5,15.5,55.5,24.7,85.2,32
	c38.6,9.5,77.6,13.4,117.2,8.9c5-0.6,7.5,0.7,10.1,4.7c16.1,24.3,36.1,44.9,59.7,62.1c53.1,38.8,112.5,57.8,178.1,57.8
	c34.7,0,69.4-0.4,104.1,0.1c29.7,0.5,58.5-4.1,86.7-12.6c59.4-18,109.5-49.9,146-101c5.7-8,10.8-11,21-10.2
	c51.3,4,100.7-6.2,148.7-23.3c36.5-13,68.6-33,94.6-62c44.8-49.7,63.5-109.8,69.1-174.9C1306.4,591,1300.7,555,1290.4,519.7z
	 M386.3,645.2c-14,19.7-20.9,42.1-26.2,65.4c-5.9,25.8-6.8,51.6-2.9,78.6c-10.1-0.5-20-0.7-29.8-1.4c-35.2-2.3-68-13.2-98.5-30.5
	c-22.8-13-38-33.2-49.7-56.4c-16.7-33.2-21.9-68.5-20-105.2c1.1-19.8,4-39.1,12.2-57.6c8.4-19.1,23.7-27.7,42.7-31.1
	c16.5-3,33.3-3,49.9,0c14.1,2.5,27.1,8.4,36.9,19.2c12.7,13.9,25.6,27.7,36.7,42.7c16.9,22.9,32.3,46.9,48.2,70.6
	C386.7,640.9,387.1,644,386.3,645.2z M1204,616.8c-0.3,13.7-1.7,27.4-5,40.9c-2.7,11.3-6.1,22.2-10.5,32.7c-0.4,1-0.9,2.1-1.3,3.1
	c-3.1,7.2-6.7,14.2-10.9,20.9c-2.4,3.8-4.9,7.5-7.6,11.1c-6.8,9-14.8,17.3-24.2,24.7c-4.1,3.2-8.3,6-12.8,8.5
	c-9.8,5.5-20.3,9.7-30.6,14c-8.4,3.5-16.8,6.3-25.4,8.5c-3.4,0.9-6.9,1.7-10.4,2.4c-10.4,2.2-21,3.6-31.6,4.4
	c-5.3,0.4-10.7,0.7-16.1,0.9c-0.7,0-1.4,0-2.1,0c-0.7,0-1.4,0-2.1,0c0.2-2.5,0.3-5,0.5-7.4c0.2-2.4,0.4-4.9,0.6-7.3
	c0.4-4.8,0.6-9.6,0.6-14.3c-0.2-36.8-7.4-72.1-25.3-104.6c-2.7-4.9-6.1-9.6-9.5-14.1c-1.9-2.6-2.1-4.4-0.3-7.2
	c9.2-15.1,18.9-29.9,29.2-44.2c5.1-7.2,10.4-14.2,15.8-21.2c5.4-7,11-13.8,16.7-20.6c3.9-4.6,7.9-9,11.8-13.6
	c8.8-10.3,18.9-18,30.4-22.9c2.5-1.1,5.2-2,7.9-2.8c6.7-2,13.9-3.1,21.5-3.3c2.5-0.1,4.9-0.1,7.4-0.1c1.2,0,2.5,0,3.7,0
	c2.5,0,4.9,0,7.3,0.1c0.6,0,1.2,0,1.8,0.1c2.4,0.1,4.8,0.3,7.3,0.5c0.6,0.1,1.2,0.1,1.8,0.2c1.2,0.1,2.4,0.3,3.6,0.5
	c0.6,0.1,1.2,0.2,1.8,0.3c1.2,0.2,2.4,0.4,3.6,0.7c4.1,0.9,8.2,2.1,12.3,3.8c1.2,0.5,2.3,1,3.4,1.5c1.1,0.5,2.3,1.1,3.4,1.7
	c2.8,1.5,5.3,3.2,7.6,5.1c1.5,1.3,3,2.7,4.3,4.2c2,2.2,3.7,4.7,5.2,7.4c0.6,1,1.1,2.1,1.7,3.1c4.3,8.4,7.4,17.1,9.6,26.1
	c0.3,1.1,0.5,2.2,0.8,3.4c0.5,2.3,0.9,4.5,1.3,6.8c0.2,1.1,0.4,2.3,0.5,3.4c0.3,2.3,0.6,4.6,0.9,7c0.1,1.2,0.2,2.3,0.3,3.5
	C1203.7,595.3,1204.2,606.1,1204,616.8z"/>
<path class="st1" d="M451.2,653.9c-26.1-49.7-57.5-96.5-93.8-139.4c-11.6-13.8-23.9-27.2-38.9-37.1c-25.3-16.7-56.8-21.9-87.1-20.6
	c-31.7,1.3-64.9,10.3-86.5,33.5c-32.6,35-39.3,103-34.5,148.5c7.2,69.1,40.5,137.9,103.9,169.8c64.9,32.7,141.8,41.7,212.3,23.6"/>
<path class="st1" d="M914.8,653.9c26.1-49.7,57.5-96.5,93.8-139.4c11.6-13.8,23.9-27.2,38.9-37.1c25.3-16.7,56.8-21.9,87.2-20.6
	c31.7,1.3,64.8,10.3,86.5,33.5c32.6,35,39.3,103,34.5,148.5c-7.2,69.1-40.5,137.9-103.9,169.8c-64.9,32.7-141.8,41.7-212.3,23.6"/>
<path class="st2" d="M748.2,979.3c19.8,0.2,39.5-2.4,58.5-7.7c55.9-15.8,109.1-47.1,143.3-99.5c41.1-62.8,46.2-160.2-1.5-216.6
	c-45.4-53.7-121.4-56.8-170.7-105.6c-16.4-16.2-29.1-36.8-45.8-52.6c-10.5-9.9-23.9-17.8-37.4-20.2c-2.3-0.4-4.7-0.7-7-0.7h-1h-1
	c-2.3,0-4.7,0.3-7,0.7c-13.5,2.4-27,10.3-37.4,20.2c-16.7,15.8-29.4,36.4-45.8,52.6c-49.3,48.8-125.4,52-170.7,105.6
	c-47.6,56.4-42.6,153.7-1.5,216.6c32.7,50,82.7,80.8,135.8,97.3c21.6,6.6,44,10,66.6,9.9H748.2z"/>
<path class="st3" d="M777.9,594.2c-16.4-16.2-29.1-36.8-45.8-52.6c-10.5-9.9-23.9-17.8-37.4-20.2c-2.3-0.4-4.7-0.7-7-0.7
	c-0.3,0-0.7,0-1,0s-0.7,0-1,0c-2.3,0-4.7,0.3-7,0.7c-13.5,2.4-27,10.3-37.4,20.2c-16.7,15.8-29.4,36.4-45.8,52.6"/>
<g class="st4">
	<path class="st5" d="M516.5,727.8c14.2-0.2,28.4-0.3,42.6-0.5l42.6-0.3l85.1-0.2l85.1,0.2l42.6,0.3c14.2,0.2,28.4,0.3,42.6,0.5
		c-14.2,0.2-28.4,0.3-42.6,0.5l-42.6,0.3l-85.1,0.2l-85.1-0.2l-42.6-0.3C544.8,728.1,530.7,728,516.5,727.8z"/>
</g>
<g class="st4">
	<polygon class="st5" points="458.6,790.7 515.6,790.2 572.6,789.9 686.7,789.7 800.8,789.9 857.8,790.2 914.8,790.7 857.8,791.2 
		800.8,791.5 686.7,791.7 572.6,791.5 515.6,791.2 	"/>
</g>
<g class="st4">
	<path class="st5" d="M531.3,868.4c12.9-0.2,25.9-0.3,38.8-0.5l38.8-0.3c25.9-0.2,51.8-0.2,77.7-0.2c25.9,0.1,51.8,0.1,77.7,0.2
		l38.8,0.3c12.9,0.2,25.9,0.3,38.8,0.5c-13,0.2-25.9,0.3-38.8,0.5l-38.8,0.3c-25.9,0.2-51.8,0.2-77.7,0.2
		c-25.9-0.1-51.8-0.1-77.7-0.2l-38.8-0.3C557.2,868.7,544.3,868.6,531.3,868.4z"/>
</g>
</svg>
