<?xml version="1.0" encoding="utf-8"?>
<!-- Generator: Adobe Illustrator 25.0.1, SVG Export Plug-In . SVG Version: 6.00 Build 0)  -->
<svg version="1.1" id="Layer_1" xmlns="http://www.w3.org/2000/svg" xmlns:xlink="http://www.w3.org/1999/xlink" x="0px" y="0px"
	 viewBox="0 0 1366 1366" style="enable-background:new 0 0 1366 1366;" xml:space="preserve">
<style type="text/css">
	.st0{fill:#FFFFFF;}
	.st1{fill:none;stroke:#7F8E9D;stroke-width:30;stroke-miterlimit:10;}
	.st2{fill:#7AB0CE;}
	.st3{fill:#F0F0F0;}
	.st4{opacity:0.5;}
	.st5{opacity:0.2;}
	.st6{fill:#020202;stroke:#7F8E9D;stroke-width:16;stroke-miterlimit:10;}
	.st7{opacity:0.2;fill:#FFFFFF;stroke:#7F8E9D;stroke-width:14;stroke-miterlimit:10;enable-background:new    ;}
</style>
<path class="st0" d="M1330.6,469.6c-13.9-40.9-41.1-70.4-81.4-86.4c-42.1-16.7-84.4-14-125.5,3.7c-34.3,14.8-59.2,40.5-77.6,72.4
	c-6.3,10.9-11,22.7-16.7,34.6c-230.5,0-461.9,0-694,0c-5.8-19.8-16.3-36.9-27.8-53.6c-37-53.9-111.7-78.2-168.6-63.9
	c-49.3,12.4-83.5,41.3-101.5,87.9c-14.8,38.4-18.6,78.9-15.5,120.1c2.4,31.9,7,63.4,14,94.6c14.3,63.3,36.7,123.4,68.4,180
	c28.5,50.8,67.4,91.5,118.4,119.7c21.5,11.9,44.6,19.6,70.2,12.3c14.2-4.1,25.9-11.3,34.4-23.3c3.1-4.4,6.3-6.2,11.8-6.2
	c229.3,0.2,458.6,0.2,688,0c5.3,0,8.4,1.5,11.5,5.8c14,19.7,34.4,27.4,57.3,26.2c16.7-0.9,32.9-6.2,47.7-14.8
	c45.4-26.3,82.5-61.1,109.9-106.2c32.7-53.8,55.7-111.7,71.5-172.5c10.4-39.8,17.3-80.2,19.6-121.3
	C1346.7,541.7,1342.6,505,1330.6,469.6z M242.3,864.5c0,1.9,0,3.8,0,5.6c-0.5,0.3-0.9,0.6-1.4,0.8c-7.5-7.5-15.5-14.7-22.6-22.6
	c-17.8-20-30.2-43.5-41.7-67.5c-19-39.6-34.7-80.4-44.2-123.4c-9.1-41.4-12.8-83.4-9.5-125.8c1-12.5,3.9-24.4,9.6-35.6
	c7.7-15,20.2-22.4,36.7-23.5c27.9-1.8,47.6,11.2,62.1,33.9c1,1.6,1.9,3.4,2.9,5.1c5.3,9.9,8.1,20,8.1,31.6
	C242.1,650.3,242.3,757.4,242.3,864.5z M1235.3,648c-0.8,4.2-1.8,8.4-2.7,12.6c-1.4,6.3-3,12.6-4.7,18.8c-1.1,4.2-2.3,8.3-3.6,12.4
	c-1.2,4.1-2.5,8.3-3.9,12.4c-4.7,14.4-10.1,28.7-16.1,42.9c-1.5,3.7-3.1,7.3-4.7,10.9c-9.5,21.8-19.8,43.2-32.4,63.5
	c-2.1,3.4-4.3,6.7-6.5,10c-9.7,14.4-21.5,27-35,38c-0.2,0.2-0.5,0.3-0.8,0.6c-0.2,0.1-0.4,0.2-0.6,0.4c-0.2,0.1-0.5,0.3-0.8,0.5v0v0
	c0-1.1,0-2,0-2.9c0-0.6,0-1.1,0-1.6c0-0.8,0-1.5,0-2.2c0-106.6,0.3-213.2-0.3-319.8c0-1,0-2.1,0.1-3.1c0.4-11.3,3.6-21.2,8.6-30.5
	c1.8-3.4,3.9-6.6,6.2-9.8c5-7,10.6-12.7,16.8-17.3c1.1-0.8,2.3-1.6,3.5-2.3c1.8-1.1,3.6-2.1,5.4-3c3.7-1.8,7.6-3.2,11.7-4.3
	c2.1-0.5,4.2-0.9,6.3-1.2c0.7-0.1,1.4-0.2,2.2-0.3c2.2-0.2,4.4-0.4,6.7-0.4c2.3,0,4.6,0.1,7,0.3c1.9,0.2,3.7,0.4,5.5,0.7
	c0.9,0.2,1.8,0.4,2.6,0.6c6.9,1.7,12.9,4.8,18,9.5c3.2,2.9,6,6.5,8.4,10.6c9,15.6,10.9,32.9,11.6,50.4
	C1245.1,579.9,1242.1,614.3,1235.3,648z"/>
<g>
	<g id="Layer_1_1_">
		<path class="st1" d="M1072,550.9c-5.3-42.9,25.8-93.1,61-112.9c50-28.2,117.8-18.1,144.4,38.2c12.2,25.8,15.1,55.3,15.1,84
			c-0.1,79.2-21.2,157.4-53.5,229c-16.2,35.8-35.4,70.6-61.7,99.1c-14.2,15.4-95.1,86.3-104.4,38.5c-0.1-0.3-0.1-0.7-0.2-1
			c-1-6.4-0.2-12.9-0.4-19.3v-10.1"/>
		<path class="st1" d="M293.2,550.9c5.3-42.9-25.8-93.1-61-112.9c-50-28.2-117.8-18.1-144.4,38.2c-12.2,25.8-15.1,55.3-15.1,84
			c0.1,79.2,21.2,157.4,53.5,229c16.2,35.8,35.4,70.6,61.7,99.1c14.3,15.5,95.2,86.3,104.5,38.5c0.1-0.3,0.1-0.7,0.2-1
			c1-6.4,0.2-12.9,0.5-19.3v-10.2"/>
		<rect x="284.5" y="529.7" class="st2" width="797.1" height="396.3"/>
		<rect x="278.1" y="529.7" class="st3" width="49.7" height="396.3"/>
		<rect x="1038.3" y="529.7" class="st3" width="48.6" height="396.3"/>
		<g class="st4">
			<g class="st5">
				<polygon class="st6" points="327.8,579.1 416.6,578.9 505.4,578.8 683,578.6 860.7,578.8 949.5,578.9 1038.3,579.1 949.5,579.3 
					860.7,579.4 683,579.6 505.4,579.4 416.6,579.3 				"/>
			</g>
			<g class="st5">
				<polygon class="st6" points="327.8,638.6 416.6,638.4 505.4,638.3 683,638.1 860.7,638.3 949.5,638.4 1038.3,638.6 949.5,638.8 
					860.7,638.9 683,639 505.4,638.9 416.6,638.8 				"/>
			</g>
			<g class="st5">
				<polygon class="st6" points="327.8,698.1 416.6,697.8 505.4,697.8 683,697.6 860.7,697.8 949.5,697.8 1038.3,698.1 949.5,698.3 
					860.7,698.4 683,698.5 505.4,698.4 416.6,698.3 				"/>
			</g>
			<g class="st5">
				<polygon class="st6" points="327.8,757.6 416.6,757.3 505.4,757.3 683,757.1 860.7,757.3 949.5,757.3 1038.3,757.6 949.5,757.8 
					860.7,757.9 683,758 505.4,757.9 416.6,757.8 				"/>
			</g>
			<g class="st5">
				<polygon class="st6" points="327.8,817 416.6,816.8 505.4,816.7 683,816.6 860.7,816.7 949.5,816.8 1038.3,817 949.5,817.3 
					860.7,817.3 683,817.5 505.4,817.3 416.6,817.3 				"/>
			</g>
			<g class="st5">
				<polygon class="st6" points="327.8,876.5 416.6,876.3 505.4,876.2 683,876.1 860.7,876.2 949.5,876.3 1038.3,876.5 949.5,876.8 
					860.7,876.8 683,877 505.4,876.8 416.6,876.8 				"/>
			</g>
		</g>
		<path class="st7" d="M303.1,905.8"/>
		<path class="st7" d="M303.1,544.1"/>
		<path class="st7" d="M1062.9,905.8"/>
		<path class="st7" d="M1062.9,544.1"/>
		<rect x="482.2" y="544.1" class="st0" width="401.7" height="19.2"/>
		<rect x="683" y="544.1" class="st0" width="200.9" height="19.2"/>
	</g>
</g>
</svg>
