<svg id="Layer_1" data-name="Layer 1" xmlns="http://www.w3.org/2000/svg" viewBox="0 0 1746.76 963.16"><defs><style>.cls-1{fill:#fff;}.cls-2{fill:#fdfdfd;}.cls-3{fill:#d5e2f2;}.cls-4{fill:#66859f;}.cls-5{fill:#d4e2f3;}.cls-6{fill:#d6c7ae;}.cls-7{fill:#d5e3f4;}.cls-8{fill:#63727a;}.cls-9{fill:#8caac6;}.cls-10{fill:#d5e3f3;}.cls-11{fill:#364e5d;}.cls-12{fill:#d3ab59;}.cls-13{fill:#d49a74;}.cls-14{fill:#d1936f;}.cls-15{fill:#d1926f;}.cls-16{fill:#6ba0b9;}.cls-17{fill:#d2936f;}.cls-18{fill:#d1b880;}.cls-19{fill:#4b6478;}.cls-20{fill:#735128;}.cls-21{fill:#745730;}.cls-22{fill:#624b36;}.cls-23{fill:#d4e3f3;}.cls-24{fill:#5f4827;}.cls-25{fill:#e5cfb8;}.cls-26{fill:#4c6479;}.cls-27{fill:#4a6277;}.cls-28{fill:#4e7b78;}.cls-29{fill:#d7a886;}.cls-30{fill:#cca86c;}.cls-31{fill:#d8b395;}.cls-32{fill:#64829b;}.cls-33{fill:#65849e;}.cls-34{fill:#64839c;}.cls-35{fill:#64829e;}.cls-36{fill:#5c7275;}.cls-37{fill:#5c4527;}.cls-38{fill:#689eb4;}.cls-39{fill:#d2a180;}.cls-40{fill:#647078;}.cls-41{fill:#d1e2f1;}.cls-42{fill:#c7d7ea;}.cls-43{fill:#d3a688;}.cls-44{fill:#d6af94;}.cls-45{fill:#63839c;}.cls-46{fill:#64819c;}.cls-47{fill:#66839e;}.cls-48{fill:#558290;}.cls-49{fill:#e1cab4;}.cls-50{fill:#bdcddc;}.cls-51{fill:#63819b;}.cls-52{fill:#9fb6ce;}.cls-53{fill:#99b0ca;}.cls-54{fill:#3e6a7b;}.cls-55{fill:#cb9c80;}.cls-56{fill:#377d74;}.cls-57{fill:#367c71;}.cls-58{fill:#397b77;}.cls-59{fill:#ae6e4b;}.cls-60{fill:#8caac7;}.cls-61{fill:#cab5aa;}.cls-62{fill:#b9cade;}.cls-63{fill:#e3d0bb;}.cls-64{fill:#e8f3fa;}.cls-65{fill:#fdfdfe;}.cls-66{fill:#cca96e;}.cls-67{fill:#cf996e;}.cls-68{fill:#84b0b1;}.cls-69{fill:#85b0b2;}.cls-70{fill:#fefefd;}.cls-71{fill:#fdfefe;}.cls-72{fill:#a48249;}.cls-73{fill:#d2ac87;}.cls-74{fill:#d6e1ec;}.cls-75{fill:#a6a090;}.cls-76{fill:#e2d0ba;}.cls-77{fill:#cba759;}.cls-78{fill:#d4e3f4;}.cls-79{fill:#d4c8b5;}.cls-80{fill:#d3c8b3;}.cls-81{fill:#cad9eb;}.cls-82{fill:#b67852;}.cls-83{fill:#fefefe;}.cls-84{fill:#adbac0;}.cls-85{fill:#63717c;}.cls-86{fill:#d3e3f4;}.cls-87{fill:#646f72;}.cls-88{fill:#e8d0b4;}.cls-89{fill:#b08740;}.cls-90{fill:#e9d0b5;}.cls-91{fill:#997053;}.cls-92{fill:#d49a75;}.cls-93{fill:#4c6278;}.cls-94{fill:#a87958;}.cls-95{fill:#e6d0b9;}.cls-96{fill:#cbd6e7;}.cls-97{fill:#b7774f;}.cls-98{fill:#b4774f;}.cls-99{fill:#b67750;}.cls-100{fill:#cfb889;}.cls-101{fill:#b77851;}.cls-102{fill:#626d6d;}.cls-103{fill:#b67751;}.cls-104{fill:#b6774f;}.cls-105{fill:#9ab5d1;}.cls-106{fill:#e5d0ba;}.cls-107{fill:#378679;}.cls-108{fill:#c5814b;}.cls-109{fill:#d2a86a;}.cls-110{fill:#c7995c;}.cls-111{fill:#e6f4fa;}.cls-112{fill:#58899e;}.cls-113{fill:#eff6fb;}.cls-114{fill:#9cb1ac;}.cls-115{fill:#4a7991;}.cls-116{fill:#e4ecf1;}.cls-117{fill:#c07d4b;}.cls-118{fill:#415b65;}.cls-119{fill:#e8d1b6;}.cls-120{fill:#e8d1b5;}.cls-121{fill:#967869;}.cls-122{fill:#78563d;}.cls-123{fill:#76583c;}.cls-124{fill:#65492e;}.cls-125{fill:#5f4530;}.cls-126{fill:#7a6450;}.cls-127{fill:#73583e;}.cls-128{fill:#7c6b59;}.cls-129{fill:#614935;}.cls-130{fill:#8dabc8;}.cls-131{fill:#8aa4c1;}.cls-132{fill:#62727b;}.cls-133{fill:#cc9676;}.cls-134{fill:#cb9578;}.cls-135{fill:#cca759;}.cls-136{fill:#65849f;}.cls-137{fill:#63829d;}.cls-138{fill:#6784a0;}.cls-139{fill:#64849f;}.cls-140{fill:#65859f;}.cls-141{fill:#63839e;}.cls-142{fill:#64839d;}.cls-143{fill:#63839d;}.cls-144{fill:#627f9a;}.cls-145{fill:#465f74;}.cls-146{fill:#4f6a81;}.cls-147{fill:#455f74;}.cls-148{fill:#4a6378;}.cls-149{fill:#627f9b;}.cls-150{fill:#607b98;}.cls-151{fill:#445d73;}.cls-152{fill:#a3824a;}.cls-153{fill:#a1824b;}.cls-154{fill:#9e814a;}.cls-155{fill:#9f8248;}.cls-156{fill:#c1d5ed;}.cls-157{fill:#c2d5ec;}.cls-158{fill:#8db6ad;}.cls-159{fill:#64b8aa;}.cls-160{fill:#b8afa0;}.cls-161{fill:#70563d;}.cls-162{fill:#a78667;}.cls-163{fill:#5f4229;}.cls-164{fill:#886e52;}.cls-165{fill:#856a52;}.cls-166{fill:#6f6047;}.cls-167{fill:#655139;}.cls-168{fill:#5c4934;}</style></defs><ellipse class="cls-1" cx="1269.07" cy="290.51" rx="32.29" ry="37.34"/><ellipse class="cls-2" cx="597.61" cy="231.41" rx="34.74" ry="39.13"/><path class="cls-3" d="M1565.6,701.61c7.43,2.21,15.2,3.42,22.13,7.17,27.59,14.92,44.88,37.1,48.77,68.85,2.91,23.74-4.53,44.35-18.68,63-12,15.87-28.31,25.26-47.26,30.15a79.63,79.63,0,0,1-19.6,2.57q-685.2.18-1370.4-.06c-20.55,0-39-7.44-55-20.93-16.24-13.66-25.92-31-29.7-51.39-3.82-20.58.57-40.14,11-58.26,11.85-20.51,30.13-32.7,52.31-39.4,12.73-3.85,26-2.65,39.08-2.58,2.44,0,4.27,2.74,7,1.91,2.6,1.77,2.14,4.57,2.48,7.15,1.42,10.92,1.34,22.07,5,32.65.19.65.11-.19.18.47,1.42,12.1,2,24.22.38,36.35a3.37,3.37,0,0,1-1,1.7c-5.56,2.1-11.5,1.24-17.23,2.12-7.52,1.16-15.06,2.16-23,4,1.79,2.77,4.08,2.61,6,2.91,15.15,2.31,30.39,3.78,45.67,4.92,28,2.1,56.13,3.17,84.2,4.86,9.46.56,19,.55,28.43.86,23.78.76,47.54,2,71.34,2.5,20.14.42,40.29.08,60.4.93,27.11,1.16,54.24,1.2,81.34,2.1,25,.83,50-.14,74.91.84,47.61,1.87,95.25-.2,142.85,1,65.61,1.69,131.22,1.12,196.81.61,48.94-.38,97.89.22,146.8-1,31.31-.78,62.61.15,93.89-.86,28.94-.93,57.92-.69,86.83-2.11,15.16-.74,30.31-.08,45.42-.85,25.93-1.32,51.9-1,77.81-2.74,11.11-.75,22.28-.47,33.43-1,25.42-1.18,50.84-2.33,76.24-4,19.44-1.27,38.89-2.19,58.16-5.23,4.39-.7,8.91-.85,13.38-2.86-1.14-1.93-2.92-1.72-4.38-2-6.4-1.11-12.82-2.08-19.21-3.24-7.37-1.32-8.31-2.44-8.33-9.81,0-14.48,0-29,0-43.44,0-7.32,0-14.63,0-21.94C1564.11,705.55,1563.68,703.27,1565.6,701.61Z"/><path class="cls-4" d="M1564.73,502.07q-.06,67.24-.11,134.48a16.27,16.27,0,0,1,1.29,7.3c0,15.81.56,31.65-.2,47.43-.56,11.63-.63,23.23-.71,34.85,0,3.15-1.58,4.53-4.44,4.92a48.5,48.5,0,0,1-6.49.23H1038.46c-2.66,0-5.34.17-7.93-.65-2.94-1.29-3.76-4-4.64-6.75-3.21-9.87-1.3-19.44,1.9-28.87a158.64,158.64,0,0,1,14.09-29.74c2-3.33,4.66-5.19,8.53-5,14,.68,27.94.75,41.89,1.51,1.49.08,3,.43,4.48.38,19.15-.6,38.27.81,57.41,1.23,27.13.58,54.26.78,81.4.81,8.66,0,9-.21,11.08-8.75,8.71-35.59,15.55-71.57,22.48-107.53,2.93-15.2,6-30.38,8.81-45.6.32-1.74-.14-4.57,3.25-4.13,1.46,1.89,3.38,2.26,5.71,2.26q134.91-.37,269.82-.16C1559.49,500.29,1562.48,499.66,1564.73,502.07Z"/><path class="cls-5" d="M1317.5,355.15a149,149,0,0,0,7.1-32.18c2.54-23,4.1-46.14,12.91-67.93,11.72-28.95,28.7-53.55,58-67.13,18.33-8.49,37.32-12.16,57.35-4.82,15.75,5.77,24,21.26,22,37.89-2,15.86-6.79,31-10.63,46.37-2.53,10.17-3.17,20.53-4.61,30.81-2,14-1.73,28.25-.81,42.28.89,13.58,2.12,27.43,8.85,39.87a31.49,31.49,0,0,0,6.45,8.78c3.33,3,6.43,2.29,8.19-1.81,1.85-4.3,1-8.84,1.22-13.29,3.4-2.09,6.76-2.25,10.07.22.34,2.93.88,5.83,1.09,8.8.47,6.79,5.17,11.79,10.43,14.22,5.09,2.35,11.24-.46,16.5-3,8.57-4.08,11-11.24,9.86-20.1a10.58,10.58,0,0,1,12.07,0c0,2.83-.07,5.65,0,8.47.13,4.87,2.49,7.14,7.42,7.4,7.31.4,14.48-1.31,21.81-1.07,18.61.59,35,6.56,46.9,21.08,8.71,10.61,11.26,23.11,5.53,36.64-5.56,13.1-15.37,22.63-25.23,32.26-2.58,2.53-5.6,2.24-8.7,2-4.15-.42-6-5.15-10.29-5.39-9.62-.58-19.23-.09-28.84-.25a18.19,18.19,0,0,1-4.94-.36c-2-.61-3-2.26-1.5-3.71,4-3.87,3.28-8.87,3.72-13.52.66-6.89,1.4-13.81.78-20.75a15.56,15.56,0,0,1,0-6.41,61.45,61.45,0,0,0-.83-27.12c-1.28-5.31-7.17-9.82-11.87-10-6.13-.22-10,3-12.32,8.35-3.32,7.69-2.81,15.9-3.14,24-.07,1.64,1.19,2.66,2.31,3.68.22,2.79-1.71,5.08-1.8,7.81-1.72,3.61-1.47,7.46-1.47,11.28q0,7,0,14c0,2.86.28,5.41,2.71,7.63s1.46,4.15-1.66,4.91a14.46,14.46,0,0,1-3.48.23c-10.32,0-20.63.05-31,0-2.43,0-5.16.38-6.36-2.67,1.64-3.06,4.6-2,7-2.07,11.56-.22,11.33-.18,12.72-11.87,1-8.39,2-16.91,2.37-25.2.41-9.42.85-19.28-1.65-28.71-1.63-6.12-7.25-10.86-12.75-11.06-5-.18-10,3.77-12.07,10.26-2.62,8.14-3.18,16.6-2.85,25.11-.31,2.52-1.16,5.11,1.41,7.14.59.47-.15,1.16-.53,1.67-1.75,1.4-2,3.33-2,5.39,0,6.8.21,13.62-.07,20.42-.2,4.71,3.29,6.06,6.19,8.14,1.22,4.13-2.15,3.35-4,3.37-8.59.11-17.19.36-25.77-.11a4,4,0,0,1-1.49-.65c-1.27-1.64.09-2.73.9-3.87,4.73-6.7,3.45-14.8-3.19-19.73A32,32,0,0,0,1431,445a12.15,12.15,0,0,1-1.58-.39c-8.28-1.93-16.73-2.46-25.16-3.17-11.41-1-22.84-.57-34.27-.16-6,.22-11.87,1.43-17.79,2.18a8.77,8.77,0,0,1-1.57.45,36.58,36.58,0,0,0-15.28,5.39c-1.74,1.08-3.37,2.89-5.82,1.63a6.37,6.37,0,0,1-1.34-4.68c.11-10.62-.93-21.2-1.25-31.81-.45-15.39-1.54-30.79-4.33-46C1321.7,363.56,1318.46,359.85,1317.5,355.15Z"/><path class="cls-6" d="M605,287.17c6.2,2.75,12.9,4.21,19,7.39a26.13,26.13,0,0,1,11.24,10.91,323.56,323.56,0,0,1,32.95,92.72c3.47,17.8,6.79,35.62,9.55,53.53A108.78,108.78,0,0,1,678.88,478c-7.72,4.88-15.66,4.45-23.72,1-1.35-1-1.53-2.53-1.79-4-4.11-23.11-10.06-45.79-15.78-68.53A29.26,29.26,0,0,1,636.4,400c.75,10-1.2,20.84-1,31.76q.44,24.16,0,48.36c-5,5.32-11.63,7-18.38,7.76-14,1.57-28,3.88-42.11,3.56-20.91-.47-41.68-1.93-62-7.19-1.69-.44-3.51-.42-5-1.49-2.28-4.41-1.52-9.19-1-13.7.91-8.44.49-17,1.87-25.34,1.92-25.31,6.58-50.25,10.63-75.29a173.85,173.85,0,0,0-17.55,53.15c-1.13,6.88-2.48,13.73-3.67,20.61-.34,10.52-3.4,20.63-4.52,31-.27,2.48-.4,5-2.44,6.85-6.27,2-12.62,3.11-19.12,1.31-2.78-.77-4.84.32-6.81,2-1.85.24-3.27,0-2.66-2.43.83-.28,1.66-.72,1.52-1.69-1.18-8.75,1.25-17.31,1.33-26.05.13-14.66,2.47-29.22,4.28-43.8,2.38-19.16,7.3-37.62,13.59-55.74,4-11.62,10-22.44,16-33.16,2.6-4.62,5.76-8.92,8.51-13.46,9.28-15.37,23.45-22.15,40.78-24,6.86-.75,13.84-.87,20.54-2.88,8.7,7.79,18.85,10.42,30.3,8.73A14.79,14.79,0,0,0,605,287.17Z"/><path class="cls-7" d="M320.13,545.83c2.91.37,4.35-.63,4.11-3.83-.21-3-.11-5.92-.9-8.88-.67-2.52-.3-4.71,3.49-3.35,4,1.42,8,.9,12.22.26,13.57-2.08,29.39,10.6,31.14,24.3,2,15.58-4.43,28.29-13.3,40.28-4.62,6.24-9.92,12-13.28,19.15a33.51,33.51,0,0,0,6.23,38.16c7.72,8,16.42,15.12,23.15,24.07a50.1,50.1,0,0,1,9.18,19.14c.88,3.94,2.54,5.69,7.05,5.65,28.15-.23,56.3-.12,84.45-.1,2.31,0,4.64-.3,6.91.63,1.2.49,2.73.78,3.33-1,.53-1.58-.53-2.42-1.72-3.18-4.32-2.78-8.7-5.48-12.93-8.41-14-9.69-26.68-21-36.3-35.05-5.55-8.13-9.72-17.19-8-27.89.77-4.7,4.6-6.16,7.1-9,1.88-1.71,4.07-1,6.15-.68,20.54,3.25,41.21,3.61,61.94,3,2.34-.08,4.67-.32,6.42,1.73,1.38,2.46,1.07,5.16,1.08,7.79,0,20.09.09,40.17,0,60.26-.09,18,2,35.74,3.47,53.59.59,7.44,2,14.78,2.42,22.24-.09,3.78-2.06,5-5.78,5.08-22.94.32-45.87,1-68.8,1.74q-36.89,1.17-73.78,2c-11.42.26-22.93.22-34.36,1.51-7.27.82-14.62.11-21.93-.12a5.37,5.37,0,0,1-1.79-.62c-2.3-1.71-2.5-4.21-2.16-6.68,1.21-8.78,2.4-17.57,3.39-26.38a23,23,0,0,0,2.4-9.06c1.9-22.51,3.16-45,4.15-67.61,1-23,1.86-46.11,3.47-69.14,1-13.91.14-27.91.27-41.88C318.66,550.85,318.14,548.08,320.13,545.83Z"/><path class="cls-8" d="M512.24,764.36c-6.49-42.47-6.61-85.25-6.39-128.05,0-5.15-.05-10.29-.07-15.43.84-3.22,3.6-2.32,5.73-2.57,7.26-.87,14.57-1.1,21.84-2.14s10.37-5.06,12.07-11.84c3.1-12.37,3.06-25.06,4.54-37.59,1.41-11.87,2.63-23.81.95-35.79-.11-5.76,0-11.53-2.85-16.89-1.57-2.91-.13-5.36,2-7.54,1.45-1.49,3.59-3.09,1.53-5.43a10.26,10.26,0,0,0-7.73-3.86c-1.16,0-1.3,1.28-1.69,2.19-3,7.08-3.41,7.33-11.46,6.95-2.34-.11-4.56.9-6.9.54-2.46-.55-3.15-2.44-2.73-4.48,1-4.8-1.62-6.44-5.64-7.34-2.89-.65-5.81-1.49-6.51-5.06-.12-2.39-.79-4.77-.11-7.17,1.11-1.46,2.17-.26,3.26.06,39.56,11.54,79.34,13.07,119.39,2.63,2.25,1.14,1.74,3.33,1.86,5.21.22,3.44-.16,6.9.28,11.18,5.74-6.66,12.32-10.6,20.83-10.3,5.42,2.48,6.2,8.14,1.63,11.72-4.77,1.56-9.34,3.4-11.45,8.54-2.3,4.82-2.18,10-2.25,15.13-.09,7.16-1.16,8.76-8,11.21-2.61.93-2.9,2.89-3.38,5a116.08,116.08,0,0,0-1.51,22.26A22.7,22.7,0,0,1,629,569c-1.14,4-.43,8.15-.55,12.23-.4,10.51-.78,21-1.93,31.48a7.16,7.16,0,0,1-1.47,4.11,138.31,138.31,0,0,0-2,27.93c1.7,4.72.42,9.5.09,14.21-1.09,15.38-2.18,30.76-3.63,46.1-1.79,19-2.41,38.07-5.33,56.94-1,2.47-.46,5.28-1.61,7.72-5.44,4.74-12,4.64-18.56,4a23.14,23.14,0,0,1-8-2.29c-2.94-1.74-3.34-4.85-4.21-7.72-1.94-8.83-1.71-17.85-2.22-26.78-.84-14.91-1.79-29.82-2.35-44.76-1-25.7-2.72-51.38-2.77-77.12a202.06,202.06,0,0,0-1.58-22.27c-.9-10.81-.31-21.64-.33-32.45-.07-2.07.51-4.1.48-6.18a12.39,12.39,0,0,1-.28,2.42c-1.67,15.13-2.9,30.3-5.64,45.28-1.2,14.89-3.61,29.63-5.64,44.41-5.47,39.65-10,79.43-16.33,118.95-.75,1.91-.56,4.15-2,5.84a39.57,39.57,0,0,1-27.65-.17C512.88,769.47,512.73,766.83,512.24,764.36Z"/><path class="cls-9" d="M1029.78,729.64l528.08,0c6.62,0,6.62,0,6.63-6.67q.06-43.18.13-86.38l1,1.13c1.43,1.82,1.48,4,1.49,6.15,0,15.72,0,31.45,0,47.17a13.12,13.12,0,0,1-1.52,6.69v3.92l-.18,28c-.82,1.57-.43,3.27-.44,4.9,0,13.81-.15,27.61.06,41.41.07,4.12-1.7,5.76-5.42,6.13a59.83,59.83,0,0,1-6,.18h-303a82.63,82.63,0,0,1-14.4-1.18c-3.11-3.18-2.32-6.9-1.46-10.63,1.06-1.11,2.54-1.54,3.8-2.34a6.24,6.24,0,0,0,3.1-6.81c-.57-3-3-3.71-5.61-4a58.59,58.59,0,0,0-6.49-.14c-52.45,0-104.89.13-157.34-.08-16.67-.06-30.25-7-40.17-20.6C1030.62,734.46,1028.94,732.44,1029.78,729.64Z"/><path class="cls-10" d="M612.91,762.41c2.59-30,5.23-59.93,7.74-89.9.78-9.27,1-18.59,2.43-27.8,3.78-.41,6.59,1.15,9.29,3.77,13.24,12.88,21,28,19.59,46.93-.31,4.12,1,5.39,5.23,5.35,20-.21,39.94-.11,59.91-.08,3,0,6-.39,8.88.77a3.06,3.06,0,0,0,3.32-.33c1.25-1.25.15-2.54-.44-3.62-2.94-5.38-6.27-10.56-8.93-16.07-5.08-10.51-7.8-21.55-4.92-33.2,4.08-16.48,13.82-28.18,30.41-33,6.47-1.87,13.2-.29,19.5,2.06,7.28,2.72,14.46,5.72,22.19,7,6.22,1,12.62-.45,18.78,1.4,2.12,2.22,1.41,5,1.42,7.6q.08,47.13,0,94.25c0,10.14,0,20.28,0,30.42,0,8.63-.58,9.18-9.45,9.23-7.49,0-15,0-22.46,0-30.93,0-61.87-.4-92.79.13-21.6.37-43.2.58-64.79,1.36C612.86,768.91,612.26,768.2,612.91,762.41Z"/><path class="cls-11" d="M320.13,545.83c1,25.78-.34,51.5-1.68,77.23-1.95,37.33-2.58,74.74-6.27,112-.25,2.59-.67,4.94-3,6.46-7.27,3.82-14.69,3.64-22.22.82-2.95-2.48-3.48-6-3.79-9.48-.94-10.43-1.89-20.86-2.45-31.32-.92-17.26-2-34.51-3.42-51.73-.4-4.83-.45-9.63-.55-14.45-.39-19.12-2.17-38.15-3.61-57.21-.87-11.43-1.61-22.87-1.66-35.55-6,31-12.08,60.72-16.23,90.78q-6.69,48.46-15.47,96.58c-.76,4.1-1.74,8.14-2.66,12.19-.56,2.5-1.43,4.84-4.3,5.6-7.58,0-15.3.58-21.43-5.27-3.5-7.17-2.73-15.11-4-22.67-1-5.67-1.41-11.42-2.08-17.13,0-12.07-2.19-23.95-3.17-35.93a14.28,14.28,0,0,1-1.22-3.24c-1.33-10.82-2.47-21.65-2.12-32.57a7.47,7.47,0,0,1,1.28-4.2l.18-20.91c3.69-2.38,8-2.1,12-2.38,7.31-.5,14.56-1.5,21.83-2.31,6-.68,9.78-3.48,10.77-9.79,2.41-15.44,4.55-30.89,6.08-46.45,1.4-14.23.18-28.2-1.25-42.25-.12-1.16-.25-2.32-.42-3.47-1-6.85-1.68-7.31-8.48-7.8a153.26,153.26,0,0,1-24.2-3.32c-5.46-1.45-10.25-3.53-9.79-10.49.17-3.25-.64-6.61,1.1-9.68,2.27-1.82,4.76-1.1,7.16-.5a181.18,181.18,0,0,0,49,5c14.17-.4,28.19-2,41.56-7.25,5.18-2,5.81-1.51,6.28,4.2Q316,507.57,320.13,545.83Z"/><path class="cls-12" d="M311.87,469.32c-.23-4.49-1.88-4.7-5.88-3-12.54,5.45-26,6.91-39.49,7.43a187.48,187.48,0,0,1-53-5.22,48.39,48.39,0,0,0-5.4-.76c-2.65.18-2.83-1.86-3.1-3.63a21.6,21.6,0,0,1,.33-7.43c2.7-13.69,4.77-27.5,6.7-41.3,2.52-18.05,5.78-36,7-54.71-3.9,7.3-6.3,14.7-9,22-.75,2-1.24,4.19-3.54,5.14-9.27.85-17.84-.86-25.23-6.89-2.51-1.86-2.93-3.94-2.19-7.16,4.22-18.46,10.39-36.35,15.52-54.53a18.94,18.94,0,0,1,5.65-8.65c2.67-2.45,5.26-5,7.88-7.5a37.62,37.62,0,0,1,16.13-9.2c1.57-.46,3.15-1.08,4.79-.25a2.29,2.29,0,0,1,.77,1.95,3,3,0,0,0,.57,2.32c12.34,13.89,30.95,19.66,48.2,7,1.54-1.14,3.57-2.17,2.34-4.74a2.21,2.21,0,0,1,1.16-2.37,3.22,3.22,0,0,1,2.82.54c8.93,6.78,17.62,13.79,22,24.65-.1,1-.57,2.07-.24,2.84,4.86,11.22,5.67,23.66,10.53,34.85,1.55,3.55-2.27,3.36-3.21,5.14-2.18,3.18-5.7,4.44-8.89,6.14-8.4,4.48-8.54,4.71-7.62,14.18.12,1.3.47,2.63-.23,3.89,3.53,19,7.88,37.77,12.58,56.49C311.73,454.06,314,461.47,311.87,469.32Z"/><path class="cls-5" d="M976.66,277.08c2.71.57,4.1-1.16,4.93-3.22,2-4.81,6-7.29,10.2-9.69,15.77-9,32-17.06,50.22-19.46s36.89.4,47.8,17.11c7.25,11.08,6.84,23.24,3.35,35.32-5.33,18.44-14,35.42-23.78,51.89-3.46,5.85-7,11.64-10.36,17.56-2.08,3.7-4.72,4.8-9,4.17-7-1-13.94-2.73-21.1-2.77-3.31,0-5.12,1.4-7.3,4-5.34,6.35-4.43,14-5.71,21.23-1.58,8.9-2.62,17.89-3.89,26.85-1.42-5.18-5.14-6.68-10.16-7.36-11.42-1.55-19.45-7.45-23.65-18.74-3.54-9.52-7.09-19-9.95-28.75-2.35-8-4.65-16.11-12.73-20.62a8.73,8.73,0,0,1-3.23-2.17c-.62-.93-1.12-1.87-.28-2.93,5.12-3.39,10.47-6.35,15.43-10.05,7.26-5.42,9.23-12.11,7.47-20.58-1.26-6-2.58-12-2.45-18.26a42.83,42.83,0,0,1,1.44-9.84C974.27,279.21,974.51,277.36,976.66,277.08Z"/><path class="cls-13" d="M955.69,343.38c5.92,2.85,9.35,7.68,11.36,13.8,4,12.13,7.62,24.37,12.26,36.32s13.62,16.93,25.44,18.5c7.11.95,7.12.94,7.24,8.05l-1.29,15.73c-1.15,2.65-3.37,2.25-5.54,1.91-13.19-2.08-26.35-4.21-37.72-12-3.57-2.45-4.2.18-4.74,2.85-1.26,6.9-1.25,7-8.44,7.35-3,.14-2.71,2.12-3,4.06-.33,2.22.83,5.1-2.49,6.14-2.37-3.05-1.44-6.77-1.7-10.13-.28-3.64-2-5.35-5-6.62-6.06-2.6-12.61-2.78-19-3.88-6.59-1.14-13.25-.95-19.9-1.08-10.86-.2-14.3-3.22-15.35-14.07-.64-6.76-1.42-13.54-1.44-20.36a29.54,29.54,0,0,0-.74-7.73c1.1,7.41.35,15.56,1.63,23.56.13.81,0,1.66.08,2.49,1.08,12.89,4.55,16.22,17.52,16.22a169.86,169.86,0,0,1,31.19,3.13c4.27.8,9.61,1.34,10.51,6.84,1.2,7.4,1.85,15-4.44,21-1.42,1.34-3.26,1.42-5.13,1.51a333.21,333.21,0,0,1-51.33-1c-8.48-.88-15.29-4.2-18.68-12.66-1-2.58-2.15-5.15-3.43-7.63a73.12,73.12,0,0,1,3.21,7.32c3,7.82,9.11,11.77,17,12.84,18.2,2.46,36.5,2,54.79,1.12,3.68-.18,5.08-3.42,7.45-5.36,9.26,0,15.16,5.56,16.47,15.42-.38,4.45,1.93,5.84,6.05,5.66,2.21-.09,4.74-.69,6.46,1.57-1,2.4-3.19,2-5.07,2.08a31.06,31.06,0,0,0-7.8.93c-1.79.14-2.58-1.32-3.59-2.35-2.41-2.43-5-3.72-8.5-2.34a5.83,5.83,0,0,1-5.25-.71,15.83,15.83,0,0,0-15.24-.73c-6.73,3-14.08,1.55-21.16,2.09-6.47.5-13,0-19.43-.44-4.38-.28-8.28-2.67-11.86-4.92-3.1-1.95-4.46-1.32-6.39,1.27a21.76,21.76,0,0,1-11,8.2,3.13,3.13,0,0,1-2.72-2.87c1.12-11.54,1.66-23.15,3.15-34.65.57-4.38-1-8.58-.29-12.87-.91-7.73-3.84-15.06-4.47-22.86-1.5-18.67-2.61-37.26,9.25-53.59,4.41-6.09,9.53-11.42,16.17-15.2,1.58-.9,3.88-1.46,4-4a9.9,9.9,0,0,1,7.17-.68c2.51,1.79,3.67,4.67,5.53,7,9.66,12.08,21.78,18.58,37.64,17.19,6.21-.54,10.81-3.92,15.25-7.73C952.08,345.64,953.52,344,955.69,343.38Z"/><path class="cls-14" d="M216.26,486.73c9,1.47,18.05,2.93,27.21,3.29,4.62.18,7,1.62,7.1,7.09.13,11.59,3.24,23,2.64,34.71a459.67,459.67,0,0,1-6.89,59.33c-1.65,9-3.44,10.32-12.85,11.6-11,1.49-22.14,2.31-33.25,3-6.31,0-12.63.2-18.94,0-17-.58-34.09-.83-50.77-4.91-2.73-.67-5.36-1.7-8.07-2.48-5-1.46-7-5.32-8-9.93-4.29-21.78-7.83-43.65-7.38-66,.07-3.59.57-6.94,3.06-9.72,3.13-3,7.29-2.82,11.16-3.47,5.4-.91,10.83-1.5,16.28-.36,2.78,1.19,2.75,3.82,3.19,6.23.47,2.58,1.4,5,4.52,5s4-2.29,4.67-4.87.34-5.74,3.29-7.37c13.48-1.24,27-.6,40.46-.39,4.57,1.45,9.47.11,14,1.61,2.61,1.89,2.44,4.86,2.95,7.59.46,2.49,1,5.38,4.24,5.11s4-3.36,3.75-6c-.8-8.22-1.51-16.47-4.21-24.4C214,489.78,211.5,486.68,216.26,486.73Z"/><path class="cls-15" d="M551.81,529.86c2.52,8,1.35,16.13.89,24.18-.55,9.39-2,18.74-2.55,28.13a140.3,140.3,0,0,1-4.74,27.31c-1.14,4.3-3.79,6.2-7.84,7.23-8.74,2.23-17.71,2.19-26.58,3.13-1.77.19-3.7-.44-5.21,1-3.08-1.51-6.22-.16-9.31-.11-21.57.39-43.07-.35-64.38-4-.13-.11-.24-.31-.38-.32-12.49-1.43-17.68-8.8-19.29-20.95-2.65-20-6.12-40-5.36-60.28.11-3.12.4-6,3.76-7.42,2.68-3,6.38-3,9.95-3.48q9.25-1.17,18.49-2.52c1.77,2.1,1,4.75,1.55,7.12.57,2.65,1.23,5.61,4.43,5.82,3.53.24,3.89-2.89,4.44-5.5,1.25-5.86,2.19-6.66,8.37-6.75s12.57-.06,18.85,0a11.92,11.92,0,0,0,7.07-1.81c7.93,2.31,15.88,3.17,23.84.1,3,.24,2.38,2.64,2.57,4.43.26,2.46-.14,5,.36,7.42s1.69,4.61,4.57,4.18c2.61-.4,3.14-2.59,3-5-.17-2.56-1.21-5.4,2.1-6.92,9.78-1.46,19.18.7,28.56,3A5.32,5.32,0,0,1,551.81,529.86Z"/><path class="cls-4" d="M806.74,588.8c.44-2,1.67-3.33,3.81-3.16,2.43.19,2.46,2.27,2.86,4.06.27,1.23.05,3,1.69,3.28,1.81.26,2.49-1.4,2.91-2.84,1.27-4.27,3.39-4.46,6.38-1.53a21.29,21.29,0,0,0,2.38,1.81c1.3,1,2.63,1.55,4,.11,1.12-1.2.64-2.35,0-3.62-3.42-6.52-3-7.13,4.65-7.21.66,0,1.33,0,2,0,1.74-.09,3.74-.45,4-2.31.32-2.47-2.15-2.46-3.79-3.07-2.17-.81-5.93,1.3-6.44-1.87s3.42-2.86,5.51-3.93c1.18-.61,2.7-1.17,2.27-2.81-.47-1.8-2.14-1.09-3.38-1.05-3,.08-6.27,3.18-8.85,0s1.11-5.71,2.12-8.49c.33-.9,1.14-1.86.1-2.7s-2-.14-2.66.51a53.15,53.15,0,0,0-4.47,4.66c-2.89,3.44-3.82,3.31-5.66-.92-.66-1.52-1.34-3-2.11-4.5-.57-1.07-1.48-2.08-2.75-1.69s-1.49,1.78-1.33,3c.25,1.8.77,3.56,1.08,5.35s-.17,3-2.13,3.22-2.26-1-2.44-2.44c-.41-3.16.15-6.3.19-9.45.19-15.46.15-30.93.12-46.4a8.82,8.82,0,0,0-1-2.73c1.64-1.86,3.9-1.66,6-1.63,12.57.21,25.16-.74,37.71.62,2.94.32,5.45-1.28,8.26-1.33,1.86,1.85,1,4.08.74,6.15a308.81,308.81,0,0,0-2.08,35.32c.07,16.19,2.87,32.12,4.46,48.16,1,10.1,2.37,20.16,3.4,30.25,1.39,13.64-1.3,26.85-4.76,39.92-3.11,11.74-5.81,23.59-9.06,35.29-1.75,6.29-3.07,12.61-2.22,19.18-.82,5.2-3.52,9.74-5.2,14.64a3.8,3.8,0,0,1-2.7,2.61c-6.14-.08-12.28.24-18.38-.81a29.81,29.81,0,0,0-9.42.33c-2,.3-4,.52-5.71-.92a6,6,0,0,1-.36-2.78V624.89C806.62,612.86,806.05,600.83,806.74,588.8Z"/><path class="cls-16" d="M1317.5,355.15c6.68,5.63,6.94,13.8,8,21.4,2.27,17.14,2.94,34.4,3.53,51.68.25,7.51-.35,15.19,1.73,22.59,0,.16.2.38.14.47a21.1,21.1,0,0,0-2.32,20.49c.16.43-.13,1-.29,1.45a4,4,0,0,1-3.68,2c-5.35.15-10.72.78-16-.46-2-1.16-1.15-2.82-.62-4.3,2.53-7,2.19-13.47-3.8-18.78a7.22,7.22,0,0,1,1.46-6.6c2.81-3.16,2.85-6.61,2.82-10.6-.1-13.13-1.05-26.29.67-39.39.59-4.54-.82-8.92-1.06-13.92,0,9.09.49,17.69-.94,26.21-.3,1.82-.41,3.68-1.32,5.3a8.12,8.12,0,0,0-.51,8c1.72,4,.17,6.59-4.58,9.7-2.22.51-3.19-1.27-4.49-2.46-3.65-3.36-7-3.5-11.13-.68-2.75,1.87-4.36,5-7.29,6.61-6,1.59-7,1.21-10.35-3.64-4.82-7-15.28-8.73-22.13-3.83-2.61,1.86-4.65,4.89-8.46,4.58-4.09-1-8-2.65-12.32-2.79-2.5-4.49-2.33-5.13,2.49-6,2.46-.46,3.47-2.29,4.92-3.8,1.3-1.37,1.71-3.72,4.16-3.84,3.59,1.33,3,4.42,3.19,7.2-1.19-8-1.8-16-5.2-23.59a37.73,37.73,0,0,1-3.38-18.23c-1,5.47,1.56,11.55,2.48,17.85-6,5.85-13.7,7.72-21.6,9.06-2.06.59-3-1.74-4.8-1.83a163.42,163.42,0,0,1-18.94-8.54,16.5,16.5,0,0,0-6-2.19,9.1,9.1,0,0,1-4.5-2.05,27,27,0,0,0-2.14-1.7c-4.36-2.56-7.88-6.64-13.28-7.34-6.76-10.84-3.49-18.38,6.73-23,10.62,3.91,20.08,10.25,30.54,14.5,4.89,2,9.17,2.32,13.19-1.8,6.26-6.43,13.12-12.34,18.94-19.14a46.68,46.68,0,0,1,25.42-15.54,7.77,7.77,0,0,1,.65.75c7.68,11.2,18.93,13.09,30.36,5.23,1.92-1.32,3.29-4,6.34-3.14,7,3,13,7.59,19.23,11.75C1314.63,353.64,1316.09,354.36,1317.5,355.15Z"/><path class="cls-17" d="M628,568.76l.06-2.91c2.51.15,2.14,2.22,2.27,3.7.36,4.13,1.33,8.21,1.15,12.39a12.33,12.33,0,0,0,.59,4.43c.84,2.49,2.1,4.82,5.13,4.53,3.18-.31,4-3.14,3.85-5.58-.47-9.93-.64-19.9-2.52-29.72-.65-3.38-2-5.66-6-6.14s-3.08-3.87-2.58-6.63c-.28-3.74.26-6.41,5.18-6.21,4.59.18,5.47-3.48,5.74-7.16.35-4.76-.41-9.59,1-14.28.49-1.58.68-3.25,2.13-4.33,4.22-3,8.57-3.58,13.12-.72-4.32,10.52-2.62,12.86,8.84,11.47,6-.72,11.46,1.48,17.21,1.9a64.53,64.53,0,0,0,9.91,1c3.75,0,5.92,1.79,6.21,5.65a14.75,14.75,0,0,0,.36,2.46c.62,2.52,2.09,4.39,4.81,4.13,2.88-.28,3.1-2.93,2.91-5-.55-5.78-.61-11.61-1.5-17.35-.27-1.76-1.19-3.54.05-5.28,1.06.05,2.16-.16,2.5-1.23,1.53-4.78,5.62-6.76,9.55-8.95,4.7-.74,8,2.4,11.77,4.26,0,1.43-.84,2.83,0,4.3.48.87.92,1.83,2,2,1.76.3,1.08-1.75,2-2.29,3.35,3.34,8.9,2.73,11.93,6.64,1,5,.59,9.58-3.58,13.19a3.23,3.23,0,0,0-.81,3.2c2,13.25.48,26.45-.75,39.64-.73,7.73-1.83,15.43-2.62,23.17a113.16,113.16,0,0,1-3.81,18c-.92,3.43-3.67,5-7,5.66a215.31,215.31,0,0,1-35,3.77c-22.42.75-44.85.71-67-3.68l2.07-36C628.27,576.82,626.76,572.69,628,568.76Z"/><path class="cls-18" d="M1175.74,390c.83.09,1.55.33,1.75,1.28a28.28,28.28,0,0,1,.8,8.35c-.32,21.68.66,43.36-.55,65-.19,3.23,1.66,6.51-.27,9.7-2.08,1.39-4.46,1.2-6.77,1.2q-43.48,0-87,0c-2.32,0-4.68.13-6.85-1a5.76,5.76,0,0,1-2.42-4.66c-.1-5.69-1.47-11.47,1-17q.12-27.47.25-54.91c0-8.88,0-8.9,9.08-8.84,8.31.05,16.61-.23,24.89.82,1.91.24,4,.54,5.72-1,10.26-1,20.53-.26,30.8-.43,5.1-.09,10.26.82,15.3-.64a12.92,12.92,0,0,1,2.22-1.14C1167.5,388.73,1171.94,388.2,1175.74,390Z"/><path class="cls-19" d="M1307.53,473.63q8.23.17,16.45.31c1.67,0,3.46.15,3.73-2.22,34.1,1.27,68.22.23,102.33.56,4,0,8-.06,12,.05,2,.06,4-.07,5.6,1.56l.1,0c5.93,1.09,11.91.43,17.87.46,17.45.11,34.9,0,52.35.07,6.31,0,12.5-2,18.83-1.17,15.2,2,30.51.54,45.75,1.49,3.76.86,6.17,3.63,8.75,6.17,3.74,13.51-2,20.9-16.11,21-3.48,0-7,.1-10.43.16q-57.2-.09-114.39-.16c-40.46,0-80.92.07-121.38-.06-6.17,0-12.25.84-18.38,1-7,.16-13.87-1.53-20.87-.94-1.33.12-2.83-.28-4,.22-4.93,2.16-5.31-.77-5.24-4.39-1.64-1.9-1-4.06-.54-6.1.77-3.67.59-7.49,1.7-11.11,6-5,13.39-3.84,21.27-4.18-11.63.06-22.39.07-33.15,0-1.82,0-3.68,0-5.22-1.26-.64-1.43-.2-2.32,1.33-2.67,12-.2,23.95-.06,35.92-.06C1303.8,472.36,1305.84,472.25,1307.53,473.63Z"/><path class="cls-20" d="M229.26,294.26c-5.88.6-11,3.05-15.86,6.27-1.65,1.1-3.14,2.41-5.22,2.61.29-2.48.42-5,.91-7.42a54.33,54.33,0,0,0-2.32-30.44c-1.35-3.57-2.57-7.21-3.58-10.88-2.5-9.07-1.06-17.45,4.71-25a77.05,77.05,0,0,0,11.57-21.95c5.95-17.15,17.57-25.12,35.87-25.36,20.45-.26,33,8.38,40.56,27.35,4.69,11.81,6.92,24.28,10.26,36.44,2.24,8.19.57,16.54-.31,24.81-.73,7-1.52,13.87,2.33,20.39,6.4,10.84,5.6,21.53-1.25,31.92-2.46-1.2-2.82-3.94-4.3-5.86-5.75-7.45-12.21-14.16-20.48-18.89C270,295,264.36,288,268.08,279a6.88,6.88,0,0,1,2.91-2.57C277.82,273,281.21,267,283.36,260c1-6.72.88-13.53,1.43-20.29.4-4.94-1.55-8.92-6.81-10.88a19.8,19.8,0,0,1-8.67-6.53c-1.49-1.92-2.73-2.62-4.73-.51-2.84,3-6.73,4.21-10.57,5.28a28.82,28.82,0,0,0-13.83,8.46,34.53,34.53,0,0,1-8.54,6.76c-6,3.41-6.39,6.23-1.61,11.16,1.36,1.41,2.21,3.37,4.25,4.09,4.47,6.94,10.53,12.56,15.83,18.81C249.54,286.13,239.29,294.92,229.26,294.26Z"/><path class="cls-21" d="M891.85,331.21c-2.34-.4-4.66,1.76-7,.07-19.91-11.86-24.82-32.37-11.79-51.37a61.18,61.18,0,0,0,10.6-27.59C887.1,224,909.25,212,934.57,213.05a92.35,92.35,0,0,1,16.61,2.71c13.07,3,19.8,12.37,23.8,24.38,4,12.17,3.1,24.54,1.68,36.94-3.48,7.89-3.18,16.07-1.82,24.32.11.66.19,1.31.31,2,3.47,18.66.19,25.27-16.94,34-2.06,1.05-4.2,1.94-6.3,2.91-1.63,1-2.91.06-4-.92-6.87-6.1-10.76-13.35-8.74-22.85a4.78,4.78,0,0,1,2.67-2.09c10.29-4,16-11.72,18.16-22.34,1.62-5.92,4.19-11.55,4.88-17.76.3-2.74,0-4.74-2.31-6.54-5.85-4.56-10.67-10-13.36-17.06-1.21-3.16-2.62-3.4-5.52-1.44a132.68,132.68,0,0,1-28.9,14.47A27.63,27.63,0,0,1,904,265.47c-.73,0-1.45,0-2.18,0-2.89.08-6.21-.74-7.78,2.7a9.85,9.85,0,0,0,1.7,11c2.37,2.73,4.46,5.65,6.61,8.54a44,44,0,0,0,13.32,21,7.49,7.49,0,0,1,2.59,3.54c-1.87,8.15-11.16,19-22.85,19.06C894.23,331.45,893.05,331.14,891.85,331.21Z"/><path class="cls-22" d="M570,246.18a37,37,0,0,0,10.25,14.93c-.83,2.59-2.37,2.07-4.05.92a12.94,12.94,0,0,0-2.75-2c-19.92-7.74-26.28-24.06-27.51-43.53a41.28,41.28,0,0,1,5.58-23.85c3.18-5.43,7.24-10,13.75-11.49,2.15-.48,3.37-2,4.75-3.41,11.64-12.12,25.79-17.86,42.64-16.59,10.79.82,18.65,9,19.38,20.54A43.29,43.29,0,0,0,635.64,197c4.7,10.56,7,21.53,1.5,32.74a16.36,16.36,0,0,1-5.15,6.59c-2.65-.75-1.49-2.86-1.47-4.44.08-6.95.59-13.89-1.43-20.73-.87-3-2.34-4.33-5.53-4.56-11.58-.84-23.15-1.89-34.23-5.68-3.66-1.25-5.49-.14-6.73,3.41A72.06,72.06,0,0,1,573.94,221c-1.28,1.89-2.54,4.53-5.77,3.05l0,0c-4.62-1.46-5.22,3.09-7.34,5.13s-1.11,4.54.08,6.89c1.64,3.26,6.24,4.51,6,9.14C566.85,246,569.07,245.28,570,246.18Z"/><path class="cls-23" d="M859.86,426.9c2.34,3.75,2.19,7.91,1.82,12.06q-1.33,15.3-2.84,30.61a54.06,54.06,0,0,1-1,5.31c-1.13,1-2.48.83-3.81.8-14-.34-28,0-41.94-.17-2.45,0-5,.37-7.13-1.52,1.93-17.47,4.9-34.69,18.25-47.6,7.21-7,15.83-10.88,26.32-6.72,2.88,1.14,5.6,2.11,6.84,5.22A2.89,2.89,0,0,0,859.86,426.9Z"/><path class="cls-10" d="M1075.5,452.87c.54,6.94-.71,14,1.13,20.84-1.56,2-3.83,1.77-5.94,1.77-21.38,0-42.75.17-64.12-.05a6.06,6.06,0,0,1-5.14-1.12c-8.14-6.74-17.65-11.52-25.81-18.22.73-3.39-.62-6-2.84-8.5-2-2.24-3.74-4.85-6.22-6.41-5.18-3.27-6.16-7.75-4.92-13.22,1-6.9,1-6.94,6.76-3.1,10.38,6.94,22.25,9.26,34.27,11,2.61.38,5.4,2.41,8-.09-.6,4.39-1.92,8.66-1.91,13.15,0,2.3.83,3.4,3.24,4.12,9.05,2.71,18.5,3,27.68,4.83,3.14.64,5.71,0,5.09-4.25a3,3,0,0,1,.86-2.74c1.5,3.72,3.94,5.14,7.83,3.3a5.62,5.62,0,0,1,3.38-.28C1063.09,453.77,1069.36,454.61,1075.5,452.87Z"/><path class="cls-24" d="M1238.51,262a32,32,0,0,1,13.72-21.16c8.54-5.84,18-9.19,28.58-8.21,2.58.24,4.17-.25,5.82-2.48,5.39-7.34,15.86-9.37,23.12-4.84a16.61,16.61,0,0,1,5.51,22.3c-2.32,4.09-.16,6.46,1.54,9.37a4,4,0,0,1-2.11,2.63c-6.93,4.25-14.07,8.11-21.29,11.85-3.45,1.78-6.84.17-10.13-.81-8.25-2.45-16.36-5.31-25-6.47a62.44,62.44,0,0,0-15.33-.24C1241.21,264.1,1238.9,265.11,1238.51,262Z"/><path class="cls-25" d="M297.27,390.06c-1.48-3.19-1.29-6.71-2-10.05-.52-2.46,1-4.17,2.86-5.28,5.23-3.06,10.57-5.93,15.87-8.88,2.86,15.91,5.47,31.88,8.67,47.72C325.14,425.7,327,438,330.07,450a48.39,48.39,0,0,0,5.29,12.77c4.61,7.82,7.16,15.77,2.91,24.85-2.71,5.78-7.5,8.79-13.55,7.26a3.14,3.14,0,0,1-2.52-2.68,29.64,29.64,0,0,1-1-7.86,111.86,111.86,0,0,0-3.2-29.83c-4.54-19.14-9.72-38.12-15-57.06C302.19,394.62,302.53,389.84,297.27,390.06Z"/><path class="cls-26" d="M804.93,474q22.05.09,44.08.18c3,0,5.91-.12,8.8.71l2.12,1.94a2.85,2.85,0,0,1,1.75,1.18c.93,1.36.55,2.88.54,4.36-1.18,5.9-1,12.15-4.45,17.46-1.83,2.6-4.6,3.3-7.43,3-14.85-1.82-29.74-.5-44.6-.78-2.66,0-5.33,0-8-.1-6.85-.31-12.7-6.51-12.79-13.49a13.85,13.85,0,0,1,12.09-13.64C799.68,474.48,802.4,475.15,804.93,474Z"/><path class="cls-25" d="M181.32,381c8,3.38,16.12,6.43,25,6.21-4.08,6.52-4.34,14.18-6,21.34-3.85,16.18-7.71,32.38-10.86,48.72-1.39,7.16-1,14.22,4.07,20.2a12.94,12.94,0,0,0-1.88,8.5c.19,4-1.41,7.25-4,10.13a25.74,25.74,0,0,1-19.49-7.82c-.47-3.65-.22-7.5-2.85-10.57,3.92-.52,5.52-2.7,6.12-6.7,2.28-15.33,4.3-30.69,6-46.11C178.93,410.26,181.74,395.77,181.32,381Z"/><path class="cls-27" d="M1164.14,387.27l-.47,1.72c-4.75,1.16-9.56.24-14.34.49a3.62,3.62,0,0,1-3.79-2.68c-3.45-10.24-7.8-20.13-11.49-30.27a7.85,7.85,0,0,1-.09-1.48l-18.76-55.47c-.53-1.57-1.07-3.13-1.6-4.7-3.06-9.2-.64-13.05,9.1-14.28,4.14-.52,4.86,3.07,5.83,5.65,3,7.9,5.57,15.95,8.32,23.93q7.05,20.43,14.08,40.85a10,10,0,0,0,2.54,4.2c3.19,2.54,2.53,6.88,4.81,10.59,1.84-2.93,3.32-5.77,6.55-6.65,1.47-.48,2.44,1,3.78,1a1.68,1.68,0,0,1-.28.4c-9.73,7.34-10.58,10.74-5.64,22.47C1164.66,383.93,1165,385.4,1164.14,387.27Z"/><path class="cls-28" d="M484.33,521c.07,2.93-1.88,2.95-4,2.93-8-.06-15.95.11-23.92-.1-3.66-.1-5.23,1.36-5.27,4.85a12.17,12.17,0,0,1-.16,2.49c-.56,2.68-1.35,5.31-4.65,5.64s-5.1-1.65-6.25-4.56c-1.34-3.38-.65-6.9-1-10.34-.24-.24-.59-.52-.56-.79,1.47-11.32-6.13-19.39-10.25-28.7-.76-1.71-2.55-3.34-.45-5.3,1.95-1.95,4-3.28,7-2.2,2.07.75,3.4-.79,4.57-2.19,2.22-2.66,4.62-4.67,8.47-3.63a3.83,3.83,0,0,0,2.8-.48c4.78-3.21,8.62-2.1,11.86,2.33a2.32,2.32,0,0,0,2.76,1.88c3.54,2.14,2.15,5.49,1.84,8.38-.35,3.18-.57,6.18.82,9.2a11.22,11.22,0,0,0,9.44,7C486.93,508.57,488.45,511.62,484.33,521Z"/><path class="cls-29" d="M568.17,224.08c2.76-.18,3.85-2.37,5-4.33,3.64-6,7.28-11.94,9.06-18.79.64-2.47,1.91-3.18,4.37-2.34,12.69,4.36,25.84,6.11,39.18,6.42,2.82.07,3.65,1.53,4.28,3.84a60.76,60.76,0,0,1,1.41,25.17c-.13.87-.26,1.61.48,2.24-3.17,1.75-5.8-.3-8.1-1.71-6.8-4.16-13.67-5-21.4-2.9-5.76,1.58-11.87.6-17.83.5a5,5,0,0,0-1.49,0C575.51,234.38,571,230.82,568.17,224.08Z"/><path class="cls-30" d="M427.81,487.08c-.75,2.9,1.73,4.5,2.73,6.68A92.75,92.75,0,0,0,436,504.39c3.42,5.48,5,11.13,3.05,17.48-2.89,3-6.88,2.51-10.45,2.91-6,.67-12,1.19-17.8,3,.71-1.59,0-2.81-.82-4.16-6.61-11.39-10.67-23.47-9.89-36.87a21.41,21.41,0,0,1,2.49-9.5c3.59-6.43,9.21-7.34,14.85-2.56a34.43,34.43,0,0,1,6.91,8.42C425.27,484.58,425.7,486.59,427.81,487.08Z"/><path class="cls-23" d="M1565.6,697.69q0-30,0-60c14.37,5.34,22.55,15.43,22.75,29.28.14,9.88-3.07,19.23-6.81,28.26-1.82,4.39-6.1,2.41-9.29,2.07C1569.93,697,1567.76,696.25,1565.6,697.69Z"/><path class="cls-31" d="M1298.57,301.93c-2.11-2.35-4.86-4-6.06-7.31-.77-2.13-3-1.84-4.67-.64-8.89,6.24-18.14,6.53-27.79,1.86-4.77-2.32-8.86,1.55-13.47,1.8-9.16.5-9.58.69-9.91-8.84-.1-3.16,0-6.32,0-9.49,3.12-1.14,5.28.51,7.34,2.49,2.68,3.85,3,3.81,7-.85,4.44-2,9-1.38,13.59-.76a4,4,0,0,1,2.07,1.94,3,3,0,0,0,3.26,1.58c1.94-.43.71-2.18,1.19-3.25,3.87-4.15,9.28-2.94,14-4a4.34,4.34,0,0,1,1.92,1.32c1.38,1.77,1.57,4,2.2,6.66,1.11-2.6,2.2-4.67,4.2-6,2.23-1.52,4.48-.75,6.69-.05,5,1.59,7.46,4.44,7.54,8.69s-3.22,9.71-7,11.23c-1,.39-2.88,0-.71,1.77C1300.61,300.46,1300.58,302.39,1298.57,301.93Z"/><path class="cls-32" d="M1134,355.05c5.28,9.26,8.75,19.27,11.94,29.36,1.06,3.36,2.57,5,6.31,4.68s7.63-.09,11.46-.1c-.86,1.07-2.07.88-3.21.88H1119.2c-1.32,0-2.67.1-3.76-.9-.19-7.43-.64-14.87-.51-22.29.18-9.7,5.2-13.38,14.55-11.22C1131,355.79,1132.63,357,1134,355.05Z"/><path class="cls-33" d="M1111.51,28.22c-1.58.12-3.83-.65-5.11,1.48s.41,3.38,1.51,4.81,1.54,3.22,0,4.45-3,.23-4.41-1c-4.85-4.15-4.89-4.12-8.12.93-.55.87-1.13,1.71-2.27,1.65a2.07,2.07,0,0,1-2-1.94c-.72-5.15-3-6.34-7.26-3-1.17.9-2.77,1.9-4,.46-1.48-1.71.29-3,1.17-4.32s3.48-2.29,2.2-4.44c-1-1.63-3-.71-4.65-.78-1.41-.06-3.39.7-3.83-1.24s1.41-2.72,3-3.43c6.38-2.93,6.35-2.92,1.48-8.19-1-1.14-3.1-2.33-1.72-4.1s3-.32,4.45.49c1.65.91,3.18,3,5.33,1.43s1-3.61.6-5.53a12.26,12.26,0,0,1-.29-2.48c0-1.25-.55-2.89,1.2-3.39,1.59-.46,2.41.81,3,2,.87,1.79,1.58,3.67,2.5,5.44,1.23,2.38,2.73,2.69,4.5.42a60.2,60.2,0,0,1,4.51-5.31c.73-.74,1.91-1.68,3-.52.84.87.21,1.87-.27,2.74s-1.23,2-1.75,3c-.85,1.73-1.13,3.54.14,5.19s2.92,1.21,4.57.75c1-.27,1.93-.55,2.91-.75,1.5-.29,3.44-2,4.4.09s-1,3.17-2.79,3.94c-1.07.46-2.15.9-3.19,1.43s-1.84,1.05-1.53,2.25,1.33,1.36,2.34,1.51a6.71,6.71,0,0,0,1,.06c2.66,0,5.66-.42,6.41,3.1C1118.91,27.19,1116.2,28.22,1111.51,28.22Z"/><path class="cls-34" d="M729.92,139.38c-7.78-.06-8.45,1.05-5.42,6.67.68,1.28,1.11,2.56.11,3.67-1.22,1.35-2.73.91-4,0a16.27,16.27,0,0,1-2.25-2c-2.36-2.39-4.39-3-5.88.85-.6,1.55-1.38,3.41-3.31,3.2s-1.59-2.32-1.93-3.66c-1.13-4.31-3.18-4.51-6.3-1.78-1.34,1.16-3.13,2.75-4.7.72-1.32-1.71.66-2.95,1.62-4.2s2.84-2.31,1.84-4.2-2.84-1.12-4.45-.74-3.31.59-3.94-1.07c-.76-2,1.05-2.88,2.55-3.62.88-.44,1.87-.69,2.77-1.11,2.8-1.28,3.38-2.81.91-5.2-1.81-1.76-5.47-3.89-3.73-6.21,2-2.61,4.52,1,6.75,2,3.23,1.46,4.41.25,4.1-3-.27-2.85-2.47-7.12.49-8.11,3.59-1.2,3.57,3.81,4.93,6.18,1.73,3,3.29,3.61,5.4.5a5.18,5.18,0,0,1,.62-.78c1.83-1.83,4-5.49,6-4.29,2.55,1.54-.95,4.07-1.62,6.22-.51,1.67-.93,3.21.3,4.7,1.43,1.74,3.2,1.06,5,.83,2.35-.3,5.47-3.73,6.88-.16,1.13,2.83-3.09,3.11-4.95,4.5-1.15.85-3.08,1.28-2.51,3.18.44,1.45,2.1,1.36,3.4,1.53.16,0,.33,0,.49,0,2.21.28,5.76-.29,5.68,2.48C734.65,140,731,139.34,729.92,139.38Z"/><path class="cls-35" d="M409.65,370.06c-7.18,0-7.6.67-4.44,6.56.8,1.48,1.9,3.19.25,4.44-1.48,1.12-3.41.21-4.5-1-3.54-3.93-6.43-4.56-8.67,1.11-.37.92-1,1.9-2.15,1.72-1.41-.22-1.56-1.62-1.88-2.66-1.77-5.68-1.72-5.67-6.55-2.59-1.21.77-2.64,2.26-4,1-1.55-1.46-.15-3,.75-4.42,1-1.57,3.5-2.87,2.13-5s-3.59-.78-5.5-.44c-1.43.26-2.84,0-3.29-1.51-.51-1.74,1.14-2.16,2.26-2.75a17.87,17.87,0,0,1,2.77-1.08c3.76-1.25,4.48-3.19,1.46-6.05l-.72-.7c-1.39-1.38-3.81-3-2.52-4.83,1.55-2.24,3.56.16,5.1,1.1s3.36,2,5,.64,1.06-3.3.47-5.08c-.31-.94-.53-1.91-.85-2.86-.49-1.45-.29-2.72,1.19-3.34,1.29-.54,2.21.4,3,1.3a6.92,6.92,0,0,1,1,1.69c3.51,7.95,3.51,8,9.36,1.37a21,21,0,0,1,1.6-1.89c.76-.69,1.8-1.23,2.71-.6,1.21.84.18,1.67-.32,2.48-.79,1.27-1.38,2.67-2.28,3.85-1.43,1.89-.57,3.45.49,5s2.64,1.53,4.42,1c2.57-.79,6.62-3.25,7.58-.68,1.21,3.21-3.81,2.9-5.85,4.5-1,.79-2.68,1.31-2.27,2.91s2.07,1.36,3.31,1.67c.31.08.67,0,1,.08,2.34.47,6.41-1,6.16,2.83S411.61,369.5,409.65,370.06Z"/><path class="cls-36" d="M706,509.13c2.6,7.5,2.15,15.39,2.85,23.13.25,2.81.05,6.21-3.87,6.31-3.58.09-6.34-1.53-6.88-5.71-.88-7-1-6.9-8.27-7.14-2.3-.08-4.59-.55-6.89-.84-6.67-2.88-6.72-2.9-4-10,.73-1.91.36-3.88.79-5.78,3.18-1.44,7.18,0,10.05-3-2.52-2.41-6-2.49-9-3.85-3.14-1.42-3.31-4.12-2.89-6.95.24-1.61.7-3.32,3.06-2.62C691.78,494.33,701.49,497.73,706,509.13Z"/><path class="cls-37" d="M1298.57,301.93l.46-.19c-2.31-4,1.84-4.36,3.49-6.09,3-3.15,5.16-6.69,3.65-11.15s-5.85-5-9.67-5.9c-2.63-.64-3.76,1.45-4.85,3.36-1,1.69-.79,3.92-2.75,5.52-.78-3.19-1.51-6.18-2.25-9.17.51-2.92,2.83-3.92,5.19-4.74,7.48-2.61,15.07-4.93,22.19-8.48,1.49-.74,3.11-1.27,4.62.1,5.21,22.36-8.05,46.63-30,54.94-.91.22-1.26-.08-1-1,2.58-4.12,5.86-7.87,6.42-13C1294.38,303.55,1297.23,303.5,1298.57,301.93Z"/><path class="cls-38" d="M1265.84,281.25c-5.08-.08-10.22-1-15.18.94a5.5,5.5,0,0,1-7,0l-6.91-2.89c-9.09-5.77-9.13-6.49-1-13.54.63-.54,1.23-1.11,1.85-1.67,14.71-2.81,28.59,1.09,42.34,5.5,3.24,1,6.36,3.15,5.66,7.59-4.47,2.21-10.07.54-14.14,4.13A4.29,4.29,0,0,1,1265.84,281.25Z"/><path class="cls-39" d="M576.17,262c1.44.09,3.07,1,4.05-.92,6,4.13,12.32,7.58,19.55,9,2.86.56,3.05,2,2.69,4.62-.61,4.34-1.14,8.89,2.54,12.46a2.54,2.54,0,0,1-2.24,2.82c-11.33,1.36-22.35,1.1-31.82-6.57a4.15,4.15,0,0,1-1.89-3.31C573.5,274.9,572.85,267.69,576.17,262Z"/><path class="cls-40" d="M165.29,477.69c3.73,1.2,5,5.48,2.88,10.07a3.88,3.88,0,0,1-2.92,1.71c-7.95,1.2-10.2,7.09-11.45,13.8-.36,1.93,0,4-1.42,5.69-.35,2.44-.73,4.87-1.06,7.31-.46,3.34-2.11,5.48-5.69,5.65s-5.27-2.27-6.15-5.3c-.64-2.18.14-4.65-1.23-6.72-.64-5.65-.46-11.12,3.24-15.88,2.42-3.09,4.58-6.43,7.3-9.22C153.25,480.25,159.29,478.91,165.29,477.69Z"/><path class="cls-41" d="M200,626.71q1,20,2.06,40c-10.83-6.07-14.53-16.42-16.84-27.7a32.35,32.35,0,0,1,3.58-23.33,18.66,18.66,0,0,1,2.63-3.55c1.38-1.43,2.41-1.58,2.84.91.59,3.42,1.34,6.82.93,10.3C194.73,627.62,196.51,628.34,200,626.71Z"/><path class="cls-42" d="M141.49,494l-3.24,15.88a104.14,104.14,0,0,0-28.08,2.88c0-3.07,1.72-5.59,3.61-7.46,5.08-5,5.45-10.69,3.21-16.9-.86-2.37-1-4.83,1.84-5,3-.19,7-4.92,9.14.94C130.34,490.78,134.75,493.93,141.49,494Z"/><path class="cls-43" d="M680.9,492.71c-3,3.48-2.66,6.64,1,8.92-3.43,4.14-7.59,6.28-13.12,5-3.08-.7-6.34.07-9.39-.95-1.73-.58-3.46-1.25-4.46-3,1.78-.88,3.79-1.79,2.67-4.27-.92-2,.93-5.83-3.47-5.76,4.55-4.05,3.1-8.9,1.8-13.72a46.36,46.36,0,0,0,22.92-1,39.58,39.58,0,0,0-.91,9.15C677.87,489.69,678.58,491.55,680.9,492.71Z"/><path class="cls-44" d="M1287.68,319.13l1,1c-2.64,5.8.28,11.23,1.15,16.8-3.83,7.48-17.2,12.12-24.4,8.24-3-1.63-6.05-3.7-4.88-8.07a26.46,26.46,0,0,0,2-4.49c.92-3.9,3.37-6,7.23-6.23C1276.57,326.05,1282.33,323.14,1287.68,319.13Z"/><path class="cls-45" d="M1592,140.5c-4.62-.5-7.9-1.19-8.1,4.36-.09,2.47-2.24.52-2.85-.72-1.48-2.95-2.88-4.25-4.93-.45a2,2,0,0,1-2.45,1.25c-1.54-.58-1-1.84-.64-2.94,1.25-3.54.55-5.23-3.59-4-1.09.34-2.46.53-3-.93s.89-1.89,1.86-2.46c3.42-2,2.18-3.38-.59-4.69-1.42-.68-3.7-1.25-3-3.32.79-2.31,2.82-.7,4.3-.47,3.37.52,5-.22,3.27-4-.61-1.29-2-2.94-.41-4,1.94-1.38,2.24,1.12,3.19,2s1.63,2.88,3.38,2.4,2.11-2.41,2.63-4c.43-1.29.13-3.52,2.38-2.86,1.64.48.87,2.21.63,3.48s-1,2.84.71,3.46c1.13.42,2-.82,2.93-1.54,1.13-.91,1.69-3.69,3.66-2.09,1.69,1.36,0,2.9-1.05,4.21-2.27,2.77-2.38,4.85,2,5.17,1.09.08,2.53-.4,2.73,1.32.18,1.47-.4,2.8-2,3C1587.33,133.56,1589,136.55,1592,140.5Z"/><path class="cls-46" d="M117.19,174.46c.07,1.7-.69,3.11.82,3.64s2.32-.86,3.35-1.64,1.68-2.67,3.16-1.37.25,2.85-.71,3.88c-2.84,3.06-4.22,5.55,1.56,6.52a1.89,1.89,0,0,1,1.73,2.1c-.27,1.5-1.62,2.1-2.93,2.35-2.54.48-4.78.8-2.64,4.28,1.07,1.72-.32,2.82-1.78,2.07-3.69-1.9-4.69-.2-5,3.07a1.79,1.79,0,0,1-1.5,1.76c-1.32.17-1.67-.85-1.86-1.84-.66-3.45-2-3.95-4.42-1.21-.62.72-1.35,1.7-2.48,1.14s-.72-1.76-.33-2.6c1.88-4.07.95-5.7-3.65-4.48-.92.24-2.15.49-2.67-.56s.41-1.95,1.23-2.4c4.07-2.23,4.34-4.18-.22-6.09-1-.44-2.29-1.24-1.74-2.59.69-1.7,2.17-.93,3.44-.63,5.7,1.34,5.7,1.33,4.34-4.46-.25-1.07-1.06-2.37.51-3,1.14-.43,1.7.67,2.32,1.44,3.76,4.69,3.78,4.69,6.72-.37.5-.87,1-2.07,2.08-1.76C118.41,172.29,117.13,173.92,117.19,174.46Z"/><path class="cls-47" d="M572.34,21.75c.53,1.59-.32,2.49-.83,3.5-.71,1.42-2.2,2.77-.59,4.46,1.4,1.47,3,.95,4.63.36,1.07-.39,2.51-1.34,3.19-.2.94,1.6-.91,2.11-1.91,2.88s-2.74,1.27-2.32,2.85,2.23.89,3.44,1.11,3-.17,2.78,1.89c-.13,1.39-1.36,1.85-2.58,1.84-3.83,0-8.2-.59-4.47,5.53a1.72,1.72,0,0,1-.74,2.17,1.63,1.63,0,0,1-2.28-.15c-3.73-4.67-5.58-.85-7.45,1.71-1.64-.11-1.75-1.3-1.93-2.15-.79-3.66-2.47-4-5.11-1.61-.71.65-1.58,1.67-2.52.86-1.16-1-.33-2.26.4-3.08,2.91-3.27,2-4.45-2.08-4.2-.92.06-2.2.29-2.45-1-.21-1.16.82-1.85,1.71-2.16,4.4-1.57,4.14-3.8,1.13-6.61-.59-.55-1.11-1.47-.56-2.23.77-1.08,1.74-.33,2.65,0,5,2,5,2,4.49-3.53-.11-1.14-.53-2.49.79-3.09s2.22.55,2.56,1.64c1.75,5.74,4.1,4.85,7,.8C569.89,22.45,570.66,21.41,572.34,21.75Z"/><path class="cls-48" d="M1285.61,277.19c-1.71-5.05-5.91-6.71-10.55-8-12.26-3.41-24.66-5.63-37.45-5.09l.9-2.14a2.14,2.14,0,0,0,2.11,1.06c13.93-2.9,27,1,39.87,5.44,6.94,2.4,12.77,2.64,19-1.67,5.45-3.75,11.51-6.6,17.29-9.85,6.12,1.52,2,5.33,1.85,8.25-4.3.07-7.44,3.18-11.37,4.31-4.88,1.41-9.56,3.47-14.41,5a17,17,0,0,0-6.22,3.8C1286.3,277.94,1286,277.57,1285.61,277.19Z"/><path class="cls-49" d="M1061.69,410c5.51,8.53,2,15.87-3,23-3.41,2.21-7.2,0-10.72.89-.29-8.86-.94-17.78,3.6-26C1055.16,407.41,1058.64,407.61,1061.69,410Z"/><path class="cls-50" d="M1047.2,425.63c-7.69-2.17-14.76-.79-21.14-3.56-.57-.25-1.67.14-1.92-.2-2.5-3.51-5.13-5-8.54-1.06-.11.13-.69,0-.93-.15-1.54-1.13-.69-2.56,0-3.5,1.48-2-.84-6.2,3.26-6.53,5.49-.44,10.61,2.11,16.06,2.53,2.69.21,1.51,2.82,1.81,4.46.19,1-.45,2.7,1.2,2.79,1.46.08,1.63-1.41,1.66-2.59.06-2.09,0-4.18,3.1-3.8,1.42.18,2.87.54,2.3,2.38C1043,419.84,1044.66,422.43,1047.2,425.63Z"/><path class="cls-51" d="M183.67,671.67c-5,3.09-7.22,8.11-12.41,10.37-1.12-1.34-2.72-4.16-5.86.14-.08-4,.56-7.8-5.93-6.16,4.44-3.46,4.26-6.26-.26-9.42,5.45.45,9.11.11,5.59-6.47,4.27,4.53,7.39,4.71,9.93-.84.62,5.87.62,5.87,7,3.17C178.66,666.61,176.25,670.45,183.67,671.67Z"/><path class="cls-52" d="M1061.69,410c-3.44-.44-7-.42-10.15-2.07,1-11.18,4.07-21.66,10.46-31.55C1065.61,388,1062.19,399,1061.69,410Z"/><path class="cls-53" d="M1047.94,433.87a3.84,3.84,0,0,1,5-1.68,17,17,0,0,0,5.72.79q-.9,10.47-1.79,20.93c-1.22,1.31-2.95,1.48-4.51,1.91-6.45,1.8-6.46,1.75-6.7-4.93Z"/><path class="cls-54" d="M1260.5,337.1c3.76,8.86,16.71,10.67,25.3,3.52,1.39-1.16,2.66-2.46,4-3.69l4.27,4.07c-4.67,3.31-8.93,7.28-14.89,8.39-7.62,1.42-14.84,1.64-20.13-5.44-1.29-1.74-2.62-3.44-2.33-5.79Z"/><path class="cls-55" d="M570,246.18c-2.05-.32-5.35,1.24-4.34-3.4.3-1.38-2.14-1.76-3.23-2.73-6-5.31-5-12.94,2.21-16.51,1.26-.62,2.52-.8,3.54.5-1.23.39-4.45-.37-2,2.43,4.61,5.35,6.73,10.55,1.72,16.88C566.12,245.52,570,244.63,570,246.18Z"/><path class="cls-56" d="M729.78,503.21C725.43,503,722.08,500,718,499c0-2.26,5.71-11.7,7.58-12.18,3.33-.86,4.94,1.13,4.55,4s-1.2,5,1.45,7.41C733.43,499.85,730.81,501.62,729.78,503.21Z"/><path class="cls-57" d="M745.66,513.87c-3.17-1.14-6.33-2.32-9.52-3.41a3.35,3.35,0,0,1-2.4-3.23c2.36-3.54,6.7-4.85,9.2-8.46,1.34-1.94,4.1-1,3.94,1.75-.18,3.08-.78,5.94.71,9C748.32,511,746.36,512.4,745.66,513.87Z"/><path class="cls-58" d="M1543.53,374.14l-12.07,0c-1.73-1.62-3.54-3.44-2.67-6,1-2.78,3.74-2.23,6-2.32,1.83-.08,3.65-.11,5.48-.16,2.06-.05,4.23,0,5,2.34S1546.19,372.71,1543.53,374.14Z"/><path class="cls-59" d="M1493.58,374.21l-10.07-.22c-1.63-1.63-3.71-3.26-2.65-5.87s3.83-2.06,6.08-2.14c1.66-.07,3.32-.13,5-.09,2.23.05,4.87-.64,5.61,2.59S1496.54,373.43,1493.58,374.21Z"/><path class="cls-60" d="M806.86,624.7q0,51.49,0,103c-.36.39-.63.34-.82-.15q-.07-50.91-.13-101.81a4.31,4.31,0,0,0,.17-.81C806.2,624.38,806.46,624.3,806.86,624.7Z"/><path class="cls-61" d="M1164.83,359.17c-2.68,2.45-4.57,5.54-6.65,9.27-2.76-4.57-3.45-9-4.71-13.21C1157.75,355.12,1160.9,358.27,1164.83,359.17Z"/><path class="cls-10" d="M806.86,624.7c-.27.06-.53.14-.8.22l-.15-32.85c0-1.16-.11-2.35.83-3.27Z"/><path class="cls-62" d="M806,727.54c.27.06.54.11.82.15,0,.62.11,1.23.17,1.85,1.7,2.13,1.44,4.68,1.45,7.14,0,12.07,0,24.15,0,36.22,0,5.72.89,6.55,6.4,5.69a33.88,33.88,0,0,1,12.3.67c10.92,4.56,22.6,5.19,34.14,6.6,3.65.44,5.68-1.14,6.59-4.53,1.58-3.07,4.31-3.11,7.26-3q33.75,1.56,67.52,0c2-.1,4-.19,5.72,1,2.24,2.09,1.68,4.91,1.81,7.51.21,4.3,2.22,6.48,6.59,7.33a132.94,132.94,0,0,0,26.33,2.06c2,0,4.5.32,5.06-2.1.53-2.26-1.75-3.37-3.38-4.45-3.09-2.06-6.66-3-10.11-4.19-2.84-1-6.31-1.4-7.34-5.13,1.59-3,4.52-2.56,7-2.28,15.24,1.68,30.51.45,45.76.83a62.05,62.05,0,0,0,8.92-.66c3-.36,6-.71,8.5,1.55,1.75,2,2.4,4.72,4,6.88,7.61,10.3,20.71,9.3,26.85-2.09.86-1.61,1.31-3.44,2.61-4.82a5,5,0,0,1,4.15-1.32c16.79,1.68,33.51-.93,50.29-.65,22.27.37,44.54.08,66.81.1,2.81,0,5.67-.22,8.35.91,2.1,1.05,2.95,3.06,3.77,5.06,2.63,6.39,7.61,9.83,14.28,9.85s11.64-3.49,14.59-9.59c.64-1.33,1-2.87,2.47-3.61a5.8,5.8,0,0,1,5.26-.71c2.28.81,4.6.65,6.91.65h308.3c8.31,0,8.3,0,8.3-8.25q0-18.74,0-37.46c0-1.76-.59-3.69.88-5.24,0,15.15.12,30.3,0,45.44,0,3.54.69,5.29,4.76,5.81,8.84,1.13,17.58,3,26.36,4.59,1.41.26,3.35.07,3.44,2.09s-1.94,2-3.28,2.39c-9.42,2.73-19.2,3.44-28.86,4.55-19.91,2.3-39.94,3.1-59.95,4.23-12.57.72-25.15,1.36-37.73,2-18.57.94-37.15,1.41-55.72,2.06-20.07.7-40.16,1.17-60.22,2-18,.75-35.92.07-53.84.92-27.73,1.32-55.49,1.12-83.2,2.12-31.46,1.14-62.91-.34-94.32.9-42.77,1.68-85.54-.12-128.29,1-69.67,1.76-139.35,1.31-209,.56-50.1-.54-100.21.49-150.28-.93-24.79-.71-49.59.4-74.32-.94-18.14-1-36.27.11-54.35-.92-27.89-1.61-55.8-1.42-83.7-2.14-13.12-.34-26.27-.09-39.36-.84-16.07-.92-32.15-1.33-48.23-2.06-15.9-.72-31.82-1.16-47.73-1.88-18.37-.83-36.77-1.56-55.09-3.1s-36.95-2.65-55.22-5.86c-3.13-.56-8.16,0-8.29-3.72s4.82-2.68,7.69-3.29a163.8,163.8,0,0,1,35.44-4.07,1.15,1.15,0,0,1,1.44.12c1.85,4.52,5.45,6.07,10.1,6.7a125,125,0,0,0,19.33.89c2.27,0,5.12.33,6-2.38s-1.5-4-3.4-5.43c-1.09-.8-3.5-1.14-1.76-3.47a35.82,35.82,0,0,1,10.78-1.67c11.43-.27,22.82-1.68,34.27-1.26a3.13,3.13,0,0,1,1.55.58,6.79,6.79,0,0,1,1.09,3.75c.83,7.35,1.66,8.33,9,9.41,6.94,1,13.94.55,20.91.3,2.15-.08,4.65-.52,5.18-3.07s-1.64-3.89-3.61-4.76c-3.78-1.68-7.42-3.76-11.64-4.33-1.33-.18-3.2,0-3.22-2.24,15.45.65,30.89-.52,46.27-1.3,15.78-.81,31.55.05,47.28-.8,21.7-1.18,43.41-1.43,65.11-2.2,10.61-.37,21.22-.39,31.82-.68,3.74-.11,7.33-1.42,11.28-.31,2.73.77,1.8-2.41,2.28-3.95l2.88,5.19c1,3.76.18,7.58.29,11.38.11,4.2,1.77,7,5.92,8.1,11.94,3.19,24,3.09,36.06,1,3.91-.66,6-3.38,6.06-7.42,0-3.62-2.3-6.12-6.65-6.81-5.08-.81-9.95-2-14-5.43.37-1.66.75-3.32,1.12-5,1.49.68,2.78,1.79,4.64,1.47,8.77-1.49,17.62-.53,26.43-.73,2.87-.06,5.63-.26,8.16-1.76,1.06,2,1.11,4.51,3.15,6-.8,4.1-1.48,8.2-.22,12.34.76,2.49,1.87,5,4.63,5.4,12.1,1.87,24.1,5.35,36.55,3,2.14-.39,4.25-.94,5.77-2.69,3.82-4.4,2.38-10.11-3.38-11.88-5.1-1.57-10-3.68-15.12-5.14a4.1,4.1,0,0,1-2.77-2c.56-2.33-.25-4.88,1.12-7.09-.23,4.25,1.08,6.41,5.78,4.52a11.63,11.63,0,0,1,3.94-.33c58.82-1.28,117.66-1,176.49-1,6.81,0,6.8,0,6.81-6.63Q806,743.25,806,727.54Z"/><path class="cls-63" d="M213,780.55a3.72,3.72,0,0,1-.81-.09c.84-11.05,0-22.11.12-33.17a12.62,12.62,0,0,0-.91-4.84c6.57,3.33,13.73,3.84,20.9,4.29a8.92,8.92,0,0,1,1,5.24c-.88,7.28-1.06,14.65-2.84,21.8-5,2.52-10,4.25-15.42,1.25C214,777,215.17,779.38,213,780.55Z"/><path class="cls-64" d="M975.78,455.93A180.87,180.87,0,0,1,1000,471.72c1.59,1.18,3,2.56,4.94,3.15,9.66,3.67,19.57,2.09,29.51,1.79,18.61-.58,37.25-1,55.86.34,2.16.17,4.31.29,6.48.29,7.65,0,15.31.11,23,0,40.93-.66,81.83,1.3,122.76,1.23,11.1,0,22.26.68,33.39.83,2,0,4,0,5.56,1.65,2,1.25,1.27,3,1,4.78-.68,4-1.3,8-1.94,12-2.58,13.37-5.09,26.75-7.76,40.1-8,39.78-15,79.74-24.92,119.12-2.24,8.93-2.26,8.84-11.61,8.9-34.81.24-69.6-.69-104.4-1.44-27.12-.57-54.23-1.75-81.34-2.78-3-.11-5.08.36-6.66,3.11-6.65,11.57-12.8,23.35-16.31,36.31-2.65,9.8-2.67,19.39,2.27,28.59,8.66,16.77,22.87,25.63,41.31,25.79,54.56.5,109.14.2,163.71.23,7.36,0,10.58,3.3,8.76,9-1.34,4.18-4.54,5.94-8.84,5.84l-.89.21c-8.94.54-17.89.11-26.83.23a20.7,20.7,0,0,0-6.87.83,49.62,49.62,0,0,1-9,.41c-35.37,0-70.74-.11-106.11.1-7.83.05-15.53-1.2-23.31-1.28-6.79.24-13.31-1.29-19.79-3.07-4.3-2.13-8.89-3.57-13-6.23-11.63-7.59-16.87-18.75-18.44-32a36.57,36.57,0,0,0-.86-5.88c-1.93-20.84,1.65-40.45,13.12-58.26,1.47-2.3,2-4-.74-5.77-2.15-1.37-2.52-3.79-2.83-6.14-1.68-12.7-2.86-25.45-3.84-38.21-1.56-20.21-3.43-40.41-4.72-60.63-1.06-16.6-3.2-33.08-4.45-49.65-.16-2-.64-3.94-1-5.89-.72-5.93-5.56-8.65-9.43-12.16-4.89-4.44-9.77-8.88-15.48-12.27-4.57-2.6-6.82-7.35-10.17-11.07a3.74,3.74,0,0,1-.29-4.19C971.32,457.5,972.86,455.59,975.78,455.93Z"/><path class="cls-65" d="M1390.19,692.12a1.8,1.8,0,0,1,1.35-2c4.19-1.69,5.88-3.77,1.45-7.2-.75-.58-1.57-1.58-.74-2.54,1-1.12,2.23-.47,3.13.23,4.77,3.69,5,1.12,4.38-3-.18-1.3-1.08-3.38.93-3.82s2.77,1.54,3.28,3.1c1.18,3.65,2.73,3.78,4.92.76a10.23,10.23,0,0,1,2.16-2c.62-.49,1.43-1.08,2.2-.4s.31,1.53-.06,2.28a20.7,20.7,0,0,0-1.34,2.66c-.83,2.55,0,3.82,2.85,3.54,1.85-.18,3.59-1.81,5.54-.54.19,1.18-.71,1.51-1.28,2-1.31,1.19-3.73,1.93-3.25,4s2.78,1.19,4.34,1.45c1,.17,2.13.51,2,1.71s-1.15,1.52-2.22,1.55a17.23,17.23,0,0,1-2.49,0c-4.16-.43-5.33,1-3,4.71.64,1,2,2.39.49,3.49-1.22.92-2.62-.1-3.52-1-2.26-2.28-4-2.5-5.82.57-1.28,2.18-2.68,2.68-3.17-.64-.54-3.66-2.41-3.31-4.81-1.55-.88.66-1.92,1.56-3.12.56-.86-.72-.35-1.61.13-2.22,3.82-4.88.75-5.21-3.25-5C1390.9,692.7,1390.5,692.29,1390.19,692.12Z"/><path class="cls-66" d="M1447.62,473.89q-57.7,0-115.41.14c-2,0-3.54-.48-4.5-2.31-3.72-7.64-3.33-14.69,3-20.89,6-4.17,12.25-7.73,19.84-7.94.28,2.76-2.31,3.27-3.74,4.65-1.07,1-2.42,1.78-3.28,3-.46.69-1,1.48-.22,2.26a1.61,1.61,0,0,0,1.86.21,16.64,16.64,0,0,0,7.65-6.17c1.74-2.76-1.51-2.67-2.28-4,4.07-2.17,8.67-2.23,13-2.55,21.86-1.59,43.7-1.38,65.34,2.69a8.46,8.46,0,0,1,1.77.8c-3.66,2.1-8.05,3.13-10.46,7.05-.73,1.19-2.44,2.46-1.07,3.87s2.72-.08,4-.71c4.31-2.09,6.38-6,8.4-10,8.34,1.31,15.75,4.09,19.94,12.21C1455.09,463.19,1453.45,469,1447.62,473.89Z"/><path class="cls-67" d="M1478.58,472.14c-4.95-.43-7.25-2.86-7.06-8.08.29-7.73.25-15.48,0-23.22-.08-3,1.06-4.23,3.91-4.18,2.91-1.14,4.62,1.13,6.63,2.42,4.81,3.07,6.77,3.11,11.27-.26a26,26,0,0,1,5.53-3.34c3.45-1.46,3.12-2.92.09-4.53a25.35,25.35,0,0,1-4.61-3.79c-5.37-4.74-8.64-4.58-13.65.59-2,2-3.88,4.32-7.18,2.4-.35-.53-1-1.07-1-1.6.09-8.64.27-17.3,3.07-25.58,2.38-7,8.19-11.38,13.86-10.88a15.62,15.62,0,0,1,14,13.52c1.3,11.3,2.24,22.6.58,34.07-1.22,8.5-1.4,17.17-2.31,25.75-.5,4.67-2.2,6.95-7.15,6.68-4.31-.24-8.65.05-13,.1C1480.58,473,1479.58,472.54,1478.58,472.14Z"/><path class="cls-68" d="M1478.58,472.14l3,.07c.91,1.55,2.42,1.51,3.93,1.51,11.6,0,23.19.09,34.79,0,1.35,0,3.46.73,3.82-1.21s-1.86-1.34-2.91-1.91a3.39,3.39,0,0,1-1.74-3.32c0-8.94,0-17.88.22-26.81,0-1.69,0-4.22,2.79-4.58,3.55-1.66,5.9.91,8.38,2.54,5.94,3.91,6.36,3.91,12.2,0,2.17-1.46,4.12-4,7.38-2.6,3.18.92,2.14,3.64,1.78,5.4-1.35,6.72-.5,13.56-1.54,20.31-.65,4.22.56,8.91-5,10.47,1.13,2.47,2.86,1.69,4.16,1.71,9.15.11,18.29.07,27.44.15,1.78,0,3.69-.52,5.26.86q-64.8,0-129.59,0c-1.74,0-3.69.61-5.22-.89,9.16,0,18.31,0,27.46-.2C1476.26,473.71,1478.75,475.35,1478.58,472.14Z"/><path class="cls-69" d="M1524.51,430.07c-1.66-.25-4.09.58-4-2.37.31-9.07-.41-18.32,3.54-26.89,3.15-6.83,8.1-9.61,15.13-8.83,4.38.48,11.21,7,12.12,12.09,1.47,8.22,1.27,16.55,1.09,24.86,0,1.23-.74,1.75-1.86,1.9-3.38.68-5.11-1.83-7.14-3.72-5.1-4.76-7.53-4.73-12.77-.08C1528.91,428.55,1527.68,431.36,1524.51,430.07Z"/><path class="cls-35" d="M1406.62,359.31c-.43-.11-.9-.23-1.38-.33-1.52-.31-3.86.89-4.4-1.13-.66-2.47,2-2.6,3.55-3.25,2.07-.86,2.44-1.93,1-3.74-1-1.26-2.54-2.21-2.68-4.24a3.47,3.47,0,0,1,1.18-.47c2.11,0,4,2.94,5.9,1.26,1.56-1.36-.39-3.73-.14-5.69.1-.79-.2-1.79.74-2.18,1.19-.48,1.79.54,2.39,1.28a5.61,5.61,0,0,1,1,1.73c1.57,4.59,3.56,3.73,6,.6.85-1.11,1.76-2.47,3.58-2.35,1,2.07-.74,3.41-1.29,5-1.07,3.19,0,4.43,3.31,3.75,1.86-.38,3.53-1.91,5.87-1a6.11,6.11,0,0,1-1.11,1.69c-3.41,2.5-8.07,5,.74,6.09a1.61,1.61,0,0,1,1.32,1.85,1.72,1.72,0,0,1-1.67,1.55,23.77,23.77,0,0,1-3.48.1c-3.31-.18-4.28,1-2.72,4.12.54,1.08,1.53,2.58.06,3.6s-2.68-.13-3.51-1.07c-2.19-2.5-3.57-2-5.18.67-1.48,2.5-2.68,2-3.31-.8-.5-2.21-1.52-3.79-4.14-1.89-1,.7-2.14,2.3-3.38,1.06s.3-2.39.93-3.49C1406.26,361.24,1407,360.5,1406.62,359.31Z"/><path class="cls-70" d="M1473.56,430.15c2.9.05,4.87-1.37,6.68-3.62,4.21-5.22,9.36-5.55,14.13-1,2.3,2.16,4.42,4.3,7.54,5.52s2.23,3.7-.17,4.65a41.16,41.16,0,0,0-8.88,5.34c-3.59,2.59-7.56,2.43-11-.61a15.62,15.62,0,0,0-6.38-3.72C1471.56,435.46,1470.24,433.49,1473.56,430.15Z"/><path class="cls-71" d="M1524.51,430.07c2.12-.41,3.32-2.06,4.7-3.48,5.78-6,10-6,15.41,0a16.65,16.65,0,0,0,5.92,4.27c.91,1.7,1.25,3.39-.07,5.05a19.07,19.07,0,0,0-7.66,4.41c-3.84,3.33-7.76,3.45-11.58.1a19.37,19.37,0,0,0-8.72-4.45C1520.65,433.13,1521.53,431.24,1524.51,430.07Z"/><path class="cls-72" d="M1431.55,444c-.33,5.42-6.24,12.17-11.24,12.85a3,3,0,0,1-3.13-1c-.81-1.09-.48-2.15.23-3.19,3.24-4.71,6.69-9.1,13.25-8.83A2.43,2.43,0,0,1,1431.55,444Z"/><path class="cls-73" d="M484.33,521a20.77,20.77,0,0,1,0-3.94c1.36-7.53,1.33-7.61-6-8.07-8.82-.55-14.05-7-12.91-15.95.44-3.41,1.56-6.83-.14-10.21.65-3.09,2-4.16,5.45-3.08a26.91,26.91,0,0,0,16.9-.15c1-.33,1.87-.63,2.61.4-.54,3.77,1.11,5.75,4.85,6.44,5,.9,9.53,3.59,14.75,3.59.54,3.27,3.42,3.19,5.66,3.78,7,1.88,7,1.81,6.62,8.91-.09,1.56,0,3,1.8,3.58-1.44,2.86-4.34,4.39-6.22,6.85-1.91-.68-2-2.56-2.5-4.05-3.09-8.32-9.66-12.32-17.76-14.42-1.11-.29-2.47-.69-3.18.54s.1,2.25.69,3.25c1.5,2.56,4.13,3.76,6.48,5.3,5.81,3.83,8.71,11.19,6.78,17.07,0,1.87-.59,3.13-2.86,3.09-5.6-.09-11.21-.12-16.81,0C486.27,523.94,485.47,522.31,484.33,521Z"/><path class="cls-74" d="M497,441.93c-.11,3,.46,4.71,4.15,3.22,2.8-1.14,5.9-1.52,8.87-2.24-.65,11.73-1.34,23.46-1.94,35.19-.08,1.59-.59,3.35.73,4.76,1.87,2.16,1.09,4.69,1,7.13-1.06,1.94-2.59,1.47-4.25.94-4.26-1.38-8.51-2.79-12.83-3.93s-5.34-3.39-2.52-7c3-6,2.18-12.84,3.72-19.2C495.45,454.6,496,448.22,497,441.93Z"/><path class="cls-75" d="M635,479.91c2.94,3.69-1.38,4.17-2.66,6-10.14,6-21.73,5.26-32.77,6.82-7,1-14.22,1-21.36,1.28-15.42.58-30.36-2.44-45.45-4.63a61.6,61.6,0,0,1-20.7-6.45c7.29,1.38,14.56,2.87,21.88,4.11,4.71.81,9.47,1.77,14.22,1.77,11.77,0,23.5,2,35.26,1,13.31-1.12,26.66-2,39.79-4.72C627.58,484.18,631.06,481.57,635,479.91Z"/><path class="cls-76" d="M287.31,741.54c7.29,2,14.57.69,21.84,0,.56,8.26-1.47,16.25-2.56,24.34-.35,2.64-.82,5.2.65,7.64-5.34,4.08-10.9,4.9-16.79,1.19l-.4-.1c-2.6-4.38-1.45-9.36-1.83-14C287.7,754.27,285.54,748,287.31,741.54Z"/><path class="cls-77" d="M290.45,774.66c5.74,1.61,11.29.64,16.79-1.19a1.86,1.86,0,0,0,1,.13,60.3,60.3,0,0,1,14.87,4.94c2.85,1.36,6.21,2.81,5.54,6.66s-4.35,4.21-7.51,4.2c-7.27,0-14.55.67-21.8-.53-7.41-1.23-9.11-3.13-9.08-10.74C290.22,777,290.37,775.82,290.45,774.66Z"/><path class="cls-78" d="M583.18,764.4c0,2.6-1.38,3.26-3.8,3.22-7.11-.12-14.23,0-21.34,0-3.3,0-6.61-.18-9.79,1-3,1.08-4.34,0-4.3-3.12q3.19-23.45,6.37-46.88,6.39-47.65,12.73-95.31l2.88-21.65c1.54,1.11,1.3,2.93,1.79,4.46s1.36,2.81,3.12,2.55,1.64-1.86,1.73-3.14c.25-3.62-.23-7.26.39-10.86a2.83,2.83,0,0,1,1.25-2c1.56,5.32,1.35,10.86,1.46,16.26.69,31.69,2.19,63.35,3.67,95C580.29,724,581.88,744.21,583.18,764.4Z"/><path class="cls-79" d="M611.79,769.5c6.57,1,12.38,4.46,18.84,5.86,3.65.79,6.33,3.41,6,6.91-.32,3.9-.87,8.45-6.22,9.64-5.68,1.26-11.23,2.2-17.16,1-6.29-1.26-12.77-1.58-19.16-2.4-6.92-.89-9.94-4-10-11.1,0-3-1.74-6.81,2.17-9C594.92,773.07,603.44,773.68,611.79,769.5Z"/><path class="cls-80" d="M542.83,770.4c5.22.62,9.59,4,15,4.27,4.59.23,7.13,3.28,7.19,8,.06,4.93-2.53,8.14-7.51,8.89-12.66,1.89-25.27,2.19-37.74-1.55-4-1.21-5.79-3.79-5.64-7.68.15-4.26-1-8.64,1-12.76C524.25,773.07,533.53,772.25,542.83,770.4Z"/><path class="cls-81" d="M517.88,512.71c-.06-4.09,3.64-4.67,6-6.46,3.16-1,6.22-1.8,9.7-.81s6.92-1.84,7.08-6.29c.17-5.06,2.49-4.52,5.69-3a43.66,43.66,0,0,1,4,2c5.27,3.17,5.52,4.6,1,8.53-2.83,2.46-3.57,5-1.61,8.23,2.8,4.68,2.93,9.74,2,14.93-10.35-2.33-20.7-4.54-31.41-4.08C517,522.8,516,517.73,517.88,512.71Z"/><path class="cls-82" d="M630,542.83c.17,3-.78,6.72,4.8,5.32,1.89-.47,3.69,1.25,4.38,3.85,2.18,8.21,2.63,16.6,2.75,25,.05,3.72,2,7.38.22,11.21-1.08,2.28-1.59,4.69-4.92,4.64a6.06,6.06,0,0,1-6.2-4.69c-1.81-5.73-.6-11.82-1.93-17.64-.35-1.54.51-3.35-1-4.65C627.82,558.11,627.81,550.38,630,542.83Z"/><path class="cls-83" d="M571.9,555.61c2.65-.13,1,2.4,2,3.28l.27,33.67c-.05,4.66-.09,9.31-.18,14,0,1.89.6,4.42-2.64,4.17-2.57-.2-5-.83-5.25-4.14"/><path class="cls-84" d="M573.94,558.89l-2-3.28c0-1.64-.18-3.31.78-5.19C574.86,553.16,573.87,556.12,573.94,558.89Z"/><path class="cls-82" d="M628,568.76c-.32,4,.95,8.1-.85,12C627.33,576.75,626.21,572.65,628,568.76Z"/><path class="cls-85" d="M1235.74,780.6c-2.65,9.27-8.2,14.23-16.48,14.71-7.8.45-13.82-4.59-17.58-14.73-2.35-5.74-1.44-8.31,3.68-10.45,9.78.2,19.57-.56,29.34.39h0C1236.3,773.76,1235.4,777.24,1235.74,780.6Z"/><path class="cls-86" d="M287.31,741.54c1.82,10.93,3.25,21.89,2.74,33a6.72,6.72,0,0,1-3.79,1c-14.45-.26-28.81,1.25-43.2,2.1-5.17,1.33-9-1.26-12.77-4.23-.75-9,1.75-17.78,2-26.71,3.11-.78,3.24-3.48,3.72-5.89,7.36-36.85,13-74,18.22-111.18,4-28.49,9.79-56.67,15.35-84.88a19.32,19.32,0,0,1,2.4-7.16c.38,3.94.9,7.88,1.14,11.84,3.44,56.58,6.73,113.17,10.39,169.73C284,726.69,283.13,734.61,287.31,741.54Z"/><path class="cls-87" d="M193.28,477.64c3.35.67,6.8,1.18,9.78,2.89,3.58,2,4.72.49,5-2.86-.59,6,3.66,7.65,8.17,9.06-1.92.38-1.77,1.44-1.11,2.91,3.43,7.71,3.63,16.1,5,24.24a13.61,13.61,0,0,1,0,4c-.41,2.95-1.39,5.63-4.93,5.9-3.88.3-5.17-2.48-5.8-5.57-.56-2.74-.77-5.57-1.13-8.36-1.55-1.61-1.19-3.68-1.38-5.63-.78-7.88-3.91-13.95-12.31-16a6.33,6.33,0,0,1-4.16-2.48C191.16,483,187.11,478.47,193.28,477.64Z"/><path class="cls-88" d="M268.92,279.06c-1.61,7.54-.43,10.64,5.66,14.58,2.48,1.61,5,3.09,7.57,4.63-.32.59-.64,1.18-.95,1.77-4.65,7-12.11,9.13-19.59,10.16-12.87,1.78-23.07-4.38-32.2-12.68a1.53,1.53,0,0,1-.27-1.4l.12-1.86c2.6-1,5.2-2,7.82-3,7.12-2.61,11.39-7.49,12.23-15.15.27-.2.61-.53.85-.46C256.29,277.48,262.85,276.92,268.92,279.06Z"/><path class="cls-89" d="M229.14,296.12c9,7.42,18.38,13.74,30.83,13,8.2-.5,14.8-4.52,21.23-9.07,4.67.24,2.4,2.13.86,3.74-9.71,10.16-28.24,12.42-40.49,4.92A52.46,52.46,0,0,1,229,298.33C228.34,297.61,226.66,296.64,229.14,296.12Z"/><path class="cls-90" d="M940.09,316.35c-1.35,10.29,3.32,19.73,11.82,23.9.33.53.66,1.06,1,1.6-4.17,8.6-16.18,14.08-27.13,12.19A45.92,45.92,0,0,1,896,335.82c-1.06-1.41-4.18-3.18-1-5.63,11.7-.72,18.22-7.95,22.57-17.91.4-.28.81-.69,1.31-.57a126.49,126.49,0,0,0,20.16,3.66C939.55,315.42,939.8,316,940.09,316.35Z"/><path class="cls-91" d="M895,330.19c-.18.59-.7,1.41-.49,1.75,8.16,13,28.51,26.59,47.09,18.69,4.61-2,7.77-5.54,11.28-8.78l2.8,1.53c-16.18,21.28-43.37,13.77-57.43-2.76-2.44-2.88-4.29-6.26-6.41-9.41C892.57,329.84,893.79,330,895,330.19Z"/><path class="cls-92" d="M860.88,477.91l-1-1.09c4.39-3.68,9.64-6.45,12.24-12,.55-1.19,2.5-1.28,3-.34,2.09,3.93,6.7,3.26,9.62,5.67,3.49,2.87,8,1.29,11.9,1.57a166.23,166.23,0,0,0,29.07-.85,11,11,0,0,0,4.29-1.2c5.61-3.23,10.8-1.8,15.79,1.32a4.12,4.12,0,0,0,3.22.73c7.14-1.42,9.08-.63,12.72,5.21,2.6,1.95,2.6,4.46,1.57,7.21-6.09,5.59-13.82,6.92-21.54,7.85-15.86,1.91-31.8,2.46-47.53-.8C882.45,488.73,870.73,485.54,860.88,477.91Z"/><path class="cls-93" d="M962.86,483.92c.34-2.44-.51-4.7-1.08-7,.29-2.27,2-2.14,3.65-2.2l9.19-.39c1.87-2.45,4.1-.61,6.18-.52,8.55,4.95,15.44,11.94,22.64,18.53a8.08,8.08,0,0,1,2.58,5.26c.36,5.57-.16,6.17-5.44,6-9.58-.3-19.17,0-28.76-.15-2.62,0-5.32.2-7.67-1.39-3.68-3.78-2.47-9-4-13.45C959.91,486.4,962,485.51,962.86,483.92Z"/><path class="cls-94" d="M946.92,451.94c-3.72,6.56-10.37,6.81-16.52,6.83-15.25.07-30.51.94-45.72-1.7-12-2.09-22.11-12.64-21.5-24.87,1.78,4.08,3.41,7.4,4.7,10.86,3.22,8.61,10.26,11.2,18.48,11.86,15.75,1.26,31.54,1.08,47.33,1,8.63-.05,11.33-2.53,12.06-11.36.21-2.48-.12-5,.1-7.48.34-3.86-1.57-5.95-5-7-6.06-1.8-12.36-2.19-18.55-3.22-8-1.34-16.19-.89-24.27-1.59-6.57-.57-9.76-4.91-10.95-11a105.14,105.14,0,0,1-2.18-22.2,81.21,81.21,0,0,0-1-12.37c-.15-1.11-.75-3.05,1.22-3.19,1.33-.09,1.58,1.44,1.67,2.64.67,8.24,1.37,16.49,2,24.74.16,2.15-.07,4.33.1,6.48.74,9.39,4.1,12.71,13.59,12.46,11.19-.29,22.14,1.24,33.1,3.1a32.25,32.25,0,0,1,9.71,3.75c4.15,2.21,2.33,6.52,3.37,9.8.63,2,.18,4.29.22,6.45C950.55,448.73,948.83,450.36,946.92,451.94Z"/><path class="cls-95" d="M946.92,451.94c-.07-2.23,2.36-3.64,2-6,1.82-2.76.68-5.82.8-8.72.1-2.24.87-4,3.12-3.11,6.49,2.67,8.39-.55,8.81-6.18-.45,5.12.85,9.12,5.6,12.16,3.42,2.2,5.69,6,8.5,9,2.4,2.61,2.13,4.5,0,6.78-1.61,1.39-3.86,2-5,4-2.48,3-6.56,3.93-9,7C961.21,457.54,954.26,454.55,946.92,451.94Z"/><path class="cls-10" d="M961.79,466.87c.46-5.61,6.1-4.53,9-7-.37.93-.85,1.94,0,2.79,3.42,3.63,5.74,8.27,10,11.11l-6.18.52c-2.65-.1-5.3-.24-7.94-.29C961.45,473.94,960.24,472.18,961.79,466.87Z"/><path class="cls-96" d="M152.38,509c-.87-4.61.47-8.89,2.14-13.06,2.46-6.14,7.73-7.72,13.65-8.14,5.75,4.16,12.29,6.45,19.1,8.09,4,1.14,8.91,7.58,8.52,11.23a2.09,2.09,0,0,1-1.58,1.71Z"/><path class="cls-97" d="M180.28,554.26V535.79a18.6,18.6,0,0,1,.06-3c.43-2.56,1.34-5.28,4.11-5.64,3.11-.41,4.2,2.54,4.65,4.91a171.14,171.14,0,0,1,3,20.07c.5,7.6,1.62,15.17,1.26,22.84-.2,4.16-.68,7.91-5.56,8.6-3.69.51-7.23-3.55-7.49-8.35-.2-3.65-.05-7.32-.05-11Z"/><path class="cls-98" d="M141.25,554.09c.42-4.92-.62-10.1.58-15.17.57-2.45,1.35-5.14,4.58-4.95s4.45,2.86,4.77,5.53c.95,7.85,2.11,15.69,2.14,23.64a32.16,32.16,0,0,0,.49,6.9c.87,4-2,8.58-5.38,8.67-4.34.12-5.55-2.61-6.3-6.61C141,566.14,141.61,560.21,141.25,554.09Z"/><path class="cls-99" d="M227.25,559.3c0,4.49,0,9,0,13.47,0,3.55-1.9,5.58-5.34,6s-5-1.15-5.86-4.58a26.71,26.71,0,0,1-.61-10.85c1.11-6.3.69-12.58.78-18.87a38.43,38.43,0,0,1,1-6.36c.41-2.2,1.41-3.84,3.66-4.14,2.62-.34,4,1.52,4.69,3.65a31.7,31.7,0,0,1,1.73,9.72C227.23,551.32,227.25,555.31,227.25,559.3Z"/><path class="cls-100" d="M194.21,508.79c1.35-6.27-3.44-9.26-6.94-12.93.56-3.54,4-6.17,3.14-10.15,14.42,3.57,18.43,9,17.85,24.12C203.58,509.45,198.77,510.86,194.21,508.79Z"/><path class="cls-101" d="M489.1,582.55c0,3.66.15,6.16,0,8.64-.25,3.13-1.25,6.17-4.92,6.47a6.42,6.42,0,0,1-7.19-4.84,16,16,0,0,1-.86-4.86q.06-19.68,0-39.36c0-2.41.26-4.77,2.35-6.24,2.51-1.77,6-.11,6.59,3.51,1.25,7.47,2.15,15,3,22.53C488.67,573.48,489.78,578.54,489.1,582.55Z"/><path class="cls-102" d="M517.88,512.71c.75,4.38.14,9,2.52,13.07-2.18,1.77-.92,3.87-.6,5.89.58,3.61-.61,6.51-4.4,6.92s-5.72-2-6.17-5.64c-.49-4,.64-8.21-1-12.15-.36-7.9-2.62-14.67-10.72-18a5.33,5.33,0,0,1-1.65-1.09c-2.23-2.11-4.63-5-3.36-7.67,1.35-2.84,4.68-.77,7.08-.14C509.42,496.5,515.44,502.88,517.88,512.71Z"/><path class="cls-103" d="M449.13,578.73c0,3.54-.05,6,0,8.52.09,3.32-1.13,5.31-4.76,5.59s-5.73-1.22-6.19-4.8a139.51,139.51,0,0,1-.06-36.06c.27-2,1.2-3.53,3.19-3.94s3,1.24,3.93,2.55c2.09,3.12,2.55,6.93,2.68,10.43C448.17,567.29,450,573.46,449.13,578.73Z"/><path class="cls-104" d="M512.1,571.05c.51-5.06-.81-11.38.84-17.64.75-2.84,2-5.4,4.92-5.26,2.79.13,3.8,3,4.15,5.52,1.52,11.06,1.12,22.19,1,33.3,0,3.73-2.24,5.71-6,5.82s-4.77-2.58-4.88-5.58C512,582.23,512.1,577.24,512.1,571.05Z"/><path class="cls-105" d="M960.66,488.1c2.73,3.84,1.7,8.63,3.18,12.78,1.9,2.45,2.6,5.33,3.09,8.31,6.45,39,13,78,18.81,117.16,2.25,15.29,1.25,30.52.39,45.73-.86,15.4-1.87,30.82-3.78,46.15a48,48,0,0,1-1.32,6.84c-1.09,3-.91,6.26-2.11,9.21-.67,1.65-.7,3.67-2.65,4.57a15.79,15.79,0,0,0-9.74-3,35.1,35.1,0,0,1-11.26-1.93c-2.61-.9-4.8-.78-6.93.91-2.07-1.18-1.78-3.22-1.9-5.12-1.15-16.56-2.6-33.11-3.46-49.68-2.05-39.19-11.15-77.25-18-115.68-.36-2-.67-3.93-1.13-5.93-.63,8.89-1.61,17.75-2.53,26.61-1.89,18.18-4.06,36.33-6.31,54.46-1.88,15.17-6.65,29.48-13.14,43.26-5.1,10.82-10.18,21.66-16.06,32.09-2.88,5.1-5.94,10.07-11.88,12.22-2.35.53-4.11-.85-6-1.85-6.9-3.65-13.76-7.37-20.89-10.57-2.44-12.33,3.3-23.33,5.79-34.82,3-13.74,7.13-27.24,9.67-41.05,1.83-9.95.29-20.19-.88-30.25-1.54-13.13-3.23-26.25-4.68-39.39-.84-7.56-1.71-15.15-1.92-22.74a263.94,263.94,0,0,1,2.77-46.57q1.68-9.4,3.35-18.81c1.79-1.64,3.42-.45,5,.36,20.64,10.52,42.35,14.92,65.55,12.43,8.81-.95,17.47-1.84,25.62-5.53A3.63,3.63,0,0,1,960.66,488.1Z"/><path class="cls-60" d="M828,780.59c-5.42-.65-10.81-1.3-16.27-.09-3.48.76-5-.58-5-4.53.25-15.47.18-31,.22-46.43,9.35-1.69,18.68.1,28,.07,2,0,4-.22,5.74,1,1.43,1.55.49,3.16,0,4.62-3.53,9.42-5.89,19.2-9,28.74a24,24,0,0,0-2.42,11C829.31,776.91,829.58,779,828,780.59Z"/><path class="cls-106" d="M830.83,763.62c2.41-11.26,6.53-22,9.94-33l6.24-16c1.4-1.13,2.67-.66,4.08.12,7.23,4,14.51,7.91,21.77,11.84,1.37,2-.3,3.19-1.14,4.62-7.38,10.88-14.15,22.15-21.48,33.06a28.66,28.66,0,0,1-3.24,4.44c-4.82,3-10.18,2.8-14.31-.51C831.24,767.05,829.83,765.8,830.83,763.62Z"/><path class="cls-107" d="M1265.58,473a2,2,0,0,0-.94,1.94c-1.54,1.63-3.59,1.58-5.56,1.59q-18.91.12-37.84,0c-1.82,0-3.66-.09-5.22-1.22-.7-3.61,2.32-2.44,3.76-2.59,4.17-.44,8.43.11,12.77-.4-.58-2-1.94-1.87-2.94-2.21-2.54-.88-3.07-2.38-1.45-4.49,3.2-4.15,2.63-8.25,0-12.38a31,31,0,0,1,8.64-23.25c4.13.36,5.73-3.48,8.47-5.34,6.51-4.41,19.29-2.35,22.87,4.55,2.3,4.42,5.44,5,9.65,3.82.86,5.52,1.22,11,4.87,15.92,2.67,3.57,1.37,8.11-1.49,11.08C1276.5,464.85,1271.85,469.93,1265.58,473Z"/><path class="cls-108" d="M1236.81,430a65.67,65.67,0,0,0-8.37,23.07c-.08.5-.13,1.15-.52,1.36-5.24,2.78-7.4,7.16-7.85,13-.26,3.42-3.29,5.57-6.12,7.41-8.63,2.25-17.24.43-25.85-.06-7.14-6.26-7.9-17.95-1.31-25.87,2.21-2.64,2.51-4.74,2.16-8.24-.79-7.7-2.61-15.75,1.68-23.19a8.26,8.26,0,0,1,5.92-2.79c6.78-1.31,13.25-.74,19.16,3.21,3.55,2.72,4,8.23,8.9,9.78C1229.12,426.05,1232.79,428.93,1236.81,430Z"/><path class="cls-109" d="M1265.58,473c4.18-3.8,8.31-7.65,12.56-11.37,5.27-4.61,5.57-9.56,1.53-15.23A13.63,13.63,0,0,1,1277.8,433c2.39-3.21,5-6.21,8.59-8.14,4.79-2.57,8.23-1.21,13.21,5.13,4.26,3.82,4,8.66,2.29,13.29-1.41,3.86-.71,6.34,2.79,8.21,7.44,4.68,8.44,12.39,2.85,22.16-13.42,1-26.85.28-40.28.22C1266.69,473.85,1266.13,473.27,1265.58,473Z"/><path class="cls-110" d="M1191.61,417.79c-3.3,4.44-1.79,9.57-1.82,14.39,0,3.93-1.58,8.32,2.18,11.68.9.81.3,1.74-.44,2.57-9.91,11.1-10.36,14.16-4,27.11.07.15.11.31.17.46-3.39,2-6.74,2.14-10-.15-2.11-5.25-1.05-10.66-1-16.06.16-20.43,0-40.86.1-61.3,0-1.75-.69-3.67.76-5.24l3.86,1.78c7.35,2.3,10.72,7.08,9.82,14.93A30.42,30.42,0,0,0,1191.61,417.79Z"/><path class="cls-111" d="M1224.61,427.65c-3,1.06-4.6-.43-5.79-3-.9-1.92-2-3.72-3.09-5.57-.11-3.33-1.15-5.89-4.42-7.64-1.93-1.05-3.56-3.28-.72-5.51,7.89-1.08,14.89-4.65,22-7.84,4.05,5.08,5.75,10.59,3,16.89q-2.65,3.76-5.33,7.52a2.53,2.53,0,0,1-3,1.22C1221.55,421.64,1224.45,425.59,1224.61,427.65Z"/><path class="cls-112" d="M1304.68,451.47c-5.8-.94-6.68-2-4.44-6.75,2.43-5.16,1.36-9.91-.64-14.75,5.67-4.42,5.68-4.42,2.48-11.34a2.51,2.51,0,0,1,.29-2.79c4.33-5.52,3.76-12.2,4.15-18.55.41-6.53.09-13.1.09-20.66,4.22,7.07,4.32,13.93,3.67,21a253.25,253.25,0,0,0-.06,40.29c.13,1.92.6,3.72-1.09,5C1306.21,445.07,1305.39,448.21,1304.68,451.47Z"/><path class="cls-113" d="M1191.61,417.79c-1.11,0-1.95-.31-2-1.62a39.79,39.79,0,0,1,0-5.46c1.07-7.73-.72-14-8.3-17.69,7.79,1.42,14,6.63,21.29,9.1,1.71.57,3.38,1.29,5.07,1.94.9,6-.85,7.53-8.9,7.52,1.49,2.6,1,4.23-2.19,4.16A9.7,9.7,0,0,0,1191.61,417.79Z"/><path class="cls-114" d="M1196.62,415.74c.09-1.06,3.87-.18,1.37-2.57-.79-.75-2.46-1.21-1.58-2.56s2.55-.82,3.7-.5c5.45,1.51,7.17-1.4,7.6-6.05,1.81-.66,1.15,2.44,2.88,1.89a3.66,3.66,0,0,0,2.36,5.49c5,1.39,4.69,4.08,2.78,7.65C1209.8,415.49,1203.36,414.78,1196.62,415.74Z"/><path class="cls-115" d="M1235.65,415a41.74,41.74,0,0,0-3-16.89c-2.23-8-4.29-15.91-1.57-24.19.63,7.32-.13,14.93,3.16,21.69a60.46,60.46,0,0,1,4.89,14.91c.83,4.15.34,8.22.3,12.39C1238.24,420.19,1238.91,416.64,1235.65,415Z"/><path class="cls-116" d="M1164.14,387.27c-.48-1.42-1-2.84-1.45-4.26.18-.8.34-1.71,1.49-1,4,2.51,8.2,4.58,11.56,8C1171.84,389.23,1167.1,392.05,1164.14,387.27Z"/><path class="cls-99" d="M669,568c0-5.81,0-11.62,0-17.43a25.32,25.32,0,0,1,.59-4.89c.41-2,1.07-3.86,3.74-3.83s3.79,1.4,4.73,3.62c1.78,4.27.93,8.83,1.67,13.23,1.62,9.74,2.2,19.65,3.2,29.49.42,4-1,7.4-4.56,9.17-2.86,1.4-5.78.1-7.45-2.37a14.31,14.31,0,0,1-1.94-8.06Q669,577.45,669,568Z"/><path class="cls-104" d="M716,574.38c0,4.15.07,8.3,0,12.45-.09,3.74-2.12,5.75-5.89,6s-4.5-2.46-5.1-5.4c-2.25-10.89-.15-21.76.17-32.63.09-2.93.78-7,5-6.73,3.8.26,4.3,3.74,4.88,7C716.19,561.49,715.88,567.93,716,574.38Z"/><path class="cls-117" d="M657.06,510.81c7.73.16,15.29-1.46,23-2a6.45,6.45,0,0,1-.26,7.36c-2.49,3.38-2.63,5.85,2,7.22.49.15.78,1,1.16,1.47-7.43-1.33-14.8-3-22.46-1.12-3.11.76-5.64-.29-6.57-4.2S652.19,512.36,657.06,510.81Z"/><path class="cls-118" d="M1177.63,473.85l10,.15c9.07-.33,18.15.9,27.21-.15.49-.28.78-.17.85.41,3.19,1.33,6.52.57,9.77.59,13,.11,26.09,0,39.13,0h42.08c.1.61.21,1.22.31,1.84-8.28,2.45-17.7-.14-25.55,4.25q-96.81-1.32-193.63-2.6c-24.12-.3-48.25-.44-72.36.5-4.34.17-7.84-.53-10.53-4,1.51-1.65,3.43-.74,5.15-.75q33.27-.25,66.52-.41c13.27.1,26.53.29,39.8.29C1136.83,474,1157.23,473.9,1177.63,473.85Z"/><path class="cls-83" d="M268.92,279.06c-6.76.54-13.35-.08-19.61-2.94-6.36-4.85-11.74-10.55-15.12-17.92-3-1.09-3.18-3.58-2.72-6.09.58-3.18,2.33-5.82,5.75-6.05,9-.62,17.8-2.28,26.71-3.28,6.41-.72,11.94,2.47,17.63,4.74a4.88,4.88,0,0,1,3.07,4.76c0,2.63.55,5.3-.36,7.89C282.58,269.25,276.93,275.11,268.92,279.06Z"/><path class="cls-119" d="M284.27,260.17c1.16-7.81-1.89-12.13-9.86-14.16-5.61-1.42-10.83-2.38-16.53-1a84,84,0,0,1-18.69,2.18c-2.49,0-4.75.25-5.71,2.91s-2.34,5.66.71,8.11a25.65,25.65,0,0,1-2.84-.08c-.27-4.15-5.45-4.7-6.13-8.46-.72-3.95,1.24-6.51,4.59-7.91,4.46-1.86,7.75-5.06,10.94-8.48a24.17,24.17,0,0,1,11.32-6.85c5.13-1.47,10.3-2.92,13.53-7.76,1.26-1.9,2.2-.74,2.92.48,3,5.18,7.91,8,13.13,10.29,2.54,1.13,3.85,2.56,4,5.55C286,243.43,285.87,251.83,284.27,260.17Z"/><path class="cls-83" d="M940.09,316.35c-7.82.41-15.26-1.28-22.51-4.07-7.39-6.63-13.81-13.9-15.82-24.06-.82-1.6-1.9-3-1.63-5.07.71-5.4,1.67-10.8.66-16.29a3.41,3.41,0,0,1,1.08-2.69l2,0c2.21,1,2.43,3.08,2.36,5.08-.15,4.51,2.24,6.41,6.37,7.41,7.23,1.73,14.41,2.54,21.62.36,4.43-1.34,8.41-1,12.3,1.67,2.75,1.88,6,2.78,9.11,4,6.26,2.46,6.26,2.45,5.34,9.52Q958,310.71,940.09,316.35Z"/><path class="cls-120" d="M960.94,292.23c.72-4.69-1.12-7.14-5.91-8.35a30.6,30.6,0,0,1-11.21-5.14,6.68,6.68,0,0,0-6.54-.95c-8.91,2.85-17.76,2.31-26.77-.09-4.22-1.13-5.78-3.22-5.68-7.23.06-2.14.25-4.33-1-6.27,5,.48,9.61-.88,14-2.88,9.47-4.35,19.35-8,27.46-14.88,2-1.72,2.93-1.38,3.84,1,3.15,8.45,8.1,15.57,15.9,20.43,1.94,1.21,1.72,2.92,1.44,4.81A79.63,79.63,0,0,1,960.94,292.23Z"/><path class="cls-120" d="M901.87,264.17c2.27,8-.86,16-.11,24.05-2.73-3.26-5.67-6.36-8.14-9.81a10.73,10.73,0,0,1-.63-11.77C895,262.8,898.69,264.22,901.87,264.17Z"/><path class="cls-121" d="M960.66,488.1c-20.74,9.63-42.36,9.32-64.21,5.42A94.23,94.23,0,0,1,864.88,482a5.26,5.26,0,0,0-3.76-1,3.46,3.46,0,0,0-.24-3.1c9.39,4.22,18.75,8.67,28.82,10.91a143.27,143.27,0,0,0,44,2.38c10.25-.92,20-2.37,29.16-7.28C962.93,485.74,961.23,486.62,960.66,488.1Z"/><path class="cls-122" d="M593.24,216.16c-2-.45-4.87.65-4.89-2.11,0-2.22,2.68-2.58,4.62-2.64s4.58.45,4.64,2.64C597.68,217.12,594.68,215.57,593.24,216.16Z"/><path class="cls-123" d="M622.74,218.55c-2-.23-4.92,1.9-5.11-1.73-.1-2,2.17-2.73,4.18-2.56,2.22.19,5,.78,5,3.16C626.8,220.74,624.05,218,622.74,218.55Z"/><path class="cls-124" d="M619.82,225.88c.2-1.5-.19-3.45,1.94-3.51,1.94-.05,3,1.46,3.06,3.25a2.92,2.92,0,0,1-2.9,3.35C619.68,229.09,620,227.24,619.82,225.88Z"/><path class="cls-125" d="M592,226.08c-1.94-.12-2-1.53-2-2.88,0-1.73.17-3.58,2.43-3.59a2.27,2.27,0,0,1,2.21,2.77C594.49,224.05,594,225.67,592,226.08Z"/><path class="cls-126" d="M1265.84,281.25l5.63.07c.77,1,2.47,1.89,1.4,3.2-1.44,1.77-3.69.54-5.51.45C1264.87,284.84,1265.53,282.84,1265.84,281.25Z"/><path class="cls-127" d="M1249.56,293c-.1,1.52-.51,2.82-2.23,2.67s-2.52-1.46-2.49-3.11c0-1.31.27-2.91,1.94-2.9C1248.79,289.71,1249.34,291.39,1249.56,293Z"/><path class="cls-128" d="M1243.62,282.2h7c.2,3.61-2.35,3.75-4.88,3.81C1242.79,286.06,1243.61,283.88,1243.62,282.2Z"/><path class="cls-129" d="M1270.93,291.26c0,1.46-.1,2.75-1.65,2.79-1.7,0-2.19-1.35-2.23-2.69s.1-2.9,1.93-2.78C1270.63,288.69,1270.79,290.2,1270.93,291.26Z"/><path class="cls-60" d="M846.77,767.51l24.06-36.83c2.56-2.16,5.6-2.38,8.82-2.66,15.08-1.29,30.14.42,45.21.08,4.31-.09,8.61-.08,12.92-.57,3.47-.39,7-.09,10,2,.28,1.69-.57,3.6.94,5.07a4.11,4.11,0,0,1,1.51,3.55c-.54,13.32,1.8,26.57.91,39.89-.39,1.23-.64,2.59-2.36,2.63a6.7,6.7,0,0,0-4.75-1.07c-21.68,2.06-43.42.38-65.12.85-1.79,0-3.57-.68-5.37-.83-2.24-.19-4.48-.13-4.71,3a139.63,139.63,0,0,0-20-10.8C847.27,771.07,845.64,769.85,846.77,767.51Z"/><path class="cls-130" d="M975.93,738.62c2.08-4.1,2.31-8.74,3.78-13a14.19,14.19,0,0,0,9.34,2.6c4.64-.16,9.29-.23,13.92,0,3.48.19,6.12-.79,8-3.74,1.43,4.72,1.11,9.7,2.68,14.47,4.22,12.83,12.48,21.5,25.09,26.16a31.82,31.82,0,0,1,3,1.49c-1.76,4.92-1.86,10.29-4.2,15-2.27-3.43-5.68-2-8.63-1.84a414,414,0,0,1-52.13.09c-2.91-.17-6.55-2.3-8.9,1.56a1.68,1.68,0,0,1-2.29.16c-.94-1.61-.45-3.27,0-4.85,3.1-11.06,5.24-22.34,7.77-33.53C973.78,741.46,974.06,739.6,975.93,738.62Z"/><path class="cls-131" d="M1204.92,770.74c-4.4,2.19-2.8,6.35-3.24,9.84-1.79-1.13-3.8-1-5.79-1-29.38,0-58.76-.29-88.13.21-9.58.17-19.18.58-28.78.78-2.68.06-5.86-2.81-8,1.08-.14-.1-.33-.17-.39-.3-1.47-3.25-6.28-8.63-9.57-10.72-.23-.15-.24-.57-.23-.91,5.68-.83,11.24.79,16.91.77,41-.1,81.94,0,122.91,0C1202.06,769.94,1203.52,769.7,1204.92,770.74Z"/><path class="cls-132" d="M1060.76,769.73c.27.17.52.45.81.51,9.13,1.65,9.13,1.64,9.37,11.42-3,8.65-9.23,13.7-17,13.73-7.22,0-13.29-5.06-16.41-13.74.24-5.34,0-10.83,4.2-15A112,112,0,0,0,1060.76,769.73Z"/><path class="cls-133" d="M846.77,767.51c1.17,4.27,5.3,4.52,8.41,5.93,5.11,2.31,10.23,4.47,13.67,9.19-.07,4.5-3.28,5.14-6.56,4.75q-14-1.7-27.94-4c-2.2-.37-4.22-1.84-6.32-2.8-.19-5.84-1.18-11.82,2.8-17A10.55,10.55,0,0,0,846.77,767.51Z"/><path class="cls-134" d="M965.77,781.43l2.14,0c5.38,2.07,10.78,4.09,16.13,6.25a13.23,13.23,0,0,1,3.78,2.32c1.42,1.27,3.5,2.46,2.78,4.84s-3,3-5.22,3a147.92,147.92,0,0,1-31.49-2.74c-3.42-.73-4.6-3-4.86-6-.23-2.79-.16-5.61-.23-8.42l1.22-2.28C954.6,783,960.12,782.54,965.77,781.43Z"/><path class="cls-135" d="M230.29,773.45c4.33,1.19,8.26,3.58,12.77,4.23,2.16,1.46,5,1.76,6.67,4.11,2.64,3.72,1.56,7.29-2.93,7.57-9.61.61-19.25.53-28.7-1.79-3.66-.9-5-3.56-5.14-7,.19-2.39.38-4.78.64-8.16C219.3,777.77,224.8,774,230.29,773.45Z"/><path class="cls-136" d="M1011,724.48c.27,3.84-1,5.52-5.34,5.25-6.76-.44-13.58-.11-20.37-.17-2.72,0-5.53-.06-5.53-4,3-22,3.84-44.16,5.43-66.28,1.44-20.13-2-39.56-5-59.14-3.62-23.35-7.48-46.67-11.29-70-1.59-9.78-3.31-19.54-5-29.31,1.93,1.31,4.12,1,6.26,1,10.91.29,21.83-.61,32.73.47,4.07.4,2.55-2.92,3.19-4.79,2.59,8.65,2.82,17.67,3.6,26.54,3.32,37.72,6.16,75.48,9.23,113.22.42,5.13,1.49,10.23,1.64,15.36.14,4.81,1.72,7.65,7.92,7.34C1013.54,679.62,1009,701.22,1011,724.48Z"/><path class="cls-136" d="M1178.42,563.73c6,0,12,.17,18-.06,3.62-.14,4.8,1,3.92,4.6a222.24,222.24,0,0,0-5.57,33.91c-.2,2.47-1.33,3.5-3.82,3.48q-14.73-.12-29.46-.06c-2.39,0-3.66-.74-3.8-3.39-.6-11.29-1.24-22.57-2.1-33.84-.31-4,1.35-4.84,4.88-4.72,6,.21,12,.06,18,.06Z"/><path class="cls-136" d="M1232.27,563.6c5.65,0,11.31.07,17,0,2.69-.05,3.45.76,2.84,3.54q-3.84,17.5-7.28,35.1c-.53,2.74-1.87,3.7-4.44,3.4-10-1.16-19.93-.15-29.88.07-3.81.08-5.12-1.15-4.45-4.93,1.89-10.79,3.77-21.59,5.35-32.43.52-3.53,1.85-4.83,5.44-4.64,5.14.28,10.31.07,15.46.07Z"/><path class="cls-137" d="M1181.64,520h21.46c2,0,3.63,0,3.2,2.92q-1.83,12.57-3.26,25.2c-.37,3.22-2,4-5,4-12.64-.13-25.28-.16-37.93,0-3.4,0-4.79-.87-4.58-4.48.44-7.8.62-15.61.76-23.42.06-3.41,1.45-4.56,4.89-4.43,6.81.25,13.64.07,20.46.07Z"/><path class="cls-136" d="M1124.46,563.74c5,0,10,.12,15,0,3-.1,4.14,1,4.14,4.06a290,290,0,0,0,1.89,34.35c.27,2.33-.57,3.43-3,3.43q-14.73,0-29.47.12c-2.23,0-3.25-.88-3.48-3.2q-1.74-17.61-3.73-35.21c-.28-2.53.42-3.68,3.16-3.62,5.15.13,10.32,0,15.48,0Z"/><path class="cls-138" d="M1077.86,563.67c4.33,0,8.66.09,13,0,2.49-.07,3.65.93,3.88,3.4q1.69,17.87,3.53,35.73c.25,2.43-.77,3.25-3.1,3.29-8.15.15-16.31.32-24.45.7-3,.14-4.26-1-4.6-3.8-1.41-11.72-2.81-23.44-4.37-35.14-.47-3.5,1-4.34,4.14-4.18,4,.21,8,.05,12,.05Z"/><path class="cls-136" d="M1228.49,520.13c9.63.1,19.26,1.29,28.89,0,2.78-.39,3.61,1,3.12,3.5q-2.58,12.95-5.18,25.89c-.41,2-1.44,3.25-3.78,3-11.12-1.11-22.26-.33-33.4-.42-3.39,0-4.76-.65-4.05-4.54,1.26-6.84,2.09-13.79,2.72-20.73.45-5,2.12-7.84,7.7-6.71A20.31,20.31,0,0,0,1228.49,520.13Z"/><path class="cls-136" d="M1122.74,519.73c5.82,0,11.65.14,17.46-.05,3.25-.11,4.71,1,4.26,4.3-1.09,7.93-.87,15.92-1,23.88,0,3.24-1.23,4.32-4.46,4.27-10-.17-20-.22-29.93,0-3.46.08-4.77-1.17-4.91-4.45a242.19,242.19,0,0,0-2.17-24.79c-.42-2.85.88-3.65,3.77-3.5,5.64.29,11.3.08,17,.08Z"/><path class="cls-139" d="M1176.51,617.83c4.66,0,9.31.07,14,0,2.33,0,3.31.82,3.29,3.18a215.17,215.17,0,0,1-1.54,26.85c-.36,2.78-1.43,4-4.46,3.87-8.14-.39-16.29-.53-24.43-.65-2.4,0-3.68-.65-3.68-3.38,0-9,.35-17.95-.57-26.9-.26-2.58,1.3-3,3.45-2.94,4.65.09,9.31,0,14,0Z"/><path class="cls-33" d="M1223.79,617.82c4.65,0,9.31.14,14,0,3.15-.12,4,.72,3.29,4-2,9.06-3.71,18.19-5.42,27.31-.45,2.43-1.61,3.23-4.09,3.15-8-.26-15.93-.39-23.89-.34-3.11,0-4-.75-3.32-4,1.69-8.5,1.52-17.17,1.3-25.79-.08-3.26,1-4.43,4.24-4.26,4.64.23,9.3.06,13.94.06Z"/><path class="cls-140" d="M1072.83,519.44c4.81,0,9.63,0,14.44,0,2.73,0,3.63,1.26,3.78,4,.45,8.29,1.1,16.58,1.88,24.84.28,2.93-.74,3.85-3.54,3.82-8.65-.1-17.3-.06-26,0-2.33,0-3.64-.57-4-3.24-1-8.73-2.28-17.45-3.48-26.16-.37-2.66.82-3.6,3.36-3.56,4.49.08,9,0,13.47,0Z"/><path class="cls-33" d="M1129,617.85c4.65,0,9.31,0,14,0,2.5,0,3.68,1,3.71,3.51.08,8.64.18,17.28.35,25.92,0,2.5-.86,3.62-3.5,3.52q-12.45-.46-24.91-.68c-2.54,0-3.51-1.2-3.78-3.57-.92-8.08-1.87-16.16-3-24.21-.48-3.45.52-4.83,4.18-4.58,4.31.29,8.64.07,13,.07Z"/><path class="cls-141" d="M1085.05,617.56c1.28,0,3.6,0,5.93,0,8.69.07,8.65.08,9.61,8.47.74,6.58,1.41,13.18,2.48,19.71.53,3.24-.47,4.19-3.54,4.14q-12.19-.23-24.39-.18c-2.46,0-3.41-.83-3.7-3.4-.94-8.39-2.11-16.76-3.37-25.11-.51-3.41.73-4.53,4-4.26C1076.05,617.26,1080,617.33,1085.05,617.56Z"/><path class="cls-33" d="M1037.3,563.66c10.59.14,10.51.15,11.5,10.72.86,9.08,1.8,18.15,3,27.2.48,3.68.09,5.57-4.36,5.21a111.9,111.9,0,0,0-13.45.2c-2.53.11-4-.47-4.23-3.42-1.16-11.88-2.48-23.75-3.89-35.61-.4-3.3.64-4.6,4-4.33C1032.31,563.82,1034.81,563.66,1037.3,563.66Z"/><path class="cls-142" d="M1035.34,552c-10.5,0-10.51,0-11.85-10.18-.83-6.24-1.56-12.49-2.46-18.72-.43-3,.49-4.36,3.67-4.23,4.8.18,9.62.23,14.43.18,2.86,0,4.21,1.07,4.44,4,.63,7.93,1.26,15.87,2.29,23.75.57,4.34-.9,5.74-5,5.22A43.53,43.53,0,0,0,1035.34,552Z"/><path class="cls-143" d="M1045.88,649.5c-11.37-1.23-11.32-1.23-12.27-12.59-.46-5.45-1.14-10.88-1.81-16.31-.38-3.05.71-4.15,3.85-4,4.64.27,9.3.23,13.95.1,2.81-.08,4.08.66,4.37,3.8.79,8.25,1.84,16.49,3.19,24.66.59,3.58-.58,4.52-3.81,4.35C1050.86,649.39,1048.37,649.5,1045.88,649.5Z"/><path class="cls-144" d="M1209.57,498.89a4.75,4.75,0,0,1,.1,1c-.91,9.82-.91,9.76-10.61,9.74-12.32,0-24.65-.11-37,.17-3.87.09-5.61-.86-5.27-4.92.22-2.64,0-5.31,0-8,2.23,3,5.12,2.88,8.64,2.74,12.77-.49,25.56-.38,38.34-.05A17.59,17.59,0,0,0,1209.57,498.89Z"/><path class="cls-145" d="M1100.76,500.89c-1.7-9.5-1.7-9.45,7.58-9.31q14.94.23,29.88.29c7,0,7,0,6.41,7-1,2.14,0,4.56-.81,7-8.3-4.42-17.1-1.91-25.63-2.48-3.94-.27-7.92,0-11.88-.1C1104.15,503.29,1102,503.16,1100.76,500.89Z"/><path class="cls-146" d="M1041,501c.32,9,.31,9.22-8.56,8.91-4-.14-9.17,2.55-11.77-.62-2.16-2.64-1.56-7.57-2.08-11.49-1.11-8.48-1.09-8.49,7.19-8.22,1.32,0,2.65,0,4,.07C1040.58,489.86,1040.58,489.86,1041,501Z"/><path class="cls-147" d="M1209.57,498.89c-1,1.12-1.39,2.25-3.64,2.2-13.26-.32-26.54-.11-39.81-.25a13.59,13.59,0,0,0-7.8,2.45c-1.26-2.15.23-4.63-1.49-6.39-.83-3.56.12-5,4.22-4.85,14.62.56,29.25.94,43.88.94C1209.79,493,1210.76,494.77,1209.57,498.89Z"/><path class="cls-148" d="M1053.78,501.88c-3-11.87-3-11.91,9.1-11.65,5.3.11,10.59.42,15.89.64.84.74,1.89.41,2.84.56,2.5.38,6.31-1.44,7.26,1.17,1.24,3.43.5,7.53.24,11.32-.1,1.42-1.37,1.17-2.3.89-9.11-2.78-18.45-.84-27.66-1.35C1057.23,503.36,1055.08,504.06,1053.78,501.88Z"/><path class="cls-149" d="M1100.76,500.89c1.78,1.13,3.77,1,5.76,1,10.41,0,20.81,0,31.22,0,2.43,0,4.79-.07,5.27,3.48,1.37-2.32-.14-4.77,1.62-6.45.53,10.81.53,10.83-10,10.91-8.26.06-16.53.05-24.8.13C1100.7,510,1100.7,510.05,1100.76,500.89Z"/><path class="cls-150" d="M1264.59,500.89c-1.29,8.2-1.29,8.14-9.43,8.14-10.15,0-20.3,0-30.45.24-4,.12-6-.8-5-5.22.48-2.08-.25-4.34.81-6.37a8.6,8.6,0,0,0,6.35,2C1239.46,499.51,1252.09,498.44,1264.59,500.89Z"/><path class="cls-151" d="M1264.59,500.89c-1,.64-1.41,1.83-3.27,1.45-12.42-2.6-25-1.82-37.46-.61-3.76.36-2.85-2.19-3.33-4.05-.62-3.44,1.06-4.15,4.19-4.09,11.62.23,23.25.25,34.87.27C1266.53,493.87,1266.53,493.81,1264.59,500.89Z"/><path class="cls-144" d="M1053.78,501.88c8.93,0,17.87.05,26.81,0,2.71,0,5.31,0,8.14,3.65,0-4.47-.08-7.5,0-10.51.08-2.42-1-3.11-3.31-3.19s-4.68.93-6.67-.94c10.9-.6,10.9-.6,10.92,10.24,0,8.95,0,8.95-9.12,9-6.12,0-12.25.12-18.38,0C1054.17,510,1053.94,512.18,1053.78,501.88Z"/><path class="cls-9" d="M1204.92,770.74l-4.34-.2c7.77-1.87,15.67-.62,23.5-.8,3.52-.08,7.2-1,10.62.79Z"/><path class="cls-152" d="M1390.66,440.9c1.84.2,3.17-.15,3.71,1.28a2.86,2.86,0,0,1-.76,3.2c-3.2,3.13-6.35,6.32-9.7,9.29-1.59,1.42-3.51,1.84-5.26-.14s-.63-3.59.88-5.08C1383,446,1386.37,442.32,1390.66,440.9Z"/><path class="cls-153" d="M1409.81,442.9c1.11.19,2.71-.51,3.42,1.06s-.62,2.45-1.55,3.32a37.76,37.76,0,0,1-10.07,7.14c-1.11.5-2.31.84-3.29,0-1.17-1-.92-2.45-.49-3.7C1399,447.22,1405.75,442.84,1409.81,442.9Z"/><path class="cls-154" d="M1350.54,442.88c1.53.48,3.67-.74,4.61.94,1.11,2-1.06,3.29-2,4.7-1.86,2.84-4.82,4.49-7.77,6-1.39.71-3,.82-4.07-.6s0-2.57.69-3.6c2.21-3.19,6-4.58,8.54-7.43Z"/><path class="cls-155" d="M1362.9,452.89c-2.15,0-2.44-1.3-2.14-3,.56-3.19,6-7.81,9.32-8.22,1.88-.24,2.49.53,2.35,2.17S1364.4,452.85,1362.9,452.89Z"/><path class="cls-136" d="M947.8,729.57c-13.75,0-27.53.65-41.22-.24-8-.52-15.85.25-23.78.25-4,0-8.07-.31-12,1.1.56-1.41,2.08-2.35,2-4.08a18.91,18.91,0,0,0,9-8.16c11.83-21.16,23.51-42.41,29.23-66.25,3.17-13.23,4.1-26.8,5.71-40.25,1.64-13.8,3-27.63,4.64-41.43.67-5.57-.39-11.32,2-17.07,2.86,3.43,2.39,7.71,3.11,11.46,4.81,25.17,9.6,50.36,13.87,75.62a321.6,321.6,0,0,1,3.46,33.57c1,16.68,2.51,33.33,3.77,50C947.82,725.91,947.76,727.74,947.8,729.57Z"/><path class="cls-106" d="M965.77,781.43c-7.49,4.07-11.66,3.27-15.76-3q-.63-21.9-1.27-43.79c-.16-2.83.41-4.37,3.82-3,5.52,2.22,11.36,2.85,17.28,3.1,2.54.1,6-.39,6.09,3.87C972.48,752.88,970,767.36,965.77,781.43Z"/><path class="cls-156" d="M850.86,710.75c2.3-7.71,4.58-15.42,6.9-23.12,5.6-18.57,9.15-37.59,12.08-56.72,1.82-11.92,3.76-23.85,4.8-35.85.87-10-1.52-19.77-4-29.39A164.34,164.34,0,0,1,866,514.89c.38-6.45,2.24-12.82,4-19.14,1.44,3.73-.29,7.16-.82,10.7-.32,2.07-1.36,4.58.68,6s4.2-.15,5.82-1.56c4-3.47,8.66-6.16,11.65-10.75,1-1.55,2.23-3.28,5.46-3.17-5.46,8.09-11.81,14.27-19.94,18.13-3.43,1.63-4,3.52-4.14,6.78-.9,16.41,1.84,32.38,5.74,48.17,3.49,14.12,3,28.34,1.23,42.5-2.22,17.53-4.75,35.05-8.91,52.26-3.39,14-6.84,28-12,41.53C854.17,708.13,853.58,710,850.86,710.75Z"/><path class="cls-157" d="M922.61,500.86a9.64,9.64,0,0,1,2.23,6.33c.19,9.06-.39,18.15.88,27.19.11.78.18,1.84-.94,1.93a1.94,1.94,0,0,1-1.52-.95c-5-10.66-10.78-21.06-10.37-33.36.05-1.27-1-3.48,1.35-3.54,1.56,0,1.39,1.89,1.68,3.18,1.39,6.12,1.18,12.55,3.54,18.49.6,1.49.63,3.34,3.21,4.07C923.55,516.56,920.36,509,922.61,500.86Z"/><path class="cls-158" d="M1215.74,474.26a3.71,3.71,0,0,0-.85-.41c3.14-4,5.58-8.17,4.91-13.53-.27-2.1.47-3.13,2.77-3.76,2.12-.57,3.93-2.31,5.88-3.54,3.57,2,4.56,9.54,1.61,12.64-.66.69-1.74,1-1.89,2.26,1.06,1.78,3,.59,4.42,1.16,1.64.67,3.07,1.78,2.83,3.62s-2.05,1.29-3.27,1.32C1226.68,474.14,1221.21,474.18,1215.74,474.26Z"/><path class="cls-159" d="M1255.68,430.05c1.49-.07,2.41.91,3.39,1.79,3.61,3.24,5.47,7.81,8.65,11.39.79.89,1.1,2.25-.19,3-1.69,1-2-.56-2.89-1.57-3.34-3.94-4.89-9.28-9.58-12.16a2.18,2.18,0,0,1-.87-1.58C1254.19,430.11,1255,430.11,1255.68,430.05Z"/><path class="cls-160" d="M1204.53,437.94c1.58.8,3.51,1.3,4.74,2.51,2.57,2.53,4.6,2.77,6.83-.29.62-.85,1.49-2.2,2.77-1.61,1.59.72,1.11,2.48.55,3.48-1.7,3,.23,4.6,2,6.36,1,1,1.6,2.21.63,3.53a2.46,2.46,0,0,1-3.54.71c-4.57-4.07-10.59-6.28-14.45-11.2C1203.4,440.55,1201.82,439,1204.53,437.94Z"/><path class="cls-161" d="M249.16,238.86c.14-1.54.86-2.55,2.53-2.31a2.57,2.57,0,0,1,2.31,2.78,2.31,2.31,0,0,1-2.39,2.6C249.74,241.92,249.15,240.55,249.16,238.86Z"/><path class="cls-162" d="M254.72,232.31c-.24,2-1.69,1.82-3,1.81-1.55,0-3.17-.18-3.45-2.08s1.29-2,2.63-2C252.72,229.9,254.19,230.37,254.72,232.31Z"/><path class="cls-163" d="M275.25,236.63a2.18,2.18,0,0,1,2.3,2.61,2.23,2.23,0,0,1-2.53,2.41,2,2,0,0,1-2-2.3C273.05,237.85,273.58,236.77,275.25,236.63Z"/><path class="cls-164" d="M275.42,233.5c-1.26-.31-3.21.45-2.94-1.7.2-1.56,1.81-1.76,3.17-1.72s3,0,2.86,1.86S276.51,233.2,275.42,233.5Z"/><path class="cls-165" d="M928.55,264.39c-1.78-.81-4.62,1.2-4.73-1.22-.11-2.26,2.85-2.11,4.76-2.17s4.58-.15,4.47,1.81C932.87,265.89,929.77,263.09,928.55,264.39Z"/><path class="cls-166" d="M960.12,270.34c-2.73,1-4.35-1.13-6.43-1.26-1.31-.09-3.59.17-2.94-2.05.5-1.66,2.6-1.14,4-.75C956.9,266.91,959,267.89,960.12,270.34Z"/><path class="cls-167" d="M956.11,276.26c-.22,1.8-.71,3.18-2.63,3a2.19,2.19,0,0,1-2.16-2.66c.17-1.49.61-3.08,2.42-3.15S956,274.93,956.11,276.26Z"/><path class="cls-168" d="M927.83,268c1.9.27,2.08,1.52,2,2.9-.07,1.64-.74,3-2.52,3s-1.67-1.63-1.72-2.88C925.55,269.37,926.13,268.16,927.83,268Z"/></svg>