<svg id="Layer_1" data-name="Layer 1" xmlns="http://www.w3.org/2000/svg" viewBox="0 0 1746.76 963.16"><defs><style>.cls-1{fill:#e7eef5;}.cls-2{fill:#fefefe;}</style></defs><path class="cls-1" d="M128,360c162.82-129,280.27-5.58,446.92-5.64,1.38,0,2.77-.07,4.14-.2,164.62-15.39,296.47-131.86,443.22-197.62.72-.32,1.43-.66,2.12-1,183.81-96.12,413.66-74.36,556.72,82.41h0c211.21,185.29,258,619.7-72.51,702.33-138.25,41.06-284.67,9.73-426.71,16.33-1.09,0-2.18.06-3.28,0-279.54-9.21-562.28,8.74-840.12-12h0c-12.62-2.12-20.51-5.85-30.89-8.13-2.88-.63-4.45-1.3-7.29-2.08-1.7-.47-4.1-1.28-5.93-1.78-2-.54-4.13-1.32-6.09-2-233.68-79-234.2-406.34-74.48-558.55"/><path class="cls-2" d="M454.35,502.75c-2.51,4.72-7.33,3.89-11.45,4.75Z"/></svg>