<svg id="Layer_1" data-name="Layer 1" xmlns="http://www.w3.org/2000/svg" xmlns:xlink="http://www.w3.org/1999/xlink" viewBox="0 0 1427.85 900"><defs><style>.cls-1{fill:url(#linear-gradient);}.cls-2{fill:#eaf1f8;}.cls-3{fill:#e7eef5;}</style><linearGradient id="linear-gradient" x1="713.87" x2="713.87" y2="900" gradientUnits="userSpaceOnUse"><stop offset="0" stop-color="#fff"/><stop offset="1" stop-color="#d6e4f5"/></linearGradient></defs><rect class="cls-1" width="1427.73" height="900"/><path class="cls-2" d="M566.42,331.57C641.64,272,695.9,329,772.89,329c.64,0,1.28,0,1.91-.09,76.05-7.11,137-60.92,204.76-91.3.33-.14.66-.3,1-.46,84.92-44.4,191.1-34.35,257.19,38.07h0c97.58,85.6,119.2,286.29-33.49,324.47-63.87,19-131.52,4.49-197.14,7.54-.5,0-1,0-1.51,0-129.14-4.25-259.77,4-388.12-5.54h0c-5.83-1-9.48-2.7-14.27-3.76-1.33-.29-2.06-.6-3.37-1-.79-.22-1.9-.59-2.74-.82s-1.91-.61-2.81-.93c-108-36.49-108.2-187.72-34.41-258"/><path class="cls-3" d="M.12,0V236.46C24.25,168.1,32,90.58,79.79,33.85c.42-.5.86-1,1.33-1.45,13.67-13.47,28.77-23.51,44-32.4Z"/><path class="cls-3" d="M1427.85,0H683.23a219.16,219.16,0,0,0,26.65,51.17C759.67,140.81,865.3,176.65,962.42,152l1.11-.23c76.31-14.56,151.27-54.62,230.38-43.51.66.09,1.32.21,2,.36,78.35,18.55,119.81,89.66,210.73,47.16l8-4.1a153,153,0,0,0,13.23-8.7Z"/></svg>