<?xml version="1.0" standalone="no"?>
<!DOCTYPE svg PUBLIC "-//W3C//DTD SVG 20010904//EN"
 "http://www.w3.org/TR/2001/REC-SVG-20010904/DTD/svg10.dtd">
<svg version="1.0" xmlns="http://www.w3.org/2000/svg"
 width="5693.000000pt" height="5692.000000pt" viewBox="0 0 5693.000000 5692.000000"
 preserveAspectRatio="xMidYMid meet">

<g transform="translate(0.000000,5692.000000) scale(0.100000,-0.100000)"
fill="#000000" stroke="none">
<path d="M28490 54008 l0 -2916 248 -6 c660 -16 1103 -36 1547 -71 2231 -176
4415 -683 6505 -1510 4257 -1683 7933 -4656 10495 -8485 1107 -1655 1976
-3417 2620 -5313 64 -186 81 -227 94 -222 3187 1035 5525 1796 5528 1798 5 6
-197 599 -307 902 -2650 7275 -8159 13170 -15245 16312 -3476 1542 -7196 2354
-11077 2419 l-408 7 0 -2915z"/>
<path d="M33613 33340 c-280 -21 -551 -73 -786 -151 -751 -249 -1264 -754
-1506 -1484 -115 -348 -151 -622 -151 -1152 l0 -293 -510 0 -511 0 3 -437 3
-438 29 -62 c51 -111 171 -200 337 -251 36 -11 185 -41 330 -66 145 -26 276
-49 292 -52 l27 -6 0 -2844 0 -2844 940 0 940 0 0 2845 0 2845 845 0 845 0 0
655 0 655 -875 0 -875 0 0 293 c0 193 5 334 15 417 59 510 286 813 690 923
118 32 243 48 445 58 226 10 286 19 404 56 67 21 87 33 130 76 82 82 83 92
106 591 11 237 20 459 20 493 l0 61 -112 27 c-133 31 -296 59 -428 74 -133 16
-501 21 -647 11z"/>
<path d="M14175 31909 c-825 -699 -1511 -1281 -1524 -1294 l-23 -23 301 -404
c165 -223 321 -424 346 -447 180 -166 453 -204 672 -92 84 42 79 39 777 619
352 293 641 530 643 528 2 -2 -2 -73 -8 -157 -9 -113 -13 -931 -16 -3071 l-4
-2918 -979 0 -980 0 0 -695 0 -695 2780 0 2780 0 -2 693 -3 692 -857 3 -858 2
0 4265 0 4265 -772 0 -773 0 -1500 -1271z"/>
<path d="M39146 33153 c-12 -44 -829 -4853 -825 -4858 3 -2 265 -77 582 -166
l577 -162 138 46 c818 275 1688 282 2210 18 116 -59 248 -155 343 -250 300
-300 433 -701 416 -1256 -29 -938 -471 -1574 -1225 -1763 -182 -46 -283 -57
-532 -56 -338 1 -539 36 -803 140 -201 80 -354 159 -657 341 -163 97 -292 168
-335 182 -84 29 -251 39 -338 21 -80 -16 -187 -72 -252 -131 -33 -31 -178
-218 -366 -475 l-311 -424 54 -49 c457 -418 1010 -745 1583 -936 503 -169 950
-237 1460 -221 447 13 836 77 1214 201 991 324 1727 987 2119 1910 164 386
247 762 272 1240 34 619 -89 1225 -349 1721 -188 358 -475 686 -806 920 -346
245 -778 427 -1216 513 -302 58 -396 66 -829 66 -439 0 -564 -9 -925 -70 -110
-18 -201 -32 -202 -31 -2 2 300 1775 313 1838 l5 27 1407 4 c1270 3 1415 5
1492 20 385 77 620 252 709 531 46 143 51 211 51 687 l0 439 -2484 0 c-2358 0
-2485 -1 -2490 -17z"/>
<path d="M26115 30403 c-417 -32 -710 -88 -1023 -192 -1182 -395 -1964 -1344
-2181 -2646 -45 -266 -55 -414 -55 -775 0 -371 10 -508 60 -800 108 -641 369
-1225 749 -1678 107 -127 325 -338 445 -431 533 -414 1181 -652 1929 -711 171
-13 530 -13 697 0 760 60 1392 293 1934 713 140 109 394 365 503 506 516 670
771 1535 744 2526 -38 1355 -580 2394 -1560 2987 -568 343 -1233 512 -1994
506 -114 -1 -226 -3 -248 -5z m605 -1438 c470 -84 785 -322 995 -750 165 -337
246 -742 261 -1305 13 -500 -41 -952 -155 -1300 -200 -605 -567 -933 -1139
-1019 -203 -31 -485 -23 -690 19 -732 151 -1116 740 -1192 1830 -13 186 -13
504 0 690 69 986 401 1568 1013 1773 93 32 245 65 352 77 121 13 444 5 555
-15z"/>
</g>
</svg>
