<svg id="Layer_1" data-name="Layer 1" xmlns="http://www.w3.org/2000/svg" viewBox="0 0 1366 1366"><defs><style>.cls-1{fill:#fff;}.cls-2{fill:#d49a74;}.cls-3{fill:#d7c7ad;}.cls-4{fill:#cca96f;}.cls-5{fill:#fef2df;}.cls-6{fill:#358678;}.cls-7{fill:#bc5e2c;}.cls-8{fill:#d4e3f2;}.cls-9{fill:#51697e;}.cls-10{fill:#d4e3f3;}.cls-11{fill:#bea782;}.cls-12{fill:#93afcb;}.cls-13{fill:#5f7d9e;}.cls-14{fill:#d2e4f3;}.cls-15{fill:#af7048;}.cls-16{fill:#92aecb;}</style></defs><path class="cls-1" d="M840.59,1322.42q-58.2,0-116.4,0-82.11.1-164.21.33c-32.45.11-64.91.39-97.36.6a174.25,174.25,0,0,1-46-5.53c-6-1.57-12-2.77-17.9-4.83a78.51,78.51,0,0,1-19.95-10.3c-2.75-2-5.52-3.94-8.25-6A61.91,61.91,0,0,1,356.87,1283c-1.38-1.92-2.72-3.87-4.15-5.74a71.29,71.29,0,0,1-13-28.28c-1.46-6.61-3.32-13.14-4.47-19.83-.43-2.5-.57-2.63-3.13-2.68-11.06-.19-22.12-.43-33.19-.46-13.42,0-26.85.09-40.27.15a382.83,382.83,0,0,1-40.21-2,263.39,263.39,0,0,1-36.11-6.34c-10-2.44-20.06-4.72-29.84-8.06a208.22,208.22,0,0,1-52.24-26.48,22.33,22.33,0,0,0-9.18-4c-7.1-1.18-12.24-5.34-16.58-10.77-4-5-7.9-9.92-12-14.75q-11.2-13.14-21.12-27.27c-4.85-6.91-9.32-14.06-11.82-22.15-3-9.85-5.65-19.84-6.79-30.13a73.4,73.4,0,0,1-.38-8.39c.08-11.8.27-23.6.35-35.4Q23,993.7,23.14,957c.2-30.54.52-61.07.6-91.61s-.06-61.08-.14-91.61q-.15-59.54-.33-119.06c-.05-16.67-.21-33.35,0-50a475.29,475.29,0,0,1,3.93-56c2.28-17.42,6-34.53,10-51.61a411.67,411.67,0,0,1,21-65.11,490.79,490.79,0,0,1,39-73.78,17.07,17.07,0,0,0,3-11.53c-.72-7-1-14.11-1.09-21.2-.06-8.3.48-16.49,2.67-24.54,1-3.84,1.81-7.75,2.78-11.61a29.59,29.59,0,0,1,4.79-10.36c9.42-12.92,6.16-9.75,18.82-18.95a31.57,31.57,0,0,1,10.66-5.2c7.7-2,15.39-4,23.25-5.31a94.42,94.42,0,0,1,18.08-1c21.84.59,43.67.07,65.5.14,12.1,0,24.2-.15,36.29-.19q58-.24,116-.44h.44c3.57,0,3.28,0,3.78-3.29q3.41-22.06,7-44.1A508.19,508.19,0,0,1,421.21,144a118.22,118.22,0,0,1,19.46-39.89c1.69-2.23,3.25-4.56,4.93-6.81A88.68,88.68,0,0,1,458.77,83c17.6-15.13,37.34-26.18,60.07-31.53,11.47-2.69,22.86-5.76,34.52-7.54,7.28-1.12,14.57-2.21,21.88-3.13,9.37-1.18,18.74-2.23,28.13-3.23,7.33-.78,14.68-1.41,22-2.08q13.44-1.22,26.88-2.39c9.55-.83,19.1-1.66,28.65-2.42a51,51,0,0,1,15.82,1.23c4.73,1.12,9.44,2.29,14.18,3.38a25.19,25.19,0,0,1,9.55,4.41c.24.17.49.33.73.51,10.67,7.61,10.65,7.63,18,18.47a30.17,30.17,0,0,1,4.39,10.07c1.14,4.72,2.36,9.43,3.38,14.18a60.3,60.3,0,0,1-.16,27.19c-1,4.3-2.1,8.59-3.11,12.89a21.75,21.75,0,0,1-3.25,7.21c-7.13,10.56-8.6,12-19.29,19.07a35.37,35.37,0,0,1-10.48,4.59c-12.09,3.23-24.18,6.52-36.55,8.51a106,106,0,0,1-12.32,1.24,313.86,313.86,0,0,0-32.53,3.47c-10.94,1.59-21.91,3-32.82,4.74-9.31,1.47-18.67,2.74-27.58,6.07a119.38,119.38,0,0,0-11.77,5,21.59,21.59,0,0,0-9.87,9.78A103.64,103.64,0,0,0,537.61,221c-1.84,10-3.41,20.05-5.07,30.08-.27,1.62-.23,1.82,1.32,2.18,8.8,2.06,15.38,7.88,22.3,13.11a16.24,16.24,0,0,1,3,3.23c2.38,3.18,4.69,6.43,7,9.68a23.33,23.33,0,0,1,3.7,8c1.81,7.44,3.95,14.81,5,22.42a52.2,52.2,0,0,1,.54,5.72,229.82,229.82,0,0,1-.51,24.76c-.24,2.94-.18,5.91-.47,8.84a8.28,8.28,0,0,0,1.67,5.74C584.51,367.2,592.54,379.92,600,393c12.94,22.54,24.1,45.89,32.38,70.58,4.13,12.31,7.29,24.87,10.29,37.48,2.69,11.33,5.08,22.72,6.76,34.25,1.33,9.19,2.31,18.44,2.87,27.71,1.13,18.72.95,37.45.57,56.19-.11,5.16-.25,10.32-.35,15.48-.5,25.08-1.45,50.14-2.46,75.2-.35,8.69-.7,17.39-1,26.09-.77,26.84-1.8,53.67-1.91,80.52a2.14,2.14,0,0,0,0,.44c.26,1.26-.87,2.94.3,3.7,1,.63,2.54.35,3.84.36q53.77.15,107.55.26,80.77.09,161.55.07,36.51,0,73-.15,89.85-.27,179.69-.58c15.49,0,31-.23,46.47-.29a168.8,168.8,0,0,1,44.24,5.21c5.12,1.36,10.3,2.5,15.39,4a73,73,0,0,1,22.88,11.24c14.53,10.5,15.08,11,25.45,25.43A64.19,64.19,0,0,1,1338,887.93c1.71,6.7,3.39,13.43,4.83,20.2a103.9,103.9,0,0,1,2,24.64c-.16,5.46-.12,10.91.09,16.37a143.81,143.81,0,0,1-1.28,24.71,36.67,36.67,0,0,0-.28,5.73c.49,23.89,1.39,47.78,1.35,71.68,0,25.23.15,50.46-.06,75.69-.15,18.73-.65,37.46-1.24,56.19a146.23,146.23,0,0,0,.74,20.29c1.36,12.85,1,25.62-2.09,38.23q-1.69,6.87-3.32,13.75a68.35,68.35,0,0,1-10.51,22.71,90.42,90.42,0,0,1-23.41,23.8,86.62,86.62,0,0,1-30.34,13.81c-7.89,1.81-15.71,3.93-23.71,5.28a158.37,158.37,0,0,1-26.88,2c-38.51-.06-77-.25-115.52-.37q-34.52-.09-69-.12-64.62-.09-129.24-.14Q875.34,1322.4,840.59,1322.42Z"/><path class="cls-2" d="M540.87,361.17c9.87,14.66,19.52,29.47,28.4,44.76a403.5,403.5,0,0,1,31.14,65.81,328,328,0,0,1,13.71,50.64c1.28,6.78,2.34,13.62,3.07,20.5s1.32,13.76,1.87,20.66c1,11.92.7,23.84.56,35.77-.82,1.92-2.58,2.77-4.25,3.69-40.29,22.2-82.64,38.09-128.75,43a213,213,0,0,1-80.92-7c-49.3-13.87-99.07-25.64-149.87-32.55-17.81-2.42-35.7-4-53.66-5.12-17.69-1.08-35.39-1.06-53-.51a462.76,462.76,0,0,0-70.69,7.61c-5.8,1.08-11.62,2-17.39,3.28-1.43.31-2.89.73-4.31-.07a217.39,217.39,0,0,1,.51-27.37c.08-.87.14-1.76.15-2.64a261.79,261.79,0,0,1,2.11-26.41,400.25,400.25,0,0,1,21.09-90,453,453,0,0,1,28.89-63c7-12.8,14.61-25.24,22.49-37.51.79-1.24,1.69-2.4,2.55-3.6,2.18-1.7,4.77-1.3,7.24-1.31q38,0,76.08,0,157,0,314,0C534.93,359.78,538.15,359,540.87,361.17Z"/><path class="cls-3" d="M56.75,611.64c3.44-1.36,7.11-1.79,10.7-2.5,7.91-1.55,15.85-2.95,23.8-4.29,3.17-.54,6.41-.7,9.61-1.12,3.49-.45,7-1,10.44-1.5a4.5,4.5,0,0,1,.87-.14c4.44.34,8.8-.67,13.16-1.13,5.74-.6,11.51-.2,17.16-1a107.73,107.73,0,0,1,13.65-.65c12.24-.06,24.49,0,36.73,0a30.35,30.35,0,0,1,6.14.54,37.07,37.07,0,0,0,6.6.31c3.09.07,6.2-.22,9.21.79a1,1,0,0,0,.43,0c4.89-.42,9.69.61,14.5,1.09,4.21.41,8.49.43,12.67,1.39,2.56.59,5.32,0,7.84,1,5.46,0,10.75,1.47,16.16,2,4.08.37,8.1,1.29,12.15,2,6.21,1.07,12.42,2.12,18.62,3.24,4.77.87,9.52,1.76,14.26,2.76,9.33,2,18.66,3.94,27.94,6.13q19.94,4.7,39.79,9.74c9,2.28,17.88,4.81,26.8,7.3a224.7,224.7,0,0,0,27,6,120.6,120.6,0,0,0,20.16,1.72,7.66,7.66,0,0,1,2.2.1c4.21,1.22,8.56,1,12.74.55,4.7-.52,9.43-.24,14.08-.81,10.76-1.32,21.49-2.75,32.15-4.9a337.89,337.89,0,0,0,44.9-12.83c7.35-2.58,14.46-5.81,21.67-8.79,10.23-4.23,19.9-9.61,29.8-14.52,3-1.5,5.93-3.26,8.89-4.91,0,1.77.12,3.53.12,5.3,0,10,.32,20.08-.23,30.07-.57,10.45-.17,20.93-.93,31.34-.56,7.66-.16,15.31-.77,22.93-.71,8.82-.25,17.69-1,26.46-.67,8-.08,15.93-.83,23.82-.9,9.57-.14,19.16-.89,28.69-1.21,15.46-.38,30.92-.78,46.38,0,1.57.49,3.27-.77,4.65-2.31-3-1.24-6.55-1.24-9.82,0-3.63-1.32-4.94-4.94-4.94-44,.07-87.91-.36-131.85.24-19.71.26-39.47,1.47-58.66,7.06-32.63,9.5-58.11,28.68-77.39,56.43-2.43,3.51-4.45,7.31-7.24,10.57a4.13,4.13,0,0,1-1.47.61c-10-.7-19.8-3-29.72-4.43-24.52-3.5-49.1-6.24-73.85-7.69-21.09-1.24-42.19-1.26-63.22-.47A465.13,465.13,0,0,0,64,881.24c-3.87,1-5.36,2.93-5.12,6.83a87.35,87.35,0,0,1,0,10.61c-.09,1.64.31,3.69-2,4.33-.05-6-.13-12.08-.13-18.12,0-17.68.07-35.37.07-53.06q0-107.88-.1-215.77C56.61,614.59,56.7,613.11,56.75,611.64Z"/><path class="cls-4" d="M612.93,854.16c15.48,0,31,.1,46.45.1q130.51.06,261,.07c62.68,0,125.36.11,188-.31q54.84-.37,109.69-.63a194,194,0,0,1,23.39,1.06c11.44,1.32,22.64,3.63,33.23,8.48,15.41,7.06,26.11,18.39,31.87,34.32a78.9,78.9,0,0,1,4.6,23.31c.06,1.47.16,3,.33,4.41a47.23,47.23,0,0,1,0,11,35.1,35.1,0,0,0,0,8.81,77.42,77.42,0,0,1,.13,15.89c-.4,5.28-1.06,10.54-1.61,15.81-1.53.78-3.17.55-4.78.55-118.71,0-237.43.78-356.13-.21-140.53-1.18-281-.12-421.57-.69a36.5,36.5,0,0,1-6.61-.36,23,23,0,0,0-7.43-.73H377.89c-1.47,0-2.95-.07-4.42,0-3.61.16-5.24-1.46-5.68-5.12-2.13-17.92-.4-35.57,3.38-53.09a86.51,86.51,0,0,1,4.05-14.45,6.87,6.87,0,0,0-.8-7,1.62,1.62,0,0,1,1.1-2.11c4.3-1.45,6.27-5.08,8.46-8.6,9.87-15.84,24.76-24.44,42.4-28.82a138.82,138.82,0,0,1,33.32-3.71c15.63,0,31.28-.56,46.88.1,33.61,1.41,67.22.38,100.82.78C609.32,853,611.24,853,612.93,854.16Z"/><path class="cls-5" d="M1311.11,1035.82q0,46,0,91.92c0,2-.2,4.12.64,6.11a5.79,5.79,0,0,1,.23,2.18c0,3.68,0,7.36,0,11a2.66,2.66,0,0,1-.73,2c-2.36-2.46-1.4-5.57-1.57-8.42-.28-4.52-.64-5-5.22-5.13-1.63-.06-3.25,0-4.87,0-67,0-134,.52-200.93-.11-187.34-1.74-374.69-.21-562-.78a38.79,38.79,0,0,1-7.06-.38c-2.42-.82-4.94-.71-7.44-.71q-73.24,0-146.47-.07c-2.32,0-5.55,1.42-6.66-2.4-.34-9.94-.69-19.89.07-29.84,1.23-4.9.51-9.89.58-14.83.1-6.57.15-13.15-.06-19.72s-1.06-13.18-1.68-19.77c-.72-7.63.38-8.81,8-8.82h85.61a21.42,21.42,0,0,0,7-.7,49.15,49.15,0,0,1,8.83-.38c69.78,0,139.57.75,209.34-.2,84.08-1.15,168.16.43,252.23-.88,72.72-1.13,145.44.13,218.15-.8,48.67-.62,97.34-.78,146-.76C1305.79,1034.36,1308.7,1033.8,1311.11,1035.82Z"/><path class="cls-4" d="M1309.91,1194.44a143.85,143.85,0,0,1,1.83,23.32c-.15,10-1.33,19.94-4.77,29.52a55.33,55.33,0,0,1-25.63,30.41c-8.68,4.93-18.09,7.78-27.87,9.54a190.79,190.79,0,0,1-34.76,2.63c-35.4-.14-70.81.18-106.2-.3-57.08-.76-114.16-.36-171.24-.51S827.1,1289,770,1289c-59.44,0-118.89-.23-178.34.32-42.62.39-85.24.25-127.86.59-3.39,0-6.79,0-10.18-.05a135.5,135.5,0,0,1-36.57-5.5c-10.55-3.21-20.25-8.14-28.46-15.62a60.51,60.51,0,0,1-15.87-23.67,83.51,83.51,0,0,1-5.47-27.61c0-1.61-.24-3.23-.33-4.84a24.16,24.16,0,0,1-.12-4.41c.62-4.55.4-9.14.75-13.69a1.55,1.55,0,0,1,1.64-.2c2.48,1.21,5.15,1.14,7.81,1.14,70.2,0,140.41.68,210.6-.15,128.59-1.51,257.19.42,385.77-.91,109.87-1.14,219.73-.17,329.59-.69C1305.29,1193.7,1307.7,1193.24,1309.91,1194.44Z"/><path class="cls-6" d="M1309.91,1194.44c-1.52.76-3.17.56-4.78.56q-27,.06-54,.08l-238.11.22c-7.68,0-15.35-.15-23,.06-38.19,1.05-76.4.37-114.6.55s-76.71.11-115.07.15l-114.63.1c-13.43,0-26.86-.14-40.28.09-60.18,1-120.36.35-180.54.63-17.12.08-34.23,0-51.35.06-.73,0-1.47,0-2.21,0-1.78.08-2.69-.94-3.17-2.49-1.41-1.93-1.33-4.17-1.31-6.38.18-16.64-.59-33.3.87-49.92.42-4.79.75-5.4,4.89-5.4H526.92a6.09,6.09,0,0,1,2.61.3c11.8,0,23.6-.11,35.4-.11,14.16,0,28.33.07,42.49.09l178.8.15,149.14.13q55.77.06,111.53.16c12.1,0,24.19,0,36.29.07,62.55.5,125.09.3,187.64.41l35.41,0c1,0,2.06,0,3.09,0,1.48.07,1.89.43,1.91,1.81,0,2.07-.07,4.13-.06,6.2,0,2.35,0,4.71.08,7.06q-.48,14.76-1,29.51C1310.14,1183.87,1310,1189.16,1309.91,1194.44Z"/><path class="cls-7" d="M1311.11,1035.82c-38.79.09-77.59,0-116.39.33-43.81.42-87.62.36-131.43.53-38.06.14-76.12,0-114.18.34-61.8.58-123.61.4-185.42.64-20.35.08-40.71,0-61.07.23-67.11.7-134.23.43-201.35.7q-14.16.06-28.32.09c-1.48,0-2.95-.1-4.42-.15-1.27.59-2.62.33-3.93.33q-45.57,0-91.16,0c-5.11,0-5.64-.37-5.68-5.43q-.18-26.78,0-53.55c0-5.15.6-5.61,5.52-5.61q71.69,0,143.38,0c1.31,0,2.66-.27,3.92.34l413.67.17a25.55,25.55,0,0,1,5.71.46,23,23,0,0,0,4.84.22l239.36.11,120.34.06c1.89,0,3.86-.38,5.57.85,0,.15,0,.29,0,.44q.6,28.13,1.19,56.26A25.85,25.85,0,0,1,1311.11,1035.82Z"/><path class="cls-2" d="M56.77,903c.94-1,.71-2.19.72-3.35,0-4.43,0-8.85,0-13.28,0-.89,0-1.77,0-2.66.12-1.79.52-2.33,2.26-2.78,4.55-1.18,9.08-2.44,13.67-3.44,9.46-2,18.88-4.32,28.5-5.59,4.35-.58,8.65-1.6,13-2.34,2.6-.44,5.26-.62,7.87-.88,3.64-.37,7.24-1.44,11-1.13,4.41-1.37,9.11-.28,13.54-1.59a11.52,11.52,0,0,1,2.64-.14c3.67-.13,7.37.27,11-.78A11.28,11.28,0,0,1,164,865h55.33a20.86,20.86,0,0,1,5.26.54,20.57,20.57,0,0,0,4.39.29c3.52.15,7.09-.35,10.53.8a1.32,1.32,0,0,0,.44,0c5-.37,10,.67,15,1,4.38.29,8.74,1,13.1,1.49.59.07,1.17.16,1.76.19a184.85,184.85,0,0,1,19.62,2.48c3,.48,6.13.68,9.18,1.12,4.64.67,9.27,1.43,13.9,2.18,4.34.71,8.67,1.47,13,2.2l5.64,1c.35,1.47-.44,2.6-1.21,3.65-12.81,17.25-17.55,37.38-20.52,58.09-3.81,26.6-4.24,53.4-3.31,80.16.48,13.83.35,27.65.61,41.47,0,2.29.41,4.79-1.72,6.58-2.06,1.08-4.3.9-6.49.9q-117.76,0-235.53,0c-2.46,0-5.07.4-7.13-1.55,0-7.81-.09-15.62-.06-23.44.06-19.46-.17-38.93.32-58.39C56.79,958.14,56.35,930.58,56.77,903Z"/><path class="cls-8" d="M540.87,361.17c-4.72,0-9.44-.05-14.16-.05l-387.31,0c-1.62,0-3.24-.06-4.86-.09-.85-4.35-.42-8.84-1.06-13.15s-.53-8.8-.7-13.2a43.67,43.67,0,0,0-.57-6.12,24.18,24.18,0,0,1,.11-9.66,15.06,15.06,0,0,0,.45-3.93,38.2,38.2,0,0,1,2.74-14.65,22.9,22.9,0,0,1,10.89-12.82,44.65,44.65,0,0,1,12-4.23c3.17-.68,6.48-.5,9.6-1.08,5.45-1,10.87-.46,16.3-.68a8.15,8.15,0,0,1,2.21,0c6,1.45,12,.64,18.05.75,4.11.07,8.23.39,12.31-.7a17.51,17.51,0,0,1,4.41-.09l201.4-.05c1.33,0,2.66,0,4,0a2.33,2.33,0,0,0,1.88-1c2.05-1.59,4.47-1.23,6.79-1.23,16.76,0,33.52-.06,50.27,0,3.57,0,7-.09,10-2.31.07.73.12,1.46.21,2.19a1.48,1.48,0,0,0,1.42,1.41c.88.08,1.76.09,2.64.1,2.2,0,4.41-.15,6.54.69a5,5,0,0,0,1.74.16,46.4,46.4,0,0,1,17.45,3.95c7.59,3.13,12.15,8.93,14.41,16.7a54.78,54.78,0,0,1,1.89,12.1c.22,3.64.81,7.27.7,10.94a10,10,0,0,1-.1,2.64c-1.08,3.45-.66,7-.76,10.5-.09,3.07.23,6.16-.74,9.18a10.77,10.77,0,0,0-.13,3.07C540.9,354.11,540.89,357.64,540.87,361.17Z"/><path class="cls-9" d="M495.66,277a4.77,4.77,0,0,0-.8,2.48,1.39,1.39,0,0,1-1.51,1.25c-.88,0-1.76,0-2.64,0q-28.87,0-57.74,0c-1.46,0-2.93-.14-4.39-.21,2.46-10.33,4.27-20.78,6-31.25,2.7-16.28,5.28-32.58,7.85-48.88,1.79-11.36,3.76-22.68,6.42-33.87a136.06,136.06,0,0,1,12.65-33.86c10.85-19.93,27-34,47.68-43.07A173.69,173.69,0,0,1,549,77.91c13.21-2.35,26.52-4,39.84-5.49q17.58-2,35.21-3.51c11.6-1,23.19-2.13,34.79-3.2,6.31-.58,12.62-1.24,18.94-1.72a63.12,63.12,0,0,1,16.75.64c9.57,1.85,16,7.28,18.77,16.65a53.49,53.49,0,0,1,.93,26.27A19,19,0,0,1,703,121.49a67.51,67.51,0,0,1-11.7,4c-6.84,1.76-13.68,3.62-20.77,4.18-4.85.38-9.69.94-14.55,1.16-9.89.45-19.63,2.12-29.41,3.44-9.06,1.22-18.11,2.47-27.14,3.89-14.84,2.34-29.66,4.84-44,9.62a97,97,0,0,0-11.88,4.8,56.5,56.5,0,0,0-26.52,26.29,115.42,115.42,0,0,0-7.95,21.53A334.27,334.27,0,0,0,502,234.55c-2.05,12.65-4,25.33-5.92,38C495.82,274,495.78,275.48,495.66,277Z"/><path class="cls-10" d="M55.84,1067.54c1.47,0,2.94,0,4.41,0l239.93.06c1.77,0,3.53-.09,5.3-.14l.56.66a8.24,8.24,0,0,1,.61,3.89q0,27.63,0,55.24a9.2,9.2,0,0,1-.48,3.49,2.85,2.85,0,0,1-1.17,1.26c-2.1,1-4.33.77-6.53.77-52.9,0-105.81.49-158.69-.27-17.19-.24-34.47.58-51.63-1.49a3.12,3.12,0,0,0-1.28.26c-2.38-2.76-4.87-5.43-7.09-8.31-4.19-5.45-8.63-10.72-12.29-16.57a75.49,75.49,0,0,1-11-27.53A64.82,64.82,0,0,1,55.84,1067.54Z"/><path class="cls-11" d="M612.93,854.16c-1.62.05-3.24.13-4.86.14H521.39a17.63,17.63,0,0,1-6.11-.65,11,11,0,0,0-3.51-.21H454.29a14.51,14.51,0,0,0-4.81.47,8.42,8.42,0,0,1-3,.38c-5.94-.24-11.63,1.22-17.38,2.33A73.09,73.09,0,0,0,408,864.13a59,59,0,0,0-17.29,13.49,57.05,57.05,0,0,0-8.15,12,6.67,6.67,0,0,1-4.5,3.82c-1.21.35-2.69.35-3.57,1.56-3.19,1.34-5.6-.88-8.15-2-8.88-3.78-17.52-8.09-26.56-11.5-2.66-1-5.91-.75-7.83-3.45a13.43,13.43,0,0,1,1.16-2.84c3.94-5.66,7.47-11.61,12-16.89,3.92-4.57,7.55-9.41,11.95-13.54a173.55,173.55,0,0,1,17.27-14.37,130.78,130.78,0,0,1,22.55-13,135.65,135.65,0,0,1,28.4-9.36c6.18-1.28,12.43-2,18.61-3.26a19.72,19.72,0,0,1,3.53-.14,19.63,19.63,0,0,0,5.69-.61,11.94,11.94,0,0,1,3.5-.25c3.1,0,6.2,0,9.3,0a22.46,22.46,0,0,0,5.69-.54,18.87,18.87,0,0,1,4.83-.29H602.07c2.95,0,5.9,0,8.85,0,2.16,0,2.53.42,2.56,2.66.06,4.42,0,8.85.07,13.27,0,4,0,7.93-.16,11.9-.17,6.16-.44,12.31-.62,18.47C612.73,850.93,612.87,852.55,612.93,854.16Z"/><path class="cls-12" d="M86.87,1131.32c.1-.56.1-1.23.81-1.42a7,7,0,0,1,3.92.06,17,17,0,0,0,5.25.49c8.84,0,17.69,0,26.53.13,3.67,0,7.36-.31,11,.67a10.61,10.61,0,0,0,2.65.07l167.54.15.88,0a3.29,3.29,0,0,1,.94,1.43,308.82,308.82,0,0,1,1.37,34.28c-.12,6.46,0,12.93,0,19.39,0,2,.2,4.16-1.32,5.86-5.6.09-11.22-.13-16.79.32-11.34.91-22.69.66-34,.38-7.8-.19-15.63-.18-23.4-.84-9.21-.77-18.42-1.68-27.59-3.12a228.82,228.82,0,0,1-36.42-8.73,201.19,201.19,0,0,1-44.23-20.93c-3.86-2.44-7.7-4.9-11.4-7.59-1.42-1-3-1.9-4.46-2.84-5.8-2.72-10.37-7.07-14.89-11.44-.94-.9-1.78-1.92-2.82-2.74h0a2.53,2.53,0,0,1-.88-.87h0a2.64,2.64,0,0,1-.88-.91Z"/><path class="cls-13" d="M306.38,1192.4q-.06-19.65-.13-39.3a36,36,0,0,0-.6-8.77,23.16,23.16,0,0,1-.16-5.28c0-2.2,0-4.41,0-6.62,2.21-2.13,5.08-2.41,7.85-2.34,17,.42,33.87-1.37,50.82-1,2,0,4.17-.21,5.85,1.39-.17.85-.58,1.83.91,1.83q6.4,0,12.82.06l101.68.1q19.89,0,39.79.06c1.45,0,3-.33,4.32.48-1.91.06-3.82.19-5.73.19l-148.46,0c-1.47,0-2.95,0-4.42.07a1.62,1.62,0,0,0-1.71,1.65c-.07,1.17,0,2.35-.07,3.53-.07,2.78.18,5.56-.67,8.32a13.64,13.64,0,0,0-.16,4q0,19.44-.07,38.89c0,1.62-.06,3.24-.09,4.86h-.31l-.29.08a22.83,22.83,0,0,0-2.6-.34c-11.89-.3-23.79-.62-35.69-.85C321.63,1193.18,314,1193.07,306.38,1192.4Z"/><path class="cls-14" d="M90.36,1134.87a4.56,4.56,0,0,1,1.61.63c5,4.8,10.64,8.71,15.87,13.18a1.93,1.93,0,0,1,.23.37,22.58,22.58,0,0,1-3.49,0c-2.62-.39-4.94-1.11-6.5-3.71C95.84,1141.62,92.44,1138.73,90.36,1134.87Z"/><path class="cls-14" d="M88.59,1133.08c.3.3.59.61.88.91A1.13,1.13,0,0,1,88.59,1133.08Z"/><path class="cls-14" d="M89.48,1134l.88.87A1.07,1.07,0,0,1,89.48,1134Z"/><path class="cls-15" d="M331.92,878.08c9.36,2.23,18,6.33,26.71,10.27,5.21,2.35,10.27,5.1,15.83,6.65,4.1,1.89,4.29,2.26,2.68,6.17-2.48,6-3.88,12.34-5.24,18.66a142.28,142.28,0,0,0-2.58,15.61c-.89,8.64-1.65,17.32-.93,26,.3,3.5.85,7,.85,10.52,0,1.3.55,1.75,2,1.82s2.95.05,4.43.05q69.92,0,139.83.07c1.71,0,3.56-.58,5.1.73-1.91,0-3.83.08-5.75.08q-69.69,0-139.37,0c-7,0-6.28-.67-6.29,6.5,0,17.4,0,34.81,0,52.21,0,5.25-.14,5,5.12,5l88.94,0c1.76,0,3.53.09,5.3.14-1.67.87-3.47.49-5.21.49q-44.44.18-88.87.28c-.89,0-1.77,0-2.65,0-2.24.08-2.48.29-2.53,2.62a67,67,0,0,0,.34,7.49c.51,5.86,1.65,11.69,1,17.61-1.2,2-3.21,1.83-5.09,1.84q-27.72.07-55.44,0c-1.6,0-3.26.09-4.55-1.18l-.09-.2q0-19.23-.1-38.47a19.06,19.06,0,0,0-.5-5.25,14.83,14.83,0,0,1-.29-3.95q0-19,0-38a16.7,16.7,0,0,1,.47-4.81,15.62,15.62,0,0,0,.33-3.5c.21-5-.43-10,.85-14.94a7,7,0,0,0,.06-1.77c0-5,1-9.9,1.55-14.85.64-5.85,1.77-11.59,2.91-17.34,2.42-12.18,6.2-23.91,12.38-34.74a84.37,84.37,0,0,1,8-11.61Z"/><path class="cls-16" d="M370,1130.51c-8.21,0-16.48-.5-24.64.2-10.84.92-21.67.38-32.49.78-2.47.1-4.93.61-7.39.94l-.06-1,0,0c.79-1.53.4-3.18.4-4.78,0-18.11.1-36.22-.05-54.34,0-3.22.72-4.27,4.12-4.24,18.85.17,37.7.14,56.55,0,2.92,0,4.2.55,4.06,3.82-.42,9.84.43,19.7-.45,29.53,0,7.86.08,15.72,0,23.59C370.08,1126.83,370.71,1128.69,370,1130.51Z"/><path class="cls-12" d="M370.09,1101.41q0-14.16,0-28.33c0-4.49,0-4.53-4.28-4.53H310.45a23.39,23.39,0,0,0-2.65.12,1.51,1.51,0,0,0-1.39,1.47c-.09,1.32-.1,2.65-.1,4q0,26.33,0,52.66c0,1.56.56,3.28-.83,4.61q0-29.62,0-59.26c0-1.47,0-3,.07-4.42l43.17,0q8.81,0,17.62,0c1.45,0,2.95.16,4.29-.63.1,5.1.24,10.2.27,15.3s0,10.2-.11,15.3C370.79,1098.93,371.06,1100.29,370.09,1101.41Z"/></svg>