<svg id="Layer_1" data-name="Layer 1" xmlns="http://www.w3.org/2000/svg" viewBox="0 0 1366 1366"><defs><style>.cls-1{fill:#fff;}.cls-2{fill:#654d37;}.cls-3{fill:#d7a885;}.cls-4{fill:#acc3dd;}.cls-5{fill:#8eacc8;}.cls-6{fill:#553f2a;}.cls-7{fill:#7e6b58;}.cls-8{fill:#c2744d;}.cls-9{fill:#69503a;}.cls-10{fill:#685039;}.cls-11{fill:#fdfdfd;}.cls-12{fill:#98b3cf;}.cls-13{fill:#fcfdfd;}</style></defs><path class="cls-1" d="M278.53,801.51a51.52,51.52,0,0,0-15.27,9.31,34.57,34.57,0,0,0-9.58,13.68,27.91,27.91,0,0,0-1.76,7c-1.09,9.31-.38,18.55.8,27.78.39,3,.93,6,1.15,9.05a55.31,55.31,0,0,1-1.48,18.12c-1.3,5-2.41,10.06-3.6,15.09a54.9,54.9,0,0,1-8.35,18.62c-2.93,4.27-6,8.45-9.07,12.6a61,61,0,0,1-9.7,10.29A172.09,172.09,0,0,1,196.38,961a96.74,96.74,0,0,1-22.28,9.25c-9.52,2.6-19.12,5-28.85,6.72-14.42,2.57-28.76,2.51-43-1.11-4.86-1.23-9.76-2.33-14.63-3.53a76.29,76.29,0,0,1-25.93-12c-2.85-2-5.66-4.11-8.52-6.13A84.13,84.13,0,0,1,33.81,935c-1.53-2.08-3-4.22-4.55-6.28A107.31,107.31,0,0,1,10.58,888.4c-1.5-6.37-3-12.72-4.41-19.11a88.59,88.59,0,0,1,.36-39.84C7.67,824.72,8.85,820,10,815.26a76.08,76.08,0,0,1,11.68-26.07c2.69-3.88,5.46-7.7,8.27-11.48a88,88,0,0,1,18.09-18q6.21-4.65,12.59-9.07c11-7.63,23.07-12.88,35.74-16.9,11-3.5,22.26-6.17,33.41-9.17,10.14-2.73,20.19-5.68,29.85-9.85a98.66,98.66,0,0,0,20.59-11.65c5.59-4.21,11.38-8.15,17.13-12.14a72.05,72.05,0,0,0,9.12-7.58A4.28,4.28,0,0,0,208,681.2a151.13,151.13,0,0,0-49.94-36.89,195.46,195.46,0,0,0-29-10.85c-5.7-1.58-11.57-2.58-17.34-3.92-8.88-2.08-17.79-4-26.36-7.23a115.3,115.3,0,0,1-27-14.22c-6.42-4.62-13-9-18.75-14.53-1.42-1.37-2.86-2.74-4.19-4.21a159.63,159.63,0,0,1-18.34-25,76.71,76.71,0,0,1-8.84-22.88c-.78-3.41-1.55-6.83-2.43-10.21a80.86,80.86,0,0,1-.31-40.64c2.27-9.15,4.1-18.4,7.17-27.34a113.78,113.78,0,0,1,15.77-30.73c.18-.25.38-.48.55-.74,8.2-12.73,18.84-23,31.36-31.46,9.56-6.49,19.62-11.56,30.91-14.13,6.81-1.55,13.59-3.31,20.45-4.64a105.39,105.39,0,0,1,32.73-.88c10.6,1.25,20.89,4.07,31.13,6.93a72.76,72.76,0,0,1,22.43,11c2.86,2,5.67,4.11,8.53,6.13a83.31,83.31,0,0,1,19.65,19.56c1.69,2.35,3.36,4.71,5.07,7a92.54,92.54,0,0,1,15.63,33.71c2,8.58,4.43,17.09,5.7,25.83a113.06,113.06,0,0,1,.86,27.32c-.56,5.76-1.33,11.49-1.93,17.24-.48,4.58-.47,4.65,3.43,6.92,15.66,9.09,31,18.72,46.26,28.45.51.32,1,.62,1.54,1a2.21,2.21,0,0,0,2.9-.22c3.79-2.81,7.55-5.65,11.41-8.37a9.05,9.05,0,0,0,2.78-4.07c4.87-10.64,9.78-21.27,14.59-31.95,11.13-24.66,21.89-49.5,33.63-73.89,11.82-24.55,24.52-48.62,39.38-71.49,20.22-31.12,43.06-60.13,69.79-86a412.55,412.55,0,0,1,36.19-31.43c17.9-13.69,36.29-26.67,55.91-37.83a421.78,421.78,0,0,1,104.63-42c15.17-3.88,30.4-7.52,45.79-10.45,10.91-2.07,21.87-3.77,32.89-5.21q23.33-3.06,46.83-4.13c16.12-.75,32.25-1.13,48.4-.72,12.48.32,25,.65,37.42,1.43a40.7,40.7,0,0,1,6.33.78c6.23,1.4,12.46,2.78,18.61,4.48A82.41,82.41,0,0,1,934,182.16c.5.33,1,.73,1.48,1.05a66.17,66.17,0,0,1,19.27,18.49,116.8,116.8,0,0,0,19.71,21.5,45.42,45.42,0,0,0,7.4,5.31,123.05,123.05,0,0,0,36.61,13.59c17.28,3.55,34.53,7.23,51.55,11.87a259.09,259.09,0,0,1,82.49,38.9c11.93,8.47,23.65,17.17,34.41,27.12a313.41,313.41,0,0,1,34.48,37.71,484.19,484.19,0,0,1,64.35,110.5c8.46,20.09,14.66,40.91,19.65,62.11,3.14,13.32,6.38,26.62,8.72,40.11,1.77,10.19,3.53,20.39,5,30.62,1.87,12.64,3.53,25.32,5.2,38,1.39,10.56,2.62,21.14,4,31.7,1,7.7,2.12,15.38,3.14,23.07q1.68,12.68,3.26,25.35,2,16.54,3.1,33.19c.41,6.53.88,13.06,1.36,19.59q1.24,16.85,2.52,33.7c.73,9.87,1.41,19.74,2.14,29.61.77,10.47,1.6,21,2.38,31.42.73,9.87,1.43,19.74,2.16,29.61.79,10.62,1.61,21.25,2.4,31.88.59,7.89,1.18,15.79,1.68,23.69a14.67,14.67,0,0,1-.5,4c-2.35,10.07-4.77,20.12-7.08,30.2a10.25,10.25,0,0,1-1.83,4.11q-1.53,2-2.92,4.09a23.44,23.44,0,0,1-5.34,5.55q-37,28.62-74,57.29-64,49.37-128,98.67-4.87,3.76-9.41,8a200.65,200.65,0,0,1-21.55,16.88,38,38,0,0,1-14.49,6.4c-4.17.83-8.3,1.87-12.43,2.9a24,24,0,0,1-11.74,0c-4.58-1.1-9.17-2.14-13.77-3.18a33.37,33.37,0,0,1-13.48-6.44,25,25,0,0,0-10.64-4.78c-27.5-5.89-55-12-82.43-18q-30.28-6.64-60.57-13.36a21.24,21.24,0,0,0-9.42,0c-10.1,2.22-20.21,4.34-30.32,6.5a134.1,134.1,0,0,1-46.29,1.77c-7.56-1-14.91-3-22.39-4.3a147,147,0,0,0-24.5-2.47,44.65,44.65,0,0,0-9,1.25c-26.55,5.24-53,11-79.43,16.76-29,6.34-57.92,12.66-87.05,18.22a26.54,26.54,0,0,1-11.76-.24c-4.42-1.13-8.89-2-13.33-3.09a31.22,31.22,0,0,1-6.76-2.65,102.67,102.67,0,0,1-14.22-9,44.22,44.22,0,0,1-7.87-6.91,22.93,22.93,0,0,0-3.83-3.22c-21.1-16-43-30.94-65-45.66-28.84-19.28-57.78-38.41-86.6-57.73-19.84-13.31-39.23-27.28-58.52-41.38a89.7,89.7,0,0,1-18.57-18.7,70.24,70.24,0,0,1-13.69-30c-1.25-6.72-3.32-13.27-3.66-20.17a82.76,82.76,0,0,1,0-9.58q1.69-24.62,3.38-49.22,1.86-28,3.66-56.05c.44-6.69.95-13.37,1.37-20A35.05,35.05,0,0,0,278.53,801.51Z"/><path class="cls-2" d="M346.87,582.13c10-20.69,19.21-41.73,28.57-62.71,11.34-25.42,22.79-50.8,35.65-75.5s27-48.71,43.87-71c34.9-46.21,76.7-84.79,126.87-114A419.34,419.34,0,0,1,687.5,215.69a495.83,495.83,0,0,1,55.87-11.21c14.32-2,28.68-3.5,43.11-4.58,23.41-1.75,46.84-2,70.28-1.4,10.5.25,21,1,31.47,1.53a28.85,28.85,0,0,1,7.14,1.45,87.37,87.37,0,0,1,23.29,11.36,28.56,28.56,0,0,1,7.45,7.3,174.89,174.89,0,0,0,12.77,16.08,111.39,111.39,0,0,0,54.53,34.18c10.55,3,21.26,5.24,32,7.4,18.51,3.73,36.78,8.26,54.45,15,38.51,14.78,71.44,37.68,99.37,67.91a351,351,0,0,1,44.32,60.2c14.7,24.95,27.6,50.78,37.53,78a416.75,416.75,0,0,1,16,57.52c3.87,18.47,6.92,37.08,9.35,55.79,1.83,14,3.61,28.07,5.47,42.1,2,14.63,4.06,29.23,5.94,43.87,1.49,11.62,2.73,23.27,4.08,34.91,1.41,12.26,1.85,24.59,2.76,36.88,1,14.12,2.19,28.23,3.24,42.34.77,10.17,1.43,20.35,2.18,30.52s1.59,20.33,2.35,30.5c.73,9.72,1.4,19.44,2.12,29.15q1.2,16.17,2.44,32.33c.38,5,.73,10,1.12,15a19,19,0,0,1-.55,6.32c-1.12,4.26-2.12,8.56-3,12.89a10.41,10.41,0,0,1-4.25,6.64c-24.62,18.94-49.13,38-73.72,57q-64,49.37-128,98.69c-4.45,3.44-8.61,7.27-12.85,11a114.66,114.66,0,0,1-9.6,7.73,41.33,41.33,0,0,1-8,4.41,23.7,23.7,0,0,1-19.07-.23,38.41,38.41,0,0,1-12.34-8.44c.84-3,3.37-4.64,5.43-6.58,8.39-7.89,15.6-16.65,20.26-27.27a80.44,80.44,0,0,0,6.53-40.48c-2.32-25.33-11.34-48.75-20.13-72.25a10.33,10.33,0,0,1-.54-1.74c3.23-11.25,6.54-22.48,8.84-34A480.54,480.54,0,0,0,1075,902.5c1.69-24.28,2.22-48.59,2.8-72.92.46-19.6,1.18-39.2,1.75-58.8,1.33-46.24-4.74-91.36-19.94-135.1a365.75,365.75,0,0,0-50.36-95.37c-12.19-16.75-24.69-33.26-39.54-47.78-8-7.87-17-14.26-28.73-15.68-7.84-.94-15.11,1-22.28,3.66-11.22,4.09-21.28,10.49-31.62,16.29q-46.4,26-93.11,51.46Q747.92,573.44,701.5,598q-31.05,16.47-62.27,32.64-28.4,14.65-56.78,29.36c-24.67,12.86-37,33.7-36.57,61.18,1.31,83.42.47,166.84.81,250.27.16,29.49-.53,59-1.07,88.44-.37,20.06-.16,40.12-.56,60.17a41.51,41.51,0,0,1-1,10c-.38,1.39-.46,3.15-2.59,3.15a17.18,17.18,0,0,1-1.55-.93c-28.58-21.53-58.16-41.63-88-61.42-30.42-20.21-61.07-40.07-91-61-10.84-7.6-21.56-15.38-32.29-23.13a65.72,65.72,0,0,1-13.26-12.49A51.37,51.37,0,0,1,305,949.71a94.81,94.81,0,0,1-.48-21c.36-5.61.94-11.22,1.33-16.83.76-11.09,1.44-22.18,2.18-33.26,1.08-16.1,2.22-32.19,3.26-48.29.78-12,1.41-24,2.17-36s1.58-23.69,2.33-35.54c.22-3.49.32-7,.47-10.49a7.3,7.3,0,0,1,3.42-6C347.59,722,375.35,701.42,403.19,681q30.54-22.43,61-45,82-60.32,163.91-120.87a140.11,140.11,0,0,0,18.46-16.28,29.76,29.76,0,0,0,4-5c3.63-6,2.87-10.85-2.66-15.27-8.52-6.83-18.6-10.21-29-12.67a120.13,120.13,0,0,0-28.5-3.14,152.81,152.81,0,0,0-43.14,6.61c-21.35,6.5-40.52,17.27-59.28,29-22.34,14-45,27.3-67.54,41-21.86,13.27-43.65,26.65-65.16,40.49a39.92,39.92,0,0,1-5.53,3.17C348.62,583.5,347.32,584,346.87,582.13Z"/><path class="cls-3" d="M545.46,970.29q0-29.46,0-58.91-.09-74.67-.22-149.34c0-10-.51-20.08-.72-30.11-.08-3.81-.08-7.61,0-11.42a84.83,84.83,0,0,1,4.57-25.93,58.2,58.2,0,0,1,18.86-26.38,98.17,98.17,0,0,1,17.65-11.29q19.95-10.12,39.8-20.43,21.07-10.9,42.08-21.94,24.45-12.85,48.83-25.81,24.76-13.18,49.46-26.53,26.09-14.12,52.1-28.37c20.38-11.24,40.64-22.69,61-33.9,10.26-5.65,20.25-11.79,30.78-16.95a86.82,86.82,0,0,1,17.06-6.35c11.43-2.87,21.95-.94,31.83,5.35,8.05,5.13,14.74,11.77,21,18.85,6.65,7.52,13,15.31,19.17,23.22q12.67,16.17,23.85,33.42a370.91,370.91,0,0,1,23.19,41.38A350.07,350.07,0,0,1,1067.3,656q4.5,16.27,7.6,32.84c1.36,7.31,2.06,14.74,3.21,22.09,1.27,8.12,1.62,16.32,2.36,24.49.49,5.29.3,10.65.42,16a57.7,57.7,0,0,0,.43,8.2,17.76,17.76,0,0,1,.07,4.55c-.85,8.35-.18,16.75-.81,25.08-.83,11-.38,21.92-1,32.84-.65,10.65-.2,21.31-.82,31.93-.52,9-.49,17.95-.92,26.91s-1,18.21-1.76,27.3c-.62,7.41-1.64,14.79-2.36,22.2s-1.8,14.47-3,21.65a293.69,293.69,0,0,1-10.09,42.07,33.48,33.48,0,0,1-1.69,3.72c-.48,2.09-2.14,3.3-3.6,4.57-31.19,27-63.25,52.83-98.75,74-21.71,13-44.15,24.45-68.7,31.25a32.73,32.73,0,0,1-8.86,1.47c-4.59.11-9,1.44-13.43,2.32-8.78,1.74-17.48,3.88-26.26,5.6a114.4,114.4,0,0,1-19.88,2.24c-7.6.14-15.22.27-22.74-1-6.58-1.12-13.11-2.54-19.66-3.79-6.26-1.21-12.5-2.52-18.91-2.6a27.6,27.6,0,0,1-3.62-.38,24.48,24.48,0,0,0-9,.24c-17.37-7-34.53-14.4-51.59-22.07a496.92,496.92,0,0,1-65.18-34.82,248.9,248.9,0,0,1-59.11-52.53c-.29-.32-.56-.66-.84-1-.14-.16-.27-.33-.42-.49-6.2-8.44-13-16.41-19.36-24.73A26.83,26.83,0,0,1,545.46,970.29Z"/><path class="cls-4" d="M346.87,582.13c.35.55.83,1,1.47.62,1.71-1,3.38-2.06,5.05-3.12C384,560,415.13,541.17,446.3,522.41c17.21-10.37,34.33-20.87,51.47-31.34,16.17-9.88,33.06-18.17,51.34-23.39a155.72,155.72,0,0,1,32.74-5.63,143,143,0,0,1,21.42.4c13,1.08,25.54,3.89,37.23,9.9a44.32,44.32,0,0,1,7.68,4.91,23.29,23.29,0,0,1,2.66,2.5c3.32,3.63,4.09,7.69,2,12.22a29.72,29.72,0,0,1-5.1,7.54,107,107,0,0,1-15.63,14q-26.4,19.59-52.84,39.14Q543.66,578.95,508,605.22l-87.5,64.44-75,55.22c-8.7,6.4-17.39,12.83-26.14,19.18a7.18,7.18,0,0,0-3.08,4.27c-.35-.59-.42-1.61-1.52-1.11-3.73,1.69-7.44,3.47-11.2,5.11q-12.31,5.38-24.69,10.68c-11.06,4.74-21.86,10-31.67,17-7.22,5.19-13.66,11.15-18.5,18.68a67.49,67.49,0,0,0-9.34,22.15,66.77,66.77,0,0,0-2,16.24c.08,3,0,6.09,0,9.13a99.31,99.31,0,0,0,1.65,17.2,45.89,45.89,0,0,1,.92,9.94,71.09,71.09,0,0,1-1.34,10.82,60.72,60.72,0,0,1-14.87,28.3c-10.06,11-22.25,18.67-36,24.09a112.47,112.47,0,0,1-21.44,6A74.24,74.24,0,0,1,135,944c-3.62.09-7.21.93-10.89.74-14.27-.76-28-3.6-40.54-10.79a76.53,76.53,0,0,1-13.91-10.27,91.55,91.55,0,0,1-18.18-23.27,115.64,115.64,0,0,1-9.37-23.71A95.65,95.65,0,0,1,38.58,857,81.13,81.13,0,0,1,39,839.27a93.17,93.17,0,0,1,5.53-20.6A75.47,75.47,0,0,1,54.88,801,69.67,69.67,0,0,1,63,791.77a111.48,111.48,0,0,1,22-16.07c11.23-6.24,23.24-10.53,35.61-13.84,10.12-2.71,20.29-5.24,30.34-8.15,10.37-3,20.68-6.25,30.35-11.16a113.75,113.75,0,0,0,19.14-12.3c4.27-3.4,8.91-6.35,13.43-9.42a107.35,107.35,0,0,0,19.56-16.34,35.67,35.67,0,0,0,8.78-18.16c1.14-6.23-.21-12-1.4-18-.21-1-.49-2.07-.74-3.1,1.17-1.44,2.93-1.59,4.53-1.83,17.47-2.67,30.08-13.06,40.94-26a200.2,200.2,0,0,0,13.87-19.18,51,51,0,0,0,2.93-6.11,5.38,5.38,0,0,0,3.85-.32c8.58-4.68,16.38-10.47,24.17-16.29,3.89-2.9,7.73-5.89,11.77-8.59A17,17,0,0,0,346.87,582.13Z"/><path class="cls-5" d="M302.41,612.14a3.2,3.2,0,0,1-.08,3.8c-2.7,4-5.31,8.09-8.08,12-2,2.84-4.3,5.46-6.31,8.29A83.19,83.19,0,0,1,273.84,651a55.58,55.58,0,0,1-27.91,13.25c-1.93.3-3.77,1.14-5.78,1-2.16-1.52-3.45-3.83-5.21-5.72a210.43,210.43,0,0,0-36.47-31.61,192.1,192.1,0,0,0-54-25.09c-8.77-2.54-17.72-4.2-26.61-6.15a123.54,123.54,0,0,1-29.2-10.18A110.66,110.66,0,0,1,67.07,572.2a87.21,87.21,0,0,1-21-26.15,76.1,76.1,0,0,1-7.87-24.63,78.86,78.86,0,0,1,2.09-32.5,131.18,131.18,0,0,1,10.49-27.66A94,94,0,0,1,68,437.82a80.66,80.66,0,0,1,35.77-20.18,83.78,83.78,0,0,1,18.85-3c3.33-.13,6.64-.76,10-.57,11.1.62,22,1.89,32.54,6,17.36,6.8,30.68,18.29,40.39,34.09,6.71,10.92,10.52,22.9,12.64,35.43,1.74,10.25,1.36,20.62.92,31-.15,3.32-1,6.6-1.31,9.92-.58,6.36-1.11,12.74.47,19.06a27.49,27.49,0,0,0,6.61,12.31,54.31,54.31,0,0,0,12.44,9.93c12.09,7,24.07,14.26,35.89,21.76Q287.83,602.79,302.41,612.14Z"/><path class="cls-6" d="M879,1109.11c3.14-1.6,6.65-2,10-2.95a227.46,227.46,0,0,0,31.55-11.88,372.1,372.1,0,0,0,42.82-23.37,630.62,630.62,0,0,0,59.22-42.63q17.79-14.29,34.85-29.44a17.08,17.08,0,0,1,1.48-1,2.94,2.94,0,0,1,1.57,1.57c.8,2.12,1.63,4.24,2.37,6.38,2.8,8,5.68,16,8.33,24.06a241.9,241.9,0,0,1,7.55,28.49c.67,3.35,1.61,6.8,1.16,10.34a4.09,4.09,0,0,0,.1,1.81c1.4,4.31,1.09,8.8.65,13.11-.55,5.37-.81,10.81-2.47,16.08a127.76,127.76,0,0,1-5.44,14.91c-2.62,5.73-6.57,10.54-9.93,15.75a13.39,13.39,0,0,1-1.86,2c-3.76,3.76-7.51,7.54-11.3,11.27a34.54,34.54,0,0,1-2.79,2.31c-6.54-1.37-13.08-2.7-19.61-4.13q-38.52-8.41-77-16.89Q916.11,1117.4,882,1110C881,1109.76,880,1109.41,879,1109.11Z"/><path class="cls-6" d="M570.11,1001.37a228.88,228.88,0,0,0,28.08,29.23,270.88,270.88,0,0,0,33.68,24.93A481.3,481.3,0,0,0,686,1084.75c18.85,8.85,38.11,16.74,57.2,25,1,.43,2.06.63,2.24,1.94-10.43,2.06-20.9,4-31.31,6.22q-55.75,11.9-111.48,24c-7.58,1.63-15.2,3.08-22.8,4.59-1,.21-2.12.25-3.17.37-.93.5-2.06,0-2.95.64l-.9,0c-2.34-1-3.06-3.27-4.11-5.27-17.91-34.06-20.31-69.88-11.88-106.86a210.85,210.85,0,0,1,9.22-31c.63-1.57.73-3.73,3.14-3.94l0,0A2.7,2.7,0,0,0,570.11,1001.37Z"/><path class="cls-7" d="M569.18,1000.44a69.88,69.88,0,0,0-5.07,13.07c-2.42,7.8-4.69,15.67-6.37,23.67q-1.4,6.64-2.48,13.37c-.63,3.89-.29,7.88-1.49,11.69a11.2,11.2,0,0,0-.13,3.18c0,4.71-.06,9.42,0,14.14a132.67,132.67,0,0,0,6.09,37.49c3.2,10.69,7.95,20.66,13.11,30.48a18.3,18.3,0,0,1-15.63-2.31,28.75,28.75,0,0,0-2.77-1.54,29.36,29.36,0,0,1-9.74-7.31c-1-1.14-2.1-2.14-3.16-3.2.31-.33.85-.64.88-1,.26-3.31,1.21-6.5,1.2-9.88-.08-17.62,0-35.24,0-52.86a22.5,22.5,0,0,1,.63-6.77,16.2,16.2,0,0,0,.22-4.53q0-26.21.06-52.41a19.75,19.75,0,0,1,.57-5.86,14.37,14.37,0,0,0,.28-4.06q.07-12.76.1-25.52c2.19,2.68,4.4,5.33,6.54,8q6.88,8.67,13.72,17.39C566.92,997.25,568,998.86,569.18,1000.44Z"/><path class="cls-7" d="M573.71,1147.5a2.6,2.6,0,0,1,2.95-.64A3.14,3.14,0,0,1,573.71,1147.5Z"/><path class="cls-8" d="M927.8,947.27a92.83,92.83,0,0,1-9.68,9.41,31.34,31.34,0,0,0-2.77,2.36c-4.87,4.82-10.19,9.11-15.49,13.41a236.32,236.32,0,0,1-24.43,17.48,177.52,177.52,0,0,1-28,14.25,110.66,110.66,0,0,1-21.41,6.08,92.78,92.78,0,0,1-14.93,1.31c-15.09.28-29.13-3.47-42.57-10a152.82,152.82,0,0,1-23.86-15c-7.11-5.28-13.37-11.48-19.58-17.73-5.25-5.28-10.61-10.47-15.27-16.31-.92-1.15-.74-1.8.7-2.27a8.26,8.26,0,0,1,2.62-.71c3.83.17,7.58-.71,11.29-1.25,4.36-.63,8.82-.16,13.09-1.44a8.54,8.54,0,0,1,2.27-.15c3.33-.11,6.66.08,10-.78,1.58-.41,3.33-.11,5-.17,3.49-.12,7,.26,10.43-.75a11.6,11.6,0,0,1,3.18-.12c6.4,0,12.79,0,19.19-.1,3.18,0,6.37.23,9.52-.67a11.56,11.56,0,0,1,3.18-.12h14.61a22.54,22.54,0,0,1,6.33.57,15,15,0,0,0,4.09.21c11.11,0,22.23.07,33.34.12a21.18,21.18,0,0,1,6.33.57,13.22,13.22,0,0,0,3.63.23c6.09,0,12.18,0,18.27.1,3.63,0,7.29-.29,10.88.71a13.79,13.79,0,0,0,3.64.11c7.61,0,15.23.05,22.84.1A5.45,5.45,0,0,1,927.8,947.27Z"/><path class="cls-9" d="M957.42,772.19c-10.69,0-19.83-1.94-28.31-6.49-10.7-5.74-17.45-14.6-19.79-26.49a47.57,47.57,0,0,1-.55-15.41c1-7.48,2.72-14.64,6.24-21.3,5.71-10.83,14.55-17.87,26.43-20.74A50,50,0,0,1,960,680.43c5.78.76,11.37,1.73,16.67,4.26a37.22,37.22,0,0,1,16.67,15.69,62,62,0,0,1,7.06,19.17c.23,1.2.6,2.37.75,3.57a23.81,23.81,0,0,1-.37,9,88.46,88.46,0,0,1-5.26,15.53c-4.48,9.73-11.19,17.34-21.3,21.54A39.7,39.7,0,0,1,957.42,772.19Z"/><path class="cls-10" d="M664.63,680.61a53.87,53.87,0,0,1,23.52,4.6c13.34,5.89,21.64,15.92,24.45,30.27a50.51,50.51,0,0,1-3.41,30.78A39.31,39.31,0,0,1,694,764c-7.47,4.72-15.67,7.08-24.39,8.28-5.62.78-10.87-.38-16.16-1.62a42.23,42.23,0,0,1-15.24-7,36.29,36.29,0,0,1-14-20.82,60.18,60.18,0,0,1-1.5-23c.75-5.77,1.71-11.43,4-16.76,5.06-11.53,13.78-18.62,26.08-21.41A55.66,55.66,0,0,1,664.63,680.61Z"/><path class="cls-7" d="M570.11,1001.37a1.11,1.11,0,0,1-.91-.9A1.11,1.11,0,0,1,570.11,1001.37Z"/><path class="cls-11" d="M90.46,858.29a59.08,59.08,0,0,1,3.09-21.18c4.06-12.3,12.73-19.67,25-22.91a50.88,50.88,0,0,1,16.65-1.83c8.74.63,17.09,2.42,24,8.54a34.27,34.27,0,0,1,6.69,7.94,47.66,47.66,0,0,1,5.65,16.25,7.23,7.23,0,0,1,.11,2.27c-.94,6.12-.89,12.38-2.68,18.4a39.13,39.13,0,0,1-8.65,15.84,33.2,33.2,0,0,1-15.5,9.14,42,42,0,0,1-11.6,2.09c-2.7,0-5.38.92-8.13.71-7.12-.54-14.25-1.15-20.62-4.8A25.08,25.08,0,0,1,93.26,876,39.76,39.76,0,0,1,90.46,858.29Z"/><path class="cls-12" d="M308.83,675.08c.79-2.91.95-6.54,4-9a18.6,18.6,0,0,0,1.95-1.92,8,8,0,0,1,6.5-2.7,22.77,22.77,0,0,0,2.74,0,7.39,7.39,0,0,1,5.75,2.29c1.42,1.37,2.88,2.72,4.19,4.19,1.74,2,3.92,3.33,5.86,5a1.55,1.55,0,0,1-.18,2.68c-6,3.88-11.41,8.54-18,11.48-2,.87-3.57.85-5.08-.36-3-2.38-5.79-4.92-7.21-8.64A7,7,0,0,1,308.83,675.08Z"/><path class="cls-13" d="M171.79,508.33a44.86,44.86,0,0,1-2.49,16.76c-3.53,10.25-10.52,16.92-20.81,20a54.07,54.07,0,0,1-24.33,1.55,47.73,47.73,0,0,1-11-2.74A34.64,34.64,0,0,1,93.4,523.57a62,62,0,0,1-3.69-27.33c.43-5.44,1.53-10.81,4.32-15.69a28,28,0,0,1,10.81-10.81A38.75,38.75,0,0,1,121,465.22,64.46,64.46,0,0,1,146.16,468c13.85,4.51,21.94,14.07,24.7,28.33A58.6,58.6,0,0,1,171.79,508.33Z"/></svg>