<svg id="Layer_1" data-name="Layer 1" xmlns="http://www.w3.org/2000/svg" viewBox="0 0 1366 1366"><defs><style>.cls-1{fill:#354a4a;}.cls-2{fill:#1a2d2d;}.cls-3{fill:#101f1f;}.cls-4{fill:#fff;}.cls-5{fill:#d7c7ad;}.cls-6{fill:#b4764e;}.cls-7{fill:#d49a74;}.cls-8{fill:#358576;}.cls-9{fill:#bd7d56;}.cls-10{fill:#2c5148;}</style></defs><path class="cls-1" d="M659.86,0H678a1,1,0,0,1-.41,1.42,38.89,38.89,0,0,1-17.34,0A1,1,0,0,1,659.86,0Z"/><path class="cls-2" d="M678,.8c0-.27,0-.53,0-.8h5.44c0,.29,0,.57,0,.86A3.72,3.72,0,0,1,678,.8Z"/><path class="cls-3" d="M659.86,0c0,.27,0,.54,0,.82a3,3,0,0,1-4.53,0c0-.28,0-.57,0-.85Z"/><path class="cls-4" d="M1278.43,1323.76c-.54-4.66-1-9.33-1.42-14q-1-10.61-2.09-21.22-1.23-12.18-2.47-24.37-1.07-10.61-2.12-21.21c-.78-7.67-1.58-15.34-2.35-23-.74-7.37-1.44-14.75-2.18-22.12q-1.62-16-3.25-32c-.74-7.37-1.44-14.74-2.18-22.11-1.09-10.84-2.21-21.66-3.29-32.49-.73-7.22-1.42-14.45-2.14-21.67-.8-8-1.63-15.94-2.43-23.92-.71-7.07-1.39-14.14-2.1-21.21-.8-8-1.63-15.94-2.43-23.92-.73-7.22-1.43-14.44-2.16-21.66-.77-7.67-1.57-15.34-2.34-23-.74-7.37-1.45-14.75-2.19-22.12-1.07-10.68-2.18-21.36-3.25-32-.74-7.37-1.44-14.75-2.18-22.12q-1.63-16.24-3.29-32.49c-.73-7.22-1.42-14.44-2.14-21.66-.8-8-1.63-16-2.43-23.92-.71-7.07-1.38-14.14-2.09-21.21q-1.22-12-2.44-23.92c-.73-7.22-1.43-14.44-2.16-21.66-.77-7.67-1.57-15.34-2.34-23-.74-7.37-1.44-14.74-2.18-22.11q-1.62-16-3.26-32c-.74-7.37-1.44-14.75-2.18-22.12-1.08-10.83-2.2-21.66-3.29-32.49-.72-7.22-1.41-14.45-2.14-21.67q-1.65-16.47-3.33-32.94c-.71-7.07-1.39-14.14-2.1-21.21q-1.66-16.7-3.37-33.4-1-10.38-2.06-20.76-1.68-16.7-3.38-33.39c-.71-7.07-1.4-14.15-2.11-21.22q-1.63-16.24-3.29-32.49c-.73-7.22-1.42-14.44-2.15-21.66-1.07-10.53-2.27-21-3.2-31.59a149.78,149.78,0,0,0-4.25-26.36,16.34,16.34,0,0,0-2.85-6.06c-.75-.95-1.46-1.93-2.12-2.95a23.13,23.13,0,0,0-5-5.14,27.1,27.1,0,0,0-13.84-6.19,11.92,11.92,0,0,1-1.77-.4,39.6,39.6,0,0,0-11.63-1.43q-70.34.09-140.68,0c-1.62,0-3.3.38-5.07-.45-.2-1.75-.46-3.54-.6-5.34-.67-8.44-2-16.81-3.41-25.15-1.57-8.93-3.8-17.72-5.82-26.55a296,296,0,0,0-16.79-51.63c-14-32.38-33.76-61-56.81-87.5A262.7,262.7,0,0,0,891.19,88c-12.08-11.29-25.28-21.14-38.77-30.63a290.1,290.1,0,0,0-82.68-40.47c-11.43-3.48-23.08-6.07-34.69-8.77a255,255,0,0,0-33.51-5.61q-9-.85-18.06-1.67A17.78,17.78,0,0,1,678,.8l-18.2,0a13,13,0,0,1-4.53,0c-3.17.3-6.33.66-9.5.88-8.75.61-17.43,1.85-26.08,3.28C609,6.77,598.43,9.45,587.85,12a291.93,291.93,0,0,0-71,26.89c-15.51,8.31-29.93,18.24-44,28.68a298.32,298.32,0,0,0-39.9,35.6C420.9,116,410.41,130,400.39,144.41a289.73,289.73,0,0,0-34.05,65.34c-5,13.49-8.62,27.34-12,41.31a331.7,331.7,0,0,0-8.5,50.46c-.2,2.48-.22,2.49-2.65,2.54-1.06,0-2.11,0-3.17,0q-69.66,0-139.32,0a27.19,27.19,0,0,0-5.42.33c-4,.81-7.94,1.81-11.9,2.81a9.62,9.62,0,0,0-3.33,1.33c-4.48,3.11-9,6.19-11.72,11.12-.44.79-1.08,1.46-1.55,2.23a7.36,7.36,0,0,0-1,2c-1.18,4.84-2.66,9.65-3.34,14.56-1.18,8.53-1.87,17.13-2.75,25.7-.74,7.22-1.44,14.45-2.18,21.67-1.08,10.52-2.19,21-3.27,31.58-.74,7.22-1.44,14.44-2.18,21.66q-1.62,15.8-3.26,31.58c-.74,7.22-1.44,14.44-2.18,21.66-1.08,10.53-2.19,21.05-3.26,31.58-.74,7.22-1.44,14.45-2.18,21.66-1.08,10.53-2.19,21.06-3.27,31.58-.74,7.22-1.44,14.45-2.18,21.67q-1.62,15.78-3.26,31.58c-.74,7.22-1.45,14.44-2.18,21.66-1.09,10.68-2.21,21.35-3.3,32-.72,7.07-1.42,14.14-2.14,21.21q-1.65,16-3.3,32c-.73,7.07-1.42,14.15-2.15,21.21-1.09,10.68-2.21,21.36-3.3,32-.72,7.07-1.42,14.14-2.14,21.21-1.09,10.68-2.21,21.35-3.3,32C110,850.89,109.3,858,108.58,865q-1.65,16-3.31,32c-.72,7.07-1.42,14.14-2.14,21.21-1.09,10.68-2.21,21.36-3.3,32-.73,7.07-1.42,14.15-2.14,21.22q-1.65,16-3.31,32c-.72,7.07-1.4,14.14-2.13,21.21-1.07,10.37-2.19,20.75-3.25,31.12s-2,20.47-3.06,30.69c-1.07,10.38-2.21,20.75-3.27,31.13-1,10.23-2,20.46-3,30.69-1.36,13.23-2.8,26.46-4.16,39.7-1.06,10.37-2,20.76-3.09,31.14-1.65,16.09-3.39,32.17-5,48.27s-3.06,32.52-5,48.73a50.1,50.1,0,0,0,1.21,19.7c1,3.69,2.16,7.16,4.67,10.15,1.84,2.18,3.36,4.57,5.81,6.28,6.19,4.31,6.13,4.4,13.37,6.13.88.21,1.81.28,2.66.56a36.8,36.8,0,0,0,11.63,1.42q566.81,0,1133.61,0a78.31,78.31,0,0,0,17.92-2.11,28.78,28.78,0,0,0,12.14-5.65,37.55,37.55,0,0,0,5.21-5,28.63,28.63,0,0,0,6.3-13.81,56,56,0,0,1,1.29-5.74A11.42,11.42,0,0,0,1278.43,1323.76ZM854.51,304.05c-1.36,0-2.72,0-4.08,0H669.84q-90.74,0-181.49,0c-1.63,0-3.62.71-4.83-.43s0-3.11.08-4.69c1.5-18.84,8.13-36.16,15.94-53.09a194.53,194.53,0,0,1,15.58-27.6c6.65-9.8,14.68-18.44,23-26.85,22.38-22.71,49.61-37.2,79.59-47.07,9.25-3,18.79-4.41,28.41-5.49a223.82,223.82,0,0,1,37.6-.8c10.42.6,20.84,1.58,30.93,4.31a210.46,210.46,0,0,1,63.45,29.34c8,5.44,15.18,12,22.13,18.74,2.18,2.11,4.27,4.29,6.39,6.45,19.07,19.49,31.75,42.83,41.19,68.15a138.33,138.33,0,0,1,7.91,32.49c.19,1.65.32,3.31.41,5C856.17,303.66,855.81,304,854.51,304.05Z"/><path class="cls-5" d="M352.22,1326c-1.66,0-3.32.11-5,.11H99.07c-3,.05-3.93,0-3.15-3.88.85-4.26.79-8.69,1.23-13,.46-4.64,1-9.27,1.58-13.9.36-3,.62-6,.84-9,.33-4.36,1.07-8.68,1.27-13s.92-8.68,1.41-13c.11-.9.23-1.8.28-2.7.27-5.12.91-10.19,1.65-15.26.46-3.13.56-6.31.83-9.45.38-4.35,1.07-8.67,1.28-13,.19-4,.89-8.07,1.37-12.11.07-.59.21-1.18.26-1.78.36-4.51.35-9.08,1.16-13.51s.62-8.7,1.42-13c.62-3.37.59-6.89,1.06-10.33.72-5.22,1.2-10.47,1.72-15.71.41-4.2.69-8.41,1.11-12.6.43-4.35,1-8.68,1.46-13,.07-.6.2-1.2.25-1.8.35-4.5.33-9.08,1.16-13.5.78-4.17.58-8.4,1.36-12.57.65-3.52.63-7.19,1.12-10.78.71-5.22,1.4-10.46,1.65-15.71.2-4.08.89-8.09,1.18-12.15.33-4.5,1-9,1.48-13.46.07-.6.17-1.2.22-1.8.36-4.5.34-9.08,1.16-13.5.77-4.17.64-8.4,1.36-12.57.62-3.53.67-7.19,1.13-10.78.67-5.22,1.21-10.47,1.72-15.71.42-4.35.79-8.7,1.07-13.06.21-3.31.61-6.64,1.12-9.87.67-4.18.41-8.42,1.38-12.58.68-2.9.58-6,.84-9,.37-4.35,1-8.67,1.27-13,.21-4.05.87-8.07,1.34-12.11.07-.6.25-1.18.3-1.78.36-4.51.4-9.07,1.14-13.51s.55-8.71,1.47-13a57.88,57.88,0,0,0,.86-8.52c.27-4.37,1.06-8.68,1.26-13.06s.92-8.67,1.42-13c.08-.75.22-1.5.25-2.25.16-5.28,1-10.49,1.66-15.72.53-4.18.71-8.4,1.13-12.6.45-4.64,1-9.27,1.5-13.91.08-.75.22-1.5.25-2.25.16-5.28,1.13-10.48,1.61-15.72.35-3.9.77-7.79,1.15-11.69.51-5.09,1.11-10.17,1.63-15.26.31-3,.69-6,.86-9,.25-4.37,1.06-8.67,1.25-13.05s.94-8.68,1.45-13c.07-.6.18-1.2.2-1.8.19-5.58,1.28-11.08,1.66-16.62.31-4.51.83-9,1.32-13.49s.55-8.71,1.36-13c.76-4,.77-8.09,1.19-12.13.48-4.64,1-9.27,1.57-13.91,0-.45.12-.9.15-1.35.35-4.5.38-9.07,1.15-13.5.67-3.88.32-7.85,1.42-11.66a10.47,10.47,0,0,0,.19-2.25c.31-5.41,1.16-10.78,1.6-16.17.33-4.06.9-8.09,1.2-12.15.34-4.5,1-9,1.47-13.46.07-.6.19-1.19.23-1.79.36-4.51.32-9.09,1.17-13.5.79-4.18.54-8.41,1.38-12.58.79-4,.77-8.09,1.18-12.13.45-4.5,1-9,1.48-13.47.06-.59.21-1.19.24-1.79.24-5.57,1.26-11.08,1.65-16.62.32-4.51.84-9,1.32-13.5.47-4.32.31-8.74,1.42-13a9.92,9.92,0,0,0,.19-2.25A136.87,136.87,0,0,1,182.24,479c.43-3.13.55-6.31.83-9.45.37-4.35,1.07-8.67,1.27-13,.19-4.05.89-8.07,1.37-12.11.07-.59.22-1.18.27-1.78.36-4.51.35-9.08,1.15-13.51.75-4.17.63-8.4,1.36-12.57.66-3.68.63-7.49,1.15-11.23.69-5.07,1.14-10.17,1.7-15.26.35-3.14.54-6.31.81-9.45.38-4.35,1.07-8.67,1.27-13.05.19-4,.89-8.07,1.37-12.1.1-.9.23-1.8.31-2.7.35-4.05.67-8.11,1-12.16.14-1.58.62-2,2.35-2.09,1.36-.07,2.73,0,4.09,0H372.25c1.52,0,3,0,4.54-.08a1.69,1.69,0,0,0,1.7-1.75c.06-1.21,0-2.42,0-3.63,0-5.44,0-10.89,0-16.33,0-1.18-.22-2.44.67-3.47,1.86,1.61,1.59,3.83,1.59,5.89q.07,55.43,0,110.83a13.84,13.84,0,0,1-.86,5.77c-1,2-3,2.92-4.67,4.16-21.68,15.74-31.92,37-30,63.71,2,28.7,25.1,54.5,53.55,60.09,28.73,5.64,52.41-3.39,70-26.48,19.79-26,17.16-65.17-6.36-88a83.79,83.79,0,0,0-11.4-9.64c-1.63-1.1-3.3-2.19-3.79-4.32a26.4,26.4,0,0,1-.38-5.88q0-41.74,0-83.49c0-2.53-.38-5.18,1.23-7.47,2.74-1.84,5.85-1.24,8.82-1.24q139,0,278,0c50.8,0,101.6.07,152.4,0a9,9,0,0,1,4,.47c1.27,1.51,1.29,3.35,1.29,5.16q.06,44.67,0,89.35a12.71,12.71,0,0,1-.35,3.14c-.73,2.61-3.14,3.53-5.08,4.9-19.94,14.19-30.4,33.72-30,58,.62,38.85,32.61,67.23,68.65,67.3,34.17.06,64.22-26.9,67.72-60,2.92-27.6-7.37-49.25-29.62-65.48-1.8-1.32-4-2.19-4.76-4.64a23.18,23.18,0,0,1-.43-5.87q0-42.18,0-84.34c0-2.51-.53-5.2,1.46-7.34a9.81,9.81,0,0,0,4.87.75H1139.4c6,0,6.29,0,6.72,6,.31,4.36,1,8.68,1.22,13s1,9,1.48,13.46c.06.45.14.9.17,1.35.36,4.5.63,9,1.07,13.52.42,4.19,1,8.36,1.53,12.54.07.6.12,1.2.16,1.81.34,5.71,1,11.39,1.72,17.07.56,4.18.67,8.41,1.09,12.61s1,8.66,1.55,13c.07.6.12,1.21.16,1.81.37,5.71,1.2,11.39,1.64,17.08.35,4.51,1.06,9,1.25,13.51.18,4.34,1,8.66,1.49,13,.07.6.13,1.21.16,1.81.35,5.72,1.22,11.39,1.64,17.08.34,4.51,1.07,9,1.26,13.51.18,4.34,1,8.66,1.49,13,.07.6.12,1.21.16,1.81.32,5.72,1.23,11.39,1.64,17.08.33,4.51.83,9,1.32,13.5.47,4.32.3,8.74,1.41,13a8.93,8.93,0,0,1,.17,1.8c.3,5.72,1.24,11.38,1.65,17.08.31,4.36,1,8.68,1.22,13s.91,8.68,1.41,13c.07.6.19,1.2.24,1.8.36,4.5.33,9.08,1.15,13.5.78,4.18.58,8.4,1.36,12.58.65,3.52.62,7.19,1.11,10.78.72,5.22,1.2,10.47,1.71,15.71.42,4.2.69,8.41,1.1,12.61.45,4.64,1,9.27,1.5,13.91.07.6.18,1.19.23,1.8.35,4.5.31,9.08,1.16,13.5.79,4.17.55,8.4,1.37,12.57s.78,8.4,1.19,12.59c.45,4.65,1,9.28,1.49,13.92.06.6.19,1.19.24,1.79.35,4.51.35,9.08,1.14,13.51s.52,8.71,1.46,13a67.06,67.06,0,0,1,.83,9c.34,4.36,1,8.68,1.27,13s1,9,1.5,13.46c0,.45.11.9.15,1.35.35,4.5.36,9.07,1.14,13.5.73,4.18.32,8.45,1.44,12.56a11.31,11.31,0,0,1,.19,2.26c.31,5.41,1,10.79,1.65,16.17.54,4.18.71,8.41,1.13,12.6.45,4.65,1,9.28,1.49,13.92.09.75.23,1.5.25,2.25.16,5.28,1,10.48,1.65,15.71.53,4.19.72,8.41,1.13,12.61.45,4.64,1,9.28,1.49,13.91.07.6.19,1.2.23,1.8.36,4.5.31,9.09,1.16,13.5s.44,8.72,1.44,13c.68,2.89.61,6,.84,9,.33,4.36,1,8.68,1.27,13s1,9,1.5,13.45c0,.45.11.9.15,1.35.35,4.51.33,9.09,1.15,13.51.77,4.17.26,8.46,1.43,12.56a9.38,9.38,0,0,1,.18,2.26c.22,5.42,1,10.78,1.67,16.16.51,4.19.7,8.41,1.11,12.61.46,4.64,1,9.28,1.51,13.91a9,9,0,0,1,.19,1.34c-.23,4.56.67,9,1.22,13.51s.4,8.72,1.37,13c.7,3.07.61,6.3.87,9.44.37,4.35,1,8.68,1.27,13s1,9,1.51,13.45c.07.6.15,1.2.17,1.81.13,5.43,1.27,10.77,1.62,16.17.29,4.37,1,8.68,1.23,13s1,9,1.5,13.46c.07.6.13,1.2.17,1.8.36,5.71,1.18,11.39,1.63,17.08.35,4.36,1,8.68,1.24,13s1,9,1.51,13.46c.05.45.1.9.14,1.35.35,4.51.35,9.07,1.14,13.5.74,4.18.29,8.46,1.45,12.56a7.72,7.72,0,0,1,.16,1.81c.22,5.57,1.19,11.08,1.62,16.62.32,4.21.94,8.39,1.21,12.6.3,4.65,1,9.28,1.48,13.92,0,.45.16.89.19,1.34.36,4.51.67,9,1.07,13.52.16,1.8.63,3.57.76,5.36.26,3.35-.08,3.68-3.32,3.76-.91,0-1.82,0-2.73,0H992.8c-1.81,0-3.62-.13-5.43-.2-1.24-1.34-1.23-3-1.29-4.69-.08-2.12,0-4.24,0-6.36q0-271.77,0-543.55c0-10.87.6-10.13-10.08-10.13H362.52c-9.3,0-8.88-.67-8.88,8.88q0,273.38,0,546.73C353.61,1319.9,354.38,1323.2,352.22,1326Z"/><path class="cls-6" d="M352.22,1326c0-1.66,0-3.33,0-5V766.46c0-1.66,0-3.32.06-5a1.62,1.62,0,0,1,1.73-1.69c1.21-.06,2.42-.06,3.63-.06h624c5.39,0,5.76-.41,5.76,5.75q0,217.6,0,435.2,0,62.63,0,125.25c-1.2.1-2.4.28-3.6.28q-27.63,0-55.27,0c-.9,0-1.8-.12-2.71-.18a5.7,5.7,0,0,1-1-1.54c-.79-2.66-.49-5.4-.5-8.11q0-240.73,0-481.47c0-10.24.36-9.28-9.42-9.28q-102.1,0-204.21,0c-8.51,0-8.52,0-8.52,8.38q0,240.73,0,481.47c0,3,.34,6-.49,9a5.59,5.59,0,0,1-1,1.53c-1.05.06-2.1.18-3.14.18h-55.9c-.89,0-1.79-.09-2.69-.14-1.33-1.47-1.39-3.3-1.44-5.12,0-2.12,0-4.23,0-6.35q0-239.37,0-478.74c0-10.2.42-9.32-9.39-9.32q-101.65,0-203.29,0c-9.82,0-9.46-.9-9.46,9.27q0,240.5,0,481c0,3.1.8,6.41-1.47,9.18-1.2.07-2.4.21-3.61.22h-54.4C354.63,1326.2,353.43,1326.08,352.22,1326Z"/><path class="cls-7" d="M413.85,1326q0-246.88,0-493.76c0-1.66,0-3.33,0-5s.53-2.06,2.27-2.15c1.2-.06,2.41,0,3.62,0h213.3c1.36,0,2.72,0,4.08.07a1.66,1.66,0,0,1,1.71,1.74c.06,1.66.06,3.33.06,5q0,244.16,0,488.31c0,2,0,3.93,0,5.9-1.51,0-3,.11-4.52.11H419.28C417.47,1326.16,415.66,1326,413.85,1326Z"/><path class="cls-8" d="M448.34,338.48c-.07,1.5-.22,3-.22,4.5q0,44.32,0,88.64c0,1.66.15,3.31.22,5,1.37,1.82,1.36,3.95,1.36,6.07,0,13.44.32,26.89-.12,40.32-.29,8.67-.49,17.43-5.21,25.42A36,36,0,0,1,404.66,525a34.83,34.83,0,0,1-26.57-33.67c-.08-16.61,0-33.22,0-49.84a14.81,14.81,0,0,1,.59-4.91c.91-1.86.62-3.85.62-5.8q0-42.54,0-85.08c0-9.8.09-19.61.13-29.41,0-1.05-.12-2.1-.18-3.15a290.22,290.22,0,0,1,12-71.34A291.37,291.37,0,0,1,583.91,47.69a295.76,295.76,0,0,1,86.21-12.9c66,.61,125.48,20.54,177.66,61.06,49.51,38.46,83.11,88,101,148.18a280.23,280.23,0,0,1,9,42.52,300.51,300.51,0,0,1,2.52,46.15c0,1.66,0,3.32.07,5,0,.9-.1,1.8-.1,2.71q0,45.77,0,91.52c0,1.51.06,3,.09,4.53,1.49,1.79,1.3,4,1.3,6.06,0,15.72.09,31.44,0,47.15C961.46,510.4,945.91,526,925.53,526c-20.09,0-35.4-15.61-35.53-36.3-.11-15.71,0-31.43,0-47.15,0-2.1-.18-4.26,1.3-6.06,0-1.81.07-3.63.07-5.44q0-44.85,0-89.7c0-1.21-.06-2.41-.1-3.62-1.88-2.4-1.16-5.24-1.1-7.88A219.71,219.71,0,0,0,829,173a221.52,221.52,0,0,0-75-51.5c-21.79-9.15-44.51-14.15-68.08-16.06-38.14-3.09-74.34,4-109,19.62-19.7,8.87-37.37,21-53.62,35.24a214.6,214.6,0,0,0-44.82,54.88,217.37,217.37,0,0,0-28.22,86.9c-1,10.13-.46,20.23-.78,30.34C449.5,334.51,450,336.72,448.34,338.48Z"/><path class="cls-9" d="M700.7,1326c0-.3,0-.6,0-.9,1.76-1.55,3.93-1.42,6-1.42q106.5,0,213,0c2.09,0,4.27-.13,6,1.42,0,.3,0,.6,0,.9-1.65.07-3.31.18-5,.18H705.67C704,1326.2,702.36,1326.09,700.7,1326Z"/><path class="cls-4" d="M890.64,306.86a214.9,214.9,0,0,0-8-43.6c-14.57-49-42.58-88.53-84-118.32-38.22-27.49-81.15-41-128.2-41.43-5.75-.05-11.48.27-17.22.66a213.62,213.62,0,0,0-44.55,7.88A221.64,221.64,0,0,0,448.55,307.67c-.79,9.65-.5,19.35-.49,29a11,11,0,0,0,.28,1.78c2,0,3.93,0,5.9,0H884.12c1.21,0,2.42,0,3.63,0a7.43,7.43,0,0,0,3.5-.77C891.39,327.4,891.5,317.14,890.64,306.86Zm-36.13-2.81c-1.36,0-2.72,0-4.08,0H669.84q-90.74,0-181.49,0c-1.63,0-3.62.71-4.83-.43s0-3.11.08-4.69c1.5-18.84,8.13-36.16,15.94-53.09a194.53,194.53,0,0,1,15.58-27.6c6.65-9.8,14.68-18.44,23-26.85,22.38-22.71,49.61-37.2,79.59-47.07,9.25-3,18.79-4.41,28.41-5.49a223.82,223.82,0,0,1,37.6-.8c10.42.6,20.84,1.58,30.93,4.31a210.46,210.46,0,0,1,63.45,29.34c8,5.44,15.18,12,22.13,18.74,2.18,2.11,4.27,4.29,6.39,6.45,19.07,19.49,31.75,42.83,41.19,68.15a138.33,138.33,0,0,1,7.91,32.49c.19,1.65.32,3.31.41,5C856.17,303.66,855.81,304,854.51,304.05Z"/><path class="cls-10" d="M378.65,436.62c1.21,1.45.69,3.19.69,4.8,0,16.48.1,33,0,49.44a32,32,0,0,0,3.95,16.06,33.84,33.84,0,0,0,21.44,16.83,36.69,36.69,0,0,0,14.84.65,31.39,31.39,0,0,0,15.85-7.32,35.07,35.07,0,0,0,11.66-19,4.8,4.8,0,0,0,.31-1.31c-.26-4.7,1-9.29.95-14,0-15.42,0-30.84,0-46.27a65.33,65.33,0,0,1,24.29,23.26,68.57,68.57,0,0,1,10.51,34.25A69.54,69.54,0,0,1,428.2,565c-38.82,8.19-74.65-16.7-82.45-52.37-5.85-26.77,1.79-49.56,21.83-68.17A44.34,44.34,0,0,1,378.65,436.62Z"/><path class="cls-10" d="M891.28,436.44c0,18,.07,35.94,0,53.91a33.61,33.61,0,0,0,5.78,19.2c5.34,7.9,12.82,13.3,22.33,14.78,9,1.38,17.84.39,25.47-5.22,6-4.45,10.92-10,13.43-17.24a34.62,34.62,0,0,0,2-11.5c0-18,0-35.95,0-53.92a59.72,59.72,0,0,1,17.9,14.39,67.4,67.4,0,0,1,16.16,33.45c3.64,21.32-1.35,40.54-15.15,57.22a66.26,66.26,0,0,1-38.84,23.43c-22.24,4.47-42.32-.47-59.75-15.09a66.76,66.76,0,0,1-23.39-40.36c-3.69-20.6,1.11-39.27,13.84-55.87a67.17,67.17,0,0,1,18.18-16.2A19,19,0,0,1,891.28,436.44Z"/><path class="cls-7" d="M925.77,1325.12c-.76,0-1.51,0-2.27,0H703c-.76,0-1.51,0-2.27,0,0-1.82,0-3.63,0-5.45V831.07c0-1.66,0-3.33.07-5,.07-1.35.58-1.81,2-1.91.9-.06,1.81,0,2.72,0H921c4.77,0,4.77,0,4.8,4.68,0,.76,0,1.52,0,2.27v488.6C925.79,1321.49,925.78,1323.3,925.77,1325.12Z"/><path class="cls-6" d="M542,1107.33c-9.23.52-16.41-2.88-22.29-9.09a28,28,0,0,1-7.86-17.36,31.91,31.91,0,0,1,1.69-14.12,27.48,27.48,0,0,1,12.44-15,29.44,29.44,0,0,1,9.16-3.79c10.13-1.85,19.16.17,26.86,7.24a29.13,29.13,0,0,1,9.08,15.32,30,30,0,0,1-1.87,19.42,27.27,27.27,0,0,1-5.4,8.31,30.45,30.45,0,0,1-10.34,7.15A23.48,23.48,0,0,1,542,1107.33Z"/><path class="cls-6" d="M797.23,1104.62c-16.13.75-30.24-13.45-30.26-30,0-17.34,15.41-31.27,30.82-29.9,16.62-.41,29.81,13.51,29.8,30S814.38,1105.29,797.23,1104.62Z"/></svg>