<svg id="Layer_1" data-name="Layer 1" xmlns="http://www.w3.org/2000/svg" viewBox="0 0 1366 1366"><defs><style>.cls-1{fill:#fff;}.cls-2{fill:#d09271;}.cls-3{fill:#3b8075;}.cls-4{fill:#cca86e;}.cls-5{fill:#ba7c55;}.cls-6{fill:#b97a53;}.cls-7{fill:#c8d8eb;}.cls-8{fill:#e8f0f6;}.cls-9{fill:#a68550;}.cls-10{fill:#a68450;}</style></defs><path class="cls-1" d="M586.69,117.1c1.8-.77,2.77-2.1,3.88-3.22,9.07-9.09,19.26-16.82,29.82-24.06a50.25,50.25,0,0,1,18.35-7.93c4.53-.94,9-2,13.54-3.11a33.82,33.82,0,0,1,15.21-.09c6.39,1.41,12.79,2.81,19.13,4.41a81.58,81.58,0,0,1,15.62,6c8.91,4.35,17.42,9.41,25.88,14.58,6.81,4.17,13.85,7.92,21,11.4,6,2.89,12.21,3.53,18.68,3a16.89,16.89,0,0,0,5.55-1.38c11.2-4.94,23.2-7.06,35-9.65a52.47,52.47,0,0,1,24.25.5c5.42,1.37,10.87,2.6,16.31,3.87a48.91,48.91,0,0,1,16.94,7.61c3.81,2.65,7.58,5.34,11.3,8.11A53.6,53.6,0,0,1,888.1,138q5.17,6.92,10.09,14a71.41,71.41,0,0,1,7,13.09A108.44,108.44,0,0,0,911.44,178a42.84,42.84,0,0,0,17.27,16.83c9.42,4.92,19.29,8.49,29.91,9.68,9.4,1.05,18.54,3.34,27.7,5.52,5.13,1.22,10.26,2.41,15.27,4.09a72.79,72.79,0,0,1,19.54,10c13.65,9.86,13.65,9.85,23.48,23.57a44.27,44.27,0,0,1,7.46,16c1.57,6.84,3.24,13.67,4.62,20.56s1,13.68.3,20.54c-1,9.73-3.57,19.15-5.71,28.65-1.3,5.76-3.19,11.39-3.9,17.28-.82,6.82-1.56,13.64-.9,20.56a30.28,30.28,0,0,0,7.16,16.41A76,76,0,0,0,1067,400c.38.29.77.58,1.17.84,13.24,8.38,23.26,19.85,31.75,32.84a66.48,66.48,0,0,1,9.45,21.35c1.71,7.31,3.75,14.54,5,22a83.07,83.07,0,0,1,.16,25.33c-2.57,17.75-7.2,35-12.46,52.14-8.22,26.74-18.64,52.66-29.59,78.38-2.25,5.29-4.59,10.54-6.84,15.83-.49,1.15-1.27,2.23-1.23,3.86,1.75.44,3.55,1,5.38,1.36a48.39,48.39,0,0,1,18.62,8.37,58.39,58.39,0,0,1,13.74,13.83,35.37,35.37,0,0,1,6.18,13.86c.67,3.45,1.51,6.86,2.38,10.27a44.82,44.82,0,0,1,1,15.7c-1,10-2.91,19.91-4.87,29.78q-4.69,23.51-8.22,47.21c-3,20.39-5.69,40.84-9.57,61.09a591.39,591.39,0,0,1-14.09,59.16c-1.36,4.53-1.33,9.16-1.79,13.74-.77,7.79-1.25,15.62-1.71,23.44a26.19,26.19,0,0,0,.52,5.7q4.56,28.15,9.18,56.29c2.39,14.67,4.73,29.34,7.12,44,2.42,14.83,4.91,29.64,7.29,44.47,2.43,15.14,4.76,30.3,7.11,45.46,2.11,13.58,4.25,27.15,6.26,40.74,2,13.76,4.13,27.5,5.87,41.3,1.21,9.68,1.72,19.44.3,29.18-.27,1.89-.51,3.8-.93,5.67-1.64,7.16-3.2,14.34-5.07,21.44a46,46,0,0,1-7.38,15.5l-.27.39c-11.34,15.81-9.8,14.16-26.38,26a55.07,55.07,0,0,1-18.18,8.4c-9.11,2.39-18.24,4.74-27.54,6.31a109.8,109.8,0,0,1-16.68,1.71c-8.47.12-16.95.22-25.42.25q-90.45.31-180.88.58-101.72.16-203.43.09-60.23,0-120.43-.17-35.26-.08-70.53-.29c-17.43-.09-34.86-.34-52.29-.29a155.31,155.31,0,0,1-39.79-5.38c-4.48-1.16-9-2.18-13.43-3.51a57.41,57.41,0,0,1-17.49-8.74c-2.58-1.9-5.19-3.73-7.77-5.62a27.63,27.63,0,0,1-3.4-2.65c-10-10.11-18.74-21-22-35.31-1.62-7.16-3.68-14.22-4.75-21.51a95.34,95.34,0,0,1-.22-23c1.24-13.26,4.65-26.09,7.63-39,6.5-28.16,14.16-56,21.11-84.09a588.65,588.65,0,0,0,11.28-57.83c1.49-10.45,2.64-20.94,3.27-31.47.39-6.53.09-13.1.05-19.66,0-5.76-.22-11.51-.19-17.27a89.17,89.17,0,0,0-1.53-15.72q-5.62-32.58-11.17-65.19c-3.66-21.58-7.18-43.18-10.92-64.74-3.92-22.67-8-45.31-12.07-67.95-2.18-12.11-4.5-24.19-6.7-36.29a94.41,94.41,0,0,1-1.54-16.7,59.41,59.41,0,0,1,1.76-15.19c1.2-4.64,2.23-9.32,3.32-14a35.52,35.52,0,0,1,5.91-13c10.26-14.08,7.2-11.06,21.1-21.2a43.69,43.69,0,0,1,15.6-7.08c1.55-.38,3.12-.69,4.67-1.08,1.77-.44,2.07-.75,2.1-2.6.08-4.47.11-9,.13-13.43q.34-82.51.68-165,.29-80.85.49-161.68c0-17-.18-33.91-.19-50.86,0-15,.27-30.07,1.6-45a347.55,347.55,0,0,1,8.82-51.93c3.11-12.73,6.31-25.41,11-37.68a196.74,196.74,0,0,1,9.79-22.37c8.05-15.21,17.8-29.23,30.45-41A159.69,159.69,0,0,1,395.15,38a81.38,81.38,0,0,1,22.58-9.11c7-1.66,14-3.36,21-4.9,10.11-2.21,20.32-2.17,30.55-1.1,11.64,1.21,22.89,4.38,34.14,7.4a77,77,0,0,1,24.47,11.84c2.87,2,5.69,4.13,8.57,6.15a99.48,99.48,0,0,1,23,22.92C569.56,85,575,93.11,586.69,117.1Z"/><path class="cls-2" d="M330.14,982q-3.47-20.29-6.92-40.58c-2.45-14.32-5-28.62-7.36-42.94-2.4-14.16-4.66-28.35-7.09-42.5-2.67-15.57-5.49-31.12-8.23-46.68-2.38-13.51-4.69-27-7.12-40.55-1.95-10.84-4.14-21.63-6-32.48-1.72-9.82-2.34-19.68.4-29.45s8.38-16.72,17.69-20.77a53.12,53.12,0,0,1,19-4.4c5.27-.22,10.56-.1,15.83-.14,2.08-1.52,4.51-1.44,6.9-1.44q108.95,0,217.88,0a27.93,27.93,0,0,1,5.25.37c9.82.81,19.66-.08,29.42-.6s19.35-.28,29-.92c3.67.27,7.35.17,11,.17H928.32q3.6,0,7.19.16c24-.3,48.07-.12,72.1-.09,1.74,0,3.54.06,4.89,1.47,6.34.68,12.69,1.28,19,2.07,8.07,1,16.16,1.87,24.08,3.78a47.67,47.67,0,0,1,9.48,3.27,17.69,17.69,0,0,1,10.54,15.42,71.74,71.74,0,0,1-.46,15.28c-1.93,14.23-5.12,28.22-7.7,42.33-1.61,8.77-2.91,17.61-4.29,26.42-1.52,9.77-3,19.54-4.45,29.31-1.35,8.82-2.67,17.65-4.14,26.45a412.58,412.58,0,0,1-12,52.65c-1.12,3.66-2.26,7.32-3.55,10.92a19.92,19.92,0,0,0-.78,5.17c-.18,2,.24,4.18-.84,6.1-1.46-1.14-1.53-2.84-1.38-4.38.42-4.28-2-6.34-5.46-8-9.83-4.56-20-5-30.46-3.11-10.88,1.95-21.2,6.06-32,8.31C959.5,914.47,950.85,916,942,914c-3.82-.86-6.57.81-8.51,3.9a8,8,0,0,0-.09,9.08c3.63,5.3,8.62,8.67,15.3,8.25,10.43-.66,20.71.43,30.93,2.21,15.29,2.66,30.2,7,45.24,10.66a32.83,32.83,0,0,0,10.37,1.35c.2,5.92,1.51,11.7,2.38,17.53,1.38,9.32,3,18.6,4.5,27.89,1.43,8.66,2.91,17.31,4.33,26,1.45,8.82,2.84,17.65,4.27,26.47q2.07,12.77,4.16,25.52c1.46,9,2.95,18,4.41,26.93q2.26,13.93,4.49,27.88c1.42,9,2.78,18,4.17,27,1.19,7.72,2.44,15.44,3.58,23.18,1.44,9.79,2.79,19.59,4.2,29.39q1.15,8.05,2.38,16.1a138.58,138.58,0,0,1,1.17,32,60.11,60.11,0,0,1-5.06,20.36c-4.87,10.65-12.78,18.2-23.29,23.15a81.34,81.34,0,0,1-23.41,6.65,199.77,199.77,0,0,1-28.19,1.8q-118.26.12-236.53.28-169.85,0-339.68-.21c-21,0-41.91,0-62.85-.17-10.87-.11-21.7-1-32.3-3.64a74.28,74.28,0,0,1-15.26-5.6c-13.48-6.8-21.54-17.74-24.79-32.32A72.08,72.08,0,0,1,286.2,1247a152.62,152.62,0,0,1,3-25.18c4.46-21.26,10.07-42.23,15.42-63.28,4.24-16.71,8.47-33.42,12.47-50.19q5.32-22.36,8.84-45.1c1.33-8.67,2.34-17.39,3.3-26.12,1.25-11.34.61-22.68.76-34,.08-5.43.11-10.86.16-16.3,3.05,1,2.09,3.63,2.13,5.62.17,8.31.28,16.62,0,24.91-.17,5,1.85,8.12,6.07,10.4,6.8,3.69,13.83,5.41,21.65,4.07a151.2,151.2,0,0,0,24-6.69c9.8-3.4,19.7-5.36,30.1-3.41a22.54,22.54,0,0,0,7.64-.1c7.37-1.16,11.49-5.82,11.14-12.58-.37-7.28-4.66-11.58-12.22-12.15a38.14,38.14,0,0,0-8.61,0c-14.75,2.22-28.95-.66-43-4.5C356.05,988.87,343.11,985.37,330.14,982Z"/><path class="cls-3" d="M1012.5,680.65c-1.27.05-2.54.15-3.82.15l-69.23,0c-1.27,0-2.54-.09-3.82-.13-1.65-1.21-2.28-3-2.91-4.84-9.24-27.13-21.23-53.11-33-79.21-14.94-33.26-29.56-66.66-38-102.31-4.79-20.12-7.78-40.47-7.1-61.24.06-2.06-.22-4.18,1-6,5.37-3.72,11.16-6.86,15.47-12,9.13-10.81,11.22-23.32,9.11-36.89a78.82,78.82,0,0,0-4.92-18c-3-7.34-8.19-12.47-15.92-14.83a64.8,64.8,0,0,0-18.87-3q-58.51-.07-117,0a55.82,55.82,0,0,0-21.13,3.72c-4.41,1.8-8.37,4.47-10.62,8.63-8.43,15.62-11.88,32-5.62,49.29,3.23,8.94,9.68,15.29,17.75,20.08,1.5.9,3.17,1.54,4.43,2.82,1.39,2,1,4.28,1.1,6.49.56,26.11-4.09,51.45-11.28,76.43-7.88,27.39-19.14,53.47-30.67,79.45-12.55,28.3-25.81,56.31-35.89,85.65-.65,1.91-1,4.14-3.26,5a32,32,0,0,1-3.75.57q-19.29.66-38.6,1.23c-2.54.08-5.07.27-7.6.52s-5.38,1.06-7.88-.6a7.16,7.16,0,0,1-1.1-4.12c.14-9.27-1.12-18.48-1.1-27.77.15-55,.9-110-.14-165-1.21-64.1.38-128.21-1-192.29-.7-33.25-.25-66.49-.68-99.73,0-2.79-.68-5.82,1.62-8.2,1-.81,2-1.59,2.93-2.43,14.58-13,28.8-26.31,42.46-40.25A186.51,186.51,0,0,1,629.82,127a78.28,78.28,0,0,1,11.85-8.1,41.74,41.74,0,0,1,13-4.6c6.16-1,12.09-.06,18,1.64a86.71,86.71,0,0,1,14.19,5.74c8.62,4.23,16.84,9.15,25,14.15a178.61,178.61,0,0,0,22.4,11.93c11.19,4.81,22.8,7.19,35,6.15a72.42,72.42,0,0,0,21.28-5.4,88.67,88.67,0,0,1,14.55-4.75c12.84-2.8,25.4-2.36,37.47,3.35,9.5,4.49,16.86,11.45,22.77,20a89.16,89.16,0,0,1,8.47,16.09,98.59,98.59,0,0,0,12.39,21.54c9.46,12.43,21.73,21.05,36.17,26.73a145.49,145.49,0,0,0,28.62,7.71c7.55,1.31,15.14,2.42,22.66,3.89a86.5,86.5,0,0,1,20.45,6.67,57.55,57.55,0,0,1,8.7,5c10.85,7.66,16.61,18.25,18.18,31.32,1.34,11.11-.08,22-2.48,32.82-1.69,7.63-3.83,15.17-5.58,22.79a103.78,103.78,0,0,0-2.62,27.11,67.81,67.81,0,0,0,16.94,43.3,100.49,100.49,0,0,0,19,16.77,84.26,84.26,0,0,1,17.45,15.63,66.9,66.9,0,0,1,15,35.2c1.7,13.58-.24,26.79-3.58,39.85-5.06,19.83-11.8,39.13-19.11,58.23-8.56,22.39-18.16,44.34-27.75,66.3C1023,656.31,1017.76,668.49,1012.5,680.65Z"/><path class="cls-4" d="M568.12,184.55c0,6.87-.08,13.74-.07,20.62,0,22.69-.27,45.4.22,68.08.78,35.47.51,70.94.68,106.41.14,27.82-.23,55.63.3,83.44.6,31.31.5,62.63.64,93.94.14,33.73.13,67.45.26,101.18,0,6.22.39,12.44.54,18.66,0,1.59-.12,3.18-.19,4.78l-223.47,0c-2.23,0-4.47-.07-6.71-.11.08-6.71.21-13.42.23-20.13.11-38.21-.2-76.43.41-114.64.63-39.8.4-79.6.58-119.4s.1-79.62.12-119.43q0-30.46-.06-60.92c0-11.35.73-22.66,1.64-34,.49-6.05,1.22-12.06,2-18.08a250,250,0,0,1,23.06-78.2,109,109,0,0,1,27.59-35.83,92.12,92.12,0,0,1,44.42-21.25,89.2,89.2,0,0,1,17.62-1.59c16.15.43,31.74,3.3,46,11.34a90.64,90.64,0,0,1,22.73,18.18c7.05,7.76,12.43,16.59,17.56,25.64,6.4,11.28,12,22.9,15.83,35.35a261.79,261.79,0,0,1,6.05,25.62Q567.1,179.39,568.12,184.55Z"/><path class="cls-5" d="M330.14,982c2.23-.77,4.36.12,6.51.44,5.2.8,10.19,2.47,15.26,3.82,9.53,2.54,18.94,5.54,28.6,7.56,3.72.78,7.44,1.68,11.29,1.64a12.35,12.35,0,0,1,2.85.26c4.59,1,9.11.63,13.74.09,5.51-.64,11.15-1.21,16.62.47,5,1.52,8.38,4.52,8.73,10.11,1.39,2.66.56,5.31-.17,7.89a11,11,0,0,1-7.72,7.86,31,31,0,0,1-14.64.57,38,38,0,0,0-12.85,0c-6.81,1-13.26,3.39-19.73,5.61a128.25,128.25,0,0,1-14.23,4.08,51.23,51.23,0,0,1-8.93,1.34,33.09,33.09,0,0,1-19-5.52c-.54-.34-1-.78-1.58-1.08-3-1.62-4.05-4-4-7.49.2-9.42.08-18.86,0-28.29,0-1.54.51-3.23-.81-4.56Z"/><path class="cls-6" d="M1035.28,949.4a3.84,3.84,0,0,1-4.51,1.56c-12.78-3.31-25.56-6.61-38.42-9.59-6.33-1.47-12.7-2.8-19.17-3.66a112.23,112.23,0,0,0-11.41-.83,17.57,17.57,0,0,1-3.29-.5,15.17,15.17,0,0,0-8.05,0c-3.73,1.21-7-.08-10.12-1.51-2.9-1.32-5.2-3.61-7.46-5.91-2.8-2.84-2.88-10.12,0-12.83a18.34,18.34,0,0,1,3.6-3.15,5.41,5.41,0,0,1,4.57-.65c2.88,1,6,.45,8.92,1.48a5.16,5.16,0,0,0,2.38,0c4.87-.71,9.75-1.37,14.58-2.26,7.05-1.29,13.8-3.77,20.73-5.55,4.93-1.26,9.85-2.55,14.84-3.53,2.78-.54,5.73.11,8.52-.93.64-.24,1.54.21,2.32.34a22.89,22.89,0,0,0,2.82.43c7.24.2,13.61,2.93,19.7,6.56a2.91,2.91,0,0,1,1.45,2.79c0,2.71.07,5.42.11,8.14,0,8.15-1.08,16.23-1.66,24.34C1035.63,945.91,1035.44,947.65,1035.28,949.4Z"/><path class="cls-7" d="M856.22,427.5a15.61,15.61,0,0,0-.47,5.23c.11,7.66.21,15.3.9,23a284.24,284.24,0,0,0,10.24,53,467.09,467.09,0,0,0,20.65,56.65c7.36,17,14.93,33.89,22.44,50.82,9.08,20.43,17.92,41,25,62.16.25.76.41,1.54.61,2.31-1.75,0-3.51.09-5.27.09q-148,0-296,0c-2,0-4.17.67-6-.77,4.21-12.07,8.6-24.08,13.65-35.82q10-23.34,20.39-46.55c9.37-21,18.72-42,26.56-63.7A348,348,0,0,0,704,479.93c1.57-8.31,2.62-16.71,3.41-25.15.7-7.34.74-14.68.84-22a14.44,14.44,0,0,0-.48-5.23c1.36-1.19,3-.84,4.58-.84q69.63.15,139.27,0C853.2,426.68,854.85,426.35,856.22,427.5Z"/><path class="cls-8" d="M856.22,427.5a16.35,16.35,0,0,1-5.65.8q-68.57,0-137.13,0a18.24,18.24,0,0,1-5.65-.78c-13.08-6-22-15.63-25.18-30a53.41,53.41,0,0,1-.12-20.47,84.57,84.57,0,0,1,4.37-16.15c3.67-9.75,10.65-15.7,20.73-18.05a77,77,0,0,1,17.59-1.77q48.65.08,97.28.1c6.07,0,12.14-.08,18.21-.09a68.92,68.92,0,0,1,15.68,1.76c10.27,2.41,17.27,8.5,20.94,18.46a75.75,75.75,0,0,1,5.12,25.22c.22,15-5.48,27.35-17.91,36.21A33,33,0,0,1,856.22,427.5Z"/><path class="cls-9" d="M402.69,624.05a22.18,22.18,0,0,1-15.95-5.4c-5.56-4.62-8-10.56-6.24-17.91,1.43-6,4.42-11.29,7.95-16.22,4.08-5.69,8.64-11,13.19-16.36,5.67-6.66,11.44-13.26,16.63-20.33,2.75-3.76,4.72-8,7.11-11.9,3.82-6.31,8.07-12.29,13.52-17.26a87.37,87.37,0,0,1,17.48-12.46,185.35,185.35,0,0,1,30.81-13.09c9.25-3,18.48-6.05,27.85-8.64a16.13,16.13,0,0,1,7.12-.39c3.35.6,6.43,2,7.9,5.52.75,1.76,1.45,3.54,2.14,5.32a4.18,4.18,0,0,1-.12,3.27c-.51,1.17-.94,2.38-1.5,3.52-3.45,7-6.12,14.36-10.15,21.12-2.78,4.65-5.27,9.48-8.12,14.09-4.35,7.06-9.11,13.82-14.13,20.44-6.31,8.32-13.73,15.54-21.16,22.77-3.29,3.21-7.13,5.85-10.55,9-3.78,3.43-7.84,6.5-11.82,9.69a170.73,170.73,0,0,1-23.24,15.9,88.16,88.16,0,0,1-16.53,7.44A33,33,0,0,1,402.69,624.05Z"/><path class="cls-10" d="M530.59,296.66c.58,5.79-1.25,11.3-3.51,16.56a110.26,110.26,0,0,1-10.47,19.35c-3.63,5.24-7.55,10.26-11.48,15.28-8.2,10.48-17.76,19.65-27.23,28.92-3.63,3.55-7.8,6.54-11.58,10-3.56,3.2-7.32,6.15-11.12,9a209.38,209.38,0,0,1-28.71,18.93,120.86,120.86,0,0,1-19.21,8.48,43.5,43.5,0,0,1-14.56,2.28,23.29,23.29,0,0,1-7.48-1.4c-5.09-1.86-7.55-6-5.8-12.92,1-3.75,3-7.07,4.79-10.43,2.21-4.06,4.65-8,6.86-12.06,3.8-7,8-13.81,12.05-20.67a293.79,293.79,0,0,1,18.51-26.7,108.19,108.19,0,0,1,8.16-9.37q5.28-5.58,10.85-10.86a135.59,135.59,0,0,1,24.19-17.84,125.52,125.52,0,0,1,14.61-7.13,112.54,112.54,0,0,1,21.37-6.86c2.81-.6,5.58-1.29,8.35-2,3.68-1,7.4-1.88,11.12-2.71a10.21,10.21,0,0,1,7,1.23,6.4,6.4,0,0,1,3.31,5.52C530.69,293,530.59,294.76,530.59,296.66Z"/></svg>