<svg id="Layer_1" data-name="Layer 1" xmlns="http://www.w3.org/2000/svg" viewBox="0 0 1366 1366"><defs><style>.cls-1{fill:#fff;}.cls-2{fill:#4c637a;}.cls-3{fill:#d5ab59;}.cls-4{fill:#e9d2b5;}.cls-5{fill:#e9f0f7;}.cls-6{fill:#4cae50;}</style></defs><path class="cls-1" d="M492.52,653a11.82,11.82,0,0,1,6.45-2.91,7.55,7.55,0,0,0,1.29-.37,73.75,73.75,0,0,1,19.93-2.43q154,.13,308,.06,57,0,114-.12,73.43-.06,146.83-.08c35.47,0,70.94.25,106.41.38a249.34,249.34,0,0,1,37.12,2.82c9,1.39,17.82,3.77,26.69,5.89a107,107,0,0,1,14.94,4.7,74.33,74.33,0,0,1,15.37,8.25c3.3,2.33,6.6,4.67,9.81,7.11a49.69,49.69,0,0,1,6.16,5.22c9.06,9.65,16.86,20.18,22.05,32.48a74.16,74.16,0,0,1,3.87,11.45c2.53,10.46,5.38,20.84,7,31.51a221.33,221.33,0,0,1,2.4,28.16c.41,22.75.34,45.5,0,68.24-.46,30.68-1.18,61.35-1.69,92-.22,13.16-.28,26.34-.29,39.51q0,129.54,0,259.08a34.87,34.87,0,0,1-1.32,10.62c-.27.85-.35,1.76-.56,2.63-1.75,7.38-1.79,7.35-6.28,13.62a16.3,16.3,0,0,1-4.42,4.38,30.59,30.59,0,0,0-3.27,2.37,14.18,14.18,0,0,1-6.86,3.07c-.88.16-1.75.39-2.61.63a65.52,65.52,0,0,1-17.27,2.1q-69.6-.17-139.2,0a37.6,37.6,0,0,1-10.62-1.33c-.86-.24-1.75-.37-2.63-.57-7.4-1.74-7.36-1.79-13.63-6.25-2.13-1.51-3.56-3.55-5.18-5.51-2.75-3.31-4.14-7.1-5.19-11.23a72,72,0,0,1-2-18.2c.12-23.19.05-46.39.05-69.59,0-4.43.23-4.07-4.18-4.07q-101.26.11-202.51.2c-19,0-38,.15-57,.2l-232.58.6q-36.83.11-73.64.23-156.25.75-312.51.6c-.6,0-1.19,0-1.79,0-2.41.06-2.47.09-2.46,2.56,0,16.32.11,32.63.09,48.94,0,9-.17,18-.26,26.94a21,21,0,0,1-.84,6.2,26.07,26.07,0,0,0-1,4.36,25.15,25.15,0,0,1-5.76,12.89,22.48,22.48,0,0,1-5,5,40.58,40.58,0,0,0-4,2.87,10.23,10.23,0,0,1-4.42,2c-3.93.92-7.83,1.94-11.78,2.76a25.07,25.07,0,0,1-4.91.28h-119c-9.73,0-19.46,0-29.19,0a33.54,33.54,0,0,1-8.42-1,35.37,35.37,0,0,0-3.49-.83,28.66,28.66,0,0,1-14.07-6.36,36.46,36.46,0,0,1-5.17-5.53c-2.74-3.31-4.11-7.09-5.15-11.23a74.58,74.58,0,0,1-2.11-18.64q.07-369.31,0-738.63a73.64,73.64,0,0,1,1.84-15.52,30.77,30.77,0,0,1,6.54-14,19.28,19.28,0,0,1,3.79-3.76c1.5-1,3-2.05,4.37-3.14A13.69,13.69,0,0,1,28,462.5a90.44,90.44,0,0,1,24.81-2.95q69.15.26,138.3,0a68.34,68.34,0,0,1,14.18,1.68,31.77,31.77,0,0,1,14.07,6.4,35.64,35.64,0,0,1,4.62,4.82,27.73,27.73,0,0,1,5.79,12.41,80.36,80.36,0,0,1,2,17.3c-.12,40.71-.07,81.42-.06,122.13,0,1.45.06,2.9.1,4.31,1.2.31,1.5-.54,2-1a132.86,132.86,0,0,1,22.51-19.85c1.59-1.12,3.17-2.25,4.73-3.42a131.66,131.66,0,0,1,50.58-23.09c6.13-1.38,12.22-2.88,18.39-4a126.6,126.6,0,0,1,33.5-1.86c11.4.87,22.38,3.73,33.44,6.29a130.29,130.29,0,0,1,25,8.4c1.9.87,3.83,1.71,5.65,2.73,18.77,10.54,36.23,22.77,49.89,39.71,4.59,5.7,8.71,11.79,13,17.7Z"/><path class="cls-1" d="M735.05,62.61c17.61-.24,36.21,2.41,54.6,6.89,10,2.44,20.07,4.7,29.84,8A215.62,215.62,0,0,1,869,101.45c14.38,9.46,28.31,19.54,40.84,31.43a186.81,186.81,0,0,1,13.42,13.87c18.87,22,35.24,45.67,46.18,72.77a260.67,260.67,0,0,1,12.18,40.28c1.67,7.43,3.42,14.84,4.66,22.37a227.89,227.89,0,0,1-4.06,91.26c-2.46,10.17-4.78,20.36-8.16,30.28a221.11,221.11,0,0,1-28.21,55.84c-8.15,11.65-16.51,23.14-26.32,33.49a202.62,202.62,0,0,1-18.2,17.33c-18.29,15-37.52,28.66-59.14,38.68a234.56,234.56,0,0,1-47,15.79c-7.57,1.71-15.1,3.63-22.77,4.95a215.51,215.51,0,0,1-27.62,3.09,225.48,225.48,0,0,1-34.08-.91,217.24,217.24,0,0,1-26.08-4.34c-12.07-2.84-24.2-5.42-36-9.38a221.64,221.64,0,0,1-57.38-29c-11-7.76-21.89-15.69-31.75-24.92a217.84,217.84,0,0,1-25.35-27.84c-8-10.63-15.85-21.39-22.5-33a220.45,220.45,0,0,1-24-61.1c-1.87-8.16-4-16.26-5.48-24.5a226.57,226.57,0,0,1-3.56-44.65,229.12,229.12,0,0,1,6.66-50.15c2.49-10.31,4.82-20.66,8.22-30.73a220.45,220.45,0,0,1,28.36-56.26c4.29-6.12,8.67-12.19,13.23-18.12a205.11,205.11,0,0,1,33-34.14c18.25-14.86,37.46-28.26,59-38A232.49,232.49,0,0,1,671.66,71c7.14-1.62,14.27-3.26,21.45-4.7A204.1,204.1,0,0,1,735.05,62.61Z"/><path class="cls-2" d="M1304.84,968.14c.07,1.64.19,3.29.19,4.93q0,135.37,0,270.77c0,1.34,0,2.69,0,4a1.51,1.51,0,0,1-1.7,1.61c-1.2,0-2.4,0-3.59,0h-142.8c-6.12,0-5.43.51-5.44-5.62q0-52.77,0-105.52c0-6.13.68-5.54-5.5-5.54q-21.11,0-42.21,0-96.09.21-192.18.42l-119,.22c-37,.08-73.94,0-110.91.29-76.33.53-152.66.44-229,.6q-60.17.14-120.34.2l-45.35.07-84.86.2c-4.94,0-4.68-.3-4.68,4.58q.07,41.76.15,83.52c0,7.33-.07,14.67-.11,22,0,1-.05,2.1-.11,3.14a1.44,1.44,0,0,1-1.48,1.38c-1,.09-2.09.07-3.14.07H45c-5,0-4.59.23-4.6-4.65V499.93c0-1.65,0-3.3,0-4.94a1.53,1.53,0,0,1,1.61-1.72c1.35,0,2.7,0,4,0H192c1.8,0,3.59,0,5.39,0,1.17,1.63.56,3.48.57,5.21,0,121.06-.37,242.13.29,363.19q.25,48,.77,95.95c.07,6.27.2,6.44,6.65,6.44H503.79c1.8,0,3.59,0,5.38.13,2.54-.22,5.09-.13,7.63-.13,42.36,0,84.73-.58,127.08.12,91.14,1.49,182.29-.31,273.42,1,85.46,1.19,170.92-.35,256.36.93,41.6.62,83.19.24,124.79.7C1300.67,966.72,1303,966.43,1304.84,968.14Z"/><path class="cls-3" d="M1304.84,968.14c-38.75-.06-77.5.25-116.25-.32-27.82-.42-55.63-.31-83.45-.46s-55.65-.11-83.48-.16c-31-.05-61.95.28-92.91-.27-25-.45-50-.31-74.92-.47s-50-.09-75-.13c-36.36-.06-72.72.29-109.07-.29-44.57-.71-89.15-.26-133.72-.58-7.33-.06-14.66,0-22-.05-1.64,0-3.29-.12-4.93-.18-1.9-2.15-1.34-4.81-1.38-7.29-.46-26.91.36-53.83,1.19-80.7,1-31.68.1-63.33.72-95,0-1.48-.25-3,.28-4.45.07-6.58.18-13.16.19-19.74q.1-36.13.14-72.27c0-5.48-.27-5,5.22-5q154.88,0,309.74,0,130.18,0,260.36-.06,52.74,0,105.49.19a299.9,299.9,0,0,1,32.68,1.79c12.33,1.4,24.46,3.79,36.07,8.52,18,7.35,30.52,20,37.79,38a121.35,121.35,0,0,1,7.22,28.15c1.06,7.25,1.6,14.55,2,21.87,1.11,19.14.44,38.28.59,57.43,0,4,.07,8.08-.1,12.11-.73,17.8-.3,35.61-1,53.4-.56,14.8-.43,29.61-.83,44.41C1305.4,953.8,1305.1,961,1304.84,968.14Z"/><path class="cls-4" d="M352.74,608.87c2.7,0,4.35,0,6,0,6.61-.26,13.1.81,19.53,2.08a116.72,116.72,0,0,1,23.56,6.95A165.21,165.21,0,0,1,421,627.61a121.29,121.29,0,0,1,17.33,12.65,108,108,0,0,1,13.78,14.1q4,5.08,7.83,10.35a126.28,126.28,0,0,1,19.76,45.77c1.07,5,1.42,10,2.44,15a15.61,15.61,0,0,1,.11,3.14c0,4.64,0,9.28.06,13.91.1,5.55-.87,11-1.59,16.44-1.38,10.48-4.73,20.35-8.72,30a111.93,111.93,0,0,1-12.92,23,122.52,122.52,0,0,1-15,17.75,147.08,147.08,0,0,1-27.19,20.34,134.91,134.91,0,0,1-22.46,10,112.29,112.29,0,0,1-19.54,4.75c-3.81.63-7.65,1.13-11.48,1.64a23.49,23.49,0,0,1-3.14.13c-3.14,0-6.29.09-9.43,0a130.43,130.43,0,0,1-33.47-5.15,127.58,127.58,0,0,1-33-14.89A100.47,100.47,0,0,1,266,832.32c-2.41-2.46-4.85-4.88-7.3-7.31a101.52,101.52,0,0,1-14.24-18.37,126.43,126.43,0,0,1-14.06-30.45,156.11,156.11,0,0,1-4.24-18.27,132.38,132.38,0,0,1-1.55-28.11c.15-4,1-8,1.46-11.95a120.87,120.87,0,0,1,3.73-17c1.22-4.33,2.88-8.48,4.5-12.64,3.82-9.82,9.34-18.7,15.41-27.24,1.9-2.67,4.11-5.11,6.22-7.63,1.73-2.05,3.4-4.17,5.3-6.06a130.56,130.56,0,0,1,39.93-27.66,129.17,129.17,0,0,1,29-9A106.14,106.14,0,0,1,352.74,608.87Z"/><path class="cls-5" d="M510,777.8c.06,1.49.18,3,.17,4.48-.07,45.3,0,90.6-.36,135.9-.13,14.79-.36,29.58-.41,44.37,0,.9-.14,1.79-.21,2.68-1.79,0-3.59.09-5.38.09H203.87c-1.64,0-3.28,0-4.93-.11a1.17,1.17,0,0,1-1.16-1.13,26.76,26.76,0,0,1-.12-2.69q0-44.45.12-88.89c0-1.79,0-3.59,0-5.38q0-183.86,0-367.7c0-2.08.3-4.2-.38-6.24a1.78,1.78,0,0,1,1.09,1.78c0,1.49,0,3,0,4.48V864.79c0,1.35,0,2.69,0,4,.08,2.93.26,3.12,3,3.2,1.34,0,2.69,0,4,0h298c5.95,0,5.6.37,5.6-5.58q0-42,0-83.93C509.25,781,508.71,779.22,510,777.8Z"/><path class="cls-6" d="M733.73,539.54c-122.55-.34-221.79-99.13-221.5-222.22a221.61,221.61,0,0,1,443.21.65C955.38,440.5,856.44,539.3,733.73,539.54Z"/><path class="cls-1" d="M704.79,365.26q0-53,0-105.91c0-6.1-.58-5.45,5.59-5.46q23.79,0,47.57,0c1.2,0,2.4,0,3.59.08a1.44,1.44,0,0,1,1.41,1.45c.06,1,.09,2.09.09,3.13V472.17c0,.75,0,1.5,0,2.25-.12,2.23-.34,2.43-2.72,2.5-.9,0-1.8,0-2.7,0H710c-1.34,0-2.69,0-4-.11a1.14,1.14,0,0,1-1.1-1.17c-.07-1.49-.11-3-.11-4.48Z"/><path class="cls-1" d="M767.94,191.6c.21,18.34-15.34,34.1-34.45,34a34.19,34.19,0,0,1,.45-68.37C754.21,157.27,768.49,174.36,767.94,191.6Z"/></svg>