<svg id="Layer_1" data-name="Layer 1" xmlns="http://www.w3.org/2000/svg" viewBox="0 0 1366 1366"><defs><style>.cls-1{fill:#fff;}.cls-2{fill:#398075;}.cls-3{fill:#d7c7ad;}.cls-4{fill:#6ba0b9;}.cls-5{fill:#e2f1fc;}.cls-6{fill:#d6ac5a;}.cls-7{fill:#ac9b7f;}.cls-8{fill:#aa8336;}.cls-9{fill:#d6ab59;}.cls-10{fill:#225e52;}.cls-11{fill:#2c5e71;}.cls-12{fill:#4a7f98;}.cls-13{fill:#306276;}.cls-14{fill:#4a7f97;}.cls-15{fill:#1a3f4f;}</style></defs><path class="cls-1" d="M685.56,1264.43q-54.4,0-108.81,0c-22.28,0-44.56.22-66.84.32q-51.81.21-103.61.4c-24.76.08-49.52-.1-74.27.25-24.13.33-48.25,1.24-72.37,1.8q-30.08.71-60.14.19c-14.35-.23-28.27-2.72-42.07-6.32-5.26-1.37-10.61-2.34-15.8-4a52.42,52.42,0,0,1-14.88-7.39l-13.84-10a41.85,41.85,0,0,1-9.43-9.4c-3-4.2-6-8.46-9.14-12.63a52.8,52.8,0,0,1-9.15-19.7c-2.09-8.9-4.31-17.77-6.33-26.69-2-8.63-2.17-17.44-1.91-26.23,1.35-45.42,1.18-90.85,1-136.28-.06-12.38,0-24.76-.07-37.14,0-20.43,0-40.86-.08-61.28-.07-22.78-.21-45.56-.27-68.34q-.19-62.94-.33-125.9c0-19.94-.13-39.87-.08-59.8a5.36,5.36,0,0,0-2.46-4.91c-16.32-11.65-28.13-27.33-38.94-43.88a61.06,61.06,0,0,1-8.26-20.14c-1.57-6.86-3.16-13.73-4.87-20.56A74.46,74.46,0,0,1,22.45,532c3.78-17.26,10.34-33.5,16.38-49.95q33.41-90.8,67.05-181.5a14.84,14.84,0,0,0,.88-6.52c-1.84-22.37-1.46-44.76-.43-67.16.62-13.66,3.54-26.94,6.86-40.15,1.14-4.55,2.17-9.14,3.36-13.68a32.18,32.18,0,0,1,2.26-6.65c6.93-13.34,14.69-26.07,27.24-35.07,2.71-1.94,5.48-3.83,8.11-5.88a57.27,57.27,0,0,1,22.66-10.56c10.36-2.37,20.64-5.1,31.06-7.12,13.4-2.61,27-3.07,40.66-3.17,71.06-.5,142.12-.15,213.17-.21q171.21-.15,342.42-.16,146.88,0,293.77.18c14.6,0,29.2.25,43.79,1.11a220.68,220.68,0,0,1,41.65,6.87c5.63,1.44,11.3,2.7,16.9,4.22a52.22,52.22,0,0,1,17.59,8.48q5.82,4.3,11.74,8.48a44.62,44.62,0,0,1,10.94,11c2.48,3.55,5,7.09,7.6,10.53a53.87,53.87,0,0,1,9.55,20.72c2.07,8.91,4.36,17.76,6.32,26.69,2.39,10.93,3,22.06,3.18,33.21.31,18.57-.34,37.12-1.27,55.67a27.55,27.55,0,0,0,1.77,11.18q38.86,105,77.55,210c2.74,7.44,3.77,15.35,5.83,23,2.48,9.2,1.79,18.44-.14,27.58-1.86,8.83-4.15,17.56-6.22,26.34a69.62,69.62,0,0,1-9.15,21.78,275.25,275.25,0,0,1-18.94,26.13,98,98,0,0,1-18.51,17.06,5.29,5.29,0,0,0-2.42,4.9c0,19.93-.1,39.86-.13,59.8q-.12,66.3-.2,132.59-.06,34.92-.2,69.83-.2,68.9-.4,137.79-.09,37.68-.78,75.37a242.34,242.34,0,0,1-8.49,60.08c-.72,2.62-1.26,5.29-1.93,7.93a45.37,45.37,0,0,1-8,17c-.15.2-.28.41-.43.61-14.16,19.38-8.28,13.47-27.78,27.79a48,48,0,0,1-17.69,8.2c-9,2.11-18,4.43-27.05,6.41-9.7,2.13-19.59,2.75-29.49,3-18.93.56-37.87.59-56.81.46-23.76-.17-47.52-.54-71.29-.71q-36.75-.27-73.52-.35-52.18-.18-104.36-.29-66.84-.24-133.68-.56c-16-.06-31.94,0-47.91,0Z"/><path class="cls-2" d="M163.26,305.37c-.39-5.18-.86-10.36-1.16-15.54a507,507,0,0,1,.69-71.23,102.27,102.27,0,0,1,5.1-25.4c4.56-13,13.32-21.71,26.37-26.2A111.76,111.76,0,0,1,218.91,162c14.42-1.55,28.9-1.7,43.39-1.71q206.29-.09,412.58-.12H801.52q148.18,0,296.35.12c14.24,0,28.47.11,42.68,1a193.5,193.5,0,0,1,31.94,4.37c20.42,4.84,32.27,17.59,36,38.15a207.62,207.62,0,0,1,2.93,35.46c.22,22-.94,44.05-1.79,66.06-1.43,1.36-3.25,1-4.94,1-35.87,1.28-71.75.57-107.62.76a47.29,47.29,0,0,0-16,2.64c-8,2.91-11.58,8.9-11.83,17.1a54.89,54.89,0,0,0,2.82,17.52c10.51,34.87,18.81,70.29,27,105.75,6.43,28,13,55.94,20.53,83.65.49,1.78,1.25,3.52.75,5.45a2.67,2.67,0,0,1-1.13.83,17.42,17.42,0,0,1-5.52.44q-80,0-160,0c-2.09,0-4.23.26-6.2-.73-2-1.77-1.8-4.27-2.08-6.54-3.3-27-5.84-54.08-8.15-81.19-1.85-21.67-3.59-43.36-5.49-65-1.48-16.74-2.76-33.55-7.23-49.87-1.83-6.71-4.26-13.1-9-18.48-7.48-8.43-17.42-10.86-27.87-12.2-19.23-2.47-38.52-.66-57.78-.74a168.06,168.06,0,0,0-22.18,1.48,57.53,57.53,0,0,0-9.79,2.12C786,313,778.75,320.86,776.26,333c-2.53,12.35-2.1,24.85-1.64,37.35.06,1.59.5,3.18.45,4.79-.49,17.45.49,34.88.87,52.3.76,35,.58,70,.63,105,0,2.09.24,4.21-.47,6.27a2.67,2.67,0,0,1-.89,1.11c-2.35,1.36-5,1.41-7.56,1.41-46,0-92,.19-138-.14-9.5-.07-19-.48-28.53-.62a7.25,7.25,0,0,1-3.6-.74c-1.56-1.26-1.43-3.07-1.43-4.77,0-20.79-.54-41.6.17-62.37.46-13.49-.15-27,.66-40.43.87-14.47-.06-29,.77-43.39.71-12.25.33-24.49.61-36.72A97,97,0,0,0,596.71,334c-2.23-13.5-10.06-21.92-23.26-25.47A92.25,92.25,0,0,0,551,305.73c-11-.2-22-.42-33,0-12.33.52-24.73.55-36.95,2.81a80.71,80.71,0,0,0-13.94,3.8c-11.75,4.46-17.61,13.83-20.94,25.27-3.41,11.71-4.58,23.8-6,35.83-2.23,18.54-3.69,37.15-5.09,55.77-.94,12.44-1.61,24.91-2.48,37.36-1.29,18.49-2.38,37-4.14,55.45-.45,4.67-.74,9.37-1.31,14-.51,1.31-.54,2.86-1.86,3.76a14.63,14.63,0,0,1-8.33,1.22,109.88,109.88,0,0,0-15.17-.56H260.5c-2.21,0-4.45.25-6.61-.53-2.12-1.37-1.29-3.33-.77-5,4.69-15,8-30.4,11.34-45.74,6.58-30,16.94-59,24.88-88.62,4.17-15.55,8-31.16,9.5-47.25a46.72,46.72,0,0,0-2.75-21.18c-3.25-8.5-10.07-13.24-18.17-16.39-10.25-4-21.06-5.41-31.91-6.43-21.32-2-42.69-2.39-64.09-2.33-5.3,0-10.59-.86-15.92-.73A3.54,3.54,0,0,1,163.26,305.37Z"/><path class="cls-3" d="M133.76,1099.47q0-12.06,0-24.13c0-65.86.43-131.72-.24-197.58-.84-83.79-.16-167.59-.63-251.38,2.82-1.69,5.79-.41,8.59-.14a102.26,102.26,0,0,0,49-7.22c21.29-8.68,37.15-24,50.83-41.95,1.8-2.35,3.53-4.77,5.15-7.26.72-1.11,1.39-2.39,3-2.49,1.9,1.14,2.72,3.16,3.83,4.91,9,14.24,19.74,26.92,33.49,36.86,16.39,11.86,34.56,18.25,54.91,16.84,18.37-1.27,34.37-8.76,48.56-20.29a134.79,134.79,0,0,0,28.36-32.16c1.39-2.16,2.47-4.6,4.7-6.14,1.16-.19,1.83.58,2.46,1.35q8.67,10.63,18.29,20.43c14,14.27,28.91,27.43,48.26,34.21,15.94,5.58,31.36,4,46.37-3.39a122.92,122.92,0,0,0,32.31-23.37c8.87-8.79,17.73-17.59,25.53-27.38.77-1,1.52-2,3-1.88,4,3.93,6.27,9.11,9.64,13.52,11.55,15.11,24.7,28.4,42.07,36.76,27.06,13,53.39,11.09,78.83-4.55,17.25-10.61,29.92-25.64,40.6-42.55.72-1.14,1.21-2.47,2.51-3.15,1.65-.21,2.39,1,3.24,2.08a310.18,310.18,0,0,0,27.17,28.87c10.6,10,22.19,18.52,35.84,24,18.29,7.31,35.91,5.23,52.84-4,15.9-8.69,29.11-20.72,41.2-34.12q6.45-7.15,12.78-14.42c.85-1,1.54-2.31,3.11-2.42,1.68.61,2.27,2.19,3.13,3.52,11.63,18.14,25.64,33.93,44.7,44.54,23.86,13.28,48.42,14.54,73.28,3,21.87-10.11,37.3-27.2,49.84-47.27.94-1.5,1.42-3.54,3.68-3.79,1.65.84,2.33,2.51,3.32,3.91,12.49,17.85,27.18,33.38,46.63,43.79a97.59,97.59,0,0,0,36.71,11,105.89,105.89,0,0,0,22.93,0c2.26-.26,4.4-2,6.81-.7,0,6.19.23,12.38,0,18.56-1.26,37.23-.42,74.46-.57,111.69-.22,54.95.4,109.9-.28,164.84-.7,56.53-.16,113.07-.53,169.6,0,8.91,0,17.82-.06,26.73,0,1.21.31,2.49-.56,3.58-1.49-1.33-1.26-3.15-1.29-4.85-.07-4.45,0-8.91,0-13.37,0-5.83-.09-5.89-6.09-5.92h-3.71q-91,0-181.9,0c-2.32,0-4.73.41-6.9-.87-1.3-1.43-1.2-3.22-1.17-4.93.35-22.52-1.23-45-.8-67.55.21-11.26.38-22.54,0-33.79-1.39-37.5-.13-75-.81-112.49-.17-9.27-1-18.56-.54-27.82,1.26-27.59.17-55.19.8-82.77.17-7.79.78-15.58.56-23.37a126.16,126.16,0,0,0-2.55-24c-3.64-16.46-13.44-26.92-30-30.74a90.94,90.94,0,0,0-20.58-2.55c-14.36,0-28.75-.56-43.07.14-19.93,1-39.86-.13-59.75.7-30.07,1.26-60.14,0-90.2.7-64.47,1.53-129,.77-193.43.46-32.29-.16-64.6.27-96.87-.69-19.06-.57-38.13.22-57.15-.69-18.32-.88-36.62-.41-54.93-.57a76.87,76.87,0,0,0-22.31,3.39c-15.13,4.44-23.5,15.05-26.6,30a118.46,118.46,0,0,0-2.26,35.79,35.3,35.3,0,0,1,.17,3.71c-.17,42.94,1.55,85.88.67,128.83-.69,34,0,68.07-.85,102.08-.69,27.11-.18,54.2-.55,81.3-.52,38.47.33,77,0,115.42,0,2.18.46,4.5-1.1,6.44-1.71-.17-1.69-1.58-1.87-2.74a31,31,0,0,1-.14-4.82q0-41.4,0-82.79c0-5.79,0-5.81-5.73-5.81q-92.8,0-185.6-.1A10.27,10.27,0,0,0,133.76,1099.47Z"/><path class="cls-4" d="M1005.68,1209.37c-9.16,0-18.32.14-27.47.12q-36,0-72.05-.18c-19.56,0-39.13.15-58.68-.17-44.31-.73-88.62-.24-132.93-.62a3.6,3.6,0,0,1-.81-1.24c-.61-2.19-.39-4.43-.39-6.65,0-45.27.41-90.55-.18-135.81-.31-24.36,0-48.73-.67-73.07-1.35-46.62-.2-93.25-.64-139.87a18.19,18.19,0,0,1,.32-4.42c.59-2.21,2.57-2.89,4.32-3.72,14.76-7,29.72-13.49,44.69-20,40.26-17.48,80.87-34.14,120.91-52.1,23.14-10.38,45.9-21.53,68.43-33.13q19.46-10,38.2-21.35a6.53,6.53,0,0,1,2.72-1.12c5.6.16,9.57,2.94,12.26,7.71A27.63,27.63,0,0,1,1007.3,735c.62,7.38,1.88,14.75.57,22.19a38.06,38.06,0,0,0-.19,6.67c0,93.43.54,186.86-.22,280.28-.43,53.19-.12,106.39-.54,159.59C1006.9,1205.68,1007.18,1207.73,1005.68,1209.37Z"/><path class="cls-4" d="M714.51,1207.82c0,.23,0,.46,0,.7a8.33,8.33,0,0,1-1.1.16l-56-.09q-18.36,0-36.73,0c-28.19.06-56.39-.13-84.58.27-31,.45-62.06.29-93.09.47-.62,0-1.23.07-1.85.11a7.34,7.34,0,0,1-3.29.28H371.07c-3.95,0-4.39-.42-4.59-4.41-.07-1.48,0-3,0-4.45,0-60.52-.11-121.05.1-181.57,0-10.13-.34-20.26-.1-30.39a25.67,25.67,0,0,1,.33-5.54c.64-1.59,1.49-2.19,2.23-.13.68,1.89.33,3.93.34,5.9,0,3.46,0,6.93,0,10.39.06,3.23.54,3.56,3.49,2.2,10.22-4.71,20.52-9.25,30.78-13.88l55.48-25q32.65-14.73,65.31-29.4,30.45-13.72,60.92-27.37c21.44-9.64,42.91-19.19,64.28-29a65.39,65.39,0,0,1,7.22-2.94c2-.66,3.68-.26,4.35,2.09a21,21,0,0,1,.31,4.81c0,31.2.53,62.41-.18,93.6-.44,19.55.22,39.12-.7,58.64-.87,18.45.05,36.89-.67,55.31-1.43,37.13-.24,74.26-.66,111.39-.07,6.67,0,6.67,6.79,6.68q21.36,0,42.71,0C710.76,1206.73,712.81,1206.42,714.51,1207.82Z"/><path class="cls-5" d="M367.74,982.07c-.06,8.28-.55,16.56.44,24.81.33,2.73-.43,5.4-.43,8.13q0,65.85-.17,131.72,0,28.56-.1,57.14c0,.74,0,1.48,0,2.22.06,3.33.06,3.34,3.23,3.39,1.24,0,2.47,0,3.71,0l64.92-.09c.62,0,1.24.07,1.85.11-.77.86-1.8.66-2.77.66-22.83,0-45.67.54-68.47-.18-11.7-.37-23.39-.14-35.07-.59a28.67,28.67,0,0,1,0-17c0-1.36.12-2.72.12-4.08,0-29.22,0-58.43.06-87.64,0-4-.92-7.84-.76-11.81,1.22-30.55,0-61.12.89-91.66.81-28.95-.16-57.9.72-86.83,1-31.68.69-63.35.33-95-.23-19.78-.12-39.57-.64-59.35-.11-4.05-.8-8.13-.5-12.19.76-10.55.92-21.16,4.38-31.38,4.51-13.29,13.69-21.44,27-25.12a86.2,86.2,0,0,1,23.39-3.12c14.73.06,29.48-.42,44.18.22,19.42.86,38.84-.05,58.23.69,30.56,1.17,61.12.08,91.66.72,64,1.32,128,.7,191.91.38,32-.16,64.09.2,96.11-.7,20-.56,40.08.19,60.09-.7,18.3-.82,36.6-.62,54.89-.45a65.13,65.13,0,0,1,26.6,5.62c9.91,4.52,16.33,12.09,19.78,22.32,2.26,6.72,3.12,13.64,3.77,20.67a165,165,0,0,1,.51,22.22c-1.2,27.33-.12,54.68-.85,82-.26,9.89-.7,19.78-.38,29.64,1.17,36.62-.19,73.26.79,109.86.71,26.35-.12,52.71.75,79,.43,13.11.23,26.21.52,39.31,1.27,1.42,1.22,3.18,1.22,4.91,0,15.06.59,30.15-.14,45.18-.94,19.39-.22,38.76-.6,58.13,0,2.07.38,4.23-1,6.1l-32.22.08c.07-50.74-.23-101.49.34-152.23.51-45.17.34-90.33.5-135.5.19-54,.1-107.92.13-161.89,0-4.07.76-8.13.44-12.21-.38-4.93-.37-9.88-1.34-14.75a30.38,30.38,0,0,0-2.41-7.38c-2.67-5.5-7-8.44-13.22-8.5a13.38,13.38,0,0,1-6.12,1.17H717.25c-.87,0-1.73-.06-2.59-.12q-28.2.22-56.4,0c-12.12.25-24.24-.44-36.35-.55-34.78-.32-69.57.3-104.34-.28-19.67-.33-39.35,0-59-.71-17.92-.61-35.85-.72-53.77-1.33a58.48,58.48,0,0,0-16.16,2.08,23.92,23.92,0,0,0-17.18,15,30.58,30.58,0,0,0-2.07,7.12c-1.49,10-2.66,20.1-1.47,30.28a53.14,53.14,0,0,1,.17,6.31c0,50.26-.24,100.52.15,150.77.12,16.57.59,33.15.58,49.73C368.81,978.33,369.19,980.39,367.74,982.07Z"/><path class="cls-6" d="M1120.18,539.3c-2.68-8-4.61-16.14-6.69-24.27-8.56-33.38-15.89-67-23.88-100.56-5.61-23.56-11.69-47-18.66-70.19a57.12,57.12,0,0,1-2.78-17.12c.08-9.65,4.52-15.85,13.7-18.88a45.1,45.1,0,0,1,14.22-2.21q30.81,0,61.63-.05c9.41,0,18.83.19,28.22-.21,7.91-.34,15.82-.21,23.73-.49l32.6,88.32q24.15,65.37,48.26,130.76c1.92,5.2,4.16,10.3,5.57,15.68-1.66,1.47-3.72,1.16-5.66,1.16-21.88,0-43.78.61-65.64-.12-32.87-1.11-65.74-.17-98.61-.62C1124.14,540.47,1121.94,540.92,1120.18,539.3Z"/><path class="cls-6" d="M163.26,305.37c15.71.26,31.42.33,47.12.85,12.46.41,25,.77,37.36,2.15,10.44,1.17,20.85,2.55,30.73,6.45,7.33,2.9,13.61,7.09,17.42,14.25,2.78,5.23,3.81,10.95,4.07,16.79.36,8.33-.9,16.52-2.43,24.66-3.65,19.46-9.39,38.38-14.92,57.35-5.33,18.26-11.35,36.32-15.57,54.9-3.44,15.17-6.61,30.4-10.81,45.4-1,3.68-2.46,7.25-3.12,11a2.77,2.77,0,0,1-1.19.87,14.85,14.85,0,0,1-4.79.42c-6.06,0-12.13.07-18.19,0-48.51-.52-97,1.21-145.52.73-2.3,0-4.75.56-6.79-1.12,3.22-9,6.39-17.92,9.68-26.84q15.73-42.61,31.54-85.19Q139.69,369,161.48,309.81C162,308.32,162.67,306.85,163.26,305.37Z"/><path class="cls-7" d="M334.86,1192.33q0,8.52,0,17c-7.29.23-14.57.49-21.86.67-14.45.35-28.92.47-43.36,1-23.24.92-46.47.77-69.71.5-9.52-.11-19-.71-28.31-2.94-8.52-2-16.43-5.37-23-11.37-7.9-7.22-12-16.46-14.17-26.72a92.22,92.22,0,0,1-1.68-19.9c.1-10.88,0-21.77.36-32.64.19-6.18.47-12.35.62-18.53.08-.09.2-.18.23-.29,1-4.19,1-4.19,5.33-4.19q94.83,0,189.65,0c5.8,0,5.27-.7,5.28,5.45q0,43.8,0,87.6C334.28,1189.46,333.82,1191,334.86,1192.33Z"/><path class="cls-7" d="M1037.9,1209.29c0-18.56-.39-37.14.06-55.69.45-19,.11-38.1.34-57.15,0-.49.06-1,.09-1.48l194.85,0c5.45,0,5-.51,5,4.94l.06,20.41c0,10.51-.19,21-1,31.51-.7,9.35-1.69,18.67-4.18,27.8-4,14.55-13.34,23.27-27.88,26.7a123.38,123.38,0,0,1-22,3.08c-33.5,1.72-67,.6-100.55.69q-13.73,0-27.46-.19C1049.5,1209.84,1043.7,1209.51,1037.9,1209.29Z"/><path class="cls-8" d="M1120.18,539.3c27.6,0,55.21-.37,82.8.14,31,.57,62.08.49,93.12.64,1.72,9.84.35,19.44-2.51,28.85-4.25,14-12.4,25.69-22.83,35.82-8.93,8.65-18.75,16-30.44,20.59-9.26,2.78-18.66,2.58-28.19,1.81a101,101,0,0,1-55.74-22.45,152.47,152.47,0,0,1-32.65-37.06,3.67,3.67,0,0,1-1.66-3.11c-.9-7.57-1.77-15.14-2.73-22.71a3.59,3.59,0,0,1,.46-2.48A2.33,2.33,0,0,1,1120.18,539.3Z"/><path class="cls-8" d="M76.63,540.11c24.14,0,48.3.49,72.41-.23,32.05-1,64.08-.17,96.12-.58,2.47,0,5,.06,7.42.09a4,4,0,0,1,.71,3.48c-.92,7.18-1.7,14.38-2.64,21.56-.15,1.17-.05,2.52-1.45,3.14a227.74,227.74,0,0,1-14.47,19.26c-16.29,18.77-35.55,32.89-60.29,38.27-10.91,2.37-22,3.44-33.13,2-2.81-.36-5.65-.48-8.47-.72-8.69-6.72-17.63-13.1-26-20.26-8.56-7.34-16.52-15.23-22.24-25.08A62,62,0,0,1,76.63,540.11Z"/><path class="cls-9" d="M426.21,536.36l2.16-25.47c.31-3.57.46-7.15.76-10.72.78-9.11,1.13-18.25,1.76-27.37.87-12.57,1.85-25.13,2.76-37.7.59-8.26,1-16.53,1.72-24.77.78-9.11,1.86-18.18,2.69-27.28s1.88-17.93,3.18-26.85c1.46-10,3.21-20,7.92-29.18a32.37,32.37,0,0,1,17.53-15.73c7.88-3.14,16.18-4.48,24.56-5.21,20.36-1.79,40.77-1.6,61.17-1.36a85.14,85.14,0,0,1,21.63,2.75c13.75,3.78,21.55,12.74,23.91,26.73,2.07,12.29,1.46,24.67,1.3,37-.21,16.94-.35,33.89-.83,50.83-.42,14.72-.19,29.44-.73,44.15-.87,23.63-.39,47.26-.51,70.89,0,.74.08,1.48.12,2.22l-.55.5c-1.74.88-3.62.69-5.46.7H432.65c-1.12,0-2.23,0-3.34-.08C426.73,540.25,425.33,539.18,426.21,536.36Z"/><path class="cls-9" d="M775.62,538.62q0-21.54-.08-43.06c0-15.47.19-30.95-.31-46.4-.43-13.48-.08-27-.72-40.43-.52-10.64-.21-21.28-.67-31.9q-.55-13-.57-25.95a89.47,89.47,0,0,1,2-18.39c2.81-13.37,11.19-21.38,24.17-24.82a86.57,86.57,0,0,1,16.82-2.49c11.49-.71,23-.44,34.49-.84,4.82-.17,9.64-.58,14.44-.31,10.1.58,20.22.5,30.23,2.54,14.42,2.94,23.94,11.08,28.62,25a135.22,135.22,0,0,1,5.2,22.72c2,13.06,3,26.24,4.32,39.38.73,7.25,1.09,14.53,1.7,21.79.87,10.21,1.85,20.42,2.74,30.62.58,6.65,1,13.3,1.66,19.94.88,9.59,1.83,19.17,2.77,28.75.51,5.17,1,10.33,1.6,15.48q1.6,14.53,3.28,29.07c-.19.16-.37.33-.55.5a8,8,0,0,1-4,.68q-80.93.06-161.84,0C779,540.48,776.83,540.79,775.62,538.62Z"/><path class="cls-10" d="M1119.81,539.34c1.5,5.95,1.65,12.1,2.53,18.14.5,3.38.56,6.83,1.41,10.16-3.78,5.35-7,11-11,16.26-11.31,14.89-24.7,27.29-41.77,35.35a78.43,78.43,0,0,1-41.46,7.5c-14.7-1.37-28-6.73-40.18-15C973.64,601,961.58,586.91,951.46,571c-.73-1.14-1.5-2.26-2.26-3.39-1.32-1.4-1-3.24-1.23-4.91-.79-7-1.11-14-1.58-21a3.42,3.42,0,0,1,.64-2.44l.24,0Z"/><path class="cls-10" d="M249.2,567.57q1.7-14.09,3.38-28.18a2,2,0,0,1,.53-.18c8.53,0,17.06.1,25.59.11H410.41a23.35,23.35,0,0,1,5.51.49,10.72,10.72,0,0,0,5.86-.14,11.13,11.13,0,0,1,3.67-.35,3.1,3.1,0,0,1,1.05,3c-.86,7.52-.93,15.12-2,22.62a4.19,4.19,0,0,1-1,2.68,187.26,187.26,0,0,1-16.66,23.2c-11.63,13.35-25.05,24.33-41.75,30.71-25.07,9.57-49.06,6.65-71.87-7-16.82-10.08-29.52-24.31-40.08-40.6C251.78,571.8,250.51,569.67,249.2,567.57Z"/><path class="cls-10" d="M773.46,567.59A155.32,155.32,0,0,1,753.2,595c-14.51,15.39-31.44,26.71-52.6,30.71-16.31,3.08-32,.84-47.08-5.92-14.85-6.67-27-16.86-37.63-29a172.58,172.58,0,0,1-16.67-23.17,5.71,5.71,0,0,1-1.41-3.76c-.48-7.27-.92-14.55-1.56-21.81a3.91,3.91,0,0,1,.83-2.78l.23,0c2.72,0,5.45,0,8.17,0,48.48,1.22,97,.52,145.45.65,8.14,0,16.3.6,24.41-.65a4.09,4.09,0,0,1,1.17,3.71c-.64,7.07-1.16,14.15-1.63,21.23A4.92,4.92,0,0,1,773.46,567.59Z"/><path class="cls-8" d="M773.46,567.59c.62-7.7,1.28-15.39,1.86-23.09.13-1.71,0-3.44,0-5.16.09-.24.19-.48.28-.73,1.59,1,3.36.67,5.07.67H947c1.19,9.4,1.66,18.86,2.17,28.32-7.86,9.21-15.67,18.47-24.41,26.88-9.73,9.36-20,18.1-31.95,24.52-10.17,5.45-20.93,8.88-32.58,8.59a62.84,62.84,0,0,1-25.36-6.2,119.56,119.56,0,0,1-27.07-18c-6.49-5.57-12.45-11.66-18.38-17.79-5.07-5.24-9.79-10.8-14.42-16.44A19.27,19.27,0,0,0,773.46,567.59Z"/><path class="cls-8" d="M597.08,539.26q1.08,14.18,2.14,28.35c-3.58,4.08-7.1,8.22-10.74,12.24C576,593.64,563,606.85,547,616.59a75.09,75.09,0,0,1-25.71,10.17c-12,2.16-23.59.23-34.72-4.6-11.93-5.17-22.23-12.8-31.85-21.42a297,297,0,0,1-30.65-32.68,3.73,3.73,0,0,0-.58-.45l1-15.06q.47-6.6.92-13.22c.36-1,0-2.12.77-3,.49,2.89.49,2.92,3.78,2.92H498Z"/><path class="cls-11" d="M714.51,1207.82c-.61,0-1.23.13-1.85.13q-25.6,0-51.22,0c-3.26,0-3.31-.06-3.31-3.31,0-36.14-.34-72.28.24-108.41.28-17.68-.09-35.37.65-53,.83-19.91.12-39.82.73-59.72,1.11-36.12.34-72.24.52-108.35a1.61,1.61,0,0,1-.2-1.58,20.07,20.07,0,0,1,5.25-3.41c15.38-7.84,30.6-16,45.9-24a3.83,3.83,0,0,1,1.06-.32,1.53,1.53,0,0,1,1,.3,129.91,129.91,0,0,0-.25,14.09c0,41.06-.36,82.14.25,123.19.33,22.62.06,45.25.61,67.86C715.19,1103.45,714.43,1155.64,714.51,1207.82Z"/><path class="cls-12" d="M714.6,716.89c1.23,0,2.47-.14,3.7-.14l268.12.06c1.23,0,2.47.06,3.7.1-2.55,3-6.3,4.24-9.56,6.15-22,12.89-44.8,24.18-67.68,35.33-13.2,6.43-26.59,12.49-40.08,18.31-10.88,4.69-21.65,9.63-32.52,14.33-10.64,4.61-21.36,9-32,13.57q-13.63,5.79-27.23,11.64c-10.09,4.31-20.21,8.58-30.27,13-7.92,3.46-15.77,7.07-23.64,10.63q-6.92,3.13-13.8,6.31H713c-1.3-1.43-1.1-3.23-1.08-4.94.05-6.42-.26-12.85.57-19.26a75.13,75.13,0,0,0,.13-11.13c-.52-29.55,1.12-59.09.77-88.65C713.34,720.32,713.19,718.41,714.6,716.89Z"/><path class="cls-13" d="M803.89,951.56c16.05-.21,24.76,12.29,24.85,26.87.1,15.53-12.17,22.47-25.19,24.91-14.36-1.76-25.72-9.36-26-27.56C777.42,962.9,789.16,950.84,803.89,951.56Z"/><path class="cls-14" d="M660.35,873.59c0,.51-.05,1-.08,1.54-1.47-1.25-2.89-.23-4.16.29-4.56,1.9-9.05,4-13.55,6q-17.41,7.79-34.81,15.59c-8.44,3.8-16.84,7.69-25.29,11.48s-17.14,7.61-25.7,11.44c-5.64,2.52-11.24,5.1-16.87,7.64q-18.06,8.13-36.13,16.24c-8.44,3.81-16.85,7.69-25.29,11.48s-17.15,7.61-25.71,11.44c-5.74,2.57-11.45,5.23-17.2,7.81q-17.9,8.06-35.8,16.07-12.83,5.79-25.62,11.65c-1.67.77-3.26,1.72-5.12,1.82-.93-.86-.6-1.91-.61-2.84,0-5.2,0-10.4-.05-15.59,0-1.2.38-2.5-.62-3.54-.09-12.62-.09-25.25-.27-37.87-.83-57.67-.47-115.35-.82-173,0-7.67-.12-15.33.28-23a54.74,54.74,0,0,1,2.9-15.24,25.18,25.18,0,0,1,17.88-16.81,62.42,62.42,0,0,1,15.38-2.2c12.13-.33,24.24.54,36.36.76,22.27.41,44.54.48,66.81.91,32.17.62,64.34.33,96.51.61q25.8.22,51.59.48c1.24,0,2.47.13,3.7.2,1.32,1.41,1.22,3.18,1.22,4.91,0,23.49.66,47,.94,70.47.25,20.76.38,41.53.64,62.3,0,4.69.89,9.36.66,14.07C661.44,870.37,661.6,872.14,660.35,873.59Z"/><path class="cls-13" d="M595.05,977.63c.21,9.14-3.38,15.57-10.39,20-8.24,5.19-17,7.23-26.36,3.08a22.71,22.71,0,0,1-8.94-7.6,29.17,29.17,0,0,1-5.57-21.36,17.58,17.58,0,0,1,4.07-9c4.78-5.86,11.16-9.24,18.22-11.49a6.37,6.37,0,0,1,2.56-.29c8,.78,15.38,2.86,20.56,9.49A26.41,26.41,0,0,1,595.05,977.63Z"/><path class="cls-15" d="M660.35,873.59c-.89-21-.34-42-1-63-.58-20.13,0-40.27-.77-60.38-.41-11.12-.2-22.22-.57-33.32.86-.07,1.72-.18,2.57-.18H712c.85,0,1.71.11,2.57.17-.05,13.34.3,26.7-.24,40-.86,21.61-.05,43.22-.79,64.81-.28,8.14-.14,16.28-.59,24.41q-13.87,7.32-27.74,14.65c-7.61,4-15.2,8.08-22.82,12.09A13,13,0,0,1,660.35,873.59Z"/></svg>