<svg id="Layer_1" data-name="Layer 1" xmlns="http://www.w3.org/2000/svg" viewBox="0 0 1366 1366"><defs><style>.cls-1{fill:#fff;}.cls-2{fill:#755730;}.cls-3{fill:#e9f0f7;}.cls-4{fill:#d5e3f3;}.cls-5{fill:#573f20;}.cls-6{fill:#6685a0;}.cls-7{fill:#be9055;}</style></defs><path class="cls-1" d="M685.77,45.81q312.69,0,625.39,0a41.29,41.29,0,0,1,12,1.45,8.82,8.82,0,0,0,1.74.42c6,.52,10.57,3.89,15.07,7.41,1.57,1.22,2.4,3,3.67,4.51a24.17,24.17,0,0,1,5.07,10.83,79.58,79.58,0,0,1,2.12,18.21q-.11,312.25,0,624.5a40.25,40.25,0,0,1-1.49,12,9.61,9.61,0,0,0-.39,1.75c-.53,6-3.93,10.55-7.41,15.08-1.31,1.7-3.31,2.55-4.87,3.94-2.89,2.58-6.39,3.64-10.05,4.65a68.17,68.17,0,0,1-20.45,2.25c-4.64-.15-9.3,0-14,0-1.52,0-1.84.36-1.89,1.84,0,1.2,0,2.4,0,3.6v361.73q0,82.78,0,165.57a36.81,36.81,0,0,1-1,8.45l-.93,3.93c-1.76,7.43-1.83,7.38-6.24,13.67-1.61,2.29-3.81,3.76-5.89,5.46a25.63,25.63,0,0,1-10.45,4.85,77.56,77.56,0,0,1-18.67,2.12q-209.21-.12-418.42-.06-134.09,0-268.15,0-218.67,0-437.33,0a45.61,45.61,0,0,1-12-1.43,9.27,9.27,0,0,0-1.73-.47c-6.08-.31-10.53-4-15.07-7.38-1.72-1.29-2.6-3.28-3.94-4.88a23.45,23.45,0,0,1-4.48-9.62,76.79,76.79,0,0,1-2.4-20c.12-41.84.06-83.69.06-125.53a27.78,27.78,0,0,0-.6-7.14,19.6,19.6,0,0,1-.22-4.92V758.37c0-1.35,0-2.7,0-4,0-1.13-.67-1.57-1.7-1.58l-12.15,0c-.9,0-1.81-.07-2.7,0-8.5.74-16.69-1-24.83-3.12a5.32,5.32,0,0,1-1.71-.48c-3.77-2.67-8-4.76-10.78-8.66-4.66-6.48-4.59-6.48-6.49-14.05a64.68,64.68,0,0,1-1.8-16q.08-312.46,0-624.94A37.37,37.37,0,0,1,22.17,74c.18-.56.24-1.17.37-1.75,1.93-8.39,1.95-8.37,7.21-15.17a26.41,26.41,0,0,1,4-3.54c3.73-3.24,8.09-4.8,12.86-5.93a69.58,69.58,0,0,1,16.45-1.79Q374.42,45.84,685.77,45.81Z"/><path class="cls-2" d="M54.91,718.94c-.09-1.94-.26-3.88-.26-5.83q0-236.42,0-472.85,0-77.38,0-154.76c0-6.91-.73-6,5.91-6H1311.29c1.5,0,3,0,4.49.12a1.26,1.26,0,0,1,1.17,1.16,8.56,8.56,0,0,1,.12,1.34c0,1.2,0,2.4,0,3.6q0,313.82,0,627.62c0,1.9.51,3.89-.54,5.71a4,4,0,0,1-2.61.43c-37-.74-74,1.21-111,1.12-101.66-.24-203.32-.08-305-.1-3,0-6,.4-8.89-.73-1.59-1.09-1.12-1.9.43-2.38a17.53,17.53,0,0,1,5.36-.37h99c1.05,0,2.1,0,3.15,0,2.94.14,3.48-.82,1.78-3.32-5-7.44-9.84-15.06-14.82-22.55-24.24-36.45-48.21-73.08-72.35-109.6Q872.78,522.77,834.1,464,795,404.63,755.9,345.27q-32.52-49.39-65-98.8c-.74-1.13-1.48-2.26-2.24-3.37-2.67-3.86-3.13-3.88-5.91.13L674.8,254.7q-32.34,46.8-64.62,93.65-37.9,55.26-75.18,111-66,98.41-128.76,199c-10.92,17.57-21.63,35.27-32.42,52.92-1,1.57-3.09,3.25-2,5.07.9,1.54,3.33.68,5.08.68q48.35.06,96.7,0c1.94,0,3.92-.22,5.81.41,1.28.44,1.74,1.16.46,2.21-2.12,1-4.4.85-6.64.85-116.58,0-233.17.34-349.75-.27-22-.12-44-.25-66-.74A3.77,3.77,0,0,1,54.91,718.94Z"/><path class="cls-3" d="M54.91,718.94H318.56q40.28,0,80.54,0,38.46,0,76.93-.16c1.41,0,3,.65,4.22-.74,1.56-5.78,5.65-10.14,8.78-15q17.46-27,35.18-53.82,38.79-59,77.43-118,33-50.37,66-100.81c4.11-6.27,8.06-12.64,12.32-18.8,2.51-3.63,3.75-3.58,6.35-.06,2.24,3,4,6.37,6,9.48,36.48,54.41,72.52,109.1,108.74,163.68,19.4,29.22,39,58.31,58.18,87.67,8.94,13.68,18.08,27.22,27,40.89,1,1.46,2.41,2.76,2.12,4.79a1.45,1.45,0,0,0,1.41.89c1.34,0,2.69,0,4,0H996.36q128.16,0,256.31-.06,29.46,0,58.91,0c1.64,0,3.29.05,4.94.07a2.73,2.73,0,0,1-2.42.9h-52.18c-1.2,0-2.4,0-3.6.05-1.41.08-2,.56-2,1.87-.09,1.49-.07,3-.07,4.49v305.43q0,46.11,0,92.21c-1.32,1.21-3,1.35-4.63,1.42-1.49.05-3,0-4.49,0H829.72c-2.69,0-5.41.26-8-.54-1.86-.75-2-2.42-2.17-4.08s-.08-3.6-.08-5.4c0-55.6.09-111.2,0-166.8-.08-34.19-10.1-65-32.81-91-21.29-24.34-47.93-39.59-80.06-44.39C664.9,807,628,818,596.58,845.77c-24,21.2-37.94,48.32-42.71,80-.42,2.82-.89,5.62-1.48,8.42-.65,2.36-.39,4.78-.39,7.17q0,87.47,0,174.93c0,8.72-.33,9.06-9.13,9.06H128.68c-10.07,0-9.32-.46-9.33,9.24q0,73.75,0,147.5c0,2.79.61,5.75-1.4,8.23a2.23,2.23,0,0,1-.92-1.94c0-1.5,0-3,0-4.5q0-278.15,0-556.3c0-1.2,0-2.4,0-3.6,0-4.08,0-4.08-3.92-4.14h-2.7c-16.94,0-33.88,0-50.81,0C58,719.86,56.2,720.49,54.91,718.94Z"/><path class="cls-2" d="M551.51,933.19c1.2-8.3,2.36-16.6,4.64-24.7a134.9,134.9,0,0,1,96-94,131.65,131.65,0,0,1,34.71-4.23,134.55,134.55,0,0,1,130.31,105.7,148.6,148.6,0,0,1,3.21,31.25q0,85.7,0,171.4c0,1.8.13,3.59.2,5.38,1.57,1.72,1.48,3.87,1.48,6q0,76.88,0,153.75c0,2.45.48,5.26-2.48,6.69-1.34,0-2.69-.08-4-.08H555.86c-1.34,0-2.69,0-4,.08-2-1.9-1.64-4.41-1.64-6.76,0-51.24-.92-102.49.21-153.7,1.4-63.79.14-127.56.81-191.33C551.22,936.76,550.87,934.94,551.51,933.19Z"/><path class="cls-4" d="M819.62,1290.34a3.42,3.42,0,0,0,.8-2c0-1.34,0-2.69,0-4q0-77.46,0-154.94c0-1.79.13-3.58.19-5.37h435.57q0,63.87,0,127.73,0,17.31,0,34.63c0,4,0,4-4,4.1H821.42C820.82,1290.4,820.22,1290.36,819.62,1290.34Z"/><path class="cls-4" d="M551.51,933.19c0,4.2-.14,8.39-.15,12.59q0,58.49-.05,117,0,110.89,0,221.8c0,1.93-.32,3.91.49,5.78-1.35,0-2.69.07-4,.07H122l-4,0q0-47.91,0-95.81,0-32.61,0-65.22c0-5.7-.26-5.4,5.37-5.4H543.79c1.65,0,3.3,0,5-.06,1.35-.07,1.81-.58,1.89-2s0-3,0-4.49V945.56c0-3.3,0-6.6,0-9.9A3,3,0,0,1,551.51,933.19Z"/><path class="cls-5" d="M888.39,718.09c-.71-1-1.45-1.91-2.11-2.9L687.71,415.83l-4.32-6.48c-1.66,1-2.31,2.54-3.18,3.86q-22.94,35-45.83,70L483.88,713c-1.14,1.75-2.41,3.41-3.63,5.12H375c-1.35,0-2.7,0-4.05,0-1.69-.07-2.1-.82-1.2-2.36,2.12-3.61,4.31-7.18,6.48-10.75q5.47-9,11-18c3-5,6.12-9.92,9.18-14.88q7.41-12,14.81-24.05c3.06-5,6.12-9.92,9.23-14.85q8.59-13.66,17.27-27.28c5.72-8.93,11.67-17.73,17.24-26.76,2.75-4.46,5.69-8.78,8.53-13.17,8.12-12.55,16.45-25,24.43-37.6C497.31,513.46,507.45,499,517,484.2c3.72-5.78,7.36-11.62,11.29-17.26,12-17.17,23.29-34.77,35-52.11,5.53-8.17,11.12-16.29,16.66-24.45,4.7-6.93,9.22-14,14.12-20.76,3.68-5.1,7.06-10.38,10.62-15.55,6.95-10.09,13.84-20.22,20.79-30.31q8.9-12.92,17.84-25.81c5.52-8,11-16,16.54-24q6.9-9.93,13.9-19.81,5.28-7.5,10.6-15a5.39,5.39,0,0,1,.84-1,.87.87,0,0,1,1.22,0,14.35,14.35,0,0,1,1.33,1.77q10,15.15,20,30.31,10.39,15.71,20.82,31.4c8.24,12.47,16.65,24.83,24.66,37.45C761.65,352.2,770.51,365,779,378c8.73,13.4,17.77,26.61,26.39,40.08,8.21,12.85,16.85,25.42,25.21,38.17q13.41,20.44,26.9,40.83,13.08,19.84,26.16,39.68,12.09,18.36,24.16,36.72L934,613.17q13.1,19.85,26.17,39.69,13,19.65,25.89,39.33,7.28,11.05,14.52,22.12a21.58,21.58,0,0,1,1.4,2.29.88.88,0,0,1-.68,1.34,28.51,28.51,0,0,1-3.58.16Z"/><path class="cls-6" d="M257.13,915.9q0-64.32,0-128.66c0-1.5,0-3,.06-4.5a1.59,1.59,0,0,1,1.74-1.64c1.2,0,2.4,0,3.6,0H409.19c1.05,0,2.1,0,3.15,0,1.55.1,2.05.61,2.17,2.25.08,1.2.06,2.4.06,3.6q0,129.12,0,258.23c0,1.34,0,2.7-.11,4a1.75,1.75,0,0,1-1.8,1.65c-1,0-2.1.06-3.14.06H262c-.9,0-1.8,0-2.7,0-1.59-.1-2-.54-2.09-2.26-.06-1.35,0-2.7,0-4Q257.13,980.23,257.13,915.9Z"/><path class="cls-6" d="M960.83,917.41q0-64.33,0-128.67c0-1.5,0-3,.16-4.48a1.22,1.22,0,0,1,1.17-1.15c1.35-.09,2.7-.13,4-.13H1112c1.35,0,2.7,0,4,0,1.57.08,2.08.59,2.18,2.23s0,3,0,4.5q0,94,0,188.06,0,34.63,0,69.28c0,1.35,0,2.7-.13,4a1.69,1.69,0,0,1-1.76,1.66q-1.57.06-3.15.06H965.66c-.75,0-1.51,0-2.25,0-2.22-.1-2.48-.36-2.56-2.7-.05-1.35,0-2.7,0-4.05Z"/><path class="cls-7" d="M734.21,1080.08c0-12.28,0-24.57,0-36.86A14.81,14.81,0,0,1,737,1034c2.92-4,6.74-6.29,11.75-6.37a18.21,18.21,0,0,1,7.89,1.17c4.5,1.94,7,5.37,8.73,9.73a11,11,0,0,1,.5,4c0,3.6,0,7.19,0,10.79q0,31.24,0,62.48a25.93,25.93,0,0,1-.32,4.91,13.6,13.6,0,0,1-5.46,8.51c-6.81,5-13.29,5.16-20.2-.15a14.14,14.14,0,0,1-5.71-12.08C734.33,1104.66,734.21,1092.37,734.21,1080.08Z"/></svg>