<svg id="Layer_1" data-name="Layer 1" xmlns="http://www.w3.org/2000/svg" viewBox="0 0 1366 1366"><defs><style>.cls-1{fill:#fff;}.cls-2{fill:#724444;}.cls-3{fill:#4c6479;}.cls-4{fill:#d5ab59;}.cls-5{fill:#8caac7;}.cls-6{fill:#364f5c;}.cls-7{fill:#e8d2b5;}.cls-8{fill:#e8d1b4;}.cls-9{fill:#e8d1b3;}.cls-10{fill:#8ba9c6;}</style></defs><path class="cls-1" d="M1336.19,338.16c0-.15,0-.3-.09-.44a11.7,11.7,0,0,0-2.22-4.86,36.69,36.69,0,0,1-2.9-4,16.59,16.59,0,0,0-4.38-4.46c-6.5-4.67-6.49-4.69-14.51-6.52-.88-.2-1.75-.44-2.62-.65a39,39,0,0,0-9.33-1.1c-28.37.06-56.73.15-85.09,0a93.7,93.7,0,0,0-24,2.68,27.84,27.84,0,0,0-13.16,8.14,42.78,42.78,0,0,0-7.87,12Q1134.33,417,1098.5,495q-27.43,59.87-54.9,119.72c-2.09,4.56-1.18,3.89-5.84,3.89q-37.14,0-74.28,0c-1.2,0-2.4-.08-3.6-.13-.44-.58-1.53.18-1.75-.84.54.92,1.2.45,1.85.16a49.7,49.7,0,0,0,13.63-6.75c11.84-8.52,11.87-8.48,20.46-20.51l.54-.73a40.77,40.77,0,0,0,6.71-14.61c1.38-5.68,2.79-11.35,4-17.07a63,63,0,0,0,.79-22.37c-1.18-8.17-3.35-16.13-5.45-24.09a36.5,36.5,0,0,0-5.89-12.06q-2.61-3.66-5.26-7.3c-5.38-7.38-18.56-17.12-27.18-20-1.55-.53-3.16-.93-4.75-1.34-2-.53-4.09-.95-6.11-1.51a117.34,117.34,0,0,0-30.24-3.89c-11.86-.13-23.71-.66-35.56-.69q-31.06-.07-62.13.29c-9.15.1-18.29.17-27.44-.39-8.59-.53-16.91-6.53-19.23-15-2.65-9.68-5.83-19.21-8.81-28.8-4.79-15.45-9.08-31.06-14.36-46.36-7.61-22.07-17.11-43.12-31.32-61.91-7.86-10.4-16.54-19.77-27.31-27.14-1.47-1-2.88-2.09-4.36-3.17a6.31,6.31,0,0,1,3.07-1.42,106.29,106.29,0,0,0,33-15.93c3-2.18,6.1-4.35,9.13-6.56a107.63,107.63,0,0,0,23.25-23c2.76-3.74,5.49-7.51,8.15-11.32A103.65,103.65,0,0,0,781,196.83c2.94-9,4.87-18.24,6.85-27.46a105.4,105.4,0,0,0,1.09-36.26c-1-7.9-3.28-15.54-5-23.29a103.58,103.58,0,0,0-4.71-15.46C772.81,77.89,762.4,64,750.88,50.88a75,75,0,0,0-11.62-10.61c-5.28-4-10.61-7.85-16.07-11.55a94.33,94.33,0,0,0-28-13.06,247.27,247.27,0,0,0-30.67-6.93,101.89,101.89,0,0,0-34.92.83c-6.9,1.38-13.72,3.12-20.58,4.74a103.16,103.16,0,0,0-35.43,16c-4,2.73-7.83,5.56-11.68,8.42a104.62,104.62,0,0,0-21.86,21.91c-2.76,3.74-5.5,7.49-8.17,11.3a99.65,99.65,0,0,0-13.53,26.8,221.79,221.79,0,0,0-8.44,36.3,99,99,0,0,0,.36,28.71c1.06,7,3,13.76,4.45,20.65A109.6,109.6,0,0,0,527.21,217a1.49,1.49,0,0,1,.06,1.83c-4.3-.83-8.8-.92-13.27-1.3-10.06-.84-20.09-.18-30.09.93-8.81,1-17.42,3-26.06,4.88a302.41,302.41,0,0,0-56,17.93C390,246.4,378,251.68,366.13,257c-12.58,5.6-25.14,11.25-38.09,16a226.83,226.83,0,0,0-36.83,17.65c-8.8,5.18-17.06,11.14-25.34,17.1A226,226,0,0,0,223,348a432.9,432.9,0,0,0-43.8,64.75c-9.45,17-18.15,34.48-26.86,51.91-6.23,12.46-12.48,24.92-18.55,37.46a123.89,123.89,0,0,0-9.17,25.31c-1.22,5.1-2.46,10.2-3.6,15.32a52.24,52.24,0,0,0-.29,23.63c1.11,4.67,2.31,9.31,3.36,14a36.8,36.8,0,0,0,6.1,13.41c1.83,2.57,3.71,5.09,5.51,7.68A48.81,48.81,0,0,0,147,612.91c3.27,2.39,6.53,4.79,9.86,7.09a81.73,81.73,0,0,0,25.55,11.88c5.94,1.58,12,2.87,18,4.16a40.21,40.21,0,0,0,18.29-.12c4.5-1.11,9.05-2.06,13.57-3.12a39.2,39.2,0,0,0,14.23-6.47q3.81-2.79,7.66-5.53a54.87,54.87,0,0,0,11.92-11.55A191.27,191.27,0,0,0,286.52,577c9.71-19.78,19.64-39.44,29.49-59.14,5.57-11.14,11.5-22.06,18-32.68a137.5,137.5,0,0,1,21.35-26,79.78,79.78,0,0,1,21.24-14.95c3.63-1.76,7.36-3.34,11.06-4.95.61-.27,1.22-.91,2-.41.46.94,0,1.75-.25,2.6q-17.6,60.4-35.18,120.83c-3.64,12.5-6.75,25.18-12.18,37.11-1.12,2.45-2,5-3.05,7.49-21.72,53.43-39.1,108.19-50.35,164.81-1.53,7.73-4.87,14.76-8.29,21.77a6.46,6.46,0,0,1-3.53,3.27,29.89,29.89,0,0,1-6.81,2.17,235.48,235.48,0,0,1-27.8,2.24c-20.1.68-40.21.45-60.32-.13-15-.43-30-.94-45-1.28-7.65-.17-15.3-.13-22.95,0a101.17,101.17,0,0,0-16.57,1.49c-8,1.38-15.81,3.38-23.63,5.45a41.62,41.62,0,0,0-14.07,6.83c-2.3,1.68-4.63,3.32-6.93,5C45.31,824,35.85,837.05,33,845.84c-.37,1.13-.71,2.29-1,3.45-1.31,5.39-2.76,10.75-3.84,16.18a73.44,73.44,0,0,0-.46,26.85c1.28,7.54,3.24,14.93,5.15,22.33a38.26,38.26,0,0,0,3.65,9.17c4.27,7.62,9.05,15,15.28,21.06a94.48,94.48,0,0,0,25.28,17.77,58.36,58.36,0,0,0,7.1,2.78c8.13,2.66,16.52,4.28,24.85,6.17,7.49,1.7,15.17,2,22.79,2.49,16.32,1.08,32.66,1.82,49,1.92,13.81.09,27.61.08,41.42.08,22.36,0,44.72-.26,67-2.67,7.31-.79,14.59-1.81,21.82-3.13,10.17-1.86,20.2-4.37,30.23-6.87C361.85,958.31,381,950,398,937.24c2-1.53,4.13-3,6.2-4.49a137.89,137.89,0,0,0,26.69-25.34c14.43-18,26.72-37.27,35.54-58.65a51.66,51.66,0,0,1,2.34-4.86q11-20.13,22-40.23c.41-.75.59-1.72,1.82-2.11,1.15.65,2.45,1.37,3.74,2.12l78.24,45.22a33.46,33.46,0,0,0,7.4,3.16q12.91,3.81,25.74,8a151.86,151.86,0,0,1,24.1,9.82,24.17,24.17,0,0,1,10.37,10.26,141.17,141.17,0,0,1,7.88,18.12c4.67,12.82,8.43,25.93,12.25,39s7.77,25.83,10.74,39c3.61,15.93,7.21,31.86,11.15,47.71a197.22,197.22,0,0,0,31.08,68.33,3.72,3.72,0,0,1,1.17,2.65c-2.85.39-5.77.7-8.71.92-9.13.68-18.25,1.42-27.37,2.16-9.57.78-19.13,1.59-28.7,2.37-8.68.71-17.35,1.38-26,2.09q-14.81,1.2-29.6,2.44l-26,2.12-28.26,2.34c-8.82.72-17.64,1.4-26.46,2.12l-29.61,2.43L460.18,1116c-9.71.79-19.43,1.61-29.15,2.4l-26,2.11q-14.58,1.18-29.15,2.4l-26,2.11q-14.58,1.18-29.15,2.4-13,1-26,2.11-14.35,1.17-28.7,2.37c-10,.83-20.05,1.49-30,2.85a367.68,367.68,0,0,0-46.56,10c-9.14,2.49-17.94,6-25.78,11.42-19,13.16-18.71,13.19-30.13,29.13l-.26.37a58.08,58.08,0,0,0-9,19.47c-1.22,4.79-2.31,9.61-3.51,14.41a105.45,105.45,0,0,0-1,45.52c1.44,7.65,3.41,15.21,5.31,22.76a63.91,63.91,0,0,0,10.39,21.78c10.51,14.63,11.14,15.23,25.89,25.87A72,72,0,0,0,182.05,1346c5.42,1.7,11,2.92,16.5,4.35a183,183,0,0,0,46.28,5.87q24.54,0,49.07,0l246.27-.53c19.06,0,38.12-.1,57.17-.08q91.62.06,183.24.18,40.51.06,81,.15,32.19.06,64.38.16,69.11.23,138.21.46a163.16,163.16,0,0,0,34-3c7.62-1.6,15.19-3.42,22.78-5.19a108,108,0,0,0,40.86-19c1.67-1.27,3.39-2.48,5.1-3.69a102.13,102.13,0,0,0,23-22.62c3-4.09,6-8.21,8.93-12.42,7.42-10.82,13.39-22.39,16.8-35.12,2-7.52,3.74-15.12,5.4-22.73a84.6,84.6,0,0,0,1-29.09c-1-7.46-3.08-14.66-4.67-22a112.25,112.25,0,0,0-11-29.37,154.19,154.19,0,0,0-13.48-20.72,11.87,11.87,0,0,1-2.48-7.83q.46-71.81.75-143.61.33-72,.61-144.06l.3-72.93c0-5.71,0-11.41.09-17.11,0-2,.1-2,2-2.22,9.09-1,18.16-2,27-4.43a18.27,18.27,0,0,0,7.24-3.35c2-1.62,4.44-2.65,6-4.72,3.31-4.41,6.92-8.66,7.63-14.52a52.2,52.2,0,0,1,1.8-7q20.55-77.32,41.09-154.65,20.48-77.11,41-154.22c3.34-12.6,6.71-25.2,10-37.81,1.13-4.35,2-8.76,3-13.15Q1337.55,344.07,1336.19,338.16Zm-330,413.93Q990.57,820.91,975,889.75q-16.9,74.52-33.88,149-4.1,18-8.15,36a16.47,16.47,0,0,1-.39,1.75,1.58,1.58,0,0,1-1.32,1.08c-.44.06-.89.12-1.34.16-8.67.67-17.35,1.32-26,2-9,.73-17.93,1.53-26.9,2.28l-24.67,2c-.58,0-1.18,0-2.25,0,1-4.54,1.93-8.64,2.92-12.71a50.46,50.46,0,0,0,1.4-9.78,271.91,271.91,0,0,0-2.3-46.68c-3.06-23.07-8.13-45.73-13.38-68.36-5.38-23.21-11.23-46.31-16.2-69.62-3.68-17.3-6.91-34.68-9.56-52.18-.91-6.06-2.5-12-3.86-18-.8-3.51-1.64-7-2.68-10.45a80.06,80.06,0,0,0-10.91-22.58c-1.19-1.72-2.49-3.38-3.65-5.13-8.23-12.44-18.94-22.36-31-31-10.59-7.63-21.41-14.91-32.68-21.48a287.64,287.64,0,0,1-36.13-25.16c-19.71-16-39.68-31.57-59.51-47.36-4.24-3.37-3.89-2.25-2.2-7.33q12.63-37.95,25.36-75.86c.29-.85.65-1.68,1-2.51,1.13-.07,1.48.86,2,1.56,3.93,5.48,7.92,10.93,12.26,16.1a119.84,119.84,0,0,0,23.32,21.72c2.46,1.71,4.87,3.5,7.32,5.24a75.75,75.75,0,0,0,26.83,12.18c5.69,1.32,11.37,2.69,17.07,4,5.3,1.18,10.72,1.33,16.11,1.57,27.73,1.25,55.46,2.57,83.22,2.93,16.65.21,33.31.14,50,.19H897c.62,1-.15,1.45-.75,1.79-4.65,2.58-7.35,6.94-10.3,11.09a10.42,10.42,0,0,0-1.48,3.73c-.91,3.63-1.75,7.28-2.58,10.94a18.31,18.31,0,0,0-.37,2.66q-.74,10.77-1.44,21.55a57.38,57.38,0,0,0,1.35,17q1.65,7,3.25,14a51.31,51.31,0,0,0,8.26,18.32c2.59,3.68,5.25,7.31,7.87,11a15.75,15.75,0,0,0,4.12,4.1c1.63,1.08,3.2,2.24,4.75,3.42a10.81,10.81,0,0,0,4.43,2c3.23.65,6.4,1.56,9.61,2.32a30.42,30.42,0,0,0,7.13.76q36,0,72,0C1006.83,747.91,1007.27,747.43,1006.21,752.09Z"/><path class="cls-2" d="M959.88,618.48a1.71,1.71,0,0,1-2-.35,2.42,2.42,0,0,1,2.07-.33A1.73,1.73,0,0,1,959.88,618.48Z"/><path class="cls-3" d="M1157.13,1139.85a157.06,157.06,0,0,1,21.2,31.72,101.29,101.29,0,0,1,10.14,32.93,90.24,90.24,0,0,1-4.59,41.22,120.89,120.89,0,0,1-25.45,42.56c-12.65,13.66-28.17,22.72-45.9,28a157.89,157.89,0,0,1-31.8,5.73c-13.35,1.15-26.69.64-40,.65-23.26,0-46.51-.12-69.77-.27-123.33-.8-246.66-.52-370-.58q-93.18,0-186.35.16-41.42.06-82.82.24-37.37.15-74.72.42c-9.31.08-18.61-.2-27.88-.92-11.83-.92-23.53-2.71-34.71-7a84.88,84.88,0,0,1-7.85-3.35c-16.81-8.3-27.07-21.9-31.69-39.86a107.73,107.73,0,0,1-3-36.14,82.33,82.33,0,0,1,3.77-19.36c4.38-13,12.55-23,24.1-30.4,8.43-5.37,17.68-8.83,27.26-11.44a232.45,232.45,0,0,1,28.66-5.58c9.22-1.3,18.48-2,27.75-2.7,9-.69,17.93-1.54,26.89-2.3,4.34-.37,8.67-.7,13-1.06,14.19-1.16,28.39-2.35,42.59-3.49,9.12-.73,18.24-1.38,27.36-2.12,9-.73,17.93-1.54,26.9-2.3q6.72-.57,13.45-1.1c12.86-1,25.71-2,38.57-3q16.14-1.29,32.28-2.65c12.7-1.07,25.4-2.2,38.1-3.25,9.27-.76,18.55-1.38,27.81-2.14,12.56-1,25.1-2.17,37.66-3.21,9-.74,17.94-1.37,26.91-2.1,9.26-.76,18.52-1.57,27.79-2.35q6.5-.56,13-1.07c12.86-1,25.72-2,38.57-3q22.2-1.77,44.39-3.62c10.92-.89,21.83-1.76,32.74-2.68,12.55-1,25.09-2.18,37.65-3.22,9.26-.76,18.54-1.38,27.81-2.14,12.7-1.05,25.39-2.19,38.1-3.24,9.11-.75,18.24-1.38,27.36-2.13s18.23-1.57,27.34-2.34c4.48-.38,9-.72,13.45-1.08l15.7-1.24a8,8,0,0,1,5.21-.91c20.8,1.62,41.55.51,62.34-.78,26.91-1.66,53.89-2.92,80.39,4a123.14,123.14,0,0,1,43.82,21.18C1153.25,1134.61,1155.92,1136.58,1157.13,1139.85Z"/><path class="cls-4" d="M668.11,513.32l-19.57-21.06c-.82-.88-1.64-1.75-2.5-2.58s-1.63-.73-2,.36-.68,2-1,3q-26.12,78.12-52.24,156.22c-.33,1-.7,2-1,3-2.69,1.53-5.32.25-7.85-.36-20.29-4.82-40.62-9.46-60.91-14.25q-67.24-15.89-134.49-31.65c-3.13-.74-6.66-.66-9.05-3.44,1.36-4.89,2.67-9.8,4.08-14.68q12-41.38,24-82.76,9.82-33.82,19.72-67.64c2.76-9.48,5.46-19,8.33-28.42.74-2.45.07-3.09-1.47-4.12a25.56,25.56,0,0,0-12.64-4.19,84.62,84.62,0,0,0-24.05,2.22c-5.11,1.12-10.23,2.18-15.35,3.27-2,0-1.89-1.65-2-2.85-1.56-14.11-7.33-26.8-13.28-39.41-4.42-9.35-8.87-18.67-11.86-28.61-2.9-9.68-4.85-19.45-3-29.64.4-2.11.83-4.08,2.25-5.74C374.08,290.27,396,280.5,418,271a260.62,260.62,0,0,1,47.27-15.64c6.72-1.47,13.51-2.56,20.35-3.38A176.56,176.56,0,0,1,517,251.4a167.8,167.8,0,0,1,29.67,4.75,238.41,238.41,0,0,1,47.23,17.09c14.45,7,29.22,13.17,44,19.38,10.23,4.3,20.36,8.8,29.84,14.62A99.9,99.9,0,0,1,696.56,334c9,12.34,15.48,26,21.14,40.05,5.54,13.78,9.9,27.95,14.22,42.14,3.83,12.61,7.69,25.21,11.44,37.84,1.4,4.73,3.24,9.33,4.1,14.22-2.86,9.77-9.69,16.31-17.81,21.73-10.27,6.85-22.18,9.7-33.7,13.43-7.72,2.49-15.35,5.1-22.43,9.13C671.83,513.5,670.14,514.62,668.11,513.32Z"/><path class="cls-5" d="M1157.13,1139.85a113.57,113.57,0,0,0-31.08-20.32,115.91,115.91,0,0,0-26.48-8.38c-5-.92-10-1.7-15-2.53a8.65,8.65,0,0,0-.89-.08c-8.08-.32-16.13-1.32-24.24-1-3.9.16-7.82-.14-11.7.13-6.88.49-13.78.51-20.64,1-4.93.37-9.89.3-14.79.81-12.72,1.34-25.47.58-38.2.79-5.12.08-10.13-1-15.21-1.2,1.18-4.8,2.43-9.57,3.53-14.38,2-8.61,3.82-17.24,5.75-25.86q5.86-26.07,11.76-52.12c2.79-12.26,5.71-24.49,8.49-36.75,4.05-17.8,8-35.63,12-53.44s8.22-35.88,12.31-53.83q5.44-23.87,10.82-47.73t10.82-47.73q5.4-23.87,10.82-47.73c.86-3.8,1.69-7.6,2.58-11.39a10.05,10.05,0,0,0,.25-4c1.64-1.73,3.82-1.51,5.88-1.51q49.56-.06,99.13,0c2.06,0,4.24-.22,5.91,1.47-.09,5.25,0,10.5-.3,15.74-1.05,20.54-.39,41.09-.57,61.63s-.1,40.82-.14,61.23c0,28.66.3,57.32-.29,86-.43,20.55-.29,41.1-.47,61.64s-.09,40.82-.13,61.22q-.06,36.46-.13,72.93C1156.93,1136.26,1157.06,1138.05,1157.13,1139.85Z"/><path class="cls-3" d="M1159,714.1l-104.64,0c-2.1,0-4.19,0-6.28.07-8,0-15.91,0-23.86,0q-46.38,0-92.75,0c-5.12,0-4.07.95-7.65-4a48.86,48.86,0,0,1-9.92-30.67c.09-4.2.18-8.39.66-12.58.39-3.42.4-6.89.57-10.33,0-.75.06-1.5.11-2.25a1.65,1.65,0,0,1,1.67-1.73c1.35-.06,2.7-.06,4-.06q68.43,0,136.87,0c6.68,0,5.26.82,7.92-5Q1120.87,527.31,1176,407.09q12.09-26.37,24.19-52.75c2.21-4.8,1.37-4.21,6.61-4.21q46.59,0,93.19,0c5.74,0,5.31-.29,3.9,5q-13.72,51.72-27.47,103.43-22.32,84.09-44.62,168.19-10.34,38.9-20.68,77.78c-.15.58-.36,1.15-.49,1.73a2.53,2.53,0,0,1-2.48,2.17c-2.38.25-4.76.55-7.15.82q-13.64,1.51-27.27,3C1168.78,712.88,1163.87,713.51,1159,714.1Z"/><path class="cls-6" d="M377.39,602.49l70.74,16.69Q471.05,624.58,494,630q39.32,9.21,78.63,18.4c5.68,1.32,11.38,2.56,17.07,3.83,7.82,6.26,15.61,12.55,23.45,18.78q34.23,27.21,68.49,54.39c.59.46,1.2.89,1.8,1.33,1.23,1.72-.12,2.82-1,3.89-10.66,12.32-18.8,26.34-27.36,40.08-8.76,14.05-18.16,27.56-31.55,37.74a73,73,0,0,1-24.09,11.83,13.12,13.12,0,0,1-6.64.25q-27.24-15.78-54.49-31.55-27.45-15.87-54.92-31.71c-4.62-2.67-3.94-3-6.51,1.7q-18.58,33.93-37.18,67.85c-.85,1.56-1.45,3.3-2.92,4.48-7,2.07-14.24,1.5-21.27.43C398.11,829,382.89,821,368,812.24c-14.59-8.53-29-17.4-45.19-22.83-1.28-.43-2.54-.95-3.08-2.38,1-7.28,2.55-14.46,4.07-21.64,8.94-42.36,22.3-83.37,37.8-123.72,4.57-11.89,9.38-23.69,14.11-35.52C376.17,604.9,376.81,603.71,377.39,602.49Z"/><path class="cls-7" d="M592.74,820.48c5.3-.43,10.19-2.34,15-4.35a71.44,71.44,0,0,0,20.68-13.29,115.42,115.42,0,0,0,16.76-19.3c5.8-8.2,10.94-16.82,16.22-25.35s10.85-17.24,17.41-25.07c1.15-1.38,2.34-2.73,3.55-4.06a3,3,0,0,0,1-2.37c8.74,6.83,18.17,12.62,27.69,18.28,11.72,7,23.3,14.15,34,22.59a91.69,91.69,0,0,1,14.25,13.62,95.17,95.17,0,0,1,12.18,18.25A86.31,86.31,0,0,1,779,823.77c1.35,8.09,2.54,16.21,4,24.28,1.59,8.51,3.32,17,4.93,25.5,1.31,6.9,3,13.73,4.56,20.57,2.81,11.92,5.74,23.82,8.57,35.74,2.11,8.86,4.22,17.73,6.17,26.63,2.57,11.67,5.19,23.33,7.38,35.07,1.23,6.59,2.42,13.2,3.1,19.9.5,4.89,1.12,9.79,1.81,14.66s.24,9.9.93,14.76a55.53,55.53,0,0,1,.54,13c-.52,5.64-.25,11.37-1.65,16.92a39.44,39.44,0,0,1-9.71,18,37.19,37.19,0,0,1-19.26,10.85c-8.48,1.84-16.32.27-24-3.2-8-3.62-14.05-9.45-19-16.6a240.27,240.27,0,0,1-13.16-20.36,193.33,193.33,0,0,1-8.73-17.75c-2.22-5.24-4.34-10.52-6.11-15.92-2.8-8.53-5.12-17.19-7.15-25.93-3.85-16.59-7.27-33.29-11.71-49.74-1.91-7.07-4-14.1-6-21.14-2.86-9.92-5.6-19.87-8.72-29.7-3.67-11.56-7.49-23.08-13.15-33.89A59.53,59.53,0,0,0,658,846.81a68.21,68.21,0,0,0-16.48-10c-8-3.43-16.13-6.42-24.41-9-6.71-2.12-13.48-4-20.17-6.16C595.55,821.16,593.86,821.84,592.74,820.48Z"/><path class="cls-7" d="M319.7,787c15.89,4.87,30.13,13.11,44.3,21.5,8,4.72,16,9.37,24.43,13.31a102.35,102.35,0,0,0,27.69,8.81,83.78,83.78,0,0,0,14.33.7l6.27-.1a5.63,5.63,0,0,1-.5,2.61,222.6,222.6,0,0,1-23.06,41.57A139.76,139.76,0,0,1,404,887.05a129,129,0,0,1-8.9,9.49,144.81,144.81,0,0,1-23.83,18.26,162.53,162.53,0,0,1-30.95,14.29,195,195,0,0,1-24.26,6.4c-7,1.42-14.08,2.68-21.19,3.47-4,.45-8,.91-12,1.28-5.38.5-10.8.27-16.11,1a117.68,117.68,0,0,1-15.23.66q-45.45.06-90.91,0a29.52,29.52,0,0,1-7.6-.59,23.55,23.55,0,0,0-4.92-.23c-4.63-.19-9.3.36-13.88-.82a13.31,13.31,0,0,0-2.69-.09c-2.84-.07-5.69.13-8.47-.73a10,10,0,0,0-2.69-.16c-8.47-.24-16.53-2.33-24.44-5.23a52.7,52.7,0,0,1-14.82-8.29c-7.53-6-13.45-13.19-16.66-22.4A74,74,0,0,1,61,888.48a57.79,57.79,0,0,1-.58-10.73c.38-6.72,1.13-13.46,3.73-19.73,3.65-8.79,9.7-15.32,18.71-19a73,73,0,0,1,17.28-4.52,77.71,77.71,0,0,1,11.17-.73c16.65,0,33.31.05,50,.09a19.32,19.32,0,0,1,4.9.48,17.33,17.33,0,0,0,4,.29c7.05.06,14.1.06,21.15.13,3,0,6-.19,8.94.63a14.18,14.18,0,0,0,3.58.14q11.71,0,23.41,0a33,33,0,0,0,8-.6,24.41,24.41,0,0,1,4.93-.19c5.22-.2,10.49.41,15.67-.83a15,15,0,0,1,2.69-.09c10-.59,19.93-2,29.44-5.32a37.64,37.64,0,0,0,20.79-16.9,121.48,121.48,0,0,0,8.06-17.51C317.81,791.75,318.76,789.39,319.7,787Z"/><path class="cls-7" d="M542.8,148.68c.65-29.95,10.62-55.29,31.53-76.08s46.11-31.18,75.48-31.13,54.67,10.65,75.37,31.44,31.05,46,31.05,75.13c0,29.28-10.56,54.78-31.33,75.48s-46.25,31.23-75.54,31.15c-29.11-.07-54.39-10.59-75.07-31.2S543.47,177.29,542.8,148.68Z"/><path class="cls-8" d="M352.15,299.92c-1,5.42-2.28,10.85-1.74,16.38a78.87,78.87,0,0,0,3,16.68,162.53,162.53,0,0,0,7.28,19.25c4.16,8.92,8.23,17.9,12.12,26.94a96.32,96.32,0,0,1,6.18,21,26.49,26.49,0,0,1,.2,3.58,3,3,0,0,0,.86,2.44c-3.44,1.38-6.94,2.64-10.38,4.05a128.5,128.5,0,0,0-25.73,14.59,120,120,0,0,0-20.23,18.44A184.83,184.83,0,0,0,307.07,465c-4.73,7.3-9.15,14.75-13.24,22.42-13.61,25.54-26.08,51.66-39.11,77.5-3.64,7.24-7.57,14.32-12.69,20.61-4.74,5.83-9.95,11.24-17.07,14.28a38.06,38.06,0,0,1-21.41,2.92c-11.52-1.79-21.76-6.4-31.29-12.82A42.58,42.58,0,0,1,158,574.68a44.56,44.56,0,0,1-3.89-10.46c-1.6-6.39-1-12.76.25-19.11a111.05,111.05,0,0,1,8.4-25c10.34-22.65,22.05-44.62,33.11-66.91,4.33-8.72,9-17.26,13.76-25.77a402,402,0,0,1,23-37q7.13-10.08,15-19.62a224.7,224.7,0,0,1,22.73-23.65,226.8,226.8,0,0,1,69.63-42.8C344,302.82,348.07,301.4,352.15,299.92Z"/><path class="cls-9" d="M668.11,513.32a6.24,6.24,0,0,0,4.18-1.33c7-4.44,14.82-7,22.66-9.47,8.42-2.63,16.88-5.09,25-8.55a52.84,52.84,0,0,0,19.58-13.89,47.11,47.11,0,0,0,6-8.91c.55-1,.81-2.27,2-2.93,1.88,2.69,3.7,5.43,5.65,8.07a49.85,49.85,0,0,0,17,15c7.41,3.87,15.29,5.74,23.56,6.78a152.31,152.31,0,0,0,18.84.72q50.87.09,101.74.06a46.46,46.46,0,0,1,8,.57,53.76,53.76,0,0,0,8.53.26,50.54,50.54,0,0,1,18.38,3.48c11.11,4.41,18,12.52,21.38,23.81a44.31,44.31,0,0,1,2,15.06c-.14,2.85.09,5.71-.09,8.55-.7,11-4.16,20.77-12.31,28.53a32.87,32.87,0,0,1-14.44,7.9,50.43,50.43,0,0,1-14.63,1.9c-5.09-.15-10.2,0-15.3,0-2.84,0-5.69-.19-8.49.62a11.7,11.7,0,0,1-3.14.12H861a21.5,21.5,0,0,1-4.92-.39,20.67,20.67,0,0,0-4.46-.34c-10.8-.07-21.61-.1-32.41-.15a21,21,0,0,1-5.8-.53,14.17,14.17,0,0,0-3.58-.25c-3.45,0-6.9,0-10.35-.09a75.83,75.83,0,0,1-10.3-.62c-3.52-.55-7.18-.19-10.78-.27a66.38,66.38,0,0,1-9.84-.64c-3.07-.52-6.29-.18-9.44-.26a74.71,74.71,0,0,1-39-11.78,108.37,108.37,0,0,1-22.89-20.13,214.1,214.1,0,0,1-19.05-25.53C674.81,523.59,671.45,518.46,668.11,513.32Z"/><path class="cls-10" d="M629.59,1253.55H225.8c-6,0-6.22,0-6.73-5.85-.38-4.32-.24-8.69-.26-13,0-1.33.54-1.86,2-1.87,4.8-.06,9.56-.76,14.32-1.16,5.5-.48,11.08-.26,16.52-1.44a1.71,1.71,0,0,1,.45,0c5.56.24,11-.84,16.57-1.1,6-.28,11.92-1,17.87-1.53a5.47,5.47,0,0,1,.9-.08c5.86.27,11.63-.94,17.47-1.13,5.52-.17,11-1,16.52-1.46a6.88,6.88,0,0,1,.9-.1c5.56.24,11-.84,16.57-1.1,6-.27,11.91-1,17.87-1.53.3,0,.6-.09.89-.08,5.87.27,11.64-.94,17.48-1.13,5.52-.17,11-.94,16.52-1.46.3,0,.6-.11.89-.1,5.57.24,11-.84,16.58-1.1,6-.28,11.91-1,17.87-1.52a6.88,6.88,0,0,1,.89-.09c5.87.26,11.63-.93,17.48-1.12,5.52-.19,11-1,16.52-1.46a5.51,5.51,0,0,1,.89-.1c5.56.22,11-.84,16.58-1.1,6-.29,11.91-1,17.87-1.53a8.65,8.65,0,0,1,.89-.09c5.86.26,11.66-.72,17.47-1.18,5.65-.45,11.37-.32,17-1.45a1.73,1.73,0,0,1,.45,0c5.71.23,11.34-.87,17-1.12,6.11-.26,12.21-1,18.31-1.53a6.86,6.86,0,0,1,.9-.09c5.86.27,11.63-.94,17.48-1.12,5.51-.18,11-1,16.51-1.46a5.51,5.51,0,0,1,.9-.1c5.56.23,11-.84,16.57-1.1,6-.28,11.92-1,17.87-1.53a6.86,6.86,0,0,1,.9-.09c5.86.27,11.63-.93,17.47-1.12,5.52-.18,11-1,16.52-1.46a6.88,6.88,0,0,1,.9-.1c5.56.23,11-.84,16.57-1.1,6-.28,11.92-1,17.87-1.53a6.84,6.84,0,0,1,.89-.08c5.87.26,11.66-.73,17.47-1.19s11.38-.32,17-1.45a1.65,1.65,0,0,1,.44-.05c5.57.23,11-.83,16.58-1.1,6-.29,11.91-1,17.87-1.52a6.88,6.88,0,0,1,.89-.09c5.87.25,11.66-.74,17.47-1.18s11.38-.34,17-1.46a1.61,1.61,0,0,1,.44,0c5.56.22,11-.82,16.58-1.1,6-.29,11.91-1,17.87-1.52a8.65,8.65,0,0,1,.89-.09c5.86.25,11.66-.74,17.47-1.18,5.65-.43,11.37-.34,17-1.46a3.44,3.44,0,0,1,.45,0c5.56.22,11-.82,16.58-1.09,6-.3,11.91-1,17.86-1.53.3,0,.6-.1.9-.09,5.86.26,11.65-.75,17.47-1.17s12-.36,17.87-1.49a1.73,1.73,0,0,1,.45-.05c5.56.23,11-.83,16.57-1.09,6-.29,11.92-1,17.87-1.53a6.86,6.86,0,0,1,.9-.09c5.86.26,11.66-.74,17.47-1.18,5.65-.43,11.37-.36,17-1.44a21.94,21.94,0,0,1,3.15-.16c2.84-.12,5.69.06,8.49-.72a10,10,0,0,1,2.69-.15c2.18,0,2.77.65,2.22,2.72-1.13,4.19-2,8.44-2.71,12.72-.73,4.12-1.13,8.29-1.7,12.42-1.26,9.13-.81,18.27-.66,27.4.09,5.21.92,10.41,1.45,15.61.36,3.57.83,7.13,1.11,10.71.14,1.64-.4,2.09-2.11,2.17-1.5.06-3,0-4.5,0Z"/></svg>