<svg id="Layer_1" data-name="Layer 1" xmlns="http://www.w3.org/2000/svg" viewBox="0 0 1366 1366"><defs><style>.cls-1{fill:#fff;}.cls-2{fill:#d49a74;}.cls-3{fill:#78909c;}.cls-4{fill:#7a919d;}.cls-5{fill:#acc3dd;}.cls-6{fill:#ad6b42;}.cls-7{fill:#4d657a;}.cls-8{fill:#4f677b;}.cls-9{fill:#64808e;}.cls-10{fill:#4c6479;}.cls-11{fill:#586f82;}.cls-12{fill:#648c9b;}.cls-13{fill:#83b3be;}.cls-14{fill:#58788b;}</style></defs><path class="cls-1" d="M1358.15,1219.84c-.51-16.83-.65-33.66-.87-50.5-.35-28-.72-56.11-.94-84.17q-.46-60-.7-119.92-.17-30.6-.22-61.2-.09-54.63-.15-109.28-.07-37-.3-73.93a67.29,67.29,0,0,0-1.07-12.66c-2.31-11.67-5.22-23.19-8.09-34.73a42.2,42.2,0,0,0-5.72-13.1c-4.9-7.42-10.15-14.61-15.59-21.64a34.73,34.73,0,0,0-7-6.87c-7.07-5.16-14.12-10.36-21.35-15.28-2-1.37-2.68-2.48-2.08-4.89a56.87,56.87,0,0,0,.79-21.6c-1-6.93-3-13.6-4.39-20.44a203.7,203.7,0,0,0-18.93-54c-4-7.91-7.89-15.92-11.76-23.91-32.94-68-64.28-136.8-95.91-205.44-1.15-2.49-.7-4.3.36-6.49q27.15-56.32,54.25-112.67a48.36,48.36,0,0,0,3.68-10c2-8.65,4-17.32,6.07-26a36.84,36.84,0,0,0,0-17.86c-2-8.09-4-16.19-5.71-24.34a45.44,45.44,0,0,0-8.1-17.74c-16.27-22.18-9.42-15.61-32-31.76-10.48-7.51-22.61-12.07-34.33-17.27a20.29,20.29,0,0,0-3.56-1c-8.64-2-17.3-4-25.93-6.14a36.44,36.44,0,0,0-17.46-.05c-6.11,1.49-12.16,3.28-18.35,4.32-10.94,1.84-20.23,6.68-29.18,13.14s-16.87,13.78-22.92,23.13c-3.57,5.5-7.5,10.71-10.36,16.69q-46.52,97-93.21,194Q880.55,363.21,834,460a47.46,47.46,0,0,0-3.44,9.63c-1.9,8-3.72,16-5.69,23.93a42.29,42.29,0,0,0-.11,20.7c2.07,8.36,3.95,16.77,5.95,25.14a31.23,31.23,0,0,0,3.44,9.18,221.91,221.91,0,0,0,17,23.65,15.31,15.31,0,0,0,2.95,2.85c9.3,6.7,18,14.38,28.64,19,1.12.48,2.54.74,3.29,2.23-.74,0-1.27.1-1.79.1l-217.67-.06c-7.67,0-15.35,0-22.88,1.69q-14.77,3.39-29.52,7A34.83,34.83,0,0,0,602,610.74C584,623.56,584,623.54,571.22,641.42c-.16.22-.31.45-.48.67a28.49,28.49,0,0,0-5,10.7c-2.12,9.05-4.3,18.08-6.43,27.13a53.29,53.29,0,0,0-1,17.13c.71,7.67,3.22,15,4.73,22.44.2,1,.9,2.06-.06,3.13l-1.58-.24c-3.24-.47-3.26-.47-4-3.75q-2.33-9.76-4.61-19.55c-3.45-14.74-8.37-28.88-17.2-41.38-3.79-5.36-7.68-10.66-11.53-16A61,61,0,0,0,510.51,628q-8-5.81-16-11.52a55.83,55.83,0,0,0-18.4-8.76q-9.14-2.35-18.3-4.51c-10.78-2.54-21.49-5.36-32.7-5.37-10.68,0-21.35-.19-32-.41-16.55-.33-33.11-.74-49.66-1.14-3.12-.07-3.1-.11-3.4-3.13q-1-9.6-1.94-19.2-2.29-22.05-4.61-44.09c-1.49-14.43-2.94-28.86-4.44-43.28q-2.3-22-4.65-44.09c-1.45-13.6-2.87-27.21-4.36-40.81q-2.71-24.9-5.52-49.77c-1.26-11.15-2.56-22.29-4.49-33.34-2.74-15.77-6.82-31.24-10.53-46.79-3.6-15.06-9.57-29.06-19.32-41.28-2.56-3.2-4.85-6.62-7.24-10a62.28,62.28,0,0,0-14.42-14.47q-7.17-5.16-14.3-10.35a78.73,78.73,0,0,0-21.83-11.09c-9-3-18.26-4.65-27.39-7a246.91,246.91,0,0,0-40-6.88c-17.05-1.46-34.19-1.22-51.22-3.1a55.63,55.63,0,0,0-19.2.77c-8.77,2.11-17.52,4.27-26.31,6.28a27,27,0,0,0-9.61,4.4c-16.81,11.88-16.81,11.88-28.83,28.57l-1,1.33a25.26,25.26,0,0,0-4.3,9.23C12.77,226,11.08,233.77,9,241.42c-2.73,10.12-2.61,20.25-1.15,30.52,1.64,11.51,3,23.07,4.44,34.6q3,23.82,6,47.63,2.73,21.58,5.45,43.16,2.65,21.17,5.26,42.35,2.7,21.79,5.4,43.58Q37.1,504.65,39.69,526c2.07,16.84,4.18,33.67,6.23,50.51s4,33.41,6.06,50.11,4.17,33.67,6.24,50.51C60.07,692.09,62,707,63.7,722c.7,6,1.9,11.9,1.93,17.94q.14,29.37.14,58.74c0,18.21,0,36.41.78,54.61.45,11.35,1.16,22.71,3.52,33.85,2.32,11,5.12,21.81,7.69,32.72a60.18,60.18,0,0,0,10.82,23.24c2.5,3.26,4.81,6.66,7.23,10,10.21,14,24.4,22.89,39.59,30.34,5.9,2.9,12.57,3.63,18.89,5.34a264.62,264.62,0,0,0,66,9.4c18.48.23,36.95.39,55.43.15,1.1,0,2.19,0,3.29,0a1.41,1.41,0,0,1,1.6,1.44c.06,1,.07,1.92.07,2.87,0,13.42,0,26.84,0,40.26,0,4.09.62,3.34-3.43,4.77q-32.44,11.46-64.92,22.85c-5.92,2.08-11.73,4.76-17.83,6-10.58,2.18-21,5-31.57,7.17a49.44,49.44,0,0,0-19.27,8.67c-17.8,13-17.83,12.92-31,31.56a39.72,39.72,0,0,0-6.48,13.63c-2.72,11.29-5.79,22.51-7.79,34-.69,3.92-1.62,7.28-5.11,9.64a14.54,14.54,0,0,0-3.23,3.68c-3.8,5.19-7.52,10.44-11.29,15.65a25.08,25.08,0,0,0-4.14,9.28c-1.87,8.27-3.78,16.52-5.83,24.74a27.58,27.58,0,0,0-.07,13.39c2,8.1,4,16.19,5.72,24.34a49.3,49.3,0,0,0,8.78,19.24c3.25,4.4,6.42,8.87,9.61,13.31a35.34,35.34,0,0,0,8.08,8.11c4.66,3.36,9.34,6.7,14,10.09A29.9,29.9,0,0,0,126,1328q12.58,2.88,25.13,6a26.68,26.68,0,0,0,13-.12c6.23-1.54,12.42-3.36,18.74-4.44,10.25-1.77,19-6.29,27.3-12.45,18.08-13.46,12.18-7.5,26.7-27.29,2.7-3.68,5.12-7.44,5.95-12,.28-1.56.94-2.32,2.69-2.31q20.94.09,41.89,0c1.63,0,2.41.5,2.75,2.22.77,4,2.81,7.35,5.21,10.57,3.19,4.28,6.3,8.62,9.37,13a38.64,38.64,0,0,0,8.89,9c5.41,4,10.88,7.84,16.32,11.76a33.1,33.1,0,0,0,11.82,5.49c8.65,2,17.31,4,25.94,6.06a26.24,26.24,0,0,0,12.58,0c8.1-2,16.19-4,24.34-5.71a37.93,37.93,0,0,0,14.79-6.73c4.41-3.24,8.85-6.45,13.33-9.59a45.85,45.85,0,0,0,11.79-11.86c2.85-4.18,5.91-8.22,8.86-12.33,2-2.8,3.82-5.73,4.36-9.18.38-2.39,1.59-3,3.91-2.93,13.41.17,26.83.17,40.24.23a2.8,2.8,0,0,0,.41,0c1.79-.18,2.7.46,3,2.4a21.91,21.91,0,0,0,4.07,9.31c3.77,5.2,7.52,10.43,11.29,15.64a28.43,28.43,0,0,0,6.4,6.32c5.43,3.93,10.84,7.9,16.32,11.76a45.64,45.64,0,0,0,16.35,7.32c7.59,1.73,15.21,3.35,22.74,5.33a28.66,28.66,0,0,0,16.16,0c2.73-.84,5.61-1.22,8.38-2,6.48-1.68,13.48-2,19.39-5,10.37-5.25,20.12-11.76,27.79-20.67,4.62-5.37,8.48-11.41,12.53-17.26a40,40,0,0,0,6.17-13.77q3.32-14.17,6.67-28.33a22.31,22.31,0,0,0,0-10.56c-1.32-5.44-2.47-10.93-3.81-16.37-4.38-17.7-1.68-12.32-13-28.23-3.34-4.67-6.44-9.56-11.11-13.1a2.71,2.71,0,0,1-1-2.1c-1.58-13.07-5.53-25.63-8.31-38.45a38.2,38.2,0,0,0-6.8-14.8c-3.43-4.62-6.77-9.29-10.09-14a34.1,34.1,0,0,0-8.06-8.11q-7.19-5.13-14.32-10.33a37,37,0,0,0-13.26-6.23c-7.84-1.88-15.66-3.81-23.52-5.61-5.32-1.23-10.85-1.74-16-3.49-26.61-9.09-53.12-18.5-79.69-27.72-2.2-.76-3.17-1.71-3.14-4.26.17-14.1.12-28.2.14-42.3,0-3.7-.22-3.49,3.6-3.52,24.09-.21,48.18-.68,72.27-.3,15.88.25,31.74.71,47.59,1.68,11.35.7,22.71,1.15,33.92-1.51,8.64-2.05,17.26-4.2,25.92-6.14a48.6,48.6,0,0,0,18.45-8.52c20.78-15.32,13.64-8.13,29.95-30.35a37.32,37.32,0,0,0,6.29-13.68c1.37-5.85,2.68-11.72,4.15-17.55,2.32-9.19,4.34-18.44,3.16-28-1.3-10.44-2.7-20.88-4.38-31.27-1.86-11.48-5.17-22.65-7.66-34-3.16-14.36-8.78-27.58-17.8-39.27-1.24-1.59-2.35-3.28-3.67-5.15,10.65,0,20.77-.05,30.89,0,19.44.11,38.87.29,58.31.43,2.38,0,3-.66,3.07,3.22.07,13.28.32,26.55.41,39.83q.38,60.78.69,121.56c.12,24.51.15,49,.22,73.52.18,62,.12,124-.67,186.05-.16,12-.28,24.11,2.48,36,2.05,8.79,4.29,17.53,6.24,26.33a49.37,49.37,0,0,0,9,19.58c3.15,4.13,6.12,8.41,9.14,12.64a34.71,34.71,0,0,0,8.09,8.09c4.66,3.35,9.36,6.66,14,10.1a45.33,45.33,0,0,0,17.05,7.73c5.45,1.28,10.93,2.49,16.34,3.91a131.75,131.75,0,0,0,36.9,4.77c26.67-.66,53.35-1.41,80-1.79,35.86-.5,71.73-.51,107.59-.48,53.11,0,106.21.89,159.3,1.88,9,.17,18.1.11,27-1.89,9.73-2.19,19.4-4.63,29.11-6.91a43.16,43.16,0,0,0,16.2-7.61c4.38-3.28,8.85-6.44,13.31-9.61a34.52,34.52,0,0,0,8.1-8.08c3.44-4.78,6.86-9.56,10.33-14.31a39.92,39.92,0,0,0,6.6-14c1.25-5,2.45-10.09,3.7-15.13C1355.8,1246.21,1358.56,1233.29,1358.15,1219.84ZM1042,534.1l16.93-35.25,15.5,35.25Z"/><path class="cls-2" d="M1293,716.19a5.6,5.6,0,0,1,.56,3.19q.08,57.71.14,115.41c0,43.26-.28,86.53.26,129.79.55,43.93,0,87.88.82,131.8.42,24.09.1,48.18.79,72.26.57,19.84.56,39.68.68,59.52a71.94,71.94,0,0,1-2.45,18.23q-5.33,20.8-26.13,26.07a85.19,85.19,0,0,1-18.66,2.46c-16.56.45-33.1-.63-49.66-.74-10.12-.06-20.26,0-30.38-.28-40.23-1.08-80.47-.64-120.71-.75-27.37-.08-54.76-.07-82.13.46-14.77.29-29.56.12-44.31.79-14.23.64-28.45.8-42.68.57a64.84,64.84,0,0,1-17.73-3c-12.9-3.9-20.81-12.58-24.4-25.41a87.66,87.66,0,0,1-3.17-22.68c-.15-16.29-.31-32.59.16-48.87.67-23.13.43-46.26.47-69.39.08-52.16.33-104.32-.23-156.48-.5-46.68-.07-93.36-.81-140-.45-28.74-.27-57.48-.51-86.22,1.83-1.68,4.11-1.24,6.26-1.3,57.19-1.55,114.4,0,171.58-1,53.65-1,107.3.37,160.92-.83,37.77-.85,75.53-.2,113.29-.6C1288.11,719.11,1291,718.9,1293,716.19Z"/><path class="cls-3" d="M342.38,999.09c-.71-1.28-.43-2.68-.43-4q-.09-26.49-.14-53c0-6.54.59-5.57-5.36-5.59-16.29-.07-32.58,0-48.87.09-23.27.09-46.55.44-69.81-.22-14.89-.43-29.79-1.34-44.37-4.8A74.79,74.79,0,0,1,157.57,926c-10.9-5.37-17.94-14.08-22.11-25.33a107.41,107.41,0,0,1-5.69-26.38c-2.11-20-2.33-40.15-2.38-60.26q-.08-36.56-.11-73.11c0-1.37.06-2.74.1-4.11,3.08-6.65,8.25-11.82,12.6-17.55q16.08-21.19,32.5-42.15a10.06,10.06,0,0,0,2.35-5.13c.11-1-.27-2.71,1.79-2.46,1.72,2.45,4.12,2.19,6.64,1.78,27.35-4.51,54.75-8.65,82.11-13.12,5-.81,10-1.55,15-2.36,1.61-.26,3.24-.68,4.75.38,7.92.37,15.85.42,23.77.75,15.17.64,30.36.62,45.52,1.3,13,.57,26,.32,39,.9,10.25.45,20.5.31,30.76.43,11.73.14,23.15,1.81,33.88,6.84,11.69,5.48,20.18,14.35,26.59,25.37,5.05,8.69,8.44,18.06,11.24,27.67a2,2,0,0,1-.12,1.64c-1.49.78-3.17.4-4.77.4q-74.91,0-149.81-.13c-15.32,0-30.65-.15-46,.23-11.21.28-22.43,0-33.63.62-10.92.58-21.75,1.87-32.24,5.33-21.17,7-32.61,22-36.24,43.47-.48,2.82-.68,5.69-1,8.54.48,9-2.58,17.49-3.15,26.33-.7,10.85-.73,21.58,2.16,32.19,3.83,14.09,12.75,23.7,25.86,29.5,11.67,5.16,24.09,6.93,36.75,7.74,21.5,1.39,42.88-1.08,64.31-1.62,24.62-.62,49.25-1.38,73.88-.85,7.27.16,14.46-1.2,21.72-.86,29.68,1.42,59.4.08,89.07,1,17.24.54,34.5-.21,51.7.75,20.39,1.13,40.78,0,61.15.81q14.35.55,28.7.75c1.79,0,3.62.13,4.58,2.06,1.63,8.61,3.07,17.25,2.5,26.06-.64,9.74-3.39,18.6-11.29,25-5.79,4.73-12.7,6.81-19.94,8-9.8,1.63-19.66,1.14-29.49.59-13.11-.73-26.22-1.42-39.36-1.51-12.59-.08-25.16-.67-37.76-.48-21.34.31-42.69.32-64,.91-14.5.4-29,.27-43.5.51-2,1.58-4.41,1.28-6.71,1.28-16.55,0-33.11,0-49.66,0-5.51,0-5.7.21-5.71,5.83,0,16.28,0,32.56,0,48.84C343.78,994.76,344.31,997.21,342.38,999.09Z"/><path class="cls-4" d="M1062.05,351.6c-2,1.11-2.31,3.3-3.17,5.08Q1019.8,437.83,980.81,519c-1.95,4.07-3.87,8.16-5.93,12.17a35.66,35.66,0,0,1-47,16.18q-11.35-5.26-22.56-10.85C892.26,530,885.71,519,885,504.67a31.52,31.52,0,0,1,3.19-15.13c3.84-8,7.63-16.05,11.49-24.06q24.64-51.21,49.32-102.4,31.41-65.25,62.8-130.52,25.87-53.81,51.75-107.6c4.5-9.37,8.92-18.78,13.44-28.14a35.76,35.76,0,0,1,19.47-18.47,34.85,34.85,0,0,1,28.29.72q11.57,5.27,22.9,11.05c13,6.66,19.48,17.66,20.07,32a34,34,0,0,1-3.86,16.21q-15.47,31.95-30.78,64Q1114.52,241,1096,279.62a8.28,8.28,0,0,0-1.22,3.87c-1.26,4.34-3.49,8.29-5.44,12.31-8.77,18.17-17.42,36.4-26.23,54.55A3.11,3.11,0,0,1,1062.05,351.6Z"/><path class="cls-5" d="M285.09,656.2c-11.54,1.91-23.07,3.89-34.62,5.71s-22.87,3.4-34.29,5.2q-16.32,2.58-32.6,5.41c-2.14.37-4.35-.13-6.15,1-1.33-1.36-.43-3.07-1.58-4.07-2.85-4.68-2.21-10.06-2.78-15.13-3.57-31.53-7.23-63.06-10.67-94.6q-6.19-56.91-12.72-113.79c-4.53-40.09-8.89-80.21-13.54-120.3-3.46-29.75-6.55-59.55-9.95-89.31-.2-1.75-.5-3.55.22-5.28,7.44,1.15,15,.16,22.45,1.21,3.9.54,7.88.61,11.82,1,15.16,1.43,30,4.12,43.93,10.55A62.82,62.82,0,0,1,234,271.79c6.17,11.43,9.53,23.79,12.33,36.35C249,320,250.47,332,252,344.05c1.08,8.38,1.71,16.81,2.65,25.21s2.31,17,3,25.56c.52,6.25,1.32,12.47,1.92,18.71.84,9,2,17.86,3,26.8.69,6.36,1.21,12.75,1.87,19.12.68,6.64,1.45,13.27,2.17,19.91.37,3.39.71,6.78,1.07,10.16.77,7.18,1.57,14.36,2.31,21.54.65,6.37,1.18,12.76,1.84,19.13.68,6.64,1.43,13.27,2.18,19.9.37,3.25.62,6.52.94,9.77,1,10.58,2.16,21.14,3.32,31.71,1,9.34,1.69,18.73,2.66,28.08.92,8.81,2.14,17.58,3,26.39C284.31,649.43,284.48,652.84,285.09,656.2Z"/><path class="cls-6" d="M1293,716.19a3,3,0,0,0-.08.41c-.38,3.78-.38,3.8-4,3.81q-16.85,0-33.68,0c-23.68,0-47.37-.44-71,.14-53.77,1.32-107.56-.21-161.32.86-51.86,1-103.71,0-155.56.81-11.47.17-22.94.48-34.42.63-10.8-.22-21.59-.55-32.39-.64-27.23-.22-54.45-.14-81.67-.53-23.12-.33-46.23-.6-69.34-.49a61.13,61.13,0,0,1-10.21-.91c-10.33-1.7-16.16-7.29-18.52-17.64a50.69,50.69,0,0,1-.34-20.38c2.29-12.86,10.49-19.93,22.9-22.63C650.5,658.12,657.74,658,665,658l269.66,0c12,0,24.08-.06,36.11-.09,4.61-2.16,9.5-.59,14.23-1.08,29,0,57.92.11,86.88-.09,39.52-.14,79-.08,118.55,0a11.22,11.22,0,0,1,1.64.14,4.46,4.46,0,0,1,2.2,1.07c9.85.23,19.7-.1,29.54.85,12.44,1.21,24.68,3.22,36.2,8.31C1281.32,676.5,1292,693.09,1293,716.19Z"/><path class="cls-5" d="M648.77,877.38c-1.15-1-2.51-.91-3.89-.91-3.7,0-7.4.13-11.09,0-23.64-.93-47.32-.19-70.95-1-17.37-.58-34.74.08-52.07-.74-26.39-1.23-52.78-.33-79.17-.74-6-.09-12-1-18-.68-23.23,1.18-46.49.23-69.72,1-9,.3-18.05,0-27,.76-7,.58-13.94.24-20.87.79a288.06,288.06,0,0,1-31.06,1.28c-12.63-.35-25.29-1-37.65-4.49-9.51-2.7-18.28-6.65-25.47-13.41a43.3,43.3,0,0,1-12.09-21.05c-2.92-11.12-2.92-22.34-1.85-33.72.77-8.17,2.67-16.12,3.75-24.21,0-.24.27-.46.42-.69.57,2.08,2.3,1.58,3.72,1.59,7.53,0,15.05,0,22.58,0,33.4,0,66.81-.4,100.2.24,57.33,1.09,114.66,0,172,.88,19.41.3,38.85-.27,58.24.69,18.23.89,36.11,4.11,52.62,12.38q28.14,14.08,39.31,43.73a118.13,118.13,0,0,1,7.43,34.25C648.22,874.71,648.55,876,648.77,877.38Z"/><path class="cls-7" d="M1192.56,657.92c-4.51,0-9,.12-13.54.12H1076.8c-1.64,0-3.28-.07-4.92-.1-1.44-.68-3-.34-4.45-.34q-41.21,0-82.43,0c-4.77-.17-9.56.35-14.33-.29-7.85-.57-11.25-3.57-12-11.28a184.12,184.12,0,0,1-.06-36.89c.8-7.81,4.24-11.37,12-12.9C977,595,983.41,595,989.83,595q39,.33,78,.93,15.6.27,31.2.19c10,0,20-.32,30-.46a31.16,31.16,0,0,0,8.48-1.34c12.35-3.63,20-13.65,17.09-28.93a42.33,42.33,0,0,0-3.21-9.28q-42.76-97.29-85.51-194.57a57,57,0,0,1-3.79-9.95,7.43,7.43,0,0,1,.93-3.52c3-6.27,6-12.57,9-18.84,5.36-11.06,10.77-22.1,16.13-33.17,1.55-3.19,2.95-6.46,4.47-9.66.52-1.09.87-2.34,2.12-2.92L1124.41,348c27.82,60.52,55.65,121,84.81,180.92,6.11,12.54,12.66,24.87,17.63,37.94,3.81,10,6.74,20.23,7,31.06a53.65,53.65,0,0,1-3.37,20.52c-5.53,14.47-14.35,26.37-27.57,34.75a32,32,0,0,1-8.46,4.09C1193.89,657.71,1193.11,657.51,1192.56,657.92Z"/><path class="cls-3" d="M568.57,1215c-.21-.69-.55-1.28-1.35-1.33-1.09-.05-2.19-.05-3.28-.05l-164.86-.09c-1.23,0-2.47,0-3.69.06-.86,0-1,.75-1.22,1.41-11.23-.79-22.48-.18-33.72-.44-2.51-.06-4.77.78-7.13,1.26,0-1.17-.14-2.22-1.71-2.18-1,0-1.92,0-2.87,0H183.87c-1.63,0-3.3-.25-4.84.56-7.32.27-14.66.67-21.56-2.6.35-9.4.62-18.8,1.1-28.2a85,85,0,0,1,3.05-19.32c3.85-13.32,12.7-21.28,26-24.51a57.16,57.16,0,0,1,14.15-1.78,25.66,25.66,0,0,0,6.06-.68c22.64,3.89,45.26,8,68.11,10.49,14.4,1.59,28.83,2.73,43.28,3.88,28.28,2.26,56.58,1.61,84.87,1.36,17.34-.16,34.65-1.78,51.93-3.48,26.84-2.63,53.46-6.76,79.93-11.85a29.38,29.38,0,0,1,5.3-.42c7.91.34,15.81.6,23.45,3.1,11.32,3.69,18.34,11.4,21.69,22.66,2.28,7.66,2.8,15.58,3.17,23.48.39,8.45.26,16.93,1.08,25.37-1.6,1.58-3.75,1.76-5.74,1.82C579.41,1213.66,574,1214.65,568.57,1215Z"/><path class="cls-8" d="M126.41,231c1.48,2.63,1,5.62,1.4,8.41,1.18,8.51,1.86,17.09,2.81,25.64s2,17.07,3,25.61,1.8,17.1,2.75,25.65c.94,8.4,2,16.79,2.95,25.2s1.82,16.82,2.76,25.23c1,8.81,2,17.62,3,26.43.94,8.41,1.81,16.83,2.75,25.24s2,17.07,2.94,25.61,1.85,16.82,2.79,25.23c1,8.82,2,17.63,3,26.44.66,5.83,1.28,11.66,2,17.49,1,8.81,2,17.62,3,26.43.93,8.28,1.79,16.56,2.71,24.83,1,8.95,2.06,17.89,3.06,26.84.92,8.27,1.78,16.55,2.71,24.82,1,8.68,2,17.35,3,26,1,9.09,1.91,18.18,2.86,27.28.56,3.8-1.17,6.72-3.43,9.58-7.08,9-14.06,18-21,27-7.81,10.1-15.56,20.25-23.34,30.37a2.43,2.43,0,0,1-.67.44c-1.54-8.62-2.28-17.34-3.38-26-1.87-14.65-3.65-29.3-5.45-44q-2.23-18.32-4.43-36.65-2.62-21.57-5.25-43.15-2.27-18.53-4.57-37l-5.46-44.37q-2.61-21.36-5.23-42.74-2.7-21.78-5.42-43.55c-1.77-14.25-3.51-28.49-5.31-42.74-1.77-14.1-3.61-28.2-5.41-42.3q-2.64-20.76-5.24-41.51c-1.24-10-2.8-20-3.68-30.12a53.62,53.62,0,0,1,.71-14.71c2.24-11.85,9.37-17.92,21.52-18.73,7.69-.52,15.32.28,22.94,1C118,230.69,122.18,230.79,126.41,231Z"/><path class="cls-9" d="M541.23,1137.07c-2.44,1.74-5.4,1.73-8.16,2.26q-13.19,2.54-26.47,4.64c-6.57,1-13.12,2.22-19.74,2.9-5.4.55-10.74,1.55-16.13,2.23-3.5.44-7.09.4-10.54,1.07-4.43.86-8.94.45-13.38,1.35a68.12,68.12,0,0,1-11,.83c-6.54.25-13.07.8-19.59,1.17-24.05,1.38-48.11.59-72.15.52-7.56,0-15.25,0-22.79-1.4a18.26,18.26,0,0,0-2.87-.07c-6.4-.11-12.74-.91-19.1-1.46l-11.79-1c-5.68-.5-11.4-.86-17-1.8-5-.82-9.95-1.43-14.91-2.11-6.19-.84-12.37-1.81-18.54-2.75-9.12-1.39-18.18-3.21-27.27-4.79-1-.18-1.9-.3-2-1.54q21-7.46,42.07-14.91,44.61-15.71,89.25-31.38c1.15-.4,2.24-1,3.35-1.49,1.85-1.58,4.11-1.3,6.27-1.3,16.13,0,32.27,0,48.4,0,6.43,0,6.45,0,6.45-6.31,0-19.82,0-39.65.06-59.47,0-2.11-.87-4.77,2-6,.05,6.71.13,13.41.14,20.11q0,24.63,0,49.26c0,4.4-.49,3.88,3.88,5.41q63.85,22.29,127.72,44.58C538.72,1136,540,1136.56,541.23,1137.07Z"/><path class="cls-10" d="M405.68,1016.19c-1.3,1.41-.72,3.14-.72,4.71q-.06,31.19,0,62.38c0,.82,0,1.64,0,2.46-.08,3.52-.08,3.57-3.77,3.57q-29.34,0-58.68,0,0-45.12-.1-90.22c.07-1.63.22-3.27.22-4.91q0-26.07,0-52.13c0-.82,0-1.65,0-2.47.1-3,.11-3,3-3.08,3.41-.06,6.84,0,10.26,0l50.08,0-.09,74.74C405.8,1012.91,405.72,1014.55,405.68,1016.19Z"/><path class="cls-11" d="M353.32,1215.82a3.88,3.88,0,0,1,4-2.5c11,.13,22,.09,33,0a4.37,4.37,0,0,1,3.86,1.67c2.36,6.26,4.87,12.47,7,18.8,1.87,5.48,2.9,11.12,1.36,16.92,0,.13,0,.27-.08.4-4.22,16.62-25.67,26.25-40.77,18.32a38.94,38.94,0,0,1-11.15-8.9c-5.51-6.25-6.71-13.59-5.2-21.5C346.9,1230.94,350.47,1223.5,353.32,1215.82Z"/><path class="cls-11" d="M568.57,1215c.78-.7,1.27-1.72,2.62-1.66,2.31.12,4.61-.53,6.86-.61,4.22-.15,8.37-.8,12.57-1,6.48,3.22,13,6.41,18.52,11.2,5.84,5.06,9.89,11.17,9.27,19.18-.84,10.85-5.46,20-14.25,26.59a21.55,21.55,0,0,1-19.42,3.71,41.39,41.39,0,0,1-17.11-9.32c-7.2-6.56-8.65-14.9-7.09-24C562,1230.62,565.29,1222.81,568.57,1215Z"/><path class="cls-11" d="M157.47,1211.58c6.26.94,12.56,1.38,18.88,1.77a7.9,7.9,0,0,1,2.68.83c2.43,6.24,5.15,12.38,6.93,18.85,1.58,5.69,2.77,11.4,1.54,17.39a21.56,21.56,0,0,1-5.73,11.15,38.26,38.26,0,0,1-22.62,11.48,20.58,20.58,0,0,1-15.41-4.42c-8.69-6.73-13.33-15.77-14.15-26.7-.48-6.39,2.06-11.73,6.34-16.34,4.93-5.32,11.16-8.75,17.5-12C154.77,1212.9,156.12,1212.25,157.47,1211.58Z"/><path class="cls-12" d="M970.67,657.29l14.17-.09c.28.15.37.31.28.46s-.17.24-.27.24l-14.08,0A1,1,0,0,0,970.67,657.29Z"/><path class="cls-13" d="M1192.56,657.92a1.6,1.6,0,0,1,1.85-.68,1.81,1.81,0,0,0-.14.69Z"/><path class="cls-14" d="M984.85,657.9c0-.23,0-.47,0-.7q41.59,0,83.17,0c1.31,0,2.77-.47,3.87.74Z"/></svg>