<svg id="Layer_1" data-name="Layer 1" xmlns="http://www.w3.org/2000/svg" viewBox="0 0 5294 5294"><defs><style>.cls-1{fill:#338677;}.cls-2{fill:#fff;}</style></defs><path class="cls-1" d="M1001.32,3120c4.83,2.68,9.85,5.07,14.46,8.08q178.42,116.53,384.8,169.64a46.86,46.86,0,0,1,7.83,2.56c.53.25.71,3.12.19,3.46a64.49,64.49,0,0,1-9,4.89,157.29,157.29,0,0,0-53.54,38.85c-83.65,92.92-37.53,236.79,79.84,266.91,14.73,3.78,30,5.77,45.06,7.85,85.43,11.74,171.3,15.86,257.48,13.93,3.47-.07,6.95,0,10.41-.23,5.25-.42,9.42,1.54,13,5.19,2.93,3,5.94,5.83,8.92,8.74,226.62,221,476.24,412.12,747,575.82,101,61.06,204.48,117.55,311,168.45,20.85,10,14.95,10.27,36.25-.15q417.67-204.42,781.18-494.44,217.1-172.72,406.9-375.06c148.25-158.81,280.5-329.77,390.24-517.63,78.28-134,143.25-274,190.89-421.94a1771.19,1771.19,0,0,0,63.86-266.77,1498.91,1498.91,0,0,0,16.59-313.35c-5.33-101.58-22-201.24-57.16-297.2-24.78-67.55-57.85-130.6-102.29-187.39-62-79.22-139.59-138.49-231.49-179-66.48-29.31-136.07-47.13-208.23-55.71-29-3.46-58.15-3.75-87.19-6-10.73-.84-10.87-.81-12.56-12.1-10.36-69.44-39.25-129.88-88.93-179.62-50.16-50.22-110.67-80-181.25-89.78-49.92-6.93-98.2-1-145.62,14.71q-189.51,62.92-379,125.94c-15.12,5-30.34,9.78-45.54,14.58-1.92.6-4.14.41-4.86-1.79-.32-1,.51-2.83,1.41-3.6,3.68-3.13,7.51-6.13,11.45-9,162.53-117.07,341.28-198.47,536.67-242.77A1285,1285,0,0,1,3882.57,869c45.67-4,91.36-6.92,137.19-6.18,176.52,2.84,345.71,38,504.52,116.93,198.42,98.6,348.41,247,451.84,442.7,56.18,106.26,93.54,219.13,117.08,336.81,8,40.16,13.77,80.65,19.25,121.2.19,1.37.36,2.75.44,4.14,1.21,21.38.77,42.88,5,64v266.55c-1.24,11.65-2.79,23.27-3.65,35-.91,12.45-.34,25.06-1.89,37.41-4.42,35.08-9.18,70.13-14.52,105.09-15.4,100.95-39.39,199.93-69.64,297.41-66,212.64-161.44,411.61-279.08,600.24-122.39,196.25-265.69,376.22-424.77,543.79q-220.48,232.24-474.25,427.68c-307,237.86-637.75,435.76-994,590.81-4.27,1.86-9.54,2.51-12.2,7.27h-8.33c-3.14-4.26-8.31-4.9-12.67-6.72-244.63-102.35-476-229.21-696.82-375.74q-337.37-223.91-630.17-503.6c-176.85-169.49-338-352.57-479.4-552.78-15.61-22.1-30.72-44.56-45.89-67-5.94-8.77-5.88-9.08,2.45-17,22.66-21.53,39-46.93,46.76-77.31,10.3-40.52,6.68-79.79-12.42-117.3q-4.7-9.22-9.42-18.43Q999.65,3122,1001.32,3120Z"/><path class="cls-1" d="M1717.34,3253.75c-308.34-3-578.38-106.43-807.43-313-196.59-177.27-321.77-397.29-380.49-655.11-14.49-63.62-23.16-128.19-27.25-193.43-2.48-39.54-3.68-79.06-2.29-118.57,9.68-274.67,96.13-522.28,265.79-739,160.86-205.52,366.89-346.29,617.58-420.57a1126.84,1126.84,0,0,1,210-40.87c45.61-4.5,91.26-7.49,137.1-6.73,225.17,3.71,433.7,64.34,624.56,184.1,143.59,90.1,262.94,205.73,359.26,345.17.79,1.14,1.57,2.29,2.34,3.44,13.15,19.63,12.52,14.73-3.92,29-63.08,54.73-100.27,123.77-109.09,206.53-9.08,85.15,13.35,162.54,67,229.69,54.13,67.77,125.43,105.7,211.22,116.52,12.34,1.56,24.94,1,37.42,1.53,7.8.34,9.48,1.89,10.69,9.64.53,3.42.74,6.9,1,10.36,4.26,62.34,5.71,124.62,1.75,187.14a1272.23,1272.23,0,0,1-67.57,337.47c-110.21,318.47-346.46,579.5-651.16,719.07a1176.8,1176.8,0,0,1-318,94.38A1193.89,1193.89,0,0,1,1717.34,3253.75Zm11-2183c-30.15,1.47-64.08,2.7-97.94,6.35a876.52,876.52,0,0,0-212.15,49.62c-203.76,75.73-362.49,207-477,391.21-88.28,142-134.75,297.41-142.22,464.37-3.55,79.34,1.93,158.17,17.94,236,34,165.16,105.35,312.22,215.95,439.64,101,116.35,223.24,203.21,366.91,259.46a903.5,903.5,0,0,0,252.42,58.78,924.3,924.3,0,0,0,126.87,2.1c49.34-2.51,98.18-8.49,146.32-19.15q288.17-63.78,488-281.23c150.2-163.91,232.63-358,250.34-579.2,7.73-96.63,1.26-192.88-20.85-287.54-49.45-211.73-156.07-389-323.92-527.75C2149,1142.86,1952.38,1073.59,1728.29,1070.7Z"/><path class="cls-1" d="M2676.88,1569.26c-2.28-85.08,49.08-189.71,162.53-228.24,65-22.07,130.24-43.33,195.37-65q288.18-95.68,576.32-191.44c27.86-9.28,56.15-15.08,85.65-14.67,107.66,1.51,203.44,74.74,229.92,183,29.8,121.73-39.81,245.14-156.15,283.76q-225,74.68-449.94,149.57-160.85,53.48-321.68,107a271.85,271.85,0,0,1-83.64,14.41c-93.83,1-196.4-60.26-229.33-172.75C2679.46,1612.8,2675.76,1590.26,2676.88,1569.26Z"/><path class="cls-1" d="M3134.23,2550.18c-1.39,16.41-4.34,29.06-9.34,41.46a1544.59,1544.59,0,0,1-106.2,214.13c-75.86,127.12-167.45,241.57-275.87,342.5-14.64,13.63-30.89,23-50.89,26.19-43,6.91-86.45-20.53-97.52-62.77-8.61-32.84-.94-61.79,22.94-86.08,10.22-10.38,21.05-20.16,31.42-30.39q203.59-200.68,311.69-465.34c2.37-5.77,4.64-11.6,7.47-17.15,16.44-32.21,49-50.25,85.59-47.62,34.15,2.46,64.58,26.21,75.43,59.7C3131.91,2534,3132.93,2543.72,3134.23,2550.18Z"/><path class="cls-1" d="M691.84,1029.29c-28.16-.85-56-18.2-70.61-52.65-14.54-34.24-9.57-67.4,16.81-94.41,19.82-20.3,41.68-38.72,63.54-56.9q234.95-195.41,526.87-286.07c21-6.59,41.71-9.8,63.19-2.83,34.79,11.29,59.31,42.89,61,79a87.4,87.4,0,0,1-52.59,84.72,193.57,193.57,0,0,1-19.59,6.92Q997.22,795.7,775.79,993.28c-5.68,5.09-11.28,10.3-17.11,15.22C741.3,1023.13,724.13,1029.29,691.84,1029.29Z"/><path class="cls-1" d="M1685.42,3561.36c-69.93,1.39-141-4.86-211.87-14.21-7.55-1-15.08-2.27-22.57-3.63-48.28-8.75-78.67-53.79-71.89-98.89a88.25,88.25,0,0,1,98.76-74.84c20.61,2.64,41.19,5.56,61.8,8.22,53.06,6.84,106.38,8.49,159.81,8.29,130.51-.49,258.11-20.34,383-57.7,19-5.68,37.75-8.23,57.2-2.42,36.35,10.87,61.3,42.38,63.39,79,2.27,40-22.11,75.59-57.42,87.45-24.92,8.36-50.44,15.05-75.91,21.67-75.92,19.73-153.08,32.83-231.07,40.71A1307.31,1307.31,0,0,1,1685.42,3561.36Z"/><path class="cls-1" d="M950.28,3216.67c1.71,64.86-69.85,110.53-130.16,76.81-7.84-4.39-15.14-9.78-22.49-15Q522,3082.89,351.51,2791c-9.26-15.88-15.24-32.19-15.72-50.95-.86-33.68,21-71,60-83.74a87.68,87.68,0,0,1,99.44,33.1c3.18,4.53,5.78,9.46,8.58,14.25q151,258,394.68,431c5.66,4,11.46,7.82,17,12C938.38,3164.31,950.15,3188.07,950.28,3216.67Z"/><path class="cls-1" d="M2515.64,900.16c-19.53.7-36.64-5.84-52.57-16.75a1326.2,1326.2,0,0,0-130-78.48c-121-64-248.47-109.67-382.94-135.57-16.33-3.14-32.78-5.71-49.16-8.66-39.36-7.08-65.3-32.29-74.4-69.19-11.47-46.47,24.18-108.12,90-105.54,13.78.53,27.53,3.35,41.17,5.83,216.53,39.49,416.45,120,599.11,243,6.32,4.25,12.69,8.6,18.27,13.74,49.51,45.71,31.33,127.15-32.78,147.91C2533.53,899.31,2524.66,900,2515.64,900.16Z"/><path class="cls-1" d="M142.62,2011.93c.54-190.12,35.56-373.71,103.41-551.17,2.73-7.12,5.38-14.3,8.64-21.19,26.71-56.42,103.3-67.65,144.66-20.94,22.65,25.58,27.35,55.46,17.16,87.55C411.05,1523.35,404,1540,397.88,1557c-30.17,83-51.22,168.45-64.51,255.73-15.1,99.19-17.83,198.93-11.46,299,2.85,44.79-25.53,82.79-69.88,92.72-41.71,9.34-84.82-14.73-99.92-55.79-4.12-11.19-5.7-22.9-6.14-34.69C144.69,2079.91,143.72,2045.92,142.62,2011.93Z"/><path class="cls-1" d="M3155.78,1155.27c-.46.29-1.1.94-1.35.81-1.64-.78-1.53-1.59.24-1.94C3155,1154.09,3155.4,1154.87,3155.78,1155.27Z"/><path class="cls-1" d="M990.17,3115.18l-.26.29S990.17,3115.18,990.17,3115.18Z"/><path class="cls-1" d="M1028,2510.79c-5.86-3.15-8.14-9.24-11.37-14.39q-92.36-147.09-122.42-318.18a875.16,875.16,0,0,1-10.83-217.65c24.07-325.27,218.88-592.38,483.25-721.54a827.26,827.26,0,0,1,265.91-78.56c60.89-7.36,121.79-8.51,182.69-2.1,155.32,16.35,295.93,71.11,420.46,165.43,141,106.79,240.14,244.52,298.93,411.27,2.48,7,6.7,13.9,5.15,22l.31-.29c-4.17.72-6.11-2.5-8.39-4.92-12.4-13.14-23.42-27.39-33.9-42.1-44.83-62.86-94.83-121.27-151.22-174.08C2239.07,1435,2116.26,1360.49,1974.76,1318c-57.27-17.19-115.75-27.75-175.42-32.76-50.69-4.25-101.25-4-151.62,1.64-200.08,22.49-371.25,103.37-506.11,255-78.92,88.75-130.13,192.45-159.14,307.32-19.82,78.47-27.3,158.28-26.38,239.11,1.22,106,18.23,209.72,45.14,312q12.16,46.23,24.58,92.39c1.61,6.05,3.51,12,1.85,18.37Z"/><path class="cls-1" d="M2539.73,1757.05l1.63.93c-.69,1.17-1.13.77-1.32-1.22Z"/><path class="cls-1" d="M1027.66,2511.11c.61.16,1.75.3,1.76.49,0,1.32-.53,1.06-1.45-.81C1028,2510.79,1027.66,2511.11,1027.66,2511.11Z"/><path class="cls-2" d="M5033.29,3873.43,4447.68,4459a68.74,68.74,0,0,1-96.26,0l-263.23-263.23a67.16,67.16,0,1,1,95-95l216.38,216.38,553-553c-121-132.52-295.84-215.77-490.31-215.77-365.17,0-661.2,293.55-661.2,655.66s296,655.66,661.2,655.66,661.2-293.55,661.2-655.66A648.37,648.37,0,0,0,5033.29,3873.43Z"/></svg>