<svg id="Layer_1" data-name="Layer 1" xmlns="http://www.w3.org/2000/svg" viewBox="0 0 1520 2304.25"><defs><style>.cls-1{fill:#b1b5bd;}.cls-2{fill:#b2b6be;}.cls-3{fill:#b2b5bd;}.cls-4{fill:#b2b6bd;}.cls-5{fill:#b3b6be;}.cls-6{fill:#b3b7bf;}.cls-7{fill:#b4b8bf;}.cls-8{fill:#b4b8c0;}.cls-9{fill:#b6b7bf;}.cls-10{fill:#f9fafb;}</style></defs><path class="cls-1" d="M1077,1009.62a33.7,33.7,0,0,0-3.49.17c-3.53.5-6.84,3.62-6.69,7.5.13,3.49,0,7,1.19,10.34.79,2.15.66,2.19-1.55,3.85a3.34,3.34,0,0,0-.77.61,1.42,1.42,0,0,0-.27.9c.27,2,3.1,3.26,4.62,2a37.47,37.47,0,0,0,2.87-2.77c2.37-2.34,4.68-4.75,7.1-7,3.13-3,6.75-3.38,10.64-1.7a92.37,92.37,0,0,1,12.63,7.06,25.2,25.2,0,0,1,4,3.78c2,2,3.89,4.12,5.93,6.08,1.55,1.48,2.4,1.2,3.29-.88.58-1.38,1-2.83,1.71-4.14a6,6,0,0,1,5.16-3.45,11,11,0,0,1,5.3,1.16c2.5,1.4,4.46,3.43,4.43,6.72,0,2.25-.73,4.07-3,4.6-1.9.45-2.72,1.67-3.55,3.17a19.51,19.51,0,0,0-2.35,7.58,59.38,59.38,0,0,0,.24,13.45,144.86,144.86,0,0,1,1.55,15.85,44.59,44.59,0,0,1-1.22,9.87,10.42,10.42,0,0,1-2.2,5c-3.38,3.61-4.41,8.11-5.61,12.6a17.92,17.92,0,0,1-1.21,3.8c-2,3.76-4.88,6.39-10.23,4.1-4.93-2.11-9.58-4.67-13.34-8.6-2.3-2.41-4.78-4.68-6.85-7.27a31.48,31.48,0,0,1-7.12-18.83c-.16-4.47-2.2-7.52-5.35-10.22-.88-.75-1.76-1.5-2.6-2.29-.36-.35.06-1.56.53-1.71a2.79,2.79,0,0,1,1-.25c2.94.2,5.1-1.2,7-3.29a15.75,15.75,0,0,1,1.42-1.41c1.74-1.53,2.92-1.6,4.92-.26.68.46,1.27,1.07,1.92,1.58,2.36,1.87,3.42,1.78,5.45-.51.77-.87,1.4-1.86,2.13-2.78a2.38,2.38,0,0,1,3.06-.94c2.3,1.06,4.14.44,5.89-1.24s2.94-3.59,2.57-6.17a2.74,2.74,0,0,0-2.67-2.46,2.07,2.07,0,0,0-.49.07c-4.55,1-8.9,0-13.25-1.27-2.71-.83-3.53-.4-4.75,2.14-.8,1.64-1.4,3.37-2.16,5a12.41,12.41,0,0,1-6.39,6.72c-2.73,1.16-5.51,2.51-8.63,1.22a1.93,1.93,0,0,0-2.22.67c-.59.59-1.15,1.21-1.78,1.75-1.68,1.45-2.45,1.45-4.34,0-.78-.6-1.36-1.61-2.41-1.67-3.08-.17-4.28-2.17-4.93-4.78-.33-1.31-1.29-1.44-2.33-1.08-4.27,1.49-8.21.34-12-1.5a37.71,37.71,0,0,1-7.46-5,61.54,61.54,0,0,1-10.06-10.35c-3.61-4.74-8.29-5.05-13.44-4.23-1.63.26-3.22.83-4.83,1.23a15.68,15.68,0,0,1-2.44.47c-3.73.32-5.6-.8-7-4.22-1.63-4-1.69-8.13-1.36-12.29a8.9,8.9,0,0,1,1.33-3.19c2.89-5.43,2.3-10.58-1.23-15.46-1.46-2-3.13-3.89-4.69-5.84s-3.24-3.81-4.65-5.86a19.45,19.45,0,0,1-3.8-10.15,12.84,12.84,0,0,0-3.32-7.65,26,26,0,0,0-8.07-6.57A144.16,144.16,0,0,0,950,964.6a71.53,71.53,0,0,1-9.15-4,32.16,32.16,0,0,1-4.68-2.86c-4.43-3.51-8.77-7.12-13.11-10.74a10,10,0,0,1-1.92-2.27c-1.29-2-1.18-3.12.33-5,.1-.13.23-.24.34-.37,3-3.57,3.19-4.51.5-8.21-3.85-5.29-8.78-9.53-13.86-13.6a5,5,0,0,0-3.29-.91c-2.5,0-5,.07-7.5,0s-3.18-.57-3.73-3.09a7.39,7.39,0,0,0-2.19-3.8c-3.45-3.41-6.6-7-8.51-11.59a2.23,2.23,0,0,0-2.38-1.42,17.42,17.42,0,0,0-3.48.19,35.19,35.19,0,0,1-7.44.76,8.34,8.34,0,0,0-2.45.35,1.61,1.61,0,0,0-1.09,2,14.51,14.51,0,0,0,.69,1.87,128.72,128.72,0,0,1,7.18,27.92c.62,4.28.48,8.61,1.37,12.87a8.17,8.17,0,0,0,3.29,5.3c2.69,2,5.42,3.86,8.15,5.77a32.31,32.31,0,0,1,6.25,5.71c1.19,1.42.58,2.83-1.31,3.23-.64.14-1.32.12-2,.26a.83.83,0,0,0-.62,1.14,18.35,18.35,0,0,0,1.64,3.06,92,92,0,0,1,7.24,13.11c2.38,5.15,4.64,10.37,3.35,16.29a4.53,4.53,0,0,0,.42,2.41c2.16,6.88-.07,13-6.17,16.71a20.9,20.9,0,0,1-4.06,1.91c-6,2.12-9.28,1-12.9-4.1a48.32,48.32,0,0,1-6.11-12c-2.31-6.6-4.53-13.22-7-19.77a54.72,54.72,0,0,0-5.86-12.1A33.4,33.4,0,0,0,849,959a146.35,146.35,0,0,1-17-11.3c-6.6-5.06-13.22-10.1-19.73-15.27-11.21-8.9-22.39-17.83-34.49-25.53a216.21,216.21,0,0,0-21.06-11.43c-1.78-.86-3.41-1.31-5,.24-7.09,6.74-15.87,10.24-25.07,12.83a66.32,66.32,0,0,0-6.51,2.51c-5.36,2.13-7.72,6.55-9,11.76A40.27,40.27,0,0,0,710,933.69c0,1.83,0,3.67,0,5.5s-.53,2.39-2.32,2.54a48.18,48.18,0,0,0-6,.54A24.41,24.41,0,0,0,691.33,947a16.34,16.34,0,0,1-15,3,57.68,57.68,0,0,1-9.94-3.22,6.76,6.76,0,0,0-5.73-.16,47.48,47.48,0,0,1-5.29,1.45,14.39,14.39,0,0,1-1.94.46c-3.47.39-5.4-1.21-5.5-4.72-.09-3,0-6,.06-9a24,24,0,0,0-1.43-7.81c-.9-2.88-3-3.9-5.83-3.38a5.81,5.81,0,0,0-2.9,1.83c-2.33,2.18-4,4.9-5.92,7.39a12.28,12.28,0,0,1-4.4,4,4.38,4.38,0,0,1-2.38.57,2,2,0,0,1-1.79-2,18,18,0,0,1,.57-1.9,135.45,135.45,0,0,0,3.69-15c1.54-8.2-2.59-16.09-12.26-17.91-5.49-1-10.93-.86-16.41-.73a1.65,1.65,0,0,0-1.61,2.4c.36.93.84,1.81,1.28,2.71a22.06,22.06,0,0,1,1.27,2.7c.72,2.31-.5,4-2.9,4.12a13.52,13.52,0,0,1-4.41-.7c-1.91-.52-2.88.56-2.32,2.48a29.26,29.26,0,0,0,1.26,3.26,8.33,8.33,0,0,1,.5,4.41,2.54,2.54,0,0,1-3.79,1.86,5.13,5.13,0,0,1-2.08-2.1c-2.87-5.14-4.93-10.58-5-16.53a104.89,104.89,0,0,1,.64-15.43c.68-5.25.26-10.65.34-16a5.44,5.44,0,0,0-1.65-3.52,15.62,15.62,0,0,1-3.6-10.12,14.45,14.45,0,0,1,3.91-10,51,51,0,0,1,11.15-9.17c1.13-.7,2.22-1.48,3.38-2.12A43.09,43.09,0,0,0,610.54,825a39,39,0,0,1,10.87-10.22c3.54-2.28,7.21-4.14,11.58-4.08.44,0,1.24-.3,1.25-.48.08-2.26,2.29-3.2,3-5a5.35,5.35,0,0,0,.26-3.4,47.4,47.4,0,0,0-2.72-8.54c-1.55-3.31-3.07-6.65-4.53-10a11,11,0,0,1-1.22-3.76c-.09-2.13-1.16-3.22-2.86-4.27-7.19-4.46-15.14-6.76-23.31-8.48-3.41-.72-6.84-1.41-10.21-2.28a23.09,23.09,0,0,1-6.46-2.62c-3.08-1.91-5.4-4.4-6.23-8.06-.4-1.77-.83-3.54-1.25-5.29-1-.27-1.56.44-2.1,1a14.47,14.47,0,0,0-3.62,9.09,37.15,37.15,0,0,0,1.32,12.84q2.61,9.62,5.17,19.25a48,48,0,0,1,1.56,13.82c-.22,6.9-3.69,11.52-9.73,14.47a4,4,0,0,1-1.38.56c-5.47.27-11,.94-16.34-.76-5-1.57-7.31-5.2-7.55-10-.18-3.83-.8-7.6-1-11.42a15,15,0,0,0-4.07-8.91,4,4,0,0,0-3.46-1.68c-3.56.33-5.93-1.65-8.18-4A20.31,20.31,0,0,1,526,777.8a12.07,12.07,0,0,1-1-5.83c0-1.46,1.25-2.42,1.4-3.67s-1.37-2.2-1.37-3.65a3.88,3.88,0,0,1,1.47-3.51c.81-.58,1.67-1.11,2.43-1.75,1.14-.94,1.26-2,.32-3a22.09,22.09,0,0,0-2.86-2.78c-1.64-1.25-3.22-3.64-5.35-2.74-1.75.74-.78,3.33-1.05,5.09-.37,2.46-.69,4.93-1.09,7.39a7.22,7.22,0,0,1-.67,1.87c-1.43,3.1-3.57,4.18-6.89,3.41a8.61,8.61,0,0,1-4-2,21.26,21.26,0,0,0-6.05-4.31,2.31,2.31,0,0,1-1.23-3,5.44,5.44,0,0,0-.58-4.71,45.56,45.56,0,0,1-4.34-14.76c-1.06-7.23-1.68-14.51-2.29-21.79-.76-8.91-1.51-17.84-3.58-26.62a36.43,36.43,0,0,0-9.8-17.59,47,47,0,0,1-6.77-8c-1.77-2.88-2.6-5.82-.48-8.85,1-1.38,0-2.56-.11-3.82-.15-1.75.68-2.57,2.34-2.15,1.11.28,2.16,1.07,3.34.4a7.5,7.5,0,0,0,2.76-2.83,2.36,2.36,0,0,0-.16-2.8c-.63-.77-1.39-1.44-2-2.23a47.73,47.73,0,0,1-4.12-5.63c-1.73-3.11-2.59-6.48-1.15-10,1.84-4.48,1.06-8.43-2.23-12-1.35-1.46-2.58-3-3.84-4.58-.75-.92-.59-2,.66-2.32,1.79-.48,2.38-1.41,2.36-3.19-.05-5.33,0-10.66,0-16a17.83,17.83,0,0,0-.42-4.45c-.86-3.3-2.67-4.65-6.1-4.73-2.16-.06-4.33.08-6.49,0-4.74-.12-7.11-2.22-8.3-7a17.82,17.82,0,0,1-.22-6.39,121.91,121.91,0,0,1,3.33-17.6,6.14,6.14,0,0,0-.23-3.92c-.25-.62-.45-1.25-.7-1.87-2.36-5.8-2.25-11.71-.59-17.6a35.12,35.12,0,0,1,11.75-18.17,11.17,11.17,0,0,1,7.38-2.51c3.32,0,5.3,1.72,6.48,4.54.69,1.65,1.13,3.4,1.65,5,1.54.28,2.2-.95,3.2-1.44,4.1-2,7.15-.94,8.81,3.3a15.07,15.07,0,0,1,1.26,5.32c0,2.33,0,4.67.22,7a4.41,4.41,0,0,1-2.33,4.56c.25.37.37.75.62.87,6.29,3,10.3,8.26,13.69,14.13,1.83,3.16,3.91,6.19,5.69,9.39,1.58,2.86,3.88,3.86,7,3.57a21.86,21.86,0,0,0,5.9-.85,35.86,35.86,0,0,1,3.86-1c5.57-1.41,5.57-1.41,10.8.58.93-3,3.13-5.29,5.07-7.69a32.31,32.31,0,0,0,6-11.94,15.9,15.9,0,0,0,.09-8.86,10.63,10.63,0,0,0-5.89-7.08c-2.33-1-3.32-2.66-3.82-5.3-1.49-7.83-2.59-15.72-3.62-23.61a198.62,198.62,0,0,1-1.07-31.89c1.28-4.53.55-9.27,1.61-13.85a96.66,96.66,0,0,0,1.32-10.37,10.35,10.35,0,0,1,4.23-7.5c6.86-5.34,10.53-12.51,11.9-21.18,1.07-6.74-.23-13.22-.77-19.8-.35-4.3-1.48-8.51-1.5-12.86,0-1.32-.3-2.64-.44-4a24.12,24.12,0,0,1-.32-4c.47-6.82,1.15-13.62,4.5-19.75a9.34,9.34,0,0,0,.89-6.2c-.74-5.48-3.31-10.05-6.52-14.37-1.89-2.53-3.82-5-5.7-7.58a21.42,21.42,0,0,1-3.74-8.62,13.16,13.16,0,0,1,0-5.89,36.86,36.86,0,0,1,2.64-8,9.81,9.81,0,0,1,2.55-3.65c3.16-2.5,4.72-6.06,5.88-9.69A104.48,104.48,0,0,0,552.93,274c1.86-10.11,3.31-20.3,5.25-30.4,1.53-8,2.9-16,5.68-23.72a43,43,0,0,1,5-10.27,40.39,40.39,0,0,0,6.51-15,35.06,35.06,0,0,0,.41-10.41c-.26-3-.94-5.9-1.45-8.84-1-6,1.34-10.69,6.81-13.59,4.93-2.61,10.32-3.65,15.69-4.75,2.11-.44,4.25-.77,6.39-1.05a2.8,2.8,0,0,0,2.65-2.51c.33-1.62.69-3.24,1.1-4.84a11.26,11.26,0,0,1,.87-2.33c2.78-5.44,5.86-5.16,9.6-2.52a47,47,0,0,1,6,5.24,21.43,21.43,0,0,0,5.65,4.06,6.9,6.9,0,0,0,7.92-.89,8.55,8.55,0,0,0,1.44-1.38c2.28-2.84,5.46-3.53,8.85-3.89,10.68-1.13,20.8.92,30.67,5A197.18,197.18,0,0,1,706.66,167c11.33,7,22.55,14.16,34,21,7.86,4.68,16,8.89,24.82,11.62a45.19,45.19,0,0,0,13.7,2.35,29.14,29.14,0,0,0,21.13-8.61,55.2,55.2,0,0,0,12.15-18.1,66.89,66.89,0,0,0,3.21-7.84,7,7,0,0,1,5.09-5c5.38-1.49,10-.71,12.87,4.59a17.28,17.28,0,0,1,2.09,6.1,6.79,6.79,0,0,0,2.56,4.63,25.06,25.06,0,0,1,3.17,3.18c4.35,5.46,6.53,11.36,4.75,18.55s-5.62,13.07-10,18.79a120.75,120.75,0,0,1-11.18,12.1c-1.21,1.22-2.15,2.45-2.06,4.33.52,10.83-.73,21.61-1.21,32.4-.45,9.82-1,19.63-.63,29.43.45,10.28,1.58,20.52,4.92,30.38,2.83,8.36,7.15,15.74,13.86,21.59a51.88,51.88,0,0,0,12.12,7.84c1.47.69,2.85.91,4.16-.29,1.1-1,2.22-.61,3.17.14,3,2.38,4.5,5.7,5.53,9.26a2.29,2.29,0,0,1-.51,1.81c-.47.54-1.2.29-1.79-.12a4.61,4.61,0,0,0-1.27-.76c-.57-.17-1.08.34-.91.78,1.83,4.39,1.26,8.67,0,13.13-1.1,3.92,2.77,8.44,6.81,8.5a2.77,2.77,0,0,0,.5,0c5.55-.76,7.47,2.41,8.1,7.74.43,3.68-.7,7.24-1.45,10.82-2,9.66-5.77,18.73-9.54,27.79-3.6,8.61-7.81,16.93-12.13,25.19A180,180,0,0,1,839,482.88a4.08,4.08,0,0,1-.56.82c-4,3.3-5.29,8.35-7.94,12.52a13.24,13.24,0,0,0-1.27,3.24c-.26.82-.27,1.69.9,1.87,1.45.21,1.88,1.17,1.9,2.47a11.87,11.87,0,0,1-1.17,6.3c-.81,1.45-1.5,3-2.17,4.49-1,2.24-.94,2.28,1.66,3.32,1.29.52,1.93,1.46,1.47,2.68a33.58,33.58,0,0,1-5.66,10.47c-5.32,6.18-10.49,12.48-15.84,18.63-4,4.65-8.22,9.17-12.38,13.71a16.14,16.14,0,0,1-2.28,1.91c-.5.37-1.42-.1-1.56-.71a7.1,7.1,0,0,1,.86-4.81,78.75,78.75,0,0,1,7.4-11.84c3.17-4.48,6.34-9,9.47-13.48a23.15,23.15,0,0,0,1.68-3.05,1.05,1.05,0,0,0-.09-.9,1,1,0,0,0-.85-.33c-1.78.45-3.31,1-3.94,3.18-1,3.47-3.39,6-6.41,8A73.7,73.7,0,0,1,790,548.05a155.72,155.72,0,0,1-27,8.86c-4.11.91-7.16,3.43-10.28,5.88a135.31,135.31,0,0,0-15,13.9,44.41,44.41,0,0,0-8.57,12.8c-2.83,6.53-.75,12.18,5.34,15,1.2.57,2.45,1,3.68,1.53a5.66,5.66,0,0,1,2.61,2.23,5.26,5.26,0,0,1-.32,6.5c-1,1.32-2.27,2.43-3.38,3.67s-1.07,1.87.23,2.85a16.28,16.28,0,0,1,2,1.41,1.07,1.07,0,0,1-.18,1.71,3.52,3.52,0,0,1-.89.44c-5.77,2.23-9.4,6.68-12.28,11.88a137.53,137.53,0,0,0-7,15.45A58.11,58.11,0,0,1,715.8,659c-2.58,4.58-5.84,8.53-11,10.37-2,.73-2.63,2.23-2.82,4.24-.48,5.13.24,9.95,3.15,14.32a12.81,12.81,0,0,1,1.71,3c.57,1.74,1.41,2.88,3.39,3.13,1.19.16,1.94,1.26,2.55,2.26,1.38,2.28,2.78,4.54,4,6.88,4.86,8.95,8.34,18.5,12.13,27.91,3.42,8.49,6.83,17,11.51,24.89A60.3,60.3,0,0,0,752,770.27c.74.67,1.45,1.38,2.12,2.12a1.29,1.29,0,0,1-.62,2c-2.27.48-4.57.81-6.82,1.36a15.45,15.45,0,0,0-7.75,4.3,10.37,10.37,0,0,0-3,7.16,30.48,30.48,0,0,0,2.66,12.6c2.47,6,5.18,11.89,7.93,17.77,2.89,6.18,6.23,12.15,8.62,18.56,1.63,4.38,3,8.8,2.85,13.56-.06,2.18,0,4.36-1.2,6.3-.83,1.38-.37,2.44.54,3.61,5.37,6.89,12.1,12.34,18.94,17.63a172.81,172.81,0,0,0,23.43,15.23,66.21,66.21,0,0,0,17.64,6.8,9.25,9.25,0,0,0,9.33-1.91c1.16-1,1.21-1.91.24-3s-1.89-1.89-2.77-2.89c-1.22-1.36-1.45-2.61-.73-3.56a2.66,2.66,0,0,1,3.14-.86c2.4.66,4.82,1.27,7.19,2.05a12.6,12.6,0,0,0,4.42.64c2.06-.08,2.85-1.48,2.08-3.47a11.72,11.72,0,0,0-2.61-3.61c-3.53-3.81-7.81-6.74-11.76-10a28.17,28.17,0,0,1-4.29-4.16c-2.87-3.73-2-7.78,2.09-10.11a41.81,41.81,0,0,1,5.92-2.63,3,3,0,0,0,2.25-2.93,6.64,6.64,0,0,1,1-3.8,2.55,2.55,0,0,1,2-1.25,2.5,2.5,0,0,1,2.36,1.52,6.52,6.52,0,0,1,.44,5.35,7.06,7.06,0,0,0,.75,6.16c1.33,2.49,2.52,5.07,3.88,7.55.82,1.49,1.92,1.45,3.24.23A4.38,4.38,0,0,0,847,864a30.61,30.61,0,0,0-1.29-3.23c-1.37-3.61-1-5.3,1.78-8,.48-.46.82-1.18,1.38-1.42,2.43-1.06,3.25-2.54,1.69-4.94a1.93,1.93,0,0,1,.14-1.91c1.16-2.54,1.88-5.48,5.33-6a1.19,1.19,0,0,0,.44-.21c1.25-.89,1.11-2.9,2.68-3.46,1.38-.5,3,.11,4.34-.85.68-.49,1.4-.92,2.08-1.39,1.83-1.28,3.69-2.29,6-1.26a2.09,2.09,0,0,0,1.45.08c4.43-1.82,8.1.41,11.85,2.18,2.23,1.05,3.93,3.06,6.53,3.54,1,.18,1.35,1.38,1.94,2.17a2.08,2.08,0,0,0,2.63.77c1.16-.43,2.1-1,2-2.46,0-.67-.09-1.34-.06-2,.11-2.69.73-3.53,3.19-4.41,1.76-.62,2.82-.36,4,1.08a16.06,16.06,0,0,1,1,1.7c.67,1.12,1.53,1.71,2.89,1.18a7.35,7.35,0,0,1,7.89,1.35c1.39,1.14,3.25,1.67,4.81,2.63a55.07,55.07,0,0,1,13.6,11.66,145.46,145.46,0,0,0,12.08,12.62,27.34,27.34,0,0,0,5.58,4.17c3.86,2.12,4.69,5.35,4,9.31-.23,1.3-.75,2.55-1,3.86-.34,2.15.24,4,2.34,5,.59.3,1.16.66,1.75,1,2.65,1.38,3.66,3.72,3.88,6.54a24.93,24.93,0,0,1-1.89,11.21c-1.28,3.24-2.81,6.39-3.52,9.84-1.62,7.9-.55,9.41,5.58,12.54,9.31,4.76,21.26,2.63,28-4.77a17,17,0,0,0,1.57-1.93c1.94-3,2.83-6,.5-9.23-.78-1.07-1.22-2.37-1.9-3.51a6.74,6.74,0,0,1,.2-7.89c-.88-1.59-2.48-1.8-3.75-2.47a18,18,0,0,1-6.57-6c-1.43-2.1-1.26-3.11.9-4.46a7.72,7.72,0,0,0,3.9-7.06c0-.5,0-1,0-1.49.26-2.65,1.35-3.86,3.83-3.34,2.06.44,3.93-.13,5.89-.16,1.46,0,2.07-.8,2.11-2.19a4,4,0,0,1,.25-1.46,1.21,1.21,0,0,1,1.6-.74,6,6,0,0,1,4.28,5c.16.81,0,1.67.12,2.49.13,1.08-.74,2.48.5,3.18.91.5,1.82-.57,2.78-.78s1.48.42,1.65,1.32c.66,3.42,1.22,6.86,2,10.25a15.84,15.84,0,0,0,2.26,6.15c1.73-1,1.46-2.77,1.83-4.25a1.83,1.83,0,0,1,2.64-1.43c1.54.62,3,1.37,4.54,2.07,4.68,2.17,9.35,4.36,14,6.52.86.4,1.73,1,3.07.43-1.19-1.94-1.81-3.92-1-6.06.57-1.48,1.32-2.76,3.21-2.52s2.64-.68,3.34-2.26c.81-1.85,2-2,3.51-.82a28.56,28.56,0,0,1,2.63,2.29c2.27,2.28,2.26,4.78-.11,7a11.35,11.35,0,0,1-5.74,2.84c-1,.18-2,.16-3.09.25,6,2.57,9,1.83,13.11-3.18.42-.51.76-1.09,1.19-1.59a1.46,1.46,0,0,1,2.18.2,2,2,0,0,1,.21.44c1.93,5.39,6.3,8.49,10.92,11.2,6.17,3.62,12.52,6.94,18.75,10.45a70.28,70.28,0,0,1,6.77,4.22c1.3.94,2.82,2.1,2.39,4.06s-1.94,2.49-3.59,3.09c-2.14.77-4.15,1.11-6.21-.2a7.38,7.38,0,0,0-3.81-1,5,5,0,0,0-4.08,1.49c-1.15,1.2-2.35,2.35-3.5,3.56-2.82,3-6.07,3.7-10,2.39a120.92,120.92,0,0,0-14.44-3.86,36.56,36.56,0,0,0-10-.38c-5.12.39-8.79,3.92-10.21,8.9-.93,3.28-.76,6.59-.87,9.91-.38,3.47,2.45,4.24,4.54,6,9.3,7.73,18.69,15.39,24.76,26.25a159.85,159.85,0,0,0,14.52,21.44C1076.81,1006.51,1078.36,1007.72,1077,1009.62Z"/><path class="cls-1" d="M1072,1816.39a30.45,30.45,0,0,0,12.79-8.35,33,33,0,0,1,11-7.56c3.71-1.61,7.68-2.16,11.59-2.84s7.92-.86,11.9-1.21a58.15,58.15,0,0,0,12.19-2.44c4.29-1.33,7.47-4.29,10.12-7.82a6.28,6.28,0,0,0,1.41-4.67c0-.32,0-.66,0-1-.73-8.33,1.44-16.17,4.17-23.89a71,71,0,0,1,11.1-20.55,18.55,18.55,0,0,1,6.83-5.71c3.56-1.6,6.89-1.38,9.69,1.37a15.34,15.34,0,0,0,6.72,4,14.42,14.42,0,0,1,6.7,4.2c.9,1,1.9,1.87,2.79,2.86a7.33,7.33,0,0,0,5.78,2.47c1.5,0,3,0,4.49,0,3.37.21,4.15,1.42,3,4.51-.3.77-.65,1.51-.94,2.19.59,1,1.13.4,1.63.14a23.11,23.11,0,0,1,5.17-1.79,22.54,22.54,0,0,0,4.28-1.31,4.35,4.35,0,0,0,2.7-3.9c0-1.16.08-2.33.06-3.5a5.71,5.71,0,0,1,1.22-4.17c1.93-2.28,2-4.8.6-7.45-.63-1.16-.85-2.56-1.56-3.66-2.32-3.6-.87-6.67,1.15-9.71a3.14,3.14,0,0,1,.65-.75c2.84-2.27,3.37-5.13,2.38-8.51a14.42,14.42,0,0,1-.48-3.94c-.07-5.83,0-11.66-.08-17.49a30.07,30.07,0,0,1,2.26-10.68c1.57-4.22,4.28-5.89,8.77-6a19,19,0,0,1,10,2.79,162.72,162.72,0,0,1,16.09,11,115.21,115.21,0,0,0,11.74,7.59,14.38,14.38,0,0,0,7.63,2,5.41,5.41,0,0,0,3.94-1.82,8.39,8.39,0,0,0,2.37-4.33c.47-2.94,1.4-5.81,1.3-8.86-.15-4.33-.1-8.66-.1-13a12.9,12.9,0,0,1,.22-3.47c.9-3.19,2.69-3.83,5.37-1.88a104,104,0,0,0,17.89,10.86,33.26,33.26,0,0,0,13.44,3.4c5.6.08,9.46-2.6,12.23-7.21a19.92,19.92,0,0,0,2.76-8.49,87,87,0,0,0-.1-19,144.28,144.28,0,0,0-3.28-15.58c-2.18-9.08-5.69-17.71-9.27-26.31a79.68,79.68,0,0,1-5.87-22.1c-.75-7-1.42-14.31,1.44-21.21.38-.92.66-1.89,1.12-2.77,2.74-5.15,7.81-6.84,13.14-4.44a20,20,0,0,1,5.31,3.67,58.92,58.92,0,0,1,13.78,18.83c2.14,4.62,5.38,7.09,10,8.85,9.8,3.7,19.46,7.78,29,12a76.41,76.41,0,0,1,10.32,6,9.83,9.83,0,0,1,3.85,4.49,2.29,2.29,0,0,1-.55,2.72c-1.45,1.47-3.41,2-5.24,2.8-.85.37-2.16.59-2.08,1.83.09,1.42,1.39,1.67,2.54,1.91,1.31.28,2.6.59,3.92.8a7.49,7.49,0,0,1,5.94,4.77,23.88,23.88,0,0,1,2.09,6.64,21.23,21.23,0,0,0,1.83,6.19,5.68,5.68,0,0,0,5.49,3.55c4,.1,7.52-1.36,11-2.86,3.21-1.37,6.27-3.09,9.38-4.68.6-.31,1.14-.7,1.71-1a1.74,1.74,0,0,1,1.89-.12,1.91,1.91,0,0,1,.61,2.24c-.34,1.28-.77,2.55-1.22,3.8a67.23,67.23,0,0,0-3.19,11.51c-1.62,9.25,0,17.5,7,24.28a126,126,0,0,1,9.21,9.83c5.74,6.92,7,14.83,5.94,23.44-.72,5.86-4,9.7-9.1,12.22-.6.29-1.19.6-1.78.9-4.71,2.43-4.44,3.67-1.23,6.42a3.59,3.59,0,0,1,.8,1.23,1,1,0,0,1-.52,1.24,3.14,3.14,0,0,1-1.39.43c-1.34,0-2.67,0-4,0a14.74,14.74,0,0,0-14.09,10.68,9.5,9.5,0,0,0,9.07,12.47c1.27,0,2.22-.34,2.62-1.75.48-1.69,1.82-2.22,3.46-2.3a44,44,0,0,1,22.16,4.83,18.53,18.53,0,0,1,2.82,2c2.57,2,2.76,4.77,2.37,7.69a1.59,1.59,0,0,1-1.3,1.33,9.18,9.18,0,0,1-1.49.16c-1.2.11-2.41.29-2.71,1.7-.25,1.21.8,1.7,1.59,2.28,1.5,1.1,1.3,2.63.89,4.08a12.15,12.15,0,0,1-3,4.53c-1.32,1.47-3,2.72-3.43,5,.92,1,1.9,2.13,2.94,3.19,3.47,3.52,3.68,8.41.16,12.05-.81.83-1.64,1.66-2.38,2.56-1.15,1.39-1.21,2.47-.3,3.58s2,.89,3.14.33c2.39-1.18,4.79-2.34,7.18-3.51a7.63,7.63,0,0,1,3.84-.93,2.82,2.82,0,0,1,3,2.72c.12,1.32.06,2.66.07,4,0,4.32-.42,8.65.86,12.9a3.87,3.87,0,0,1-1.2,4.1,19.48,19.48,0,0,0-1.7,1.82,7.24,7.24,0,0,0-1.77,7c1.93,6-.52,10.71-3.77,15.32-.28.41-.62.78-.94,1.17-2.92,3.56-3,3.69.8,6.69a72.76,72.76,0,0,1,21.25,27.33c4,8.67,6.19,17.82,7.57,27.26,1.45,10,1,19.94.69,29.9a77.35,77.35,0,0,1-1.65,14.33,6.22,6.22,0,0,1-1.63,3.52c-2.84,2.68-4.66,6.06-6.37,9.5-2.89,5.8-5.68,11.66-8.62,17.44a25.83,25.83,0,0,1-4.25,6.14c-3.86,4.08-8.34,5.14-13.62,3.18-3.88-1.44-5.34-.91-7.21,2.62a33.83,33.83,0,0,0-1.78,5.16c-1.16,3.41-.75,6.15,2.2,8.43a14,14,0,0,1,2.71,2.93,9,9,0,0,1,.18,9.86,3.38,3.38,0,0,1-5.19.75,14.63,14.63,0,0,1-3.61-4.1c-1.38-2.47-2.81-4.91-4.18-7.38a55.72,55.72,0,0,0-5.69-8.79,1.78,1.78,0,0,0-3.2.44c-1,2.28-1.81,4.63-2.77,7.12,5.58,5,6.93,11.75,8,18.76,1.63,10.79,1.19,21.63.67,32.4a133,133,0,0,1-3.72,27.09,24,24,0,0,1-2.18,5.55,2.7,2.7,0,0,1-2.34,1.63,2.44,2.44,0,0,1-2.54-2c-.59-3.88-3.37-6.31-5.58-9.18-4.17-5.41-5.94-11.85-7.34-18.38a107.15,107.15,0,0,1-1.24-10.88c-1.19-11-.58-22-.8-32.93a9.08,9.08,0,0,0-3.3-7.36c-6.37-5.54-10.94-12.43-14.8-19.91-5-9.67-8.46-19.89-11.79-30.18-2.57-7.9-5-15.85-7.53-23.77a18,18,0,0,0-1-2.79,1.33,1.33,0,0,0-1.66-.73c-8.22,2.56-15.13,6.93-19.65,14.45-2.52,4.2-3.54,8.93-4.27,13.72-.1.65,0,1.33-.12,2-.7,6.22-.72,6.2-5.8,10.1a73,73,0,0,0-11.06,10.81,136.28,136.28,0,0,0-20.18,31.41,79.54,79.54,0,0,0-4.37,12.2,28.08,28.08,0,0,0-.35,10.92,9,9,0,0,0,8.17,7.6c3.22.26,5.53,1.67,8,3.6a92.08,92.08,0,0,1,17.61,19,75,75,0,0,1,12.09,28.25c1.78,8.4,1.66,17,.8,25.36a104.1,104.1,0,0,1-7.62,28.81,185.52,185.52,0,0,1-24.38,41.7c-2.61,3.44-5.47,6.7-8.1,10.13a10.52,10.52,0,0,1-7.66,4.17,78.8,78.8,0,0,1-8,.07,4,4,0,0,1-1.46-.29c-1.08-.45-2.26-.92-2.4-2.27s.83-2,2-2.41c2-.7,1.93-.79,3.39-2.81-6.9-.84-10.92-5.34-13.93-11a34.14,34.14,0,0,0-5.69-8.12c-5.81-5.92-4.93-14.43-1.69-20.42,1.27-2.34,2.83-4.52,4.13-6.84,2.43-4.35,5-8.61,6.13-13.59.8-3.51-.22-6.56-1.32-9.69a2.54,2.54,0,0,0-1.8-1.57c-3-.91-6-1.89-9.06-2.78-2-.58-2.82-.2-3.42,1.72-.75,2.37-1.36,4.79-1.93,7.21-1.25,5.35-2.55,10.69-5.34,15.5-3.38,5.85-8.15,10-14.81,11.82a9.5,9.5,0,0,1-1.94.43c-6.33.29-12.63.49-18.82-1.41a158.33,158.33,0,0,1-28.45-12c-11.15-6-22-12.4-33-18.66-8.85-5.05-18.31-8.74-27.63-12.75a59.05,59.05,0,0,1-16.55-11c-11.71-10.74-18.52-24.2-22.26-39.38a154.76,154.76,0,0,1-3.35-20.61c-.85-8-.51-16-.71-23.93,0-1.32,0-2.64,0-3.72-1-1-1.74-.42-2.47-.2-3.65,1.09-5.69.4-7.39-2.94a31.45,31.45,0,0,1-2.15-6.09c-2-7.68.1-14.82,3.19-21.74,3.41-7.66,8.36-14.36,13.66-20.8,5.19-6.29,10.52-12.45,15.69-18.76,2-2.44,3.77-5.06,5.58-7.66a25.51,25.51,0,0,0,3.34-7.22,8.43,8.43,0,0,0-2.64-9.48,20.91,20.91,0,0,0-4.06-2.88,7.71,7.71,0,0,1-3.58-4,106.67,106.67,0,0,0-6.26-11.93,53.41,53.41,0,0,0-20.38-19.37c-2.77-1.53-5.65-2.85-8.48-4.27a47.51,47.51,0,0,1-4.42-2.31,48.33,48.33,0,0,1-3.88-3.06c-.59-.28-1,.09-1.33.41a5.93,5.93,0,0,1-3.89,2,8.19,8.19,0,0,1-5.21-1.38,28.87,28.87,0,0,1-6.34-5.6,45.61,45.61,0,0,0-9.27-9,9.44,9.44,0,0,0-6-2.12,10.3,10.3,0,0,1-5.67-1.66,9.6,9.6,0,0,0-5.26-1.21c-5,.09-9.95-.37-14.92.76-4.47,1-4.57,3.21-3.6,6.54a27.12,27.12,0,0,0,1.82,4.1,20.94,20.94,0,0,1,2,9.68,12.87,12.87,0,0,1-1.73,6.17,5.29,5.29,0,0,1-3.3,2.81,36.94,36.94,0,0,0-4.13,1.74c-2.45,1-4.3,2.61-4.85,5.3-.47,2.3-1.72,3-4,2.49-1-.23-1.12.63-1,1.26a9.21,9.21,0,0,0,2.44,4.28c2.46,2.71,4.87,5.47,7.39,8.12a19.53,19.53,0,0,1,4.44,6.58,9.5,9.5,0,0,1-.56,8.19,5.34,5.34,0,0,1-4.82,3,12.79,12.79,0,0,1-7.19-1.66c-7.19-4.3-12.87-9.94-15.93-17.92a10.88,10.88,0,0,0-1.06-2.23,2.54,2.54,0,0,0-3.91-.56c-1.4,1.17-2.64,2.54-4,3.77-3.71,3.32-6.9,3.37-10.63.12a26.17,26.17,0,0,1-3.48-3.58c-2.5-3.19-2.41-6.43.22-9.53a18.46,18.46,0,0,1,4.07-3.66,17.93,17.93,0,0,0,2.72-2.18,1.55,1.55,0,0,0,.12-2.24,12,12,0,0,0-4.4-3.21,4,4,0,0,1-2.58-3.9,4,4,0,0,0,0-.49,25.82,25.82,0,0,0-1.61-7.17c-.18-.47-4.58,3.4-5.92,5.54a36.82,36.82,0,0,0-4.43,12.12c-.91,4.21-1.56,8.48-2.85,12.62a21.73,21.73,0,0,1-2.39,5.47,6.78,6.78,0,0,1-12.22-.4c-1-1.74-1.81-3.56-2.81-5.29a1.73,1.73,0,0,0-2.62-.17,6,6,0,0,0-2.13,4.36c.07,4.52-2.87,6.48-6.57,7.68-2.43.79-4.63.3-6.13-2a6.65,6.65,0,0,0-1.87-2.26c-2.5-1.62-2.47-1.67-1.81-4.5.07-.32.19-.64.26-1,.83-4.24.83-4.24,4.67-5.78.19-1.43-.71-2.52-1.3-3.66-2.85-5.46-2.67-11.24-1.83-17.06.28-2,1.06-3.85,1.41-5.81.55-3.12-.48-4.78-3.55-5.52-4-1-8.12-2.1-12.28-1.88-7.39.39-14.48,2.09-20.75,6.28A51.53,51.53,0,0,0,864.72,1889a3.11,3.11,0,0,0-.12,1c1.24,1,2.86.38,4.25.89,2.74,1,3.65,2.7,2.61,5.43a19.28,19.28,0,0,1-6.57,8.63A1.22,1.22,0,0,1,863,1904c-.12-.82-.07-1.66-.17-2.48a.92.92,0,0,0-1.45-.72,24.94,24.94,0,0,0-7.28,7.44c-1.43,2.43-2.43,5.07-1.4,8.09a31.84,31.84,0,0,1,1.1,5.36c.62,4-.71,6.73-4.24,8.76a8.43,8.43,0,0,1-2.69,1.29c-3.54.57-4.43,3.15-4.75,6.08a124.06,124.06,0,0,1-4.27,20,78.36,78.36,0,0,1-11.11,24.42,36.19,36.19,0,0,1-11.08,10.65c-7.29,4.31-15,5-22.26.53-8.09-4.94-13.11-12.21-13.49-22-.14-3.8-.31-7.61.63-11.41a42.74,42.74,0,0,1,7.8-15.49c1-1.32,2.1-2.58,3.19-3.84a13.85,13.85,0,0,1,6-4.33c3.17-1.1,4-2.61,3.25-5.73-1-4.13-1.38-8.16,0-12.27a6.21,6.21,0,0,0,.18-2.47c-.61-6.73,2.72-11.84,6.83-16.58,1.85-2.13,4-4,6-6.06,1.39-1.45,1.42-2-.22-3.07a5.05,5.05,0,0,1-2.49-4.55c-.14-7.15-.51-14.34,1.08-21.38a54.89,54.89,0,0,1,12.29-24.78c8.71-9.84,19.61-16.34,31.68-21.15s24.38-7.67,37-9.93c6.86-1.23,13.74-2.3,20.68-3,5.78-.63,11.55-1.35,17.31-2.07,6.79-.85,12.14-4,14-12.19a65,65,0,0,0,1.83-13.79,95.23,95.23,0,0,1,1.13-13.91c1.81-11.21,9.24-18.7,20.54-21a61.59,61.59,0,0,1,10.9-1,6.78,6.78,0,0,1,4.6,1.48c6.72,5.3,9.5,2.27,12.95-2,1.67-2.06,3-4.43,4.48-6.61,1-1.36,2-2.66,3.06-3.93,1.56-1.84,3.4-3.17,6-3a5.52,5.52,0,0,0,1.95-.33,1.77,1.77,0,0,0,1-2.45,21,21,0,0,0-2.33-3.21,15.26,15.26,0,0,1-2.88-4c-.94-2.19-.05-4,2.3-4.57a8.16,8.16,0,0,1,6.28.79c1.58.92,3.13,1.91,4.72,2.82a6.37,6.37,0,0,0,5.23.83c1.81-.53,2.33-.16,3,1.59,1,2.63,1.88,5.32,2.75,8,.42,1.29.79,2.36,2.36,2.88,1.32.44,2.41,1.59,3.56,2.4,1.47-.72,1.61-2.21,2.28-3.31,3.07-5,7.21-6.46,12.8-4.54a17.27,17.27,0,0,1,5.59,3.22,54.92,54.92,0,0,1,8.67,9,96.42,96.42,0,0,1,13.43,25c2.7,7.57,4.32,15.35,3.68,23.47a21.88,21.88,0,0,0,.65,7.4c1.11,4.2.06,8.26-2.15,12a35.3,35.3,0,0,1-9.44,10.19c-.8.6-1.69,1.07-2,2.09-4,2.35-7.93,4.67-12.54,5.74-3.23.76-3.17,1-3.44,5.83C1060.22,1822.47,1066.44,1819.93,1072,1816.39Z"/><path class="cls-1" d="M1175.39,1293.51c1.49-5.61,2.8-6.07,7-3.33a16.84,16.84,0,0,1,6.79,7.72,29.85,29.85,0,0,0,5.73,9.3c3.42,3.58,7.4,4.2,11.88,3a18.23,18.23,0,0,0,5.87-2.71c4.47-3.2,9-6.33,13.43-9.55a44.55,44.55,0,0,1,11.27-6.34c5.34-1.87,10.14-1.24,14.22,3,.66.68,1.2,1.64,2.39,1.57.65,0,.57-1.45,0-3.13a7.46,7.46,0,0,0-3.5-4.09c-2.18-1.18-4.55-2-6.84-3a1.58,1.58,0,0,0-1.81.42,5.23,5.23,0,0,1-5.6,1.09,10.1,10.1,0,0,1-5.82-4.47,6,6,0,0,1,0-5.32,1.45,1.45,0,0,0-.69-2.07c-2.74-1.59-4.33-4.51-7.22-6a4.64,4.64,0,0,1-2.17-5.2,2.79,2.79,0,0,0-1-3c-1.06-1.06-2.19-2.06-3.17-3.19a13.58,13.58,0,0,1-3.19-9.21,2.91,2.91,0,0,1,3.79-2.78,11.68,11.68,0,0,1,3.24,1.26c4,2.52,7.63,5.38,9.15,10.16a6.29,6.29,0,0,0,1.22,2.13A18.35,18.35,0,0,1,1235,1272c0,.29.26.58.49,1.07a125,125,0,0,0,15-6.68,14.66,14.66,0,0,0,3-2.6,4.29,4.29,0,0,0,1.19-4.59,16.66,16.66,0,0,1-.6-4.43,5.41,5.41,0,0,1,1.82-4.44c1.94-1.83,3.85-3.69,5.71-5.61,1.68-1.73,1.48-2.55-.74-3.73-.29-.15-.61-.27-.9-.43a3.77,3.77,0,0,0-4.62.12,17.78,17.78,0,0,1-5,2.29,11.35,11.35,0,0,1-13-3.88c-1.88-2.53-3.66-5.15-5.31-7.84-1.27-2.08-2.73-3.73-5.25-4.19a8.55,8.55,0,0,1-1.88-.65c-1.49-.67-2.06-1.67-1.58-3.17a18.55,18.55,0,0,0,.93-4.13c-1.58-.92-2.71.42-4,.29s-2.5-1.07-2.13-2.24c.83-2.61-.5-4.47-1.71-6.45-4.7-7.68-11.58-12.17-20.32-14.1a40.61,40.61,0,0,1-17.53-8.06,53,53,0,0,1-13.22-16.13,240.32,240.32,0,0,1-17.63-42.33,102.41,102.41,0,0,1-2.5-10.66,18.84,18.84,0,0,1-.08-5,5.43,5.43,0,0,1,3.09-4.27,3,3,0,0,1,2.88,0c6.07,2.86,12.53,4.4,19.07,5.65,6,1.16,12.11,2,18.17,3,5.45.87,10.93.8,16.38,1.47a49.22,49.22,0,0,0,15.92-.32,31,31,0,0,1,4-.33,22.2,22.2,0,0,0,9-2.78,4,4,0,0,0,2.47-4,4.21,4.21,0,0,1,0-.5c.4-3.7,2.06-4.51,5.32-2.58a13.27,13.27,0,0,1,1.6,1.19c2.34,1.93,4.8,2.2,7.35.48,1.68-1.12,3-.73,4.46.56a41.45,41.45,0,0,0,5.57,4.2c3.11,1.93,4.91,2,7.49-.81a13.78,13.78,0,0,1,5.23-3.74c4.22-1.63,8.22-.48,12.09,1a32.45,32.45,0,0,1,13.29,10.29c4,4.92,7.71,10,11.54,15a2.11,2.11,0,0,1-.06,3.14c-1.28,1.52-2.73,2.92-3.93,4.5-1.06,1.39-.91,2,.23,3.53.31.39.79.7,1,1.14.64,1.61,1.72,1.66,3.22,1.3,1.3-.31,2.33.18,2.08,1.87a1.76,1.76,0,0,0,1.17,2,14.1,14.1,0,0,0,3.8,1.17,53.94,53.94,0,0,1,10.1,2.68,25.22,25.22,0,0,1,7.55,4.71c3.14,2.65,4.36,6.2,5.39,9.91.33,1.19-.46,2.16-1.82,2.45s-2.66-.21-3.84.62a4.21,4.21,0,0,0,.13,1c.78,2.29.63,3-1.18,3.32a9.08,9.08,0,0,0-4.56,1.8,1.17,1.17,0,0,0-.36.86.87.87,0,0,0,.57.62,7,7,0,0,0,2,.12c2.16-.23,3.45.9,4.36,2.67a10,10,0,0,1,.4,8.66c-1.28,3.16-3.54,5.63-5.55,8.26a24.57,24.57,0,0,0-4.13,7.92,8.9,8.9,0,0,0-.33,4.42c1.26,6,2.38,12.1,6.5,17.06,1,1.23.86,2-.22,3-.48.46-1,.83-1.56,1.24l-1.47,1.14a10.87,10.87,0,0,1,3.64,3.19c1,1.47.79,3.19,1,4.81.15,1,.48,2,.6,2.93.27,2.1,0,4-2.08,5.18a3.12,3.12,0,0,0-1.62,2.83,22.48,22.48,0,0,0,1.61,10.74c3,7.44,6.85,14.44,10.25,21.67a6.36,6.36,0,0,0,2.86,2.67,36.59,36.59,0,0,1,8.07,6.65c3.2,3.45,3.18,7.17-.07,10.57a35,35,0,0,1-5.27,4.59,14,14,0,0,0-5,6.7c-.94,2.45-.52,3.74,1.66,5a20.25,20.25,0,0,0,2.68,1.33c1.21.52,2,.1,2.11-1.16.11-1,0-2,.21-3,.5-2.66,2.41-3.47,4.68-2,3.87,2.41,6.93,5.74,9.86,9.13a64.44,64.44,0,0,1,10.45,16.94,27.22,27.22,0,0,1,1.54,4.73,2.55,2.55,0,0,1-3,3A8.64,8.64,0,0,1,1369,1353a101.56,101.56,0,0,1-9.9-11.23c-.63-.77-1.21-1.59-1.88-2.32a1.6,1.6,0,0,0-2.23-.29,26.81,26.81,0,0,1-2.54,1.58c-3.34,1.66-5.33,1.22-7.81-1.64a7,7,0,0,0-1.4-1.38,2.17,2.17,0,0,0-3.13,1.38c-.16,1.15-.08,2.33-.22,3.48-.28,2.27-1.8,3.29-3.85,2.47a46.7,46.7,0,0,1-4.92-2.42,2.49,2.49,0,0,0-3.16.15c-3.4,2.79-7.12,2.35-10.82.75-1.67-.73-3.17-1.83-4.79-2.66s-3.32-1.55-5-2.31c-3-1.36-5.49-.68-7.71,1.59a32.6,32.6,0,0,1-2.84,2.8c-2.89,2.31-5,1.87-6.88-1.47a29.89,29.89,0,0,1-2-4.57c-1.07-3-1.93-6-3.06-9-1.42-3.74-3.12-7.31-6.09-10.2a10.61,10.61,0,0,0-10.56-2.8c-1,.23-1.91.59-2.86.88a8.29,8.29,0,0,1-9.7-3,40.54,40.54,0,0,1-2.24-3.68c-.85,2.38-.49,4.08,1,5.58s2.75,2.92,4.26,4.23c4.19,3.64,5.93,8.47,6.15,13.73.28,6.8.5,13.61-.7,20.41-.81,4.57-.77,9.27-1.36,13.88a70.23,70.23,0,0,0-.78,13.42c.52,8,1.88,15.82,6.17,22.85,2.75,4.49,6.53,7.94,10.57,11.19a9.24,9.24,0,0,0,1.66,1.11c5.61,2.86,7.3,7.9,7.43,13.69q.16,7,0,14a14,14,0,0,0,2.23,7.55,2.88,2.88,0,0,0,2.81,1.7c3.09-.22,4.29,1.71,5.34,4.24a27.75,27.75,0,0,1,1.79,12.73,7.52,7.52,0,0,1-7.5,7.14,18,18,0,0,1-8.71-1.76c-.76-.35-1.49-.76-2.27-1-2-.73-3.45.4-3.1,2.41a31,31,0,0,0,1.06,4.35,12.86,12.86,0,0,1,.57,4.43c-.06,2-1.4,3-3.37,2.34a13.87,13.87,0,0,1-8-6.39,43.17,43.17,0,0,1-3.69-9.24c-.73-2.73-1.54-5.45-2.5-8.09a9.68,9.68,0,0,0-2.89-4.61c-.78-.6-1.66-1.29-2.69-1-1.25.33-1,1.55-1.08,2.5-.45,6.23,1,12.24,2.33,18.23s2.94,11.93,4.26,17.93c.67,3.07,1,6.21,1.44,9.33a10.37,10.37,0,0,1-.18,3.47,3.84,3.84,0,0,1-5,2.85,15,15,0,0,1-5.56-3.28c-1.21-1.14-2.43-2.28-3.57-3.49a15.73,15.73,0,0,0-5.6-4.08,10.1,10.1,0,0,1-4.73-3.55,5.54,5.54,0,0,0-4.2-2.38c-2.81-.31-5.61-.67-8.42-.92-3.82-.35-6.18-2.32-6.61-6.11a27.66,27.66,0,0,1,.4-9.93c.65-2.58,1.21-5.18,2-7.72a20.27,20.27,0,0,0,.66-4.43c.3-4-.88-7.11-4.61-9.17-3.25-1.79-4.09-5.08-4.32-8.52-.21-3,.7-5.92,1.61-8.77s1.89-5.68,2.81-8.53c.26-.79.31-1.64.61-2.41.78-2.07.48-4.34,1.08-6.35.54-1.82,2.18-3.27,3.11-5,2.22-4.19,2.14-8.76,1.34-13.19a65.2,65.2,0,0,0-6.82-18.66,93.15,93.15,0,0,0-11.06-16.58,32.74,32.74,0,0,0-7.72-7,13.9,13.9,0,0,0-3.11-1.55c-2.42-.76-4.3.38-4.82,2.89a12,12,0,0,0-.22,3.48c.33,3.36-1.15,6.14-2.59,9-1.94,3.83-5.3,4.56-9.35,3a21.22,21.22,0,0,1-5.06-3.16c-2.8-2.17-5.61-4.17-9.34-4.32a1.57,1.57,0,0,1-1.44-1.74,104.26,104.26,0,0,1,.27-10.47,63.4,63.4,0,0,0,.49-6.45c.06-10.66,0-21.33.17-32,.05-3.45-.93-6.22-3.87-8.12-3.66-2.35-5.09-5.61-4-9.84.33-1.27-.3-1.82-1.22-2.36-1.42-.81-2.38-1.85-1.62-3.65.64-1.52-.51-2.56-1.18-3.6a30.39,30.39,0,0,1-3.76-9.7,27.57,27.57,0,0,1-.32-7,6,6,0,0,1,.47-1.93c1.26-3.39,4.45-4.34,7.11-1.89a65.68,65.68,0,0,1,6.09,6.6C1165.84,1284.22,1170.42,1288.54,1175.39,1293.51Z"/><path class="cls-1" d="M891.57,1599.27c-1.27-.19-1.76.84-2.48,1.44-2.72,2.3-3.07,2.27-5.78-.23a39.76,39.76,0,0,1-8.16-10.65c-2.19-4.12-4.4-8.22-6.67-12.29-1.79-3.2-3.56-6.45-7.22-8a3.93,3.93,0,0,1-2-2.73c-2.54-7.58-4.89-15.21-4.24-23.38.56-7,3.33-12.8,9.12-17,4.81-3.46,10.3-5.38,15.93-7,8.31-2.33,16.75-4.24,24.93-7.07a47,47,0,0,0,10.71-5.29c8.56-5.68,12.66-13.88,13.32-23.89a81.51,81.51,0,0,0-.07-13c-.7-7.1-1.64-14.2-5.32-20.59a48.9,48.9,0,0,1-3.94-9.68,6.91,6.91,0,0,1,2-7.7,23.61,23.61,0,0,1,3.91-3.07,26.6,26.6,0,0,0,7.85-7.57c1.31-1.92,2.8-3.71,4.19-5.57,3-4,4.13-8.68,4.26-13.57.12-4.66,0-9.33,0-14,0-1.5,0-3,.06-4.5a12.32,12.32,0,0,1,10.81-12.37,19.75,19.75,0,0,0,6.55-2.21c4.6-2.34,9.21-4.65,13.82-7a29.43,29.43,0,0,1,6.56-2.33,14,14,0,0,1,6.4-.08c6.17,1.33,12.35,2.58,18.53,3.84a24,24,0,0,0,3.93.55c1.92.06,3.16.79,3.59,2.75.24,1.08,1,1.06,1.92.78,2.78-.86,5.52-.25,8.35.07,8.2.91,14.83,11.6,14.66,18.54a49.93,49.93,0,0,1-1.85,12.76c-2.06,7.22-5,14.11-7.74,21.06a68.45,68.45,0,0,0-3.44,10.92,11.58,11.58,0,0,1-2.64,5.28c-3.37,3.9-6.69,7.85-10,11.78-.11.12-.24.24-.34.37-1.24,1.57-3.89,2.14-4.17,4.1s-.48,3.9-.92,5.81c-2.95,13-7.3,25.56-12,38-4.57,12-9.42,23.81-13.44,36a144.57,144.57,0,0,0-5.71,24.2,60.32,60.32,0,0,0,6.75,38.55,76.1,76.1,0,0,0,13.39,17.32c5.35,5.42,5.34,5.39,5.18,13a32.64,32.64,0,0,1-4.72,15.59,48.74,48.74,0,0,1-26,22.32c-6.59,2.43-13.43,3.81-20.53,1.89a5.35,5.35,0,0,1-3.23-2.12c-6.3-9.07-11.79-18.54-14.54-29.36-.29-1.13-.67-2.23-.9-3.37-1.2-6.07-5.26-9.84-10.34-12.73-6.1-3.46-12.69-5.83-19.18-8.43-2-.8-4-1.59-6.07-2.28s-2.83-2-2.72-4.17C891.92,1601.81,892.32,1600.47,891.57,1599.27Z"/><path class="cls-1" d="M971.53,1280c1.33,1.21,2.08,2.54,3.58,3.11,2,.75,2.11,2.43,1.77,4.17a18,18,0,0,1-1,3.33A10.56,10.56,0,0,0,975,1296a7.52,7.52,0,0,1-1.42,5.17c-5,7.74-5.72,16.13-3.9,24.93a18.33,18.33,0,0,1,.37,3.47c0,2.93-.88,4.13-3.59,5.3-1.76.76-3.59.61-5.41.66-3.91.1-4.13,0-4.86,3.49a13,13,0,0,1-6.35,8.53,6.41,6.41,0,0,0-3.21,3.55c-.38,1.14-1.65,2-2.62,2.92-.31.3-.91.3-1.38.43-1.05.28-1.43-1.66-2.51-.87-.77.58-1.23,1.56-2,2.23a3,3,0,0,1-3.3.47,4.06,4.06,0,0,0-4.22.5,5.16,5.16,0,0,1-2.85.75c-4.35.07-6.75,3.15-9.19,6.11a4.23,4.23,0,0,0-.7,2.86,37.41,37.41,0,0,0,.69,8.43c1.33,5.68-.44,10.44-4.66,14.44-2.06,2-4.57,2.61-7.19,3.16-3.09.64-6.17,1.3-9.26,1.91-5.13,1-8.09,4.11-9.24,9.14,1.17.69,1.57-.29,2.13-.73a36.93,36.93,0,0,1,6.21-4.15,9.36,9.36,0,0,1,2.29-1c4-.75,5.77-.21,7.54,3.14a27.31,27.31,0,0,1,3.53,12.86c0,10.48-3.84,19.45-10.8,27.14-3.28,3.61-7,6.66-11.82,8-5.6,1.6-10.56.89-14.41-3.88a51.58,51.58,0,0,1-3.21-4.44c-1.2-1.85-1-3.49.7-4.85a35.14,35.14,0,0,1,3.81-2.36c2.28-1.38,2.26-1.37,1.85-4.28a15.1,15.1,0,0,1,1.51-9.68A51,51,0,0,1,883,1411c.51-.61,1.28-1.11,1.12-2.11a5.08,5.08,0,0,0-3.86-.14,43.59,43.59,0,0,1-6.42.85c-4.28.45-8.55,1.12-12.83,1.66-3.29.43-6.59.85-9.89,1.19a77.84,77.84,0,0,0-22.14,5.66,50.79,50.79,0,0,0-25.27,23.19c-2.13,3.9-5.3,5.83-9.27,6.9-3.43.92-6.21-.39-7.91-3.59a10.93,10.93,0,0,1-1.53-5.21c0-6.48-.12-12.92.74-19.41,2-14.67,4.93-29.11,8-43.55q3.76-17.51,7-35.13c1.87-10.11,3.63-20.25,5-30.44.61-4.59.94-9.27,1.49-13.86.89-7.49.61-15,.77-22.42a67.05,67.05,0,0,0-2.06-16.27,35.59,35.59,0,0,0-4.67-11c-3.55-5.72-8.91-8.3-15.41-8.73a21.05,21.05,0,0,0-7.92.66,29.42,29.42,0,0,1-4.4.82,1.36,1.36,0,0,1-1.56-1.49,7.67,7.67,0,0,1,.44-1.92c2-4.74,4.06-9.48,6.22-14.16a22.74,22.74,0,0,1,5.44-7.7,8.29,8.29,0,0,1,9.27-1.55,15.46,15.46,0,0,1,6.14,4.18c6,7,14,10.53,22.36,13.52,7.2,2.58,14.56,4.66,21.65,7.58a44.9,44.9,0,0,1,19.24,14.6,8.86,8.86,0,0,0,3.33,2.88c4.29,2,7.69,5.22,11.09,8.4,2.56,2.39,4.95,5,7.52,7.32,2.21,2,4.64,3.81,7.73,4.32a1.14,1.14,0,0,0,1.45-1c.13-.82.05-1.67.21-2.48a7.55,7.55,0,0,1,.77-2.32,2.32,2.32,0,0,1,3.4-.87c.57.32,1,.82,1.58,1.2a1.21,1.21,0,0,0,1.75-.26,24.65,24.65,0,0,0,1.5-2,22.8,22.8,0,0,1,4.53-4.62c3.81-2.92,8-3,12.23-1.25a26.94,26.94,0,0,1,6.72,4.29,62.25,62.25,0,0,0,13.3,8.77,5.9,5.9,0,0,1,1.25.8,1.42,1.42,0,0,1,.21,2.19c-1.26,1.31-2.65,2.52-4,3.75-1.1,1-2.25,2-3.34,3a1.14,1.14,0,0,0-.39,1.41c2.31.37,4.47-.62,6.59-1.42a201,201,0,0,0,22.56-10.66,23.29,23.29,0,0,0,5.66-4.85c1.28-1.31,2.47-2.71,3.79-4a1.9,1.9,0,0,1,3.2.8,6.1,6.1,0,0,1,.48,1.91c.08,1.33-.06,2.68.09,4a6.12,6.12,0,0,1-3,6.37C972.58,1279.17,972.21,1279.5,971.53,1280Z"/><path class="cls-1" d="M421,1347.78c.89-.17.82-.7,1-1.13.92-2.77,2.21-3.63,4.71-2.93a11.1,11.1,0,0,1,6.64,5,28.48,28.48,0,0,1,2.33,5.5,2.93,2.93,0,0,1-1.76,3.7,44.63,44.63,0,0,1-4.76,1.33,1.81,1.81,0,0,1-1.76-.72c-.92-1-1.78-2-2.68-2.94-.39-.24-.58-.11-.69.36-.9,3.54-1.38,3.92-4.59,3.65l-1-.11c-4-.52-4.42-.21-4.54,3.48-.09,2.66-.41,5.31-.55,7.94-.17,3.27.55,6.6.93,9.89a4.66,4.66,0,0,0,.54,1.39c1.31,2.89,2.86,3.72,6,3.17a35.55,35.55,0,0,1,3.89-.75,2.77,2.77,0,0,1,3.23,3c-.1,5.15.64,10.33-.55,15.43,0,.17-.08.33-.11.49-.77,5.38.64,6.78,5.9,5.83,1-.18,1.93-.86,2.79,0a5.24,5.24,0,0,1,1.89,3.91c-.06,1-1,1.13-1.78,1.39-1.84.61-1.91.79-1.28,2.34,1,2.3,2,4.58,2.89,6.9a6.91,6.91,0,0,0,2,2.8,18.6,18.6,0,0,1,2.49,2.45,8.13,8.13,0,0,1,1.42,8,14.79,14.79,0,0,1-2.86,5.23c-8.45,9.59-18.71,15.69-31.66,17.24-8.13,1-15.92,3.29-22.6,8.51a24.73,24.73,0,0,0-6.7,7.93c-1.72,3.23-3.24,6.57-4.74,9.91-2.45,5.46-4.73,11-8.46,15.79a35.46,35.46,0,0,1-7.13,6.93,53.49,53.49,0,0,1-13.06,7.2,125.77,125.77,0,0,1-28.05,6.71c-5.08.64-10.1,1.36-14.81,3.94-5.73,3.14-6.83,8.65-4.33,13.5.84,1.63,1.74,3.22,2.57,4.86,1.89,3.71,1.42,7.44-.16,11.08a9.09,9.09,0,0,1-2.22,2.64,2.85,2.85,0,0,1-3.27.39,6.13,6.13,0,0,1-3.49-3.39c-.43-1.06-.65-2.21-1-3.29-.06-.19-.56-.37-.78-.31a.93.93,0,0,0-.58.67,7.58,7.58,0,0,0,.22,2.43c.41,1.26,1.13,2.42,1.52,3.68a3.53,3.53,0,0,0,3,2.9,5.46,5.46,0,0,1,3.15,2.33c1.27,1.59.91,3.9-1.13,4.44-1.61.42-2.71,1.16-2.94,2.91-.6,4.56-3.48,7.8-6.43,11-.78.85-1.67,1.62-2.53,2.4a26,26,0,0,0-5.35,7.13c-8,14.78-17.94,28.07-30.76,39a89,89,0,0,1-35.35,18.91,56.08,56.08,0,0,1-7.25,1.81,5.21,5.21,0,0,0-4.59,3.92c-1.87,5.33-4.07,10.55-6.31,15.73a66.1,66.1,0,0,1-8.67,14.55,33.5,33.5,0,0,1-9.47,8c-4,2.39-8,4.8-11.85,7.42a70.41,70.41,0,0,0-16.09,14.85c-3.86,5-8.87,6.74-14.67,7.28a49.43,49.43,0,0,1-7,.09c-2.88-.14-5.61.72-8.4,1.11a8.15,8.15,0,0,0-3.15,1.43,4.17,4.17,0,0,0-2,3.78c0,1,0,2,0,3,.09,8.33-5.13,14.11-12.58,15.75-3.73.82-7.4,2-11.13,2.77-6.08,1.34-11.26,4-14.67,9.44a8.77,8.77,0,0,1-2.21,2c-3.43,2.64-6.84,5.29-10.33,7.85a42.07,42.07,0,0,1-5.05,3.19c-1.54.82-3-.14-3.17-1.91a8.53,8.53,0,0,1,.61-4.4c.49-1,.9-2.16,1.46-3.17a22.43,22.43,0,0,0,3-10.88c.07-4.57,2.36-8.65,4.46-12.59,5.8-10.92,13.19-20.78,20.93-30.38,6.68-8.3,13.75-16.25,20.92-24.14s14.42-15.25,22-22.46c9.9-9.38,20.1-18.47,31.27-26.36,4.49-3.16,9.1-6.17,14.33-8,.47-.17.91-.42,1.39-.56,3.41-1.06,4.45-.53,6,3.2,2.27-1,3.57-3,4.92-4.77a51.19,51.19,0,0,1,3.87-4.56c7.58-8,15.3-15.78,22.68-23.92,5.38-5.93,11.05-11.55,16.48-17.42,6.56-7.08,13.12-14.17,19.48-21.43,15-17.16,29.45-34.8,42-53.88,2-3,3.94-6.17,5.91-9.25.45-.7.9-1.41,1.41-2.06a1.33,1.33,0,0,1,1.71-.55,1.78,1.78,0,0,1,.87,1.12c.16,1.82.16,3.66.27,5.48.07,1.32.15,2.65.34,4a1.26,1.26,0,0,0,2,.74c.77-.63,1.51-1.3,2.22-2,2.5-2.45,2.51-2.49,1.26-5.6-.68-1.69-1.35-3.4-2.13-5a8.46,8.46,0,0,1-.64-4.4c.19-2.46,1-3.43,3.52-4.06,3.54-.89,7.11-1.66,10.65-2.56,1.62-.4,3.19-.94,4.77-1.48a4.13,4.13,0,0,0,2.8-2.66c1.41-4.66,4.57-8,7.94-11.31.95-.92,1.83-1.91,2.86-3-1.07-1.41-2.5-.67-3.66-.85-2.25-.34-3.24-1.49-3-3.71a8.66,8.66,0,0,1,10.61-7.64c.49.11,1,.19,1.47.31,1.5.4,2.88.76,3.51-1.38.26-.89,1.7-1,2.08-2.31-.32-.76-.78-1.64-1.08-2.57-.61-1.88-.17-3.31,1.53-4.25,1.41-.78,2.91-2,4.63-.9a4.91,4.91,0,0,1,2.1,4.79c-.06,1.15-.47,2.28-.59,3.43a1.9,1.9,0,0,0,2.92,2,23.75,23.75,0,0,0,3.42-2.07,105.23,105.23,0,0,0,14.19-11.94c-1-1.5-2-2.79-2.88-4.18a2.55,2.55,0,0,1,1.41-4,20.12,20.12,0,0,1,2.92-.58c3.16-.68,5.38-2.16,6-5.71,1.19-6.52,3.45-12.86,2.89-19.64a7.43,7.43,0,0,0-.89-3.83,2.78,2.78,0,0,0-3.34-1.36c-4,.68-4.86.11-5.93-3.89-.38-1.44-.65-2.92-1.06-4.35-.68-2.36-1.75-4.19-4.64-4.5-1.83-.2-2-1.36-.8-2.81.43-.51.91-1,1.38-1.44,1.33-1.35,1.76-2.92.69-4.52-1.35-2-1.46-4.39-2.27-6.56a2.53,2.53,0,0,1,3.1-3.24,2.83,2.83,0,0,1,1.74.83c1.29,2,3.21,2.06,5.27,2.09,1.81,0,2.27.78,1.89,2.59-.14.65-.41,1.27-.52,1.93-.36,2.17.14,3.1,2.55,3.93,1.15.4,1.78,1,1.64,2.1-.53,4,1.72,6.16,5,7.73,3,1.46,5.87,3.15,7.56,6.26.29.53,1,1.2,1.48,1.19,2.49-.07,3.48,1.59,4.39,3.44a1.11,1.11,0,0,0,1.15.78c.1-.07.31-.15.32-.23a21.06,21.06,0,0,0-4.63-14.33,5.84,5.84,0,0,0-5.59-2.62A5,5,0,0,1,389,1380a6.45,6.45,0,0,1-2.09-5.37c0-.5,0-1,.08-1.5a2.12,2.12,0,0,0-1.67-2.63,8,8,0,0,1-.93-.35,3.1,3.1,0,0,1-2.35-3.36c.1-2,.07-4,0-6-.07-2.65.88-4.52,3.6-5.24.25-.07.43-.43.68-.7-1-2.45-2-4.91-2.88-7.4-.54-1.47-.65-3,.7-4.13,1-.88,3-.56,4.54.85.73.65,1.17,1.61,1.86,2.32a20.54,20.54,0,0,0,2.93,2.67,2,2,0,0,0,2.72-.41,5.54,5.54,0,0,0,1.64-3c.6-3.72.55-7.34-2.32-10.29l-1.39-1.44a1.92,1.92,0,0,1-.3-2.67c1.09-1.68,2.1-3.4,3.12-5.12,2-3.28,2.81-6.83,1.55-10.51-1.13-3.31-.05-5.85,2.1-8.2,1.12-1.22,2.3-2.4,3.5-3.56a8.57,8.57,0,0,0,3-6.6,5.36,5.36,0,0,1,2.37-4.68,2.34,2.34,0,0,1,3.51.41,8,8,0,0,1,1.94,5,21.37,21.37,0,0,0,.93,5.89c.25.75,0,1.82,1,2,.57.14,1.26-.24,1.89-.36a2.6,2.6,0,0,1,2.88,1.51,15.25,15.25,0,0,1,1.93,11,59.82,59.82,0,0,1-3.39,9.89c-.75,1.85-1.42,3.73-2.27,5.53-1.21,2.53-1.17,5.19-1,7.84C417.15,1344.36,419.13,1346.15,421,1347.78Z"/><path class="cls-1" d="M659.19,1164.84c1.18,3.84,2.17,7.16,3.22,10.47a2.36,2.36,0,0,1-.49,2.75,2.8,2.8,0,0,1-3.27.21,8.77,8.77,0,0,1-2-1.49c-2.27-2.21-4.47-4.49-6.76-6.67a5.53,5.53,0,0,1-1.95-4.4c0-.34,0-.67,0-1-.08-4.67-.35-7,6.6-5.72.78-1,.32-2.25.43-3.38a3.12,3.12,0,0,0-2.09-3.52,11.9,11.9,0,0,1-4.58-3.8c-3.87-5-8.34-9.5-12.4-14.34-3.2-3.81-6.28-7.74-7.29-12.88-.42-2.18-.8-4.31-.06-6.39s.19-3.86-.91-5.65a249.71,249.71,0,0,0-14.07-21.21,40.69,40.69,0,0,1-7.48-17.21c-1.71-8.79-3.48-17.58-4.86-26.43a34.63,34.63,0,0,0-7.74-16.51,43.37,43.37,0,0,0-10.74-9.64c-2.68-1.68-5.33-3.41-8-5.15a38.25,38.25,0,0,1-11-10.68c-3.32-5-4.9-10.51-5.71-16.32a13.24,13.24,0,0,0-.82-3.88c-1.12-2.46-3.09-3.08-5.23-1.54a23.92,23.92,0,0,0-2.62,2.31,19.46,19.46,0,0,1-4.54,3.06,5,5,0,0,1-5.62-.55c-2.43-1.68-3.74-4.2-4.7-6.91a3,3,0,0,1,0-1.45c1.73-10,8.8-15.4,17.68-16.16A60.67,60.67,0,0,1,569.46,962c8.3,1.69,16.56,3.53,24.86,5.23a65.77,65.77,0,0,0,18.35,1.35,22.24,22.24,0,0,0,11.62-4.08c1.83-1.33,3.62-2.37,6-1.31,1.12.51,1.92-.3,2.59-1,1.7-1.86,3.83-1.92,6-1.38,2,.5,2.33,2.18,1.08,3.36a8.09,8.09,0,0,0-1,1.11c-.91,1.28-.89,1.84.25,3s2.4,2.31,3.58,3.49a17.44,17.44,0,0,1,3.06,3.27c1.53,2.7,4,3.27,6.71,3.5.83.08,1.67.06,2.5.09.67,0,1.33,0,2,.06,1.91,0,3.42,2,5.1,1.62s2.88-2.18,4.48-3a8.58,8.58,0,0,1,9,.75,41.68,41.68,0,0,1,8.52,7.63,205.66,205.66,0,0,0,15.69,17.44,25.22,25.22,0,0,0,6.91,4.83c4.12,1.87,4.85,3.37,4.22,7.88-.14,1-.55,1.92-.74,2.89-.39,2,.47,3,2.4,2.43a17.55,17.55,0,0,1,5.93-.56c3.88.2,6.17,2.44,6.4,6.27a17.29,17.29,0,0,1-.52,5.93c-1.65,5.74-3.06,11.56-4.78,17.28-1.79,5.92-2.54,12-3.44,18.08-.57,3.85.4,7.62,1.3,11.33a9.76,9.76,0,0,0,1.79,2.94c1.24,1.77,2.6,3.46,3.78,5.27a19.05,19.05,0,0,1,3,11.86c-.28,4.93-2.8,8.82-5.4,12.67-2.06,3-4.38,5.87-6.71,8.69a41.88,41.88,0,0,0-4.16,6.79c-2.59,4.76-2.4,9.56-.41,14.43.19.46.44.9.64,1.36.5,1.17,1.65,2.44.32,3.59-1,.91-2.18-.19-3.25-.52a9.08,9.08,0,0,0-1.43-.44,3,3,0,0,0-3.43,3.71c.3,1.29.8,2.54,1.23,3.8.28.79.66,1.62,0,2.32-.88.88-1.84.33-2.74-.09a14.36,14.36,0,0,0-2.26-1c-3.06-.82-6-.81-8.19,2-1.35,1.68-2.73,3.35-3.92,5.15a23.14,23.14,0,0,1-3.87,4.55c-2.47,2.21-5.41,2.89-8.32,1.42a14,14,0,0,0-7.22-1.45C664.4,1166.66,662.24,1165.1,659.19,1164.84Z"/><path class="cls-1" d="M1091.05,1470c-2.07,0-3.52,1.56-5.21,2.51-11.61,6.5-20.53,15.73-27.41,27a139.73,139.73,0,0,0-11.66,25.35q-4.92,13.61-9.53,27.32a208.73,208.73,0,0,1-9.1,22.68,89.75,89.75,0,0,1-19.24,27.13,18.44,18.44,0,0,1-5.77,3.86c-3.16,1.28-5.66-.19-6.13-3.59-.16-1.15-.09-2.33-.15-3.49-.38-7.23,1.12-14.22,2.57-21.22,2.44-11.7,5.09-23.35,7.27-35.1.72-3.87,1.54-7.84,1.28-11.87-.08-1.32.12-2.69-.48-3.93-1-2.08-.27-3.87.78-5.65,3.69-6.33,7.29-12.71,11.06-19,8.73-14.56,17.46-29.12,25.95-43.82s16.82-29.5,24.19-44.8a355.34,355.34,0,0,0,19.49-48c.81-2.59,1.52-5,.38-7.76-.57-1.36-.13-2.92.3-4.4a28.5,28.5,0,0,1,4.73-9.84,3.78,3.78,0,0,0,.61-4.44,8.07,8.07,0,0,1,.32-7.65c2.72-5,5.56-9.88,9.92-13.67a13.25,13.25,0,0,1,3.25-2.29c3.39-1.49,6.51.41,6.63,4.1a24.33,24.33,0,0,1-2,9.71c-1.65,4.18-3.42,8.3-5.13,12.46-.5,1.23-.91,2.5-1.45,3.71a2.29,2.29,0,0,0,.44,2.74c4.36,4.61,6,10.21,6.13,16.41a37.76,37.76,0,0,0,.57,3.94,16.26,16.26,0,0,1-.13,5,25.74,25.74,0,0,0-.45,4.46c-.07,6.16-1.15,12.22-1.76,18.33-.79,7.93-2.36,15.78-2.33,23.79a20,20,0,0,0,1,6.86,15.54,15.54,0,0,1,.43,8.35c-.66,3.58-.44,7.29-1.4,10.85-.78,2.89-1.35,5.83-2.28,8.66-.85,2.59-2.12,5-5.44,5-.81,0-1.11.65-1.2,1.34-.1.84-.1,1.85.76,2.19,1.79.7,3.53,2,5.65.65a4,4,0,0,1,3.39-.19c.56.17,1,1.2.65,1.64-3.06,3.5-5.7,7.39-9.33,10.36-1.6,1.31-3.58,1.75-5.5,2.29a3.43,3.43,0,0,1-4.63-3.09C1090.93,1473.31,1091.05,1471.67,1091.05,1470Z"/><path class="cls-1" d="M1190.43,1538c1,2.1,3.11,2.89,4.86,4,6,4,5.28,4.31,2.53,10.49a17.46,17.46,0,0,1-2.78,4.12c-2.46,2.85-5.06,3.3-8.48,1.67a20.88,20.88,0,0,1-4.14-2.76c-2.08-1.68-2.73-1.51-4.36.81-1,1.36-1.78,2.83-2.85,4.09a42.35,42.35,0,0,1-11,9.31,74.42,74.42,0,0,1-30.6,9.84,120.18,120.18,0,0,1-14.43.77,96.53,96.53,0,0,1-33.08-6.47l-2.24-.88c-.33.36-.71.59-.7.8.16,4-2.08,6.62-5,8.71-3.27,2.33-6.81,4.05-11,4.16a5.81,5.81,0,0,1-5.62-8.38,7.08,7.08,0,0,1,2.6-3,27.48,27.48,0,0,1,15.41-5c1.92,0,2.31-.4,2.4-2.32a46.15,46.15,0,0,0,0-5c-.19-3-1.25-4.14-4.13-4.67q-8.91-1.67-6.12-10.39a31.23,31.23,0,0,1,6.75-11.55A73.19,73.19,0,0,1,1095,1523c5.4-3.28,10.9-6.42,15.87-10.38,4.58-3.66,8.77-7.69,11.52-13a13.31,13.31,0,0,1,4.38-4.66,33.39,33.39,0,0,1,16.65-6.15c3.46-.3,6.92.54,10.3,1.47,7.52,2.06,14,6.1,20.2,10.64,1.34,1,2.69,2,4,2.93a3.41,3.41,0,0,0,2.37.57,1.38,1.38,0,0,0,1.41-1.13,3.06,3.06,0,0,0,.1-1c-.41-3.31,1.58-5.36,3.91-7,2.89-2.09,6.11-3.41,9.82-2.73,1,.18,1.54.88,1.25,1.77a20.36,20.36,0,0,0-.93,5.36,3.64,3.64,0,0,1-3.31,3.75,10.32,10.32,0,0,0-1.95.34,1.82,1.82,0,0,0-.74,3.13c.56.61,1.21,1.14,1.78,1.74a7.58,7.58,0,0,1,2,7.38,46.5,46.5,0,0,1-2.35,7.6,4.63,4.63,0,0,0,.67,5.49,11.4,11.4,0,0,1,1.35,2.08c1.18,2.27.9,3.61-1.11,5.17C1191.58,1536.83,1190.73,1537.07,1190.43,1538Z"/><path class="cls-1" d="M1059.29,1204.1c-2.11-1.5-4.3-3-6.39-4.61a12.66,12.66,0,0,1-3.23-3.08c-1.49-2.41-2.84-4.66-5.84-5.63-1.5-.48-2.41-2.15-2.89-3.86a16.85,16.85,0,0,0-5-7.93,31.52,31.52,0,0,1-2.47-3.11,27.12,27.12,0,0,0-3-3.34,6.16,6.16,0,0,0-6-1.33,30.13,30.13,0,0,0-12.47,7.08,239.14,239.14,0,0,0-20.92,21.43c-3.77,4.42-7.4,9-11.69,13a10.34,10.34,0,0,1-4.13,2.7,1.73,1.73,0,0,1-2.22-1.41,13.26,13.26,0,0,1,.53-6.4c1.56-4.21,3-8.45,4.68-12.62a18.84,18.84,0,0,0,1.78-8.2,7.44,7.44,0,0,1,3.82-7.09l5.36-3.33a4.21,4.21,0,0,0,0-1.16c-1.43-3.92-1.43-3.91,2.06-6.23.4-.27.78-.58,1.27-.93-1.84-2-3.89-1.31-5.79-1.13-1,.09-1.9.57-2.88.7a2.16,2.16,0,0,1-2.16-1c-1.22-1.82-.88-6,.84-7.31,4.21-3.29,5.42-7.71,5.48-12.78.08-6-1.34-11.86-2.5-17.71-.83-4.24-1.92-8.43-1.65-12.81,0-.83,0-1.67.13-2.49a4.25,4.25,0,0,1,4-3.81,26,26,0,0,1,11.18,2.06,6.22,6.22,0,0,1,3.88,4.85,50.33,50.33,0,0,0,1.48,5.77,1,1,0,0,0,1.59.55,20.61,20.61,0,0,0,1.89-1.63,8.26,8.26,0,0,1,5.56-1.81,7.37,7.37,0,0,1,4.92,2,80.51,80.51,0,0,0,11.43,7.11,42.53,42.53,0,0,1,7.48,5c2.54,2.21,4.74,4.61,5.41,8.14.36,1.93.67,2.15,2.3,1.66a4.08,4.08,0,0,1,4.1.9,61.85,61.85,0,0,1,18.08,21.62,5.67,5.67,0,0,0,1,1.07c.26-.32.56-.53.59-.77.14-1.39.46-2.71,2-3.18s2.63.34,3.7,1.1c3,2.12,5.91,4.32,8.82,6.54a108.26,108.26,0,0,1,12.2,11.05c8.14,8.45,12.58,18.65,14.45,30.09,1,5.9,1.72,11.81,2.18,17.78a37.69,37.69,0,0,0,2,8.2,12.24,12.24,0,0,1,.74,5.38,2.14,2.14,0,0,1-3.29,1.75,23.73,23.73,0,0,1-6.12-4.25c-4.3-3.92-8.51-8-12.92-11.76-5.28-4.57-10.55-9.18-17.07-12a8.57,8.57,0,0,0-6.22-.59,9.35,9.35,0,0,1-10.85-5,5.66,5.66,0,0,1,.09-5.29C1058.87,1205.34,1059.45,1204.91,1059.29,1204.1Z"/><path class="cls-1" d="M1150.51,898.55c3.88-2.91,6.92-1.1,9.74,1.15,2.46,2,4.74,4.18,7.07,6.31a2,2,0,0,1,.43,2.71c-1.91,2.07-1.64,4.18-.5,6.36.91,1.74.09,3.3-.49,4.78a29.27,29.27,0,0,0-1.84,11.72,27,27,0,0,0,1.67,7.25,1.84,1.84,0,0,1-1.55,2.57l-.49.07c-1.62.19-3.43-.24-4.7,1.17a12.92,12.92,0,0,0-2.78,5.78c-.41,1.77-.65,3.59-1.09,5.36-.87,3.42-3.17,4-5.81,1.51-.84-.8-1.56-1.74-2.44-2.49a4.65,4.65,0,0,0-6.35,0,22.69,22.69,0,0,0-4.88,5.63c-.59,1-1.25,2-1.93,2.91-2,2.82-3.37,3.17-6.27,1.43a23.37,23.37,0,0,1-3.51-2.77c-1.6-1.46-3.1-3-4.67-4.51a16.06,16.06,0,0,0-9.15-4.69c-1.12-.13-2-.57-1.94-1.79.14-2.32-1-4.14-2-6.08-1.85-3.73-1.27-5.8,2.5-7.73a19.2,19.2,0,0,0,4.5-3,17.9,17.9,0,0,0,4.64-7A31.58,31.58,0,0,0,1121,913.5c-.17-5.81.06-11.6-.74-17.42a35.16,35.16,0,0,1,.64-14.35,12,12,0,0,1,9.47-9.14c5.62-1.32,6.31-1.28,10.5,4a26.18,26.18,0,0,1,4.34,8.37c1.16,3.64,2.49,7.22,3.79,10.81A27,27,0,0,0,1150.51,898.55Z"/><path class="cls-1" d="M797.6,2074.45a43.1,43.1,0,0,1-4.88-.43c-4-.8-6.72-3.48-8.77-6.86-1.21-2-2.34-4-3.43-6.08a36.4,36.4,0,0,0-12.49-14,6.07,6.07,0,0,1-3.1-5.75c0-3.11.27-6.06,2.85-8.15a10.73,10.73,0,0,1,8.81-2.67c7,1.25,12.5,4.35,14.62,11.77.85,3,1,3,4.27,3s6.33.35,9.41-.74c2.1-.74,2.66-1.64,1.75-3.72-1.34-3-2.72-6.06-3.76-9.24a26.09,26.09,0,0,1-.9-9.37c0-1.27.8-1.79,2-1.35q6.12,2.14,12.19,4.43a180.45,180.45,0,0,1,20.56,9c1.91,1,3.77,2.13,5.58,3.3a13.82,13.82,0,0,1,3.94,3.79,3.59,3.59,0,0,1-2,5.58,9.93,9.93,0,0,1-2,.26c-1,.07-2,0-3,.16-5.29.58-9.07,3-10.32,8.5-.66,2.92-1.42,5.81-2.24,8.68a5.48,5.48,0,0,1-3.88,4.08,147.79,147.79,0,0,1-19.69,5.39A52,52,0,0,1,797.6,2074.45Z"/><path class="cls-1" d="M532.49,1204.61c-1.61.09-4.27-.45-6.85.73-1.88.86-3.55-.22-5.16-1.1-2.34-1.28-4.62-2.65-7-3.84-1.58-.8-2.1-.52-2.61,1.07a24.45,24.45,0,0,0-.73,2.89c-.18,1,.22,2.27-.72,2.78a9.5,9.5,0,0,1-4.67,1.45,2.15,2.15,0,0,1-1.93-1.39c-1-2.46-2.92-2.94-5.26-2.72-.33,0-.67,0-1,0-6.94.28-11.7-2.89-14.74-9a133.58,133.58,0,0,1-5.49-13.37,35.36,35.36,0,0,0-2.87-6.36c-1.53-2.49-2.88-2.48-4.37-.07-.43.71-.74,1.5-1.2,2.19a1.67,1.67,0,0,1-2.87-.23,4.1,4.1,0,0,1-.53-3.79c.47-1.25.91-2.51,1.28-3.78.57-1.91,1.62-3.76,1.25-5.8-.33-1.79,1.88-2.52,1.54-4a13.18,13.18,0,0,1-.56-4.4,6.5,6.5,0,0,1,2.89-5,5,5,0,0,1,7.22,1.93,4.58,4.58,0,0,1,.57,1.38c.53,3.67,3.16,5,6.33,5.24,5.37.4,9.4,3,12.86,6.85,1.57,1.72,3.06,3.52,4.68,5.18a69.87,69.87,0,0,0,10.2,8.76,11.4,11.4,0,0,0,1.69,1.06c2.85,1.3,5.52.28,6.36-2.68a21.19,21.19,0,0,0,1.2-6.86,14.89,14.89,0,0,1,.28-3.46,1.55,1.55,0,0,1,1-1c.38-.06.89.32,1.25.62a1.93,1.93,0,0,1,.37.91,21.87,21.87,0,0,0,8.74,12.37,41.61,41.61,0,0,1,4,3.75,9.68,9.68,0,0,1,3.44,8,6.65,6.65,0,0,0,1.07,4.16c2.39,3.83.3,7.37-4.18,7.61C536.52,1204.68,535,1204.61,532.49,1204.61Z"/><path class="cls-1" d="M795.2,1013.66a13.29,13.29,0,0,1-5.53-1.88,29.86,29.86,0,0,1-6.18-5,13.35,13.35,0,0,0-5.29-3.54c-7.78-2.66-11.4-8.52-12.32-16.53-1.23-10.7,1.49-20.38,6.91-29.47.08-.14.15-.3.24-.44,2.2-3.37,3.37-3.45,6-.39a9.27,9.27,0,0,1,.6.8c.56.81.91,1.85,1.91,2.23,1.18.44,1.74-.71,2.56-1.17a1.44,1.44,0,0,1,1.84.19c2.67,3.12,5.17,2.81,8.06.12,1.69-1.57,3.76-1.07,5.1,1,1,1.53,1.73,3.11,3.65,3.78a2.2,2.2,0,0,1,1.18,2.07c.1,2.14,1.6,2.77,3.32,3.08,1.14.2,2.34.09,3.48.31,3,.59,4.45,2.89,3.75,5.87a7.63,7.63,0,0,1-.43,1.43,4.09,4.09,0,0,0,.72,5c2,2.36,1.73,5.23.34,7.94a23.29,23.29,0,0,1-5.38,6.51,15.89,15.89,0,0,0-4.74,7.42,33.29,33.29,0,0,1-3.13,6.78A7.52,7.52,0,0,1,795.2,1013.66Z"/><path class="cls-1" d="M675.65,2134.12c2-.74,3.76-1.32,5.44-2a7.29,7.29,0,0,1,5.81,0,28,28,0,0,0,13.66,2.13,9.54,9.54,0,0,1,2.5.12,5.61,5.61,0,0,1,4.55,7.8,15.33,15.33,0,0,1-3.13,5.08,43.24,43.24,0,0,1-13.83,9.65,17.9,17.9,0,0,1-3.8,1.21c-4.58.9-7.28-1.18-7.8-5.89a16,16,0,0,0-.18-2,4.77,4.77,0,0,0-6.15-3.57,71.52,71.52,0,0,0-7.36,3.08c-2.42,1.1-4.77,2.37-7.18,3.51a9.47,9.47,0,0,1-4.32,1.05,3.82,3.82,0,0,1-3.49-1.54c-2.21-3.37-5.27-2.91-8.43-1.89-.94.3-1.79.88-2.71,1.27a43.74,43.74,0,0,1-4.64,1.82c-3.53,1-6.69.23-8.91-2.76-1.37-1.84-3.14-3.4-3.88-5.75a8.28,8.28,0,0,1,.23-6.28,22.13,22.13,0,0,1,7.09-8.25,56.63,56.63,0,0,1,21.53-10.16c5-1.22,10.31-1.38,14.91,1.87a28.17,28.17,0,0,1,6.29,6.37C673.13,2130.7,674.39,2132.42,675.65,2134.12Z"/><path class="cls-1" d="M1348.45,1456.28a14,14,0,0,0,1.6-5.72,14,14,0,0,1,.67-3.39,5,5,0,0,1,4.75-3.76c2.73-.17,4.26.68,5.54,3.32s1.59,5.76,1.81,8.71a39.61,39.61,0,0,1-1.6,12.78,14.47,14.47,0,0,1-3,6.25c-1.44,1.61-1.12,2.94,0,4.41s1.92,2.72,1.76,4.54c-.19,2-.08,3.92,2.11,5.11a2,2,0,0,1,.55,2.71c-1.34,3-.39,5.57,1.42,7.9,2.16,2.77,2.36,5.67,1.32,8.91-.76,2.36-1.13,4.85-1.81,7.23-1.2,4.19-.55,7.88,2.59,11a12.71,12.71,0,0,1,1.63,1.89c2.45,3.66.25,8-4.19,8.28a7.58,7.58,0,0,1-4.32-.92A4,4,0,0,1,1357,1532a12.39,12.39,0,0,1,0-1.49c.29-3.24-.79-5.38-4.2-6.31a4.78,4.78,0,0,1-3.47-3.92c-.23-1.47-.7-2.43-2.22-2.91s-2.13-1.95-2.11-3.58c0-.5,0-1,0-1.49-.08-2.49.45-4.64,3-5.78.71-.32,1-.92.59-1.57a3.55,3.55,0,0,0-1.49-1.2,3,3,0,0,0-2.37.5c-1.64.81-3.25,1.69-4.93,2.4-2.93,1.25-4.16.78-5.5-2.17-.89-2-1.53-4-2.39-6a6.93,6.93,0,0,1,.52-6.68,11.12,11.12,0,0,0,1.89-6.58,3.69,3.69,0,0,1,1.29-3.14c1.58-1.22,1.48-2.8,1.49-4.49a51.23,51.23,0,0,0-1.52-10.31,2,2,0,0,1,1.61-2.58c.48-.14,1-.08,1.48-.22,2-.6,2.41-1.1,2.49-3.14,0-.67-.09-1.33-.07-2,.11-3.77,2.41-5.13,6-3.54C1347.38,1456,1347.85,1456.08,1348.45,1456.28Z"/><path class="cls-1" d="M817.91,1107.36c.39,4.86-.63,9.28-1.3,13.68a288.28,288.28,0,0,1-8.79,38.25,135.91,135.91,0,0,1-7.86,21.5,11.18,11.18,0,0,1-2.76,4.1c-1.31,1.07-3.11.93-3.82-.58-1.85-3.9-3.58-7.86-5.24-11.84a5.29,5.29,0,0,1-.07-2.45,1.36,1.36,0,0,1,1.3-1.28c1.15-.09,2.32,0,3.47-.12a1.53,1.53,0,0,0,1.42-1.21,1.69,1.69,0,0,0-.61-1.26c-1.91-1.59-3.85-3.16-5.84-4.65a18.34,18.34,0,0,1-4.69-5.76,8,8,0,0,1-.36-7.66,27.84,27.84,0,0,1,3.76-6.43,32.53,32.53,0,0,0,7.18-16.71,21.84,21.84,0,0,0-.12-6.94,41,41,0,0,1-.63-4.93c-.23-3.8,1.68-6.34,5-7.8a42.65,42.65,0,0,1,5.21-1.66c3.57-1,6.9-2.34,8.82-5.93.7-1.31,2.18-1.28,3.38-.24a7.53,7.53,0,0,1,2.48,5.27C818,1104.36,817.91,1106,817.91,1107.36Z"/><path class="cls-1" d="M515.59,2263.74a5.08,5.08,0,0,0-1.58,0,4.4,4.4,0,0,1-5.07-1c-1.59-1.55-2.52-.91-2.95,1.14a6.9,6.9,0,0,1-.48,1.41c-1.27,2.75-2.48,3.4-5.57,2.92a22.45,22.45,0,0,1-2.4-.66,7.08,7.08,0,0,0-7.66,2.35,31.28,31.28,0,0,0-2.81,4.1c-2.17,3.49-5,5.74-9.4,5.37a16.73,16.73,0,0,0-4.91.68c-3.88.85-7.65,2.3-11.73,2.12-1.55-.07-2.82.94-4.17,1.56s-2.61,1.5-4,2.05a3.48,3.48,0,0,1-4.79-3.38,9.53,9.53,0,0,1,1.19-4.29,16.75,16.75,0,0,1,5.27-6.56c1.71-1.25,2.57-1.18,4.4.23,2,1.56,2.11,1.6,3.68.12,11.57-11,25-19.31,38.64-27.33,4.15-2.44,8.47-4.61,12.74-6.87a23.27,23.27,0,0,1,3.2-1.39c3.47-1.27,4.9-.51,5.56,3.11a19.14,19.14,0,0,1,.18,4.48c-.1,2.13.67,3.64,2.8,4,1.87.37,2.31,1.46,2.41,3.17.4,6.91-1.78,13.1-5.11,19a8.39,8.39,0,0,1-1.21,1.58c-.81.87-1.73,1.67-3,1.3a3.57,3.57,0,0,1-2.6-2.78,34.83,34.83,0,0,1-.31-4C515.82,2265.46,515.7,2264.65,515.59,2263.74Z"/><path class="cls-1" d="M780,778.75c.07-3.11.53-5.87,2.7-8a4.88,4.88,0,0,0,.87-6,56.15,56.15,0,0,0-3.6-6.54c-2.44-3.79-4.92-7.48-5.08-12.26-.06-1.86-1.4-3.34-2.85-4.53a16.5,16.5,0,0,0-2.48-1.66c-2.93-1.56-3.82-4.09-3.33-7.14a68.15,68.15,0,0,1,1.76-8.26c1-3.35,2.87-4.22,6-3.11a8.39,8.39,0,0,1,1.36.63,2.76,2.76,0,0,0,3.6-.31c4.5-3.71,9.5-3.37,14.59-1.49a19.32,19.32,0,0,1,3,1.77c1.39.83,1.14,2.82,2.5,3.6s2.81,1.1,4,1.94A5.5,5.5,0,0,1,805,734.8a1.53,1.53,0,0,1-2.5.35c-.94-1.16-1.58-2.6-3.1-3.12a2.34,2.34,0,0,0-1.39.17c-.15.06-.21.55-.19.84a2.74,2.74,0,0,0,.31.94c1.67,3.38.74,6.09-2.1,8.34a22.16,22.16,0,0,0-2.23,2c-2.77,2.89-2.39,6.78,1.1,8.75s4.84,5,5.08,8.59a91.45,91.45,0,0,1,0,11.47,14.7,14.7,0,0,1-6.22,11.42,12.82,12.82,0,0,1-2.12,1.3C785.17,789,779.2,784.14,780,778.75Z"/><path class="cls-1" d="M951.05,1021.67a7,7,0,0,1,4.93,1.7,21.19,21.19,0,0,1,4.09,4.36,89.68,89.68,0,0,1,7,12.08,115.08,115.08,0,0,0,8,13.84,13.83,13.83,0,0,0,7,5.43,13.37,13.37,0,0,0,4.94.43,5.11,5.11,0,0,1,4.9,2.84c1,1.88,2.14,3.77,2,6.07-.11,3,1.43,5.43,3.16,7.69s3.67,4.3,5.45,6.49c1.37,1.68,2.69,3.39,3.9,5.18a11.31,11.31,0,0,1,1.44,3.16c.32,1.1.6,2.46-.41,3.28s-2.2,0-3.21-.53a13.53,13.53,0,0,1-4-3.74c-3-4-6.09-7.91-9-12a25.47,25.47,0,0,0-8.51-7.5,186.36,186.36,0,0,1-23.12-15.68c-3.65-2.89-7.2-5.9-10.71-9a38.46,38.46,0,0,1-8.13-10c-1.13-2-2.22-4.11-1.09-6.6C941.09,1026.15,947.56,1021.73,951.05,1021.67Z"/><path class="cls-1" d="M1181.22,1285.59h-1.4c-6.51.1-6.52.12-11.09-4.8a32.89,32.89,0,0,1-8.35-15.58,14.94,14.94,0,0,1,1.83-11c3-5,8.6-6.93,14.79-5.14a22.42,22.42,0,0,1,11.65,8.11,48.06,48.06,0,0,1,5.57,8.82c1.14,2.39,2.13,4.88,4.2,6.7a4.92,4.92,0,0,1,.8,1.26c2.49,4.25,1.66,7.14-2.78,9.24a13.44,13.44,0,0,1-4.26,1.28C1188.23,1284.87,1184.34,1286,1181.22,1285.59Z"/><path class="cls-1" d="M877.74,1122.69c4.09-.29,8.06.93,12,2.36a21.4,21.4,0,0,1,10,8c2.5,3.45,4,7.18,2.64,11.65-.62,2-.42,4.24-1.39,6.26-2.65,5.51-7.16,7.65-13.09,6.13a33.81,33.81,0,0,1-12.37-6.18c-5.66-4.41-11-9.18-14.34-15.65-3.12-6-3-6.33,3.06-9.42A26,26,0,0,1,877.74,1122.69Z"/><path class="cls-1" d="M485.56,1239.14c-1.29-.84-2.17-.14-3.11.1-5.41,1.36-8.32-.88-9.38-6.66.86-4.54-1.32-7.89-4.1-11.15a33.22,33.22,0,0,1-3.28-5.58A7.64,7.64,0,0,1,465,1211a2,2,0,0,1,2.79-1.91c1.75.52,2.91.5,3.34-1.55a2.65,2.65,0,0,1,.44-.89c1.29-1.88,2.7-2.35,4.69-1.28a23.32,23.32,0,0,1,7.37,5.86,3.34,3.34,0,0,0,2.93,1.43c1.34,0,2.68-.07,4,0a7.73,7.73,0,0,1,2.38.56,2,2,0,0,1,1,2.86c-.84,2.15-.78,2.72.64,3.67a33.49,33.49,0,0,0,3.05,1.7c1,.54,2.1,1,3.09,1.62a1.62,1.62,0,0,1,.85,1.67,1.83,1.83,0,0,1-1.21,1.46c-.77.28-1.64.3-2.41.57a2.54,2.54,0,0,0-.89,4.4,28.7,28.7,0,0,0,2.43,1.73,3.24,3.24,0,0,1,1,4.4,4.57,4.57,0,0,1-.89,1.2,3.05,3.05,0,0,0-.78,3.16c1,4.4-1,7.38-4.79,9.4q-4.62,2.48-9.25,4.93c-1.47.78-2.62.63-3.52-.62a11,11,0,0,1-1.85-9.45c.24-1,.77-2.09,1.86-2.15C484.45,1243.6,484.16,1240.73,485.56,1239.14Z"/><path class="cls-1" d="M1408.74,1537.14a29.59,29.59,0,0,1-1.92-2.37c-1.17-1.86-1.3-3.83.17-5.53,4.35-5,6.32-11.24,9-17.13a12.66,12.66,0,0,1,2.8-4.64,3.4,3.4,0,0,1,4.54-.22,10.84,10.84,0,0,1,2.85,3.42,64.44,64.44,0,0,1,5.49,13.32,15.75,15.75,0,0,1,0,8.87c-1.07,3.39,0,5.39,2.84,7a8.61,8.61,0,0,1,3.48,3.47c1.69,3.22,1,6.26-2.1,8.2a16.7,16.7,0,0,1-11.89,2.67c-2.12-.38-4.07-1.26-6.08.51-.78.69-1.91-.16-2.67-.78a22.71,22.71,0,0,1-6.24-7.67c-1.07-2.23-1.77-4.6-4.32-5.71-.6-.26-.69-1.08-.51-1.78a1.58,1.58,0,0,1,1.45-1.15c.32-.07.67,0,1-.09C1407.07,1537.46,1407.55,1537.36,1408.74,1537.14Z"/><path class="cls-1" d="M42,1827.1a54.07,54.07,0,0,1-1.9,17.22,24.67,24.67,0,0,1-3.21,7.28c-4.75,7.25-10.69,5.26-13.51-.46a32.11,32.11,0,0,1-2.76-8.51c-1.56-8.55-2.14-17.13-.49-25.74a1.5,1.5,0,0,1,1-1,2.16,2.16,0,0,1,1.29.52c.26.18.38.54.58.81,2.33,3.16,3.56,3.15,5.66-.11a1.74,1.74,0,0,0,.18-1.88,24.55,24.55,0,0,1-1.31-2.11c-1.35-3.05-.52-5.5,2.38-7.16.57-.33,1.18-.62,1.78-.9,2.26-1,3.07-.82,4.74,1.15s3,4,2.64,6.76a3.29,3.29,0,0,0,1.3,3.06,5.32,5.32,0,0,1,1.68,4.5C42,1822.9,42,1825.23,42,1827.1Z"/><path class="cls-1" d="M1072,1145.65c0,.67,0,1.17-.1,1.66a2,2,0,0,1-3.32,1.35,48.9,48.9,0,0,1-5.89-6.07c-9-11.78-16.82-24.33-24.66-36.87a4.22,4.22,0,0,1,.26-5.49c3.71-4.38,7.91-5.94,13.11-2.64a19.39,19.39,0,0,1,4.78,4.31c6.33,7.78,9.85,16.89,12.71,26.31a76,76,0,0,1,2,8.72C1071.45,1139.86,1071.69,1142.85,1072,1145.65Z"/><path class="cls-1" d="M452,1435.17c-.35-6.24,2.21-11.35,6.5-15.62,4.83-4.8,10.56-6.19,17.35-3,3.29,1.55,6.3,3.62,9.75,5,3.06,1.19,3.86,3.39,3.46,7a6.89,6.89,0,0,1-5.23,6,5.34,5.34,0,0,1-2,.18c-3-.48-5,.18-5.47,3.75-.22,1.81-1.8,3.11-3.42,4.11a24.9,24.9,0,0,1-12.33,3.62c-4.76.17-7.83-3-8.6-7.47A21.38,21.38,0,0,1,452,1435.17Z"/><path class="cls-1" d="M1043.09,1656.58a9.07,9.07,0,0,1-3.93-.57c-4.91-2.45-10-4.63-14.54-7.72a14.48,14.48,0,0,1-2.27-1.93c-2-2-1.84-4,.19-6.08a13.62,13.62,0,0,1,3.72-2.49c3.27-1.64,6.53-3.31,9.84-4.87a10.5,10.5,0,0,0,4.78-4.23,14.07,14.07,0,0,1,2.1-2.76c2-2,4.62-2.23,6.65-.31,2.9,2.73,5.66,5.62,8.45,8.48a1.89,1.89,0,0,1,.36,2.29c-.72,1.5-1.49,3-2.14,4.51a2.43,2.43,0,0,0,.83,3.1c.66.5,1.43.86,2.07,1.39,2.19,1.84,2.2,3.36,0,5.4a7.66,7.66,0,0,1-1.54,1.26A33.93,33.93,0,0,1,1043.09,1656.58Z"/><path class="cls-2" d="M1077,1009.62a3.7,3.7,0,0,0-.88-2.28c-5.87-6.6-10.46-14.09-15.11-21.55-2.63-4.22-5.52-8.27-8.29-12.4-3.89-2.59-6.36-6.8-10.47-9.16a8.21,8.21,0,0,1-2.75-2.11,13,13,0,0,0-7-5.28c-1.39-.45-1.53-1.16-1.14-2.82.19-.81.43-1.6.65-2.4.92,1.45,1.21,3.31,3.72,3.32,1.9,0,3,1.89,4.21,3.28a14.32,14.32,0,0,0,3.06,3.21c6.7,4.3,11.82,10.17,16.2,16.71,3.79,5.66,7.36,11.47,11.14,17.13,2.3,3.44,4.55,6.94,7.71,9.73,1.06-.86.18-1.52-.07-2.11a7.85,7.85,0,0,1-.4-6.29c.56-1.36.12-2.55-.35-3.83a3.27,3.27,0,0,0-2.37-2.22c-3.52-1.11-5.66-3.93-7.76-6.73a3.19,3.19,0,0,1-.47-1.4,1.4,1.4,0,0,1,1-1.54,3.82,3.82,0,0,1,3.37.33c2.91,1.59,6.06,2.92,8.61,5a20.14,20.14,0,0,0,6.52,3.43,13.53,13.53,0,0,1,4.48,2.1,2.79,2.79,0,0,1,.75,4c-.53,1-1.11,2-1.65,3,0,.12,0,.3.06.64a20.25,20.25,0,0,1,10.7.18c2.31.67,5,.34,7.44.26a14.28,14.28,0,0,1,6.31,1.22c3.12,1.4,3.64,3.65,1.57,6.36-.59.78-1.21,1.56-1.81,2.34l.06-.06c-7,2-13.8,1.55-20.28-2-2.17-1.19-4.42-2.25-5.67-4.75,0,1.43.07,2.86,0,4.29-.11,1.79-.71,2.38-2.41,2.56-1.31.14-2.65-.25-3.92.43C1080.07,1011.06,1078.52,1010.38,1077,1009.62Z"/><path class="cls-1" d="M1379,1969a66.17,66.17,0,0,1-.65,7.41,28.12,28.12,0,0,0,.46,11.82,11.17,11.17,0,0,1-.58,7.8,6.3,6.3,0,0,1-1.74,2.38,2.08,2.08,0,0,1-2.72,0,11.34,11.34,0,0,1-3.37-5.43,75.92,75.92,0,0,1-4.35-15.26c-.27-1.82-.91-3.09-2.69-3.77a9.61,9.61,0,0,1-3.74-2.4c-1.64-1.76-1.94-3.24-.95-5.43a3.1,3.1,0,0,1,.45-.89c2.79-3,3.34-6.75,3.88-10.53.24-1.68.49-3.43,2.24-4.13,2.09-.84,3.36.72,4.69,2a27.44,27.44,0,0,0,3.35,2.94A12.64,12.64,0,0,1,1379,1967C1379,1967.64,1379,1968.3,1379,1969Z"/><path class="cls-1" d="M1219.19,1658.47a24.54,24.54,0,0,1-17.65-9,6.94,6.94,0,0,1-1.56-4.13c0-1-.09-2-.08-3,0-4.9,2.3-8.11,6.9-9.76a15.27,15.27,0,0,1,16.81,5.44,30.9,30.9,0,0,1,4.71,9.83c1.5,5.92-1.58,10.32-7.63,10.61C1220.19,1658.49,1219.69,1658.47,1219.19,1658.47Z"/><path class="cls-1" d="M1304.1,1523.29c-.1,1.59-.1,2.09-.18,2.58a2.62,2.62,0,0,1-3.64,2.22,16.49,16.49,0,0,1-5.82-3.73,99.26,99.26,0,0,1-15.1-19.07c-1.73-2.82-3.63-5.57-4.51-8.83a19.64,19.64,0,0,1-.77-2.87c-.4-3.63,2-5.76,5.54-4.72a51.29,51.29,0,0,1,6,2.45c1.06.48,2.05,1.1,3.08,1.64a10.93,10.93,0,0,1,5.7,7.07c1.78,6.23,4.77,12,7.79,17.74C1303.25,1519.85,1304.26,1521.93,1304.1,1523.29Z"/><path class="cls-1" d="M704.7,20.79c3.17.16,5.52-.09,7.76.83a4.78,4.78,0,0,0,3.41-.06,11.56,11.56,0,0,1,2.91-.58c3.38-.21,5,1.21,5.23,4.54a37.92,37.92,0,0,1,0,4,12.8,12.8,0,0,0,1.12,5.79c2.12,4.82-.14,8.63-5.3,8.42-6-.24-11.83-1.75-16.61-5.86-2.82-2.43-4.68-5.63-6.79-8.56-2.5-3.49-1-6.87,3.15-8A26,26,0,0,1,704.7,20.79Z"/><path class="cls-1" d="M505.49,908.71c6.45-.05,11.86,2.7,16.67,6.67a23.15,23.15,0,0,1,6.24,7,11.21,11.21,0,0,1,1.67,6.14c-.18,2.24.15,4.28,2,5.83a3.45,3.45,0,0,1,.73,1.27,1.59,1.59,0,0,1-1,2,7.14,7.14,0,0,1-4.33-.64,69.65,69.65,0,0,1-10.6-5.43,65.94,65.94,0,0,1-13.15-9.73c-1.27-1.29-2.32-2.8-3.47-4.2-1.38-1.67-1.48-3.64-1.32-5.66s1.06-3,3.08-3.22A33.65,33.65,0,0,1,505.49,908.71Z"/><path class="cls-1" d="M821.17,884.75a14.65,14.65,0,0,1-6.5-1.77,102.7,102.7,0,0,1-16.36-9.51,78.21,78.21,0,0,1-9.76-8.51c-3-2.91-4.29-6.65-5.41-10.49a6.24,6.24,0,0,1-.09-2,2.79,2.79,0,0,1,3.41-2.72,7,7,0,0,1,2.33.8,56.88,56.88,0,0,1,6.3,4c3.13,2.47,6.16,5.08,9,7.83,5.18,4.94,10.91,9.26,15.76,14.54a18.57,18.57,0,0,1,3.18,3.82C824.3,883.12,823.42,884.75,821.17,884.75Z"/><path class="cls-1" d="M1164.1,1408.31c1-1.16,1.91-2.32,2.94-3.32a7.82,7.82,0,0,1,9.59-1.47,25.42,25.42,0,0,1,4.19,2.67c1.9,1.49,3.4,3.44,2.91,6a6.92,6.92,0,0,1-4.92,5.19c-3.16,1-6.45,1.64-9.71.11-.75-.35-1.57-.56-2.3-.94-2.23-1.19-3-1.39-4.5.92-1.3,2-3.36,3.17-5.3,4.46-3,2-6.26,2-9.59,1.54-1.74-.24-2.39-1.63-1.74-3.29,1.39-3.55,2.77-7.1,4.17-10.64a21.53,21.53,0,0,1,1.15-2.75c2.25-4.07,5.2-4.82,9-2.17A44.59,44.59,0,0,1,1164.1,1408.31Z"/><path class="cls-1" d="M924.62,1935.45c-.75,0-1.59.07-2.41,0a7.58,7.58,0,0,1-7.07-7.67A18.09,18.09,0,0,1,922,1914c.74-.61,1.56-.28,2.24.33,1.36,1.21,2.7,2.46,4.13,3.59a1.53,1.53,0,0,0,2.45-.65c.49-1,.83-2.18,1.41-3.18a3.15,3.15,0,0,1,3.87-1.44,7.5,7.5,0,0,1,2.63,1.37c2.31,2.16,4.53,4.4,6.7,6.7.85.9.57,2-.87,2.66a2.33,2.33,0,0,0-1.59,2.22,3.41,3.41,0,0,1-2.53,3.36c-2.36.62-4,2.29-6,3.5C931.48,1934.28,928.4,1935.84,924.62,1935.45Z"/><path class="cls-1" d="M68,1781.4a39.36,39.36,0,0,1-6.45,5,7.62,7.62,0,0,1-3.28,1c-2.69.24-4.52-1.4-4-4.33a12.11,12.11,0,0,1,7.33-9.45,3.47,3.47,0,0,1,3.75.55c.77.62,1.67,1.07,2.44,1.69,1.18,1,2.08.75,3.53.16,5.4-2.22,9.87-.4,11.84,5.33,1.89,5.55.19,10.51-3,15a5.91,5.91,0,0,1-6.62,2.29,6.67,6.67,0,0,1-5.25-5.4,20.23,20.23,0,0,1-.27-4C68,1787.06,68,1784.76,68,1781.4Z"/><path class="cls-3" d="M1411,1569a26.53,26.53,0,0,1-3.89,13.18c-1.7,2.89-3.62,3.07-5.9.67-.34-.35-.51-1-.9-1.15-3.48-1.32-3.15-4.74-4.12-7.41a3.83,3.83,0,0,1,.39-2.9c.44-.89.85-1.8,1.3-2.68,1.09-2.16,1.57-4.33.54-6.68-.89-2-.51-4.24-.46-6.39a6.56,6.56,0,0,1,1.14-3.25,3.19,3.19,0,0,1,4.66-1.31c.28.15.5.46.79.58,2.44,1,3.74,2.62,3.31,5.38a18.76,18.76,0,0,0,0,2.49,4,4,0,0,0,1.31,3.58C1411.13,1564.69,1411.11,1566.85,1411,1569Z"/><path class="cls-2" d="M452.76,1288.52c.49-2.19.8-3.63,1.14-5.07.45-1.88,1.62-2.3,3.26-1.15a9.47,9.47,0,0,1,1.12,1c.75.69,1.54,1.31,2.65.91s1.07-1.52,1.1-2.5c0-1.16,0-2.32.07-3.47a1.85,1.85,0,0,1,.74-1.22c2.46-1.61,6.64.21,7,3.2a32,32,0,0,1,0,7.45,26.32,26.32,0,0,1-3.78,10.7,7.93,7.93,0,0,1-1.59,1.87,2.65,2.65,0,0,1-4.44-1.06c-.51-1.22-.75-2.55-1.25-3.78a1.3,1.3,0,0,0-1.67-.69,10.39,10.39,0,0,0-2.14,1.18,2.6,2.6,0,0,1-3.59-.34c-2.34-2.1-4.72-4.17-7-6.3-1.6-1.48-1.6-2.71-.15-4.27s2.77-1.72,4.34-.43c.64.53,1.19,1.16,1.79,1.73S451.53,1287.37,452.76,1288.52Z"/><path class="cls-1" d="M1055.91,1325.21a14.62,14.62,0,0,1,5.64-11.72,3.32,3.32,0,0,1,5.17.76,23.49,23.49,0,0,1,2.19,4.44c.81,2.16,1.4,4.41,2.12,6.61.62,1.88,1.1,3.82,2.44,5.39a6.38,6.38,0,0,1,.93,1.75c1.62,3.89.1,6.19-4,6.17a10.53,10.53,0,0,1-3.86-.76c-3.86-1.53-6.65-4.32-9-7.57A8,8,0,0,1,1055.91,1325.21Z"/><path class="cls-4" d="M692.88,112.86a30.35,30.35,0,0,1-3.11,0,7.73,7.73,0,0,1-4.87-2.27c-2.51-2.43-2.34-4.44.55-6.52a12.13,12.13,0,0,1,4.62-1.81,87.19,87.19,0,0,1,11.27-2,23.49,23.49,0,0,1,10.24,1.62c3.08,1.16,3.41,4.25.74,6.2a14.67,14.67,0,0,1-4.4,2.29C703.31,111.74,698.69,113.23,692.88,112.86Z"/><path class="cls-2" d="M1360,1394.69a14,14,0,0,1,0-2.42c.91-5,4.32-5.56,8.17-4.38a4.11,4.11,0,0,1,1.77,1.65,14.09,14.09,0,0,1,2.2,5.5c.47,2.49,1.6,3.32,4.1,3.5,1.49.11,3,0,4.48.17,3.49.52,5,3.5,3.42,6.68a3.4,3.4,0,0,1-3,2.21,13.7,13.7,0,0,1-6.83-1,117.88,117.88,0,0,1-11-5.82C1360.88,1399.34,1359.5,1397.62,1360,1394.69Z"/><path class="cls-2" d="M682.22,75.65a42.61,42.61,0,0,1-.47,5.44c-.61,2.94-2.23,3.57-4.66,1.93-4.59-3.09-7.11-7.35-7-13,.07-4.36,1.47-8.46,2.72-12.57.44-1.42,1.6-1.61,2.69-.63a11.74,11.74,0,0,1,2.7,3.55C680.54,65.21,682.47,70.13,682.22,75.65Z"/><path class="cls-2" d="M528,1206.63c3.36-.33,5.13,1.87,5.76,5a3,3,0,0,1-1.28,3.06c-2.45,1.74-2.69,3.91-1.79,6.59a34,34,0,0,1,1.09,5.35,6.3,6.3,0,0,1-1,5.21,1.64,1.64,0,0,1-2.57,0,10.38,10.38,0,0,1-.74-1.3c-2.37-4.76-4.75-9.52-7.08-14.3a15.14,15.14,0,0,1-1.21-3.25c-.49-2.22.12-3.46,2.3-4.3S525.54,1206.42,528,1206.63Z"/><path class="cls-2" d="M833,1117.9a20.55,20.55,0,0,1,1.49-10.13c1.11-2.48,3.24-2.93,5.16-1.07a9.76,9.76,0,0,1,2.11,2.74,27.24,27.24,0,0,1,2.3,14.08,5.86,5.86,0,0,1-2.51,4.13,3.11,3.11,0,0,1-3.27.49,7.62,7.62,0,0,1-5.25-6.65A27.24,27.24,0,0,1,833,1117.9Z"/><path class="cls-2" d="M1114,1009.7c1.86-.68,3.8-1.21,5.59-2.05,5.09-2.39,12.15.28,15.55,4.78a4.83,4.83,0,0,1,1,3.27,2.77,2.77,0,0,1-2.71,3,14,14,0,0,1-5.93-.45,30.58,30.58,0,0,0-8.26-1.69,15.88,15.88,0,0,1-4.78-1.3c-2.07-.86-2.37-2.34-1.14-4.34.25-.42.53-.84.79-1.26Z"/><path class="cls-5" d="M626.94,946.74c-6.05.38-9.7-2.07-12.13-6.54a7.65,7.65,0,0,1-.73-2.35,1.65,1.65,0,0,1,2.15-1.89,22.81,22.81,0,0,1,2.7,1.26c2.81,1.48,5.58,2.91,9,2.6a6.67,6.67,0,0,1,4.55,1.78C634.16,943,634,945,632,946a6.52,6.52,0,0,1-2.35.7A20.5,20.5,0,0,1,626.94,946.74Z"/><path class="cls-5" d="M423.55,1338.55a3.73,3.73,0,0,1-3.1-5.43,12.83,12.83,0,0,1,7.43-6.28c2.28-.79,5.21,2,4.7,4.36A10.18,10.18,0,0,1,423.55,1338.55Z"/><path class="cls-2" d="M1129.21,1197.64c-2.21.17-3.34-.43-4.26-1.5a2.84,2.84,0,0,1-.29-3.66c2.4-3.51,8.36-5.2,12.11-3.42a5.17,5.17,0,0,1,1.18.91,2,2,0,0,1,.18,3.06,14.4,14.4,0,0,1-3.1,2.47A18.58,18.58,0,0,1,1129.21,1197.64Z"/><path class="cls-6" d="M1132,1137.51a9.17,9.17,0,0,1-.57,2c-1,2-2.87,2.45-4.52,1a12.79,12.79,0,0,1-4.79-11.46c.1-1,.83-1.36,1.74-1.4a3.27,3.27,0,0,1,1,.08C1128.51,1128.73,1131.93,1133.23,1132,1137.51Z"/><path class="cls-7" d="M750.76,1062.3c-2.82-.34-6.07-4.44-5.67-7.16a3.07,3.07,0,0,1,1.28-2,6.17,6.17,0,0,1,8.74,1.33,3.57,3.57,0,0,1,.48.85c.75,2-2.18,6.7-4.34,7A4,4,0,0,1,750.76,1062.3Z"/><path class="cls-8" d="M653.28,953.69c2-.22,3.24.93,4.05,2.78a4.9,4.9,0,0,1-.7,5.53,2.19,2.19,0,0,1-1.75.64,10.74,10.74,0,0,1-7.36-5.33c-.63-1,.14-1.9.93-2.54C649.57,953.87,650.58,953.69,653.28,953.69Z"/><path class="cls-9" d="M52.92,1797.49a11.19,11.19,0,0,1,5.49,1.34,3,3,0,0,1,1.53,3.36c-.2,1.35-1.15,2.14-2.79,2.29a8.16,8.16,0,0,1-7.16-2.63,2.45,2.45,0,0,1,1.24-4.22A8.74,8.74,0,0,1,52.92,1797.49Z"/><path class="cls-10" d="M1072,1816.39c-.87,2-3,2.58-4.55,3.67-4.14,2.81-8.08,5.77-10.94,10a1.63,1.63,0,0,1-1.22.64,1.43,1.43,0,0,1-1.17-1.41c-.21-2,1-3.83.32-5.85-.08-.24.48-.86.86-1A17.46,17.46,0,0,1,1059,1821a40.36,40.36,0,0,0,11.16-4,7.7,7.7,0,0,1,1.89-.47Z"/><path class="cls-1" d="M1080.91,991a15.87,15.87,0,0,1,5.54,1.94,2.51,2.51,0,0,1,1.15,3.4,14.53,14.53,0,0,1-1.08,2.25c-1.35,2.24-2,4.52-.75,7.07a1.43,1.43,0,0,1-.35,1.32,1.21,1.21,0,0,1-1.74-.26,19.17,19.17,0,0,1-1.58-1.9c-.88-1.2-1.67-2.47-2.57-3.66-1.55-2.06-1.66-2.12.1-3.83a3.79,3.79,0,0,0,1.25-3.56C1080.75,992.89,1079.79,992,1080.91,991Z"/><path class="cls-1" d="M1074.28,987.68c.47-.49.63-.72.69-.7a4.89,4.89,0,0,1,1.25.63c.32.27.2.63-.2.79a.62.62,0,0,1-.48,0C1075.1,988.16,1074.68,987.91,1074.28,987.68Z"/></svg>